/* XPM */
static char * corner_rjunc_r_xpm[] = {
"64 64 638 2",
"  	c None",
". 	c #000000",
"+ 	c #010100",
"@ 	c #060802",
"# 	c #111506",
"$ 	c #171C08",
"% 	c #0E1106",
"& 	c #111408",
"* 	c #191E0A",
"= 	c #20260D",
"- 	c #272E10",
"; 	c #2F3917",
"> 	c #344B26",
", 	c #386035",
"' 	c #3C7545",
") 	c #408854",
"! 	c #45955F",
"~ 	c #4A9A63",
"{ 	c #153009",
"] 	c #010200",
"^ 	c #040501",
"/ 	c #0F1206",
"( 	c #1F260C",
"_ 	c #2C3515",
": 	c #252F14",
"< 	c #1A200B",
"[ 	c #262D10",
"} 	c #2D3514",
"| 	c #313C1A",
"1 	c #385E34",
"2 	c #3B7143",
"3 	c #3F8451",
"4 	c #42905B",
"5 	c #538656",
"6 	c #4D6D43",
"7 	c #254D13",
"8 	c #295415",
"9 	c #000100",
"0 	c #020300",
"a 	c #070903",
"b 	c #101307",
"c 	c #1C210B",
"d 	c #272F11",
"e 	c #2F3E1D",
"f 	c #263619",
"g 	c #2A3A1B",
"h 	c #2F4623",
"i 	c #32512B",
"j 	c #345D34",
"k 	c #326339",
"l 	c #2D6136",
"m 	c #234A20",
"n 	c #79A96C",
"o 	c #90C682",
"p 	c #3B5E30",
"q 	c #0E1006",
"r 	c #171B09",
"s 	c #1E240C",
"t 	c #293112",
"u 	c #314623",
"v 	c #2C4A27",
"w 	c #13200E",
"x 	c #19200A",
"y 	c #1D2E0A",
"z 	c #23470F",
"A 	c #295516",
"B 	c #36592B",
"C 	c #83B575",
"D 	c #7DAC6F",
"E 	c #5B824F",
"F 	c #214510",
"G 	c #030401",
"H 	c #090B04",
"I 	c #111407",
"J 	c #1F250C",
"K 	c #272F12",
"L 	c #2E3A1A",
"M 	c #324C28",
"N 	c #346137",
"O 	c #26512E",
"P 	c #17330D",
"Q 	c #1E4008",
"R 	c #234712",
"S 	c #628E55",
"T 	c #72A465",
"U 	c #7AAB6C",
"V 	c #5C8350",
"W 	c #3B6734",
"X 	c #4E8447",
"Y 	c #294C22",
"Z 	c #030301",
"` 	c #101406",
" .	c #1D240D",
"..	c #252D13",
"+.	c #283015",
"@.	c #2B381A",
"#.	c #2F4422",
"$.	c #345830",
"%.	c #376C40",
"&.	c #387749",
"*.	c #337246",
"=.	c #33683F",
"-.	c #4B7746",
";.	c #5D9154",
">.	c #6EA061",
",.	c #577F4C",
"'.	c #43783C",
").	c #467D40",
"!.	c #36612F",
"~.	c #0C1104",
"{.	c #1C2710",
"].	c #27371A",
"^.	c #2B4121",
"/.	c #31532D",
"(.	c #36693E",
"_.	c #3A794A",
":.	c #3F8855",
"<.	c #42925C",
"[.	c #438D58",
"}.	c #42703C",
"|.	c #619456",
"1.	c #2C4725",
"2.	c #325F2A",
"3.	c #3D7035",
"4.	c #3E7236",
"5.	c #305B29",
"6.	c #020301",
"7.	c #030501",
"8.	c #070B03",
"9.	c #0A1003",
"0.	c #12210C",
"a.	c #1E3116",
"b.	c #294827",
"c.	c #35683D",
"d.	c #3B7B4B",
"e.	c #3F8955",
"f.	c #418E59",
"g.	c #347043",
"h.	c #40753B",
"i.	c #426E3B",
"j.	c #274D1C",
"k.	c #346228",
"l.	c #36652B",
"m.	c #37672D",
"n.	c #274C1E",
"o.	c #040601",
"p.	c #081004",
"q.	c #162910",
"r.	c #1A3214",
"s.	c #1E3A1A",
"t.	c #224322",
"u.	c #214323",
"v.	c #1F421F",
"w.	c #224318",
"x.	c #2F5A24",
"y.	c #396B34",
"z.	c #224416",
"A.	c #274F18",
"B.	c #295119",
"C.	c #2C571E",
"D.	c #2D5720",
"E.	c #649158",
"F.	c #0B1406",
"G.	c #0F1A08",
"H.	c #192F15",
"I.	c #1F3B1D",
"J.	c #13270B",
"K.	c #1C3711",
"L.	c #214016",
"M.	c #2A5121",
"N.	c #1C3912",
"O.	c #1C3A09",
"P.	c #1E3D0A",
"Q.	c #20430D",
"R.	c #254A14",
"S.	c #1D3B12",
"T.	c #406839",
"U.	c #57844D",
"V.	c #5D8A53",
"W.	c #84B775",
"X.	c #050802",
"Y.	c #070C03",
"Z.	c #080F04",
"`.	c #0B1407",
" +	c #101E0D",
".+	c #0A1506",
"++	c #101F08",
"@+	c #14260A",
"#+	c #1A3210",
"$+	c #162D0E",
"%+	c #112303",
"&+	c #152B05",
"*+	c #183106",
"=+	c #1A3607",
"-+	c #23451C",
";+	c #43773F",
">+	c #4F864A",
",+	c #598E52",
"'+	c #55844C",
")+	c #77AD6A",
"!+	c #020401",
"~+	c #040702",
"{+	c #060B04",
"]+	c #050A03",
"^+	c #070C02",
"/+	c #091103",
"(+	c #0D1806",
"_+	c #0E1C08",
":+	c #081001",
"<+	c #0C1803",
"[+	c #102104",
"}+	c #132704",
"|+	c #1F3D16",
"1+	c #35652F",
"2+	c #386B32",
"3+	c #3E743A",
"4+	c #42753D",
"5+	c #5C9755",
"6+	c #68A55F",
"7+	c #030502",
"8+	c #030601",
"9+	c #050801",
"0+	c #070D03",
"a+	c #050901",
"b+	c #080E01",
"c+	c #0C1802",
"d+	c #152A0C",
"e+	c #224118",
"f+	c #274B1B",
"g+	c #2D5723",
"h+	c #2C5524",
"i+	c #43793E",
"j+	c #4C8A47",
"k+	c #4E8D49",
"l+	c #010300",
"m+	c #040800",
"n+	c #081203",
"o+	c #162A0B",
"p+	c #192E0A",
"q+	c #1F3910",
"r+	c #224015",
"s+	c #193107",
"t+	c #3B6F34",
"u+	c #3C7031",
"v+	c #3D7233",
"w+	c #091003",
"x+	c #0C1503",
"y+	c #111D04",
"z+	c #172908",
"A+	c #203E19",
"B+	c #152705",
"C+	c #325F27",
"D+	c #305A1F",
"E+	c #2F591F",
"F+	c #030500",
"G+	c #050A01",
"H+	c #0A1102",
"I+	c #1A3312",
"J+	c #3A6E33",
"K+	c #162D0F",
"L+	c #2C521E",
"M+	c #294913",
"N+	c #264410",
"O+	c #060B01",
"P+	c #254217",
"Q+	c #2F5421",
"R+	c #2E5624",
"S+	c #254215",
"T+	c #253E0E",
"U+	c #20350B",
"V+	c #101E08",
"W+	c #213611",
"X+	c #263E13",
"Y+	c #2D4C1C",
"Z+	c #253F16",
"`+	c #20320B",
" @	c #1B2A09",
".@	c #0E1707",
"+@	c #1A280C",
"@@	c #1F2E0C",
"#@	c #23330D",
"$@	c #2A4217",
"%@	c #18240A",
"&@	c #151F08",
"*@	c #151E09",
"=@	c #172108",
"-@	c #1A2509",
";@	c #23310D",
">@	c #243512",
",@	c #0F1406",
"'@	c #0E1405",
")@	c #121806",
"!@	c #141B07",
"~@	c #192209",
"{@	c #293712",
"]@	c #0F1405",
"^@	c #060902",
"/@	c #0B0F04",
"(@	c #0C1005",
"_@	c #0E1306",
":@	c #1D250B",
"<@	c #161E07",
"[@	c #050702",
"}@	c #060702",
"|@	c #020400",
"1@	c #040602",
"2@	c #060803",
"3@	c #0A0C04",
"4@	c #141808",
"5@	c #070803",
"6@	c #1D240E",
"7@	c #101306",
"8@	c #1D230D",
"9@	c #1E2911",
"0@	c #080A04",
"a@	c #090C05",
"b@	c #090C04",
"c@	c #0B0D04",
"d@	c #121607",
"e@	c #1A200A",
"f@	c #2A3719",
"g@	c #182510",
"h@	c #0F1107",
"i@	c #131709",
"j@	c #121608",
"k@	c #101308",
"l@	c #090C03",
"m@	c #171C09",
"n@	c #1F250D",
"o@	c #2A3416",
"p@	c #2E4825",
"q@	c #131909",
"r@	c #1A1F0B",
"s@	c #1D220B",
"t@	c #1B210B",
"u@	c #040502",
"v@	c #060703",
"w@	c #101507",
"x@	c #202710",
"y@	c #262D12",
"z@	c #2C3819",
"A@	c #334D28",
"B@	c #284726",
"C@	c #232A0E",
"D@	c #242B0E",
"E@	c #242C0F",
"F@	c #252C0F",
"G@	c #262D0F",
"H@	c #010201",
"I@	c #080A03",
"J@	c #0C0F05",
"K@	c #19200D",
"L@	c #293619",
"M@	c #2E3F1E",
"N@	c #334E29",
"O@	c #38663A",
"P@	c #243D20",
"Q@	c #2B3413",
"R@	c #2C3413",
"S@	c #2E3615",
"T@	c #020201",
"U@	c #0E1206",
"V@	c #151A09",
"W@	c #203118",
"X@	c #23371C",
"Y@	c #26361A",
"Z@	c #314824",
"`@	c #35552D",
" #	c #3A6A3D",
".#	c #3B7748",
"+#	c #294324",
"@#	c #303918",
"##	c #313B19",
"$#	c #0B0E04",
"%#	c #121C0D",
"&#	c #192A16",
"*#	c #234529",
"=#	c #2C5A37",
"-#	c #31623B",
";#	c #264022",
">#	c #31502B",
",#	c #376136",
"'#	c #3E804F",
")#	c #3F8754",
"!#	c #2E5E39",
"~#	c #2E3B1B",
"{#	c #33421F",
"]#	c #313D1B",
"^#	c #050602",
"/#	c #0E1308",
"(#	c #142414",
"_#	c #1C3B24",
":#	c #234D30",
"<#	c #2B5E3B",
"[#	c #336F46",
"}#	c #387B4E",
"|#	c #2C4E2B",
"1#	c #335E35",
"2#	c #3D7848",
"3#	c #3F8250",
"4#	c #418B57",
"5#	c #43935E",
"6#	c #38764A",
"7#	c #314321",
"8#	c #334622",
"9#	c #0E1208",
"0#	c #131D0F",
"a#	c #19301C",
"b#	c #224B2F",
"c#	c #295A39",
"d#	c #2F653F",
"e#	c #357146",
"f#	c #408756",
"g#	c #428D59",
"h#	c #3D7E4D",
"i#	c #2F5D38",
"j#	c #396E43",
"k#	c #387145",
"l#	c #3F8654",
"m#	c #408855",
"n#	c #2E5A36",
"o#	c #344A25",
"p#	c #0A0D04",
"q#	c #121B0E",
"r#	c #172715",
"s#	c #1E3A22",
"t#	c #275636",
"u#	c #2E643F",
"v#	c #357147",
"w#	c #3E8354",
"x#	c #47905D",
"y#	c #4A9761",
"z#	c #45925D",
"A#	c #336840",
"B#	c #499660",
"C#	c #4A955F",
"D#	c #418353",
"E#	c #408353",
"F#	c #488B58",
"G#	c #3A643A",
"H#	c #35502A",
"I#	c #0F1408",
"J#	c #172615",
"K#	c #1C351E",
"L#	c #23482C",
"M#	c #2E633F",
"N#	c #357047",
"O#	c #3E7E51",
"P#	c #4F9260",
"Q#	c #509964",
"R#	c #4C9A64",
"S#	c #438A58",
"T#	c #284E2C",
"U#	c #3A7C4D",
"V#	c #489660",
"W#	c #4D9C65",
"X#	c #55A26A",
"Y#	c #60A970",
"Z#	c #5AA46C",
"`#	c #519460",
" $	c #141F0F",
".$	c #1C331D",
"+$	c #224327",
"@$	c #2A5837",
"#$	c #367148",
"$$	c #3E7F52",
"%$	c #4C8F5E",
"&$	c #5EA06A",
"*$	c #529C66",
"=$	c #4E9B64",
"-$	c #32653E",
";$	c #315932",
">$	c #34653B",
",$	c #377548",
"'$	c #489760",
")$	c #4C9B64",
"!$	c #58A46C",
"~$	c #56A36B",
"{$	c #55A26B",
"]$	c #020200",
"^$	c #0E1105",
"/$	c #1B2B17",
"($	c #224025",
"_$	c #285232",
":$	c #306842",
"<$	c #3A7A4E",
"[$	c #458959",
"}$	c #4D9360",
"|$	c #559D68",
"1$	c #529E67",
"2$	c #3C7B4E",
"3$	c #3A7647",
"4$	c #3D7747",
"5$	c #3E7F4E",
"6$	c #294F2D",
"7$	c #2F633D",
"8$	c #46935E",
"9$	c #4F9E66",
"0$	c #4F9E67",
"a$	c #0F1306",
"b$	c #1F341C",
"c$	c #285030",
"d$	c #30653F",
"e$	c #408455",
"f$	c #438B59",
"g$	c #48935F",
"h$	c #4E9A64",
"i$	c #448A58",
"j$	c #26391D",
"k$	c #2D5834",
"l$	c #377347",
"m$	c #408A56",
"n$	c #244E2F",
"o$	c #438857",
"p$	c #48905D",
"q$	c #3C794D",
"r$	c #1E311A",
"s$	c #2D5E3A",
"t$	c #3D8152",
"u$	c #428A58",
"v$	c #448F5C",
"w$	c #47935F",
"x$	c #3E7D4F",
"y$	c #2D5D37",
"z$	c #2A3113",
"A$	c #324320",
"B$	c #314C27",
"C$	c #2D522E",
"D$	c #274827",
"E$	c #214023",
"F$	c #111507",
"G$	c #1D230C",
"H$	c #262F13",
"I$	c #284224",
"J$	c #377448",
"K$	c #3B7A4D",
"L$	c #356B41",
"M$	c #3D8452",
"N$	c #233216",
"O$	c #344D27",
"P$	c #3B7142",
"Q$	c #3E804E",
"R$	c #306B42",
"S$	c #121507",
"T$	c #1B200A",
"U$	c #242B0F",
"V$	c #2D3A1A",
"W$	c #2E4624",
"X$	c #294D2B",
"Y$	c #3D814F",
"Z$	c #41915B",
"`$	c #2D5A36",
" %	c #334320",
".%	c #35512A",
"+%	c #386136",
"@%	c #3B7243",
"#%	c #3F8350",
"$%	c #39794C",
"%%	c #171B08",
"&%	c #1E240B",
"*%	c #2C3415",
"=%	c #314622",
"-%	c #365C33",
";%	c #2E5731",
">%	c #3D8552",
",%	c #41905A",
"'%	c #367649",
")%	c #2F4B27",
"!%	c #365E34",
"~%	c #3B6E40",
"{%	c #3C7848",
"]%	c #3A7A4B",
"^%	c #326D43",
"/%	c #0D0F05",
"(%	c #181D09",
"_%	c #191E09",
":%	c #282F11",
"<%	c #2C3616",
"[%	c #303C1B",
"}%	c #334924",
"|%	c #365A31",
"1%	c #305D36",
"2%	c #3E8452",
"3%	c #38794C",
"4%	c #325F37",
"5%	c #336A40",
"6%	c #336F45",
"7%	c #38794D",
"8%	c #295A38",
"9%	c #0A0D03",
"0%	c #1A1F0A",
"a%	c #273417",
"b%	c #324B26",
"c%	c #36582F",
"d%	c #386337",
"e%	c #3C7243",
"f%	c #3E8150",
"g%	c #32643C",
"h%	c #396D40",
"i%	c #3F8351",
"j%	c #45945E",
"k%	c #295432",
"l%	c #161B07",
"m%	c #191F0A",
"n%	c #151C09",
"o%	c #284525",
"p%	c #3A6D3F",
"q%	c #3D7B4A",
"r%	c #408955",
"s%	c #387649",
"t%	c #32673F",
"u%	c #3C7849",
"v%	c #377447",
"w%	c #347046",
"x%	c #080B04",
"y%	c #0E1107",
"z%	c #181C0A",
"A%	c #1D220C",
"B%	c #203318",
"C%	c #377245",
"D%	c #3C7F4F",
"E%	c #336A41",
"F%	c #0D1006",
"G%	c #171B0A",
"H%	c #1C230E",
"I%	c #20270D",
"J%	c #2C4827",
"K%	c #346F45",
"L%	c #357347",
"M%	c #0F1207",
"N%	c #161A0A",
"O%	c #2A3212",
"P%	c #35532C",
"Q%	c #355E35",
"R%	c #34663D",
"S%	c #367347",
"T%	c #3A7A4D",
"U%	c #387449",
". . . . . . . . . . . . . . . . . . . . . . . . . . . . . . . . . . . . . . . + @ # $ % & * = - ; > , ' ) ! ~     {             ",
". . . . . . . . . . . . . . . . . . . . . . . . . . . . . . . . . . . . . . . ] ^ / ( _ : < [ } | > 1 2 3 4 5 6 7 8             ",
". . . . . . . . . . . . . . . . . . . . . . . . . . . . . . . . . . . . . . . 9 0 a b c d e f g h i j k l m n o p 8             ",
". . . . . . . . . . . . . . . . . . . . . . . . . . . . . . . . . . . . . . . 9 0 @ q r s t u v w x y z A B C D E F             ",
". . . . . . . . . . . . . . . . . . . . . . . . . . . . . . . . . . . . . . . 9 G H I * J K L M N O P Q R S T U V   W X Y       ",
". . . . . . . . . . . . . . . . . . . . . . . . . . . . . . . . . . . . . . . + Z a `  ...+.@.#.$.%.&.*.=.-.;.>.,.  '.).!.      ",
". . . . . . . . . . . . . . . . . . . . . . . . . . . . . . . . . . . . . . . . . 9 ] 0 ~.{.].^./.(._.:.<.[.}.|.1.2.3.4.5.      ",
". . . . . . . . . . . . . . . . . . . . . . . . . . . . . . . . . . . . . . . . 9 ] 6.7.8.9.0.a.b.c.d.e.f.g.h.i.j.k.l.m.n.      ",
". . . . . . . . . . . . . . . . . . . . . . . . . . . . . . . . . . . . . . . . 9 ] + ] o.p.q.r.s.t.u.v.w.x.y.z.A.B.C.D.      E.",
". . . . . . . . . . . . . . . . . . . . . . . . . . . . . . . . . . . . . . . . 9 . 9 + 6.F.G.0.H.I.J.K.L.M.N.O.P.Q.R.S.T.U.V.W.",
". . . . . . . . . . . . . . . . . . . . . . . . . . . . . . . . . . . . . . . . . . 9 + X.Y.Z.`. +.+++@+#+$+%+&+*+=+-+;+>+,+'+)+",
". . . . . . . . . . . . . . . . . . . . . . . . . . . . . . . . . . . . . . . . . . 9 !+7.7.~+{+]+^+/+(+_+:+<+[+}+|+1+2+3+4+5+6+",
". . . . . . . . . . . . . . . . . . . . . . . . . . . . . . . . . . . . . . . . 9 9 + + ] ] !+7+0 8+9+0+7.a+b+c+d+e+f+g+h+i+j+k+",
". . . . . . . . . . . . . . . . . . . . . . . . . . . . . . . . . 9 9 9 9 9 9 9 9 9 9 9 9 + ] ] ] ] l+] 9 l+m+n+o+p+q+r+s+t+u+v+",
". . . . . . . . . . . . . . . . . . . . . . . . . . . . . . . 9 9 9 9 9 9 9 9 9 9 9 9 9 9 + 9 9 . . 9 . . . l+w+x+y+z+A+B+C+D+E+",
". . . . . . . . . . . . . . . . . . . . . . . . . . . . . . 9 9 9 9 9 9 9 9 9 9 9 9 9 9 9 9 9 . . . . . . . l+F+G+H+I+J+K+L+M+N+",
". . . . . . . . . . . . . . . . . . . . . . . . . . . . . 9 9 9 9 9 9 9 9 9 9 9 9 9 9 9 9 . . . . . . . . . 9 + 0 O+P+Q+R+S+T+U+",
". . . . . . . . . . . . . . . . . . . . . . . . . . . . 9 9 9 9 9 9 9 9 9 9 9 9 9 9 9 9 9 . . . . . . . . . . . 9 V+W+X+Y+Z+`+ @",
". . . . . . . . . . . . . . . . . . . . . . . . . . . . . . . . . . . . . . 9 9 9 9 9 9 9 . . . . . . . . . . . . .@+@@@#@$@%@&@",
". . . . . . . . . . . . . . . . . . . . . . . . . . . . . . . . . . . . . . . . . 9 9 9 . . . . . . . . . . . . 9 7.*@=@-@;@>@,@",
". . . . . . . . . . . . . . . . . . . . . . . . . . . . . . . . . . . . . . . . . . 9 9 . . . . . . . . . . . . 9 9 '@)@!@~@{@]@",
". . . . . . . . . . . . . . . . . . . . . . . . . . . . . . . . . . . . . . . . . . . . . . . . . . . . . . . . . . ^@/@(@_@:@<@",
". . . . . . . . . . . . . . . . . . . . . . . . . . . . . . . . . . . . . . . . . . . . . . . . . . . . . . . . . . G [@}@@ % ` ",
". . . . . . . . . . . . . . . . . . . . . . . . . . . . . . . . . . . . . . . . . . . . . . . . . . . . . . . . . . + 0 0 |@1@2@",
". . . . . . . . . . . . . . . . . . . . . . . . . . . . . . . . . . . . . . . . . . . . . . . . . . . . . . . . . . . 9 9 ] ] ] ",
". . . . . . . . . . . . . . . . . . . . . . . . . . . . . . . . . . . . . . . . . . . . . . . . . . . . . . . . . . . . . . 9 9 ",
". . . . . . . . . . . . . . . . . . . . . . . . . . . . . . . . . . . . . . . . . . . . . . . . . . . . . . . . . . . . . . . . ",
". . . . . . . . . . . . . . . . . . . . . . . . . . . . . . . . . . . . . . . . . . . . . . . . . . . . . . . . . . . . . . . . ",
". . . . . . . . . . . . . . . . . . . . . . . . . . . . . . . . . . . . . . . . . . . . . . . . . . . . . . . . . . . . . . . . ",
". . . . . . . . . . . . . . . . . . . . . . . . . . . . . . . . . . . . . . . . . . . . . . . . . . . . . . . . . . . . . . . . ",
". . . . . . . . . . . . . . . . . . . . . . . . . . . . . . . . . . . . . . . . . . . . . . . . . . . . . . . . . . . . . . . . ",
". . . . . . . . . . . . . . . . . . . . . . . . . . . . . . . . . . . . . . . . . . . . . . . . . . . . . . . . . . . . . . . . ",
". . . . . . . . . . . . . . . . . . . . . . . . . . . 9 9 9 9 9 9 9 9 9 9 9 9 9 9 9 . . . . . . . . . . . . . . . . . . . . . . ",
". . . . . . . . . . . . . . . . . . . . . . . . . . . 9 9 9 9 9 9 9 9 9 9 9 9 9 9 9 . . . . . . . . . . . . . . . . . . . . . . ",
". . . . . . . . . . . . . . . . . . . . . . . . . . 9 9 9 9 9 9 9 9 9 9 9 9 9 9 9 9 9 . . . . . . . . . . . . . . . . . . . . . ",
". . . . . . . . . . . . . . . . . . . . . . . . . . 9 9 9 9 9 9 9 9 9 9 9 9 9 9 9 9 9 . . . . . . . . . . . . . . . . . . . . . ",
". . . . . . . . . . . . . . . . . . . . . . . . . . 9 9 9 9 9 9 9 9 9 9 9 9 9 9 9 9 9 . . . . . . . . . . . . . . . . . . . . . ",
". . . . . . . . . . . . . . . . . . . . . . . . . . 9 9 9 9 9 9 9 9 9 9 9 9 9 9 9 9 9 . . . . . . . 9 6.}@] . . . . . . . . . . ",
". . . . . . . . . . . . . . . . . . . . . . . . . . 9 9 9 9 9 9 9 9 9 9 9 9 9 9 9 9 9 . . . . . . 9 9 6.3@4@^ . . . . . . . . . ",
". . . . . . . . . . . . . . . . . . . . . . . . . . 9 9 9 9 9 9 9 9 9 9 9 9 9 9 9 9 9 . . . . . . 9 + 0 5@4@6@!+. . + 0 !+6.0 ] ",
". . . . . . . . . . . . . . . . . . . . . . . . . . 9 9 9 9 9 9 9 9 9 9 9 9 9 9 9 9 . . . . . . 9 9 ] G a 7@8@9@+ G }@0@a@b@0@a ",
". . . . . . . . . . . . . . . . . . . . . . . . . . . 9 9 9 9 9 9 9 9 9 9 9 9 9 9 9 . . . . . . . + G 2@c@d@e@f@g@3@h@& i@i@j@k@",
". . . . . . . . . . . . . . . . . . . . . . . . . . . . 9 9 9 9 9 9 9 9 9 9 9 9 9 . . . . . . . 9 + 6.l@4@m@n@o@p@q@r@s@c s@s@t@",
". . . . . . . . . . . . . . . . . . . . . . . . . . . . . 9 9 9 9 9 9 9 9 9 9 9 . . . . . . 9 9 ] 6.u@v@w@x@y@z@A@B@C@D@E@F@G@G@",
". . . . . . . . . . . . . . . . . . . . . . . . . . . . . . 9 9 9 9 9 9 9 9 9 . . . . . . 9 + H@G [@I@J@` K@L@M@N@O@P@Q@R@} S@S@",
". . . . . . . . . . . . . . . . . . . . . . . . . . . . . . . . . . 9 . . . . . . . . . 9 + T@u@2@3@U@V@W@X@Y@Z@`@ #.#+#@#| | ##",
". . . . . . . . . . . . . . . . . . . . . . . . . . . . . . . . . . 9 . . . . . . . . 9 + T@u@5@$#%#&#*#=#-#;#>#,#2 '#)#!#~#{#]#",
". . . . . . . . . . . . . . . . . . . . . . . . . . . . . . . . . . 9 . . . . . . . 9 + T@^#H /#(#_#:#<#[#}#%.|#1#2#3#4#5#6#7#8#",
". . . . . . . . . . . . . . . . . . . . . . . . . . . . . . . . . . 9 . . . . . . 9 9 H@G 5@9#0#a#b#c#d#e#f#g#h#i#j#k#l#m#n#o#> ",
". . . . . . . . . . . . . . . . . . . . . . . . . . . . . . . . . . 9 . . . . . . 9 + 6.^#p#q#r#s#t#u#v#w#x#y#z#A#B#C#D#E#F#G#H#",
". . . . . . . . . . . . . . . . . . . . . . . . . . . . . . . . . . . 9 . . . . 9 9 T@u@a I#J#K#L#M#N#O#P#Q#R#S#T#U#V#W#X#Y#Z#`#",
". . . . . . . . . . . . . . . . . . . . . . . . . . . . . . . . . . . 9 . . . . 9 ] G v@p# $.$+$@$#$$$%$&$*$=$-$;$>$,$'$)$!$~${$",
". . . . . . . . . . . . . . . . . . . . . . . . . . . . . . . . . . . 9 9 . . . + ]$u@I@^$/$($_$:$<$[$}$|$1$2$3$4$5$6$7$8$9$9$0$",
". . . . . . . . . . . . . . . . . . . . . . . . . . . . . . . . . . . . . . . 9 . 9 ] ^#a$b$c$d$<$e$f$g$h$i$j$k$l$m$    n$o$p$q$",
". . . . . . . . . . . . . . . . . . . . . . . . . . . . . . . . . . . . . . . . . . 9 !+H # r$s$t$u$v$w$x$y$z$A$B$C$D$E$        ",
". . . . . . . . . . . . . . . . . . . . . . . . . . . . . . . . . . . . . . . . . . 9 G 0@F$G$H$I$J$K$L$M$:.N$| O$, P$Q$m$R$    ",
". . . . . . . . . . . . . . . . . . . . . . . . . . . . . . . . . . . . . . . . . . + ^ 3@S$T$U$V$W$X$Y$Z$4 `$ %.%+%@%#%4 $%    ",
". . . . . . . . . . . . . . . . . . . . . . . . . . . . . . . . . . . . . . . . . 9 0 }@J@%%&%F@*%=%-%;%>%,%'%)%!%~%{%]%^%      ",
". . . . . . . . . . . . . . . . . . . . . . . . . . . . . . . . . . . . . . . . . 9 0 /%(%_%:%<%[%}%|%P$1%2%3%4%5%6%7%8%        ",
". . . . . . . . . . . . . . . . . . . . . . . . . . . . . . . . . . . . . . . . . . 9 0 9%I 0%a%b%c%d%e%f%g%$%h%i%4 j%k%        ",
". . . . . . . . . . . . . . . . . . . . . . . . . . . . . . . . . . . . . . . . . . 9 0 a / l%m%n%o%p%q%r%s%t%u%v%w%            ",
". . . . . . . . . . . . . . . . . . . . . . . . . . . . . . . . . . . . . . . . . 9 ] o.x%[@[@y%z%A%B%C%f.D%E%                  ",
". . . . . . . . . . . . . . . . . . . . . . . . . . . . . . . . . . . . . . . . . 9 0 @ F%G%&%n@H%* I%J%K%l$L%                  ",
". . . . . . . . . . . . . . . . . . . . . . . . . . . . . . . . . . . . . . . . . + G 0@M%N%= O% %P%Q%R%S%T%U%                  "};
