/* XPM */
static char * corner_tl_xpm[] = {
"64 64 365 2",
"  	c None",
". 	c #000000",
"+ 	c #000100",
"@ 	c #020301",
"# 	c #060702",
"$ 	c #010200",
"% 	c #0A0C04",
"& 	c #141808",
"* 	c #040501",
"= 	c #010100",
"- 	c #020300",
"; 	c #070803",
"> 	c #1D240E",
", 	c #020401",
"' 	c #030401",
") 	c #070903",
"! 	c #101306",
"~ 	c #1D230D",
"{ 	c #1E2911",
"] 	c #080A04",
"^ 	c #090C05",
"/ 	c #090C04",
"( 	c #060803",
"_ 	c #0B0D04",
": 	c #121607",
"< 	c #1A200A",
"[ 	c #2A3719",
"} 	c #182510",
"| 	c #0F1107",
"1 	c #111408",
"2 	c #131709",
"3 	c #121608",
"4 	c #101308",
"5 	c #090C03",
"6 	c #171C09",
"7 	c #1F250D",
"8 	c #2A3416",
"9 	c #2E4825",
"0 	c #131909",
"a 	c #1A1F0B",
"b 	c #1D220B",
"c 	c #1C210B",
"d 	c #1B210B",
"e 	c #040502",
"f 	c #060703",
"g 	c #101507",
"h 	c #202710",
"i 	c #262D12",
"j 	c #2C3819",
"k 	c #334D28",
"l 	c #284726",
"m 	c #232A0E",
"n 	c #242B0E",
"o 	c #242C0F",
"p 	c #252C0F",
"q 	c #262D0F",
"r 	c #010201",
"s 	c #050702",
"t 	c #080A03",
"u 	c #0C0F05",
"v 	c #101406",
"w 	c #19200D",
"x 	c #293619",
"y 	c #2E3F1E",
"z 	c #334E29",
"A 	c #38663A",
"B 	c #243D20",
"C 	c #2B3413",
"D 	c #2C3413",
"E 	c #2D3514",
"F 	c #2E3615",
"G 	c #020201",
"H 	c #0E1206",
"I 	c #151A09",
"J 	c #203118",
"K 	c #23371C",
"L 	c #26361A",
"M 	c #314824",
"N 	c #35552D",
"O 	c #3A6A3D",
"P 	c #3B7748",
"Q 	c #294324",
"R 	c #303918",
"S 	c #313C1A",
"T 	c #313B19",
"U 	c #0B0E04",
"V 	c #121C0D",
"W 	c #192A16",
"X 	c #234529",
"Y 	c #2C5A37",
"Z 	c #31623B",
"` 	c #264022",
" .	c #31502B",
"..	c #376136",
"+.	c #3B7143",
"@.	c #3E804F",
"#.	c #3F8754",
"$.	c #2E5E39",
"%.	c #2E3B1B",
"&.	c #33421F",
"*.	c #313D1B",
"=.	c #050602",
"-.	c #090B04",
";.	c #0E1308",
">.	c #142414",
",.	c #1C3B24",
"'.	c #234D30",
").	c #2B5E3B",
"!.	c #336F46",
"~.	c #387B4E",
"{.	c #376C40",
"].	c #2C4E2B",
"^.	c #335E35",
"/.	c #3D7848",
"(.	c #3F8250",
"_.	c #418B57",
":.	c #43935E",
"<.	c #38764A",
"[.	c #314321",
"}.	c #334622",
"|.	c #0E1208",
"1.	c #131D0F",
"2.	c #19301C",
"3.	c #224B2F",
"4.	c #295A39",
"5.	c #2F653F",
"6.	c #357146",
"7.	c #408756",
"8.	c #428D59",
"9.	c #3D7E4D",
"0.	c #2F5D38",
"a.	c #396E43",
"b.	c #387145",
"c.	c #3F8654",
"d.	c #408855",
"e.	c #2E5A36",
"f.	c #344A25",
"g.	c #344B26",
"h.	c #0A0D04",
"i.	c #121B0E",
"j.	c #172715",
"k.	c #1E3A22",
"l.	c #275636",
"m.	c #2E643F",
"n.	c #357147",
"o.	c #3E8354",
"p.	c #47905D",
"q.	c #4A9761",
"r.	c #45925D",
"s.	c #336840",
"t.	c #499660",
"u.	c #4A955F",
"v.	c #418353",
"w.	c #408353",
"x.	c #488B58",
"y.	c #3A643A",
"z.	c #35502A",
"A.	c #0F1408",
"B.	c #172615",
"C.	c #1C351E",
"D.	c #23482C",
"E.	c #2E633F",
"F.	c #357047",
"G.	c #3E7E51",
"H.	c #4F9260",
"I.	c #509964",
"J.	c #4C9A64",
"K.	c #438A58",
"L.	c #284E2C",
"M.	c #3A7C4D",
"N.	c #489660",
"O.	c #4D9C65",
"P.	c #55A26A",
"Q.	c #60A970",
"R.	c #5AA46C",
"S.	c #519460",
"T.	c #141F0F",
"U.	c #1C331D",
"V.	c #224327",
"W.	c #2A5837",
"X.	c #367148",
"Y.	c #3E7F52",
"Z.	c #4C8F5E",
"`.	c #5EA06A",
" +	c #529C66",
".+	c #4E9B64",
"++	c #32653E",
"@+	c #315932",
"#+	c #34653B",
"$+	c #377548",
"%+	c #489760",
"&+	c #4C9B64",
"*+	c #58A46C",
"=+	c #56A36B",
"-+	c #55A26B",
";+	c #020200",
">+	c #0E1105",
",+	c #1B2B17",
"'+	c #224025",
")+	c #285232",
"!+	c #306842",
"~+	c #3A7A4E",
"{+	c #458959",
"]+	c #4D9360",
"^+	c #559D68",
"/+	c #529E67",
"(+	c #3C7B4E",
"_+	c #3A7647",
":+	c #3D7747",
"<+	c #3E7F4E",
"[+	c #294F2D",
"}+	c #2F633D",
"|+	c #46935E",
"1+	c #4F9E66",
"2+	c #4F9E67",
"3+	c #0F1306",
"4+	c #1F341C",
"5+	c #285030",
"6+	c #30653F",
"7+	c #408455",
"8+	c #438B59",
"9+	c #48935F",
"0+	c #4E9A64",
"a+	c #448A58",
"b+	c #26391D",
"c+	c #2D5834",
"d+	c #377347",
"e+	c #408A56",
"f+	c #244E2F",
"g+	c #438857",
"h+	c #48905D",
"i+	c #3C794D",
"j+	c #111506",
"k+	c #1E311A",
"l+	c #2D5E3A",
"m+	c #3D8152",
"n+	c #428A58",
"o+	c #448F5C",
"p+	c #47935F",
"q+	c #3E7D4F",
"r+	c #2D5D37",
"s+	c #2A3113",
"t+	c #324320",
"u+	c #314C27",
"v+	c #2D522E",
"w+	c #274827",
"x+	c #214023",
"y+	c #111507",
"z+	c #1D230C",
"A+	c #262F13",
"B+	c #284224",
"C+	c #377448",
"D+	c #3B7A4D",
"E+	c #356B41",
"F+	c #3D8452",
"G+	c #3F8855",
"H+	c #233216",
"I+	c #344D27",
"J+	c #386035",
"K+	c #3B7142",
"L+	c #3E804E",
"M+	c #306B42",
"N+	c #121507",
"O+	c #1B200A",
"P+	c #242B0F",
"Q+	c #2D3A1A",
"R+	c #2E4624",
"S+	c #294D2B",
"T+	c #3D814F",
"U+	c #41915B",
"V+	c #42905B",
"W+	c #2D5A36",
"X+	c #334320",
"Y+	c #35512A",
"Z+	c #386136",
"`+	c #3B7243",
" @	c #3F8350",
".@	c #39794C",
"+@	c #171B08",
"@@	c #1E240B",
"#@	c #2C3415",
"$@	c #314622",
"%@	c #365C33",
"&@	c #2E5731",
"*@	c #3D8552",
"=@	c #41905A",
"-@	c #367649",
";@	c #2F4B27",
">@	c #365E34",
",@	c #3B6E40",
"'@	c #3C7848",
")@	c #3A7A4B",
"!@	c #326D43",
"~@	c #0D0F05",
"{@	c #181D09",
"]@	c #191E09",
"^@	c #282F11",
"/@	c #2C3616",
"(@	c #303C1B",
"_@	c #334924",
":@	c #365A31",
"<@	c #305D36",
"[@	c #3E8452",
"}@	c #38794C",
"|@	c #325F37",
"1@	c #336A40",
"2@	c #336F45",
"3@	c #38794D",
"4@	c #295A38",
"5@	c #0A0D03",
"6@	c #111407",
"7@	c #1A1F0A",
"8@	c #273417",
"9@	c #324B26",
"0@	c #36582F",
"a@	c #386337",
"b@	c #3C7243",
"c@	c #3E8150",
"d@	c #32643C",
"e@	c #396D40",
"f@	c #3F8351",
"g@	c #45945E",
"h@	c #295432",
"i@	c #0F1206",
"j@	c #161B07",
"k@	c #191F0A",
"l@	c #151C09",
"m@	c #284525",
"n@	c #3A6D3F",
"o@	c #3D7B4A",
"p@	c #408955",
"q@	c #387649",
"r@	c #32673F",
"s@	c #3C7849",
"t@	c #377447",
"u@	c #347046",
"v@	c #040601",
"w@	c #080B04",
"x@	c #0E1107",
"y@	c #181C0A",
"z@	c #1D220C",
"A@	c #203318",
"B@	c #377245",
"C@	c #418E59",
"D@	c #3C7F4F",
"E@	c #336A41",
"F@	c #060802",
"G@	c #0D1006",
"H@	c #171B0A",
"I@	c #1C230E",
"J@	c #191E0A",
"K@	c #20270D",
"L@	c #2C4827",
"M@	c #346F45",
"N@	c #357347",
"O@	c #0F1207",
"P@	c #161A0A",
"Q@	c #20260D",
"R@	c #2A3212",
"S@	c #35532C",
"T@	c #355E35",
"U@	c #34663D",
"V@	c #367347",
"W@	c #3A7A4D",
"X@	c #387449",
". . . . . . . . . . . . . . . . . . . . . . . . . . . . . . . . . . . . . . . . . . . . . . . . . . . . . . . . . . . . . . . . ",
". . . . . . . . . . . . . . . . . . . . . . . . . . . . . . . . . . . . . . . . . . . . . . . . . . . . . . . . . . . . . . . . ",
". . . . . . . . . . . . . . . . . . . . . . . . . . . . . . . . . . . . . . . . . . . . . . . . . . . . . . . . . . . . . . . . ",
". . . . . . . . . . . . . . . . . . . . . . . . . . . . . . . . . . . . . . . . . . . . . . . . . . . . . . . . . . . . . . . . ",
". . . . . . . . . . . . . . . . . . . . . . . . . . . . . . . . . . . . . . . . . . . . . . . . . . . . . . . . . . . . . . . . ",
". . . . . . . . . . . . . . . . . . . . . . . . . . . . . . . . . . . . . . . . . . . . . . . . . . . . . . . . . . . . . . . . ",
". . . . . . . . . . . . . . . . . . . . . . . . . . . . . . . . . . . . . . . . . . . . . . . . . . . . . . . . . . . . . . . . ",
". . . . . . . . . . . . . . . . . . . . . . . . . . . . . . . . . . . . . . . . . . . . . . . . . . . . . . . . . . . . . . . . ",
". . . . . . . . . . . . . . . . . . . . . . . . . . . . . . . . . . . . . . . . . . . . . . . . . . . . . . . . . . . . . . . . ",
". . . . . . . . . . . . . . . . . . . . . . . . . . . . . . . . . . . . . . . . . . . . . . . . . . . . . . . . . . . . . . . . ",
". . . . . . . . . . . . . . . . . . . . . . . . . . . . . . . . . . . . . . . . . . . . . . . . . . . . . . . . . . . . . . . . ",
". . . . . . . . . . . . . . . . . . . . . . . . . . . . . . . . . . . . . . . . . . . . . . . . . . . . . . . . . . . . . . . . ",
". . . . . . . . . . . . . . . . . . . . . . . . . . . . . . . . . . . . . . . . . . . . . . . . . . . . . . . . . . . . . . . . ",
". . . . . . . . . . . . . . . . . . . . . . . . . . . . . . . . . . . . . . . . . . . . . . . . . . . . . . . . . . . . . . . . ",
". . . . . . . . . . . . . . . . . . . . . . . . . . . . . . . . . . . . . . . . . . . . . . . . . . . . . . . . . . . . . . . . ",
". . . . . . . . . . . . . . . . . . . . . . . . . . . . . . . . . . . . . . . . . . . . . . . . . . . . . . . . . . . . . . . . ",
". . . . . . . . . . . . . . . . . . . . . . . . . . . . . . . . . . . . . . . . . . . . . . . . . . . . . . . . . . . . . . . . ",
". . . . . . . . . . . . . . . . . . . . . . . . . . . . . . . . . . . . . . . . . . . . . . . . . . . . . . . . . . . . . . . . ",
". . . . . . . . . . . . . . . . . . . . . . . . . . . . . . . . . . . . . . . . . . . . . . . . . . . . . . . . . . . . . . . . ",
". . . . . . . . . . . . . . . . . . . . . . . . . . . . . . . . . . . . . . . . . . . . . . . . . . . . . . . . . . . . . . . . ",
". . . . . . . . . . . . . . . . . . . . . . . . . . . . . . . . . . . . . . . . . . . . . . . . . . . . . . . . . . . . . . . . ",
". . . . . . . . . . . . . . . . . . . . . . . . . . . . . . . . . . . . . . . . . . . . . . . . . . . . . . . . . . . . . . . . ",
". . . . . . . . . . . . . . . . . . . . . . . . . . . . . . . . . . . . . . . . . . . . . . . . . . . . . . . . . . . . . . . . ",
". . . . . . . . . . . . . . . . . . . . . . . . . . . . . . . . . . . . . . . . . . . . . . . . . . . . . . . . . . . . . . . . ",
". . . . . . . . . . . . . . . . . . . . . . . . . . . . . . . . . . . . . . . . . . . . . . . . . . . . . . . . . . . . . . . . ",
". . . . . . . . . . . . . . . . . . . . . . . . . . . . . . . . . . . . . . . . . . . . . . . . . . . . . . . . . . . . . . . . ",
". . . . . . . . . . . . . . . . . . . . . . . . . . . . . . . . . . . . . . . . . . . . . . . . . . . . . . . . . . . . . . . . ",
". . . . . . . . . . . . . . . . . . . . . . . . . . . . . . . . . . . . . . . . . . . . . . . . . . . . . . . . . . . . . . . . ",
". . . . . . . . . . . . . . . . . . . . . . . . . . . . . . . . . . . . . . . . . . . . . . . . . . . . . . . . . . . . . . . . ",
". . . . . . . . . . . . . . . . . . . . . . . . . . . . . . . + + + + + + + . . . . . . . . . . . . . . . . . . . . . . . . . . ",
". . . . . . . . . . . . . . . . . . . . . . . . . . . . . + + + + + + + + + + + . . . . . . . . . . . . . . . . . . . . . . . . ",
". . . . . . . . . . . . . . . . . . . . . . . . . . . . + + + + + + + + + + + + + . . . . . . . . . . . . . . . . . . . . . . . ",
". . . . . . . . . . . . . . . . . . . . . . . . . . . + + + + + + + + + + + + + + + . . . . . . . . . . . . . . . . . . . . . . ",
". . . . . . . . . . . . . . . . . . . . . . . . . . . + + + + + + + + + + + + + + + . . . . . . . . . . . . . . . . . . . . . . ",
". . . . . . . . . . . . . . . . . . . . . . . . . . + + + + + + + + + + + + + + + + + . . . . . . . . . . . . . . . . . . . . . ",
". . . . . . . . . . . . . . . . . . . . . . . . . . + + + + + + + + + + + + + + + + + . . . . . . . . . . . . . . . . . . . . . ",
". . . . . . . . . . . . . . . . . . . . . . . . . . + + + + + + + + + + + + + + + + + . . . . . . . . . . . . . . . . . . . . . ",
". . . . . . . . . . . . . . . . . . . . . . . . . . + + + + + + + + + + + + + + + + + . . . . . . . + @ # $ . . . . . . . . . . ",
". . . . . . . . . . . . . . . . . . . . . . . . . . + + + + + + + + + + + + + + + + + . . . . . . + + @ % & * . . . . . . . . . ",
". . . . . . . . . . . . . . . . . . . . . . . . . . + + + + + + + + + + + + + + + + + . . . . . . + = - ; & > , . . = - , @ - $ ",
". . . . . . . . . . . . . . . . . . . . . . . . . . + + + + + + + + + + + + + + + + . . . . . . + + $ ' ) ! ~ { = ' # ] ^ / ] ) ",
". . . . . . . . . . . . . . . . . . . . . . . . . . . + + + + + + + + + + + + + + + . . . . . . . = ' ( _ : < [ } % | 1 2 2 3 4 ",
". . . . . . . . . . . . . . . . . . . . . . . . . . . . + + + + + + + + + + + + + . . . . . . . + = @ 5 & 6 7 8 9 0 a b c b b d ",
". . . . . . . . . . . . . . . . . . . . . . . . . . . . . + + + + + + + + + + + . . . . . . + + $ @ e f g h i j k l m n o p q q ",
". . . . . . . . . . . . . . . . . . . . . . . . . . . . . . + + + + + + + + + . . . . . . + = r ' s t u v w x y z A B C D E F F ",
". . . . . . . . . . . . . . . . . . . . . . . . . . . . . . . . . . + . . . . . . . . . + = G e ( % H I J K L M N O P Q R S S T ",
". . . . . . . . . . . . . . . . . . . . . . . . . . . . . . . . . . + . . . . . . . . + = G e ; U V W X Y Z `  ...+.@.#.$.%.&.*.",
". . . . . . . . . . . . . . . . . . . . . . . . . . . . . . . . . . + . . . . . . . + = G =.-.;.>.,.'.).!.~.{.].^./.(._.:.<.[.}.",
". . . . . . . . . . . . . . . . . . . . . . . . . . . . . . . . . . + . . . . . . + + r ' ; |.1.2.3.4.5.6.7.8.9.0.a.b.c.d.e.f.g.",
". . . . . . . . . . . . . . . . . . . . . . . . . . . . . . . . . . + . . . . . . + = @ =.h.i.j.k.l.m.n.o.p.q.r.s.t.u.v.w.x.y.z.",
". . . . . . . . . . . . . . . . . . . . . . . . . . . . . . . . . . . + . . . . + + G e ) A.B.C.D.E.F.G.H.I.J.K.L.M.N.O.P.Q.R.S.",
". . . . . . . . . . . . . . . . . . . . . . . . . . . . . . . . . . . + . . . . + $ ' f h.T.U.V.W.X.Y.Z.`. +.+++@+#+$+%+&+*+=+-+",
". . . . . . . . . . . . . . . . . . . . . . . . . . . . . . . . . . . + + . . . = ;+e t >+,+'+)+!+~+{+]+^+/+(+_+:+<+[+}+|+1+1+2+",
". . . . . . . . . . . . . . . . . . . . . . . . . . . . . . . . . . . . . . . + . + $ =.3+4+5+6+~+7+8+9+0+a+b+c+d+e+    f+g+h+i+",
". . . . . . . . . . . . . . . . . . . . . . . . . . . . . . . . . . . . . . . . . . + , -.j+k+l+m+n+o+p+q+r+s+t+u+v+w+x+        ",
". . . . . . . . . . . . . . . . . . . . . . . . . . . . . . . . . . . . . . . . . . + ' ] y+z+A+B+C+D+E+F+G+H+S I+J+K+L+e+M+    ",
". . . . . . . . . . . . . . . . . . . . . . . . . . . . . . . . . . . . . . . . . . = * % N+O+P+Q+R+S+T+U+V+W+X+Y+Z+`+ @V+.@    ",
". . . . . . . . . . . . . . . . . . . . . . . . . . . . . . . . . . . . . . . . . + - # u +@@@p #@$@%@&@*@=@-@;@>@,@'@)@!@      ",
". . . . . . . . . . . . . . . . . . . . . . . . . . . . . . . . . . . . . . . . . + - ~@{@]@^@/@(@_@:@K+<@[@}@|@1@2@3@4@        ",
". . . . . . . . . . . . . . . . . . . . . . . . . . . . . . . . . . . . . . . . . . + - 5@6@7@8@9@0@a@b@c@d@.@e@f@V+g@h@        ",
". . . . . . . . . . . . . . . . . . . . . . . . . . . . . . . . . . . . . . . . . . + - ) i@j@k@l@m@n@o@p@q@r@s@t@u@            ",
". . . . . . . . . . . . . . . . . . . . . . . . . . . . . . . . . . . . . . . . . + $ v@w@s s x@y@z@A@B@C@D@E@                  ",
". . . . . . . . . . . . . . . . . . . . . . . . . . . . . . . . . . . . . . . . . + - F@G@H@@@7 I@J@K@L@M@d+N@                  ",
". . . . . . . . . . . . . . . . . . . . . . . . . . . . . . . . . . . . . . . . . = ' ] O@P@Q@R@X+S@T@U@V@W@X@                  "};
