/* XPM */
static char * corner_tjunc_t_xpm[] = {
"64 64 546 2",
"  	c None",
". 	c #3C7A4D",
"+ 	c #3B7D4E",
"@ 	c #377145",
"# 	c #35663C",
"$ 	c #355D34",
"% 	c #35522B",
"& 	c #32401E",
"* 	c #293011",
"= 	c #1E240C",
"- 	c #151909",
"; 	c #0E1107",
"> 	c #080A04",
", 	c #030401",
"' 	c #010200",
") 	c #000100",
"! 	c #000000",
"~ 	c #010100",
"{ 	c #060802",
"] 	c #111506",
"^ 	c #171C08",
"/ 	c #0E1106",
"( 	c #111408",
"_ 	c #191E0A",
": 	c #20260D",
"< 	c #272E10",
"[ 	c #2F3917",
"} 	c #344B26",
"| 	c #386035",
"1 	c #3C7545",
"2 	c #408854",
"3 	c #45955F",
"4 	c #4A9A63",
"5 	c #153009",
"6 	c #214510",
"7 	c #1E3F0E",
"8 	c #1B3B0A",
"9 	c #304D26",
"0 	c #102104",
"a 	c #101A05",
"b 	c #19230C",
"c 	c #1E250C",
"d 	c #1D230B",
"e 	c #161A0A",
"f 	c #0D1006",
"g 	c #060803",
"h 	c #020300",
"i 	c #040501",
"j 	c #0F1206",
"k 	c #1F260C",
"l 	c #2C3515",
"m 	c #252F14",
"n 	c #1A200B",
"o 	c #262D10",
"p 	c #2D3514",
"q 	c #313C1A",
"r 	c #385E34",
"s 	c #3B7143",
"t 	c #3F8451",
"u 	c #42905B",
"v 	c #538656",
"w 	c #4D6D43",
"x 	c #254D13",
"y 	c #295415",
"z 	c #234519",
"A 	c #274C1C",
"B 	c #234912",
"C 	c #295315",
"D 	c #285214",
"E 	c #3E6334",
"F 	c #689A5D",
"G 	c #213A19",
"H 	c #101C05",
"I 	c #0C1504",
"J 	c #070C02",
"K 	c #030501",
"L 	c #070903",
"M 	c #090C04",
"N 	c #050602",
"O 	c #101307",
"P 	c #1C210B",
"Q 	c #272F11",
"R 	c #2F3E1D",
"S 	c #263619",
"T 	c #2A3A1B",
"U 	c #2F4623",
"V 	c #32512B",
"W 	c #345D34",
"X 	c #326339",
"Y 	c #2D6136",
"Z 	c #234A20",
"` 	c #79A96C",
" .	c #90C682",
"..	c #3B5E30",
"+.	c #17330A",
"@.	c #355C2F",
"#.	c #4F8648",
"$.	c #44793E",
"%.	c #3A6B33",
"&.	c #284E1C",
"*.	c #22480D",
"=.	c #487140",
"-.	c #5D9255",
";.	c #3B6736",
">.	c #101E04",
",.	c #111F05",
"'.	c #152406",
").	c #131F05",
"!.	c #0C1204",
"~.	c #060903",
"{.	c #020301",
"].	c #0E1006",
"^.	c #171B09",
"/.	c #293112",
"(.	c #314623",
"_.	c #2C4A27",
":.	c #13200E",
"<.	c #19200A",
"[.	c #1D2E0A",
"}.	c #23470F",
"|.	c #295516",
"1.	c #36592B",
"2.	c #83B575",
"3.	c #7DAC6F",
"4.	c #5B824F",
"5.	c #275014",
"6.	c #20430F",
"7.	c #43773D",
"8.	c #42783B",
"9.	c #3C6E33",
"0.	c #35652B",
"a.	c #214314",
"b.	c #3D6537",
"c.	c #487E44",
"d.	c #3F753C",
"e.	c #244416",
"f.	c #264310",
"g.	c #1D3009",
"h.	c #141F07",
"i.	c #0D1205",
"j.	c #060902",
"k.	c #090B04",
"l.	c #111407",
"m.	c #1F250C",
"n.	c #272F12",
"o.	c #2E3A1A",
"p.	c #324C28",
"q.	c #346137",
"r.	c #26512E",
"s.	c #17330D",
"t.	c #1E4008",
"u.	c #234712",
"v.	c #628E55",
"w.	c #72A465",
"x.	c #7AAB6C",
"y.	c #5C8350",
"z.	c #3B6734",
"A.	c #4E8447",
"B.	c #294C22",
"C.	c #224711",
"D.	c #214411",
"E.	c #3B6C33",
"F.	c #38692E",
"G.	c #305D24",
"H.	c #2A531B",
"I.	c #2D5326",
"J.	c #42783E",
"K.	c #36672F",
"L.	c #274B1E",
"M.	c #1D3309",
"N.	c #172607",
"O.	c #111906",
"P.	c #0B1005",
"Q.	c #050702",
"R.	c #030301",
"S.	c #101406",
"T.	c #1D240D",
"U.	c #252D13",
"V.	c #283015",
"W.	c #2B381A",
"X.	c #2F4422",
"Y.	c #345830",
"Z.	c #376C40",
"`.	c #387749",
" +	c #337246",
".+	c #33683F",
"++	c #4B7746",
"@+	c #5D9154",
"#+	c #6EA061",
"$+	c #577F4C",
"%+	c #43783C",
"&+	c #467D40",
"*+	c #36612F",
"=+	c #77A46B",
"-+	c #8DC37F",
";+	c #80B272",
">+	c #659059",
",+	c #44673B",
"'+	c #23461B",
")+	c #346228",
"!+	c #234811",
"~+	c #1C3A0F",
"{+	c #396B33",
"]+	c #2C5321",
"^+	c #27491A",
"/+	c #172A09",
"(+	c #162507",
"_+	c #101806",
":+	c #0A0F04",
"<+	c #050802",
"[+	c #0C1104",
"}+	c #1C2710",
"|+	c #27371A",
"1+	c #2B4121",
"2+	c #31532D",
"3+	c #36693E",
"4+	c #3A794A",
"5+	c #3F8855",
"6+	c #42925C",
"7+	c #438D58",
"8+	c #42703C",
"9+	c #619456",
"0+	c #2C4725",
"a+	c #325F2A",
"b+	c #3D7035",
"c+	c #3E7236",
"d+	c #305B29",
"e+	c #6C9961",
"f+	c #8BBF7C",
"g+	c #7EB070",
"h+	c #6C9E60",
"i+	c #3D6135",
"j+	c #2A521D",
"k+	c #254A14",
"l+	c #1E3E0A",
"m+	c #193407",
"n+	c #274C20",
"o+	c #26481A",
"p+	c #1E370F",
"q+	c #182B0A",
"r+	c #0E1705",
"s+	c #080D03",
"t+	c #070B03",
"u+	c #0A1003",
"v+	c #12210C",
"w+	c #1E3116",
"x+	c #294827",
"y+	c #35683D",
"z+	c #3B7B4B",
"A+	c #3F8955",
"B+	c #418E59",
"C+	c #347043",
"D+	c #40753B",
"E+	c #426E3B",
"F+	c #274D1C",
"G+	c #36652B",
"H+	c #37672D",
"I+	c #274C1E",
"J+	c #1E400F",
"K+	c #537948",
"L+	c #74A567",
"M+	c #619557",
"N+	c #558B4E",
"O+	c #52884B",
"P+	c #2C5225",
"Q+	c #21430F",
"R+	c #183206",
"S+	c #172D06",
"T+	c #162B0B",
"U+	c #203D15",
"V+	c #172809",
"W+	c #131F06",
"X+	c #0B1303",
"Y+	c #091003",
"Z+	c #070A03",
"`+	c #040601",
" @	c #081004",
".@	c #162910",
"+@	c #1A3214",
"@@	c #1E3A1A",
"#@	c #224322",
"$@	c #214323",
"%@	c #1F421F",
"&@	c #224318",
"*@	c #2F5A24",
"=@	c #396B34",
"-@	c #224416",
";@	c #274F18",
">@	c #295119",
",@	c #2C571E",
"'@	c #2D5720",
")@	c #649158",
"!@	c #76A668",
"~@	c #275015",
"{@	c #57814B",
"]@	c #54854B",
"^@	c #43783D",
"/@	c #3E7237",
"(@	c #3B6C35",
"_@	c #19340B",
":@	c #162C05",
"<@	c #122405",
"[@	c #0F1D04",
"}@	c #15270C",
"|@	c #121E07",
"1@	c #0C1304",
"2@	c #090E03",
"3@	c #0B1406",
"4@	c #0F1A08",
"5@	c #192F15",
"6@	c #1F3B1D",
"7@	c #13270B",
"8@	c #1C3711",
"9@	c #214016",
"0@	c #2A5121",
"a@	c #1C3912",
"b@	c #1C3A09",
"c@	c #1E3D0A",
"d@	c #20430D",
"e@	c #1D3A11",
"f@	c #406839",
"g@	c #57844D",
"h@	c #5D8A53",
"i@	c #84B775",
"j@	c #264E12",
"k@	c #244B0E",
"l@	c #28471C",
"m@	c #5E8A53",
"n@	c #4F7745",
"o@	c #34632B",
"p@	c #305C26",
"q@	c #26491E",
"r@	c #102004",
"s@	c #0D1904",
"t@	c #0B1403",
"u@	c #081003",
"v@	c #0D1605",
"w@	c #020201",
"x@	c #010201",
"y@	c #070C03",
"z@	c #080F04",
"A@	c #0B1407",
"B@	c #101E0D",
"C@	c #0A1506",
"D@	c #101F08",
"E@	c #14260A",
"F@	c #1A3210",
"G@	c #162D0E",
"H@	c #112303",
"I@	c #152B05",
"J@	c #183106",
"K@	c #1A3607",
"L@	c #23451C",
"M@	c #43773F",
"N@	c #4F864A",
"O@	c #598E52",
"P@	c #55844C",
"Q@	c #77AD6A",
"R@	c #588D50",
"S@	c #1B3B09",
"T@	c #1F4009",
"U@	c #1C3B07",
"V@	c #476D3E",
"W@	c #689B5D",
"X@	c #5F8F55",
"Y@	c #2A511E",
"Z@	c #284D1B",
"`@	c #24461A",
" #	c #112209",
".#	c #060B02",
"+#	c #020401",
"@#	c #040702",
"##	c #060B04",
"$#	c #050A03",
"%#	c #091103",
"&#	c #0D1806",
"*#	c #0E1C08",
"=#	c #081001",
"-#	c #0C1803",
";#	c #132704",
">#	c #1F3D16",
",#	c #35652F",
"'#	c #386B32",
")#	c #3E743A",
"!#	c #42753D",
"~#	c #5C9755",
"{#	c #68A55F",
"]#	c #467E41",
"^#	c #1A3506",
"/#	c #162E05",
"(#	c #487442",
"_#	c #588E52",
":#	c #578C51",
"<#	c #27491E",
"[#	c #224116",
"}#	c #1C3410",
"|#	c #16290D",
"1#	c #050A02",
"2#	c #030601",
"3#	c #010101",
"4#	c #030502",
"5#	c #050801",
"6#	c #070D03",
"7#	c #050901",
"8#	c #080E01",
"9#	c #0C1802",
"0#	c #152A0C",
"a#	c #224118",
"b#	c #274B1B",
"c#	c #2D5723",
"d#	c #2C5524",
"e#	c #43793E",
"f#	c #4C8A47",
"g#	c #4E8D49",
"h#	c #3C7034",
"i#	c #112104",
"j#	c #142605",
"k#	c #3D6D3B",
"l#	c #498147",
"m#	c #477D45",
"n#	c #30562C",
"o#	c #1C350F",
"p#	c #16290B",
"q#	c #101D07",
"r#	c #010300",
"s#	c #040800",
"t#	c #081203",
"u#	c #162A0B",
"v#	c #192E0A",
"w#	c #1F3910",
"x#	c #224015",
"y#	c #193107",
"z#	c #3B6F34",
"A#	c #3C7031",
"B#	c #3D7233",
"C#	c #346227",
"D#	c #0F1C04",
"E#	c #101E05",
"F#	c #326030",
"G#	c #3C713A",
"H#	c #386936",
"I#	c #315D30",
"J#	c #14270D",
"K#	c #111E07",
"L#	c #0B1204",
"M#	c #070B02",
"N#	c #0C1503",
"O#	c #111D04",
"P#	c #172908",
"Q#	c #203E19",
"R#	c #152705",
"S#	c #325F27",
"T#	c #305A1F",
"U#	c #2F591F",
"V#	c #2B4E18",
"W#	c #162A09",
"X#	c #294E22",
"Y#	c #315E2C",
"Z#	c #2B5124",
"`#	c #23431E",
" $	c #1A3217",
".$	c #0A1103",
"+$	c #040701",
"@$	c #030500",
"#$	c #050A01",
"$$	c #0A1102",
"%$	c #1A3312",
"&$	c #3A6E33",
"*$	c #162D0F",
"=$	c #2C521E",
"-$	c #294913",
";$	c #264410",
">$	c #23390C",
",$	c #1A2C08",
"'$	c #1B310E",
")$	c #294D21",
"!$	c #223E18",
"~$	c #1A3112",
"{$	c #14250F",
"]$	c #0A1507",
"^$	c #050701",
"/$	c #060B01",
"($	c #254217",
"_$	c #2F5421",
":$	c #2E5624",
"<$	c #254215",
"[$	c #253E0E",
"}$	c #20350B",
"|$	c #1A2909",
"1$	c #192808",
"2$	c #131E05",
"3$	c #131E07",
"4$	c #1A2F10",
"5$	c #1D3312",
"6$	c #15240C",
"7$	c #0E1808",
"8$	c #0A1106",
"9$	c #101E08",
"0$	c #213611",
"a$	c #263E13",
"b$	c #2D4C1C",
"c$	c #253F16",
"d$	c #20320B",
"e$	c #1B2A09",
"f$	c #121B07",
"g$	c #141C07",
"h$	c #0C1205",
"i$	c #16250C",
"j$	c #121C09",
"k$	c #0B1104",
"l$	c #060A03",
"m$	c #050803",
"n$	c #0E1707",
"o$	c #1A280C",
"p$	c #1F2E0C",
"q$	c #23330D",
"r$	c #2A4217",
"s$	c #18240A",
"t$	c #151F08",
"u$	c #0D1206",
"v$	c #0C1105",
"w$	c #080C04",
"x$	c #101808",
"y$	c #080C03",
"z$	c #151E09",
"A$	c #172108",
"B$	c #1A2509",
"C$	c #23310D",
"D$	c #243512",
"E$	c #0F1406",
"F$	c #020200",
"G$	c #0B1004",
"H$	c #0E1405",
"I$	c #121806",
"J$	c #141B07",
"K$	c #192209",
"L$	c #293712",
"M$	c #0F1405",
"N$	c #0B0F04",
"O$	c #0C1005",
"P$	c #0E1306",
"Q$	c #1D250B",
"R$	c #161E07",
"S$	c #060702",
"T$	c #020400",
"U$	c #040602",
"                  . + @ # $ % & * = - ; > , ' ) ! ! ! ! ! ! ! ! ! ! ! ! ! ! ! ~ { ] ^ / ( _ : < [ } | 1 2 3 4     5             ",
"            6 7       8 9 0 a b c d e f g h ' ! ! ! ! ! ! ! ! ! ! ! ! ! ! ! ! ' i j k l m n o p q } r s t u v w x y             ",
"            z A B C D E F G H I J K L M N h ) ! ! ! ! ! ! ! ! ! ! ! ! ! ! ! ! ) h L O P Q R S T U V W X Y Z `  ...y             ",
"    +.    @.#.$.%.&.*.=.-.;.>.,.'.).!.~.{.) ! ! ! ! ! ! ! ! ! ! ! ! ! ! ! ! ! ) h { ].^.= /.(._.:.<.[.}.|.1.2.3.4.6             ",
"    5.y 6.  7.8.9.0.a.b.c.d.e.f.g.h.i.j.h ' ! ! ! ! ! ! ! ! ! ! ! ! ! ! ! ! ! ) , k.l._ m.n.o.p.q.r.s.t.u.v.w.x.y.  z.A.B.      ",
"    C.D.6     E.F.G.H.I.J.K.L.M.N.O.P.Q.h ' ! ! ! ! ! ! ! ! ! ! ! ! ! ! ! ! ! ~ R.L S.T.U.V.W.X.Y.Z.`. +.+++@+#+$+  %+&+*+      ",
"    =+-+;+>+,+'+)+H.!+~+{+]+^+/+(+_+:+<+{.~ ! ! ! ! ! ! ! ! ! ! ! ! ! ! ! ! ! ! ! ) ' h [+}+|+1+2+3+4+5+6+7+8+9+0+a+b+c+d+      ",
"    e+f+g+w.h+i+j+k+l+m+n+o+p+q+).r+s+Q.{.~ ! ! ! ! ! ! ! ! ! ! ! ! ! ! ! ! ! ! ) ' {.K t+u+v+w+x+y+z+A+B+C+D+E+F+)+G+H+I+      ",
"    J+K+L+M+N+O+P+Q+R+S+T+U+V+W+X+Y+Z+, ~ ) ! ! ! ! ! ! ! ! ! ! ! ! ! ! ! ! ! ! ) ' ~ ' `+ @.@+@@@#@$@%@&@*@=@-@;@>@,@'@      )@",
"!@  6 ~@{@]@^@/@(@_@:@<@[@}@|@1@2@Q.Q.{.~ ) ! ! ! ! ! ! ! ! ! ! ! ! ! ! ! ! ! ! ) ! ) ~ {.3@4@v+5@6@7@8@9@0@a@b@c@d@k+e@f@g@h@i@",
"#+  j@k@l@m@n@o@p@q@r@s@t@u@v@J Q., w@x@) ! ! ! ! ! ! ! ! ! ! ! ! ! ! ! ! ! ! ! ! ! ) ~ <+y@z@A@B@C@D@E@F@G@H@I@J@K@L@M@N@O@P@Q@",
"R@S@T@U@V@W@X@Y@Z@`@ #Y+.#<+`+Q.{.' ~ ~ , w@! ! ! ! ! ! ! ! ! ! ! ! ! ! ! ! ! ! ! ! ) +#K K @###$#J %#&#*#=#-#0 ;#>#,#'#)#!#~#{#",
"]#^#:@/#(#_#:#<#[#}#|#1#2#h ~ w@x@~ ! ! ~ , {.3#! ! ! ! ! ! ! ! ! ! ! ! ! ! ! ! ) ) ~ ~ ' ' +#4#h 2#5#6#K 7#8#9#0#a#b#c#d#e#f#g#",
"h#i#<@j#k#l#m#n#o#p#q# @h ~ ) ! ~ ! ! ! ! ~ x@~ ) ! ! ! ! ! ! ! ! ! ! ! ) ) ) ) ) ) ) ) ) ~ ' ' ' ' r#' ) r#s#t#u#v#w#x#y#z#A#B#",
"C#D#H E#F#G#H#I#J#K#L#M#+#) ! ! ! ! ! ! ! ! ~ ~ ! ! ! ! ! ! ! ! ! ! ! ! ) ) ) ) ) ) ) ) ) ~ ) ) ! ! ) ! ! ! r#Y+N#O#P#Q#R#S#T#U#",
"V#W#I ,.X#Y#Z#`# $.$J +$, x@! ! ! ! ! ! ! ! ! ) ! ! ! ! ! ! ! ! ! ! ! ! ) ) ) ) ) ) ) ) ) ) ) ! ! ! ! ! ! ! r#@$#$$$%$&$*$=$-$;$",
">$,$J '.'$)$!$~${$]$^$, {.x@~ ! ! ! ! ! ! ! ! ! ! ! ! ! ! ! ! ! ! ! ! ! ) ) ) ) ) ) ) ) ) ! ! ! ! ! ! ! ! ! ) ~ h /$($_$:$<$[$}$",
"|$1$K 2$3$4$5$6$7$8$@#{.x@~ ! ! ! ! ! ! ! ! ! ! ! ! ! ! ! ! ! ! ! ! ! ! ) ) ) ) ) ) ) ) ) ! ! ! ! ! ! ! ! ! ! ! ) 9$0$a$b$c$d$e$",
"f$g$j.!.h$2@i$j$k$l$m${.~ ! ! ! ! ! ! ! ! ! ! ! ! ! ! ! ! ! ! ! ! ! ! ! ! ! ) ) ) ) ) ) ) ! ! ! ! ! ! ! ! ! ! ! ! n$o$p$q$r$s$t$",
"u$v$w$~.<+@#y@x$y$`+i K ~ ! ! ! ! ! ! ! ! ! ! ! ! ! ! ! ! ! ! ! ! ! ! ! ! ! ! ! ! ) ) ) ! ! ! ! ! ! ! ! ! ! ! ! ) K z$A$B$C$D$E$",
"Z+{ N {.h F$w@G$j., R.K ' ! ! ! ! ! ! ! ! ! ! ! ! ! ! ! ! ! ! ! ! ! ! ! ! ! ! ! ! ! ) ) ! ! ! ! ! ! ! ! ! ! ! ! ) ) H$I$J$K$L$M$",
", h h ) ' ~ ~ `+N {.x@{.{.x@w@3#) ! ! ! ! ! ! ! ! ! ! ! ! ! ! ! ! ! ! ! ! ! ! ! ! ! ! ! ! ! ! ! ! ! ! ! ! ! ! ! ! ! j.N$O$P$Q$R$",
"' ' ) ! ! ! ! x@, ~ ~ ~ x@) 3#~ ~ ! ! ! ! ! ! ! ! ! ! ! ! ! ! ! ! ! ! ! ! ! ! ! ! ! ! ! ! ! ! ! ! ! ! ! ! ! ! ! ! ! , Q.S${ / S.",
") ! ! ! ! ! ! ~ ~ ) ! ! ~ ! ~ ) ! ! ! ! ! ! ! ! ! ! ! ! ! ! ! ! ! ! ! ! ! ! ! ! ! ! ! ! ! ! ! ! ! ! ! ! ! ! ! ! ! ! ~ h h T$U$g ",
"! ! ! ! ! ! ! ! ) ! ! ! ! ! ! ! ! ! ! ! ! ! ! ! ! ! ! ! ! ! ! ! ! ! ! ! ! ! ! ! ! ! ! ! ! ! ! ! ! ! ! ! ! ! ! ! ! ! ! ) ) ' ' ' ",
"! ! ! ! ! ! ! ! ! ! ! ! ! ! ! ! ! ! ! ! ! ! ! ! ! ! ! ! ! ! ! ! ! ! ! ! ! ! ! ! ! ! ! ! ! ! ! ! ! ! ! ! ! ! ! ! ! ! ! ! ! ! ) ) ",
"! ! ! ! ! ! ! ! ! ! ! ! ! ! ! ! ! ! ! ! ! ! ! ! ! ! ! ! ! ! ! ! ! ! ! ! ! ! ! ! ! ! ! ! ! ! ! ! ! ! ! ! ! ! ! ! ! ! ! ! ! ! ! ! ",
"! ! ! ! ! ! ! ! ! ! ! ! ! ! ! ! ! ! ! ! ! ! ! ! ! ! ! ! ! ! ! ! ! ! ! ! ! ! ! ! ! ! ! ! ! ! ! ! ! ! ! ! ! ! ! ! ! ! ! ! ! ! ! ! ",
"! ! ! ! ! ! ! ! ! ! ! ! ! ! ! ! ! ! ! ! ! ! ! ! ! ! ! ! ! ! ! ! ! ! ! ! ! ! ! ! ! ! ! ! ! ! ! ! ! ! ! ! ! ! ! ! ! ! ! ! ! ! ! ! ",
"! ! ! ! ! ! ! ! ! ! ! ! ! ! ! ! ! ! ! ! ! ! ! ! ! ! ! ! ! ! ! ! ! ! ! ! ! ! ! ! ! ! ! ! ! ! ! ! ! ! ! ! ! ! ! ! ! ! ! ! ! ! ! ! ",
"! ! ! ! ! ! ! ! ! ! ! ! ! ! ! ! ! ! ! ! ! ! ! ! ! ! ! ! ! ! ! ! ! ! ! ! ! ! ! ! ! ! ! ! ! ! ! ! ! ! ! ! ! ! ! ! ! ! ! ! ! ! ! ! ",
"! ! ! ! ! ! ! ! ! ! ! ! ! ! ! ! ! ! ! ! ! ! ! ! ! ! ! ! ! ! ! ! ! ! ! ! ! ! ! ! ! ! ! ! ! ! ! ! ! ! ! ! ! ! ! ! ! ! ! ! ! ! ! ! ",
"! ! ! ! ! ! ! ! ! ! ! ! ! ! ! ! ! ! ! ! ! ! ! ! ! ! ! ! ! ! ! ! ! ! ! ! ! ! ! ! ! ! ! ! ! ! ! ! ! ! ! ! ! ! ! ! ! ! ! ! ! ! ! ! ",
"! ! ! ! ! ! ! ! ! ! ! ! ! ! ! ! ! ! ! ! ! ! ! ! ! ! ! ! ! ! ! ! ! ! ! ! ! ! ! ! ! ! ! ! ! ! ! ! ! ! ! ! ! ! ! ! ! ! ! ! ! ! ! ! ",
"! ! ! ! ! ! ! ! ! ! ! ! ! ! ! ! ! ! ! ! ! ! ! ! ! ! ! ! ! ! ! ! ! ! ! ! ! ! ! ! ! ! ! ! ! ! ! ! ! ! ! ! ! ! ! ! ! ! ! ! ! ! ! ! ",
"! ! ! ! ! ! ! ! ! ! ! ! ! ! ! ! ! ! ! ! ! ! ! ! ! ! ! ! ! ! ! ! ! ! ! ! ! ! ! ! ! ! ! ! ! ! ! ! ! ! ! ! ! ! ! ! ! ! ! ! ! ! ! ! ",
"! ! ! ! ! ! ! ! ! ! ! ! ! ! ! ! ! ! ! ! ! ! ! ! ! ! ! ! ! ! ! ! ! ! ! ! ! ! ! ! ! ! ! ! ! ! ! ! ! ! ! ! ! ! ! ! ! ! ! ! ! ! ! ! ",
"! ! ! ! ! ! ! ! ! ! ! ! ! ! ! ! ! ! ! ! ! ! ! ! ! ! ! ! ! ! ! ! ! ! ! ! ! ! ! ! ! ! ! ! ! ! ! ! ! ! ! ! ! ! ! ! ! ! ! ! ! ! ! ! ",
"! ! ! ! ! ! ! ! ! ! ! ! ! ! ! ! ! ! ! ! ! ! ! ! ! ! ! ! ! ! ! ! ! ! ! ! ! ! ! ! ! ! ! ! ! ! ! ! ! ! ! ! ! ! ! ! ! ! ! ! ! ! ! ! ",
"! ! ! ! ! ! ! ! ! ! ! ! ! ! ! ! ! ! ! ! ! ! ! ! ! ! ! ! ! ! ! ! ! ! ! ! ! ! ! ! ! ! ! ! ! ! ! ! ! ! ! ! ! ! ! ! ! ! ! ! ! ! ! ! ",
"! ! ! ! ! ! ! ! ! ! ! ! ! ! ! ! ! ! ! ! ! ! ! ! ! ! ! ! ! ! ! ! ! ! ! ! ! ! ! ! ! ! ! ! ! ! ! ! ! ! ! ! ! ! ! ! ! ! ! ! ! ! ! ! ",
"! ! ! ! ! ! ! ! ! ! ! ! ! ! ! ! ! ! ! ! ! ! ! ! ! ! ! ! ! ! ! ! ! ! ! ! ! ! ! ! ! ! ! ! ! ! ! ! ! ! ! ! ! ! ! ! ! ! ! ! ! ! ! ! ",
"! ! ! ! ! ! ! ! ! ! ! ! ! ! ! ! ! ! ! ! ! ! ! ! ! ! ! ! ! ! ! ! ! ! ! ! ! ! ! ! ! ! ! ! ! ! ! ! ! ! ! ! ! ! ! ! ! ! ! ! ! ! ! ! ",
"! ! ! ! ! ! ! ! ! ! ! ! ! ! ! ! ! ! ! ! ! ! ! ! ! ! ! ! ! ! ! ! ! ! ! ! ! ! ! ! ! ! ! ! ! ! ! ! ! ! ! ! ! ! ! ! ! ! ! ! ! ! ! ! ",
"! ! ! ! ! ! ! ! ! ! ! ! ! ! ! ! ! ! ! ! ! ! ! ! ! ! ! ! ! ! ! ! ! ! ! ! ! ! ! ! ! ! ! ! ! ! ! ! ! ! ! ! ! ! ! ! ! ! ! ! ! ! ! ! ",
"! ! ! ! ! ! ! ! ! ! ! ! ! ! ! ! ! ! ! ! ! ! ! ! ! ! ! ! ! ! ! ! ! ! ! ! ! ! ! ! ! ! ! ! ! ! ! ! ! ! ! ! ! ! ! ! ! ! ! ! ! ! ! ! ",
"! ! ! ! ! ! ! ! ! ! ! ! ! ! ! ! ! ! ! ! ! ! ! ! ! ! ! ! ! ! ! ! ! ! ! ! ! ! ! ! ! ! ! ! ! ! ! ! ! ! ! ! ! ! ! ! ! ! ! ! ! ! ! ! ",
"! ! ! ! ! ! ! ! ! ! ! ! ! ! ! ! ! ! ! ! ! ! ! ! ! ! ! ! ! ! ! ! ! ! ! ! ! ! ! ! ! ! ! ! ! ! ! ! ! ! ! ! ! ! ! ! ! ! ! ! ! ! ! ! ",
"! ! ! ! ! ! ! ! ! ! ! ! ! ! ! ! ! ! ! ! ! ! ! ! ! ! ! ! ! ! ! ! ! ! ! ! ! ! ! ! ! ! ! ! ! ! ! ! ! ! ! ! ! ! ! ! ! ! ! ! ! ! ! ! ",
"! ! ! ! ! ! ! ! ! ! ! ! ! ! ! ! ! ! ! ! ! ! ! ! ! ! ! ! ! ! ! ! ! ! ! ! ! ! ! ! ! ! ! ! ! ! ! ! ! ! ! ! ! ! ! ! ! ! ! ! ! ! ! ! ",
"! ! ! ! ! ! ! ! ! ! ! ! ! ! ! ! ! ! ! ! ! ! ! ! ! ! ! ! ! ! ! ! ! ! ! ! ! ! ! ! ! ! ! ! ! ! ! ! ! ! ! ! ! ! ! ! ! ! ! ! ! ! ! ! ",
"! ! ! ! ! ! ! ! ! ! ! ! ! ! ! ! ! ! ! ! ! ! ! ! ! ! ! ! ! ! ! ! ! ! ! ! ! ! ! ! ! ! ! ! ! ! ! ! ! ! ! ! ! ! ! ! ! ! ! ! ! ! ! ! ",
"! ! ! ! ! ! ! ! ! ! ! ! ! ! ! ! ! ! ! ! ! ! ! ! ! ! ! ! ! ! ! ! ! ! ! ! ! ! ! ! ! ! ! ! ! ! ! ! ! ! ! ! ! ! ! ! ! ! ! ! ! ! ! ! ",
"! ! ! ! ! ! ! ! ! ! ! ! ! ! ! ! ! ! ! ! ! ! ! ! ! ! ! ! ! ! ! ! ! ! ! ! ! ! ! ! ! ! ! ! ! ! ! ! ! ! ! ! ! ! ! ! ! ! ! ! ! ! ! ! ",
"! ! ! ! ! ! ! ! ! ! ! ! ! ! ! ! ! ! ! ! ! ! ! ! ! ! ! ! ! ! ! ! ! ! ! ! ! ! ! ! ! ! ! ! ! ! ! ! ! ! ! ! ! ! ! ! ! ! ! ! ! ! ! ! ",
"! ! ! ! ! ! ! ! ! ! ! ! ! ! ! ! ! ! ! ! ! ! ! ! ! ! ! ! ! ! ! ! ! ! ! ! ! ! ! ! ! ! ! ! ! ! ! ! ! ! ! ! ! ! ! ! ! ! ! ! ! ! ! ! ",
"! ! ! ! ! ! ! ! ! ! ! ! ! ! ! ! ! ! ! ! ! ! ! ! ! ! ! ! ! ! ! ! ! ! ! ! ! ! ! ! ! ! ! ! ! ! ! ! ! ! ! ! ! ! ! ! ! ! ! ! ! ! ! ! ",
"! ! ! ! ! ! ! ! ! ! ! ! ! ! ! ! ! ! ! ! ! ! ! ! ! ! ! ! ! ! ! ! ! ! ! ! ! ! ! ! ! ! ! ! ! ! ! ! ! ! ! ! ! ! ! ! ! ! ! ! ! ! ! ! ",
"! ! ! ! ! ! ! ! ! ! ! ! ! ! ! ! ! ! ! ! ! ! ! ! ! ! ! ! ! ! ! ! ! ! ! ! ! ! ! ! ! ! ! ! ! ! ! ! ! ! ! ! ! ! ! ! ! ! ! ! ! ! ! ! ",
"! ! ! ! ! ! ! ! ! ! ! ! ! ! ! ! ! ! ! ! ! ! ! ! ! ! ! ! ! ! ! ! ! ! ! ! ! ! ! ! ! ! ! ! ! ! ! ! ! ! ! ! ! ! ! ! ! ! ! ! ! ! ! ! ",
"! ! ! ! ! ! ! ! ! ! ! ! ! ! ! ! ! ! ! ! ! ! ! ! ! ! ! ! ! ! ! ! ! ! ! ! ! ! ! ! ! ! ! ! ! ! ! ! ! ! ! ! ! ! ! ! ! ! ! ! ! ! ! ! ",
"! ! ! ! ! ! ! ! ! ! ! ! ! ! ! ! ! ! ! ! ! ! ! ! ! ! ! ! ! ! ! ! ! ! ! ! ! ! ! ! ! ! ! ! ! ! ! ! ! ! ! ! ! ! ! ! ! ! ! ! ! ! ! ! ",
"! ! ! ! ! ! ! ! ! ! ! ! ! ! ! ! ! ! ! ! ! ! ! ! ! ! ! ! ! ! ! ! ! ! ! ! ! ! ! ! ! ! ! ! ! ! ! ! ! ! ! ! ! ! ! ! ! ! ! ! ! ! ! ! ",
"! ! ! ! ! ! ! ! ! ! ! ! ! ! ! ! ! ! ! ! ! ! ! ! ! ! ! ! ! ! ! ! ! ! ! ! ! ! ! ! ! ! ! ! ! ! ! ! ! ! ! ! ! ! ! ! ! ! ! ! ! ! ! ! "};
