/* XPM */
static char * corner_tjunc_l_xpm[] = {
"64 64 572 2",
"  	c None",
". 	c #3C7A4D",
"+ 	c #3B7D4E",
"@ 	c #377145",
"# 	c #35663C",
"$ 	c #355D34",
"% 	c #35522B",
"& 	c #32401E",
"* 	c #293011",
"= 	c #1E240C",
"- 	c #151909",
"; 	c #0E1107",
"> 	c #080A04",
", 	c #030401",
"' 	c #010200",
") 	c #000100",
"! 	c #000000",
"~ 	c #214510",
"{ 	c #1E3F0E",
"] 	c #1B3B0A",
"^ 	c #304D26",
"/ 	c #102104",
"( 	c #101A05",
"_ 	c #19230C",
": 	c #1E250C",
"< 	c #1D230B",
"[ 	c #161A0A",
"} 	c #0D1006",
"| 	c #060803",
"1 	c #020300",
"2 	c #234519",
"3 	c #274C1C",
"4 	c #234912",
"5 	c #295315",
"6 	c #285214",
"7 	c #3E6334",
"8 	c #689A5D",
"9 	c #213A19",
"0 	c #101C05",
"a 	c #0C1504",
"b 	c #070C02",
"c 	c #030501",
"d 	c #070903",
"e 	c #090C04",
"f 	c #050602",
"g 	c #17330A",
"h 	c #355C2F",
"i 	c #4F8648",
"j 	c #44793E",
"k 	c #3A6B33",
"l 	c #284E1C",
"m 	c #22480D",
"n 	c #487140",
"o 	c #5D9255",
"p 	c #3B6736",
"q 	c #101E04",
"r 	c #111F05",
"s 	c #152406",
"t 	c #131F05",
"u 	c #0C1204",
"v 	c #060903",
"w 	c #020301",
"x 	c #275014",
"y 	c #295415",
"z 	c #20430F",
"A 	c #43773D",
"B 	c #42783B",
"C 	c #3C6E33",
"D 	c #35652B",
"E 	c #214314",
"F 	c #3D6537",
"G 	c #487E44",
"H 	c #3F753C",
"I 	c #244416",
"J 	c #264310",
"K 	c #1D3009",
"L 	c #141F07",
"M 	c #0D1205",
"N 	c #060902",
"O 	c #224711",
"P 	c #214411",
"Q 	c #3B6C33",
"R 	c #38692E",
"S 	c #305D24",
"T 	c #2A531B",
"U 	c #2D5326",
"V 	c #42783E",
"W 	c #36672F",
"X 	c #274B1E",
"Y 	c #1D3309",
"Z 	c #172607",
"` 	c #111906",
" .	c #0B1005",
"..	c #050702",
"+.	c #77A46B",
"@.	c #8DC37F",
"#.	c #80B272",
"$.	c #659059",
"%.	c #44673B",
"&.	c #23461B",
"*.	c #346228",
"=.	c #234811",
"-.	c #1C3A0F",
";.	c #396B33",
">.	c #2C5321",
",.	c #27491A",
"'.	c #172A09",
").	c #162507",
"!.	c #101806",
"~.	c #0A0F04",
"{.	c #050802",
"].	c #010100",
"^.	c #6C9961",
"/.	c #8BBF7C",
"(.	c #7EB070",
"_.	c #72A465",
":.	c #6C9E60",
"<.	c #3D6135",
"[.	c #2A521D",
"}.	c #254A14",
"|.	c #1E3E0A",
"1.	c #193407",
"2.	c #274C20",
"3.	c #26481A",
"4.	c #1E370F",
"5.	c #182B0A",
"6.	c #0E1705",
"7.	c #080D03",
"8.	c #1E400F",
"9.	c #537948",
"0.	c #74A567",
"a.	c #619557",
"b.	c #558B4E",
"c.	c #52884B",
"d.	c #2C5225",
"e.	c #21430F",
"f.	c #183206",
"g.	c #172D06",
"h.	c #162B0B",
"i.	c #203D15",
"j.	c #172809",
"k.	c #131F06",
"l.	c #0B1303",
"m.	c #091003",
"n.	c #070A03",
"o.	c #76A668",
"p.	c #275015",
"q.	c #57814B",
"r.	c #54854B",
"s.	c #43783D",
"t.	c #3E7237",
"u.	c #3B6C35",
"v.	c #19340B",
"w.	c #162C05",
"x.	c #122405",
"y.	c #0F1D04",
"z.	c #15270C",
"A.	c #121E07",
"B.	c #0C1304",
"C.	c #090E03",
"D.	c #6EA061",
"E.	c #264E12",
"F.	c #244B0E",
"G.	c #28471C",
"H.	c #5E8A53",
"I.	c #4F7745",
"J.	c #34632B",
"K.	c #305C26",
"L.	c #26491E",
"M.	c #102004",
"N.	c #0D1904",
"O.	c #0B1403",
"P.	c #081003",
"Q.	c #0D1605",
"R.	c #020201",
"S.	c #010201",
"T.	c #588D50",
"U.	c #1B3B09",
"V.	c #1F4009",
"W.	c #1C3B07",
"X.	c #476D3E",
"Y.	c #689B5D",
"Z.	c #5F8F55",
"`.	c #2A511E",
" +	c #284D1B",
".+	c #24461A",
"++	c #112209",
"@+	c #060B02",
"#+	c #040601",
"$+	c #467E41",
"%+	c #1A3506",
"&+	c #162E05",
"*+	c #487442",
"=+	c #588E52",
"-+	c #578C51",
";+	c #27491E",
">+	c #224116",
",+	c #1C3410",
"'+	c #16290D",
")+	c #050A02",
"!+	c #030601",
"~+	c #010101",
"{+	c #3C7034",
"]+	c #112104",
"^+	c #142605",
"/+	c #3D6D3B",
"(+	c #498147",
"_+	c #477D45",
":+	c #30562C",
"<+	c #1C350F",
"[+	c #16290B",
"}+	c #101D07",
"|+	c #081004",
"1+	c #346227",
"2+	c #0F1C04",
"3+	c #101E05",
"4+	c #326030",
"5+	c #3C713A",
"6+	c #386936",
"7+	c #315D30",
"8+	c #14270D",
"9+	c #111E07",
"0+	c #0B1204",
"a+	c #070B02",
"b+	c #020401",
"c+	c #2B4E18",
"d+	c #162A09",
"e+	c #294E22",
"f+	c #315E2C",
"g+	c #2B5124",
"h+	c #23431E",
"i+	c #1A3217",
"j+	c #0A1103",
"k+	c #040701",
"l+	c #23390C",
"m+	c #1A2C08",
"n+	c #1B310E",
"o+	c #294D21",
"p+	c #223E18",
"q+	c #1A3112",
"r+	c #14250F",
"s+	c #0A1507",
"t+	c #050701",
"u+	c #1A2909",
"v+	c #192808",
"w+	c #131E05",
"x+	c #131E07",
"y+	c #1A2F10",
"z+	c #1D3312",
"A+	c #15240C",
"B+	c #0E1808",
"C+	c #0A1106",
"D+	c #040702",
"E+	c #121B07",
"F+	c #141C07",
"G+	c #0C1205",
"H+	c #16250C",
"I+	c #121C09",
"J+	c #0B1104",
"K+	c #060A03",
"L+	c #050803",
"M+	c #0D1206",
"N+	c #0C1105",
"O+	c #080C04",
"P+	c #070C03",
"Q+	c #101808",
"R+	c #080C03",
"S+	c #040501",
"T+	c #060802",
"U+	c #020200",
"V+	c #0B1004",
"W+	c #030301",
"X+	c #040602",
"Y+	c #030603",
"Z+	c #0D1007",
"`+	c #090B04",
" @	c #010300",
".@	c #070803",
"+@	c #040502",
"@@	c #050502",
"#@	c #020402",
"$@	c #181C0A",
"%@	c #141709",
"&@	c #0E1007",
"*@	c #131607",
"=@	c #080903",
"-@	c #070802",
";@	c #040603",
">@	c #030604",
",@	c #23290E",
"'@	c #1F250C",
")@	c #1A1F0B",
"!@	c #131608",
"~@	c #111508",
"{@	c #0A0D05",
"]@	c #0B0E05",
"^@	c #121608",
"/@	c #111406",
"(@	c #101306",
"_@	c #0B0E04",
":@	c #050703",
"<@	c #040905",
"[@	c #010302",
"}@	c #2D3514",
"|@	c #262D10",
"1@	c #232A0E",
"2@	c #151908",
"3@	c #151808",
"4@	c #1B210B",
"5@	c #242C11",
"6@	c #181C09",
"7@	c #101406",
"8@	c #0C0F05",
"9@	c #060904",
"0@	c #060C07",
"a@	c #020503",
"b@	c #323D1B",
"c@	c #303A19",
"d@	c #282F11",
"e@	c #2A3112",
"f@	c #293113",
"g@	c #20260C",
"h@	c #242D13",
"i@	c #1E2C14",
"j@	c #202811",
"k@	c #171B0A",
"l@	c #111408",
"m@	c #090E07",
"n@	c #070E08",
"o@	c #000101",
"p@	c #33421F",
"q@	c #313D1B",
"r@	c #2F3716",
"s@	c #252C10",
"t@	c #2F3919",
"u@	c #252C0E",
"v@	c #2C3717",
"w@	c #263317",
"x@	c #274425",
"y@	c #25391D",
"z@	c #1D2713",
"A@	c #161F0F",
"B@	c #0D170B",
"C@	c #071008",
"D@	c #334723",
"E@	c #323F1D",
"F@	c #252D12",
"G@	c #32401D",
"H@	c #303918",
"I@	c #2F3817",
"J@	c #324622",
"K@	c #283B1D",
"L@	c #2F5631",
"M@	c #254426",
"N@	c #24391E",
"O@	c #1C2E19",
"P@	c #132313",
"Q@	c #0E1D12",
"R@	c #09150D",
"S@	c #040804",
"T@	c #344B26",
"U@	c #344A25",
"V@	c #283719",
"W@	c #334421",
"X@	c #324522",
"Y@	c #2D4624",
"Z@	c #33562F",
"`@	c #356339",
" #	c #244829",
".#	c #2B4E2C",
"+#	c #244226",
"@#	c #19311C",
"##	c #132818",
"$#	c #0D1B11",
"%#	c #060D07",
"&#	c #354E28",
"*#	c #344C27",
"=#	c #324D29",
"-#	c #304925",
";#	c #354D27",
">#	c #355730",
",#	c #2E542F",
"'#	c #3A6C3F",
")#	c #38673C",
"!#	c #2B5532",
"~#	c #2F5D38",
"{#	c #24482B",
"]#	c #17331E",
"^#	c #122917",
"/#	c #0E1D10",
"(#	c #091109",
"_#	c #030502",
":#	c #447D4E",
"<#	c #35502A",
"[#	c #35522C",
"}#	c #325B34",
"|#	c #375D33",
"1#	c #375C33",
"2#	c #386036",
"3#	c #39693D",
"4#	c #3D7C4E",
"5#	c #499761",
"6#	c #448C58",
"7#	c #428151",
"8#	c #214B2D",
"9#	c #2C613C",
"0#	c #2B5634",
"a#	c #213D23",
"b#	c #182815",
"c#	c #11180C",
"d#	c #0B0E06",
"e#	c #54A26A",
"f#	c #4B9761",
"g#	c #3A7245",
"h#	c #1B3B21",
"i#	c #3B6F41",
"j#	c #3C7546",
"k#	c #34673D",
"l#	c #3F8153",
"m#	c #4D9C65",
"n#	c #509E67",
"o#	c #4A925E",
"p#	c #327247",
"q#	c #38784A",
"r#	c #31613A",
"s#	c #284829",
"t#	c #1F321A",
"u#	c #171F0F",
"v#	c #101307",
"w#	c #0A0C04",
"x#	c #060702",
"y#	c #509F67",
"z#	c #4A9560",
"A#	c #1F3E22",
"B#	c #386C41",
"C#	c #3E7E4D",
"D#	c #3F8351",
"E#	c #32673E",
"F#	c #4D9B65",
"G#	c #4E9D66",
"H#	c #4F9B65",
"I#	c #326941",
"J#	c #306039",
"K#	c #2B522F",
"L#	c #274627",
"M#	c #243B1F",
"N#	c #202E17",
"O#	c #181F0D",
"P#	c #090B03",
"Q#	c #30623D",
"R#	c #34693F",
"S#	c #3E8251",
"T#	c #418B57",
"U#	c #336E43",
"V#	c #3D7C50",
"W#	c #4F9D66",
"X#	c #438A57",
"Y#	c #366238",
"Z#	c #325933",
"`#	c #2A4A29",
" $	c #22371D",
".$	c #19220E",
"+$	c #111507",
"@$	c #0B0D04",
"#$	c #418D58",
"$$	c #43935D",
"%$	c #38764A",
"&$	c #3E7E51",
"*$	c #47915E",
"=$	c #3A6C40",
"-$	c #33552F",
";$	c #26391C",
">$	c #233016",
",$	c #1E250E",
"'$	c #171C09",
")$	c #0D0F05",
"!$	c #2D5D38",
"~$	c #438C58",
"{$	c #346C43",
"]$	c #2B5B39",
"^$	c #3A784B",
"/$	c #2E5631",
"($	c #2B4221",
"_$	c #2F411E",
":$	c #2A3516",
"<$	c #21270D",
"[$	c #191E09",
"}$	c #0F1206",
"|$	c #2E603B",
"1$	c #387649",
"2$	c #2E5B35",
"3$	c #325C34",
"4$	c #31522B",
"5$	c #2B3B19",
"6$	c #293414",
"7$	c #232B0E",
"8$	c #1C220A",
"9$	c #141808",
"0$	c #3A7A4C",
"a$	c #418C57",
"b$	c #346035",
"c$	c #2D4420",
"d$	c #2A3917",
"e$	c #283313",
"f$	c #252F10",
"g$	c #222A0D",
"h$	c #1F260B",
"i$	c #161A08",
"j$	c #030500",
"k$	c #3F8653",
"l$	c #35673B",
"m$	c #2B4622",
"n$	c #283B1A",
"o$	c #263616",
"p$	c #222E11",
"q$	c #21290E",
"r$	c #232A0F",
"s$	c #1D220B",
"t$	c #111407",
"u$	c #31653C",
"v$	c #2E5B33",
"w$	c #274A27",
"x$	c #203417",
"y$	c #20280E",
"z$	c #21280D",
"A$	c #131707",
"B$	c #080A03",
"C$	c #131E0B",
"D$	c #223416",
"E$	c #273B19",
"F$	c #2B421D",
"G$	c #2B3C19",
"H$	c #293413",
"I$	c #232C0F",
"J$	c #1A1F0A",
"K$	c #070902",
"L$	c #2C5431",
"M$	c #32643C",
"N$	c #34643A",
"O$	c #345D34",
"P$	c #31522C",
"Q$	c #2A4322",
"R$	c #25381A",
"S$	c #263315",
"T$	c #2D3817",
"U$	c #272F11",
"V$	c #1C210B",
"W$	c #3D7E4F",
"X$	c #42905B",
"Y$	c #3F8250",
"Z$	c #375B32",
"`$	c #344924",
" %	c #303B19",
".%	c #2C3514",
"+%	c #222A0E",
"@%	c #262F13",
"#%	c #2C3415",
"$%	c #0E1106",
"%%	c #346840",
"&%	c #4A9A63",
"*%	c #44945E",
"=%	c #408653",
"-%	c #3C7244",
";%	c #385D33",
">%	c #344824",
",%	c #2E3716",
"'%	c #262D0F",
")%	c #181D0A",
"!%	c #101308",
"~%	c #0E1105",
"{%	c #151A06",
"]%	c #0D1005",
"                  . + @ # $ % & * = - ; > , ' ) ! ! ! ! ! ! ! ! ! ! ! ! ! ! ! ! ! ! ! ! ! ! ! ! ! ! ! ! ! ! ! ! ! ! ! ! ! ! ! ! ",
"            ~ {       ] ^ / ( _ : < [ } | 1 ' ! ! ! ! ! ! ! ! ! ! ! ! ! ! ! ! ! ! ! ! ! ! ! ! ! ! ! ! ! ! ! ! ! ! ! ! ! ! ! ! ! ",
"            2 3 4 5 6 7 8 9 0 a b c d e f 1 ) ! ! ! ! ! ! ! ! ! ! ! ! ! ! ! ! ! ! ! ! ! ! ! ! ! ! ! ! ! ! ! ! ! ! ! ! ! ! ! ! ! ",
"    g     h i j k l m n o p q r s t u v w ) ! ! ! ! ! ! ! ! ! ! ! ! ! ! ! ! ! ! ! ! ! ! ! ! ! ! ! ! ! ! ! ! ! ! ! ! ! ! ! ! ! ! ",
"    x y z   A B C D E F G H I J K L M N 1 ' ! ! ! ! ! ! ! ! ! ! ! ! ! ! ! ! ! ! ! ! ! ! ! ! ! ! ! ! ! ! ! ! ! ! ! ! ! ! ! ! ! ! ",
"    O P ~     Q R S T U V W X Y Z `  ...1 ' ! ! ! ! ! ! ! ! ! ! ! ! ! ! ! ! ! ! ! ! ! ! ! ! ! ! ! ! ! ! ! ! ! ! ! ! ! ! ! ! ! ! ",
"    +.@.#.$.%.&.*.T =.-.;.>.,.'.).!.~.{.w ].! ! ! ! ! ! ! ! ! ! ! ! ! ! ! ! ! ! ! ! ! ! ! ! ! ! ! ! ! ! ! ! ! ! ! ! ! ! ! ! ! ! ",
"    ^./.(._.:.<.[.}.|.1.2.3.4.5.t 6.7...w ].! ! ! ! ! ! ! ! ! ! ! ! ! ! ! ! ! ! ! ! ! ! ! ! ! ! ! ! ! ! ! ! ! ! ! ! ! ! ! ! ! ! ",
"    8.9.0.a.b.c.d.e.f.g.h.i.j.k.l.m.n., ].) ! ! ! ! ! ! ! ! ! ! ! ! ! ! ! ! ! ! ! ! ! ! ! ! ! ! ! ! ! ! ! ! ! ! ! ! ! ! ! ! ! ! ",
"o.  ~ p.q.r.s.t.u.v.w.x.y.z.A.B.C.....w ].) ! ! ! ! ! ! ! ! ! ! ! ! ! ! ! ! ! ! ! ! ! ! ! ! ! ! ! ! ! ! ! ! ! ! ! ! ! ! ! ! ! ! ",
"D.  E.F.G.H.I.J.K.L.M.N.O.P.Q.b .., R.S.) ! ! ! ! ! ! ! ! ! ! ! ! ! ! ! ! ! ! ! ! ! ! ! ! ! ! ! ! ! ! ! ! ! ! ! ! ! ! ! ! ! ! ! ",
"T.U.V.W.X.Y.Z.`. +.+++m.@+{.#+..w ' ].]., R.! ! ! ! ! ! ! ! ! ! ! ! ! ! ! ! ! ! ! ! ! ! ! ! ! ! ! ! ! ! ! ! ! ! ! ! ! ! ! ! ! ! ",
"$+%+w.&+*+=+-+;+>+,+'+)+!+1 ].R.S.].! ! ]., w ~+! ! ! ! ! ! ! ! ! ! ! ! ! ! ! ! ! ! ! ! ! ! ! ! ! ! ! ! ! ! ! ! ! ! ! ! ! ! ! ! ",
"{+]+x.^+/+(+_+:+<+[+}+|+1 ].) ! ].! ! ! ! ].S.].) ! ! ! ! ! ! ! ! ! ! ! ! ! ! ! ! ! ! ! ! ! ! ! ! ! ! ! ! ! ! ! ! ! ! ! ! ! ! ! ",
"1+2+0 3+4+5+6+7+8+9+0+a+b+) ! ! ! ! ! ! ! ! ].].! ! ! ! ! ! ! ! ! ! ! ! ! ! ! ! ! ! ! ! ! ! ! ! ! ! ! ! ! ! ! ! ! ! ! ! ! ! ! ! ",
"c+d+a r e+f+g+h+i+j+b k+, S.! ! ! ! ! ! ! ! ! ) ! ! ! ! ! ! ! ! ! ! ! ! ! ! ! ! ! ! ! ! ! ! ! ! ! ! ! ! ! ! ! ! ! ! ! ! ! ! ! ! ",
"l+m+b s n+o+p+q+r+s+t+, w S.].! ! ! ! ! ! ! ! ! ! ! ! ! ! ! ! ! ! ! ! ! ! ! ! ! ! ! ! ! ! ! ! ! ! ! ! ! ! ! ! ! ! ! ! ! ! ! ! ! ",
"u+v+c w+x+y+z+A+B+C+D+w S.].! ! ! ! ! ! ! ! ! ! ! ! ! ! ! ! ! ! ! ! ! ! ! ! ! ! ! ! ! ! ! ! ! ! ! ! ! ! ! ! ! ! ! ! ! ! ! ! ! ! ",
"E+F+N u G+C.H+I+J+K+L+w ].! ! ! ! ! ! ! ! ! ! ! ! ! ! ! ! ! ! ! ! ! ! ! ! ! ! ! ! ! ! ! ! ! ! ! ! ! ! ! ! ! ! ! ! ! ! ! ! ! ! ! ",
"M+N+O+v {.D+P+Q+R+#+S+c ].! ! ! ! ! ! ! ! ! ! ! ! ! ! ! ! ! ! ! ! ! ! ! ! ! ! ! ! ! ! ! ! ! ! ! ! ! ! ! ! ! ! ! ! ! ! ! ! ! ! ! ",
"n.T+f w 1 U+R.V+N , W+c ' ! ! ! ! ! ! ! ! ! ! ! ! ! ! ! ! ! ! ! ! ! ! ! ! ! ! ! ! ! ! ! ! ! ! ! ! ! ! ! ! ! ! ! ! ! ! ! ! ! ! ! ",
", 1 1 ) ' ].].#+f w S.w w S.R.~+) ! ! ! ! ! ! ! ! ! ! ! ! ! ! ! ! ! ! ! ! ! ! ! ! ! ! ! ! ! ! ! ! ! ! ! ! ! ! ! ! ! ! ! ! ! ! ! ",
"' ' ) ! ! ! ! S., ].].].S.) ~+].].! ! ! ! ! ! ! ! ! ! ! ! ! ! ! ! ! ! ! ! ! ! ! ! ! ! ! ! ! ! ! ! ! ! ! ! ! ! ! ! ! ! ! ! ! ! ! ",
") ! ! ! ! ! ! ].].) ! ! ].! ].) ! ! ! ! ! ! ! ! ! ! ! ! ! ! ! ! ! ! ! ! ! ! ! ! ! ! ! ! ! ! ! ! ! ! ! ! ! ! ! ! ! ! ! ! ! ! ! ! ",
"! ! ! ! ! ! ! ! ) ! ! ! ! ! ! ! ! ! ! ! ! ! ! ! ! ! ! ! ! ! ! ! ! ! ! ! ! ! ! ! ! ! ! ! ! ! ! ! ! ! ! ! ! ! ! ! ! ! ! ! ! ! ! ! ",
"! ! ! ! ! ! ! ! ! ! ! ! ! ! ! ! ! ! ! ! ! ! ! ! ! ! ! ! ! ! ! ! ! ! ! ! ! ! ! ! ! ! ! ! ! ! ! ! ! ! ! ! ! ! ! ! ! ! ! ! ! ! ! ! ",
"! ! ! ! ! ! ! ! ! ! ! ! ! ! ! ! ! ! ! ! ! ! ! ! ! ! ! ! ! ! ! ! ! ! ! ! ! ! ! ! ! ! ! ! ! ! ! ! ! ! ! ! ! ! ! ! ! ! ! ! ! ! ! ! ",
"! ! ! ! ! ! ! ! ! ! ! ! ! ! ! ! ! ! ! ! ! ! ! ! ! ! ! ! ! ! ! ! ! ! ! ! ! ! ! ! ! ! ! ! ! ! ! ! ! ! ! ! ! ! ! ! ! ! ! ! ! ! ! ! ",
"! ! ! ! ! ! ! ! ! ! ! ! ! ! ! ! ! ! ! ! ! ! ! ! ! ! ! ! ! ! ! ! ! ! ! ! ! ! ! ! ! ! ! ! ! ! ! ! ! ! ! ! ! ! ! ! ! ! ! ! ! ! ! ! ",
"! ! ! ! ! ! ! ! ! ! ! ! ! ! ! ! ! ! ! ! ! ! ! ! ! ! ! ! ! ! ! ! ! ! ! ! ! ! ! ! ! ! ! ! ! ! ! ! ! ! ! ! ! ! ! ! ! ! ! ! ! ! ! ! ",
"! ! ! ! ! ! ! ! ! ! ! ! ! ! ! ! ! ! ! ! ! ! ! ! ! ! ! ! ! ! ! ! ! ! ! ! ! ! ! ! ! ! ! ! ! ! ! ! ! ! ! ! ! ! ! ! ! ! ! ! ! ! ! ! ",
"! ! ! ! ! ! ! ! ! ! ! ! ! ! ! ! ! ! ! ! ! ! ! ! ! ! ! ! ! ! ! ! ! ! ! ! ! ! ! ! ! ! ! ! ! ! ! ! ! ! ! ! ! ! ! ! ! ! ! ! ! ! ! ! ",
"! ! ! ! ! ! ! ! ! ! ! ! ! ! ! ! ! ! ! ! ! ! ! ! ! ! ! ! ! ! ! ! ! ! ! ! ! ! ! ! ! ! ! ! ! ! ! ! ! ! ! ! ! ! ! ! ! ! ! ! ! ! ! ! ",
"! ! ! ! ! ! ! ! ! ! ! ! ! ! ! ! ! ! ! ! ! ! ! ! ! ! ! ! ! ! ! ! ! ! ! ! ! ! ! ! ! ! ! ! ! ! ! ! ! ! ! ! ! ! ! ! ! ! ! ! ! ! ! ! ",
"! ! ! ! ! ! ! ! ! ! ! ! ! ! ! ! ! ! ! ! ! ! ! ! ! ! ! ! ! ! ! ! ! ! ! ! ! ! ! ! ! ! ! ! ! ! ! ! ! ! ! ! ! ! ! ! ! ! ! ! ! ! ! ! ",
"! ! ! ! ! ! ! ! ! ! ! ! ! ! ! ! ! ! ! ! ! ! ! ! ! ! ! ! ! ! ! ! ! ! ! ! ! ! ! ! ! ! ! ! ! ! ! ! ! ! ! ! ! ! ! ! ! ! ! ! ! ! ! ! ",
"! ! ! ! ! ! ! ! ! ! ! ) ].) ! ! ! ! ! ! ! ! ! ! ! ! ! ! ! ! ! ! ! ! ! ! ! ! ! ! ! ! ! ! ! ! ! ! ! ! ! ! ! ! ! ! ! ! ! ! ! ! ! ! ",
"! ! ! ! ! ! ! ! ! ! ! ! ].].].! ! ! ! ! ! ! ! ! ! ! ! ! ! ! ! ! ! ! ! ! ! ! ! ! ! ! ! ! ! ! ! ! ! ! ! ! ! ! ! ! ! ! ! ! ! ! ! ! ",
"! ! ! ! ! ! ! ! ! ! ! ! ! R.].! ! ! ! ! ! ! ! ! ! ! ! ! ! ! ! ! ! ! ! ! ! ! ! ! ! ! ! ! ! ! ! ! ! ! ! ! ! ! ! ! ! ! ! ! ! ! ! ! ",
") ! ! ! ! ! ! ! ) ) ) ) ].R.U+].! ! ! ! ! ! ! ! ! ! ! ! ! ! ! ! ! ! ! ! ! ! ! ! ! ! ! ! ! ! ! ! ! ! ! ! ! ! ! ! ! ! ! ! ! ! ! ! ",
"X+1 ! ! ) ) ) ) ' ' ' 1 w w Y+S.) ! ! ! ! ! ! ! ! ! ! ! ! ! ! ! ! ! ! ! ! ! ! ! ! ! ! ! ! ! ! ! ! ! ! ! ! ! ! ! ! ! ! ! ! ! ! ! ",
"Z+`+X+].' ' '  @, .@+@f @@S+Y+#@) ! ! ! ! ! ! ! ! ! ! ! ! ! ! ! ! ! ! ! ! ! ! ! ! ! ! ! ! ! ! ! ! ! ! ! ! ! ! ! ! ! ! ! ! ! ! ! ",
"$@%@&@d c ..c #+`+*@`+`+=@-@;@>@S.! ! ! ! ! ! ! ! ! ! ! ! ! ! ! ! ! ! ! ! ! ! ! ! ! ! ! ! ! ! ! ! ! ! ! ! ! ! ! ! ! ! ! ! ! ! ! ",
",@'@)@!@e ~@{@]@^@= /@(@_@`+:@<@[@) ! ! ! ! ! ! ! ! ! ! ! ! ! ! ! ! ! ! ! ! ! ! ! ! ! ! ! ! ! ! ! ! ! ! ! ! ! ! ! ! ! ! ! ! ! ! ",
"}@|@1@'@2@= - 3@4@5@6@$@7@8@9@0@a@S.! ! ! ! ! ! ! ! ! ! ! ! ! ! ! ! ! ! ! ! ! ! ! ! ! ! ! ! ! ! ! ! ! ! ! ! ! ! ! ! ! ! ! ! ! ! ",
"b@c@d@e@'@f@g@< ,@h@i@j@k@l@m@n@<@#@o@! ! ! ! ! ! ! ! ! ! ! ! ! ! ! ! ! ! ! ! ! ! ! ! ! ! ! ! ! ! ! ! ! ! ! ! ! ! ! ! ! ! ! ! ! ",
"p@p@q@r@s@t@d@u@v@w@x@y@z@A@B@C@<@>@[@) ! ! ! ! ! ! ! ! ! ! ! ! ! ! ! ! ! ! ! ! ! ! ! ! ! ! ! ! ! ! ! ! ! ! ! ! ! ! ! ! ! ! ! ! ",
"D@D@D@E@F@G@H@I@J@K@L@M@N@O@P@Q@R@S@>@[@o@! ! ! ! ! ! ! ! ! ! ! ! ! ! ! ! ! ! ! ! ! ! ! ! ! ! ! ! ! ! ! ! ! ! ! ! ! ! ! ! ! ! ! ",
"T@T@T@U@V@W@p@X@Y@Z@`@ #.#+#@###$#%#<@>@[@o@! ! ! ! ! ! ! ! ! ! ! ! ! ! ! ! ! ! ! ! ! ! ! ! ! ! ! ! ! ! ! ! ! ! ! ! ! ! ! ! ! ! ",
"&#*#*#=#-#;#&#>#,#'#)#!#~#{#]#^#/#(#9@_#w S.~+) ! ! ! ! ! ! ! ! ! ! ! ! ! ! ! ! ! ! ! ! ! ! ! ! ! ! ! ! ! ! ! ! ! ! ! ! ! ! ! ! ",
":#<#[#}#|#1#2#3#4#5#6#7#8#9#0#a#b#c#d#.@S+w ].! ! ! ! ! ! ! ! ! ! ! ! ! ! ! ! ! ! ! ! ! ! ! ! ! ! ! ! ! ! ! ! ! ! ! ! ! ! ! ! ! ",
"e#f#g#h#3#i#j#k#l#m#n#o#p#q#r#s#t#u#v#w#x#, ' ) ! ! ! ! ! ! ! ! ! ! ! ! ! ! ! ! ! ! ! ! ! ! ! ! ! ! ! ! ! ! ! ! ! ! ! ! ! ! ! ! ",
"y#z#A#  B#C#D#E#  F#G#H#I#J#K#L#M#N#O#(@P#@@R.) ! ! ! ! ! ! ! ! ! ! ! ! ! ! ! ! ! ! ! ! ! ! ! ! ! ! ! ! ! ! ! ! ! ! ! ! ! ! ! ! ",
"Q#      R#S#T#U#  V#G#W#n#X#Y#Z#`# $.$+$@$f w ) ! ! ! ! ! ! ! ! ! ! ! ! ! ! ! ! ! ! ! ! ! ! ! ! ! ! ! ! ! ! ! ! ! ! ! ! ! ! ! ! ",
"          #$$$%$    &$*$m#5#=$-$;$>$j@,$'$)$+@].! ! ! ! ! ! ! ! ! ! ! ! ! ! ! ! ! ! ! ! ! ! ! ! ! ! ! ! ! ! ! ! ! ! ! ! ! ! ! ! ",
"          !$~${$        ]$^$/$($_$:$<$[$}$.@w ) ) ! ! ! ! ! ! ! ! ! ! ! ! ! ! ! ! ! ! ! ! ! ! ! ! ! ! ! ! ! ! ! ! ! ! ! ! ! ! ! ",
"                    |$1$2$3$4$5$6$7$8$9${@S+' ) ! ! ! ! ! ! ! ! ! ! ! ! ! ! ! ! ! ! ! ! ! ! ! ! ! ! ! ! ! ! ! ! ! ! ! ! ! ! ! ! ",
"                    0$a$b$c$d$e$f$g$h$i$@$j$' ) ! ! ! ! ! ! ! ! ! ! ! ! ! ! ! ! ! ! ! ! ! ! ! ! ! ! ! ! ! ! ! ! ! ! ! ! ! ! ! ! ",
"                      k$l$m$n$o$p$q$r$s$t$#+) ! ! ! ! ! ! ! ! ! ! ! ! ! ! ! ! ! ! ! ! ! ! ! ! ! ! ! ! ! ! ! ! ! ! ! ! ! ! ! ! ! ",
"                        u$v$w$x$y$z$8$A$B$, ' ! ! ! ! ! ! ! ! ! ! ! ! ! ! ! ! ! ! ! ! ! ! ! ! ! ! ! ! ! ! ! ! ! ! ! ! ! ! ! ! ! ",
"                        C$D$E$F$G$H$I$J$/@K$1 ) ! ! ! ! ! ! ! ! ! ! ! ! ! ! ! ! ! ! ! ! ! ! ! ! ! ! ! ! ! ! ! ! ! ! ! ! ! ! ! ! ",
"                    L$M$N$O$P$Q$R$S$T$U$V$v#T+1 ].! ! ! ! ! ! ! ! ! ! ! ! ! ! ! ! ! ! ! ! ! ! ! ! ! ! ! ! ! ! ! ! ! ! ! ! ! ! ! ",
"                  W$X$Y$i#Z$`$ %.%+%)@@%#%= $%X+' ) ! ! ! ! ! ! ! ! ! ! ! ! ! ! ! ! ! ! ! ! ! ! ! ! ! ! ! ! ! ! ! ! ! ! ! ! ! ! ",
"                %%&%*%=%-%;%>%,%'%'@)%!%~%{%]%X+].! ! ! ! ! ! ! ! ! ! ! ! ! ! ! ! ! ! ! ! ! ! ! ! ! ! ! ! ! ! ! ! ! ! ! ! ! ! ! "};
