/* XPM */
static char * corner_tjunc_b_xpm[] = {
"64 64 619 2",
"  	c None",
". 	c #000000",
"+ 	c #000100",
"@ 	c #010100",
"# 	c #020301",
"$ 	c #060702",
"% 	c #010200",
"& 	c #020201",
"* 	c #0A0C04",
"= 	c #141808",
"- 	c #040501",
"; 	c #020200",
"> 	c #020300",
", 	c #070803",
"' 	c #1D240E",
") 	c #020401",
"! 	c #040602",
"~ 	c #030603",
"{ 	c #010201",
"] 	c #030401",
"^ 	c #070903",
"/ 	c #101306",
"( 	c #1D230D",
"_ 	c #1E2911",
": 	c #080A04",
"< 	c #090C05",
"[ 	c #090C04",
"} 	c #0D1007",
"| 	c #090B04",
"1 	c #010300",
"2 	c #040502",
"3 	c #050602",
"4 	c #050502",
"5 	c #020402",
"6 	c #060803",
"7 	c #0B0D04",
"8 	c #121607",
"9 	c #1A200A",
"0 	c #2A3719",
"a 	c #182510",
"b 	c #0F1107",
"c 	c #111408",
"d 	c #131709",
"e 	c #121608",
"f 	c #101308",
"g 	c #181C0A",
"h 	c #141709",
"i 	c #0E1007",
"j 	c #030501",
"k 	c #050702",
"l 	c #040601",
"m 	c #131607",
"n 	c #080903",
"o 	c #070802",
"p 	c #040603",
"q 	c #030604",
"r 	c #090C03",
"s 	c #171C09",
"t 	c #1F250D",
"u 	c #2A3416",
"v 	c #2E4825",
"w 	c #131909",
"x 	c #1A1F0B",
"y 	c #1D220B",
"z 	c #1C210B",
"A 	c #1B210B",
"B 	c #23290E",
"C 	c #1F250C",
"D 	c #131608",
"E 	c #111508",
"F 	c #0A0D05",
"G 	c #0B0E05",
"H 	c #1E240C",
"I 	c #111406",
"J 	c #0B0E04",
"K 	c #050703",
"L 	c #040905",
"M 	c #010302",
"N 	c #060703",
"O 	c #101507",
"P 	c #202710",
"Q 	c #262D12",
"R 	c #2C3819",
"S 	c #334D28",
"T 	c #284726",
"U 	c #232A0E",
"V 	c #242B0E",
"W 	c #242C0F",
"X 	c #252C0F",
"Y 	c #262D0F",
"Z 	c #2D3514",
"` 	c #262D10",
" .	c #151908",
"..	c #151909",
"+.	c #151808",
"@.	c #242C11",
"#.	c #181C09",
"$.	c #101406",
"%.	c #0C0F05",
"&.	c #060904",
"*.	c #060C07",
"=.	c #020503",
"-.	c #080A03",
";.	c #19200D",
">.	c #293619",
",.	c #2E3F1E",
"'.	c #334E29",
").	c #38663A",
"!.	c #243D20",
"~.	c #2B3413",
"{.	c #2C3413",
"].	c #2E3615",
"^.	c #323D1B",
"/.	c #303A19",
"(.	c #282F11",
"_.	c #2A3112",
":.	c #293113",
"<.	c #20260C",
"[.	c #1D230B",
"}.	c #242D13",
"|.	c #1E2C14",
"1.	c #202811",
"2.	c #171B0A",
"3.	c #090E07",
"4.	c #070E08",
"5.	c #000101",
"6.	c #0E1206",
"7.	c #151A09",
"8.	c #203118",
"9.	c #23371C",
"0.	c #26361A",
"a.	c #314824",
"b.	c #35552D",
"c.	c #3A6A3D",
"d.	c #3B7748",
"e.	c #294324",
"f.	c #303918",
"g.	c #313C1A",
"h.	c #313B19",
"i.	c #33421F",
"j.	c #313D1B",
"k.	c #2F3716",
"l.	c #252C10",
"m.	c #2F3919",
"n.	c #252C0E",
"o.	c #2C3717",
"p.	c #263317",
"q.	c #274425",
"r.	c #25391D",
"s.	c #1D2713",
"t.	c #161F0F",
"u.	c #0D170B",
"v.	c #071008",
"w.	c #121C0D",
"x.	c #192A16",
"y.	c #234529",
"z.	c #2C5A37",
"A.	c #31623B",
"B.	c #264022",
"C.	c #31502B",
"D.	c #376136",
"E.	c #3B7143",
"F.	c #3E804F",
"G.	c #3F8754",
"H.	c #2E5E39",
"I.	c #2E3B1B",
"J.	c #334723",
"K.	c #323F1D",
"L.	c #252D12",
"M.	c #32401D",
"N.	c #2F3817",
"O.	c #324622",
"P.	c #283B1D",
"Q.	c #2F5631",
"R.	c #254426",
"S.	c #24391E",
"T.	c #1C2E19",
"U.	c #132313",
"V.	c #0E1D12",
"W.	c #09150D",
"X.	c #040804",
"Y.	c #0E1308",
"Z.	c #142414",
"`.	c #1C3B24",
" +	c #234D30",
".+	c #2B5E3B",
"++	c #336F46",
"@+	c #387B4E",
"#+	c #376C40",
"$+	c #2C4E2B",
"%+	c #335E35",
"&+	c #3D7848",
"*+	c #3F8250",
"=+	c #418B57",
"-+	c #43935E",
";+	c #38764A",
">+	c #314321",
",+	c #334622",
"'+	c #344B26",
")+	c #344A25",
"!+	c #283719",
"~+	c #334421",
"{+	c #324522",
"]+	c #2D4624",
"^+	c #33562F",
"/+	c #356339",
"(+	c #244829",
"_+	c #2B4E2C",
":+	c #244226",
"<+	c #19311C",
"[+	c #132818",
"}+	c #0D1B11",
"|+	c #060D07",
"1+	c #0E1208",
"2+	c #131D0F",
"3+	c #19301C",
"4+	c #224B2F",
"5+	c #295A39",
"6+	c #2F653F",
"7+	c #357146",
"8+	c #408756",
"9+	c #428D59",
"0+	c #3D7E4D",
"a+	c #2F5D38",
"b+	c #396E43",
"c+	c #387145",
"d+	c #3F8654",
"e+	c #408855",
"f+	c #2E5A36",
"g+	c #354E28",
"h+	c #344C27",
"i+	c #324D29",
"j+	c #304925",
"k+	c #354D27",
"l+	c #355730",
"m+	c #2E542F",
"n+	c #3A6C3F",
"o+	c #38673C",
"p+	c #2B5532",
"q+	c #24482B",
"r+	c #17331E",
"s+	c #122917",
"t+	c #0E1D10",
"u+	c #091109",
"v+	c #030502",
"w+	c #010101",
"x+	c #0A0D04",
"y+	c #121B0E",
"z+	c #172715",
"A+	c #1E3A22",
"B+	c #275636",
"C+	c #2E643F",
"D+	c #357147",
"E+	c #3E8354",
"F+	c #47905D",
"G+	c #4A9761",
"H+	c #45925D",
"I+	c #336840",
"J+	c #499660",
"K+	c #4A955F",
"L+	c #418353",
"M+	c #408353",
"N+	c #488B58",
"O+	c #3A643A",
"P+	c #35502A",
"Q+	c #447D4E",
"R+	c #35522C",
"S+	c #325B34",
"T+	c #375D33",
"U+	c #375C33",
"V+	c #386036",
"W+	c #39693D",
"X+	c #3D7C4E",
"Y+	c #499761",
"Z+	c #448C58",
"`+	c #428151",
" @	c #214B2D",
".@	c #2C613C",
"+@	c #2B5634",
"@@	c #213D23",
"#@	c #182815",
"$@	c #11180C",
"%@	c #0B0E06",
"&@	c #0F1408",
"*@	c #172615",
"=@	c #1C351E",
"-@	c #23482C",
";@	c #2E633F",
">@	c #357047",
",@	c #3E7E51",
"'@	c #4F9260",
")@	c #509964",
"!@	c #4C9A64",
"~@	c #438A58",
"{@	c #284E2C",
"]@	c #3A7C4D",
"^@	c #489660",
"/@	c #4D9C65",
"(@	c #55A26A",
"_@	c #60A970",
":@	c #5AA46C",
"<@	c #519460",
"[@	c #54A26A",
"}@	c #4B9761",
"|@	c #3A7245",
"1@	c #1B3B21",
"2@	c #3B6F41",
"3@	c #3C7546",
"4@	c #34673D",
"5@	c #3F8153",
"6@	c #509E67",
"7@	c #4A925E",
"8@	c #327247",
"9@	c #38784A",
"0@	c #31613A",
"a@	c #284829",
"b@	c #1F321A",
"c@	c #171F0F",
"d@	c #101307",
"e@	c #141F0F",
"f@	c #1C331D",
"g@	c #224327",
"h@	c #2A5837",
"i@	c #367148",
"j@	c #3E7F52",
"k@	c #4C8F5E",
"l@	c #5EA06A",
"m@	c #529C66",
"n@	c #4E9B64",
"o@	c #32653E",
"p@	c #315932",
"q@	c #34653B",
"r@	c #377548",
"s@	c #489760",
"t@	c #4C9B64",
"u@	c #58A46C",
"v@	c #56A36B",
"w@	c #55A26B",
"x@	c #509F67",
"y@	c #4A9560",
"z@	c #1F3E22",
"A@	c #386C41",
"B@	c #3E7E4D",
"C@	c #3F8351",
"D@	c #32673E",
"E@	c #4D9B65",
"F@	c #4E9D66",
"G@	c #4F9B65",
"H@	c #326941",
"I@	c #306039",
"J@	c #2B522F",
"K@	c #274627",
"L@	c #243B1F",
"M@	c #202E17",
"N@	c #181F0D",
"O@	c #090B03",
"P@	c #0E1105",
"Q@	c #1B2B17",
"R@	c #224025",
"S@	c #285232",
"T@	c #306842",
"U@	c #3A7A4E",
"V@	c #458959",
"W@	c #4D9360",
"X@	c #559D68",
"Y@	c #529E67",
"Z@	c #3C7B4E",
"`@	c #3A7647",
" #	c #3D7747",
".#	c #3E7F4E",
"+#	c #294F2D",
"@#	c #2F633D",
"##	c #46935E",
"$#	c #4F9E66",
"%#	c #4F9E67",
"&#	c #30623D",
"*#	c #34693F",
"=#	c #3E8251",
"-#	c #336E43",
";#	c #3D7C50",
">#	c #4F9D66",
",#	c #438A57",
"'#	c #366238",
")#	c #325933",
"!#	c #2A4A29",
"~#	c #22371D",
"{#	c #19220E",
"]#	c #111507",
"^#	c #0F1306",
"/#	c #1F341C",
"(#	c #285030",
"_#	c #30653F",
":#	c #408455",
"<#	c #438B59",
"[#	c #48935F",
"}#	c #4E9A64",
"|#	c #448A58",
"1#	c #26391D",
"2#	c #2D5834",
"3#	c #377347",
"4#	c #408A56",
"5#	c #244E2F",
"6#	c #438857",
"7#	c #48905D",
"8#	c #3C794D",
"9#	c #418D58",
"0#	c #43935D",
"a#	c #47915E",
"b#	c #3A6C40",
"c#	c #33552F",
"d#	c #26391C",
"e#	c #233016",
"f#	c #1E250E",
"g#	c #0D0F05",
"h#	c #111506",
"i#	c #1E311A",
"j#	c #2D5E3A",
"k#	c #3D8152",
"l#	c #428A58",
"m#	c #448F5C",
"n#	c #47935F",
"o#	c #3E7D4F",
"p#	c #2D5D37",
"q#	c #2A3113",
"r#	c #324320",
"s#	c #314C27",
"t#	c #2D522E",
"u#	c #274827",
"v#	c #214023",
"w#	c #2D5D38",
"x#	c #438C58",
"y#	c #346C43",
"z#	c #2B5B39",
"A#	c #3A784B",
"B#	c #2E5631",
"C#	c #2B4221",
"D#	c #2F411E",
"E#	c #2A3516",
"F#	c #21270D",
"G#	c #191E09",
"H#	c #0F1206",
"I#	c #1D230C",
"J#	c #262F13",
"K#	c #284224",
"L#	c #377448",
"M#	c #3B7A4D",
"N#	c #356B41",
"O#	c #3D8452",
"P#	c #3F8855",
"Q#	c #233216",
"R#	c #344D27",
"S#	c #386035",
"T#	c #3B7142",
"U#	c #3E804E",
"V#	c #306B42",
"W#	c #2E603B",
"X#	c #387649",
"Y#	c #2E5B35",
"Z#	c #325C34",
"`#	c #31522B",
" $	c #2B3B19",
".$	c #293414",
"+$	c #232B0E",
"@$	c #1C220A",
"#$	c #121507",
"$$	c #1B200A",
"%$	c #242B0F",
"&$	c #2D3A1A",
"*$	c #2E4624",
"=$	c #294D2B",
"-$	c #3D814F",
";$	c #41915B",
">$	c #42905B",
",$	c #2D5A36",
"'$	c #334320",
")$	c #35512A",
"!$	c #386136",
"~$	c #3B7243",
"{$	c #3F8350",
"]$	c #39794C",
"^$	c #3A7A4C",
"/$	c #418C57",
"($	c #346035",
"_$	c #2D4420",
":$	c #2A3917",
"<$	c #283313",
"[$	c #252F10",
"}$	c #222A0D",
"|$	c #1F260B",
"1$	c #161A08",
"2$	c #030500",
"3$	c #171B08",
"4$	c #1E240B",
"5$	c #2C3415",
"6$	c #314622",
"7$	c #365C33",
"8$	c #2E5731",
"9$	c #3D8552",
"0$	c #41905A",
"a$	c #367649",
"b$	c #2F4B27",
"c$	c #365E34",
"d$	c #3B6E40",
"e$	c #3C7848",
"f$	c #3A7A4B",
"g$	c #326D43",
"h$	c #3F8653",
"i$	c #35673B",
"j$	c #2B4622",
"k$	c #283B1A",
"l$	c #263616",
"m$	c #222E11",
"n$	c #21290E",
"o$	c #232A0F",
"p$	c #111407",
"q$	c #181D09",
"r$	c #2C3616",
"s$	c #303C1B",
"t$	c #334924",
"u$	c #365A31",
"v$	c #305D36",
"w$	c #3E8452",
"x$	c #38794C",
"y$	c #325F37",
"z$	c #336A40",
"A$	c #336F45",
"B$	c #38794D",
"C$	c #295A38",
"D$	c #31653C",
"E$	c #2E5B33",
"F$	c #274A27",
"G$	c #203417",
"H$	c #20280E",
"I$	c #21280D",
"J$	c #131707",
"K$	c #0A0D03",
"L$	c #1A1F0A",
"M$	c #273417",
"N$	c #324B26",
"O$	c #36582F",
"P$	c #386337",
"Q$	c #3C7243",
"R$	c #3E8150",
"S$	c #32643C",
"T$	c #396D40",
"U$	c #45945E",
"V$	c #295432",
"W$	c #131E0B",
"X$	c #223416",
"Y$	c #273B19",
"Z$	c #2B421D",
"`$	c #2B3C19",
" %	c #293413",
".%	c #232C0F",
"+%	c #070902",
"@%	c #161B07",
"#%	c #191F0A",
"$%	c #151C09",
"%%	c #284525",
"&%	c #3A6D3F",
"*%	c #3D7B4A",
"=%	c #408955",
"-%	c #32673F",
";%	c #3C7849",
">%	c #377447",
",%	c #347046",
"'%	c #2C5431",
")%	c #34643A",
"!%	c #345D34",
"~%	c #31522C",
"{%	c #2A4322",
"]%	c #25381A",
"^%	c #263315",
"/%	c #2D3817",
"(%	c #272F11",
"_%	c #060802",
":%	c #080B04",
"<%	c #0E1107",
"[%	c #1D220C",
"}%	c #203318",
"|%	c #377245",
"1%	c #418E59",
"2%	c #3C7F4F",
"3%	c #336A41",
"4%	c #3D7E4F",
"5%	c #375B32",
"6%	c #344924",
"7%	c #303B19",
"8%	c #2C3514",
"9%	c #222A0E",
"0%	c #0E1106",
"a%	c #0D1006",
"b%	c #1C230E",
"c%	c #191E0A",
"d%	c #20270D",
"e%	c #2C4827",
"f%	c #346F45",
"g%	c #357347",
"h%	c #346840",
"i%	c #4A9A63",
"j%	c #44945E",
"k%	c #408653",
"l%	c #3C7244",
"m%	c #385D33",
"n%	c #344824",
"o%	c #2E3716",
"p%	c #181D0A",
"q%	c #151A06",
"r%	c #0D1005",
"s%	c #0F1207",
"t%	c #161A0A",
"u%	c #20260D",
"v%	c #2A3212",
"w%	c #35532C",
"x%	c #355E35",
"y%	c #34663D",
"z%	c #367347",
"A%	c #3A7A4D",
"B%	c #387449",
". . . . . . . . . . . . . . . . . . . . . . . . . . . . . . . . . . . . . . . . . . . . . . . . . . . . . . . . . . . . . . . . ",
". . . . . . . . . . . . . . . . . . . . . . . . . . . . . . . . . . . . . . . . . . . . . . . . . . . . . . . . . . . . . . . . ",
". . . . . . . . . . . . . . . . . . . . . . . . . . . . . . . . . . . . . . . . . . . . . . . . . . . . . . . . . . . . . . . . ",
". . . . . . . . . . . . . . . . . . . . . . . . . . . . . . . . . . . . . . . . . . . . . . . . . . . . . . . . . . . . . . . . ",
". . . . . . . . . . . . . . . . . . . . . . . . . . . . . . . . . . . . . . . . . . . . . . . . . . . . . . . . . . . . . . . . ",
". . . . . . . . . . . . . . . . . . . . . . . . . . . . . . . . . . . . . . . . . . . . . . . . . . . . . . . . . . . . . . . . ",
". . . . . . . . . . . . . . . . . . . . . . . . . . . . . . . . . . . . . . . . . . . . . . . . . . . . . . . . . . . . . . . . ",
". . . . . . . . . . . . . . . . . . . . . . . . . . . . . . . . . . . . . . . . . . . . . . . . . . . . . . . . . . . . . . . . ",
". . . . . . . . . . . . . . . . . . . . . . . . . . . . . . . . . . . . . . . . . . . . . . . . . . . . . . . . . . . . . . . . ",
". . . . . . . . . . . . . . . . . . . . . . . . . . . . . . . . . . . . . . . . . . . . . . . . . . . . . . . . . . . . . . . . ",
". . . . . . . . . . . . . . . . . . . . . . . . . . . . . . . . . . . . . . . . . . . . . . . . . . . . . . . . . . . . . . . . ",
". . . . . . . . . . . . . . . . . . . . . . . . . . . . . . . . . . . . . . . . . . . . . . . . . . . . . . . . . . . . . . . . ",
". . . . . . . . . . . . . . . . . . . . . . . . . . . . . . . . . . . . . . . . . . . . . . . . . . . . . . . . . . . . . . . . ",
". . . . . . . . . . . . . . . . . . . . . . . . . . . . . . . . . . . . . . . . . . . . . . . . . . . . . . . . . . . . . . . . ",
". . . . . . . . . . . . . . . . . . . . . . . . . . . . . . . . . . . . . . . . . . . . . . . . . . . . . . . . . . . . . . . . ",
". . . . . . . . . . . . . . . . . . . . . . . . . . . . . . . . . . . . . . . . . . . . . . . . . . . . . . . . . . . . . . . . ",
". . . . . . . . . . . . . . . . . . . . . . . . . . . . . . . . . . . . . . . . . . . . . . . . . . . . . . . . . . . . . . . . ",
". . . . . . . . . . . . . . . . . . . . . . . . . . . . . . . . . . . . . . . . . . . . . . . . . . . . . . . . . . . . . . . . ",
". . . . . . . . . . . . . . . . . . . . . . . . . . . . . . . . . . . . . . . . . . . . . . . . . . . . . . . . . . . . . . . . ",
". . . . . . . . . . . . . . . . . . . . . . . . . . . . . . . . . . . . . . . . . . . . . . . . . . . . . . . . . . . . . . . . ",
". . . . . . . . . . . . . . . . . . . . . . . . . . . . . . . . . . . . . . . . . . . . . . . . . . . . . . . . . . . . . . . . ",
". . . . . . . . . . . . . . . . . . . . . . . . . . . . . . . . . . . . . . . . . . . . . . . . . . . . . . . . . . . . . . . . ",
". . . . . . . . . . . . . . . . . . . . . . . . . . . . . . . . . . . . . . . . . . . . . . . . . . . . . . . . . . . . . . . . ",
". . . . . . . . . . . . . . . . . . . . . . . . . . . . . . . . . . . . . . . . . . . . . . . . . . . . . . . . . . . . . . . . ",
". . . . . . . . . . . . . . . . . . . . . . . . . . . . . . . . . . . . . . . . . . . . . . . . . . . . . . . . . . . . . . . . ",
". . . . . . . . . . . . . . . . . . . . . . . . . . . . . . . . . . . . . . . . . . . . . . . . . . . . . . . . . . . . . . . . ",
". . . . . . . . . . . . . . . . . . . . . . . . . . . . . . . . . . . . . . . . . . . . . . . . . . . . . . . . . . . . . . . . ",
". . . . . . . . . . . . . . . . . . . . . . . . . . . . . . . . . . . . . . . . . . . . . . . . . . . . . . . . . . . . . . . . ",
". . . . . . . . . . . . . . . . . . . . . . . . . . . . . . . . . . . . . . . . . . . . . . . . . . . . . . . . . . . . . . . . ",
". . . . . . . . . . . . . . . . . . . . . . . . . . . . . . . . + + + + + + . . . . . . . . . . . . . . . . . . . . . . . . . . ",
". . . . . . . . . . . . . . . . . . . . . . . . . . . . . . . . + + + + + + + + . . . . . . . . . . . . . . . . . . . . . . . . ",
". . . . . . . . . . . . . . . . . . . . . . . . . . . . . . . . + + + + + + + + + . . . . . . . . . . . . . . . . . . . . . . . ",
". . . . . . . . . . . . . . . . . . . . . . . . . . . . . . . . + + + + + + + + + + . . . . . . . . . . . . . . . . . . . . . . ",
". . . . . . . . . . . . . . . . . . . . . . . . . . . . . . . . + + + + + + + + + + . . . . . . . . . . . . . . . . . . . . . . ",
". . . . . . . . . . . . . . . . . . . . . . . . . . . . . . . . + + + + + + + + + + + . . . . . . . . . . . . . . . . . . . . . ",
". . . . . . . . . . . . . . . . . . . . . . . . . . . . . . . . + + + + + + + + + + + . . . . . . . . . . . . . . . . . . . . . ",
". . . . . . . . . . . + @ + . . . . . . . . . . . . . . . . . . + + + + + + + + + + + . . . . . . . . . . . . . . . . . . . . . ",
". . . . . . . . . . . . @ @ @ . . . . . . . . . . . . . . . . . + + + + + + + + + + + . . . . . . . + # $ % . . . . . . . . . . ",
". . . . . . . . . . . . . & @ . . . . . . . . . . . . . . . . . + + + + + + + + + + + . . . . . . + + # * = - . . . . . . . . . ",
"+ . . . . . . . + + + + @ & ; @ . . . . . . . . . . . . . . . . + + + + + + + + + + + . . . . . . + @ > , = ' ) . . @ > ) # > % ",
"! > . . + + + + % % % > # # ~ { + . . . . . . . . . . . . . . . + + + + + + + + + + . . . . . . + + % ] ^ / ( _ @ ] $ : < [ : ^ ",
"} | ! @ % % % 1 ] , 2 3 4 - ~ 5 + . . . . . . . . . . . . . . . + + + + + + + + + + . . . . . . . @ ] 6 7 8 9 0 a * b c d d e f ",
"g h i ^ j k j l | m | | n o p q { . . . . . . . . . . . . . . . + + + + + + + + + . . . . . . . + @ # r = s t u v w x y z y y A ",
"B C x D [ E F G e H I / J | K L M + . . . . . . . . . . . . . . + + + + + + + + . . . . . . + + % # 2 N O P Q R S T U V W X Y Y ",
"Z ` U C  .H ..+.A @.#.g $.%.&.*.=.{ . . . . . . . . . . . . . . + + + + + + + . . . . . . + @ { ] k -.%.$.;.>.,.'.).!.~.{.Z ].].",
"^./.(._.C :.<.[.B }.|.1.2.c 3.4.L 5 5.. . . . . . . . . . . . . . . + . . . . . . . . . + @ & 2 6 * 6.7.8.9.0.a.b.c.d.e.f.g.g.h.",
"i.i.j.k.l.m.(.n.o.p.q.r.s.t.u.v.L q M + . . . . . . . . . . . . . . + . . . . . . . . + @ & 2 , J w.x.y.z.A.B.C.D.E.F.G.H.I.i.j.",
"J.J.J.K.L.M.f.N.O.P.Q.R.S.T.U.V.W.X.q M 5.. . . . . . . . . . . . . + . . . . . . . + @ & 3 | Y.Z.`. +.+++@+#+$+%+&+*+=+-+;+>+,+",
"'+'+'+)+!+~+i.{+]+^+/+(+_+:+<+[+}+|+L q M 5.. . . . . . . . . . . . + . . . . . . + + { ] , 1+2+3+4+5+6+7+8+9+0+a+b+c+d+e+f+)+'+",
"g+h+h+i+j+k+g+l+m+n+o+p+a+q+r+s+t+u+&.v+# { w++ . . . . . . . . . . + . . . . . . + @ # 3 x+y+z+A+B+C+D+E+F+G+H+I+J+K+L+M+N+O+P+",
"Q+P+R+S+T+U+V+W+X+Y+Z+`+ @.@+@@@#@$@%@, - # @ . . . . . . . . . . . . + . . . . + + & 2 ^ &@*@=@-@;@>@,@'@)@!@~@{@]@^@/@(@_@:@<@",
"[@}@|@1@W+2@3@4@5@/@6@7@8@9@0@a@b@c@d@* $ ] % + . . . . . . . . . . . + . . . . + % ] N x+e@f@g@h@i@j@k@l@m@n@o@p@q@r@s@t@u@v@w@",
"x@y@z@  A@B@C@D@  E@F@G@H@I@J@K@L@M@N@/ O@4 & + . . . . . . . . . . . + + . . . @ ; 2 -.P@Q@R@S@T@U@V@W@X@Y@Z@`@ #.#+#@###$#$#%#",
"&#      *#=#=+-#  ;#F@>#6@,#'#)#!#~#{#]#7 3 # + . . . . . . . . . . . . . . . + . + % 3 ^#/#(#_#U@:#<#[#}#|#1#2#3#4#    5#6#7#8#",
"          9#0#;+    ,@a#/@Y+b#c#d#e#1.f#s g#2 @ . . . . . . . . . . . . . . . . . . + ) | h#i#j#k#l#m#n#o#p#q#r#s#t#u#v#        ",
"          w#x#y#        z#A#B#C#D#E#F#G#H#, # + + . . . . . . . . . . . . . . . . . + ] : ]#I#J#K#L#M#N#O#P#Q#g.R#S#T#U#4#V#    ",
"                    W#X#Y#Z#`# $.$+$@$= F - % + . . . . . . . . . . . . . . . . . . @ - * #$$$%$&$*$=$-$;$>$,$'$)$!$~${$>$]$    ",
"                    ^$/$($_$:$<$[$}$|$1$7 2$% + . . . . . . . . . . . . . . . . . + > $ %.3$4$X 5$6$7$8$9$0$a$b$c$d$e$f$g$      ",
"                      h$i$j$k$l$m$n$o$y p$l + . . . . . . . . . . . . . . . . . . + > g#q$G#(.r$s$t$u$T#v$w$x$y$z$A$B$C$        ",
"                        D$E$F$G$H$I$@$J$-.] % . . . . . . . . . . . . . . . . . . . + > K$p$L$M$N$O$P$Q$R$S$]$T$C@>$U$V$        ",
"                        W$X$Y$Z$`$ %.%L$I +%> + . . . . . . . . . . . . . . . . . . + > ^ H#@%#%$%%%&%*%=%X#-%;%>%,%            ",
"                    '%S$)%!%~%{%]%^%/%(%z d@_%> @ . . . . . . . . . . . . . . . . + % l :%k k <%g [%}%|%1%2%3%                  ",
"                  4%>$*+2@5%6%7%8%9%x J#5$H 0%! % + . . . . . . . . . . . . . . . + > _%a%2.4$t b%c%d%e%f%3#g%                  ",
"                h%i%j%k%l%m%n%o%Y C p%f P@q%r%! @ . . . . . . . . . . . . . . . . @ ] : s%t%u%v%'$w%x%y%z%A%B%                  "};
