/* XPM */
static char * corner_bottom_left_xpm[] = {
"64 64 323 2",
"  	c None",
". 	c #000000",
"+ 	c #000100",
"@ 	c #010100",
"# 	c #020201",
"$ 	c #020200",
"% 	c #040602",
"& 	c #020300",
"* 	c #010200",
"= 	c #020301",
"- 	c #030603",
"; 	c #010201",
"> 	c #0D1007",
", 	c #090B04",
"' 	c #010300",
") 	c #030401",
"! 	c #070803",
"~ 	c #040502",
"{ 	c #050602",
"] 	c #050502",
"^ 	c #040501",
"/ 	c #020402",
"( 	c #181C0A",
"_ 	c #141709",
": 	c #0E1007",
"< 	c #070903",
"[ 	c #030501",
"} 	c #050702",
"| 	c #040601",
"1 	c #131607",
"2 	c #080903",
"3 	c #070802",
"4 	c #040603",
"5 	c #030604",
"6 	c #23290E",
"7 	c #1F250C",
"8 	c #1A1F0B",
"9 	c #131608",
"0 	c #090C04",
"a 	c #111508",
"b 	c #0A0D05",
"c 	c #0B0E05",
"d 	c #121608",
"e 	c #1E240C",
"f 	c #111406",
"g 	c #101306",
"h 	c #0B0E04",
"i 	c #050703",
"j 	c #040905",
"k 	c #010302",
"l 	c #2D3514",
"m 	c #262D10",
"n 	c #232A0E",
"o 	c #151908",
"p 	c #151909",
"q 	c #151808",
"r 	c #1B210B",
"s 	c #242C11",
"t 	c #181C09",
"u 	c #101406",
"v 	c #0C0F05",
"w 	c #060904",
"x 	c #060C07",
"y 	c #020503",
"z 	c #323D1B",
"A 	c #303A19",
"B 	c #282F11",
"C 	c #2A3112",
"D 	c #293113",
"E 	c #20260C",
"F 	c #1D230B",
"G 	c #242D13",
"H 	c #1E2C14",
"I 	c #202811",
"J 	c #171B0A",
"K 	c #111408",
"L 	c #090E07",
"M 	c #070E08",
"N 	c #000101",
"O 	c #33421F",
"P 	c #313D1B",
"Q 	c #2F3716",
"R 	c #252C10",
"S 	c #2F3919",
"T 	c #252C0E",
"U 	c #2C3717",
"V 	c #263317",
"W 	c #274425",
"X 	c #25391D",
"Y 	c #1D2713",
"Z 	c #161F0F",
"` 	c #0D170B",
" .	c #071008",
"..	c #334723",
"+.	c #323F1D",
"@.	c #252D12",
"#.	c #32401D",
"$.	c #303918",
"%.	c #2F3817",
"&.	c #324622",
"*.	c #283B1D",
"=.	c #2F5631",
"-.	c #254426",
";.	c #24391E",
">.	c #1C2E19",
",.	c #132313",
"'.	c #0E1D12",
").	c #09150D",
"!.	c #040804",
"~.	c #344B26",
"{.	c #344A25",
"].	c #283719",
"^.	c #334421",
"/.	c #324522",
"(.	c #2D4624",
"_.	c #33562F",
":.	c #356339",
"<.	c #244829",
"[.	c #2B4E2C",
"}.	c #244226",
"|.	c #19311C",
"1.	c #132818",
"2.	c #0D1B11",
"3.	c #060D07",
"4.	c #354E28",
"5.	c #344C27",
"6.	c #324D29",
"7.	c #304925",
"8.	c #354D27",
"9.	c #355730",
"0.	c #2E542F",
"a.	c #3A6C3F",
"b.	c #38673C",
"c.	c #2B5532",
"d.	c #2F5D38",
"e.	c #24482B",
"f.	c #17331E",
"g.	c #122917",
"h.	c #0E1D10",
"i.	c #091109",
"j.	c #030502",
"k.	c #010101",
"l.	c #447D4E",
"m.	c #35502A",
"n.	c #35522C",
"o.	c #325B34",
"p.	c #375D33",
"q.	c #375C33",
"r.	c #386036",
"s.	c #39693D",
"t.	c #3D7C4E",
"u.	c #499761",
"v.	c #448C58",
"w.	c #428151",
"x.	c #214B2D",
"y.	c #2C613C",
"z.	c #2B5634",
"A.	c #213D23",
"B.	c #182815",
"C.	c #11180C",
"D.	c #0B0E06",
"E.	c #54A26A",
"F.	c #4B9761",
"G.	c #3A7245",
"H.	c #1B3B21",
"I.	c #3B6F41",
"J.	c #3C7546",
"K.	c #34673D",
"L.	c #3F8153",
"M.	c #4D9C65",
"N.	c #509E67",
"O.	c #4A925E",
"P.	c #327247",
"Q.	c #38784A",
"R.	c #31613A",
"S.	c #284829",
"T.	c #1F321A",
"U.	c #171F0F",
"V.	c #101307",
"W.	c #0A0C04",
"X.	c #060702",
"Y.	c #509F67",
"Z.	c #4A9560",
"`.	c #1F3E22",
" +	c #386C41",
".+	c #3E7E4D",
"++	c #3F8351",
"@+	c #32673E",
"#+	c #4D9B65",
"$+	c #4E9D66",
"%+	c #4F9B65",
"&+	c #326941",
"*+	c #306039",
"=+	c #2B522F",
"-+	c #274627",
";+	c #243B1F",
">+	c #202E17",
",+	c #181F0D",
"'+	c #090B03",
")+	c #30623D",
"!+	c #34693F",
"~+	c #3E8251",
"{+	c #418B57",
"]+	c #336E43",
"^+	c #3D7C50",
"/+	c #4F9D66",
"(+	c #438A57",
"_+	c #366238",
":+	c #325933",
"<+	c #2A4A29",
"[+	c #22371D",
"}+	c #19220E",
"|+	c #111507",
"1+	c #0B0D04",
"2+	c #418D58",
"3+	c #43935D",
"4+	c #38764A",
"5+	c #3E7E51",
"6+	c #47915E",
"7+	c #3A6C40",
"8+	c #33552F",
"9+	c #26391C",
"0+	c #233016",
"a+	c #1E250E",
"b+	c #171C09",
"c+	c #0D0F05",
"d+	c #2D5D38",
"e+	c #438C58",
"f+	c #346C43",
"g+	c #2B5B39",
"h+	c #3A784B",
"i+	c #2E5631",
"j+	c #2B4221",
"k+	c #2F411E",
"l+	c #2A3516",
"m+	c #21270D",
"n+	c #191E09",
"o+	c #0F1206",
"p+	c #2E603B",
"q+	c #387649",
"r+	c #2E5B35",
"s+	c #325C34",
"t+	c #31522B",
"u+	c #2B3B19",
"v+	c #293414",
"w+	c #232B0E",
"x+	c #1C220A",
"y+	c #141808",
"z+	c #3A7A4C",
"A+	c #418C57",
"B+	c #346035",
"C+	c #2D4420",
"D+	c #2A3917",
"E+	c #283313",
"F+	c #252F10",
"G+	c #222A0D",
"H+	c #1F260B",
"I+	c #161A08",
"J+	c #030500",
"K+	c #3F8653",
"L+	c #35673B",
"M+	c #2B4622",
"N+	c #283B1A",
"O+	c #263616",
"P+	c #222E11",
"Q+	c #21290E",
"R+	c #232A0F",
"S+	c #1D220B",
"T+	c #111407",
"U+	c #31653C",
"V+	c #2E5B33",
"W+	c #274A27",
"X+	c #203417",
"Y+	c #20280E",
"Z+	c #21280D",
"`+	c #131707",
" @	c #080A03",
".@	c #131E0B",
"+@	c #223416",
"@@	c #273B19",
"#@	c #2B421D",
"$@	c #2B3C19",
"%@	c #293413",
"&@	c #232C0F",
"*@	c #1A1F0A",
"=@	c #070902",
"-@	c #2C5431",
";@	c #32643C",
">@	c #34643A",
",@	c #345D34",
"'@	c #31522C",
")@	c #2A4322",
"!@	c #25381A",
"~@	c #263315",
"{@	c #2D3817",
"]@	c #272F11",
"^@	c #1C210B",
"/@	c #060802",
"(@	c #3D7E4F",
"_@	c #42905B",
":@	c #3F8250",
"<@	c #375B32",
"[@	c #344924",
"}@	c #303B19",
"|@	c #2C3514",
"1@	c #222A0E",
"2@	c #262F13",
"3@	c #2C3415",
"4@	c #0E1106",
"5@	c #346840",
"6@	c #4A9A63",
"7@	c #44945E",
"8@	c #408653",
"9@	c #3C7244",
"0@	c #385D33",
"a@	c #344824",
"b@	c #2E3716",
"c@	c #262D0F",
"d@	c #181D0A",
"e@	c #101308",
"f@	c #0E1105",
"g@	c #151A06",
"h@	c #0D1005",
". . . . . . . . . . . . . . . . . . . . . . . . . . . . . . . . . . . . . . . . . . . . . . . . . . . . . . . . . . . . . . . . ",
". . . . . . . . . . . . . . . . . . . . . . . . . . . . . . . . . . . . . . . . . . . . . . . . . . . . . . . . . . . . . . . . ",
". . . . . . . . . . . . . . . . . . . . . . . . . . . . . . . . . . . . . . . . . . . . . . . . . . . . . . . . . . . . . . . . ",
". . . . . . . . . . . . . . . . . . . . . . . . . . . . . . . . . . . . . . . . . . . . . . . . . . . . . . . . . . . . . . . . ",
". . . . . . . . . . . . . . . . . . . . . . . . . . . . . . . . . . . . . . . . . . . . . . . . . . . . . . . . . . . . . . . . ",
". . . . . . . . . . . . . . . . . . . . . . . . . . . . . . . . . . . . . . . . . . . . . . . . . . . . . . . . . . . . . . . . ",
". . . . . . . . . . . . . . . . . . . . . . . . . . . . . . . . . . . . . . . . . . . . . . . . . . . . . . . . . . . . . . . . ",
". . . . . . . . . . . . . . . . . . . . . . . . . . . . . . . . . . . . . . . . . . . . . . . . . . . . . . . . . . . . . . . . ",
". . . . . . . . . . . . . . . . . . . . . . . . . . . . . . . . . . . . . . . . . . . . . . . . . . . . . . . . . . . . . . . . ",
". . . . . . . . . . . . . . . . . . . . . . . . . . . . . . . . . . . . . . . . . . . . . . . . . . . . . . . . . . . . . . . . ",
". . . . . . . . . . . . . . . . . . . . . . . . . . . . . . . . . . . . . . . . . . . . . . . . . . . . . . . . . . . . . . . . ",
". . . . . . . . . . . . . . . . . . . . . . . . . . . . . . . . . . . . . . . . . . . . . . . . . . . . . . . . . . . . . . . . ",
". . . . . . . . . . . . . . . . . . . . . . . . . . . . . . . . . . . . . . . . . . . . . . . . . . . . . . . . . . . . . . . . ",
". . . . . . . . . . . . . . . . . . . . . . . . . . . . . . . . . . . . . . . . . . . . . . . . . . . . . . . . . . . . . . . . ",
". . . . . . . . . . . . . . . . . . . . . . . . . . . . . . . . . . . . . . . . . . . . . . . . . . . . . . . . . . . . . . . . ",
". . . . . . . . . . . . . . . . . . . . . . . . . . . . . . . . . . . . . . . . . . . . . . . . . . . . . . . . . . . . . . . . ",
". . . . . . . . . . . . . . . . . . . . . . . . . . . . . . . . . . . . . . . . . . . . . . . . . . . . . . . . . . . . . . . . ",
". . . . . . . . . . . . . . . . . . . . . . . . . . . . . . . . . . . . . . . . . . . . . . . . . . . . . . . . . . . . . . . . ",
". . . . . . . . . . . . . . . . . . . . . . . . . . . . . . . . . . . . . . . . . . . . . . . . . . . . . . . . . . . . . . . . ",
". . . . . . . . . . . . . . . . . . . . . . . . . . . . . . . . . . . . . . . . . . . . . . . . . . . . . . . . . . . . . . . . ",
". . . . . . . . . . . . . . . . . . . . . . . . . . . . . . . . . . . . . . . . . . . . . . . . . . . . . . . . . . . . . . . . ",
". . . . . . . . . . . . . . . . . . . . . . . . . . . . . . . . . . . . . . . . . . . . . . . . . . . . . . . . . . . . . . . . ",
". . . . . . . . . . . . . . . . . . . . . . . . . . . . . . . . . . . . . . . . . . . . . . . . . . . . . . . . . . . . . . . . ",
". . . . . . . . . . . . . . . . . . . . . . . . . . . . . . . . . . . . . . . . . . . . . . . . . . . . . . . . . . . . . . . . ",
". . . . . . . . . . . . . . . . . . . . . . . . . . . . . . . . . . . . . . . . . . . . . . . . . . . . . . . . . . . . . . . . ",
". . . . . . . . . . . . . . . . . . . . . . . . . . . . . . . . . . . . . . . . . . . . . . . . . . . . . . . . . . . . . . . . ",
". . . . . . . . . . . . . . . . . . . . . . . . . . . . . . . . . . . . . . . . . . . . . . . . . . . . . . . . . . . . . . . . ",
". . . . . . . . . . . . . . . . . . . . . . . . . . . . . . . . . . . . . . . . . . . . . . . . . . . . . . . . . . . . . . . . ",
". . . . . . . . . . . . . . . . . . . . . . . . . . . . . . . . . . . . . . . . . . . . . . . . . . . . . . . . . . . . . . . . ",
". . . . . . . . . . . . . . . . . . . . . . . . . . . . . . . . . . . . . . . . . . . . . . . . . . . . . . . . . . . . . . . . ",
". . . . . . . . . . . . . . . . . . . . . . . . . . . . . . . . . . . . . . . . . . . . . . . . . . . . . . . . . . . . . . . . ",
". . . . . . . . . . . . . . . . . . . . . . . . . . . . . . . . . . . . . . . . . . . . . . . . . . . . . . . . . . . . . . . . ",
". . . . . . . . . . . . . . . . . . . . . . . . . . . . . . . . . . . . . . . . . . . . . . . . . . . . . . . . . . . . . . . . ",
". . . . . . . . . . . . . . . . . . . . . . . . . . . . . . . . . . . . . . . . . . . . . . . . . . . . . . . . . . . . . . . . ",
". . . . . . . . . . . . . . . . . . . . . . . . . . . . . . . . . . . . . . . . . . . . . . . . . . . . . . . . . . . . . . . . ",
". . . . . . . . . . . . . . . . . . . . . . . . . . . . . . . . . . . . . . . . . . . . . . . . . . . . . . . . . . . . . . . . ",
". . . . . . . . . . . + @ + . . . . . . . . . . . . . . . . . . . . . . . . . . . . . . . . . . . . . . . . . . . . . . . . . . ",
". . . . . . . . . . . . @ @ @ . . . . . . . . . . . . . . . . . . . . . . . . . . . . . . . . . . . . . . . . . . . . . . . . . ",
". . . . . . . . . . . . . # @ . . . . . . . . . . . . . . . . . . . . . . . . . . . . . . . . . . . . . . . . . . . . . . . . . ",
"+ . . . . . . . + + + + @ # $ @ . . . . . . . . . . . . . . . . . . . . . . . . . . . . . . . . . . . . . . . . . . . . . . . . ",
"% & . . + + + + * * * & = = - ; + . . . . . . . . . . . . . . . . . . . . . . . . . . . . . . . . . . . . . . . . . . . . . . . ",
"> , % @ * * * ' ) ! ~ { ] ^ - / + . . . . . . . . . . . . . . . . . . . . . . . . . . . . . . . . . . . . . . . . . . . . . . . ",
"( _ : < [ } [ | , 1 , , 2 3 4 5 ; . . . . . . . . . . . . . . . . . . . . . . . . . . . . . . . . . . . . . . . . . . . . . . . ",
"6 7 8 9 0 a b c d e f g h , i j k + . . . . . . . . . . . . . . . . . . . . . . . . . . . . . . . . . . . . . . . . . . . . . . ",
"l m n 7 o e p q r s t ( u v w x y ; . . . . . . . . . . . . . . . . . . . . . . . . . . . . . . . . . . . . . . . . . . . . . . ",
"z A B C 7 D E F 6 G H I J K L M j / N . . . . . . . . . . . . . . . . . . . . . . . . . . . . . . . . . . . . . . . . . . . . . ",
"O O P Q R S B T U V W X Y Z `  .j 5 k + . . . . . . . . . . . . . . . . . . . . . . . . . . . . . . . . . . . . . . . . . . . . ",
"......+.@.#.$.%.&.*.=.-.;.>.,.'.).!.5 k N . . . . . . . . . . . . . . . . . . . . . . . . . . . . . . . . . . . . . . . . . . . ",
"~.~.~.{.].^.O /.(._.:.<.[.}.|.1.2.3.j 5 k N . . . . . . . . . . . . . . . . . . . . . . . . . . . . . . . . . . . . . . . . . . ",
"4.5.5.6.7.8.4.9.0.a.b.c.d.e.f.g.h.i.w j.= ; k.+ . . . . . . . . . . . . . . . . . . . . . . . . . . . . . . . . . . . . . . . . ",
"l.m.n.o.p.q.r.s.t.u.v.w.x.y.z.A.B.C.D.! ^ = @ . . . . . . . . . . . . . . . . . . . . . . . . . . . . . . . . . . . . . . . . . ",
"E.F.G.H.s.I.J.K.L.M.N.O.P.Q.R.S.T.U.V.W.X.) * + . . . . . . . . . . . . . . . . . . . . . . . . . . . . . . . . . . . . . . . . ",
"Y.Z.`.   +.+++@+  #+$+%+&+*+=+-+;+>+,+g '+] # + . . . . . . . . . . . . . . . . . . . . . . . . . . . . . . . . . . . . . . . . ",
")+      !+~+{+]+  ^+$+/+N.(+_+:+<+[+}+|+1+{ = + . . . . . . . . . . . . . . . . . . . . . . . . . . . . . . . . . . . . . . . . ",
"          2+3+4+    5+6+M.u.7+8+9+0+I a+b+c+~ @ . . . . . . . . . . . . . . . . . . . . . . . . . . . . . . . . . . . . . . . . ",
"          d+e+f+        g+h+i+j+k+l+m+n+o+! = + + . . . . . . . . . . . . . . . . . . . . . . . . . . . . . . . . . . . . . . . ",
"                    p+q+r+s+t+u+v+w+x+y+b ^ * + . . . . . . . . . . . . . . . . . . . . . . . . . . . . . . . . . . . . . . . . ",
"                    z+A+B+C+D+E+F+G+H+I+1+J+* + . . . . . . . . . . . . . . . . . . . . . . . . . . . . . . . . . . . . . . . . ",
"                      K+L+M+N+O+P+Q+R+S+T+| + . . . . . . . . . . . . . . . . . . . . . . . . . . . . . . . . . . . . . . . . . ",
"                        U+V+W+X+Y+Z+x+`+ @) * . . . . . . . . . . . . . . . . . . . . . . . . . . . . . . . . . . . . . . . . . ",
"                        .@+@@@#@$@%@&@*@f =@& + . . . . . . . . . . . . . . . . . . . . . . . . . . . . . . . . . . . . . . . . ",
"                    -@;@>@,@'@)@!@~@{@]@^@V./@& @ . . . . . . . . . . . . . . . . . . . . . . . . . . . . . . . . . . . . . . . ",
"                  (@_@:@I.<@[@}@|@1@8 2@3@e 4@% * + . . . . . . . . . . . . . . . . . . . . . . . . . . . . . . . . . . . . . . ",
"                5@6@7@8@9@0@a@b@c@7 d@e@f@g@h@% @ . . . . . . . . . . . . . . . . . . . . . . . . . . . . . . . . . . . . . . . "};
