/* XPM */
static char * diag_trbl_xpm[] = {
"64 64 613 2",
"  	c None",
". 	c #3C7A4D",
"+ 	c #3B7D4E",
"@ 	c #377145",
"# 	c #35663C",
"$ 	c #355D34",
"% 	c #35522B",
"& 	c #32401E",
"* 	c #293011",
"= 	c #1E240C",
"- 	c #151909",
"; 	c #0E1107",
"> 	c #080A04",
", 	c #030401",
"' 	c #010200",
") 	c #000100",
"! 	c #000000",
"~ 	c #214510",
"{ 	c #1E3F0E",
"] 	c #1B3B0A",
"^ 	c #304D26",
"/ 	c #102104",
"( 	c #101A05",
"_ 	c #19230C",
": 	c #1E250C",
"< 	c #1D230B",
"[ 	c #161A0A",
"} 	c #0D1006",
"| 	c #060803",
"1 	c #020300",
"2 	c #234519",
"3 	c #274C1C",
"4 	c #234912",
"5 	c #295315",
"6 	c #285214",
"7 	c #3E6334",
"8 	c #689A5D",
"9 	c #213A19",
"0 	c #101C05",
"a 	c #0C1504",
"b 	c #070C02",
"c 	c #030501",
"d 	c #070903",
"e 	c #090C04",
"f 	c #050602",
"g 	c #17330A",
"h 	c #355C2F",
"i 	c #4F8648",
"j 	c #44793E",
"k 	c #3A6B33",
"l 	c #284E1C",
"m 	c #22480D",
"n 	c #487140",
"o 	c #5D9255",
"p 	c #3B6736",
"q 	c #101E04",
"r 	c #111F05",
"s 	c #152406",
"t 	c #131F05",
"u 	c #0C1204",
"v 	c #060903",
"w 	c #020301",
"x 	c #275014",
"y 	c #295415",
"z 	c #20430F",
"A 	c #43773D",
"B 	c #42783B",
"C 	c #3C6E33",
"D 	c #35652B",
"E 	c #214314",
"F 	c #3D6537",
"G 	c #487E44",
"H 	c #3F753C",
"I 	c #244416",
"J 	c #264310",
"K 	c #1D3009",
"L 	c #141F07",
"M 	c #0D1205",
"N 	c #060902",
"O 	c #224711",
"P 	c #214411",
"Q 	c #3B6C33",
"R 	c #38692E",
"S 	c #305D24",
"T 	c #2A531B",
"U 	c #2D5326",
"V 	c #42783E",
"W 	c #36672F",
"X 	c #274B1E",
"Y 	c #1D3309",
"Z 	c #172607",
"` 	c #111906",
" .	c #0B1005",
"..	c #050702",
"+.	c #77A46B",
"@.	c #8DC37F",
"#.	c #80B272",
"$.	c #659059",
"%.	c #44673B",
"&.	c #23461B",
"*.	c #346228",
"=.	c #234811",
"-.	c #1C3A0F",
";.	c #396B33",
">.	c #2C5321",
",.	c #27491A",
"'.	c #172A09",
").	c #162507",
"!.	c #101806",
"~.	c #0A0F04",
"{.	c #050802",
"].	c #010100",
"^.	c #6C9961",
"/.	c #8BBF7C",
"(.	c #7EB070",
"_.	c #72A465",
":.	c #6C9E60",
"<.	c #3D6135",
"[.	c #2A521D",
"}.	c #254A14",
"|.	c #1E3E0A",
"1.	c #193407",
"2.	c #274C20",
"3.	c #26481A",
"4.	c #1E370F",
"5.	c #182B0A",
"6.	c #0E1705",
"7.	c #080D03",
"8.	c #1E400F",
"9.	c #537948",
"0.	c #74A567",
"a.	c #619557",
"b.	c #558B4E",
"c.	c #52884B",
"d.	c #2C5225",
"e.	c #21430F",
"f.	c #183206",
"g.	c #172D06",
"h.	c #162B0B",
"i.	c #203D15",
"j.	c #172809",
"k.	c #131F06",
"l.	c #0B1303",
"m.	c #091003",
"n.	c #070A03",
"o.	c #76A668",
"p.	c #275015",
"q.	c #57814B",
"r.	c #54854B",
"s.	c #43783D",
"t.	c #3E7237",
"u.	c #3B6C35",
"v.	c #19340B",
"w.	c #162C05",
"x.	c #122405",
"y.	c #0F1D04",
"z.	c #15270C",
"A.	c #121E07",
"B.	c #0C1304",
"C.	c #090E03",
"D.	c #6EA061",
"E.	c #264E12",
"F.	c #244B0E",
"G.	c #28471C",
"H.	c #5E8A53",
"I.	c #4F7745",
"J.	c #34632B",
"K.	c #305C26",
"L.	c #26491E",
"M.	c #102004",
"N.	c #0D1904",
"O.	c #0B1403",
"P.	c #081003",
"Q.	c #0D1605",
"R.	c #020201",
"S.	c #010201",
"T.	c #588D50",
"U.	c #1B3B09",
"V.	c #1F4009",
"W.	c #1C3B07",
"X.	c #476D3E",
"Y.	c #689B5D",
"Z.	c #5F8F55",
"`.	c #2A511E",
" +	c #284D1B",
".+	c #24461A",
"++	c #112209",
"@+	c #060B02",
"#+	c #040601",
"$+	c #467E41",
"%+	c #1A3506",
"&+	c #162E05",
"*+	c #487442",
"=+	c #588E52",
"-+	c #578C51",
";+	c #27491E",
">+	c #224116",
",+	c #1C3410",
"'+	c #16290D",
")+	c #050A02",
"!+	c #030601",
"~+	c #010101",
"{+	c #3C7034",
"]+	c #112104",
"^+	c #142605",
"/+	c #3D6D3B",
"(+	c #498147",
"_+	c #477D45",
":+	c #30562C",
"<+	c #1C350F",
"[+	c #16290B",
"}+	c #101D07",
"|+	c #081004",
"1+	c #346227",
"2+	c #0F1C04",
"3+	c #101E05",
"4+	c #326030",
"5+	c #3C713A",
"6+	c #386936",
"7+	c #315D30",
"8+	c #14270D",
"9+	c #111E07",
"0+	c #0B1204",
"a+	c #070B02",
"b+	c #020401",
"c+	c #2B4E18",
"d+	c #162A09",
"e+	c #294E22",
"f+	c #315E2C",
"g+	c #2B5124",
"h+	c #23431E",
"i+	c #1A3217",
"j+	c #0A1103",
"k+	c #040701",
"l+	c #23390C",
"m+	c #1A2C08",
"n+	c #1B310E",
"o+	c #294D21",
"p+	c #223E18",
"q+	c #1A3112",
"r+	c #14250F",
"s+	c #0A1507",
"t+	c #050701",
"u+	c #1A2909",
"v+	c #192808",
"w+	c #131E05",
"x+	c #131E07",
"y+	c #1A2F10",
"z+	c #1D3312",
"A+	c #15240C",
"B+	c #0E1808",
"C+	c #0A1106",
"D+	c #040702",
"E+	c #121B07",
"F+	c #141C07",
"G+	c #0C1205",
"H+	c #16250C",
"I+	c #121C09",
"J+	c #0B1104",
"K+	c #060A03",
"L+	c #050803",
"M+	c #0D1206",
"N+	c #0C1105",
"O+	c #080C04",
"P+	c #070C03",
"Q+	c #101808",
"R+	c #080C03",
"S+	c #040501",
"T+	c #060802",
"U+	c #020200",
"V+	c #0B1004",
"W+	c #030301",
"X+	c #060702",
"Y+	c #0A0C04",
"Z+	c #141808",
"`+	c #070803",
" @	c #1D240E",
".@	c #101306",
"+@	c #1D230D",
"@@	c #1E2911",
"#@	c #090C05",
"$@	c #0B0D04",
"%@	c #121607",
"&@	c #1A200A",
"*@	c #2A3719",
"=@	c #182510",
"-@	c #0F1107",
";@	c #111408",
">@	c #131709",
",@	c #121608",
"'@	c #101308",
")@	c #090C03",
"!@	c #171C09",
"~@	c #1F250D",
"{@	c #2A3416",
"]@	c #2E4825",
"^@	c #131909",
"/@	c #1A1F0B",
"(@	c #1D220B",
"_@	c #1C210B",
":@	c #1B210B",
"<@	c #040502",
"[@	c #060703",
"}@	c #101507",
"|@	c #202710",
"1@	c #262D12",
"2@	c #2C3819",
"3@	c #334D28",
"4@	c #284726",
"5@	c #232A0E",
"6@	c #242B0E",
"7@	c #242C0F",
"8@	c #252C0F",
"9@	c #262D0F",
"0@	c #080A03",
"a@	c #0C0F05",
"b@	c #101406",
"c@	c #19200D",
"d@	c #293619",
"e@	c #2E3F1E",
"f@	c #334E29",
"g@	c #38663A",
"h@	c #243D20",
"i@	c #2B3413",
"j@	c #2C3413",
"k@	c #2D3514",
"l@	c #2E3615",
"m@	c #0E1206",
"n@	c #151A09",
"o@	c #203118",
"p@	c #23371C",
"q@	c #26361A",
"r@	c #314824",
"s@	c #35552D",
"t@	c #3A6A3D",
"u@	c #3B7748",
"v@	c #294324",
"w@	c #303918",
"x@	c #313C1A",
"y@	c #313B19",
"z@	c #0B0E04",
"A@	c #121C0D",
"B@	c #192A16",
"C@	c #234529",
"D@	c #2C5A37",
"E@	c #31623B",
"F@	c #264022",
"G@	c #31502B",
"H@	c #376136",
"I@	c #3B7143",
"J@	c #3E804F",
"K@	c #3F8754",
"L@	c #2E5E39",
"M@	c #2E3B1B",
"N@	c #33421F",
"O@	c #313D1B",
"P@	c #090B04",
"Q@	c #0E1308",
"R@	c #142414",
"S@	c #1C3B24",
"T@	c #234D30",
"U@	c #2B5E3B",
"V@	c #336F46",
"W@	c #387B4E",
"X@	c #376C40",
"Y@	c #2C4E2B",
"Z@	c #335E35",
"`@	c #3D7848",
" #	c #3F8250",
".#	c #418B57",
"+#	c #43935E",
"@#	c #38764A",
"##	c #314321",
"$#	c #334622",
"%#	c #0E1208",
"&#	c #131D0F",
"*#	c #19301C",
"=#	c #224B2F",
"-#	c #295A39",
";#	c #2F653F",
">#	c #357146",
",#	c #408756",
"'#	c #428D59",
")#	c #3D7E4D",
"!#	c #2F5D38",
"~#	c #396E43",
"{#	c #387145",
"]#	c #3F8654",
"^#	c #408855",
"/#	c #2E5A36",
"(#	c #344A25",
"_#	c #344B26",
":#	c #0A0D04",
"<#	c #121B0E",
"[#	c #172715",
"}#	c #1E3A22",
"|#	c #275636",
"1#	c #2E643F",
"2#	c #357147",
"3#	c #3E8354",
"4#	c #47905D",
"5#	c #4A9761",
"6#	c #45925D",
"7#	c #336840",
"8#	c #499660",
"9#	c #4A955F",
"0#	c #418353",
"a#	c #408353",
"b#	c #488B58",
"c#	c #3A643A",
"d#	c #35502A",
"e#	c #0F1408",
"f#	c #172615",
"g#	c #1C351E",
"h#	c #23482C",
"i#	c #2E633F",
"j#	c #357047",
"k#	c #3E7E51",
"l#	c #4F9260",
"m#	c #509964",
"n#	c #4C9A64",
"o#	c #438A58",
"p#	c #284E2C",
"q#	c #3A7C4D",
"r#	c #489660",
"s#	c #4D9C65",
"t#	c #55A26A",
"u#	c #60A970",
"v#	c #5AA46C",
"w#	c #519460",
"x#	c #141F0F",
"y#	c #1C331D",
"z#	c #224327",
"A#	c #2A5837",
"B#	c #367148",
"C#	c #3E7F52",
"D#	c #4C8F5E",
"E#	c #5EA06A",
"F#	c #529C66",
"G#	c #4E9B64",
"H#	c #32653E",
"I#	c #315932",
"J#	c #34653B",
"K#	c #377548",
"L#	c #489760",
"M#	c #4C9B64",
"N#	c #58A46C",
"O#	c #56A36B",
"P#	c #55A26B",
"Q#	c #0E1105",
"R#	c #1B2B17",
"S#	c #224025",
"T#	c #285232",
"U#	c #306842",
"V#	c #3A7A4E",
"W#	c #458959",
"X#	c #4D9360",
"Y#	c #559D68",
"Z#	c #529E67",
"`#	c #3C7B4E",
" $	c #3A7647",
".$	c #3D7747",
"+$	c #3E7F4E",
"@$	c #294F2D",
"#$	c #2F633D",
"$$	c #46935E",
"%$	c #4F9E66",
"&$	c #4F9E67",
"*$	c #0F1306",
"=$	c #1F341C",
"-$	c #285030",
";$	c #30653F",
">$	c #408455",
",$	c #438B59",
"'$	c #48935F",
")$	c #4E9A64",
"!$	c #448A58",
"~$	c #26391D",
"{$	c #2D5834",
"]$	c #377347",
"^$	c #408A56",
"/$	c #244E2F",
"($	c #438857",
"_$	c #48905D",
":$	c #3C794D",
"<$	c #111506",
"[$	c #1E311A",
"}$	c #2D5E3A",
"|$	c #3D8152",
"1$	c #428A58",
"2$	c #448F5C",
"3$	c #47935F",
"4$	c #3E7D4F",
"5$	c #2D5D37",
"6$	c #2A3113",
"7$	c #324320",
"8$	c #314C27",
"9$	c #2D522E",
"0$	c #274827",
"a$	c #214023",
"b$	c #111507",
"c$	c #1D230C",
"d$	c #262F13",
"e$	c #284224",
"f$	c #377448",
"g$	c #3B7A4D",
"h$	c #356B41",
"i$	c #3D8452",
"j$	c #3F8855",
"k$	c #233216",
"l$	c #344D27",
"m$	c #386035",
"n$	c #3B7142",
"o$	c #3E804E",
"p$	c #306B42",
"q$	c #121507",
"r$	c #1B200A",
"s$	c #242B0F",
"t$	c #2D3A1A",
"u$	c #2E4624",
"v$	c #294D2B",
"w$	c #3D814F",
"x$	c #41915B",
"y$	c #42905B",
"z$	c #2D5A36",
"A$	c #334320",
"B$	c #35512A",
"C$	c #386136",
"D$	c #3B7243",
"E$	c #3F8350",
"F$	c #39794C",
"G$	c #171B08",
"H$	c #1E240B",
"I$	c #2C3415",
"J$	c #314622",
"K$	c #365C33",
"L$	c #2E5731",
"M$	c #3D8552",
"N$	c #41905A",
"O$	c #367649",
"P$	c #2F4B27",
"Q$	c #365E34",
"R$	c #3B6E40",
"S$	c #3C7848",
"T$	c #3A7A4B",
"U$	c #326D43",
"V$	c #0D0F05",
"W$	c #181D09",
"X$	c #191E09",
"Y$	c #282F11",
"Z$	c #2C3616",
"`$	c #303C1B",
" %	c #334924",
".%	c #365A31",
"+%	c #305D36",
"@%	c #3E8452",
"#%	c #38794C",
"$%	c #325F37",
"%%	c #336A40",
"&%	c #336F45",
"*%	c #38794D",
"=%	c #295A38",
"-%	c #0A0D03",
";%	c #111407",
">%	c #1A1F0A",
",%	c #273417",
"'%	c #324B26",
")%	c #36582F",
"!%	c #386337",
"~%	c #3C7243",
"{%	c #3E8150",
"]%	c #32643C",
"^%	c #396D40",
"/%	c #3F8351",
"(%	c #45945E",
"_%	c #295432",
":%	c #0F1206",
"<%	c #161B07",
"[%	c #191F0A",
"}%	c #151C09",
"|%	c #284525",
"1%	c #3A6D3F",
"2%	c #3D7B4A",
"3%	c #408955",
"4%	c #387649",
"5%	c #32673F",
"6%	c #3C7849",
"7%	c #377447",
"8%	c #347046",
"9%	c #080B04",
"0%	c #181C0A",
"a%	c #1D220C",
"b%	c #203318",
"c%	c #377245",
"d%	c #418E59",
"e%	c #3C7F4F",
"f%	c #336A41",
"g%	c #171B0A",
"h%	c #1C230E",
"i%	c #191E0A",
"j%	c #20270D",
"k%	c #2C4827",
"l%	c #346F45",
"m%	c #357347",
"n%	c #0F1207",
"o%	c #20260D",
"p%	c #2A3212",
"q%	c #35532C",
"r%	c #355E35",
"s%	c #34663D",
"t%	c #367347",
"u%	c #3A7A4D",
"v%	c #387449",
"                  . + @ # $ % & * = - ; > , ' ) ! ! ! ! ! ! ! ! ! ! ! ! ! ! ! ! ! ! ! ! ! ! ! ! ! ! ! ! ! ! ! ! ! ! ! ! ! ! ! ! ",
"            ~ {       ] ^ / ( _ : < [ } | 1 ' ! ! ! ! ! ! ! ! ! ! ! ! ! ! ! ! ! ! ! ! ! ! ! ! ! ! ! ! ! ! ! ! ! ! ! ! ! ! ! ! ! ",
"            2 3 4 5 6 7 8 9 0 a b c d e f 1 ) ! ! ! ! ! ! ! ! ! ! ! ! ! ! ! ! ! ! ! ! ! ! ! ! ! ! ! ! ! ! ! ! ! ! ! ! ! ! ! ! ! ",
"    g     h i j k l m n o p q r s t u v w ) ! ! ! ! ! ! ! ! ! ! ! ! ! ! ! ! ! ! ! ! ! ! ! ! ! ! ! ! ! ! ! ! ! ! ! ! ! ! ! ! ! ! ",
"    x y z   A B C D E F G H I J K L M N 1 ' ! ! ! ! ! ! ! ! ! ! ! ! ! ! ! ! ! ! ! ! ! ! ! ! ! ! ! ! ! ! ! ! ! ! ! ! ! ! ! ! ! ! ",
"    O P ~     Q R S T U V W X Y Z `  ...1 ' ! ! ! ! ! ! ! ! ! ! ! ! ! ! ! ! ! ! ! ! ! ! ! ! ! ! ! ! ! ! ! ! ! ! ! ! ! ! ! ! ! ! ",
"    +.@.#.$.%.&.*.T =.-.;.>.,.'.).!.~.{.w ].! ! ! ! ! ! ! ! ! ! ! ! ! ! ! ! ! ! ! ! ! ! ! ! ! ! ! ! ! ! ! ! ! ! ! ! ! ! ! ! ! ! ",
"    ^./.(._.:.<.[.}.|.1.2.3.4.5.t 6.7...w ].! ! ! ! ! ! ! ! ! ! ! ! ! ! ! ! ! ! ! ! ! ! ! ! ! ! ! ! ! ! ! ! ! ! ! ! ! ! ! ! ! ! ",
"    8.9.0.a.b.c.d.e.f.g.h.i.j.k.l.m.n., ].) ! ! ! ! ! ! ! ! ! ! ! ! ! ! ! ! ! ! ! ! ! ! ! ! ! ! ! ! ! ! ! ! ! ! ! ! ! ! ! ! ! ! ",
"o.  ~ p.q.r.s.t.u.v.w.x.y.z.A.B.C.....w ].) ! ! ! ! ! ! ! ! ! ! ! ! ! ! ! ! ! ! ! ! ! ! ! ! ! ! ! ! ! ! ! ! ! ! ! ! ! ! ! ! ! ! ",
"D.  E.F.G.H.I.J.K.L.M.N.O.P.Q.b .., R.S.) ! ! ! ! ! ! ! ! ! ! ! ! ! ! ! ! ! ! ! ! ! ! ! ! ! ! ! ! ! ! ! ! ! ! ! ! ! ! ! ! ! ! ! ",
"T.U.V.W.X.Y.Z.`. +.+++m.@+{.#+..w ' ].]., R.! ! ! ! ! ! ! ! ! ! ! ! ! ! ! ! ! ! ! ! ! ! ! ! ! ! ! ! ! ! ! ! ! ! ! ! ! ! ! ! ! ! ",
"$+%+w.&+*+=+-+;+>+,+'+)+!+1 ].R.S.].! ! ]., w ~+! ! ! ! ! ! ! ! ! ! ! ! ! ! ! ! ! ! ! ! ! ! ! ! ! ! ! ! ! ! ! ! ! ! ! ! ! ! ! ! ",
"{+]+x.^+/+(+_+:+<+[+}+|+1 ].) ! ].! ! ! ! ].S.].) ! ! ! ! ! ! ! ! ! ! ! ! ! ! ! ! ! ! ! ! ! ! ! ! ! ! ! ! ! ! ! ! ! ! ! ! ! ! ! ",
"1+2+0 3+4+5+6+7+8+9+0+a+b+) ! ! ! ! ! ! ! ! ].].! ! ! ! ! ! ! ! ! ! ! ! ! ! ! ! ! ! ! ! ! ! ! ! ! ! ! ! ! ! ! ! ! ! ! ! ! ! ! ! ",
"c+d+a r e+f+g+h+i+j+b k+, S.! ! ! ! ! ! ! ! ! ) ! ! ! ! ! ! ! ! ! ! ! ! ! ! ! ! ! ! ! ! ! ! ! ! ! ! ! ! ! ! ! ! ! ! ! ! ! ! ! ! ",
"l+m+b s n+o+p+q+r+s+t+, w S.].! ! ! ! ! ! ! ! ! ! ! ! ! ! ! ! ! ! ! ! ! ! ! ! ! ! ! ! ! ! ! ! ! ! ! ! ! ! ! ! ! ! ! ! ! ! ! ! ! ",
"u+v+c w+x+y+z+A+B+C+D+w S.].! ! ! ! ! ! ! ! ! ! ! ! ! ! ! ! ! ! ! ! ! ! ! ! ! ! ! ! ! ! ! ! ! ! ! ! ! ! ! ! ! ! ! ! ! ! ! ! ! ! ",
"E+F+N u G+C.H+I+J+K+L+w ].! ! ! ! ! ! ! ! ! ! ! ! ! ! ! ! ! ! ! ! ! ! ! ! ! ! ! ! ! ! ! ! ! ! ! ! ! ! ! ! ! ! ! ! ! ! ! ! ! ! ! ",
"M+N+O+v {.D+P+Q+R+#+S+c ].! ! ! ! ! ! ! ! ! ! ! ! ! ! ! ! ! ! ! ! ! ! ! ! ! ! ! ! ! ! ! ! ! ! ! ! ! ! ! ! ! ! ! ! ! ! ! ! ! ! ! ",
"n.T+f w 1 U+R.V+N , W+c ' ! ! ! ! ! ! ! ! ! ! ! ! ! ! ! ! ! ! ! ! ! ! ! ! ! ! ! ! ! ! ! ! ! ! ! ! ! ! ! ! ! ! ! ! ! ! ! ! ! ! ! ",
", 1 1 ) ' ].].#+f w S.w w S.R.~+) ! ! ! ! ! ! ! ! ! ! ! ! ! ! ! ! ! ! ! ! ! ! ! ! ! ! ! ! ! ! ! ! ! ! ! ! ! ! ! ! ! ! ! ! ! ! ! ",
"' ' ) ! ! ! ! S., ].].].S.) ~+].].! ! ! ! ! ! ! ! ! ! ! ! ! ! ! ! ! ! ! ! ! ! ! ! ! ! ! ! ! ! ! ! ! ! ! ! ! ! ! ! ! ! ! ! ! ! ! ",
") ! ! ! ! ! ! ].].) ! ! ].! ].) ! ! ! ! ! ! ! ! ! ! ! ! ! ! ! ! ! ! ! ! ! ! ! ! ! ! ! ! ! ! ! ! ! ! ! ! ! ! ! ! ! ! ! ! ! ! ! ! ",
"! ! ! ! ! ! ! ! ) ! ! ! ! ! ! ! ! ! ! ! ! ! ! ! ! ! ! ! ! ! ! ! ! ! ! ! ! ! ! ! ! ! ! ! ! ! ! ! ! ! ! ! ! ! ! ! ! ! ! ! ! ! ! ! ",
"! ! ! ! ! ! ! ! ! ! ! ! ! ! ! ! ! ! ! ! ! ! ! ! ! ! ! ! ! ! ! ! ! ! ! ! ! ! ! ! ! ! ! ! ! ! ! ! ! ! ! ! ! ! ! ! ! ! ! ! ! ! ! ! ",
"! ! ! ! ! ! ! ! ! ! ! ! ! ! ! ! ! ! ! ! ! ! ! ! ! ! ! ! ! ! ! ! ! ! ! ! ! ! ! ! ! ! ! ! ! ! ! ! ! ! ! ! ! ! ! ! ! ! ! ! ! ! ! ! ",
"! ! ! ! ! ! ! ! ! ! ! ! ! ! ! ! ! ! ! ! ! ! ! ! ! ! ! ! ! ! ! ! ! ! ! ! ! ! ! ! ! ! ! ! ! ! ! ! ! ! ! ! ! ! ! ! ! ! ! ! ! ! ! ! ",
"! ! ! ! ! ! ! ! ! ! ! ! ! ! ! ! ! ! ! ! ! ! ! ! ! ! ! ! ! ! ! ! ! ! ! ! ! ! ! ! ! ! ! ! ! ! ! ! ! ! ! ! ! ! ! ! ! ! ! ! ! ! ! ! ",
"! ! ! ! ! ! ! ! ! ! ! ! ! ! ! ! ! ! ! ! ! ! ! ! ! ! ! ! ! ! ! ! ! ! ! ! ! ! ! ! ! ! ! ! ! ! ! ! ! ! ! ! ! ! ! ! ! ! ! ! ! ! ! ! ",
"! ! ! ! ! ! ! ! ! ! ! ! ! ! ! ! ! ! ! ! ! ! ! ! ! ! ! ! ! ! ! ! ! ! ! ! ! ! ! ! ! ! ! ! ! ! ! ! ! ! ! ! ! ! ! ! ! ! ! ! ! ! ! ! ",
"! ! ! ! ! ! ! ! ! ! ! ! ! ! ! ! ! ! ! ! ! ! ! ! ! ! ! ! ! ! ! ! ! ! ! ! ! ! ! ! ! ! ! ! ! ! ! ! ! ! ! ! ! ! ! ! ! ! ! ! ! ! ! ! ",
"! ! ! ! ! ! ! ! ! ! ! ! ! ! ! ! ! ! ! ! ! ! ! ! ! ! ! ! ! ! ! ! ) ) ) ) ) ) ) ) ) ) ! ! ! ! ! ! ! ! ! ! ! ! ! ! ! ! ! ! ! ! ! ! ",
"! ! ! ! ! ! ! ! ! ! ! ! ! ! ! ! ! ! ! ! ! ! ! ! ! ! ! ! ! ! ! ! ) ) ) ) ) ) ) ) ) ) ! ! ! ! ! ! ! ! ! ! ! ! ! ! ! ! ! ! ! ! ! ! ",
"! ! ! ! ! ! ! ! ! ! ! ! ! ! ! ! ! ! ! ! ! ! ! ! ! ! ! ! ! ! ! ! ) ) ) ) ) ) ) ) ) ) ) ! ! ! ! ! ! ! ! ! ! ! ! ! ! ! ! ! ! ! ! ! ",
"! ! ! ! ! ! ! ! ! ! ! ! ! ! ! ! ! ! ! ! ! ! ! ! ! ! ! ! ! ! ! ! ) ) ) ) ) ) ) ) ) ) ) ! ! ! ! ! ! ! ! ! ! ! ! ! ! ! ! ! ! ! ! ! ",
"! ! ! ! ! ! ! ! ! ! ! ! ! ! ! ! ! ! ! ! ! ! ! ! ! ! ! ! ! ! ! ! ) ) ) ) ) ) ) ) ) ) ) ! ! ! ! ! ! ! ! ! ! ! ! ! ! ! ! ! ! ! ! ! ",
"! ! ! ! ! ! ! ! ! ! ! ! ! ! ! ! ! ! ! ! ! ! ! ! ! ! ! ! ! ! ! ! ) ) ) ) ) ) ) ) ) ) ) ! ! ! ! ! ! ! ) w X+' ! ! ! ! ! ! ! ! ! ! ",
"! ! ! ! ! ! ! ! ! ! ! ! ! ! ! ! ! ! ! ! ! ! ! ! ! ! ! ! ! ! ! ! ) ) ) ) ) ) ) ) ) ) ) ! ! ! ! ! ! ) ) w Y+Z+S+! ! ! ! ! ! ! ! ! ",
"! ! ! ! ! ! ! ! ! ! ! ! ! ! ! ! ! ! ! ! ! ! ! ! ! ! ! ! ! ! ! ! ) ) ) ) ) ) ) ) ) ) ) ! ! ! ! ! ! ) ].1 `+Z+ @b+! ! ].1 b+w 1 ' ",
"! ! ! ! ! ! ! ! ! ! ! ! ! ! ! ! ! ! ! ! ! ! ! ! ! ! ! ! ! ! ! ! ) ) ) ) ) ) ) ) ) ) ! ! ! ! ! ! ) ) ' , d .@+@@@]., X+> #@e > d ",
"! ! ! ! ! ! ! ! ! ! ! ! ! ! ! ! ! ! ! ! ! ! ! ! ! ! ! ! ! ! ! ! ) ) ) ) ) ) ) ) ) ) ! ! ! ! ! ! ! ]., | $@%@&@*@=@Y+-@;@>@>@,@'@",
"! ! ! ! ! ! ! ! ! ! ! ! ! ! ! ! ! ! ! ! ! ! ! ! ! ! ! ! ! ! ! ! ) ) ) ) ) ) ) ) ) ! ! ! ! ! ! ! ) ].w )@Z+!@~@{@]@^@/@(@_@(@(@:@",
"! ! ! ! ! ! ! ! ! ! ! ! ! ! ! ! ! ! ! ! ! ! ! ! ! ! ! ! ! ! ! ! ) ) ) ) ) ) ) ) ! ! ! ! ! ! ) ) ' w <@[@}@|@1@2@3@4@5@6@7@8@9@9@",
"! ! ! ! ! ! ! ! ! ! ! ! ! ! ! ! ! ! ! ! ! ! ! ! ! ! ! ! ! ! ! ! ) ) ) ) ) ) ) ! ! ! ! ! ! ) ].S., ..0@a@b@c@d@e@f@g@h@i@j@k@l@l@",
"! ! ! ! ! ! ! ! ! ! ! ! ! ! ! ! ! ! ! ! ! ! ! ! ! ! ! ! ! ! ! ! ! ! ) ! ! ! ! ! ! ! ! ! ) ].R.<@| Y+m@n@o@p@q@r@s@t@u@v@w@x@x@y@",
"! ! ! ! ! ! ! ! ! ! ! ! ! ! ! ! ! ! ! ! ! ! ! ! ! ! ! ! ! ! ! ! ! ! ) ! ! ! ! ! ! ! ! ) ].R.<@`+z@A@B@C@D@E@F@G@H@I@J@K@L@M@N@O@",
"! ! ! ! ! ! ! ! ! ! ! ! ! ! ! ! ! ! ! ! ! ! ! ! ! ! ! ! ! ! ! ! ! ! ) ! ! ! ! ! ! ! ) ].R.f P@Q@R@S@T@U@V@W@X@Y@Z@`@ #.#+#@###$#",
"! ! ! ! ! ! ! ! ! ! ! ! ! ! ! ! ! ! ! ! ! ! ! ! ! ! ! ! ! ! ! ! ! ! ) ! ! ! ! ! ! ) ) S., `+%#&#*#=#-#;#>#,#'#)#!#~#{#]#^#/#(#_#",
"! ! ! ! ! ! ! ! ! ! ! ! ! ! ! ! ! ! ! ! ! ! ! ! ! ! ! ! ! ! ! ! ! ! ) ! ! ! ! ! ! ) ].w f :#<#[#}#|#1#2#3#4#5#6#7#8#9#0#a#b#c#d#",
"! ! ! ! ! ! ! ! ! ! ! ! ! ! ! ! ! ! ! ! ! ! ! ! ! ! ! ! ! ! ! ! ! ! ! ) ! ! ! ! ) ) R.<@d e#f#g#h#i#j#k#l#m#n#o#p#q#r#s#t#u#v#w#",
"! ! ! ! ! ! ! ! ! ! ! ! ! ! ! ! ! ! ! ! ! ! ! ! ! ! ! ! ! ! ! ! ! ! ! ) ! ! ! ! ) ' , [@:#x#y#z#A#B#C#D#E#F#G#H#I#J#K#L#M#N#O#P#",
"! ! ! ! ! ! ! ! ! ! ! ! ! ! ! ! ! ! ! ! ! ! ! ! ! ! ! ! ! ! ! ! ! ! ! ) ) ! ! ! ].U+<@0@Q#R#S#T#U#V#W#X#Y#Z#`# $.$+$@$#$$$%$%$&$",
"! ! ! ! ! ! ! ! ! ! ! ! ! ! ! ! ! ! ! ! ! ! ! ! ! ! ! ! ! ! ! ! ! ! ! ! ! ! ! ) ! ) ' f *$=$-$;$V#>$,$'$)$!$~${$]$^$    /$($_$:$",
"! ! ! ! ! ! ! ! ! ! ! ! ! ! ! ! ! ! ! ! ! ! ! ! ! ! ! ! ! ! ! ! ! ! ! ! ! ! ! ! ! ! ) b+P@<$[$}$|$1$2$3$4$5$6$7$8$9$0$a$        ",
"! ! ! ! ! ! ! ! ! ! ! ! ! ! ! ! ! ! ! ! ! ! ! ! ! ! ! ! ! ! ! ! ! ! ! ! ! ! ! ! ! ! ) , > b$c$d$e$f$g$h$i$j$k$x@l$m$n$o$^$p$    ",
"! ! ! ! ! ! ! ! ! ! ! ! ! ! ! ! ! ! ! ! ! ! ! ! ! ! ! ! ! ! ! ! ! ! ! ! ! ! ! ! ! ! ].S+Y+q$r$s$t$u$v$w$x$y$z$A$B$C$D$E$y$F$    ",
"! ! ! ! ! ! ! ! ! ! ! ! ! ! ! ! ! ! ! ! ! ! ! ! ! ! ! ! ! ! ! ! ! ! ! ! ! ! ! ! ! ) 1 X+a@G$H$8@I$J$K$L$M$N$O$P$Q$R$S$T$U$      ",
"! ! ! ! ! ! ! ! ! ! ! ! ! ! ! ! ! ! ! ! ! ! ! ! ! ! ! ! ! ! ! ! ! ! ! ! ! ! ! ! ! ) 1 V$W$X$Y$Z$`$ %.%n$+%@%#%$%%%&%*%=%        ",
"! ! ! ! ! ! ! ! ! ! ! ! ! ! ! ! ! ! ! ! ! ! ! ! ! ! ! ! ! ! ! ! ! ! ! ! ! ! ! ! ! ! ) 1 -%;%>%,%'%)%!%~%{%]%F$^%/%y$(%_%        ",
"! ! ! ! ! ! ! ! ! ! ! ! ! ! ! ! ! ! ! ! ! ! ! ! ! ! ! ! ! ! ! ! ! ! ! ! ! ! ! ! ! ! ) 1 d :%<%[%}%|%1%2%3%4%5%6%7%8%            ",
"! ! ! ! ! ! ! ! ! ! ! ! ! ! ! ! ! ! ! ! ! ! ! ! ! ! ! ! ! ! ! ! ! ! ! ! ! ! ! ! ! ) ' #+9%....; 0%a%b%c%d%e%f%                  ",
"! ! ! ! ! ! ! ! ! ! ! ! ! ! ! ! ! ! ! ! ! ! ! ! ! ! ! ! ! ! ! ! ! ! ! ! ! ! ! ! ! ) 1 T+} g%H$~@h%i%j%k%l%]$m%                  ",
"! ! ! ! ! ! ! ! ! ! ! ! ! ! ! ! ! ! ! ! ! ! ! ! ! ! ! ! ! ! ! ! ! ! ! ! ! ! ! ! ! ]., > n%[ o%p%A$q%r%s%t%u%v%                  "};
