/* XPM */
static char * diag_tlbr_xpm[] = {
"64 64 594 2",
"  	c None",
". 	c #000000",
"+ 	c #010100",
"@ 	c #060802",
"# 	c #111506",
"$ 	c #171C08",
"% 	c #0E1106",
"& 	c #111408",
"* 	c #191E0A",
"= 	c #20260D",
"- 	c #272E10",
"; 	c #2F3917",
"> 	c #344B26",
", 	c #386035",
"' 	c #3C7545",
") 	c #408854",
"! 	c #45955F",
"~ 	c #4A9A63",
"{ 	c #153009",
"] 	c #010200",
"^ 	c #040501",
"/ 	c #0F1206",
"( 	c #1F260C",
"_ 	c #2C3515",
": 	c #252F14",
"< 	c #1A200B",
"[ 	c #262D10",
"} 	c #2D3514",
"| 	c #313C1A",
"1 	c #385E34",
"2 	c #3B7143",
"3 	c #3F8451",
"4 	c #42905B",
"5 	c #538656",
"6 	c #4D6D43",
"7 	c #254D13",
"8 	c #295415",
"9 	c #000100",
"0 	c #020300",
"a 	c #070903",
"b 	c #101307",
"c 	c #1C210B",
"d 	c #272F11",
"e 	c #2F3E1D",
"f 	c #263619",
"g 	c #2A3A1B",
"h 	c #2F4623",
"i 	c #32512B",
"j 	c #345D34",
"k 	c #326339",
"l 	c #2D6136",
"m 	c #234A20",
"n 	c #79A96C",
"o 	c #90C682",
"p 	c #3B5E30",
"q 	c #0E1006",
"r 	c #171B09",
"s 	c #1E240C",
"t 	c #293112",
"u 	c #314623",
"v 	c #2C4A27",
"w 	c #13200E",
"x 	c #19200A",
"y 	c #1D2E0A",
"z 	c #23470F",
"A 	c #295516",
"B 	c #36592B",
"C 	c #83B575",
"D 	c #7DAC6F",
"E 	c #5B824F",
"F 	c #214510",
"G 	c #030401",
"H 	c #090B04",
"I 	c #111407",
"J 	c #1F250C",
"K 	c #272F12",
"L 	c #2E3A1A",
"M 	c #324C28",
"N 	c #346137",
"O 	c #26512E",
"P 	c #17330D",
"Q 	c #1E4008",
"R 	c #234712",
"S 	c #628E55",
"T 	c #72A465",
"U 	c #7AAB6C",
"V 	c #5C8350",
"W 	c #3B6734",
"X 	c #4E8447",
"Y 	c #294C22",
"Z 	c #030301",
"` 	c #101406",
" .	c #1D240D",
"..	c #252D13",
"+.	c #283015",
"@.	c #2B381A",
"#.	c #2F4422",
"$.	c #345830",
"%.	c #376C40",
"&.	c #387749",
"*.	c #337246",
"=.	c #33683F",
"-.	c #4B7746",
";.	c #5D9154",
">.	c #6EA061",
",.	c #577F4C",
"'.	c #43783C",
").	c #467D40",
"!.	c #36612F",
"~.	c #0C1104",
"{.	c #1C2710",
"].	c #27371A",
"^.	c #2B4121",
"/.	c #31532D",
"(.	c #36693E",
"_.	c #3A794A",
":.	c #3F8855",
"<.	c #42925C",
"[.	c #438D58",
"}.	c #42703C",
"|.	c #619456",
"1.	c #2C4725",
"2.	c #325F2A",
"3.	c #3D7035",
"4.	c #3E7236",
"5.	c #305B29",
"6.	c #020301",
"7.	c #030501",
"8.	c #070B03",
"9.	c #0A1003",
"0.	c #12210C",
"a.	c #1E3116",
"b.	c #294827",
"c.	c #35683D",
"d.	c #3B7B4B",
"e.	c #3F8955",
"f.	c #418E59",
"g.	c #347043",
"h.	c #40753B",
"i.	c #426E3B",
"j.	c #274D1C",
"k.	c #346228",
"l.	c #36652B",
"m.	c #37672D",
"n.	c #274C1E",
"o.	c #040601",
"p.	c #081004",
"q.	c #162910",
"r.	c #1A3214",
"s.	c #1E3A1A",
"t.	c #224322",
"u.	c #214323",
"v.	c #1F421F",
"w.	c #224318",
"x.	c #2F5A24",
"y.	c #396B34",
"z.	c #224416",
"A.	c #274F18",
"B.	c #295119",
"C.	c #2C571E",
"D.	c #2D5720",
"E.	c #649158",
"F.	c #0B1406",
"G.	c #0F1A08",
"H.	c #192F15",
"I.	c #1F3B1D",
"J.	c #13270B",
"K.	c #1C3711",
"L.	c #214016",
"M.	c #2A5121",
"N.	c #1C3912",
"O.	c #1C3A09",
"P.	c #1E3D0A",
"Q.	c #20430D",
"R.	c #254A14",
"S.	c #1D3B12",
"T.	c #406839",
"U.	c #57844D",
"V.	c #5D8A53",
"W.	c #84B775",
"X.	c #050802",
"Y.	c #070C03",
"Z.	c #080F04",
"`.	c #0B1407",
" +	c #101E0D",
".+	c #0A1506",
"++	c #101F08",
"@+	c #14260A",
"#+	c #1A3210",
"$+	c #162D0E",
"%+	c #112303",
"&+	c #152B05",
"*+	c #183106",
"=+	c #1A3607",
"-+	c #23451C",
";+	c #43773F",
">+	c #4F864A",
",+	c #598E52",
"'+	c #55844C",
")+	c #77AD6A",
"!+	c #020401",
"~+	c #040702",
"{+	c #060B04",
"]+	c #050A03",
"^+	c #070C02",
"/+	c #091103",
"(+	c #0D1806",
"_+	c #0E1C08",
":+	c #081001",
"<+	c #0C1803",
"[+	c #102104",
"}+	c #132704",
"|+	c #1F3D16",
"1+	c #35652F",
"2+	c #386B32",
"3+	c #3E743A",
"4+	c #42753D",
"5+	c #5C9755",
"6+	c #68A55F",
"7+	c #030502",
"8+	c #030601",
"9+	c #050801",
"0+	c #070D03",
"a+	c #050901",
"b+	c #080E01",
"c+	c #0C1802",
"d+	c #152A0C",
"e+	c #224118",
"f+	c #274B1B",
"g+	c #2D5723",
"h+	c #2C5524",
"i+	c #43793E",
"j+	c #4C8A47",
"k+	c #4E8D49",
"l+	c #010300",
"m+	c #040800",
"n+	c #081203",
"o+	c #162A0B",
"p+	c #192E0A",
"q+	c #1F3910",
"r+	c #224015",
"s+	c #193107",
"t+	c #3B6F34",
"u+	c #3C7031",
"v+	c #3D7233",
"w+	c #091003",
"x+	c #0C1503",
"y+	c #111D04",
"z+	c #172908",
"A+	c #203E19",
"B+	c #152705",
"C+	c #325F27",
"D+	c #305A1F",
"E+	c #2F591F",
"F+	c #030500",
"G+	c #050A01",
"H+	c #0A1102",
"I+	c #1A3312",
"J+	c #3A6E33",
"K+	c #162D0F",
"L+	c #2C521E",
"M+	c #294913",
"N+	c #264410",
"O+	c #060B01",
"P+	c #254217",
"Q+	c #2F5421",
"R+	c #2E5624",
"S+	c #254215",
"T+	c #253E0E",
"U+	c #20350B",
"V+	c #101E08",
"W+	c #213611",
"X+	c #263E13",
"Y+	c #2D4C1C",
"Z+	c #253F16",
"`+	c #20320B",
" @	c #1B2A09",
".@	c #0E1707",
"+@	c #1A280C",
"@@	c #1F2E0C",
"#@	c #23330D",
"$@	c #2A4217",
"%@	c #18240A",
"&@	c #151F08",
"*@	c #151E09",
"=@	c #172108",
"-@	c #1A2509",
";@	c #23310D",
">@	c #243512",
",@	c #0F1406",
"'@	c #0E1405",
")@	c #121806",
"!@	c #141B07",
"~@	c #192209",
"{@	c #293712",
"]@	c #0F1405",
"^@	c #060902",
"/@	c #0B0F04",
"(@	c #0C1005",
"_@	c #0E1306",
":@	c #1D250B",
"<@	c #161E07",
"[@	c #050702",
"}@	c #060702",
"|@	c #020400",
"1@	c #040602",
"2@	c #060803",
"3@	c #020201",
"4@	c #020200",
"5@	c #030603",
"6@	c #010201",
"7@	c #0D1007",
"8@	c #070803",
"9@	c #040502",
"0@	c #050602",
"a@	c #050502",
"b@	c #020402",
"c@	c #181C0A",
"d@	c #141709",
"e@	c #0E1007",
"f@	c #131607",
"g@	c #080903",
"h@	c #070802",
"i@	c #040603",
"j@	c #030604",
"k@	c #23290E",
"l@	c #1A1F0B",
"m@	c #131608",
"n@	c #090C04",
"o@	c #111508",
"p@	c #0A0D05",
"q@	c #0B0E05",
"r@	c #121608",
"s@	c #111406",
"t@	c #101306",
"u@	c #0B0E04",
"v@	c #050703",
"w@	c #040905",
"x@	c #010302",
"y@	c #232A0E",
"z@	c #151908",
"A@	c #151909",
"B@	c #151808",
"C@	c #1B210B",
"D@	c #242C11",
"E@	c #181C09",
"F@	c #0C0F05",
"G@	c #060904",
"H@	c #060C07",
"I@	c #020503",
"J@	c #323D1B",
"K@	c #303A19",
"L@	c #282F11",
"M@	c #2A3112",
"N@	c #293113",
"O@	c #20260C",
"P@	c #1D230B",
"Q@	c #242D13",
"R@	c #1E2C14",
"S@	c #202811",
"T@	c #171B0A",
"U@	c #090E07",
"V@	c #070E08",
"W@	c #000101",
"X@	c #33421F",
"Y@	c #313D1B",
"Z@	c #2F3716",
"`@	c #252C10",
" #	c #2F3919",
".#	c #252C0E",
"+#	c #2C3717",
"@#	c #263317",
"##	c #274425",
"$#	c #25391D",
"%#	c #1D2713",
"&#	c #161F0F",
"*#	c #0D170B",
"=#	c #071008",
"-#	c #334723",
";#	c #323F1D",
">#	c #252D12",
",#	c #32401D",
"'#	c #303918",
")#	c #2F3817",
"!#	c #324622",
"~#	c #283B1D",
"{#	c #2F5631",
"]#	c #254426",
"^#	c #24391E",
"/#	c #1C2E19",
"(#	c #132313",
"_#	c #0E1D12",
":#	c #09150D",
"<#	c #040804",
"[#	c #344A25",
"}#	c #283719",
"|#	c #334421",
"1#	c #324522",
"2#	c #2D4624",
"3#	c #33562F",
"4#	c #356339",
"5#	c #244829",
"6#	c #2B4E2C",
"7#	c #244226",
"8#	c #19311C",
"9#	c #132818",
"0#	c #0D1B11",
"a#	c #060D07",
"b#	c #354E28",
"c#	c #344C27",
"d#	c #324D29",
"e#	c #304925",
"f#	c #354D27",
"g#	c #355730",
"h#	c #2E542F",
"i#	c #3A6C3F",
"j#	c #38673C",
"k#	c #2B5532",
"l#	c #2F5D38",
"m#	c #24482B",
"n#	c #17331E",
"o#	c #122917",
"p#	c #0E1D10",
"q#	c #091109",
"r#	c #010101",
"s#	c #447D4E",
"t#	c #35502A",
"u#	c #35522C",
"v#	c #325B34",
"w#	c #375D33",
"x#	c #375C33",
"y#	c #386036",
"z#	c #39693D",
"A#	c #3D7C4E",
"B#	c #499761",
"C#	c #448C58",
"D#	c #428151",
"E#	c #214B2D",
"F#	c #2C613C",
"G#	c #2B5634",
"H#	c #213D23",
"I#	c #182815",
"J#	c #11180C",
"K#	c #0B0E06",
"L#	c #54A26A",
"M#	c #4B9761",
"N#	c #3A7245",
"O#	c #1B3B21",
"P#	c #3B6F41",
"Q#	c #3C7546",
"R#	c #34673D",
"S#	c #3F8153",
"T#	c #4D9C65",
"U#	c #509E67",
"V#	c #4A925E",
"W#	c #327247",
"X#	c #38784A",
"Y#	c #31613A",
"Z#	c #284829",
"`#	c #1F321A",
" $	c #171F0F",
".$	c #0A0C04",
"+$	c #509F67",
"@$	c #4A9560",
"#$	c #1F3E22",
"$$	c #386C41",
"%$	c #3E7E4D",
"&$	c #3F8351",
"*$	c #32673E",
"=$	c #4D9B65",
"-$	c #4E9D66",
";$	c #4F9B65",
">$	c #326941",
",$	c #306039",
"'$	c #2B522F",
")$	c #274627",
"!$	c #243B1F",
"~$	c #202E17",
"{$	c #181F0D",
"]$	c #090B03",
"^$	c #30623D",
"/$	c #34693F",
"($	c #3E8251",
"_$	c #418B57",
":$	c #336E43",
"<$	c #3D7C50",
"[$	c #4F9D66",
"}$	c #438A57",
"|$	c #366238",
"1$	c #325933",
"2$	c #2A4A29",
"3$	c #22371D",
"4$	c #19220E",
"5$	c #111507",
"6$	c #0B0D04",
"7$	c #418D58",
"8$	c #43935D",
"9$	c #38764A",
"0$	c #3E7E51",
"a$	c #47915E",
"b$	c #3A6C40",
"c$	c #33552F",
"d$	c #26391C",
"e$	c #233016",
"f$	c #1E250E",
"g$	c #171C09",
"h$	c #0D0F05",
"i$	c #2D5D38",
"j$	c #438C58",
"k$	c #346C43",
"l$	c #2B5B39",
"m$	c #3A784B",
"n$	c #2E5631",
"o$	c #2B4221",
"p$	c #2F411E",
"q$	c #2A3516",
"r$	c #21270D",
"s$	c #191E09",
"t$	c #2E603B",
"u$	c #387649",
"v$	c #2E5B35",
"w$	c #325C34",
"x$	c #31522B",
"y$	c #2B3B19",
"z$	c #293414",
"A$	c #232B0E",
"B$	c #1C220A",
"C$	c #141808",
"D$	c #3A7A4C",
"E$	c #418C57",
"F$	c #346035",
"G$	c #2D4420",
"H$	c #2A3917",
"I$	c #283313",
"J$	c #252F10",
"K$	c #222A0D",
"L$	c #1F260B",
"M$	c #161A08",
"N$	c #3F8653",
"O$	c #35673B",
"P$	c #2B4622",
"Q$	c #283B1A",
"R$	c #263616",
"S$	c #222E11",
"T$	c #21290E",
"U$	c #232A0F",
"V$	c #1D220B",
"W$	c #31653C",
"X$	c #2E5B33",
"Y$	c #274A27",
"Z$	c #203417",
"`$	c #20280E",
" %	c #21280D",
".%	c #131707",
"+%	c #080A03",
"@%	c #131E0B",
"#%	c #223416",
"$%	c #273B19",
"%%	c #2B421D",
"&%	c #2B3C19",
"*%	c #293413",
"=%	c #232C0F",
"-%	c #1A1F0A",
";%	c #070902",
">%	c #2C5431",
",%	c #32643C",
"'%	c #34643A",
")%	c #31522C",
"!%	c #2A4322",
"~%	c #25381A",
"{%	c #263315",
"]%	c #2D3817",
"^%	c #3D7E4F",
"/%	c #3F8250",
"(%	c #375B32",
"_%	c #344924",
":%	c #303B19",
"<%	c #2C3514",
"[%	c #222A0E",
"}%	c #262F13",
"|%	c #2C3415",
"1%	c #346840",
"2%	c #44945E",
"3%	c #408653",
"4%	c #3C7244",
"5%	c #385D33",
"6%	c #344824",
"7%	c #2E3716",
"8%	c #262D0F",
"9%	c #181D0A",
"0%	c #101308",
"a%	c #0E1105",
"b%	c #151A06",
"c%	c #0D1005",
". . . . . . . . . . . . . . . . . . . . . . . . . . . . . . . . . . . . . . . + @ # $ % & * = - ; > , ' ) ! ~     {             ",
". . . . . . . . . . . . . . . . . . . . . . . . . . . . . . . . . . . . . . . ] ^ / ( _ : < [ } | > 1 2 3 4 5 6 7 8             ",
". . . . . . . . . . . . . . . . . . . . . . . . . . . . . . . . . . . . . . . 9 0 a b c d e f g h i j k l m n o p 8             ",
". . . . . . . . . . . . . . . . . . . . . . . . . . . . . . . . . . . . . . . 9 0 @ q r s t u v w x y z A B C D E F             ",
". . . . . . . . . . . . . . . . . . . . . . . . . . . . . . . . . . . . . . . 9 G H I * J K L M N O P Q R S T U V   W X Y       ",
". . . . . . . . . . . . . . . . . . . . . . . . . . . . . . . . . . . . . . . + Z a `  ...+.@.#.$.%.&.*.=.-.;.>.,.  '.).!.      ",
". . . . . . . . . . . . . . . . . . . . . . . . . . . . . . . . . . . . . . . . . 9 ] 0 ~.{.].^./.(._.:.<.[.}.|.1.2.3.4.5.      ",
". . . . . . . . . . . . . . . . . . . . . . . . . . . . . . . . . . . . . . . . 9 ] 6.7.8.9.0.a.b.c.d.e.f.g.h.i.j.k.l.m.n.      ",
". . . . . . . . . . . . . . . . . . . . . . . . . . . . . . . . . . . . . . . . 9 ] + ] o.p.q.r.s.t.u.v.w.x.y.z.A.B.C.D.      E.",
". . . . . . . . . . . . . . . . . . . . . . . . . . . . . . . . . . . . . . . . 9 . 9 + 6.F.G.0.H.I.J.K.L.M.N.O.P.Q.R.S.T.U.V.W.",
". . . . . . . . . . . . . . . . . . . . . . . . . . . . . . . . . . . . . . . . . . 9 + X.Y.Z.`. +.+++@+#+$+%+&+*+=+-+;+>+,+'+)+",
". . . . . . . . . . . . . . . . . . . . . . . . . . . . . . . . . . . . . . . . . . 9 !+7.7.~+{+]+^+/+(+_+:+<+[+}+|+1+2+3+4+5+6+",
". . . . . . . . . . . . . . . . . . . . . . . . . . . . . . . . . . . . . . . . 9 9 + + ] ] !+7+0 8+9+0+7.a+b+c+d+e+f+g+h+i+j+k+",
". . . . . . . . . . . . . . . . . . . . . . . . . . . . . . . . . 9 9 9 9 9 9 9 9 9 9 9 9 + ] ] ] ] l+] 9 l+m+n+o+p+q+r+s+t+u+v+",
". . . . . . . . . . . . . . . . . . . . . . . . . . . . . . . . 9 9 9 9 9 9 9 9 9 9 9 9 9 + 9 9 . . 9 . . . l+w+x+y+z+A+B+C+D+E+",
". . . . . . . . . . . . . . . . . . . . . . . . . . . . . . . . 9 9 9 9 9 9 9 9 9 9 9 9 9 9 9 . . . . . . . l+F+G+H+I+J+K+L+M+N+",
". . . . . . . . . . . . . . . . . . . . . . . . . . . . . . . . 9 9 9 9 9 9 9 9 9 9 9 9 9 . . . . . . . . . 9 + 0 O+P+Q+R+S+T+U+",
". . . . . . . . . . . . . . . . . . . . . . . . . . . . . . . . 9 9 9 9 9 9 9 9 9 9 9 9 9 . . . . . . . . . . . 9 V+W+X+Y+Z+`+ @",
". . . . . . . . . . . . . . . . . . . . . . . . . . . . . . . . . . . . . . 9 9 9 9 9 9 9 . . . . . . . . . . . . .@+@@@#@$@%@&@",
". . . . . . . . . . . . . . . . . . . . . . . . . . . . . . . . . . . . . . . . . 9 9 9 . . . . . . . . . . . . 9 7.*@=@-@;@>@,@",
". . . . . . . . . . . . . . . . . . . . . . . . . . . . . . . . . . . . . . . . . . 9 9 . . . . . . . . . . . . 9 9 '@)@!@~@{@]@",
". . . . . . . . . . . . . . . . . . . . . . . . . . . . . . . . . . . . . . . . . . . . . . . . . . . . . . . . . . ^@/@(@_@:@<@",
". . . . . . . . . . . . . . . . . . . . . . . . . . . . . . . . . . . . . . . . . . . . . . . . . . . . . . . . . . G [@}@@ % ` ",
". . . . . . . . . . . . . . . . . . . . . . . . . . . . . . . . . . . . . . . . . . . . . . . . . . . . . . . . . . + 0 0 |@1@2@",
". . . . . . . . . . . . . . . . . . . . . . . . . . . . . . . . . . . . . . . . . . . . . . . . . . . . . . . . . . . 9 9 ] ] ] ",
". . . . . . . . . . . . . . . . . . . . . . . . . . . . . . . . . . . . . . . . . . . . . . . . . . . . . . . . . . . . . . 9 9 ",
". . . . . . . . . . . . . . . . . . . . . . . . . . . . . . . . . . . . . . . . . . . . . . . . . . . . . . . . . . . . . . . . ",
". . . . . . . . . . . . . . . . . . . . . . . . . . . . . . . . . . . . . . . . . . . . . . . . . . . . . . . . . . . . . . . . ",
". . . . . . . . . . . . . . . . . . . . . . . . . . . . . . . . . . . . . . . . . . . . . . . . . . . . . . . . . . . . . . . . ",
". . . . . . . . . . . . . . . . . . . . . . . . . . . . . . . . . . . . . . . . . . . . . . . . . . . . . . . . . . . . . . . . ",
". . . . . . . . . . . . . . . . . . . . . . . . . . . . . . . . . . . . . . . . . . . . . . . . . . . . . . . . . . . . . . . . ",
". . . . . . . . . . . . . . . . . . . . . . . . . . . . . . . . . . . . . . . . . . . . . . . . . . . . . . . . . . . . . . . . ",
". . . . . . . . . . . . . . . . . . . . . . . . . . . . . . . . . . . . . . . . . . . . . . . . . . . . . . . . . . . . . . . . ",
". . . . . . . . . . . . . . . . . . . . . . . . . . . . . . . . . . . . . . . . . . . . . . . . . . . . . . . . . . . . . . . . ",
". . . . . . . . . . . . . . . . . . . . . . . . . . . . . . . . . . . . . . . . . . . . . . . . . . . . . . . . . . . . . . . . ",
". . . . . . . . . . . . . . . . . . . . . . . . . . . . . . . . . . . . . . . . . . . . . . . . . . . . . . . . . . . . . . . . ",
". . . . . . . . . . . 9 + 9 . . . . . . . . . . . . . . . . . . . . . . . . . . . . . . . . . . . . . . . . . . . . . . . . . . ",
". . . . . . . . . . . . + + + . . . . . . . . . . . . . . . . . . . . . . . . . . . . . . . . . . . . . . . . . . . . . . . . . ",
". . . . . . . . . . . . . 3@+ . . . . . . . . . . . . . . . . . . . . . . . . . . . . . . . . . . . . . . . . . . . . . . . . . ",
"9 . . . . . . . 9 9 9 9 + 3@4@+ . . . . . . . . . . . . . . . . . . . . . . . . . . . . . . . . . . . . . . . . . . . . . . . . ",
"1@0 . . 9 9 9 9 ] ] ] 0 6.6.5@6@9 . . . . . . . . . . . . . . . . . . . . . . . . . . . . . . . . . . . . . . . . . . . . . . . ",
"7@H 1@+ ] ] ] l+G 8@9@0@a@^ 5@b@9 . . . . . . . . . . . . . . . . . . . . . . . . . . . . . . . . . . . . . . . . . . . . . . . ",
"c@d@e@a 7.[@7.o.H f@H H g@h@i@j@6@. . . . . . . . . . . . . . . . . . . . . . . . . . . . . . . . . . . . . . . . . . . . . . . ",
"k@J l@m@n@o@p@q@r@s s@t@u@H v@w@x@9 . . . . . . . . . . . . . . . . . . . . . . . . . . . . . . . . . . . . . . . . . . . . . . ",
"} [ y@J z@s A@B@C@D@E@c@` F@G@H@I@6@. . . . . . . . . . . . . . . . . . . . . . . . . . . . . . . . . . . . . . . . . . . . . . ",
"J@K@L@M@J N@O@P@k@Q@R@S@T@& U@V@w@b@W@. . . . . . . . . . . . . . . . . . . . . . . . . . . . . . . . . . . . . . . . . . . . . ",
"X@X@Y@Z@`@ #L@.#+#@###$#%#&#*#=#w@j@x@9 . . . . . . . . . . . . . . . . . . . . . . . . . . . . . . . . . . . . . . . . . . . . ",
"-#-#-#;#>#,#'#)#!#~#{#]#^#/#(#_#:#<#j@x@W@. . . . . . . . . . . . . . . . . . . . . . . . . . . . . . . . . . . . . . . . . . . ",
"> > > [#}#|#X@1#2#3#4#5#6#7#8#9#0#a#w@j@x@W@. . . . . . . . . . . . . . . . . . . . . . . . . . . . . . . . . . . . . . . . . . ",
"b#c#c#d#e#f#b#g#h#i#j#k#l#m#n#o#p#q#G@7+6.6@r#9 . . . . . . . . . . . . . . . . . . . . . . . . . . . . . . . . . . . . . . . . ",
"s#t#u#v#w#x#y#z#A#B#C#D#E#F#G#H#I#J#K#8@^ 6.+ . . . . . . . . . . . . . . . . . . . . . . . . . . . . . . . . . . . . . . . . . ",
"L#M#N#O#z#P#Q#R#S#T#U#V#W#X#Y#Z#`# $b .$}@G ] 9 . . . . . . . . . . . . . . . . . . . . . . . . . . . . . . . . . . . . . . . . ",
"+$@$#$  $$%$&$*$  =$-$;$>$,$'$)$!$~${$t@]$a@3@9 . . . . . . . . . . . . . . . . . . . . . . . . . . . . . . . . . . . . . . . . ",
"^$      /$($_$:$  <$-$[$U#}$|$1$2$3$4$5$6$0@6.9 . . . . . . . . . . . . . . . . . . . . . . . . . . . . . . . . . . . . . . . . ",
"          7$8$9$    0$a$T#B#b$c$d$e$S@f$g$h$9@+ . . . . . . . . . . . . . . . . . . . . . . . . . . . . . . . . . . . . . . . . ",
"          i$j$k$        l$m$n$o$p$q$r$s$/ 8@6.9 9 . . . . . . . . . . . . . . . . . . . . . . . . . . . . . . . . . . . . . . . ",
"                    t$u$v$w$x$y$z$A$B$C$p@^ ] 9 . . . . . . . . . . . . . . . . . . . . . . . . . . . . . . . . . . . . . . . . ",
"                    D$E$F$G$H$I$J$K$L$M$6$F+] 9 . . . . . . . . . . . . . . . . . . . . . . . . . . . . . . . . . . . . . . . . ",
"                      N$O$P$Q$R$S$T$U$V$I o.9 . . . . . . . . . . . . . . . . . . . . . . . . . . . . . . . . . . . . . . . . . ",
"                        W$X$Y$Z$`$ %B$.%+%G ] . . . . . . . . . . . . . . . . . . . . . . . . . . . . . . . . . . . . . . . . . ",
"                        @%#%$%%%&%*%=%-%s@;%0 9 . . . . . . . . . . . . . . . . . . . . . . . . . . . . . . . . . . . . . . . . ",
"                    >%,%'%j )%!%~%{%]%d c b @ 0 + . . . . . . . . . . . . . . . . . . . . . . . . . . . . . . . . . . . . . . . ",
"                  ^%4 /%P#(%_%:%<%[%l@}%|%s % 1@] 9 . . . . . . . . . . . . . . . . . . . . . . . . . . . . . . . . . . . . . . ",
"                1%~ 2%3%4%5%6%7%8%J 9%0%a%b%c%1@+ . . . . . . . . . . . . . . . . . . . . . . . . . . . . . . . . . . . . . . . "};
