/* XPM */
static char * player_walk_16_xpm[] = {
"64 64 575 2",
"  	c None",
". 	c #1F2634",
"+ 	c #303A4D",
"@ 	c #343F53",
"# 	c #333E51",
"$ 	c #2D3749",
"% 	c #222937",
"& 	c #1E2533",
"* 	c #3A465C",
"= 	c #2A3445",
"- 	c #354055",
"; 	c #3C485F",
"> 	c #3B475E",
", 	c #323D50",
"' 	c #1E2532",
") 	c #364359",
"! 	c #45546F",
"~ 	c #2F394C",
"{ 	c #283142",
"] 	c #374359",
"^ 	c #3B485E",
"/ 	c #404D64",
"( 	c #3E4B62",
"_ 	c #3A465D",
": 	c #2D3648",
"< 	c #4E5F7D",
"[ 	c #3D4A62",
"} 	c #262F3F",
"| 	c #38445A",
"1 	c #3C495F",
"2 	c #404D65",
"3 	c #333E52",
"4 	c #1D2430",
"5 	c #262E3E",
"6 	c #323C50",
"7 	c #364156",
"8 	c #39465C",
"9 	c #3D4960",
"0 	c #414E66",
"a 	c #374358",
"b 	c #323D51",
"c 	c #202734",
"d 	c #242C3C",
"e 	c #2F394B",
"f 	c #333F53",
"g 	c #3C4960",
"h 	c #42506A",
"i 	c #2E384B",
"j 	c #232B3A",
"k 	c #2C3648",
"l 	c #45536D",
"m 	c #485772",
"n 	c #414F68",
"o 	c #293244",
"p 	c #222A39",
"q 	c #2B3446",
"r 	c #313C4F",
"s 	c #3E4C64",
"t 	c #44526C",
"u 	c #4A5A75",
"v 	c #4E5E7B",
"w 	c #4A5975",
"x 	c #404E67",
"y 	c #2D374A",
"z 	c #1F2633",
"A 	c #181E29",
"B 	c #222A38",
"C 	c #2A3344",
"D 	c #2F3A4E",
"E 	c #354157",
"F 	c #4F5E7B",
"G 	c #46546D",
"H 	c #404A5E",
"I 	c #414654",
"J 	c #252933",
"K 	c #161C28",
"L 	c #171D28",
"M 	c #181E28",
"N 	c #202836",
"O 	c #273142",
"P 	c #2C3649",
"Q 	c #303B4F",
"R 	c #333E53",
"S 	c #303A4E",
"T 	c #2B2E36",
"U 	c #343740",
"V 	c #32353E",
"W 	c #3E414B",
"X 	c #2C2E37",
"Y 	c #151B27",
"Z 	c #161C27",
"` 	c #181D28",
" .	c #1C222E",
"..	c #1C232F",
"+.	c #1D232F",
"@.	c #1F2632",
"#.	c #181E2A",
"$.	c #141A25",
"%.	c #161B27",
"&.	c #181F2B",
"*.	c #19202C",
"=.	c #1A212E",
"-.	c #282A31",
";.	c #353741",
">.	c #32353D",
",.	c #161D28",
"'.	c #232C3B",
").	c #293345",
"!.	c #293243",
"~.	c #283141",
"{.	c #293242",
"].	c #2A3343",
"^.	c #1C222D",
"/.	c #191F2B",
"(.	c #131823",
"_.	c #19202D",
":.	c #191F2C",
"<.	c #212530",
"[.	c #363943",
"}.	c #454853",
"|.	c #363A45",
"1.	c #39455C",
"2.	c #41506A",
"3.	c #3F4D66",
"4.	c #191F29",
"5.	c #191F2A",
"6.	c #181F2A",
"7.	c #151B26",
"8.	c #121722",
"9.	c #171D29",
"0.	c #202735",
"a.	c #343946",
"b.	c #3F485A",
"c.	c #47546E",
"d.	c #516281",
"e.	c #516280",
"f.	c #50617F",
"g.	c #50607E",
"h.	c #4D5D79",
"i.	c #414F67",
"j.	c #303B4E",
"k.	c #1B222D",
"l.	c #1A212D",
"m.	c #1C2330",
"n.	c #202937",
"o.	c #2A3446",
"p.	c #344055",
"q.	c #4B5B78",
"r.	c #556786",
"s.	c #586B8C",
"t.	c #5C7092",
"u.	c #607396",
"v.	c #617498",
"w.	c #5E7294",
"x.	c #50617E",
"y.	c #3D4A61",
"z.	c #242B39",
"A.	c #0A0C0F",
"B.	c #1E2431",
"C.	c #202733",
"D.	c #232C3A",
"E.	c #425069",
"F.	c #46556F",
"G.	c #4B5B76",
"H.	c #51617E",
"I.	c #566786",
"J.	c #5A6C8C",
"K.	c #5D7092",
"L.	c #546685",
"M.	c #3F4D64",
"N.	c #242B38",
"O.	c #141517",
"P.	c #131313",
"Q.	c #111111",
"R.	c #0D0D0D",
"S.	c #1F2532",
"T.	c #202835",
"U.	c #232A38",
"V.	c #273040",
"W.	c #2E394C",
"X.	c #425068",
"Y.	c #45526B",
"Z.	c #384459",
"`.	c #3A4456",
" +	c #353C45",
".+	c #1B1F27",
"++	c #151516",
"@+	c #171717",
"#+	c #212119",
"$+	c #A5A525",
"%+	c #6D6D22",
"&+	c #121212",
"*+	c #0F0F0F",
"=+	c #050505",
"-+	c #212836",
";+	c #242B3A",
">+	c #27303F",
",+	c #2C3647",
"'+	c #2F3A4D",
")+	c #1D232E",
"!+	c #0F1013",
"~+	c #191913",
"{+	c #BEBE26",
"]+	c #DADA23",
"^+	c #3E3E20",
"/+	c #181818",
"(+	c #494924",
"_+	c #F7F717",
":+	c #CCCC26",
"<+	c #171714",
"[+	c #101010",
"}+	c #070707",
"|+	c #05070B",
"1+	c #040405",
"2+	c #080808",
"3+	c #0B0B0B",
"4+	c #0E0E0E",
"5+	c #2D2D1A",
"6+	c #EDED1E",
"7+	c #FEFE03",
"8+	c #808029",
"9+	c #3E3E21",
"0+	c #F1F11C",
"a+	c #D3D324",
"b+	c #181814",
"c+	c #060606",
"d+	c #141820",
"e+	c #0E1014",
"f+	c #0B0B0C",
"g+	c #1C1C15",
"h+	c #CECE25",
"i+	c #F7F712",
"j+	c #636326",
"k+	c #1B1B18",
"l+	c #909025",
"m+	c #797922",
"n+	c #131312",
"o+	c #101011",
"p+	c #272A32",
"q+	c #2C3545",
"r+	c #30394A",
"s+	c #353C4B",
"t+	c #363B45",
"u+	c #38393E",
"v+	c #3F3D3E",
"w+	c #595644",
"x+	c #706E43",
"y+	c #1E1E1B",
"z+	c #161616",
"A+	c #141414",
"B+	c #3F3E41",
"C+	c #625F60",
"D+	c #4C4F5A",
"E+	c #394152",
"F+	c #1B212D",
"G+	c #262E3D",
"H+	c #293241",
"I+	c #2B3546",
"J+	c #333D50",
"K+	c #3E485A",
"L+	c #585C6A",
"M+	c #8F8A8D",
"N+	c #8F8B8D",
"O+	c #525560",
"P+	c #19191B",
"Q+	c #151515",
"R+	c #2A2C32",
"S+	c #76757B",
"T+	c #7E7B7F",
"U+	c #364052",
"V+	c #2F3848",
"W+	c #212937",
"X+	c #364154",
"Y+	c #3B4659",
"Z+	c #646772",
"`+	c #9A9494",
" @	c #666872",
".@	c #323640",
"+@	c #3C414C",
"@@	c #868386",
"#@	c #66676F",
"$@	c #313C4D",
"%@	c #2A3241",
"&@	c #1E2633",
"*@	c #252F3D",
"=@	c #2F394D",
"-@	c #333D51",
";@	c #384256",
">@	c #3F485B",
",@	c #8F8B8F",
"'@	c #7E7D85",
")@	c #394151",
"!@	c #0E0F0F",
"~@	c #0D0D0E",
"{@	c #4D515D",
"]@	c #8A8B95",
"^@	c #565A67",
"/@	c #252D3A",
"(@	c #1D2532",
"_@	c #222B3B",
":@	c #273041",
"<@	c #2B3547",
"[@	c #313C50",
"}@	c #354054",
"|@	c #354155",
"1@	c #757784",
"2@	c #9697A3",
"3@	c #505869",
"4@	c #202530",
"5@	c #13171F",
"6@	c #646877",
"7@	c #888DA0",
"8@	c #3F4757",
"9@	c #2D3748",
"0@	c #272F3D",
"a@	c #1F2735",
"b@	c #212B3A",
"c@	c #222C3D",
"d@	c #253042",
"e@	c #293548",
"f@	c #2E3A4E",
"g@	c #303D51",
"h@	c #313E52",
"i@	c #4B5263",
"j@	c #979BAB",
"k@	c #797E8F",
"l@	c #353E4E",
"m@	c #252C3B",
"n@	c #858691",
"o@	c #797C89",
"p@	c #303A4C",
"q@	c #2A3242",
"r@	c #1F252E",
"s@	c #212939",
"t@	c #212A3B",
"u@	c #222D3E",
"v@	c #242F41",
"w@	c #273346",
"x@	c #2C384C",
"y@	c #2D3B4F",
"z@	c #2F3C51",
"A@	c #828799",
"B@	c #9095A8",
"C@	c #434B5C",
"D@	c #5A595F",
"E@	c #959093",
"F@	c #484D5B",
"G@	c #2E3A4C",
"H@	c #2C3748",
"I@	c #232A36",
"J@	c #1C2432",
"K@	c #202A3A",
"L@	c #242F40",
"M@	c #263144",
"N@	c #2B384C",
"O@	c #2C3A4F",
"P@	c #2D3B50",
"Q@	c #2E3B50",
"R@	c #5A6071",
"S@	c #9398AB",
"T@	c #5C616F",
"U@	c #44464F",
"V@	c #837F82",
"W@	c #2D364A",
"X@	c #2D394C",
"Y@	c #2B3648",
"Z@	c #262E3C",
"`@	c #1E2737",
" #	c #202A3B",
".#	c #212B3D",
"+#	c #242E40",
"@#	c #283447",
"##	c #28364A",
"$#	c #2B384D",
"%#	c #2C394E",
"&#	c #2D3A4F",
"*#	c #7D8090",
"=#	c #353F51",
"-#	c #3A3E4A",
";#	c #273347",
">#	c #2B374A",
",#	c #1F242F",
"'#	c #1D2534",
")#	c #1E2839",
"!#	c #202B3D",
"~#	c #222D40",
"{#	c #243044",
"]#	c #263348",
"^#	c #28354A",
"/#	c #2A374C",
"(#	c #2F3C50",
"_#	c #707280",
":#	c #84848F",
"<#	c #3D4759",
"[#	c #253045",
"}#	c #293448",
"|#	c #293347",
"1#	c #273144",
"2#	c #262E3F",
"3#	c #1E2530",
"4#	c #141A24",
"5#	c #171F2C",
"6#	c #1B2535",
"7#	c #1E293B",
"8#	c #212C40",
"9#	c #232E43",
"0#	c #263147",
"a#	c #273349",
"b#	c #28344A",
"c#	c #2B374D",
"d#	c #565A68",
"e#	c #86838B",
"f#	c #283243",
"g#	c #202A3F",
"h#	c #232E41",
"i#	c #222C3E",
"j#	c #191E27",
"k#	c #191E26",
"l#	c #161A21",
"m#	c #141922",
"n#	c #161E2B",
"o#	c #192131",
"p#	c #1B2435",
"q#	c #1C2638",
"r#	c #1D283B",
"s#	c #202A3D",
"t#	c #313848",
"u#	c #5C5C65",
"v#	c #464852",
"w#	c #10141D",
"x#	c #151A22",
"y#	c #15171C",
"z#	c #17191D",
"A#	c #181D26",
"B#	c #1A2029",
"C#	c #1B2028",
"D#	c #1B2128",
"E#	c #1B2027",
"F#	c #1B2025",
"G#	c #1A1E23",
"H#	c #1A1D22",
"I#	c #191D21",
"J#	c #191C21",
"K#	c #191C20",
"L#	c #1B1D22",
"M#	c #1B1E23",
"N#	c #111418",
"O#	c #1A1F28",
"P#	c #1B202A",
"Q#	c #1B202B",
"R#	c #1C212B",
"S#	c #1D222C",
"T#	c #1E232D",
"U#	c #1F242D",
"V#	c #1E232C",
"W#	c #1E222A",
"X#	c #1D2229",
"Y#	c #1D2128",
"Z#	c #1D2127",
"`#	c #1C2026",
" $	c #1B1F26",
".$	c #1A1F26",
"+$	c #14181E",
"@$	c #1B212B",
"#$	c #1C222C",
"$$	c #1E2430",
"%$	c #202632",
"&$	c #212734",
"*$	c #212733",
"=$	c #202631",
"-$	c #1F242E",
";$	c #1D222A",
">$	c #1C2129",
",$	c #1A2027",
"'$	c #161B22",
")$	c #1A1F29",
"!$	c #1B212C",
"~$	c #222835",
"{$	c #212834",
"]$	c #1F232D",
"^$	c #1D232C",
"/$	c #1A2028",
"($	c #181D25",
"_$	c #1C232E",
":$	c #222936",
"<$	c #212835",
"[$	c #1F2530",
"}$	c #1F2531",
"|$	c #1E2531",
"1$	c #1D2330",
"2$	c #1F2734",
"3$	c #212938",
"4$	c #222A37",
"5$	c #212936",
"6$	c #1C212A",
"7$	c #242C39",
"8$	c #212837",
"9$	c #222938",
"0$	c #232A39",
"a$	c #1C212C",
"b$	c #171D26",
"c$	c #2B3545",
"d$	c #2E3849",
"e$	c #222B3A",
"f$	c #212A38",
"g$	c #212735",
"h$	c #1F2430",
"i$	c #1E232F",
"j$	c #242C3A",
"k$	c #1A202A",
"l$	c #2E394A",
"m$	c #404D66",
"n$	c #3E4B64",
"o$	c #3C4A62",
"p$	c #37445B",
"q$	c #262F3E",
"r$	c #364258",
"s$	c #2C3646",
"t$	c #283140",
"u$	c #242D3D",
"v$	c #252E40",
"w$	c #2D384B",
"x$	c #414E67",
"y$	c #45536E",
"z$	c #495875",
"A$	c #526383",
"B$	c #5B6F93",
"C$	c #5F7499",
"D$	c #657AA0",
"E$	c #687DA3",
"F$	c #677CA3",
"G$	c #667BA1",
"H$	c #5B6E90",
"I$	c #4A5A76",
"J$	c #343F52",
"K$	c #2E384A",
"L$	c #272F3E",
"M$	c #171E2A",
"N$	c #202837",
"O$	c #242E3F",
"P$	c #283244",
"Q$	c #2A3447",
"R$	c #323E53",
"S$	c #495976",
"T$	c #536585",
"U$	c #61769C",
"V$	c #687EA5",
"W$	c #6F85AD",
"X$	c #6A7FA6",
"Y$	c #576A8B",
"Z$	c #485773",
"`$	c #38455B",
" %	c #161B24",
".%	c #04060B",
"+%	c #1C2433",
"@%	c #252E3F",
"#%	c #283245",
"$%	c #273244",
"%%	c #283144",
"&%	c #333F54",
"*%	c #38455D",
"=%	c #303B50",
"-%	c #2B3649",
";%	c #273042",
">%	c #161B25",
",%	c #1A2230",
"'%	c #222B3C",
")%	c #252F41",
"!%	c #283346",
"~%	c #293346",
"{%	c #1A222E",
"]%	c #121821",
"^%	c #000000",
"/%	c #10161F",
"(%	c #131923",
"                                                                                                                                ",
"                                                                                                                                ",
"                                                                                                                                ",
"                                                                                                                                ",
"                                                                                                                                ",
"                                                                                                                                ",
"                                                                                                                                ",
"                                                                                                                                ",
"                                                                                                                                ",
"                                          . + @ # $ %                                                                           ",
"                                        & * = - * ; > , '                                                                       ",
"                                        ) ! ~ { ] ^ / ( _ :                                                                     ",
"                                        = < [ } - | 1 2 / * 3 4                                                                 ",
"                                              5 6 7 8 9 0 ; a b c                                                               ",
"                                              d e f | g 2 h _ - i c                                                             ",
"                                              j k b ] g 2 l m n f o c                                                           ",
"                                              p q r | s t u v w x y z A                                                         ",
"                                              B C D E g l F G H I J K L A M                                                     ",
"                                              N O P Q R S % T U V W X Y Z L `  ...+.4 @. .                                      ",
"                                              #.L $.%.&.*.=.=.#.-.;.>.K ,.'.).!.~.~.{.].^.                                      ",
"                                              /.Z (.Z #.*._.:.<.[.}.|.1.2.3.[ _ ] R {.4.                                        ",
"                                            5.6.7.8.(.9.#.#.0.a.b.c.d.e.f.g.h.i.j...                                            ",
"                                            k.l.m.n.o.p.s q.r.s.t.u.v.w.x.y.z.A.                                                ",
"                                        B.C.D.= 3 g E.F.G.H.I.J.K.L.M.N.O.P.Q.R.                                                ",
"                                    S.z T.U.V.W.] y.X.Y.Z.9 `. +.+++@+#+$+%+&+*+=+                                              ",
"                                  @.-+% ;+>+,+'++ j U.)+!+~+{+]+^+/+/+(+_+:+<+[+}+                                              ",
"                                            |+1+=+2+3+4+Q.5+6+7+8+/+/+9+0+a+b+[+c+                                              ",
"                                            M 4.d+e+f+4+[+g+h+i+j+/+/+k+l+m+n+o+p+                                              ",
"                                            -+{.q+r+s+t+u+v+w+x+y+z+z+z+A+B+C+D+E+                                              ",
"                                            F+G+H+I+e J+K+L+M+N+O+P+Q+Q+R+S+T+U+V+                                              ",
"                                              W+>+].$ j.X+Y+Z+`+ @.@P.&++@@@#@$@%@                                              ",
"                                              &@*@{.k =@-@;@>@,@'@)@!@~@{@]@^@e /@                                              ",
"                                              (@_@:@<@W.[@}@|@1@2@3@4@5@6@7@8@9@0@                                              ",
"                                              a@b@c@d@e@f@g@h@i@j@k@l@m@n@o@p@: q@r@                                            ",
"                                            l.s@t@u@v@w@x@y@z@h@A@B@C@D@E@F@G@H@{.I@                                            ",
"                                            J@K@c@L@M@e@N@O@P@Q@R@S@T@U@V@W@X@Y@].Z@                                            ",
"                                            `@ #.#+#M@@###$#%#&#f *#1@=#-#;#>#Y@).{ ,#                                          ",
"                                          Z '#)#!#~#{#]#^#/#$#$#(#_#:#<#_@[#}#|#1#2#3#                                          ",
"                                            4#5#6#7#8#9#0#a#b#b#c#d#e#d#f#g#h#i#'#5.                                            ",
"                                            j#k#l#m#7.n#o#p#q#r#s#t#u#v#..w#x#y#z#                                              ",
"                                          A#B#B#C#C#D#E#F#G#H#I#J#K#K#L#M#M#L#L#H#N#                                            ",
"                                          O#P#P#P#Q#R#S#T#U#U#V#W#X#X#Y#Z#`#`# $.$+$                                            ",
"                                          P#P#@$#$)+$$%$C.&$*$=$-$-$T#W#;$;$>$,$,$'$                                            ",
"                                        )$@$!$^.+.$$@.c c ~$~${$*$=$,#T#]$^$R#P#/$($                                            ",
"                                        @$^._$+.B.z c -+-+% :$<$&$%$[$}$=$+.R#P#P#P#                                            ",
"                                      !$|$+.1$' 2$N W+3$B 4$:$<${$&$-+5$%$)+R#6$)++.                                            ",
"                                      C.z.7$% 2$0.8$3$9$B % % U.0$j B &$}$)+a$)+&@$$                                            ",
"                                    b$5$0@H+c$d$$ !.e$9$p j j j e$f$g$@.h$i$$$c % j$k$                                          ",
"                                    4.W+B V.l$3 a g m$n$o$p$W.V.j$j q$k 3 r$b e s$t$)+                                          ",
"                                      L 3$u$v$w$| x$t y$z$A$B$C$D$E$F$G$H$I$1 J$K$L$!$                                          ",
"                                          M$N$O$P$Q$R$n$S$T$B$U$V$W$W$X$Y$Z$`$$ d N  %                                          ",
"                                              .%+%@%#%$%%%).w$&%p$*%r$=%-%#%;%@%a@>%                                            ",
"                                                    4#,%'#'%)%1#!%!%~%~%P$a@{%]%                                                ",
"                                                        ^%^%    /%(%                                                            ",
"                                                      ^%^%^%                                                                    ",
"                                                      ^%^%^%                                                                    ",
"                                                      ^%^%                                                                      ",
"                                                        ^%                                                                      ",
"                                                        ^%                                                                      ",
"                                                                                                                                ",
"                                                                                                                                ",
"                                                                                                                                ",
"                                                                                                                                ",
"                                                                                                                                "};
