/* XPM */
static char * player_walk_19_xpm[] = {
"64 64 598 2",
"  	c None",
". 	c #1C2431",
"+ 	c #364156",
"@ 	c #39445A",
"# 	c #3A455B",
"$ 	c #293243",
"% 	c #3B485F",
"& 	c #2E384B",
"* 	c #141A24",
"= 	c #354156",
"- 	c #3A465C",
"; 	c #3C485E",
"> 	c #354054",
", 	c #1A212C",
"' 	c #45546F",
") 	c #546685",
"! 	c #1D2531",
"~ 	c #323D51",
"{ 	c #38445B",
"] 	c #3D4A61",
"^ 	c #3E4A62",
"/ 	c #384359",
"( 	c #1F2734",
"_ 	c #273040",
": 	c #39465B",
"< 	c #191E29",
"[ 	c #333E52",
"} 	c #374258",
"| 	c #3C485F",
"1 	c #3F4C64",
"2 	c #3E4B63",
"3 	c #38445A",
"4 	c #212937",
"5 	c #222937",
"6 	c #303B4E",
"7 	c #354055",
"8 	c #39455B",
"9 	c #424F68",
"0 	c #374257",
"a 	c #1E2532",
"b 	c #242B3A",
"c 	c #343F53",
"d 	c #3D4960",
"e 	c #404C64",
"f 	c #384459",
"g 	c #323D50",
"h 	c #181E28",
"i 	c #252D3D",
"j 	c #2D3749",
"k 	c #404D65",
"l 	c #42506A",
"m 	c #39455C",
"n 	c #343F54",
"o 	c #2A3344",
"p 	c #272F3F",
"q 	c #2C3648",
"r 	c #46556F",
"s 	c #45536D",
"t 	c #39465C",
"u 	c #2E394B",
"v 	c #1C232F",
"w 	c #323E53",
"x 	c #3A475E",
"y 	c #475570",
"z 	c #4C5C78",
"A 	c #414F68",
"B 	c #313C51",
"C 	c #273041",
"D 	c #1D232F",
"E 	c #1C2330",
"F 	c #262F3F",
"G 	c #2C3649",
"H 	c #333E53",
"I 	c #3B475E",
"J 	c #43516A",
"K 	c #4C5B77",
"L 	c #4F5E7B",
"M 	c #4A5974",
"N 	c #44526B",
"O 	c #344055",
"P 	c #232B3A",
"Q 	c #1B212D",
"R 	c #181D27",
"S 	c #181E29",
"T 	c #171D28",
"U 	c #181F2B",
"V 	c #1E2533",
"W 	c #232C3B",
"X 	c #282A32",
"Y 	c #3A3D46",
"Z 	c #474A55",
"` 	c #3E414B",
" .	c #151B26",
"..	c #191F2B",
"+.	c #161C27",
"@.	c #131924",
"#.	c #161D28",
"$.	c #191F2C",
"%.	c #1A212E",
"&.	c #24272E",
"*.	c #3D3F4A",
"=.	c #32343D",
"-.	c #141A26",
";.	c #161C28",
">.	c #171E29",
",.	c #141A25",
"'.	c #121822",
").	c #181E2A",
"!.	c #19202D",
"~.	c #181E2B",
"{.	c #1D2129",
"].	c #32353D",
"^.	c #30333B",
"/.	c #171D2A",
"(.	c #151B25",
"_.	c #1A202C",
":.	c #1D2430",
"<.	c #1D2431",
"[.	c #1B212E",
"}.	c #131822",
"|.	c #141923",
"1.	c #171D29",
"2.	c #1C2029",
"3.	c #393B45",
"4.	c #444751",
"5.	c #454852",
"6.	c #303541",
"7.	c #303B4F",
"8.	c #333F54",
"9.	c #303C51",
"0.	c #2D374A",
"a.	c #262E3E",
"b.	c #242C3B",
"c.	c #222A38",
"d.	c #1F2632",
"e.	c #1F2733",
"f.	c #202734",
"g.	c #232A38",
"h.	c #2F394C",
"i.	c #364257",
"j.	c #3B475F",
"k.	c #3F4C65",
"l.	c #414F69",
"m.	c #465470",
"n.	c #4B5B77",
"o.	c #4A5A76",
"p.	c #46546E",
"q.	c #4A5975",
"r.	c #4E5F7D",
"s.	c #516280",
"t.	c #4C5D7A",
"u.	c #495975",
"v.	c #3F4D66",
"w.	c #2F394B",
"x.	c #2D3648",
"y.	c #252E3C",
"z.	c #171C26",
"A.	c #212835",
"B.	c #212936",
"C.	c #242C3A",
"D.	c #283141",
"E.	c #354056",
"F.	c #3C4961",
"G.	c #425069",
"H.	c #4F5F7C",
"I.	c #566887",
"J.	c #5B6D8F",
"K.	c #5D7193",
"L.	c #607498",
"M.	c #617598",
"N.	c #5F7396",
"O.	c #5A6D8E",
"P.	c #556786",
"Q.	c #4F5F7D",
"R.	c #303A4D",
"S.	c #252E3D",
"T.	c #191F2A",
"U.	c #344054",
"V.	c #3F4B62",
"W.	c #495873",
"X.	c #4E5F7C",
"Y.	c #4D5E7A",
"Z.	c #45556F",
"`.	c #313B4C",
" +	c #2C323B",
".+	c #1A1E27",
"++	c #101216",
"@+	c #070708",
"#+	c #020202",
"$+	c #040405",
"%+	c #050606",
"&+	c #08090A",
"*+	c #0D0E11",
"=+	c #0D0D0E",
"-+	c #101011",
";+	c #45451D",
">+	c #B5B522",
",+	c #616122",
"'+	c #161616",
")+	c #171717",
"!+	c #8A8A27",
"~+	c #D3D323",
"{+	c #34341B",
"]+	c #111111",
"^+	c #0B0B0B",
"/+	c #040404",
"(+	c #070707",
"_+	c #0A0A0A",
":+	c #0D0D0D",
"<+	c #101010",
"[+	c #121212",
"}+	c #A7A727",
"|+	c #FFFF00",
"1+	c #C7C726",
"2+	c #1B1B19",
"3+	c #191919",
"4+	c #191918",
"5+	c #C3C327",
"6+	c #FDFD08",
"7+	c #696927",
"8+	c #0C0C0C",
"9+	c #0B0F15",
"0+	c #05070A",
"a+	c #050506",
"b+	c #060607",
"c+	c #090909",
"d+	c #A5A527",
"e+	c #C9C926",
"f+	c #1A1A19",
"g+	c #181818",
"h+	c #ABAB29",
"i+	c #F6F614",
"j+	c #525222",
"k+	c #28303F",
"l+	c #282F3E",
"m+	c #282E3B",
"n+	c #272B34",
"o+	c #1A1B1F",
"p+	c #0E0E0F",
"q+	c #42421C",
"r+	c #B6B623",
"s+	c #666623",
"t+	c #34341C",
"u+	c #686823",
"v+	c #2B2A29",
"w+	c #3B3C42",
"x+	c #393F4E",
"y+	c #242A35",
"z+	c #1E2431",
"A+	c #293342",
"B+	c #2D3647",
"C+	c #323C4E",
"D+	c #3E4556",
"E+	c #4A4F5C",
"F+	c #616168",
"G+	c #837E7E",
"H+	c #787577",
"I+	c #3F4046",
"J+	c #141414",
"K+	c #1A1A1D",
"L+	c #67676D",
"M+	c #837F82",
"N+	c #424958",
"O+	c #2A3444",
"P+	c #313C4F",
"Q+	c #374255",
"R+	c #3D475B",
"S+	c #77767E",
"T+	c #979292",
"U+	c #595D6B",
"V+	c #292C32",
"W+	c #383C45",
"X+	c #807E82",
"Y+	c #717076",
"Z+	c #2C3544",
"`+	c #262F3E",
" @	c #2F3A4D",
".@	c #343F52",
"+@	c #394357",
"@@	c #4C5364",
"#@	c #969192",
"$@	c #353C4A",
"%@	c #444854",
"&@	c #89888D",
"*@	c #5C5E69",
"=@	c #303A4C",
"-@	c #272F3D",
";@	c #1D2532",
">@	c #232C3C",
",@	c #283142",
"'@	c #2C3647",
")@	c #2E394C",
"!@	c #313C50",
"~@	c #364155",
"{@	c #374256",
"]@	c #82818A",
"^@	c #8B8B95",
"/@	c #414A5B",
"(@	c #13171D",
"_@	c #0F1115",
":@	c #898E9E",
"<@	c #4B5160",
"[@	c #252C3A",
"}@	c #1E2633",
"|@	c #212B3A",
"1@	c #242D3E",
"2@	c #283344",
"3@	c #2C374A",
"4@	c #303C4F",
"5@	c #323E52",
"6@	c #323F53",
"7@	c #606573",
"8@	c #999CAB",
"9@	c #696E7F",
"0@	c #2E3645",
"a@	c #1B222F",
"b@	c #757886",
"c@	c #828697",
"d@	c #333C4E",
"e@	c #2A3241",
"f@	c #202938",
"g@	c #212A3A",
"h@	c #222C3D",
"i@	c #242F40",
"j@	c #273346",
"k@	c #2B384C",
"l@	c #2D3B4F",
"m@	c #303D51",
"n@	c #364256",
"o@	c #8E93A5",
"p@	c #888D9F",
"q@	c #3C4556",
"r@	c #444650",
"s@	c #929096",
"t@	c #626570",
"u@	c #2E3A4C",
"v@	c #2D3748",
"w@	c #293242",
"x@	c #222833",
"y@	c #1B2330",
"z@	c #202A3A",
"A@	c #222B3C",
"B@	c #232E3F",
"C@	c #263143",
"D@	c #293448",
"E@	c #2C394D",
"F@	c #2D3A4F",
"G@	c #2E3B50",
"H@	c #2F3C50",
"I@	c #6E7385",
"J@	c #9499AC",
"K@	c #505666",
"L@	c #58575D",
"M@	c #908B8D",
"N@	c #333B4E",
"O@	c #2D394C",
"P@	c #2B3648",
"Q@	c #252C39",
"R@	c #1E2635",
"S@	c #202A3B",
"T@	c #222B3D",
"U@	c #242F41",
"V@	c #263144",
"W@	c #283447",
"X@	c #29364B",
"Y@	c #2B384E",
"Z@	c #2C3A4E",
"`@	c #40495B",
" #	c #868A9B",
".#	c #6C6F7C",
"+#	c #333B4A",
"@#	c #5F5F66",
"##	c #2C384B",
"$#	c #293344",
"%#	c #283040",
"&#	c #1E2636",
"*#	c #1F293A",
"=#	c #212B3D",
"-#	c #232D40",
";#	c #253144",
">#	c #273448",
",#	c #28354A",
"'#	c #2B384D",
")#	c #2C394E",
"!#	c #797B89",
"~#	c #7E7F8B",
"{#	c #394456",
"]#	c #1F2839",
"^#	c #253146",
"/#	c #2A3549",
"(#	c #2A3448",
"_#	c #283244",
":#	c #273042",
"<#	c #121821",
"[#	c #1D2535",
"}#	c #1E283A",
"|#	c #212B3F",
"1#	c #232F43",
"2#	c #273349",
"3#	c #29354B",
"4#	c #2A364B",
"5#	c #2D394E",
"6#	c #616472",
"7#	c #87848E",
"8#	c #4A5161",
"9#	c #263040",
"0#	c #222E43",
"a#	c #263246",
"b#	c #263044",
"c#	c #232D3E",
"d#	c #202837",
"e#	c #191E28",
"f#	c #14171F",
"g#	c #151922",
"h#	c #161E2C",
"i#	c #1B2435",
"j#	c #1E283B",
"k#	c #202B3F",
"l#	c #222D42",
"m#	c #232F44",
"n#	c #243045",
"o#	c #273248",
"p#	c #444A5A",
"q#	c #797780",
"r#	c #595C68",
"s#	c #26303F",
"t#	c #171F2F",
"u#	c #1A2232",
"v#	c #161A21",
"w#	c #191E26",
"x#	c #1A1F28",
"y#	c #1B1F27",
"z#	c #1A1E25",
"A#	c #171B21",
"B#	c #15191F",
"C#	c #151920",
"D#	c #161B23",
"E#	c #171B24",
"F#	c #171C27",
"G#	c #1A2029",
"H#	c #292B32",
"I#	c #202228",
"J#	c #16181D",
"K#	c #17191D",
"L#	c #191B1F",
"M#	c #1B1D21",
"N#	c #1A1D22",
"O#	c #13161B",
"P#	c #1B2029",
"Q#	c #1B2129",
"R#	c #1C2129",
"S#	c #1D2229",
"T#	c #1D2228",
"U#	c #1D2127",
"V#	c #1D2126",
"W#	c #1C2026",
"X#	c #1B1F25",
"Y#	c #1A1F25",
"Z#	c #161A20",
"`#	c #1B202A",
" $	c #1B202B",
".$	c #1C212B",
"+$	c #1C222C",
"@$	c #1E232E",
"#$	c #1F2530",
"$$	c #202631",
"%$	c #202530",
"&$	c #1F242D",
"*$	c #1F232C",
"=$	c #1E232B",
"-$	c #1E222A",
";$	c #1B2027",
">$	c #1A2027",
",$	c #181D25",
"'$	c #1A1F29",
")$	c #1B212B",
"!$	c #202632",
"~$	c #212734",
"{$	c #212733",
"]$	c #1F242F",
"^$	c #1E232D",
"/$	c #1E232C",
"($	c #1C222B",
"_$	c #1A2028",
":$	c #1C222D",
"<$	c #1E2430",
"[$	c #1F2532",
"}$	c #202834",
"|$	c #202735",
"1$	c #222935",
"2$	c #222835",
"3$	c #212834",
"4$	c #202732",
"5$	c #1E242F",
"6$	c #1B222C",
"7$	c #1C222E",
"8$	c #1F2633",
"9$	c #212836",
"0$	c #222A37",
"a$	c #222936",
"b$	c #202733",
"c$	c #1C212A",
"d$	c #1F2531",
"e$	c #1E2530",
"f$	c #1D2330",
"g$	c #202836",
"h$	c #212938",
"i$	c #222A39",
"j$	c #202633",
"k$	c #1E2531",
"l$	c #1A1F2A",
"m$	c #1C212C",
"n$	c #252D3B",
"o$	c #232B39",
"p$	c #232A39",
"q$	c #232B3B",
"r$	c #222B3A",
"s$	c #1D232E",
"t$	c #283140",
"u$	c #2B3444",
"v$	c #2E3849",
"w$	c #313D50",
"x$	c #212A38",
"y$	c #222938",
"z$	c #202835",
"A$	c #2C3749",
"B$	c #2A3343",
"C$	c #242B39",
"D$	c #212837",
"E$	c #293343",
"F$	c #3A475C",
"G$	c #3E4C64",
"H$	c #43516B",
"I$	c #475671",
"J$	c #4A5B78",
"K$	c #4C5D7C",
"L$	c #4B5C7A",
"M$	c #4D5E7C",
"N$	c #526382",
"O$	c #546686",
"P$	c #5A6C8F",
"Q$	c #5C6F92",
"R$	c #536586",
"S$	c #44536D",
"T$	c #374358",
"U$	c #313C4E",
"V$	c #2B3545",
"W$	c #262F41",
"X$	c #2D384B",
"Y$	c #37445A",
"Z$	c #404D66",
"`$	c #4A5A77",
" %	c #4F5F7E",
".%	c #56688A",
"+%	c #5E7398",
"@%	c #64799F",
"#%	c #6B81A9",
"$%	c #7086AE",
"%%	c #6E84AC",
"&%	c #667BA0",
"*%	c #536584",
"=%	c #44536E",
"-%	c #2A3446",
";%	c #232A3A",
">%	c #181F2C",
",%	c #1D2534",
"'%	c #232D3D",
")%	c #283245",
"!%	c #2A3447",
"~%	c #323D52",
"{%	c #3D4A63",
"]%	c #455470",
"^%	c #4C5C7B",
"/%	c #516382",
"(%	c #556788",
"_%	c #546585",
":%	c #4E5E7C",
"<%	c #343F55",
"[%	c #293447",
"}%	c #12171F",
"|%	c #000000",
"1%	c #030408",
"2%	c #171E2A",
"3%	c #202939",
"4%	c #252F41",
"5%	c #273244",
"6%	c #273144",
"7%	c #293346",
"8%	c #293345",
"9%	c #0C1017",
"0%	c #1B2230",
"a%	c #1B2331",
"b%	c #1F2736",
"c%	c #1F2838",
"d%	c #1F2837",
"e%	c #1E2736",
"f%	c #1C2433",
"g%	c #151B27",
"                                                                                                                                ",
"                                                                                                                                ",
"                                                                                                                                ",
"                                                                                                                                ",
"                                                                                                                                ",
"                                                                                                                                ",
"                                                                                                                                ",
"                                                                                                                                ",
"                                              . + @ # + $                                                                       ",
"                                              % & * = - ; > ,                                                                   ",
"                                              ' ) ! ~ { ] ^ / (                                                                 ",
"                                              _ : < [ } | 1 2 3 4                                                               ",
"                                                  5 6 7 8 ] 9 | 0 a                                                             ",
"                                                  b & c 3 d e ] f g h                                                           ",
"                                                  i j [ 3 | k l m n o                                                           ",
"                                                  p q [ m 2 9 r s t u 4                                                         ",
"                                                v _ j w x k y z z A B C D                                                       ",
"                                                E F G H I J K L M N O P Q R                                                     ",
"                                                S T U V W F i X Y Z `  .T S                                                     ",
"                                                ..+.@.#.U $.%.U T &.*.=.-.;.S R                                                 ",
"                                              ..>.,.'. .).!.!.!.~.{.].^./.,.(._.D                                               ",
"                                          :.a <.[.T }.|.+.1.U 2.3.4.5.6.7.8.9.0.$ a.b.c.5 D                                     ",
"                                    a d.e.f.g.C h.i.j.k.l.m.n.o.p.q.r.s.t.u.r v.{ [ w.x.y.z.                                    ",
"                                  :.A.B.5 C.D.0.E.F.G.p.M H.I.J.K.L.M.N.O.P.Q.y | R.S.T.                                        ",
"                                      D d.c.D.u U.~ 8 1 0 V.N W.X.Y.Z.I `. +.+++@+                                              ",
"                                              #+$+%+&+*+=+-+;+>+,+'+)+)+!+~+{+]+^+                                              ",
"                                              #+/+(+_+:+<+[+}+|+1+2+3+4+5+6+7+]+8+                                              ",
"                                            9+0+a+b+c+8+<+[+d+|+e+f+g+g+h+i+j+]+=+                                              ",
"                                            4 k+l+m+n+o+p+<+q+r+s+)+)+)+t+u+v+w+x+y+                                            ",
"                                            z+p A+B+C+D+E+F+G+H+I+J+'+'+K+L+M+N+`.                                              ",
"                                              P k+O+0.P+Q+R+S+T+U+V+J+J+W+X+Y+C+Z+                                              ",
"                                              ( `+$ q  @.@+@@@#@S+$@]+<+%@&@*@=@-@                                              ",
"                                              ;@>@,@'@)@!@~@{@]@^@/@(@_@U+:@<@j [@                                              ",
"                                              }@|@1@2@3@4@5@6@7@8@9@0@a@b@c@d@x.e@                                              ",
"                                              f@g@h@i@j@k@l@m@n@o@p@q@r@s@t@u@v@w@x@                                            ",
"                                            y@z@A@B@C@D@E@F@G@H@I@J@K@L@M@N@O@P@A+Q@                                            ",
"                                            R@S@T@U@V@W@X@Y@Z@G@`@ #.#+#@#D@##P@$#%#                                            ",
"                                          +.&#*#=#-#;#>#,#k@'#)#m@!#~#{#]#^#/#(#_#:#d.                                          ",
"                                          <#!.[#}#|#1#^#2#3#X@4#5#6#7#8#9#0#a#b#c#d#e#                                          ",
"                                            f#g#(.h#i#j#k#l#m#n#o#p#q#r#s#t#u#~.v#++                                            ",
"                                            w#x#y#z#A#B#C#D#E#z.F#G#H#I#J#K#L#M#N#O#                                            ",
"                                            G#G#G#P#Q#R#S#S#S#S#T#U#U#U#V#W#W#X#Y#Z#                                            ",
"                                          e#`#`# $.$+$@$#$$$$$%$&$*$=$-${.{.R#;$>$,$                                            ",
"                                          '$`#)$+$D z+!$f.~$A.{$!$$$]$^$/$/$($`#_$x#                                            ",
"                                        e#)$)$:$D <$[$}$|$A.1$2$3$4$%$]$#$5$+$.$`#.$D#                                          ",
"                                        '$6$7$D z+8$f.9$4 0$5 a$3$b$!$A.A.#$+$c$.$<$h                                           ",
"                                        d$e$f$z+8$g$4 h$c.c.a$9$a$5 i$5 j$5$+$.$k$a l$                                          ",
"                                      m$g.[@n$o$|$|$4 4 c.p$p$P q$r$c.f.d$5$s$k$f.c.b$                                          ",
"                                      v C.t$u$v$P+w$ @o q$h$x$y$h$z$8$[$f.i A$j B+B$C$                                          ",
"                                      }@D$q$E$P+i.F$G$H$I$J$K$L$M$N$O$P$Q$R$S$T$U$V$g.                                          ",
"                                        %.q$1@W$X$Y$Z$r `$ %.%+%@%#%$%%%&%*%=%i.-%;%:.                                          ",
"                                            >%,%'%)%_#!%~%{%]%^%/%(%_%:%l.<%[%W$1@a }%                                          ",
"                                              |%1%2%3%4%5%_#5%6%_#_#)%)%7%8%f@y@9%                                              ",
"                                              |%|%        1.0%a%b%c%d%e%f%g%  |%|%                                              ",
"                                            |%|%|%                            |%|%                                              ",
"                                            |%|%                              |%|%                                              ",
"                                            |%|%                              |%|%                                              ",
"                                            |%                                                                                  ",
"                                                                                                                                ",
"                                                                                                                                ",
"                                                                                                                                ",
"                                                                                                                                ",
"                                                                                                                                ",
"                                                                                                                                "};
