/* XPM */
static char * player_walk_9_xpm[] = {
"64 64 575 2",
"  	c None",
". 	c #262E3D",
"+ 	c #283141",
"@ 	c #1D2330",
"# 	c #38445A",
"$ 	c #344054",
"% 	c #39455B",
"& 	c #3A455B",
"* 	c #323D51",
"= 	c #1F2734",
"- 	c #39465C",
"; 	c #3E4B63",
"> 	c #0E121A",
", 	c #2D374A",
"' 	c #39455C",
") 	c #3C485F",
"! 	c #3A465C",
"~ 	c #272F3F",
"{ 	c #566888",
"] 	c #364156",
"^ 	c #2C3647",
"/ 	c #374359",
"( 	c #3C4960",
"_ 	c #3F4C63",
": 	c #3B475E",
"< 	c #2A3344",
"[ 	c #2A3445",
"} 	c #141921",
"| 	c #303B4E",
"1 	c #3E4B62",
"2 	c #404D65",
"3 	c #3A475D",
"4 	c #2B3445",
"5 	c #1E2431",
"6 	c #2F394C",
"7 	c #343F53",
"8 	c #414E67",
"9 	c #3E4A62",
"0 	c #212936",
"a 	c #2D3749",
"b 	c #3F4B63",
"c 	c #3F4C64",
"d 	c #354054",
"e 	c #1E2532",
"f 	c #232B39",
"g 	c #2C3547",
"h 	c #3B485F",
"i 	c #43516B",
"j 	c #354055",
"k 	c #171C26",
"l 	c #252D3C",
"m 	c #2B3547",
"n 	c #414F67",
"o 	c #46556E",
"p 	c #465570",
"q 	c #242C3B",
"r 	c #262F3F",
"s 	c #2C3648",
"t 	c #313D51",
"u 	c #3E4C64",
"v 	c #46546E",
"w 	c #4C5C78",
"x 	c #4D5D79",
"y 	c #343F54",
"z 	c #293243",
"A 	c #1A202B",
"B 	c #242C3C",
"C 	c #2B3447",
"D 	c #323D52",
"E 	c #3A465D",
"F 	c #425069",
"G 	c #4B5A76",
"H 	c #4E5E7A",
"I 	c #4A5974",
"J 	c #45536C",
"K 	c #242D3D",
"L 	c #1C222F",
"M 	c #181D27",
"N 	c #181E2A",
"O 	c #171D28",
"P 	c #161C27",
"Q 	c #19202D",
"R 	c #1F2735",
"S 	c #232B3B",
"T 	c #24272E",
"U 	c #393B44",
"V 	c #464954",
"W 	c #434650",
"X 	c #161B25",
"Y 	c #181E29",
"Z 	c #191F2B",
"` 	c #131924",
" .	c #161C28",
"..	c #181F2B",
"+.	c #191F2C",
"@.	c #1A212E",
"#.	c #19202C",
"$.	c #21232B",
"%.	c #3B3E48",
"&.	c #353741",
"*.	c #141A24",
"=.	c #171E29",
"-.	c #141A25",
";.	c #121722",
">.	c #171E2A",
",.	c #181F2C",
"'.	c #1C1F28",
").	c #2F323B",
"!.	c #33363F",
"~.	c #171D2A",
"{.	c #151B26",
"].	c #151A25",
"^.	c #1B212D",
"/.	c #1D2430",
"(.	c #1E2430",
"_.	c #1F2532",
":.	c #1F2633",
"<.	c #1A212D",
"[.	c #1A1E28",
"}.	c #373A43",
"|.	c #323640",
"1.	c #303B4F",
"2.	c #2E394D",
"3.	c #2B3548",
"4.	c #283142",
"5.	c #222A37",
"6.	c #212835",
"7.	c #202733",
"8.	c #1B212C",
"9.	c #1F2632",
"0.	c #202734",
"a.	c #202835",
"b.	c #364258",
"c.	c #3C4961",
"d.	c #404E67",
"e.	c #475671",
"f.	c #4C5B78",
"g.	c #4A5A77",
"h.	c #45536D",
"i.	c #495772",
"j.	c #4C5C79",
"k.	c #4F607E",
"l.	c #485874",
"m.	c #44536D",
"n.	c #3D4B63",
"o.	c #313C4F",
"p.	c #2B3546",
"q.	c #293242",
"r.	c #1C222D",
"s.	c #1C222E",
"t.	c #212937",
"u.	c #232A38",
"v.	c #252D3B",
"w.	c #2E384B",
"x.	c #354056",
"y.	c #424F68",
"z.	c #4A5973",
"A.	c #4F5F7B",
"B.	c #566787",
"C.	c #5B6D8E",
"D.	c #5D7093",
"E.	c #607497",
"F.	c #5E7295",
"G.	c #5A6D8E",
"H.	c #556786",
"I.	c #51617F",
"J.	c #495974",
"K.	c #404D66",
"L.	c #212836",
"M.	c #252E3D",
"N.	c #374257",
"O.	c #3E4A61",
"P.	c #374256",
"Q.	c #3D4960",
"R.	c #44526B",
"S.	c #50617F",
"T.	c #4A5A75",
"U.	c #374358",
"V.	c #2D3647",
"W.	c #232A37",
"X.	c #181C24",
"Y.	c #0C0E12",
"Z.	c #020202",
"`.	c #030303",
" +	c #050505",
".+	c #070707",
"++	c #0C0C0E",
"@+	c #0C0D0D",
"#+	c #0F1011",
"$+	c #151513",
"%+	c #2E2E1A",
"&+	c #1D1D16",
"*+	c #151515",
"=+	c #171717",
"-+	c #28281B",
";+	c #4B4B22",
">+	c #181815",
",+	c #111111",
"'+	c #0C0C0C",
")+	c #040404",
"!+	c #060606",
"~+	c #0A0A0A",
"{+	c #101010",
"]+	c #121212",
"^+	c #7B7B24",
"/+	c #ECEC1D",
"(+	c #AFAF27",
"_+	c #1A1A19",
":+	c #191919",
"<+	c #181818",
"[+	c #A4A427",
"}+	c #F5F513",
"|+	c #5F5F23",
"1+	c #0D0D0D",
"2+	c #05070A",
"3+	c #050506",
"4+	c #090909",
"5+	c #0F0F0F",
"6+	c #7A7A23",
"7+	c #EAEA1D",
"8+	c #ACAC27",
"9+	c #1A1A18",
"0+	c #7D7D25",
"a+	c #CBCB23",
"b+	c #43431E",
"c+	c #0D0D0E",
"d+	c #28303F",
"e+	c #282F3E",
"f+	c #282E3B",
"g+	c #272B34",
"h+	c #1A1B1F",
"i+	c #0E0E0F",
"j+	c #2B2B1A",
"k+	c #1D1D18",
"l+	c #171716",
"m+	c #191916",
"n+	c #292828",
"o+	c #3B3C42",
"p+	c #393F4E",
"q+	c #242A35",
"r+	c #293342",
"s+	c #323C4E",
"t+	c #3E4556",
"u+	c #4A4F5C",
"v+	c #616168",
"w+	c #837E7E",
"x+	c #787577",
"y+	c #3F4045",
"z+	c #141414",
"A+	c #161616",
"B+	c #1A1A1D",
"C+	c #67676D",
"D+	c #837F82",
"E+	c #424958",
"F+	c #313B4C",
"G+	c #232B3A",
"H+	c #2A3444",
"I+	c #374255",
"J+	c #3D475B",
"K+	c #77767E",
"L+	c #979292",
"M+	c #595D6B",
"N+	c #292C32",
"O+	c #383C45",
"P+	c #807E82",
"Q+	c #717076",
"R+	c #2C3544",
"S+	c #262F3E",
"T+	c #2F3A4D",
"U+	c #343F52",
"V+	c #394357",
"W+	c #4C5364",
"X+	c #969192",
"Y+	c #353C4A",
"Z+	c #444854",
"`+	c #89888D",
" @	c #5C5E69",
".@	c #303A4C",
"+@	c #272F3D",
"@@	c #1D2532",
"#@	c #232C3C",
"$@	c #2E394C",
"%@	c #313C50",
"&@	c #364155",
"*@	c #82818A",
"=@	c #8B8B95",
"-@	c #414A5B",
";@	c #13171D",
">@	c #0E1015",
",@	c #898E9E",
"'@	c #4B5160",
")@	c #252C3A",
"!@	c #1E2633",
"~@	c #212B3A",
"{@	c #242D3E",
"]@	c #283344",
"^@	c #2C374A",
"/@	c #303C4F",
"(@	c #323E52",
"_@	c #323F53",
":@	c #606573",
"<@	c #999CAB",
"[@	c #696E7F",
"}@	c #2E3645",
"|@	c #1B222F",
"1@	c #757886",
"2@	c #828697",
"3@	c #333C4E",
"4@	c #2D3648",
"5@	c #2A3241",
"6@	c #202938",
"7@	c #212A3A",
"8@	c #222C3D",
"9@	c #242F40",
"0@	c #273346",
"a@	c #2B384C",
"b@	c #2D3B4F",
"c@	c #303D51",
"d@	c #364256",
"e@	c #8E93A5",
"f@	c #888D9F",
"g@	c #3C4556",
"h@	c #444650",
"i@	c #929096",
"j@	c #626570",
"k@	c #2E3A4C",
"l@	c #2D3748",
"m@	c #222833",
"n@	c #1B2330",
"o@	c #202A3A",
"p@	c #222B3C",
"q@	c #232E3F",
"r@	c #263143",
"s@	c #293448",
"t@	c #2C394D",
"u@	c #2D3A4F",
"v@	c #2E3B50",
"w@	c #2F3C50",
"x@	c #6E7385",
"y@	c #9499AC",
"z@	c #505666",
"A@	c #58575D",
"B@	c #908B8D",
"C@	c #333B4E",
"D@	c #2D394C",
"E@	c #2B3648",
"F@	c #252C39",
"G@	c #1E2635",
"H@	c #202A3B",
"I@	c #222B3D",
"J@	c #242F41",
"K@	c #263144",
"L@	c #283447",
"M@	c #29364B",
"N@	c #2B384E",
"O@	c #2C3A4E",
"P@	c #40495B",
"Q@	c #868A9B",
"R@	c #6C6F7C",
"S@	c #333B4A",
"T@	c #5F5F66",
"U@	c #2C384B",
"V@	c #293344",
"W@	c #283040",
"X@	c #1E2636",
"Y@	c #1F293A",
"Z@	c #212B3D",
"`@	c #232D40",
" #	c #253144",
".#	c #273448",
"+#	c #28354A",
"@#	c #2B384D",
"##	c #2C394E",
"$#	c #797B89",
"%#	c #7E7F8B",
"&#	c #394456",
"*#	c #1F2839",
"=#	c #253146",
"-#	c #2A3549",
";#	c #2A3448",
">#	c #283244",
",#	c #273042",
"'#	c #121821",
")#	c #1D2535",
"!#	c #1E283A",
"~#	c #212B3F",
"{#	c #232F43",
"]#	c #273349",
"^#	c #29354B",
"/#	c #2A364B",
"(#	c #2D394E",
"_#	c #616472",
":#	c #87848E",
"<#	c #4A5161",
"[#	c #263040",
"}#	c #222E43",
"|#	c #263246",
"1#	c #263044",
"2#	c #232D3E",
"3#	c #202837",
"4#	c #191E28",
"5#	c #141820",
"6#	c #151A22",
"7#	c #151B25",
"8#	c #161E2C",
"9#	c #1B2435",
"0#	c #1E283B",
"a#	c #202B3F",
"b#	c #222D42",
"c#	c #232F44",
"d#	c #243045",
"e#	c #273248",
"f#	c #444A5A",
"g#	c #797780",
"h#	c #595C68",
"i#	c #26303F",
"j#	c #171F2F",
"k#	c #1A2232",
"l#	c #181E2B",
"m#	c #161A21",
"n#	c #0F1116",
"o#	c #191E27",
"p#	c #1A1F28",
"q#	c #1B1F27",
"r#	c #1A1E25",
"s#	c #171B21",
"t#	c #15191F",
"u#	c #151920",
"v#	c #161B23",
"w#	c #171B24",
"x#	c #171C27",
"y#	c #1A2029",
"z#	c #292B32",
"A#	c #202228",
"B#	c #16181D",
"C#	c #17191D",
"D#	c #191B1F",
"E#	c #1A1D20",
"F#	c #1B1D22",
"G#	c #12151A",
"H#	c #1A202A",
"I#	c #1B2029",
"J#	c #1B2129",
"K#	c #1C2129",
"L#	c #1D2229",
"M#	c #1D2228",
"N#	c #1D2127",
"O#	c #1D2126",
"P#	c #1D2026",
"Q#	c #1C2025",
"R#	c #1B1F25",
"S#	c #1B202A",
"T#	c #1B202B",
"U#	c #1C212C",
"V#	c #1E242F",
"W#	c #1F2531",
"X#	c #202631",
"Y#	c #202530",
"Z#	c #1F242D",
"`#	c #1F232C",
" $	c #1E232B",
".$	c #1E222A",
"+$	c #1D2129",
"@$	c #1B2027",
"#$	c #1A2027",
"$$	c #171C24",
"%$	c #1B212B",
"&$	c #1F2431",
"*$	c #212834",
"=$	c #212733",
"-$	c #202632",
";$	c #1F242F",
">$	c #1E232D",
",$	c #1E232C",
"'$	c #1E222C",
")$	c #1C212A",
"!$	c #1A2028",
"~$	c #191F28",
"{$	c #1D232F",
"]$	c #202834",
"^$	c #202735",
"/$	c #222935",
"($	c #222835",
"_$	c #212734",
":$	c #202732",
"<$	c #1F2530",
"[$	c #1C212B",
"}$	c #1D232E",
"|$	c #1D242F",
"1$	c #1E2531",
"2$	c #222937",
"3$	c #171C25",
"4$	c #1A1F2A",
"5$	c #202836",
"6$	c #222938",
"7$	c #212938",
"8$	c #222A38",
"9$	c #222936",
"0$	c #222A39",
"a$	c #1C222C",
"b$	c #242B3A",
"c$	c #262D3C",
"d$	c #212837",
"e$	c #232A39",
"f$	c #222B3A",
"g$	c #1D232D",
"h$	c #1F2634",
"i$	c #242C3A",
"j$	c #293241",
"k$	c #2C3545",
"l$	c #2F394B",
"m$	c #333E51",
"n$	c #202633",
"o$	c #2B3545",
"p$	c #232C3B",
"q$	c #323D50",
"r$	c #374459",
"s$	c #3B485E",
"t$	c #3F4D65",
"u$	c #44526C",
"v$	c #485773",
"w$	c #4C5C7B",
"x$	c #4D5E7E",
"y$	c #4E5F7C",
"z$	c #516281",
"A$	c #536584",
"B$	c #586B8C",
"C$	c #596C8D",
"D$	c #506281",
"E$	c #354154",
"F$	c #2B3444",
"G$	c #252E3F",
"H$	c #263041",
"I$	c #2D384B",
"J$	c #38445B",
"K$	c #404D67",
"L$	c #576A8D",
"M$	c #5F749A",
"N$	c #657AA1",
"O$	c #6D83AB",
"P$	c #6F86AD",
"Q$	c #62769A",
"R$	c #42506A",
"S$	c #354156",
"T$	c #1B222E",
"U$	c #030407",
"V$	c #1A222F",
"W$	c #283245",
"X$	c #2A3446",
"Y$	c #3C4A63",
"Z$	c #455470",
"`$	c #4D5E7C",
" %	c #526484",
".%	c #57698A",
"+%	c #556787",
"@%	c #354157",
"#%	c #2A3447",
"$%	c #252F40",
"%%	c #1D2432",
"&%	c #000000",
"*%	c #1A212F",
"=%	c #252F41",
"-%	c #273244",
";%	c #273144",
">%	c #293345",
",%	c #222A3A",
"'%	c #131923",
")%	c #171D29",
"!%	c #1B2230",
"~%	c #1B2331",
"{%	c #1F2837",
"]%	c #202838",
"^%	c #1E2736",
"/%	c #0D121B",
"(%	c #000001",
"                                                                                                                                ",
"                                                                                                                                ",
"                                                                                                                                ",
"                                                                                                                                ",
"                                                                                                                                ",
"                                                                                                                                ",
"                                                                                                                                ",
"                                                  . + @                                                                         ",
"                                                # $ % & * =                                                                     ",
"                                              - ; > , ' ) ! ~                                                                   ",
"                                              - { ] ^ / ( _ : <                                                                 ",
"                                                [ } | ] - 1 2 3 4                                                               ",
"                                                  5 6 7 # ( 8 9 # ~                                                             ",
"                                                  0 a * / ) b c # d e                                                           ",
"                                                  f g * / h _ i : j a k                                                         ",
"                                                  l m * % 1 n o p ( | q                                                         ",
"                                                  r s t ' u v w x i y z e                                                       ",
"                                                A B C D E F G H I J / K L M                                                     ",
"                                                N O P Q R q S T U V W X O Y M                                                   ",
"                                                Z P `  ...+.@.#.N $.%.&.*.P Y O                                                 ",
"                                              Z =.-.;.-.>.#.Q Q ,.'.).!.~.{.].Y ^.                                              ",
"                                        /.(._.:.e <.P {.{. ...[.}.W V |.s 1.2.3.4.l 5.6.7.8.                                    ",
"                                  (.9.:.0.a.f + 6 b.c.d.i e.f.g.h.i.j.k.j.l.m.n.b.o.a p.q.r.                                    ",
"                                  s.0.t.u.v.+ w.x.c.y.v z.A.B.C.D.E.E.F.G.H.I.J.K.j z L.                                        ",
"                                        (.L.M.m * | N.O.P.Q.R.I k.S.T.F U.V.W.X.Y.                                              ",
"                                              Z.`. +.+++@+#+$+%+&+*+=+=+-+;+>+,+'+                                              ",
"                                              Z.)+!+~+'+{+]+^+/+(+_+:+<+[+}+|+,+1+                                              ",
"                                              2+3+!+4+'+5+]+6+7+8+9+<+<+0+a+b+,+c+                                              ",
"                                            t.d+e+f+g+h+i+{+$+j+k+=+=+=+l+m+n+o+p+q+                                            ",
"                                            5 ~ r+V.s+t+u+v+w+x+y+z+A+A+B+C+D+E+F+                                              ",
"                                              G+d+H+, o.I+J+K+L+M+N+z+z+O+P+Q+s+R+                                              ",
"                                              = S+z s T+U+V+W+X+K+Y+,+{+Z+`+ @.@+@                                              ",
"                                              @@#@4.^ $@%@&@P.*@=@-@;@>@M+,@'@a )@                                              ",
"                                              !@~@{@]@^@/@(@_@:@<@[@}@|@1@2@3@4@5@                                              ",
"                                              6@7@8@9@0@a@b@c@d@e@f@g@h@i@j@k@l@q.m@                                            ",
"                                            n@o@p@q@r@s@t@u@v@w@x@y@z@A@B@C@D@E@r+F@                                            ",
"                                            G@H@I@J@K@L@M@N@O@v@P@Q@R@S@T@s@U@E@V@W@                                            ",
"                                          P X@Y@Z@`@ #.#+#a@@###c@$#%#&#*#=#-#;#>#,#9.                                          ",
"                                          '#Q )#!#~#{#=#]#^#M@/#(#_#:#<#[#}#|#1#2#3#4#                                          ",
"                                            5#6#7#8#9#0#a#b#c#d#e#f#g#h#i#j#k#l#m#n#                                            ",
"                                            o#p#q#r#s#t#u#v#w#k x#y#z#A#B#C#D#E#F#G#                                            ",
"                                          M H#y#y#I#J#K#L#L#L#L#M#N#N#O#P#Q#Q#R#r#t#                                            ",
"                                          p#S#S#T#U#r.V#W#X#X#Y#Z#`# $.$+$+$K#@$#$$$                                            ",
"                                          S#S#%$r.V#&$7.0.*$*$=$-$Y#;$>$,$'$)$I#!$o#                                            ",
"                                        ~$%$8.r.{$5 9.]$^$L./$($_$:$Y#;$<$V#U#S#S#[$                                            ",
"                                        A r.}$|$1$:.^$t.t.5.2$($*$7.-$6.0.V#U#)$U#(.3$                                          ",
"                                      4$7.e /.1$0.5$6$7$8$5.9$L.9$2$0$0 -$V#a$[$1$1$4#                                          ",
"                                      (.b$c$. q d$5$7$t.8$e$e$G+S f$8$0.W#V#g$e h$0 (.                                          ",
"                                      9.i$j$k$l$m$7 %@m q 7$8$6$7$^$:._.n$e$z 4 o$j$6.                                          ",
"                                      :.7$p$V@q$r$s$t$u$v$w$x$w$y$z$A$B$C$D$F E$.@F$6.                                          ",
"                                        <.f$G$H$I$J$K$p j.D$L$M$N$O$P$O$Q$S.R$S$[ 0$T$                                          ",
"                                          U$;.V${@W$>#X$D Y$Z$`$ %.%+%k.R$@%#%$%K %%                                            ",
"                                        &%&%&%    *%6@=%-%>#-%;%-%>#W$W$>%>#,%@@'%                                              ",
"                                        &%                )%!%~%{%6@]%^%,./%(%                                                  ",
"                                                                        &%&%                                                    ",
"                                                                        &%&%&%                                                  ",
"                                                                          &%&%                                                  ",
"                                                                          &%                                                    ",
"                                                                                                                                ",
"                                                                                                                                ",
"                                                                                                                                ",
"                                                                                                                                ",
"                                                                                                                                ",
"                                                                                                                                "};
