/* XPM */
static char * player_idle_7_xpm[] = {
"64 64 591 2",
"  	c None",
". 	c #202835",
"+ 	c #2D3648",
"@ 	c #2C3647",
"# 	c #252D3C",
"$ 	c #283142",
"% 	c #39465C",
"& 	c #303A4E",
"* 	c #39455B",
"= 	c #3A465C",
"- 	c #374257",
"; 	c #242C3B",
"> 	c #404E67",
", 	c #3B485F",
"' 	c #0A0E14",
") 	c #323D50",
"! 	c #3D4960",
"~ 	c #3B475D",
"{ 	c #2A3445",
"] 	c #3F4D65",
"^ 	c #566888",
"/ 	c #313C50",
"( 	c #374359",
"_ 	c #3D4A61",
": 	c #404D64",
"< 	c #3C485F",
"[ 	c #2E384A",
"} 	c #242C3A",
"| 	c #171D27",
"1 	c #323D51",
"2 	c #364157",
"3 	c #3E4B62",
"4 	c #404D65",
"5 	c #3A465D",
"6 	c #2E394B",
"7 	c #212835",
"8 	c #2F3A4D",
"9 	c #343F54",
"0 	c #38445A",
"a 	c #3C4960",
"b 	c #414F67",
"c 	c #384459",
"d 	c #2A3344",
"e 	c #222A38",
"f 	c #2D374A",
"g 	c #333E52",
"h 	c #3F4B63",
"i 	c #354054",
"j 	c #222937",
"k 	c #232B3A",
"l 	c #2C3548",
"m 	c #3F4C64",
"n 	c #43516A",
"o 	c #354055",
"p 	c #1A202B",
"q 	c #252D3D",
"r 	c #2B3547",
"s 	c #3E4B63",
"t 	c #414F68",
"u 	c #475670",
"v 	c #485873",
"w 	c #3E4C63",
"x 	c #313C4F",
"y 	c #262F3E",
"z 	c #262E3F",
"A 	c #2C3547",
"B 	c #313D51",
"C 	c #39455C",
"D 	c #45546E",
"E 	c #4D5C79",
"F 	c #4D5D7A",
"G 	c #45536D",
"H 	c #364258",
"I 	c #293344",
"J 	c #202735",
"K 	c #39465D",
"L 	c #424F68",
"M 	c #4B5A75",
"N 	c #4E5D79",
"O 	c #485670",
"P 	c #424F67",
"Q 	c #222A39",
"R 	c #1A202C",
"S 	c #181E28",
"T 	c #181E29",
"U 	c #181D29",
"V 	c #181E2A",
"W 	c #1C2331",
"X 	c #242C3C",
"Y 	c #22252C",
"Z 	c #383A43",
"` 	c #444852",
" .	c #484B56",
"..	c #181C26",
"+.	c #161C27",
"@.	c #181F2A",
"#.	c #171D28",
"$.	c #131924",
"%.	c #151C27",
"&.	c #181F2B",
"*.	c #191F2C",
"=.	c #1A212E",
"-.	c #19202D",
";.	c #1E2128",
">.	c #3B3D47",
",.	c #151A24",
"'.	c #181D28",
").	c #191F2A",
"!.	c #151B27",
"~.	c #121822",
"{.	c #141A25",
"].	c #171D2A",
"^.	c #19202C",
"/.	c #191D27",
"(.	c #282B33",
"_.	c #3A3D46",
":.	c #161C28",
"<.	c #141A26",
"[.	c #141A24",
"}.	c #1E2431",
"|.	c #1C232F",
"1.	c #1D232F",
"2.	c #1B222E",
"3.	c #131923",
"4.	c #111620",
"5.	c #131823",
"6.	c #171E2A",
"7.	c #33353E",
"8.	c #41444E",
"9.	c #474A55",
"0.	c #373A44",
"a.	c #334055",
"b.	c #333E54",
"c.	c #2F394D",
"d.	c #2B3446",
"e.	c #273040",
"f.	c #262E3D",
"g.	c #252C3B",
"h.	c #1E2531",
"i.	c #1F2633",
"j.	c #212836",
"k.	c #2B3546",
"l.	c #344055",
"m.	c #38445B",
"n.	c #3E4C65",
"o.	c #44536D",
"p.	c #465570",
"q.	c #414E66",
"r.	c #46536D",
"s.	c #4A5A75",
"t.	c #4F607E",
"u.	c #4D5E7B",
"v.	c #4A5976",
"w.	c #475671",
"x.	c #415069",
"y.	c #3A475E",
"z.	c #303B4E",
"A.	c #2E3749",
"B.	c #283040",
"C.	c #191F29",
"D.	c #222A37",
"E.	c #313B4F",
"F.	c #404D66",
"G.	c #44526C",
"H.	c #485772",
"I.	c #546685",
"J.	c #5A6D8E",
"K.	c #5C7092",
"L.	c #5F7295",
"M.	c #607497",
"N.	c #5E7294",
"O.	c #5C6E90",
"P.	c #526381",
"Q.	c #4B5A77",
"R.	c #404E66",
"S.	c #344054",
"T.	c #273041",
"U.	c #1C222E",
"V.	c #1D232E",
"W.	c #1F2632",
"X.	c #212936",
"Y.	c #3B475E",
"Z.	c #3B485E",
"`.	c #435069",
" +	c #45536C",
".+	c #4A5973",
"++	c #4F5F7D",
"@+	c #556786",
"#+	c #586B8B",
"$+	c #536584",
"%+	c #495974",
"&+	c #3D4A62",
"*+	c #323C4D",
"=+	c #242B38",
"-+	c #171B23",
";+	c #0A0B0C",
">+	c #11151E",
",+	c #11161F",
"'+	c #171C27",
")+	c #12161E",
"!+	c #1C222D",
"~+	c #191E27",
"{+	c #14171E",
"]+	c #2E312B",
"^+	c #A3A429",
"/+	c #707028",
"(+	c #161719",
"_+	c #151515",
":+	c #161616",
"<+	c #595923",
"[+	c #C4C424",
"}+	c #42421E",
"|+	c #111111",
"1+	c #0D0D0D",
"2+	c #020202",
"3+	c #040404",
"4+	c #060606",
"5+	c #090909",
"6+	c #0C0C0C",
"7+	c #0F0F0F",
"8+	c #121212",
"9+	c #848428",
"0+	c #FEFE04",
"a+	c #DBDB24",
"b+	c #21211A",
"c+	c #181818",
"d+	c #A5A529",
"e+	c #FFFF01",
"f+	c #8B8B29",
"g+	c #0E0E0E",
"h+	c #888828",
"i+	c #FFFF02",
"j+	c #DDDD24",
"k+	c #22221A",
"l+	c #999929",
"m+	c #FEFE05",
"n+	c #7E7E27",
"o+	c #1F2532",
"p+	c #1B212B",
"q+	c #161921",
"r+	c #0C0D0F",
"s+	c #0B0B0B",
"t+	c #32321B",
"u+	c #B6B625",
"v+	c #7E7E26",
"w+	c #181817",
"x+	c #171717",
"y+	c #37371D",
"z+	c #8F8F25",
"A+	c #282818",
"B+	c #18181A",
"C+	c #2E323B",
"D+	c #293141",
"E+	c #2B3545",
"F+	c #30394B",
"G+	c #373F4F",
"H+	c #3B3F4C",
"I+	c #414349",
"J+	c #4C4A4B",
"K+	c #555251",
"L+	c #4F4C4D",
"M+	c #222223",
"N+	c #141414",
"O+	c #49484C",
"P+	c #6D6A6B",
"Q+	c #4F535E",
"R+	c #363F50",
"S+	c #283141",
"T+	c #3A4558",
"U+	c #4F5665",
"V+	c #8C888B",
"W+	c #908B8D",
"X+	c #535763",
"Y+	c #1A1B1E",
"Z+	c #2D2F36",
"`+	c #78767C",
" @	c #7C797D",
".@	c #353F51",
"+@	c #2E3847",
"@@	c #27303F",
"#@	c #2A3343",
"$@	c #2D3749",
"%@	c #364054",
"&@	c #3B4559",
"*@	c #626571",
"=@	c #9A9494",
"-@	c #676973",
";@	c #323741",
">@	c #3C414D",
",@	c #878387",
"'@	c #65666F",
")@	c #313B4D",
"!@	c #293241",
"~@	c #1E2632",
"{@	c #252E3D",
"]@	c #293242",
"^@	c #2C3648",
"/@	c #374256",
"(@	c #3E485B",
"_@	c #8F8B8F",
":@	c #7E7D85",
"<@	c #394151",
"[@	c #0E0E0F",
"}@	c #0D0D0E",
"|@	c #4D515D",
"1@	c #8A8B95",
"2@	c #555A67",
"3@	c #2F394B",
"4@	c #252D3A",
"5@	c #1D2532",
"6@	c #222B3B",
"7@	c #2E394C",
"8@	c #354155",
"9@	c #767884",
"0@	c #9697A2",
"a@	c #4F5668",
"b@	c #1F252F",
"c@	c #11151D",
"d@	c #636776",
"e@	c #888DA0",
"f@	c #404757",
"g@	c #2D3748",
"h@	c #272F3D",
"i@	c #1F2735",
"j@	c #212B3A",
"k@	c #232C3D",
"l@	c #263142",
"m@	c #2A3548",
"n@	c #2E3A4E",
"o@	c #303D51",
"p@	c #313E52",
"q@	c #4E5565",
"r@	c #989BAC",
"s@	c #777C8D",
"t@	c #343D4D",
"u@	c #83848F",
"v@	c #7B7E8C",
"w@	c #303A4C",
"x@	c #2A3242",
"y@	c #1A212C",
"z@	c #212939",
"A@	c #212A3B",
"B@	c #222D3D",
"C@	c #242F41",
"D@	c #273346",
"E@	c #2C384C",
"F@	c #2D3B4F",
"G@	c #2F3C51",
"H@	c #858A9D",
"I@	c #8F93A6",
"J@	c #41495B",
"K@	c #56565D",
"L@	c #959194",
"M@	c #4E525F",
"N@	c #2E3A4C",
"O@	c #2C3748",
"P@	c #232935",
"Q@	c #1C2431",
"R@	c #202A3A",
"S@	c #222C3C",
"T@	c #242F40",
"U@	c #263144",
"V@	c #293548",
"W@	c #2C384D",
"X@	c #2D3A4F",
"Y@	c #2E3B50",
"Z@	c #606677",
"`@	c #9599AC",
" #	c #585D6C",
".#	c #4C4C54",
"+#	c #898487",
"@#	c #2E384B",
"##	c #2D394C",
"$#	c #2B3648",
"%#	c #262D3B",
"&#	c #1E2636",
"*#	c #202A3B",
"=#	c #222B3D",
"-#	c #242E41",
";#	c #283447",
">#	c #29364A",
",#	c #2B384D",
"'#	c #2C394E",
")#	c #2D3B50",
"!#	c #374255",
"~#	c #7F8394",
"{#	c #727481",
"]#	c #333D4E",
"^#	c #494A54",
"/#	c #283347",
"(#	c #2C374A",
"_#	c #293345",
":#	c #1E232D",
"<#	c #1D2535",
"[#	c #1F293A",
"}#	c #212B3D",
"|#	c #222D40",
"1#	c #253044",
"2#	c #273448",
"3#	c #28354A",
"4#	c #2B374C",
"5#	c #757785",
"6#	c #82828E",
"7#	c #3B4557",
"8#	c #20293A",
"9#	c #253146",
"0#	c #2A3549",
"a#	c #293447",
"b#	c #273144",
"c#	c #161D29",
"d#	c #1B2332",
"e#	c #1E2739",
"f#	c #202A3E",
"g#	c #222D42",
"h#	c #243045",
"i#	c #273348",
"j#	c #28344A",
"k#	c #29354B",
"l#	c #5C5F6D",
"m#	c #87848D",
"n#	c #4F5564",
"o#	c #212D42",
"p#	c #242F42",
"q#	c #212B3B",
"r#	c #1D2432",
"s#	c #171C25",
"t#	c #151921",
"u#	c #141922",
"v#	c #141B28",
"w#	c #18202F",
"x#	c #1C2537",
"y#	c #1F293C",
"z#	c #202B3F",
"A#	c #212D41",
"B#	c #232E43",
"C#	c #253145",
"D#	c #3F4556",
"E#	c #72717A",
"F#	c #565864",
"G#	c #131A29",
"H#	c #171E2C",
"I#	c #161B26",
"J#	c #16191F",
"K#	c #15181E",
"L#	c #1A1F28",
"M#	c #1B1F27",
"N#	c #191E24",
"O#	c #171B21",
"P#	c #161A1F",
"Q#	c #161A21",
"R#	c #161B22",
"S#	c #171C24",
"T#	c #181D25",
"U#	c #202329",
"V#	c #191D22",
"W#	c #181B20",
"X#	c #1A1E23",
"Y#	c #1C2025",
"Z#	c #1B2026",
"`#	c #1B1F26",
" $	c #1A1F26",
".$	c #191E28",
"+$	c #1A2029",
"@$	c #1B2029",
"#$	c #1B212A",
"$$	c #1C212A",
"%$	c #1C222A",
"&$	c #1E232B",
"*$	c #1E242C",
"=$	c #1F242D",
"-$	c #1E232C",
";$	c #1E222A",
">$	c #1D222A",
",$	c #1D2129",
"'$	c #1C2129",
")$	c #1B2028",
"!$	c #1A2027",
"~$	c #1A2028",
"{$	c #141820",
"]$	c #1A1F29",
"^$	c #1B202A",
"/$	c #1C212B",
"($	c #1C222C",
"_$	c #1F2531",
":$	c #202632",
"<$	c #212733",
"[$	c #202631",
"}$	c #1F242F",
"|$	c #1E222B",
"1$	c #1D222B",
"2$	c #181C24",
"3$	c #1D222D",
"4$	c #1E242F",
"5$	c #202734",
"6$	c #212834",
"7$	c #1F242E",
"8$	c #1B202B",
"9$	c #202633",
"0$	c #222936",
"a$	c #212734",
"b$	c #202733",
"c$	c #1D242E",
"d$	c #1D242F",
"e$	c #1A202A",
"f$	c #1B212C",
"g$	c #212837",
"h$	c #212937",
"i$	c #1E242E",
"j$	c #1C212C",
"k$	c #1E2532",
"l$	c #181D27",
"m$	c #202836",
"n$	c #212938",
"o$	c #1F2631",
"p$	c #1F2634",
"q$	c #1E2530",
"r$	c #232B39",
"s$	c #222B39",
"t$	c #1E2430",
"u$	c #2B3444",
"v$	c #1D2430",
"w$	c #232A38",
"x$	c #3D4B63",
"y$	c #455470",
"z$	c #364155",
"A$	c #2D3647",
"B$	c #303B4D",
"C$	c #43516B",
"D$	c #45546F",
"E$	c #495977",
"F$	c #4D5E7E",
"G$	c #4F6181",
"H$	c #566889",
"I$	c #5F7396",
"J$	c #64799E",
"K$	c #687DA4",
"L$	c #63789D",
"M$	c #516381",
"N$	c #43526B",
"O$	c #303A4D",
"P$	c #242D3C",
"Q$	c #222B3A",
"R$	c #252E3E",
"S$	c #42506A",
"T$	c #485773",
"U$	c #4D5D7B",
"V$	c #556788",
"W$	c #5E7298",
"X$	c #63789F",
"Y$	c #6B81A8",
"Z$	c #7187AF",
"`$	c #6F86AD",
" %	c #3C4961",
".%	c #242E3E",
"+%	c #222A3A",
"@%	c #161C26",
"#%	c #151B25",
"$%	c #1E2533",
"%%	c #232D3D",
"&%	c #262F41",
"*%	c #273143",
"=%	c #2D384C",
"-%	c #333F54",
";%	c #44536E",
">%	c #4A5A77",
",%	c #4D5F7E",
"'%	c #506181",
")%	c #506180",
"!%	c #495975",
"~%	c #3C4962",
"{%	c #2E394D",
"]%	c #283244",
"^%	c #263042",
"/%	c #1E2635",
"(%	c #121720",
"_%	c #242D3E",
":%	c #283245",
"<%	c #273244",
"[%	c #283346",
"}%	c #293346",
"|%	c #283144",
"1%	c #070A10",
"2%	c #111722",
"3%	c #1A2230",
"4%	c #1D2533",
"5%	c #1E2736",
"6%	c #1F2837",
"7%	c #202938",
"8%	c #1C2432",
"9%	c #171F2B",
"0%	c #000000",
"                                                                                                                                ",
"                                                                                                                                ",
"                                                                                                                                ",
"                                                                                                                                ",
"                                                                                                                                ",
"                                                                                                                                ",
"                                                                                                                                ",
"                                                . + @ #                                                                         ",
"                                              $ % & * = - ;                                                                     ",
"                                              > , ' ) = ! ~ {                                                                   ",
"                                              ] ^ # / ( _ : < [                                                                 ",
"                                                } | 1 2 = 3 4 5 6                                                               ",
"                                                  7 8 9 0 a b _ c d                                                             ",
"                                                  e f g ( a h 4 0 i j                                                           ",
"                                                  k l 1 ( < m n , o [ p                                                         ",
"                                                  q r 1 * s t u v w x y                                                         ",
"                                                  z A B C s D E F G H I J                                                       ",
"                                                  q r B K L M N O P o Q R S                                                     ",
"                                                T U V W Q q X Y Z `  ...+.T S                                                   ",
"                                                @.#.$.%.&.*.=.-.&.;.>.>.,.+.T '.                                                ",
"                                              ).@.!.~.{.].^.-.-.-./.(._.:.<.[.R }.|.                                            ",
"                                            1.2.T 3.4.5.:.6.*.'.7.8.9.0.f a.b.c.d.e.f.g.} 7                                     ",
"                                      }.h.i.j.# k./ l.m., n.o.p.q.r.s.t.u.v.w.x.y.o z.A.B.C.                                    ",
"                                    7 . . D.g.I E.C F.G.H.F I.J.K.L.M.N.O.^ P.Q.R.S.T.U.                                        ",
"                                    V.W.X.# { & 2 Y.Z.`. +: .+++@+#+$+%+&+*+=+-+;+                                              ",
"                                            >+,+'.'+)+!+~+{+]+^+/+(+_+:+<+[+}+|+1+                                              ",
"                                              2+3+4+5+6+7+8+9+0+a+b+c+c+d+e+f+8+g+                                              ",
"                                              2+3+4+5+6+7+8+h+i+j+k+c+c+l+m+n+|+1+                                              ",
"                                            }.o+p+q+r+s+7+|+t+u+v+w+x+x+y+z+A+B+C+                                              ",
"                                            J D+E+F+G+H+I+J+K+L+M+:+:+:+N+O+P+Q+R+                                              ",
"                                              q S+k.6 ) T+U+V+W+X+Y+N+N+Z+`+ @.@+@                                              ",
"                                              j.@@#@$@z.%@&@*@=@-@;@8+8+>@,@'@)@!@                                              ",
"                                              ~@{@]@^@c.1 /@(@_@:@<@[@}@|@1@2@3@4@                                              ",
"                                              5@6@T.r 7@/ i 8@9@0@a@b@c@d@e@f@g@h@                                              ",
"                                              i@j@k@l@m@n@o@p@q@r@s@t@Q u@v@w@+ x@                                              ",
"                                            y@z@A@B@C@D@E@F@G@p@H@I@J@K@L@M@N@O@]@P@                                            ",
"                                            Q@R@S@T@U@V@W@X@Y@Y@Z@`@ #.#+#@###$##@%#                                            ",
"                                            &#*#=#-#U@;#>#,#'#)#!#~#{#]#^#/#(#$#_#S+:#                                          ",
"                                          :.<#[#}#|#1#2#3#4#,#W@o@5#6#7#8#9#0#a#b#T.W.                                          ",
"                                          ,+c#d#e#f#g#h#i#j#k#k#'#l#m#n#S+o#1#p#q#r#s#                                          ",
"                                              t#u#v#w#x#y#z#A#B#C#D#E#F#; G#H#I#J#K#                                            ",
"                                            s#L#L#M#N#O#P#Q#R#S#S#T#U#V#W#X#Y#Z#`# $                                            ",
"                                            .$+$+$@$#$$$%$&$*$=$-$;$;$;$>$,$'$)$!$~${$                                          ",
"                                            ]$^$^$/$($V._$:$<$<$[$b@}$:#-$|$1$#$@$~$2$                                          ",
"                                          ~+^$^$p+3$4$o+5$5$7 7 6$<$[$}$7$}$V./$^$^$^$                                          ",
"                                          ]$8$p+!+1.h.9$. 7 0$0$7 a$:$_$9$b$c$/$$$!+d$                                          ",
"                                          e$f$U.1.}.i.7 g$j D.j 7 6$a$h$j :$i$j$j$k$}.l$                                        ",
"                                          U.V.1.h.i.m$j n$e j 0$0$e k Q 7 o$4$!+h.p$D.q$                                        ",
"                                        f$0$X.5$i.p$m$n$h$e r$r$k k s$j.W._$t$J @@u$]@0$                                        ",
"                                        v$g.h@!@E+A k.$ ; Q n$n$n$g$J w$[ x$y$t z$w@E+w$                                        ",
"                                        h.e e.A$B$S.% m C$D$E$F$G$H$I$J$K$L$M$N$5 O$P$k$                                        ",
"                                        |.z@Q$R$^@o &+S$D T$U$V$W$X$Y$Z$`$J$t. %r .%+%@%                                        ",
"                                          #%$%%%&%*%_#=%-% %;%>%,%'%)%!%~%{%_#]%^%/%(%                                          ",
"                                                ~.:._%]%:%<%]%b#b#b#:%:%[%}%|%^.,+                                              ",
"                                                      1%2%3%4%/%5%6%7%8%9%$.                                                    ",
"                                                      0%0%            0%0%                                                      ",
"                                                      0%0%            0%0%                                                      ",
"                                                      0%0%            0%0%                                                      ",
"                                                      0%0%            0%                                                        ",
"                                                                                                                                ",
"                                                                                                                                ",
"                                                                                                                                ",
"                                                                                                                                ",
"                                                                                                                                "};
