/* XPM */
static char * player_idle_8_xpm[] = {
"64 64 583 2",
"  	c None",
". 	c #232B3A",
"+ 	c #2E374A",
"@ 	c #2D3648",
"# 	c #252D3C",
"$ 	c #2B3547",
"% 	c #38445A",
"& 	c #303B4E",
"* 	c #3A455B",
"= 	c #3A465C",
"- 	c #364256",
"; 	c #232B39",
"> 	c #43526C",
", 	c #080B11",
"' 	c #343F54",
") 	c #3A465D",
"! 	c #3D4960",
"~ 	c #3B475D",
"{ 	c #293243",
"] 	c #43516B",
"^ 	c #556787",
"/ 	c #1C232F",
"( 	c #333F53",
"_ 	c #3E4A62",
": 	c #404D64",
"< 	c #3B485E",
"[ 	c #2D3749",
"} 	c #1B212D",
"| 	c #333D51",
"1 	c #364257",
"2 	c #3E4B63",
"3 	c #404D65",
"4 	c #2E384A",
"5 	c #222A38",
"6 	c #303A4D",
"7 	c #38455B",
"8 	c #414F67",
"9 	c #384459",
"0 	c #333E52",
"a 	c #3F4C63",
"b 	c #212937",
"c 	c #242C3B",
"d 	c #2C3648",
"e 	c #37445A",
"f 	c #3C485F",
"g 	c #3F4C64",
"h 	c #425069",
"i 	c #3B485F",
"j 	c #354055",
"k 	c #1A202B",
"l 	c #252E3D",
"m 	c #2C3548",
"n 	c #323D51",
"o 	c #39455C",
"p 	c #424F68",
"q 	c #475670",
"r 	c #485873",
"s 	c #303B4F",
"t 	c #262E3E",
"u 	c #262F3F",
"v 	c #3E4C64",
"w 	c #46546F",
"x 	c #4D5D79",
"y 	c #4D5D7A",
"z 	c #45536D",
"A 	c #364258",
"B 	c #293244",
"C 	c #202735",
"D 	c #252E3E",
"E 	c #2B3548",
"F 	c #323D52",
"G 	c #39465D",
"H 	c #4B5A75",
"I 	c #4D5C78",
"J 	c #47556F",
"K 	c #414E65",
"L 	c #19202B",
"M 	c #181E28",
"N 	c #181E29",
"O 	c #191F2B",
"P 	c #1D2432",
"Q 	c #222A39",
"R 	c #252D3D",
"S 	c #242C3C",
"T 	c #23252C",
"U 	c #383B44",
"V 	c #444752",
"W 	c #474B55",
"X 	c #171C25",
"Y 	c #161C27",
"Z 	c #181F2A",
"` 	c #171D28",
" .	c #131924",
"..	c #151C28",
"+.	c #181F2B",
"@.	c #191F2C",
"#.	c #1A212E",
"$.	c #19202D",
"%.	c #1F2129",
"&.	c #3B3E48",
"*.	c #151A24",
"=.	c #181D28",
"-.	c #191F2A",
";.	c #151B27",
">.	c #121822",
",.	c #141A25",
"'.	c #171E2A",
").	c #19202C",
"!.	c #191D26",
"~.	c #282A32",
"{.	c #3B3D47",
"].	c #161C28",
"^.	c #151A25",
"/.	c #1B222E",
"(.	c #1E2532",
"_.	c #1D2430",
":.	c #1B212C",
"<.	c #131822",
"[.	c #111620",
"}.	c #131823",
"|.	c #161D28",
"1.	c #181E2A",
"2.	c #181D29",
"3.	c #32353E",
"4.	c #41454F",
"5.	c #474A55",
"6.	c #373A44",
"7.	c #2E394D",
"8.	c #354157",
"9.	c #344056",
"0.	c #303A4F",
"a.	c #283141",
"b.	c #262F3E",
"c.	c #262E3D",
"d.	c #222937",
"e.	c #1E2430",
"f.	c #1E2531",
"g.	c #1F2632",
"h.	c #212835",
"i.	c #2A3445",
"j.	c #2F3A4E",
"k.	c #323E52",
"l.	c #364359",
"m.	c #3A465E",
"n.	c #3D4A63",
"o.	c #45556F",
"p.	c #414E66",
"q.	c #46536D",
"r.	c #4A5A76",
"s.	c #4F607E",
"t.	c #4D5E7B",
"u.	c #485772",
"v.	c #43516A",
"w.	c #3B4860",
"x.	c #313C50",
"y.	c #171D26",
"z.	c #202835",
"A.	c #202734",
"B.	c #404D66",
"C.	c #44526C",
"D.	c #485771",
"E.	c #546685",
"F.	c #5A6D8E",
"G.	c #5C6F91",
"H.	c #5F7295",
"I.	c #607497",
"J.	c #5E7295",
"K.	c #576989",
"L.	c #526381",
"M.	c #4A5A75",
"N.	c #3F4D65",
"O.	c #191E29",
"P.	c #1F2633",
"Q.	c #222A37",
"R.	c #2A3344",
"S.	c #354156",
"T.	c #3C495F",
"U.	c #46546D",
"V.	c #4B5A74",
"W.	c #50607D",
"X.	c #566787",
"Y.	c #596B8C",
"Z.	c #536584",
"`.	c #495974",
" +	c #303A4B",
".+	c #212834",
"++	c #15181F",
"@+	c #09090A",
"#+	c #161C26",
"$+	c #171D27",
"%+	c #1C222E",
"&+	c #141922",
"*+	c #1C212C",
"=+	c #14181F",
"-+	c #2F332F",
";+	c #A2A22B",
">+	c #707028",
",+	c #16171A",
"'+	c #151515",
")+	c #161615",
"!+	c #595923",
"~+	c #C4C424",
"{+	c #42421E",
"]+	c #111111",
"^+	c #0D0D0D",
"/+	c #020202",
"(+	c #040404",
"_+	c #060606",
":+	c #090909",
"<+	c #0C0C0C",
"[+	c #0F0F0F",
"}+	c #121212",
"|+	c #848428",
"1+	c #FEFE04",
"2+	c #DBDB24",
"3+	c #21211A",
"4+	c #181818",
"5+	c #A5A529",
"6+	c #FFFF01",
"7+	c #8B8B29",
"8+	c #0E0E0E",
"9+	c #888828",
"0+	c #FFFF02",
"a+	c #DDDD24",
"b+	c #22221A",
"c+	c #999929",
"d+	c #FEFE05",
"e+	c #7E7E27",
"f+	c #1D242F",
"g+	c #191E28",
"h+	c #13161C",
"i+	c #0A0B0D",
"j+	c #0B0B0C",
"k+	c #32321B",
"l+	c #B6B625",
"m+	c #7E7E26",
"n+	c #181817",
"o+	c #171717",
"p+	c #37371D",
"q+	c #8F8F25",
"r+	c #282818",
"s+	c #151516",
"t+	c #2C2F38",
"u+	c #293141",
"v+	c #2C3545",
"w+	c #313A4B",
"x+	c #363E4D",
"y+	c #393E49",
"z+	c #3D3E44",
"A+	c #474546",
"B+	c #4F4B4B",
"C+	c #494646",
"D+	c #1E1D1E",
"E+	c #161616",
"F+	c #141414",
"G+	c #444447",
"H+	c #686567",
"I+	c #4E515D",
"J+	c #373F51",
"K+	c #283241",
"L+	c #2B3546",
"M+	c #2F394B",
"N+	c #333D50",
"O+	c #3C4659",
"P+	c #545968",
"Q+	c #8E8A8C",
"R+	c #8F8B8D",
"S+	c #535661",
"T+	c #19191B",
"U+	c #2B2D33",
"V+	c #76757B",
"W+	c #7D7A7E",
"X+	c #363F51",
"Y+	c #2E3848",
"Z+	c #27303F",
"`+	c #2A3343",
" @	c #364154",
".@	c #3B4659",
"+@	c #656773",
"@@	c #9A9494",
"#@	c #656772",
"$@	c #323640",
"%@	c #3C414C",
"&@	c #868386",
"*@	c #67676F",
"=@	c #313C4D",
"-@	c #2A3241",
";@	c #1E2633",
">@	c #262F3D",
",@	c #293242",
"'@	c #2F394D",
")@	c #333E51",
"!@	c #384256",
"~@	c #40495C",
"{@	c #908C90",
"]@	c #7D7C84",
"^@	c #384050",
"/@	c #0D0D0E",
"(@	c #4C505C",
"_@	c #8A8A94",
":@	c #565A67",
"<@	c #252D3B",
"[@	c #1D2532",
"}@	c #222B3B",
"|@	c #273141",
"1@	c #2E394C",
"2@	c #354054",
"3@	c #354155",
"4@	c #787A86",
"5@	c #9495A0",
"6@	c #4C5465",
"7@	c #1D222C",
"8@	c #10141B",
"9@	c #616574",
"0@	c #888EA0",
"a@	c #424959",
"b@	c #2D3748",
"c@	c #272E3C",
"d@	c #1F2635",
"e@	c #212B3A",
"f@	c #232D3D",
"g@	c #263143",
"h@	c #2A3649",
"i@	c #313D51",
"j@	c #323E53",
"k@	c #525868",
"l@	c #989CAC",
"m@	c #74798A",
"n@	c #333C4B",
"o@	c #202837",
"p@	c #80818E",
"q@	c #7C808E",
"r@	c #2A3242",
"s@	c #212939",
"t@	c #212A3B",
"u@	c #222D3D",
"v@	c #242F41",
"w@	c #273346",
"x@	c #2C384C",
"y@	c #2D3B4F",
"z@	c #2F3C51",
"A@	c #323F53",
"B@	c #878C9F",
"C@	c #8D92A5",
"D@	c #3F4859",
"E@	c #52525A",
"F@	c #959195",
"G@	c #535763",
"H@	c #2E3A4C",
"I@	c #2C3748",
"J@	c #232935",
"K@	c #1C2331",
"L@	c #202A3A",
"M@	c #222C3C",
"N@	c #242F40",
"O@	c #263144",
"P@	c #293548",
"Q@	c #2C394D",
"R@	c #2D3A4F",
"S@	c #2E3B50",
"T@	c #2F3B50",
"U@	c #646A7B",
"V@	c #9599AC",
"W@	c #565B6A",
"X@	c #505056",
"Y@	c #8B8789",
"Z@	c #2F394C",
"`@	c #2D394C",
" #	c #2B3648",
".#	c #262D3A",
"+#	c #1E2636",
"@#	c #202A3B",
"##	c #222B3D",
"$#	c #242E40",
"%#	c #283447",
"&#	c #29364A",
"*#	c #2B384D",
"=#	c #2C394E",
"-#	c #394457",
";#	c #828596",
">#	c #70727F",
",#	c #333C4D",
"'#	c #51525B",
")#	c #283348",
"!#	c #2C374A",
"~#	c #293345",
"{#	c #1E222C",
"]#	c #1D2635",
"^#	c #1F293A",
"/#	c #212B3D",
"(#	c #222D40",
"_#	c #253044",
":#	c #273448",
"<#	c #28354A",
"[#	c #303D51",
"}#	c #777987",
"|#	c #81818D",
"1#	c #3A4457",
"2#	c #1F2939",
"3#	c #253146",
"4#	c #2A3549",
"5#	c #293447",
"6#	c #283244",
"7#	c #273041",
"8#	c #202632",
"9#	c #121720",
"0#	c #181F2C",
"a#	c #1C2434",
"b#	c #1E283A",
"c#	c #202B3F",
"d#	c #222E43",
"e#	c #253046",
"f#	c #273349",
"g#	c #29354A",
"h#	c #29354B",
"i#	c #5F6270",
"j#	c #87848D",
"k#	c #4C5362",
"l#	c #222D42",
"m#	c #253145",
"n#	c #253043",
"o#	c #222C3D",
"p#	c #1F2735",
"q#	c #181D26",
"r#	c #141921",
"s#	c #151D2B",
"t#	c #1A2333",
"u#	c #212D41",
"v#	c #243045",
"w#	c #263247",
"x#	c #434959",
"y#	c #78767F",
"z#	c #595B68",
"A#	c #161E2E",
"B#	c #192131",
"C#	c #171D29",
"D#	c #161921",
"E#	c #15181E",
"F#	c #171C24",
"G#	c #1A1F28",
"H#	c #1A1F27",
"I#	c #1A1E26",
"J#	c #171C22",
"K#	c #151A1F",
"L#	c #151A21",
"M#	c #161B23",
"N#	c #161B25",
"O#	c #1A202A",
"P#	c #282B31",
"Q#	c #202329",
"R#	c #171A1F",
"S#	c #191C21",
"T#	c #1A1E24",
"U#	c #1B2025",
"V#	c #1B1F26",
"W#	c #1A1F26",
"X#	c #191E27",
"Y#	c #1A2029",
"Z#	c #1B2028",
"`#	c #1B2129",
" $	c #1C2129",
".$	c #1C222A",
"+$	c #1D222B",
"@$	c #1E232C",
"#$	c #1F242C",
"$$	c #1E232B",
"%$	c #1E222A",
"&$	c #1D222A",
"*$	c #1D2129",
"=$	c #1B2128",
"-$	c #1A2027",
";$	c #1A2028",
">$	c #151921",
",$	c #1A1F29",
"'$	c #1B202A",
")$	c #1B212B",
"!$	c #1D232E",
"~$	c #1F2530",
"{$	c #202733",
"]$	c #212733",
"^$	c #202631",
"/$	c #1F252F",
"($	c #1F242F",
"_$	c #1E232D",
":$	c #1E222B",
"<$	c #1B212A",
"[$	c #1B2029",
"}$	c #181C25",
"|$	c #1C222D",
"1$	c #1E242F",
"2$	c #1F2531",
"3$	c #212734",
"4$	c #1F242E",
"5$	c #1C212B",
"6$	c #1D232F",
"7$	c #1E2530",
"8$	c #222936",
"9$	c #1C212A",
"0$	c #212836",
"a$	c #222835",
"b$	c #212936",
"c$	c #202633",
"d$	c #1E2431",
"e$	c #212938",
"f$	c #191F29",
"g$	c #1F2532",
"h$	c #1F2734",
"i$	c #202836",
"j$	c #232A39",
"k$	c #232B3B",
"l$	c #222B3A",
"m$	c #2A3342",
"n$	c #232B38",
"o$	c #242B39",
"p$	c #262E3C",
"q$	c #283140",
"r$	c #273040",
"s$	c #222938",
"t$	c #212A38",
"u$	c #272F3F",
"v$	c #364157",
"w$	c #42506B",
"x$	c #414F68",
"y$	c #303B4C",
"z$	c #2C3546",
"A$	c #252C3B",
"B$	c #343F52",
"C$	c #38455A",
"D$	c #3E4B62",
"E$	c #404E67",
"F$	c #414F69",
"G$	c #455470",
"H$	c #485875",
"I$	c #495977",
"J$	c #4F607F",
"K$	c #5F7396",
"L$	c #657AA0",
"M$	c #64799F",
"N$	c #44536D",
"O$	c #3B475E",
"P$	c #313C4F",
"Q$	c #2D374A",
"R$	c #3C4A61",
"S$	c #4A5A77",
"T$	c #536485",
"U$	c #5D7196",
"V$	c #63789E",
"W$	c #6A7FA7",
"X$	c #7087AE",
"Y$	c #6F86AE",
"Z$	c #687DA4",
"`$	c #242D3E",
" %	c #252F40",
".%	c #273143",
"+%	c #2B3649",
"@%	c #333E53",
"#%	c #495976",
"$%	c #536587",
"%%	c #56688A",
"&%	c #576A8B",
"*%	c #526483",
"=%	c #465671",
"-%	c #354258",
";%	c #2A3548",
">%	c #273042",
",%	c #212A39",
"'%	c #151B26",
")%	c #121721",
"!%	c #1A212F",
"~%	c #263042",
"{%	c #283245",
"]%	c #273144",
"^%	c #273244",
"/%	c #293346",
"(%	c #1E2635",
"_%	c #06090F",
":%	c #0F151E",
"<%	c #202838",
"[%	c #212A3A",
"}%	c #232C3D",
"|%	c #202939",
"1%	c #1D2533",
"2%	c #000000",
"                                                                                                                                ",
"                                                                                                                                ",
"                                                                                                                                ",
"                                                                                                                                ",
"                                                                                                                                ",
"                                                                                                                                ",
"                                                                                                                                ",
"                                                . + @ #                                                                         ",
"                                              $ % & * = - ;                                                                     ",
"                                              > % , ' ) ! ~ {                                                                   ",
"                                              ] ^ / ( % _ : < [                                                                 ",
"                                                . } | 1 ) 2 3 ) 4                                                               ",
"                                                  5 6 ' 7 ! 8 ! 9 {                                                             ",
"                                                  ; 4 0 % ! a 3 % ' b                                                           ",
"                                                  c d | e f g h i j + k                                                         ",
"                                                  l m n o 2 p q r 2 s t                                                         ",
"                                                  u d n o v w x y z A B C                                                       ",
"                                                  D E F G h H I J K 0 b L M                                                     ",
"                                                N N O P Q R S T U V W X Y N M                                                   ",
"                                                Z `  ...+.@.#.$.+.%.&.&.*.Y N =.                                                ",
"                                              -.Z ;.>.,.'.).$.$.$.!.~.{.].,.^./.(._.:.                                          ",
"                                            / } ` <.[.}.|.1.).2.3.4.5.6.7.8.9.0.$ a.b.c.# d.                                    ",
"                                      e.f.g.h.# i.j.k.l.m.n.> o.p.q.r.s.t.r.u.v.w.1 x.4 b.y.                                    ",
"                                    z.A.z.d.c { & o B.C.D.x E.F.G.H.I.J.G.K.L.M.N.0 D O.                                        ",
"                                    _.P.Q.c.R.6 S.< T.v.U.K V.W.X.Y.Z.`.!  +.+++@+                                              ",
"                                            #+$+%+%+&+P.*+=+-+;+>+,+'+)+!+~+{+]+^+                                              ",
"                                              /+(+_+:+<+[+}+|+1+2+3+4+4+5+6+7+}+8+                                              ",
"                                              /+(+_+:+<+[+}+9+0+a+b+4+4+c+d+e+]+^+                                              ",
"                                            _.f+g+h+i+j+[+]+k+l+m+n+o+o+p+q+r+s+t+                                              ",
"                                            z.u+v+w+x+y+z+A+B+C+D+E+E+E+F+G+H+I+J+                                              ",
"                                              c.K+L+M+N+O+P+Q+R+S+T+F+F+U+V+W+X+Y+                                              ",
"                                              b Z+`+[ &  @.@+@@@#@$@}+}+%@&@*@=@-@                                              ",
"                                              ;@>@,@d '@)@!@~@{@]@^@8+/@(@_@:@M+<@                                              ",
"                                              [@}@|@$ 1@x.2@3@4@5@6@7@8@9@0@a@b@c@                                              ",
"                                              d@e@f@g@h@j.i@j@k@l@m@n@o@p@q@6 @ r@                                              ",
"                                              s@t@u@v@w@x@y@z@A@B@C@D@E@F@G@H@I@,@J@                                            ",
"                                            K@L@M@N@O@P@Q@R@S@T@U@V@W@X@Y@Z@`@ #`+.#                                            ",
"                                            +#@###$#O@%#&#*#=#S@-#;#>#,#'#)#!# #~#a.{#                                          ",
"                                          ].]#^#/#(#_#:#<#*#*#=#[#}#|#1#2#3#4#5#6#7#8#                                          ",
"                                          9#0#a#b#c#d#e#f#g#h#h#=#i#j#k#7#l#m#n#o#p#q#                                          ",
"                                              r#*.s#t#b#c#u#d#v#w#x#y#z#b.A#B#C#D#E#                                            ",
"                                            F#G#H#I#J#K#L#M#N##+` O#P#Q#R#S#T#U#V#W#                                            ",
"                                            X#Y#Y#Z#`# $.$+$@$#$$$%$%$%$&$*$ $=$-$;$>$                                          ",
"                                            ,$'$'$)$*+!$~$8#{$]$^$/$($_$@$:$+$<$[$;$}$                                          ",
"                                            '$'$)$|$1$2${$A.h.h.3$]$^$($4$($!$5$'$'$)$                                          ",
"                                          g+'$)$|$6$7$g.z.C 8$8$h.3$8#2$8#{$1$5$9$|$e.                                          ",
"                                          ,$:.|$6$e.P.A.0$b 5 d.a$.+3$b$d.c$1$*+5$(.f.g+                                        ",
"                                          :.%+6$d$P.C b e$5 Q.8$8$Q.. ; h.8#1$|$e.P.b$g.                                        ",
"                                        f$h.A.(.g$h$i$e$e$5 j$j$. k$l$b$c$2$e.P.l `+m$n$                                        ",
"                                        %+o$p$q$,@,@r$S 5 s$5 t$e$b A.A.u$v$w$x$- y$z$A$                                        ",
"                                        %+; q$v+M+B$C$D$E$F$G$H$I$J$Y.K$L$M$E.N$O$P$b.h$                                        ",
"                                        _.e$Q u Q$S.R$E$] w S$T$U$V$W$X$Y$Z$Z.x$1@D k$-.                                        ",
"                                          1.o@`$ %.%+%@%G x$#%J$$%%%&%*%=%-%;%6#>%,%'%                                          ",
"                                              )%0#!%~%{%6#]%^%]%]%^%6#{%{%/%~#(%'%                                              ",
"                                                    _%:%0#(%<%[%}@}@}%|%1%$. .                                                  ",
"                                                      2%2%            2%2%                                                      ",
"                                                      2%2%            2%2%                                                      ",
"                                                      2%2%            2%2%                                                      ",
"                                                      2%2%            2%                                                        ",
"                                                                                                                                ",
"                                                                                                                                ",
"                                                                                                                                ",
"                                                                                                                                ",
"                                                                                                                                "};
