/* XPM */
static char * player_xpm[] = {
"64 64 675 2",
"  	c None",
". 	c #262E3D",
"+ 	c #2B3445",
"@ 	c #293242",
"# 	c #333F54",
"$ 	c #354156",
"% 	c #354055",
"& 	c #38445A",
"* 	c #374358",
"= 	c #2E384B",
"- 	c #44526C",
"; 	c #2C3648",
"> 	c #232B3A",
", 	c #374258",
"' 	c #3A465C",
") 	c #3B465C",
"! 	c #4F607E",
"~ 	c #475771",
"{ 	c #252E3E",
"] 	c #39455C",
"^ 	c #3D4960",
"/ 	c #364156",
"( 	c #242C3B",
"_ 	c #303B4E",
": 	c #262F3F",
"< 	c #333F52",
"[ 	c #374359",
"} 	c #3C4960",
"| 	c #3F4B63",
"1 	c #232C3B",
"2 	c #293243",
"3 	c #313C50",
"4 	c #364257",
"5 	c #3A475D",
"6 	c #3F4B62",
"7 	c #414E66",
"8 	c #3B475E",
"9 	c #343F54",
"0 	c #222937",
"a 	c #39455B",
"b 	c #404D65",
"c 	c #3D4A61",
"d 	c #384459",
"e 	c #2F394C",
"f 	c #1F2634",
"g 	c #2A3344",
"h 	c #2F3A4D",
"i 	c #39465C",
"j 	c #414D65",
"k 	c #404E66",
"l 	c #343F53",
"m 	c #273041",
"n 	c #212937",
"o 	c #354155",
"p 	c #3A465D",
"q 	c #3E4A61",
"r 	c #425069",
"s 	c #3D4A62",
"t 	c #364157",
"u 	c #202734",
"v 	c #3C4961",
"w 	c #414E67",
"x 	c #45536D",
"y 	c #495874",
"z 	c #485773",
"A 	c #3E4B63",
"B 	c #313D50",
"C 	c #27303F",
"D 	c #1C232E",
"E 	c #293344",
"F 	c #2F394D",
"G 	c #3B485F",
"H 	c #495872",
"I 	c #4E5D7A",
"J 	c #4C5B77",
"K 	c #43516B",
"L 	c #354157",
"M 	c #202835",
"N 	c #181E29",
"O 	c #1D2431",
"P 	c #222A39",
"Q 	c #303C50",
"R 	c #414F68",
"S 	c #46536D",
"T 	c #435068",
"U 	c #434F65",
"V 	c #404A5F",
"W 	c #323C4E",
"X 	c #222B39",
"Y 	c #1B222E",
"Z 	c #181E2A",
"` 	c #171D29",
" .	c #171E2B",
"..	c #1A212E",
"+.	c #1D2532",
"@.	c #1F2735",
"#.	c #212835",
"$.	c #2E323E",
"%.	c #393D49",
"&.	c #424652",
"*.	c #40434E",
"=.	c #202530",
"-.	c #171D28",
";.	c #181E28",
">.	c #191F2A",
",.	c #161C28",
"'.	c #141924",
").	c #141A26",
"!.	c #181F2B",
"~.	c #19202C",
"{.	c #1A202D",
"].	c #1C222F",
"^.	c #1E232E",
"/.	c #2F313A",
"(.	c #3D4049",
"_.	c #31343E",
":.	c #1A1F2A",
"<.	c #161C27",
"[.	c #181D28",
"}.	c #1A202C",
"|.	c #181F2A",
"1.	c #151C28",
"2.	c #131924",
"3.	c #161D29",
"4.	c #181F2C",
"5.	c #19202D",
"6.	c #1A212D",
"7.	c #1B212C",
"8.	c #242730",
"9.	c #353841",
"0.	c #2E313A",
"a.	c #1C212D",
"b.	c #171D2A",
"c.	c #171E29",
"d.	c #191E2A",
"e.	c #1E2430",
"f.	c #1E2431",
"g.	c #1E2532",
"h.	c #212A39",
"i.	c #1E2634",
"j.	c #1C2431",
"k.	c #1C2330",
"l.	c #292E39",
"m.	c #3B3F4A",
"n.	c #424752",
"o.	c #444854",
"p.	c #313743",
"q.	c #2A3445",
"r.	c #2B3649",
"s.	c #2B3547",
"t.	c #293244",
"u.	c #273040",
"v.	c #252C3B",
"w.	c #212836",
"x.	c #202733",
"y.	c #212936",
"z.	c #2E394C",
"A.	c #3A475E",
"B.	c #3E4B64",
"C.	c #414F69",
"D.	c #44536D",
"E.	c #4A5A76",
"F.	c #46556F",
"G.	c #47546E",
"H.	c #495770",
"I.	c #4B5A75",
"J.	c #4B5B77",
"K.	c #485874",
"L.	c #44536E",
"M.	c #404E67",
"N.	c #3A465E",
"O.	c #283141",
"P.	c #283140",
"Q.	c #272F3D",
"R.	c #1D242F",
"S.	c #1F2633",
"T.	c #222936",
"U.	c #232A39",
"V.	c #252D3D",
"W.	c #344054",
"X.	c #44526B",
"Y.	c #485671",
"Z.	c #4B5B76",
"`.	c #516280",
" +	c #576989",
".+	c #596C8D",
"++	c #5B6E90",
"@+	c #5D7092",
"#+	c #5C6E90",
"$+	c #546686",
"%+	c #50617F",
"&+	c #4D5C79",
"*+	c #475772",
"=+	c #323D51",
"-+	c #232C3A",
";+	c #1B212D",
">+	c #303A4E",
",+	c #323C50",
"'+	c #3E4B62",
")+	c #3C485E",
"!+	c #46546D",
"~+	c #4F5E77",
"{+	c #566681",
"]+	c #586A8A",
"^+	c #586A8B",
"/+	c #546685",
"(+	c #4F5F7C",
"_+	c #4C5A72",
":+	c #4A5667",
"<+	c #3C475C",
"[+	c #313B4E",
"}+	c #252E3D",
"|+	c #0D111A",
"1+	c #0C0F16",
"2+	c #0E131A",
"3+	c #10141C",
"4+	c #12171E",
"5+	c #171C25",
"6+	c #181D26",
"7+	c #181D25",
"8+	c #2A2E2E",
"9+	c #6B6D37",
"0+	c #7F803B",
"a+	c #40443A",
"b+	c #262D38",
"c+	c #242A36",
"d+	c #2B3032",
"e+	c #6F7134",
"f+	c #969631",
"g+	c #464727",
"h+	c #181A1E",
"i+	c #111317",
"j+	c #020202",
"k+	c #040404",
"l+	c #060606",
"m+	c #090908",
"n+	c #0C0C0C",
"o+	c #0E0E0E",
"p+	c #141411",
"q+	c #4A4A1A",
"r+	c #D3D320",
"s+	c #E7E717",
"t+	c #7C7C24",
"u+	c #282819",
"v+	c #171717",
"w+	c #383819",
"x+	c #BEBE24",
"y+	c #E7E719",
"z+	c #757520",
"A+	c #1F1F14",
"B+	c #040507",
"C+	c #050607",
"D+	c #070708",
"E+	c #090909",
"F+	c #0F0F0F",
"G+	c #171712",
"H+	c #58581E",
"I+	c #E7E71B",
"J+	c #F7F70E",
"K+	c #949427",
"L+	c #33331B",
"M+	c #181818",
"N+	c #3C3C1A",
"O+	c #C8C825",
"P+	c #F0F015",
"Q+	c #7D7D23",
"R+	c #232315",
"S+	c #101012",
"T+	c #1C222E",
"U+	c #1A1F29",
"V+	c #161921",
"W+	c #101217",
"X+	c #101114",
"Y+	c #131314",
"Z+	c #181817",
"`+	c #43431D",
" @	c #C3C327",
".@	c #D9D922",
"+@	c #6E6E22",
"@@	c #232319",
"#@	c #2C2C18",
"$@	c #919125",
"%@	c #BDBD27",
"&@	c #5C5C24",
"*@	c #202222",
"=@	c #2A2E36",
"-@	c #242831",
";@	c #232B39",
">@	c #2A3342",
",@	c #2E3646",
"'@	c #333A49",
")@	c #363B47",
"!@	c #3B3D44",
"~@	c #424244",
"{@	c #4F4D4A",
"]@	c #6E6C4C",
"^@	c #6B6A3B",
"/@	c #323220",
"(@	c #1A1A17",
"_@	c #3D3C22",
":@	c #696751",
"<@	c #666462",
"[@	c #4A4D58",
"}@	c #373F4E",
"|@	c #262C38",
"1@	c #262F3E",
"2@	c #2C3647",
"3@	c #2F3A4B",
"4@	c #333D4F",
"5@	c #3A4455",
"6@	c #4D5260",
"7@	c #76757A",
"8@	c #8F8A8A",
"9@	c #696970",
"0@	c #3B3C44",
"a@	c #1B1B1D",
"b@	c #151515",
"c@	c #18181A",
"d@	c #3E4048",
"e@	c #767479",
"f@	c #727176",
"g@	c #434957",
"h@	c #303A4A",
"i@	c #2D3749",
"j@	c #354053",
"k@	c #3E485A",
"l@	c #585C6A",
"m@	c #8E8A8C",
"n@	c #827F84",
"o@	c #4E525F",
"p@	c #1E2025",
"q@	c #141414",
"r@	c #1A1B1D",
"s@	c #53555E",
"t@	c #828083",
"u@	c #63646D",
"v@	c #394151",
"w@	c #2B3443",
"x@	c #202836",
"y@	c #323D50",
"z@	c #374256",
"A@	c #424A5C",
"B@	c #79787F",
"C@	c #918D91",
"D@	c #565A68",
"E@	c #262C36",
"F@	c #141517",
"G@	c #21232A",
"H@	c #63656E",
"I@	c #82828C",
"J@	c #545865",
"K@	c #333C4D",
"L@	c #272F3E",
"M@	c #1F2734",
"N@	c #232C3C",
"O@	c #303C4F",
"P@	c #344053",
"Q@	c #384357",
"R@	c #5D626F",
"S@	c #92919A",
"T@	c #727583",
"U@	c #3C4352",
"V@	c #161920",
"W@	c #292E3A",
"X@	c #707483",
"Y@	c #7E8292",
"Z@	c #464E5E",
"`@	c #2E3749",
" #	c #272E3D",
".#	c #202837",
"+#	c #212B3A",
"@#	c #242E3E",
"##	c #273143",
"$#	c #2B3648",
"%#	c #2E3A4E",
"&#	c #313D51",
"*#	c #333F53",
"=#	c #434C5E",
"-#	c #878997",
";#	c #8B90A0",
">#	c #515767",
",#	c #252B37",
"'#	c #3F4351",
")#	c #818492",
"!#	c #727685",
"~#	c #3D4556",
"{#	c #2D3648",
"]#	c #2A3242",
"^#	c #1C232F",
"/#	c #202938",
"(#	c #212A3B",
"_#	c #222D3D",
":#	c #242F41",
"<#	c #283345",
"[#	c #2B374B",
"}#	c #2E3A4F",
"|#	c #2F3C51",
"1#	c #6C7181",
"2#	c #9196AA",
"3#	c #6B7080",
"4#	c #3C424E",
"5#	c #6B6A71",
"6#	c #87878F",
"7#	c #565B67",
"8#	c #333D4E",
"9#	c #232B36",
"0#	c #1D2533",
"a#	c #202A39",
"b#	c #222C3C",
"c#	c #242F40",
"d#	c #263143",
"e#	c #283447",
"f#	c #2B374C",
"g#	c #2D3A4F",
"h#	c #2E3B50",
"i#	c #303D51",
"j#	c #4A5364",
"k#	c #898FA2",
"l#	c #7D8191",
"m#	c #494F5E",
"n#	c #726E72",
"o#	c #7A777D",
"p#	c #414656",
"q#	c #2D394C",
"r#	c #252D3B",
"s#	c #1E2738",
"t#	c #202A3B",
"u#	c #222C3D",
"v#	c #263144",
"w#	c #29364A",
"x#	c #2A384D",
"y#	c #2C394E",
"z#	c #6A7081",
"A#	c #868897",
"B#	c #535867",
"C#	c #4F5058",
"D#	c #54555F",
"E#	c #323B4D",
"F#	c #2C384B",
"G#	c #212733",
"H#	c #18202D",
"I#	c #1E2737",
"J#	c #212C3D",
"K#	c #232D40",
"L#	c #253044",
"M#	c #273448",
"N#	c #28354A",
"O#	c #2A374C",
"P#	c #313D52",
"Q#	c #535A6A",
"R#	c #868794",
"S#	c #636674",
"T#	c #3B4351",
"U#	c #2B3344",
"V#	c #283247",
"W#	c #2A3649",
"X#	c #2A3447",
"Y#	c #283244",
"Z#	c #1B2332",
"`#	c #1D2637",
" $	c #1F293C",
".$	c #212C40",
"+$	c #232F43",
"@$	c #253146",
"#$	c #273349",
"$$	c #29354B",
"%$	c #2A364C",
"&$	c #29364C",
"*$	c #40485A",
"=$	c #7D7D89",
"-$	c #73747E",
";$	c #414959",
">$	c #242F44",
",$	c #273347",
"'$	c #252E40",
")$	c #232B3B",
"!$	c #1D232F",
"~$	c #141A23",
"{$	c #171F2D",
"]$	c #1A2334",
"^$	c #1E283B",
"/$	c #202B3F",
"($	c #222D42",
"_$	c #253046",
":$	c #253147",
"<$	c #323C4F",
"[$	c #6C6C77",
"}$	c #76757F",
"|$	c #474D5C",
"1$	c #1E293A",
"2$	c #1C2434",
"3$	c #1A202B",
"4$	c #161B24",
"5$	c #191E27",
"6$	c #191E26",
"7$	c #181C25",
"8$	c #161B25",
"9$	c #171D27",
"0$	c #192130",
"a$	c #192231",
"b$	c #1B2333",
"c$	c #1F2736",
"d$	c #3D3F49",
"e$	c #47474F",
"f$	c #2E323B",
"g$	c #191D26",
"h$	c #161922",
"i$	c #171B22",
"j$	c #191C22",
"k$	c #1A1C22",
"l$	c #15171C",
"m$	c #1A1F28",
"n$	c #1A2029",
"o$	c #1A2028",
"p$	c #1A1F26",
"q$	c #1A2026",
"r$	c #1B2027",
"s$	c #1C2027",
"t$	c #1C2028",
"u$	c #1C2128",
"v$	c #1C2127",
"w$	c #1D2128",
"x$	c #20242A",
"y$	c #22262B",
"z$	c #1E2227",
"A$	c #1C1F24",
"B$	c #1B1E23",
"C$	c #1B1E24",
"D$	c #1A1E24",
"E$	c #161A21",
"F$	c #191E28",
"G$	c #1A202A",
"H$	c #1B202A",
"I$	c #1B212B",
"J$	c #1C212B",
"K$	c #1D232C",
"L$	c #1E242D",
"M$	c #1F242D",
"N$	c #1E232B",
"O$	c #1E232A",
"P$	c #1E2229",
"Q$	c #1D2228",
"R$	c #1A2027",
"S$	c #191E25",
"T$	c #1B202B",
"U$	c #1C222D",
"V$	c #1D232E",
"W$	c #1F2532",
"X$	c #202632",
"Y$	c #212732",
"Z$	c #202630",
"`$	c #1F252F",
" %	c #1F242E",
".%	c #1E232D",
"+%	c #1E222B",
"@%	c #1D222B",
"#%	c #1C212A",
"$%	c #1B2029",
"%%	c #151920",
"&%	c #1C212C",
"*%	c #1D222D",
"=%	c #1E242F",
"-%	c #1E2531",
";%	c #212834",
">%	c #222835",
",%	c #202631",
"'%	c #1C202B",
")%	c #191F29",
"!%	c #1F2632",
"~%	c #202834",
"{%	c #212734",
"]%	c #1F2531",
"^%	c #1C222C",
"/%	c #1D2430",
"(%	c #222A38",
"_%	c #222A37",
":%	c #222938",
"<%	c #232A38",
"[%	c #252C3A",
"}%	c #242C3A",
"|%	c #212938",
"1%	c #222B3A",
"2%	c #212837",
"3%	c #252D3C",
"4%	c #283040",
"5%	c #2F3A4C",
"6%	c #313C4F",
"7%	c #242C3C",
"8%	c #242B3A",
"9%	c #344055",
"0%	c #2E384A",
"a%	c #2B3444",
"b%	c #1E2530",
"c%	c #161C25",
"d%	c #242D3C",
"e%	c #293343",
"f%	c #303A4D",
"g%	c #38455A",
"h%	c #3B4860",
"i%	c #3F4D65",
"j%	c #42506A",
"k%	c #465571",
"l%	c #4A5A78",
"m%	c #4C5E7C",
"n%	c #4E5F7D",
"o%	c #526383",
"p%	c #576889",
"q%	c #5C6F92",
"r%	c #5A6D90",
"s%	c #50607F",
"t%	c #43526B",
"u%	c #333E51",
"v%	c #2D3647",
"w%	c #262E3C",
"x%	c #1E2533",
"y%	c #232B3C",
"z%	c #252E3F",
"A%	c #283243",
"B%	c #2E394D",
"C%	c #364258",
"D%	c #485873",
"E%	c #4D5D7C",
"F%	c #526384",
"G%	c #586C8F",
"H%	c #5D7297",
"I%	c #63789E",
"J%	c #6A80A7",
"K%	c #6D82A9",
"L%	c #6C82A9",
"M%	c #64799E",
"N%	c #44546E",
"O%	c #364358",
"P%	c #1D2432",
"Q%	c #212939",
"R%	c #252F41",
"S%	c #2B3548",
"T%	c #2D384C",
"U%	c #303B4F",
"V%	c #4A5B79",
"W%	c #506282",
"X%	c #546787",
"Y%	c #576A8A",
"Z%	c #566787",
"`%	c #38455C",
" &	c #2A3446",
".&	c #252F40",
"+&	c #151B27",
"@&	c #1E2635",
"#&	c #222B3C",
"$&	c #273042",
"%&	c #293346",
"&&	c #2D394D",
"*&	c #2F3A50",
"=&	c #313C52",
"-&	c #323F54",
";&	c #333F55",
">&	c #323D53",
",&	c #2F3A4F",
"'&	c #2C364A",
")&	c #222B3B",
"!&	c #19212D",
"~&	c #0F141E",
"{&	c #141A25",
"]&	c #19212E",
"^&	c #1F2635",
"/&	c #1F2837",
"(&	c #212A3A",
"_&	c #212B3B",
":&	c #1C2432",
"<&	c #000000",
"[&	c #020305",
"}&	c #070A11",
"|&	c #090D14",
"1&	c #060910",
"2&	c #05070C",
"                                                                                                                                ",
"                                                                                                                                ",
"                                                                                                                                ",
"                                                                                                                                ",
"                                                  . + @                                                                         ",
"                                                # $ % & * =                                                                     ",
"                                                - ; > , ' ) % >                                                                 ",
"                                                ! ~ { % ] ^ ^ / (                                                               ",
"                                                % _ : < [ } | ^ / 1                                                             ",
"                                                    2 3 4 5 6 7 8 9 0                                                           ",
"                                                    + _ % a ^ b c d e                                                           ",
"                                                  f g h % i ^ j k ] l m                                                         ",
"                                                  n 2 e o p q 7 r s t = u                                                       ",
"                                                  > g h 4 v w x y z A B C D                                                     ",
"                                                  ( E F $ G w H I J K L E M                                                     ",
"                                                N O P E Q p R S T U V W X Y N                                                   ",
"                                                Z Z `  ...+.@.#.$.%.&.*.=.-.N ;.                                                ",
"                                              N >.,.'.).` !.~.{.].^./.(._.:.<.;.[.                                              ",
"                                              }.|.1.2.'.3.4.5.5.6.7.8.9.0.a.b.c.d.}.                                            ",
"                                      e.f.g.#.0 X h.@.i.j.k.+.f l.m.n.o.p.q.r.s.t.u.v.w.f g.                                    ",
"                                  x.u u M y.( @ z.$ A.B.C.D.z E.F.G.H.I.J.K.L.M.N.9 = + O.P.Q.                                  ",
"                                  R.S.T.U.V.2 = W.8 b X.Y.Z.`. +.+++@+#+.+$+%+&+*+w ' =++ -+;+                                  ",
"                                        e.w.V.g >+,+% c '+)+!+~+{+]+^+/+(+_+:+<+[+O.}+                                          ",
"                                            |+1+2+3+4+5+6+7+8+9+0+a+b+c+d+e+f+g+h+i+                                            ",
"                                              j+k+l+m+n+o+p+q+r+s+t+u+v+w+x+y+z+A+o+                                            ",
"                                              B+C+D+E+n+F+G+H+I+J+K+L+M+N+O+P+Q+R+S+                                            ",
"                                            g.T+U+V+W+X+Y+Z+`+ @.@+@@@M+#@$@%@&@*@=@-@                                          ",
"                                            ;@C >@,@'@)@!@~@{@]@^@/@Z+v+(@_@:@<@[@}@|@                                          ",
"                                            S.1@@ 2@3@4@5@6@7@8@9@0@a@b@c@d@e@f@g@h@                                            ",
"                                              > C g i@>+j@k@l@m@n@o@p@q@r@s@t@u@v@w@                                            ",
"                                              x@1@@ ; e y@z@A@B@C@D@E@F@G@H@I@J@K@L@                                            ",
"                                              M@N@O.s.z.O@P@Q@R@S@T@U@V@W@X@Y@Z@`@ #                                            ",
"                                              .#+#@###$#%#&#*#=#-#;#>#,#'#)#!#~#{#]#                                            ",
"                                            ^#/#(#_#:#<#[#}#|#z@1#2#3#4#5#6#7#8#; @ 9#                                          ",
"                                            0#a#b#c#d#e#f#g#h#i#j#k#l#m#n#o#p#q#$#@ r#                                          ",
"                                            s#t#u#:#v#e#w#x#y#g#z@z#A#B#C#D#E#F#$#E P.G#                                        ",
"                                          H#I#t#J#K#L#M#N#O#y#y#P#Q#R#S#T#U#V#W#X#Y#O.#.                                        ",
"                                          ,.Z#`# $.$+$@$#$$$%$&$y#*$=$-$;$J#>$,$v#'$)$!$                                        ",
"                                            ~$,.{$]$^$/$($>$_$:$#$<$[$}$|$1 ^$1$2$3$4$                                          ",
"                                            5+5$6$7$8$9$Z 5.0$a$b$c$d$e$f$g$h$i$j$k$l$                                          ",
"                                            m$n$o$p$q$r$r$s$t$u$v$w$x$y$z$A$B$C$C$D$E$                                          ",
"                                          F$G$G$G$H$I$J$K$L$M$M$N$O$P$P$Q$w$w$u$r$R$S$                                          ",
"                                          U+H$T$I$U$V$e.W$X$G#Y$Z$`$ %.%N$+%@%#%$%o$m$%%                                        ",
"                                        F$H$H$&%*%=%-%x.u ;%>%#.;%Y$,%`$ % %.%&%'%H$H$7$                                        ",
"                                        )%I$7.T+!$-%!%~%#.w.0 T.#.{%X$]%,%X$e.^%#%H$U$)%                                        ",
"                                        I$U$V$/%-%S.u y.n (%_%T.#.{%{%#.w.x.e.^%J$*%e.7.                                        ",
"                                      7.!%]%/%-%f M n (%:%(%T.T.0 :%U.<%w.X$=%U$U$-%g.e.                                        ",
"                                      -%<%[%v.}%P w.|%(%(%P ;@;@;@1%P 2%x.X$]%]%u U.3%v.                                        ",
"                                      S.}%4%g {#5%6%3 F q.{ 7%1 1 > U.8%L@i@9%t ,+0%a%P.b%                                      ",
"                                    c%@.(%d%e%f%o g%h%i%j%k%l%m%n%o%p%.+q%r%s%t%a u%v%w%U$                                      ",
"                                      N x%y%z%A%B%C%B.- D%E%F%G%H%I%J%K%L%M%/+N%O%; { x@;.                                      ",
"                                          !.P%Q%R%S%T%U%$ s L.V%W%X%Y%Z%! L.`%U% &.&@.|.                                        ",
"                                                +&@&#&$&%&r.&&*&=&-&;&>&,&'&%&)&@.!&                                            ",
"                                                      ~&{&]&^&/&/&(&_&(&c$:&4.{&                                                ",
"                                                      <&[&}&            |&1&2&                                                  ",
"                                                      <&<&              <&<&                                                    ",
"                                                      <&<&              <&<&                                                    ",
"                                                      <&<&              <&<&                                                    ",
"                                                      <&<&              <&                                                      ",
"                                                                                                                                ",
"                                                                                                                                ",
"                                                                                                                                ",
"                                                                                                                                ",
"                                                                                                                                "};
