/* XPM */
static char * player_walk_5_xpm[] = {
"64 64 586 2",
"  	c None",
". 	c #283141",
"+ 	c #212836",
"@ 	c #1F2734",
"# 	c #38445A",
"$ 	c #374358",
"% 	c #3A465C",
"& 	c #374257",
"* 	c #272F3F",
"= 	c #39465D",
"- 	c #2A3446",
"; 	c #0C1017",
"> 	c #343F54",
", 	c #3A465D",
"' 	c #3D4960",
") 	c #3C485F",
"! 	c #313C4F",
"~ 	c #171D27",
"{ 	c #43526C",
"] 	c #546685",
"^ 	c #293243",
"/ 	c #303A4D",
"( 	c #374359",
"_ 	c #404D64",
": 	c #3D4A61",
"< 	c #212936",
"[ 	c #3E4B63",
"} 	c #191F2A",
"| 	c #303A4E",
"1 	c #354156",
"2 	c #38455B",
"3 	c #414E67",
"4 	c #384459",
"5 	c #252D3C",
"6 	c #2E384B",
"7 	c #333E52",
"8 	c #3B475E",
"9 	c #3F4C63",
"0 	c #39455B",
"a 	c #364156",
"b 	c #232B3A",
"c 	c #2C3547",
"d 	c #435069",
"e 	c #313B4F",
"f 	c #1F2634",
"g 	c #1C232F",
"h 	c #2A3344",
"i 	c #2F3A4D",
"j 	c #3E4A62",
"k 	c #424F68",
"l 	c #43516A",
"m 	c #3E4B62",
"n 	c #2B3546",
"o 	c #1D232F",
"p 	c #1E2532",
"q 	c #293142",
"r 	c #354056",
"s 	c #3C4960",
"t 	c #46546E",
"u 	c #4B5B76",
"v 	c #4A5975",
"w 	c #3C4961",
"x 	c #2E384C",
"y 	c #262E3E",
"z 	c #1B212D",
"A 	c #1F2633",
"B 	c #2E384A",
"C 	c #3A475E",
"D 	c #404D65",
"E 	c #495873",
"F 	c #51617E",
"G 	c #4F607D",
"H 	c #485772",
"I 	c #222A38",
"J 	c #181D28",
"K 	c #1E2533",
"L 	c #273041",
"M 	c #2C374A",
"N 	c #333E54",
"O 	c #3B4860",
"P 	c #3B465A",
"Q 	c #3A404E",
"R 	c #444853",
"S 	c #393C46",
"T 	c #151B26",
"U 	c #161C28",
"V 	c #181E29",
"W 	c #181E28",
"X 	c #1A202C",
"Y 	c #1B222F",
"Z 	c #1C2431",
"` 	c #1D2431",
" .	c #1B212E",
"..	c #20242C",
"+.	c #2A2D37",
"@.	c #252830",
"#.	c #3D3F49",
"$.	c #353741",
"%.	c #141A24",
"&.	c #161C27",
"*.	c #181E2A",
"=.	c #171D28",
"-.	c #131925",
";.	c #181F2B",
">.	c #191F2C",
",.	c #1A212E",
"'.	c #20222A",
").	c #32353E",
"!.	c #383B44",
"~.	c #141A26",
"{.	c #202734",
"].	c #191F2B",
"^.	c #121823",
"/.	c #141A25",
"(.	c #171D29",
"_.	c #19202D",
":.	c #1F232E",
"<.	c #32363F",
"[.	c #41444F",
"}.	c #41444E",
"|.	c #262F3F",
"1.	c #37435A",
"2.	c #333F54",
"3.	c #2F3A4E",
"4.	c #2D3749",
"5.	c #2B3445",
"6.	c #121721",
"7.	c #121722",
"8.	c #222B3A",
"9.	c #303541",
"0.	c #3C4251",
"a.	c #414B60",
"b.	c #475671",
"c.	c #4D5E7B",
"d.	c #4B5A77",
"e.	c #425069",
"f.	c #3D4961",
"g.	c #354055",
"h.	c #1A202B",
"i.	c #1D2430",
"j.	c #212937",
"k.	c #252D3D",
"l.	c #2B3446",
"m.	c #3E4B64",
"n.	c #45536E",
"o.	c #4E5E7C",
"p.	c #556786",
"q.	c #57698A",
"r.	c #5B6E8F",
"s.	c #5D7193",
"t.	c #5C7092",
"u.	c #5C6F90",
"v.	c #586A8A",
"w.	c #536483",
"x.	c #293344",
"y.	c #1E2531",
"z.	c #252E3D",
"A.	c #2C3648",
"B.	c #475570",
"C.	c #4C5B76",
"D.	c #566887",
"E.	c #5A6D8D",
"F.	c #617598",
"G.	c #627699",
"H.	c #596B8C",
"I.	c #495874",
"J.	c #202733",
"K.	c #111215",
"L.	c #0D0D0D",
"M.	c #232A38",
"N.	c #262E3D",
"O.	c #313C50",
"P.	c #38445B",
"Q.	c #414F67",
"R.	c #44516A",
"S.	c #374256",
"T.	c #3E4A61",
"U.	c #414C5D",
"V.	c #30394B",
"W.	c #1F252F",
"X.	c #16171B",
"Y.	c #1A1A16",
"Z.	c #9B9B25",
"`.	c #7E7E23",
" +	c #131313",
".+	c #0F0F0F",
"++	c #070707",
"@+	c #1D232E",
"#+	c #232B39",
"$+	c #171C26",
"%+	c #1B212C",
"&+	c #191E27",
"*+	c #0D0E10",
"=+	c #151512",
"-+	c #B8B825",
";+	c #E9E91B",
">+	c #585824",
",+	c #181818",
"'+	c #33331F",
")+	c #EEEE1E",
"!+	c #DBDB24",
"~+	c #1D1D16",
"{+	c #101010",
"]+	c #080808",
"^+	c #010101",
"/+	c #030303",
"(+	c #050505",
"_+	c #0B0B0B",
":+	c #0E0E0E",
"<+	c #111111",
"[+	c #202016",
"}+	c #E2E222",
"|+	c #FFFF01",
"1+	c #98982A",
"2+	c #2D2D1D",
"3+	c #E8E821",
"4+	c #E0E023",
"5+	c #171C25",
"6+	c #11141A",
"7+	c #0B0B0C",
"8+	c #161614",
"9+	c #BABA27",
"0+	c #F6F613",
"a+	c #707027",
"b+	c #171717",
"c+	c #191917",
"d+	c #858525",
"e+	c #858523",
"f+	c #141413",
"g+	c #121314",
"h+	c #2B2E37",
"i+	c #202835",
"j+	c #293141",
"k+	c #2C3545",
"l+	c #31394A",
"m+	c #363E4D",
"n+	c #383D48",
"o+	c #3F4045",
"p+	c #464445",
"q+	c #56534B",
"r+	c #69674A",
"s+	c #222220",
"t+	c #161616",
"u+	c #141414",
"v+	c #444347",
"w+	c #676466",
"x+	c #4E515C",
"y+	c #374051",
"z+	c #2E394B",
"A+	c #323D50",
"B+	c #3C4658",
"C+	c #535867",
"D+	c #8D898C",
"E+	c #908B8D",
"F+	c #535662",
"G+	c #1A1B1D",
"H+	c #151515",
"I+	c #2C2E35",
"J+	c #77767C",
"K+	c #7C7A7E",
"L+	c #353F51",
"M+	c #2E3848",
"N+	c #27303F",
"O+	c #293343",
"P+	c #303B4E",
"Q+	c #364054",
"R+	c #3B4559",
"S+	c #616571",
"T+	c #9A9494",
"U+	c #676974",
"V+	c #333742",
"W+	c #121212",
"X+	c #3C414D",
"Y+	c #878487",
"Z+	c #65666E",
"`+	c #313B4D",
" @	c #293240",
".@	c #1E2632",
"+@	c #293242",
"@@	c #2F394D",
"#@	c #323D51",
"$@	c #3E475B",
"%@	c #8E8A8F",
"&@	c #7F7F86",
"*@	c #394252",
"=@	c #0F0F10",
"-@	c #0E0E0F",
";@	c #4E525E",
">@	c #8A8B96",
",@	c #555967",
"'@	c #2F394B",
")@	c #252D3A",
"!@	c #1D2532",
"~@	c #222B3B",
"{@	c #263040",
"]@	c #2B3547",
"^@	c #2E394C",
"/@	c #344054",
"(@	c #344155",
"_@	c #737682",
":@	c #9798A5",
"<@	c #535A6B",
"[@	c #212833",
"}@	c #12161F",
"|@	c #656A78",
"1@	c #878D9F",
"2@	c #3D4556",
"3@	c #2D3748",
"4@	c #282F3D",
"5@	c #1F2735",
"6@	c #212A3A",
"7@	c #222C3D",
"8@	c #253042",
"9@	c #293447",
"0@	c #2D394D",
"a@	c #2F3C51",
"b@	c #313E52",
"c@	c #485061",
"d@	c #969AAB",
"e@	c #7B8091",
"f@	c #363F4F",
"g@	c #272E3D",
"h@	c #878792",
"i@	c #787A87",
"j@	c #2F3A4C",
"k@	c #2D3648",
"l@	c #2A3242",
"m@	c #20252F",
"n@	c #1A212D",
"o@	c #212939",
"p@	c #212A3B",
"q@	c #232D3E",
"r@	c #252F42",
"s@	c #283347",
"t@	c #2C384C",
"u@	c #2D3B4F",
"v@	c #303D52",
"w@	c #808597",
"x@	c #9195A8",
"y@	c #444C5D",
"z@	c #5B5A60",
"A@	c #959093",
"B@	c #454A59",
"C@	c #2D3A4C",
"D@	c #2C3748",
"E@	c #232A36",
"F@	c #1C2432",
"G@	c #202A3A",
"H@	c #242F40",
"I@	c #263144",
"J@	c #293448",
"K@	c #2B384C",
"L@	c #2C3A4F",
"M@	c #2D3A50",
"N@	c #2E3B50",
"O@	c #575D6E",
"P@	c #9397AA",
"Q@	c #5E6271",
"R@	c #807D80",
"S@	c #2C364A",
"T@	c #2B3648",
"U@	c #1E2737",
"V@	c #202A3B",
"W@	c #212B3D",
"X@	c #242E40",
"Y@	c #283447",
"Z@	c #28354A",
"`@	c #2B384D",
" #	c #2C394E",
".#	c #2D3A4F",
"+#	c #323E52",
"@#	c #7C7F8F",
"##	c #767885",
"$#	c #354051",
"%#	c #353946",
"&#	c #273347",
"*#	c #2B364A",
"=#	c #293345",
"-#	c #283142",
";#	c #1F2530",
">#	c #151C27",
",#	c #1C2534",
"'#	c #1E2738",
")#	c #202B3D",
"!#	c #222D40",
"~#	c #243044",
"{#	c #263348",
"]#	c #2A374C",
"^#	c #2B374D",
"/#	c #2F3C50",
"(#	c #6E717E",
"_#	c #85848F",
":#	c #3F4859",
"<#	c #222C3C",
"[#	c #243045",
"}#	c #263043",
"|#	c #252E3F",
"1#	c #1E2430",
"2#	c #13171F",
"3#	c #151B25",
"4#	c #171D2A",
"5#	c #1A2333",
"6#	c #1E283B",
"7#	c #202B3F",
"8#	c #222E42",
"9#	c #253146",
"0#	c #263248",
"a#	c #273349",
"b#	c #28344A",
"c#	c #545867",
"d#	c #85828A",
"e#	c #575B69",
"f#	c #1F2A3E",
"g#	c #222D41",
"h#	c #212B3C",
"i#	c #191E29",
"j#	c #1A2029",
"k#	c #191F28",
"l#	c #171B22",
"m#	c #151A22",
"n#	c #161D2A",
"o#	c #18202F",
"p#	c #192232",
"q#	c #1B2435",
"r#	c #1C2638",
"s#	c #1F283B",
"t#	c #2E3545",
"u#	c #56565F",
"v#	c #43454F",
"w#	c #10141C",
"x#	c #141820",
"y#	c #15171B",
"z#	c #121316",
"A#	c #1A202A",
"B#	c #1B202A",
"C#	c #1B212A",
"D#	c #1C2129",
"E#	c #1C2127",
"F#	c #1C2026",
"G#	c #1B1F24",
"H#	c #1A1E22",
"I#	c #1A1D21",
"J#	c #191C20",
"K#	c #1B1D21",
"L#	c #1B1D20",
"M#	c #1A1D20",
"N#	c #16191C",
"O#	c #1A1F29",
"P#	c #1B202B",
"Q#	c #1B212B",
"R#	c #1C222C",
"S#	c #1D222E",
"T#	c #1E242F",
"U#	c #202530",
"V#	c #1F242E",
"W#	c #1E232B",
"X#	c #1E2229",
"Y#	c #1D2229",
"Z#	c #1D2228",
"`#	c #1D2127",
" $	c #1D2026",
".$	c #1C1F25",
"+$	c #1B1E24",
"@$	c #181B21",
"#$	c #1C212C",
"$$	c #202633",
"%$	c #212734",
"&$	c #212834",
"*$	c #212733",
"=$	c #1F232D",
"-$	c #1E222B",
";$	c #1D222A",
">$	c #1D2129",
",$	c #1C2128",
"'$	c #1B2027",
")$	c #1A2027",
"!$	c #191E25",
"~$	c #1C222D",
"{$	c #1C232E",
"]$	c #1D2330",
"^$	c #202834",
"/$	c #202735",
"($	c #212835",
"_$	c #222935",
":$	c #202632",
"<$	c #1E232D",
"[$	c #1E232C",
"}$	c #1C222A",
"|$	c #1B2029",
"1$	c #1A2028",
"2$	c #1A1F27",
"3$	c #1F2632",
"4$	c #1D242F",
"5$	c #1E2431",
"6$	c #222A37",
"7$	c #222937",
"8$	c #222835",
"9$	c #1F2430",
"0$	c #242B39",
"a$	c #242C3A",
"b$	c #222936",
"c$	c #212837",
"d$	c #212938",
"e$	c #181E27",
"f$	c #262F3D",
"g$	c #293241",
"h$	c #2B3444",
"i$	c #2C3546",
"j$	c #283041",
"k$	c #202837",
"l$	c #222938",
"m$	c #222A39",
"n$	c #1F2631",
"o$	c #1E232E",
"p$	c #1C212B",
"q$	c #273140",
"r$	c #333D51",
"s$	c #364257",
"t$	c #364157",
"u$	c #212A38",
"v$	c #1E2633",
"w$	c #242D3D",
"x$	c #263041",
"y$	c #3B485F",
"z$	c #3F4C64",
"A$	c #414F68",
"B$	c #46546F",
"C$	c #495976",
"D$	c #475774",
"E$	c #3E4C66",
"F$	c #272F3E",
"G$	c #1A202D",
"H$	c #232C3C",
"I$	c #273042",
"J$	c #2A3447",
"K$	c #364258",
"L$	c #414F69",
"M$	c #4A5976",
"N$	c #4E5E7D",
"O$	c #536485",
"P$	c #5C7095",
"Q$	c #62789E",
"R$	c #687DA4",
"S$	c #687DA3",
"T$	c #64799E",
"U$	c #607599",
"V$	c #495875",
"W$	c #3A475C",
"X$	c #313C4E",
"Y$	c #2C3646",
"Z$	c #283140",
"`$	c #252E40",
" %	c #283245",
".%	c #283144",
"+%	c #2D374A",
"@%	c #3C4A62",
"#%	c #4B5B79",
"$%	c #576A8D",
"%%	c #60759A",
"&%	c #697FA6",
"*%	c #7086AE",
"=%	c #6F86AE",
"-%	c #687EA4",
";%	c #556788",
">%	c #475772",
",%	c #273143",
"'%	c #283244",
")%	c #273144",
"!%	c #39465E",
"~%	c #354258",
"{%	c #2E394D",
"]%	c #242E3E",
"^%	c #1B222E",
"/%	c #181F2C",
"(%	c #1E2635",
"_%	c #283346",
":%	c #293346",
"<%	c #293245",
"[%	c #222A3A",
"}%	c #1B2230",
"|%	c #151A24",
"1%	c #030407",
"2%	c #070A10",
"3%	c #0E131C",
"4%	c #131924",
"5%	c #000000",
"                                                                                                                                ",
"                                                                                                                                ",
"                                                                                                                                ",
"                                                                                                                                ",
"                                                                                                                                ",
"                                                                                                                                ",
"                                                                                                                                ",
"                                              . . +                                                                             ",
"                                          @ # $ % % & *                                                                         ",
"                                          = - ; > , ' ) ! ~                                                                     ",
"                                          { ] ^ / ( ' _ : $ <                                                                   ",
"                                          . [ } | 1 2 : 3 ' 4 5                                                                 ",
"                                                6 7 $ 8 9 _ 0 a b                                                               ",
"                                                c ! a 8 : d : & e f                                                             ",
"                                              g h i 1 , j k l m > n o                                                           ",
"                                              p q 6 r s 3 t u v w x y z                                                         ",
"                                              A . B > C D E F G H 1 I } J                                                       ",
"                                              K L M N O l t P Q R S T U V W                                                     ",
"                                              V X Y Z `  .V ..+.@.#.$.%.&.V J                                                   ",
"                                              *.=.-.U ;.>.,.,.,.'.).!.U ~.&.A I < {.{.{.{.                                      ",
"                                              ].&.^./.(.>._._.:.<.[.}.|.1 1.2.3.4.n 5.5.A                                       ",
"                                            } V /.6.7.T &.,.8.9.0.a.b.c.d.v b.e.f.g.. h.                                        ",
"                                        i.p j.k.l.| ( m.n.o.p.q.r.s.t.u.v.w.E # x.                                              ",
"                                    y.A {.+ z.A.r [ l B.C.F D.E.F.G.H.I.g.J.K.L.                                                ",
"                                  J.+ + M.N.5.O.P.8 Q.R.S._ T.U.V.W.X.Y.Z.`. +.+++                                              ",
"                                    @+y.A j.#+k.k.$+%+&+*+=+-+;+>+,+,+'+)+!+~+{+]+                                              ",
"                                            ^+/+(+++_+:+<+[+}+|+1+,+,+2+3+4+[+{+]+                                              ",
"                                            X z 5+6+7+L.{+8+9+0+a+b+,+c+d+e+f+g+h+                                              ",
"                                            i+j+k+l+m+n+o+p+q+r+s+t+t+t+u+v+w+x+y+                                              ",
"                                              z.. n z+A+B+C+D+E+F+G+H+H+I+J+K+L+M+                                              ",
"                                              + N+O+4.P+Q+R+S+T+U+V+ +W+X+Y+Z+`+ @                                              ",
"                                              .@z.+@A.@@#@S.$@%@&@*@=@-@;@>@,@'@)@                                              ",
"                                              !@~@{@]@^@O./@(@_@:@<@[@}@|@1@2@3@4@                                              ",
"                                              5@6@7@8@9@0@a@b@c@d@e@f@g@h@i@j@k@l@m@                                            ",
"                                            n@o@p@q@r@s@t@u@a@v@w@x@y@z@A@B@C@D@+@E@                                            ",
"                                            F@G@7@H@I@J@K@L@M@N@O@P@Q@}.R@S@t@T@h N.                                            ",
"                                            U@V@W@X@I@Y@Z@`@ #.#+#@###$#%#&#*#T@=#-#;#                                          ",
"                                          >#,#'#)#!#~#{#Z@]#`@^#/#(#_#:#<#[#J@s@}#|#1#                                          ",
"                                          2#3#4#5#6#7#8#9#0#a#b#]#c#d#e#^ f#g#h#F@i#                                            ",
"                                          &+j#k#l#m#3#n#o#p#q#r#s#t#u#v#%+w#x#y#z#                                              ",
"                                          A#A#A#B#C#D#D#E#F#G#H#I#J#I#K#K#K#L#M#N#                                              ",
"                                        O#B#P#Q#R#S#T#;#;#U#V#W#X#Y#Z#`# $.$+$+$@$                                              ",
"                                      &+P#Q##$S#T#y.$${.%$&$*$;#V#=$-$;$>$,$'$)$!$                                              ",
"                                      A#%+~${$]$y.A ^$/$($_$($%$:$W.<$[$[$}$|$1$2$                                              ",
"                                    P#3$4$o 5$3$@ ($j.j.6$7$8$&$J.U#9$;#T#R#P#|$|$                                              ",
"                                    J.0$a$b$A /$c$I d$I 6$b$($&$%$($+ {.T##$C#P#S#                                              ",
"                                  e$($f$g$h$i$j$d$k$l$I M.I #+b b m$($n$o$#$p$1#1#                                              ",
"                                  ~ j.I q$'@r$s$% t$]@m$I m$m$8.u$($:$;#@+~$p v$y.                                              ",
"                                    3#d$w$x$O.y$z$A$B$C$D$E$#@. #+7$7$I b z.* N+F$                                              ",
"                                        G$H$I$J$K$L$M$N$O$P$Q$R$S$T$U$q.V$W$X$Y$Z$                                              ",
"                                            ^.`$ %.%+%@%#%$%%%&%*%=%-%;%>%y$A+^ I                                               ",
"                                                _.p@,%'%)%'%M 2.!%@%C ~%{%,%]%b ^%                                              ",
"                                                      /%(%6@,%_%_%_%:%<%w$[%}%|%                                                ",
"                                                            1%2%3%;._.4%                                                        ",
"                                                            5%5%5%                                                              ",
"                                                            5%5%                                                                ",
"                                                            5%5%                                                                ",
"                                                            5%                                                                  ",
"                                                                                                                                ",
"                                                                                                                                ",
"                                                                                                                                ",
"                                                                                                                                ",
"                                                                                                                                ",
"                                                                                                                                "};
