/* XPM */
static char * player_idle_11_xpm[] = {
"64 64 569 2",
"  	c None",
". 	c #252D3C",
"+ 	c #2E384A",
"@ 	c #2D3648",
"# 	c #2E384B",
"$ 	c #374358",
"% 	c #313B4F",
"& 	c #3A455B",
"* 	c #3A465C",
"= 	c #364156",
"- 	c #222A38",
"; 	c #45546F",
"> 	c #354156",
", 	c #0B0E15",
"' 	c #3A475D",
") 	c #3D4960",
"! 	c #3B475D",
"~ 	c #293142",
"{ 	c #45556F",
"] 	c #546685",
"^ 	c #181E29",
"/ 	c #344054",
"( 	c #38445A",
"_ 	c #3E4B62",
": 	c #404D64",
"< 	c #3B475E",
"[ 	c #232B39",
"} 	c #1D2430",
"| 	c #333D52",
"1 	c #364257",
"2 	c #3A465D",
"3 	c #3F4B63",
"4 	c #404D65",
"5 	c #2D3749",
"6 	c #232A39",
"7 	c #303A4D",
"8 	c #38455B",
"9 	c #424F67",
"0 	c #3C4960",
"a 	c #384459",
"b 	c #293242",
"c 	c #232B3A",
"d 	c #333E53",
"e 	c #3F4C64",
"f 	c #3F4D65",
"g 	c #343F53",
"h 	c #212836",
"i 	c #2C3648",
"j 	c #3C495F",
"k 	c #425069",
"l 	c #3B485E",
"m 	c #354055",
"n 	c #1A202B",
"o 	c #262E3E",
"p 	c #323D52",
"q 	c #39465C",
"r 	c #3E4B63",
"s 	c #425068",
"t 	c #485671",
"u 	c #495873",
"v 	c #303B4E",
"w 	c #262F3F",
"x 	c #39455C",
"y 	c #46546F",
"z 	c #4D5D7A",
"A 	c #44536D",
"B 	c #364258",
"C 	c #293244",
"D 	c #202734",
"E 	c #262E3F",
"F 	c #2B3548",
"G 	c #39465D",
"H 	c #4B5A76",
"I 	c #4D5C78",
"J 	c #47556E",
"K 	c #414D64",
"L 	c #323D50",
"M 	c #202836",
"N 	c #191F2A",
"O 	c #181E28",
"P 	c #19202C",
"Q 	c #1D2533",
"R 	c #222B3A",
"S 	c #252E3D",
"T 	c #242C3B",
"U 	c #23252C",
"V 	c #393B44",
"W 	c #444752",
"X 	c #474A55",
"Y 	c #171B24",
"Z 	c #151C27",
"` 	c #181F2A",
" .	c #171D28",
"..	c #131925",
"+.	c #161C28",
"@.	c #181F2B",
"#.	c #191F2C",
"$.	c #1A212E",
"%.	c #19202D",
"&.	c #1F2229",
"*.	c #3B3E48",
"=.	c #151A24",
"-.	c #161C27",
";.	c #181D28",
">.	c #151B27",
",.	c #121822",
"'.	c #141A25",
").	c #171E2A",
"!.	c #191D26",
"~.	c #272A32",
"{.	c #3B3E47",
"].	c #151B25",
"^.	c #1C222F",
"/.	c #1F2633",
"(.	c #1E2431",
"_.	c #1C222D",
":.	c #1C222E",
"<.	c #1A212C",
"[.	c #131823",
"}.	c #111721",
"|.	c #131923",
"1.	c #171D29",
"2.	c #181E2B",
"3.	c #32353E",
"4.	c #42454F",
"5.	c #363A44",
"6.	c #303A4E",
"7.	c #364359",
"8.	c #354157",
"9.	c #303B4F",
"0.	c #272F3F",
"a.	c #232A38",
"b.	c #1E2430",
"c.	c #1E2531",
"d.	c #1F2532",
"e.	c #202835",
"f.	c #2A3344",
"g.	c #2E394C",
"h.	c #313C50",
"i.	c #364157",
"j.	c #3C4961",
"k.	c #42516B",
"l.	c #414E66",
"m.	c #46536D",
"n.	c #50617F",
"o.	c #4E5E7C",
"p.	c #4A5A77",
"q.	c #485773",
"r.	c #43516B",
"s.	c #262E3D",
"t.	c #151B24",
"u.	c #222936",
"v.	c #242B3A",
"w.	c #283242",
"x.	c #2F3A4D",
"y.	c #404D66",
"z.	c #44526C",
"A.	c #4D5D79",
"B.	c #5A6D8E",
"C.	c #5C6F91",
"D.	c #5F7295",
"E.	c #607497",
"F.	c #5E7295",
"G.	c #576989",
"H.	c #526381",
"I.	c #4A5975",
"J.	c #323D51",
"K.	c #242D3C",
"L.	c #2A3343",
"M.	c #2F394C",
"N.	c #354056",
"O.	c #3B475F",
"P.	c #44516A",
"Q.	c #46546E",
"R.	c #4B5A75",
"S.	c #50607E",
"T.	c #566887",
"U.	c #596C8D",
"V.	c #546584",
"W.	c #495974",
"X.	c #2E3749",
"Y.	c #202632",
"Z.	c #14171D",
"`.	c #080909",
" +	c #1A202C",
".+	c #161B25",
"++	c #1E2530",
"@+	c #151920",
"#+	c #1F252E",
"$+	c #2B2E29",
"%+	c #1F2121",
"&+	c #15171A",
"*+	c #151515",
"=+	c #161615",
"-+	c #1C1C18",
";+	c #36361E",
">+	c #171715",
",+	c #111111",
"'+	c #0D0D0D",
")+	c #020202",
"!+	c #040404",
"~+	c #060606",
"{+	c #090909",
"]+	c #0C0C0C",
"^+	c #0F0F0F",
"/+	c #121212",
"(+	c #646422",
"_+	c #E5E51F",
":+	c #B7B727",
"<+	c #1D1D19",
"[+	c #181818",
"}+	c #878726",
"|+	c #EEEE1A",
"1+	c #6E6E24",
"2+	c #0E0E0E",
"3+	c #6B6B23",
"4+	c #EDED1B",
"5+	c #C0C027",
"6+	c #1E1E19",
"7+	c #7B7B25",
"8+	c #DFDF1F",
"9+	c #626222",
"0+	c #181C26",
"a+	c #101319",
"b+	c #090A0C",
"c+	c #0B0B0B",
"d+	c #161614",
"e+	c #33331D",
"f+	c #24241A",
"g+	c #171717",
"h+	c #181817",
"i+	c #232319",
"j+	c #141414",
"k+	c #131315",
"l+	c #2A2D35",
"m+	c #293141",
"n+	c #2C3545",
"o+	c #313A4B",
"p+	c #363D4C",
"q+	c #393D48",
"r+	c #3B3C41",
"s+	c #434142",
"t+	c #4A4746",
"u+	c #434141",
"v+	c #1B1A1B",
"w+	c #161616",
"x+	c #424145",
"y+	c #666364",
"z+	c #4E515C",
"A+	c #384051",
"B+	c #1B212D",
"C+	c #283241",
"D+	c #2B3546",
"E+	c #2F394B",
"F+	c #333D50",
"G+	c #3E485A",
"H+	c #585C6A",
"I+	c #8F8B8D",
"J+	c #525560",
"K+	c #171819",
"L+	c #292B31",
"M+	c #76747A",
"N+	c #7E7B7F",
"O+	c #364051",
"P+	c #2F3848",
"Q+	c #212937",
"R+	c #27303F",
"S+	c #364154",
"T+	c #3C4659",
"U+	c #676974",
"V+	c #9A9494",
"W+	c #636671",
"X+	c #31353F",
"Y+	c #3B404B",
"Z+	c #868286",
"`+	c #686870",
" @	c #313C4D",
".@	c #2A3341",
"+@	c #1E2633",
"@@	c #262F3D",
"#@	c #2F394D",
"$@	c #333E51",
"%@	c #384356",
"&@	c #414A5D",
"*@	c #918D90",
"=@	c #7D7C83",
"-@	c #38404F",
";@	c #0D0E0E",
">@	c #0D0D0E",
",@	c #4B4F5B",
"'@	c #8A8A93",
")@	c #575B68",
"!@	c #252D3B",
"~@	c #1D2532",
"{@	c #232C3B",
"]@	c #273141",
"^@	c #2B3547",
"/@	c #354054",
"(@	c #354155",
"_@	c #7A7B87",
":@	c #93949F",
"<@	c #4A5263",
"[@	c #1C212A",
"}@	c #10131A",
"|@	c #606472",
"1@	c #888EA0",
"2@	c #434A5A",
"3@	c #2D3748",
"4@	c #262E3C",
"5@	c #1E2634",
"6@	c #212B3A",
"7@	c #232C3D",
"8@	c #263143",
"9@	c #2B3649",
"0@	c #2F3B4E",
"a@	c #313E52",
"b@	c #323E53",
"c@	c #545A6A",
"d@	c #999CAC",
"e@	c #727789",
"f@	c #323B4B",
"g@	c #1F2636",
"h@	c #7E808C",
"i@	c #7D8190",
"j@	c #303B4D",
"k@	c #2A3242",
"l@	c #212938",
"m@	c #212A3B",
"n@	c #222D3D",
"o@	c #242F41",
"p@	c #273346",
"q@	c #2B384C",
"r@	c #2D3B4F",
"s@	c #2F3C51",
"t@	c #333F53",
"u@	c #898EA0",
"v@	c #8C91A4",
"w@	c #3E4759",
"x@	c #4F5058",
"y@	c #949196",
"z@	c #575A66",
"A@	c #2E3A4C",
"B@	c #2C3748",
"C@	c #232934",
"D@	c #1C2331",
"E@	c #202A3A",
"F@	c #222C3C",
"G@	c #242F40",
"H@	c #263144",
"I@	c #293548",
"J@	c #2C394D",
"K@	c #2D3A4F",
"L@	c #2E3B50",
"M@	c #676D7E",
"N@	c #9599AC",
"O@	c #545969",
"P@	c #535258",
"Q@	c #8D888A",
"R@	c #30394C",
"S@	c #2D394C",
"T@	c #2B3648",
"U@	c #252C3A",
"V@	c #1E2636",
"W@	c #202A3B",
"X@	c #222B3D",
"Y@	c #283447",
"Z@	c #29364B",
"`@	c #2B384D",
" #	c #2C394E",
".#	c #3B4658",
"+#	c #838798",
"@#	c #6E717E",
"##	c #323C4C",
"$#	c #56565F",
"%#	c #283348",
"&#	c #2C374B",
"*#	c #293345",
"=#	c #283041",
"-#	c #1D2635",
";#	c #1F293A",
">#	c #212B3D",
",#	c #222D40",
"'#	c #253044",
")#	c #273448",
"!#	c #28354A",
"~#	c #303D51",
"{#	c #787A88",
"]#	c #80808C",
"^#	c #394456",
"/#	c #1F2839",
"(#	c #253146",
"_#	c #2A3549",
":#	c #2A3447",
"<#	c #283244",
"[#	c #273041",
"}#	c #121821",
"|#	c #1D2535",
"1#	c #1E283A",
"2#	c #212B3F",
"3#	c #232E43",
"4#	c #283349",
"5#	c #29354B",
"6#	c #2D394E",
"7#	c #616471",
"8#	c #87858E",
"9#	c #4A5161",
"0#	c #263040",
"a#	c #222E43",
"b#	c #263246",
"c#	c #263044",
"d#	c #232D3E",
"e#	c #202837",
"f#	c #191E28",
"g#	c #141821",
"h#	c #151A26",
"i#	c #161F2D",
"j#	c #1B2536",
"k#	c #1E293C",
"l#	c #212C40",
"m#	c #222D42",
"n#	c #232F44",
"o#	c #253046",
"p#	c #273348",
"q#	c #454B5B",
"r#	c #7B7981",
"s#	c #5A5C69",
"t#	c #273040",
"u#	c #182031",
"v#	c #1A2334",
"w#	c #181E2C",
"x#	c #161A23",
"y#	c #15181F",
"z#	c #1A1F28",
"A#	c #1A1F27",
"B#	c #191D25",
"C#	c #161A20",
"D#	c #14191F",
"E#	c #151A22",
"F#	c #2F3139",
"G#	c #24272E",
"H#	c #171A1F",
"I#	c #191D22",
"J#	c #1B1F25",
"K#	c #1B1F26",
"L#	c #1A1F26",
"M#	c #181E27",
"N#	c #1A2029",
"O#	c #1B2028",
"P#	c #1B2129",
"Q#	c #1C2129",
"R#	c #1D222A",
"S#	c #1E232B",
"T#	c #1E232C",
"U#	c #1E222A",
"V#	c #1D2129",
"W#	c #1B2128",
"X#	c #1A2027",
"Y#	c #1A2028",
"Z#	c #151A21",
"`#	c #1A1F29",
" $	c #1B202A",
".$	c #1B202B",
"+$	c #1C212B",
"@$	c #1D222D",
"#$	c #1F2430",
"$$	c #1F2632",
"%$	c #202733",
"&$	c #212732",
"*$	c #202531",
"=$	c #1F242E",
"-$	c #1F242F",
";$	c #1E232D",
">$	c #1E222B",
",$	c #1D222B",
"'$	c #1B212A",
")$	c #1B2029",
"!$	c #181D25",
"~$	c #1B212B",
"{$	c #1D242F",
"]$	c #1F2531",
"^$	c #212835",
"/$	c #212734",
"($	c #212733",
"_$	c #202631",
":$	c #1D232E",
"<$	c #1C212C",
"[$	c #1D232F",
"}$	c #202735",
"|$	c #222935",
"1$	c #1E242F",
"2$	c #1C222C",
"3$	c #1C232E",
"4$	c #222A37",
"5$	c #222937",
"6$	c #222835",
"7$	c #212834",
"8$	c #191E29",
"9$	c #1E2532",
"0$	c #1F2734",
"a$	c #222A39",
"b$	c #232B3B",
"c$	c #202633",
"d$	c #2A3342",
"e$	c #242C39",
"f$	c #1B212C",
"g$	c #262D3B",
"h$	c #27303E",
"i$	c #283040",
"j$	c #222938",
"k$	c #3F4D66",
"l$	c #404E67",
"m$	c #2C3646",
"n$	c #2B3445",
"o$	c #3E4C65",
"p$	c #42506B",
"q$	c #445470",
"r$	c #455471",
"s$	c #5B6E90",
"t$	c #63779C",
"u$	c #64799F",
"v$	c #566888",
"w$	c #1C232F",
"x$	c #212837",
"y$	c #3B485F",
"z$	c #45536D",
"A$	c #4A5976",
"B$	c #526384",
"C$	c #5C7095",
"D$	c #62779E",
"E$	c #697FA6",
"F$	c #7086AE",
"G$	c #6F86AE",
"H$	c #6A80A6",
"I$	c #44526D",
"J$	c #252F3F",
"K$	c #242D3E",
"L$	c #252E40",
"M$	c #273143",
"N$	c #2E384C",
"O$	c #3C4A62",
"P$	c #43526C",
"Q$	c #4B5B79",
"R$	c #516383",
"S$	c #56698C",
"T$	c #596D90",
"U$	c #5B6E91",
"V$	c #586B8B",
"W$	c #4D5E7B",
"X$	c #2D374B",
"Y$	c #273142",
"Z$	c #222B3C",
"`$	c #171E29",
" %	c #161B27",
".%	c #1B2230",
"+%	c #1D2534",
"@%	c #283245",
"#%	c #273144",
"$%	c #283346",
"%%	c #293346",
"&%	c #222A3A",
"*%	c #0C1018",
"=%	c #141A26",
"-%	c #1C2432",
";%	c #202939",
">%	c #222B3B",
",%	c #242E3F",
"'%	c #252F40",
")%	c #202938",
"!%	c #000000",
"                                                                                                                                ",
"                                                                                                                                ",
"                                                                                                                                ",
"                                                                                                                                ",
"                                                                                                                                ",
"                                                                                                                                ",
"                                                                                                                                ",
"                                                . + @ .                                                                         ",
"                                              # $ % & * = -                                                                     ",
"                                              ; > , > ' ) ! ~                                                                   ",
"                                              { ] ^ / ( _ : < @                                                                 ",
"                                                [ } | 1 2 3 4 * 5                                                               ",
"                                                  6 7 / 8 ) 9 0 a b                                                             ",
"                                                  c + d ( ) e f a g h                                                           ",
"                                                  . i | ( j e k l m 5 n                                                         ",
"                                                  o i p q r s t u r v o                                                         ",
"                                                  w i p x e y z z A B C D                                                       ",
"                                                  E F p G k H I J K L M N O                                                     ",
"                                                ^ ^ P Q R S T U V W X Y Z ^ O                                                   ",
"                                                `  ...+.@.#.$.%.@.&.*.*.=.-.^ ;.                                                ",
"                                              N ` >.,.'.).P %.%.%.!.~.{.+.'.].^./.(._.                                          ",
"                                            :.<. .[.}.|.1.2.P ^ 3.4.X 5.6.7.8.9.i b 0.o o a.                                    ",
"                                      b.c.d.e.T f.g.h.i.x j.k.; l.m.H n.o.p.q.r.j.B L + s.t.                                    ",
"                                    D D e.u.v.w.x.8 y.z.t A.] B.C.D.E.F.C.G.H.I.r J.K.                                          ",
"                                    c.D a.s.L.M.N.O.) P.Q.l.R.S.T.U.V.W.0 X.Y.Z.`.                                              ",
"                                            N  +/./..+u.++@+#+$+%+&+*+=+-+;+>+,+'+                                              ",
"                                              )+!+~+{+]+^+/+(+_+:+<+[+[+}+|+1+/+2+                                              ",
"                                              )+!+~+{+]+^+/+3+4+5+6+[+[+7+8+9+,+'+                                              ",
"                                            } :.0+a+b+c+^+,+d+e+f+g+g+g+h+i+j+k+l+                                              ",
"                                            e.m+n+o+p+q+r+s+t+u+v+w+w+w+j+x+y+z+A+                                              ",
"                                            B+s.C+D+E+F+G+H+I+I+J+K+j+j+L+M+N+O+P+                                              ",
"                                              Q+R+f.5 v S+T+U+V+W+X+/+/+Y+Z+`+ @.@                                              ",
"                                              +@@@b i #@$@%@&@*@=@-@;@>@,@'@)@E+!@                                              ",
"                                              ~@{@]@^@g.h./@(@_@:@<@[@}@|@1@2@3@4@                                              ",
"                                              5@6@7@8@9@0@a@b@c@d@e@f@g@h@i@j@@ k@                                              ",
"                                              l@m@n@o@p@q@r@s@t@u@v@w@x@y@z@A@B@b C@                                            ",
"                                            D@E@F@G@H@I@J@K@L@L@M@N@O@P@Q@R@S@T@L.U@                                            ",
"                                            V@W@X@o@H@Y@Z@`@ #L@.#+#@###$#%#&#T@*#=#                                            ",
"                                          +.-#;#>#,#'#)#!#q@`@ #~#{#]#^#/#(#_#:#<#[#Y.                                          ",
"                                          }#%.|#1#2#3#(#4#5#Z@Z@6#7#8#9#0#a#b#c#d#e#f#                                          ",
"                                              g#h#i#j#k#l#m#n#o#p#q#r#s#t#u#v#w#x#y#                                            ",
"                                              z#A#B#C#D#E#.+-. .)._.F#G#C#H#I#J#K#L#                                            ",
"                                            M#N#N#O#P#Q#[@R#S#T#S#U#U#U#R#V#V#W#X#Y#Z#                                          ",
"                                            `# $ $.$+$@$#$$$%$&$*$=$-$;$T#>$,$'$)$Y#!$                                          ",
"                                             $ $~$_.{$]$%$D ^$^$/$($_$-$=$-$:$+$ $ $<$                                          ",
"                                          f# $.$_.[$b.$$e.}$u.|$^$/$Y.*$Y.%$1$<$[@2$b.Y                                         ",
"                                          `#~$_.3$b.$$D h Q+4$5$6$7$D h 5$%$1$2$+$c.c.8$                                        ",
"                                          n _.[$} $$}$Q+l@- - u.h 5$6 c ^$Y.1$_.{$/.^$$$                                        ",
"                                          %$/.(.9$0$M l@l@- - a$c b$R 5$c$]$b.9$T b d$e$                                        ",
"                                        f$[ g$h$i$R+K.a$Q+j$a$a$- Q+}$/.[ 9.k$l$$ j@m$s.                                        ",
"                                        f$[ i$n$+ $@a 0 r o$p$q$r$p.V.s$t$u$v$; l $@t#e.                                        ",
"                                        w$x$a$t#+ 1 y$e k z$A$B$C$D$E$F$G$H$v$I$h.J${@B+                                        ",
"                                           +a$K$L$M$N$B O$P$Q$R$S$T$U$V$W$j.X$<#Y$Z$`$                                          ",
"                                               %.%+%M$@%#%M$<#<#@%<#<#<#@%$%%%&%`$                                              ",
"                                                    *%=%-%;%>%K$,%K$'%7@)%-%).                                                  ",
"                                                      !%!%            !%!%                                                      ",
"                                                      !%!%            !%!%                                                      ",
"                                                      !%!%            !%!%                                                      ",
"                                                      !%!%            !%                                                        ",
"                                                                                                                                ",
"                                                                                                                                ",
"                                                                                                                                ",
"                                                                                                                                ",
"                                                                                                                                "};
