/* XPM */
static char * player_dash_13_xpm[] = {
"64 64 583 2",
"  	c None",
". 	c #272F3E",
"+ 	c #2C3546",
"@ 	c #2C3545",
"# 	c #272F3F",
"$ 	c #202633",
"% 	c #2F3A4D",
"& 	c #2E384A",
"* 	c #374257",
"= 	c #374358",
"- 	c #333E51",
"; 	c #293241",
"> 	c #404D67",
", 	c #2D3748",
"' 	c #1C222D",
") 	c #354156",
"! 	c #3A465D",
"~ 	c #3C495F",
"{ 	c #39455B",
"] 	c #2F394B",
"^ 	c #212835",
"/ 	c #404E67",
"( 	c #3F4C64",
"_ 	c #191F2A",
": 	c #343F54",
"< 	c #384359",
"[ 	c #3D4960",
"} 	c #3E4B62",
"| 	c #333D51",
"1 	c #252D3B",
"2 	c #202734",
"3 	c #313C50",
"4 	c #39465C",
"5 	c #3D4A61",
"6 	c #404D65",
"7 	c #3B485E",
"8 	c #262E3D",
"9 	c #222938",
"0 	c #2F394C",
"a 	c #333E53",
"b 	c #384459",
"c 	c #3C4960",
"d 	c #3F4C63",
"e 	c #3E4B63",
"f 	c #39445A",
"g 	c #313B4F",
"h 	c #242C3A",
"i 	c #222A38",
"j 	c #2C3648",
"k 	c #323D50",
"l 	c #374359",
"m 	c #3B485F",
"n 	c #414F68",
"o 	c #2D3749",
"p 	c #212836",
"q 	c #2B3446",
"r 	c #404E66",
"s 	c #45536D",
"t 	c #475670",
"u 	c #344055",
"v 	c #283142",
"w 	c #1F2633",
"x 	c #222A39",
"y 	c #2A3445",
"z 	c #303B4E",
"A 	c #3D4A62",
"B 	c #43516A",
"C 	c #4A5A75",
"D 	c #4D5D7A",
"E 	c #475570",
"F 	c #3B475E",
"G 	c #2B3546",
"H 	c #1F2634",
"I 	c #171D27",
"J 	c #293243",
"K 	c #2E394D",
"L 	c #425069",
"M 	c #46546E",
"N 	c #404C62",
"O 	c #3E485B",
"P 	c #3A4151",
"Q 	c #232935",
"R 	c #171D28",
"S 	c #181D28",
"T 	c #1D2431",
"U 	c #202836",
"V 	c #232B3B",
"W 	c #262F40",
"X 	c #2A3344",
"Y 	c #232937",
"Z 	c #292D37",
"` 	c #30343E",
" .	c #31343D",
"..	c #2C2F38",
"+.	c #1E222C",
"@.	c #161C27",
"#.	c #161C28",
"$.	c #141A26",
"%.	c #171E2A",
"&.	c #191F2C",
"*.	c #19202C",
"=.	c #1B212D",
"-.	c #181E28",
";.	c #2A2D35",
">.	c #343640",
",.	c #252830",
"'.	c #151B26",
").	c #1E2532",
"!.	c #181E29",
"~.	c #181E2A",
"{.	c #141A25",
"].	c #131823",
"^.	c #151C27",
"/.	c #181E2B",
"(.	c #19202D",
"_.	c #181F2B",
":.	c #292D36",
"<.	c #3D404A",
"[.	c #2A2D37",
"}.	c #222A3A",
"|.	c #2A3446",
"1.	c #2E394C",
"2.	c #2E384C",
"3.	c #2C3547",
"4.	c #293343",
"5.	c #283141",
"6.	c #283040",
"7.	c #171C26",
"8.	c #19202B",
"9.	c #171E29",
"0.	c #1B2230",
"a.	c #1F2735",
"b.	c #232936",
"c.	c #353A46",
"d.	c #3D4452",
"e.	c #40495B",
"f.	c #465570",
"g.	c #43526C",
"h.	c #3F4D66",
"i.	c #242B3A",
"j.	c #181E27",
"k.	c #1D2430",
"l.	c #1E2531",
"m.	c #1F2734",
"n.	c #212937",
"o.	c #232C3C",
"p.	c #3A475E",
"q.	c #43516B",
"r.	c #495772",
"s.	c #4C5C77",
"t.	c #536482",
"u.	c #586A8A",
"v.	c #586A8B",
"w.	c #556686",
"x.	c #4F607E",
"y.	c #485772",
"z.	c #262F3E",
"A.	c #1F2632",
"B.	c #273040",
"C.	c #364258",
"D.	c #3D4A63",
"E.	c #4B5A76",
"F.	c #526381",
"G.	c #566787",
"H.	c #596B8B",
"I.	c #5B6E8F",
"J.	c #576988",
"K.	c #4D5D79",
"L.	c #313A4B",
"M.	c #232A35",
"N.	c #171A21",
"O.	c #0D0E11",
"P.	c #232A38",
"Q.	c #333E52",
"R.	c #3F4B63",
"S.	c #3F4B62",
"T.	c #343F52",
"U.	c #3D495F",
"V.	c #3F4B5D",
"W.	c #3C4758",
"X.	c #323B4C",
"Y.	c #272D39",
"Z.	c #1D2128",
"`.	c #191B1D",
" +	c #2D2E19",
".+	c #1C1C15",
"++	c #101010",
"@+	c #0B0B0B",
"#+	c #1E2430",
"$+	c #222936",
"%+	c #191E27",
"&+	c #1E242F",
"*+	c #191D25",
"=+	c #15181D",
"-+	c #252622",
";+	c #808124",
">+	c #63641F",
",+	c #1C1C19",
"'+	c #171717",
")+	c #505021",
"!+	c #AAAA19",
"~+	c #4D4D1B",
"{+	c #121211",
"]+	c #0D0D0D",
"^+	c #050608",
"/+	c #060708",
"(+	c #070708",
"_+	c #090A0A",
":+	c #0C0C0D",
"<+	c #0F0F0F",
"[+	c #121212",
"}+	c #6D6D23",
"|+	c #EEEE0D",
"1+	c #BCBC1B",
"2+	c #29291C",
"3+	c #181818",
"4+	c #989825",
"5+	c #F3F308",
"6+	c #7C7C20",
"7+	c #08090D",
"8+	c #07080A",
"9+	c #080809",
"0+	c #0A0A0A",
"a+	c #0C0C0C",
"b+	c #7E7E20",
"c+	c #F3F307",
"d+	c #D2D220",
"e+	c #24241B",
"f+	c #191918",
"g+	c #888821",
"h+	c #E9E90E",
"i+	c #6D6D24",
"j+	c #111111",
"k+	c #0E0E0E",
"l+	c #1B222D",
"m+	c #1D222D",
"n+	c #1B2029",
"o+	c #191B22",
"p+	c #15171A",
"q+	c #141415",
"r+	c #151515",
"s+	c #4D4D1E",
"t+	c #AEAD1A",
"u+	c #808023",
"v+	c #181817",
"w+	c #47471C",
"x+	c #7C7C1D",
"y+	c #29281E",
"z+	c #1E1F21",
"A+	c #242830",
"B+	c #293242",
"C+	c #2C3544",
"D+	c #2E3645",
"E+	c #2F3542",
"F+	c #323640",
"G+	c #3C3E44",
"H+	c #565452",
"I+	c #656353",
"J+	c #303130",
"K+	c #161717",
"L+	c #161616",
"M+	c #171815",
"N+	c #434345",
"O+	c #5E5B5D",
"P+	c #404550",
"Q+	c #343C4C",
"R+	c #283140",
"S+	c #2B3445",
"T+	c #333D50",
"U+	c #3B4457",
"V+	c #495060",
"W+	c #76767C",
"X+	c #878386",
"Y+	c #4E515A",
"Z+	c #1E2024",
"`+	c #141414",
" @	c #2D3037",
".@	c #79767B",
"+@	c #767479",
"@@	c #343E50",
"#@	c #2D3645",
"$@	c #26303E",
"%@	c #354053",
"&@	c #3B4559",
"*@	c #5D616E",
"=@	c #8E8B8D",
"-@	c #696B75",
";@	c #2A2F39",
">@	c #121213",
",@	c #434753",
"'@	c #88858A",
")@	c #5E616B",
"!@	c #303B4C",
"~@	c #27303E",
"{@	c #1E2633",
"]@	c #242D3C",
"^@	c #2F394D",
"/@	c #323D51",
"(@	c #364155",
"_@	c #434C5E",
":@	c #838289",
"<@	c #7A7C87",
"[@	c #3B4250",
"}@	c #131519",
"|@	c #101216",
"1@	c #595D69",
"2@	c #888A97",
"3@	c #484F5E",
"4@	c #242C39",
"5@	c #1E2735",
"6@	c #222B3B",
"7@	c #252F40",
"8@	c #293345",
"9@	c #2C384B",
"0@	c #303C4F",
"a@	c #333F53",
"b@	c #354255",
"c@	c #6A6E7C",
"d@	c #8C8F9E",
"e@	c #575E6F",
"f@	c #212630",
"g@	c #1B222E",
"h@	c #747886",
"i@	c #818595",
"j@	c #333D4F",
"k@	c #2D3648",
"l@	c #272E3C",
"m@	c #212938",
"n@	c #212B3B",
"o@	c #232D3E",
"p@	c #253042",
"q@	c #293448",
"r@	c #2D394D",
"s@	c #2F3C50",
"t@	c #313D52",
"u@	c #4B5466",
"v@	c #8A8FA1",
"w@	c #747A8C",
"x@	c #333A48",
"y@	c #3D414C",
"z@	c #8F8F98",
"A@	c #636673",
"B@	c #2E3A4C",
"C@	c #1C2431",
"D@	c #212A3A",
"E@	c #222B3C",
"F@	c #232E3F",
"G@	c #253143",
"H@	c #293548",
"I@	c #2C394D",
"J@	c #2D3A4F",
"K@	c #2E3B50",
"L@	c #364256",
"M@	c #757B8E",
"N@	c #858A9C",
"O@	c #454C5B",
"P@	c #59585E",
"Q@	c #888589",
"R@	c #343D4F",
"S@	c #2D394C",
"T@	c #2B3647",
"U@	c #232A36",
"V@	c #1E2737",
"W@	c #202A3B",
"X@	c #222C3D",
"Y@	c #242F41",
"Z@	c #263144",
"`@	c #2A374C",
" #	c #2C394E",
".#	c #2F3C51",
"+#	c #545D6F",
"@#	c #828596",
"##	c #595E6D",
"$#	c #43464F",
"%#	c #5A5A62",
"&#	c #2A3549",
"*#	c #2C374B",
"=#	c #2B3547",
"-#	c #1E2636",
";#	c #1F293A",
">#	c #212B3D",
",#	c #232E41",
"'#	c #253145",
")#	c #273448",
"!#	c #29354A",
"~#	c #2B384D",
"{#	c #2D3A4E",
"]#	c #384357",
"^#	c #7D7F8D",
"/#	c #6C6E7C",
"(#	c #38404F",
"_#	c #273247",
":#	c #2B3649",
"<#	c #2A3447",
"[#	c #283244",
"}#	c #262F3F",
"|#	c #1D232D",
"1#	c #151B25",
"2#	c #1B2332",
"3#	c #1E2738",
"4#	c #202B3E",
"5#	c #232E42",
"6#	c #273349",
"7#	c #29354B",
"8#	c #29364B",
"9#	c #2A364C",
"0#	c #313D51",
"a#	c #6C6F7C",
"b#	c #797883",
"c#	c #404959",
"d#	c #1F2837",
"e#	c #273246",
"f#	c #263043",
"g#	c #242D3E",
"h#	c #191D26",
"i#	c #171C25",
"j#	c #18202D",
"k#	c #1A2332",
"l#	c #1D2637",
"m#	c #1F293C",
"n#	c #212C3F",
"o#	c #222D41",
"p#	c #242F43",
"q#	c #535664",
"r#	c #6E6D76",
"s#	c #414756",
"t#	c #1C2430",
"u#	c #1A2232",
"v#	c #1D2534",
"w#	c #1B212E",
"x#	c #181D26",
"y#	c #141820",
"z#	c #1A2029",
"A#	c #1A1F28",
"B#	c #191E26",
"C#	c #181D25",
"D#	c #171D24",
"E#	c #171D26",
"F#	c #1A202B",
"G#	c #2A2E36",
"H#	c #34353C",
"I#	c #21252D",
"J#	c #14171C",
"K#	c #16191E",
"L#	c #171A1F",
"M#	c #181A1E",
"N#	c #17191D",
"O#	c #1A1F29",
"P#	c #1B202A",
"Q#	c #1A202A",
"R#	c #1B212A",
"S#	c #1C212A",
"T#	c #1D222B",
"U#	c #1D222A",
"V#	c #1D2229",
"W#	c #1C2128",
"X#	c #1C2026",
"Y#	c #1C1F25",
"Z#	c #1C1F24",
"`#	c #1B1E24",
" $	c #1B1E23",
".$	c #191C22",
"+$	c #191E28",
"@$	c #1B212B",
"#$	c #1D232E",
"$$	c #1F2531",
"%$	c #202632",
"&$	c #202631",
"*$	c #1F242E",
"=$	c #1F232C",
"-$	c #1E232B",
";$	c #1E222A",
">$	c #1C2127",
",$	c #1B2027",
"'$	c #1B1F26",
")$	c #191E25",
"!$	c #12151C",
"~$	c #1C212C",
"{$	c #1D232F",
"]$	c #1E2530",
"^$	c #212834",
"/$	c #1F252F",
"($	c #1E232D",
"_$	c #1E232C",
":$	c #1E222B",
"<$	c #1B2129",
"[$	c #1A2028",
"}$	c #1A2027",
"|$	c #14181F",
"1$	c #191F29",
"2$	c #202835",
"3$	c #222935",
"4$	c #212733",
"5$	c #202531",
"6$	c #1F242F",
"7$	c #1D222C",
"8$	c #161B23",
"9$	c #1E2431",
"0$	c #1F2532",
"a$	c #222937",
"b$	c #202733",
"c$	c #1C212B",
"d$	c #1C222C",
"e$	c #232B39",
"f$	c #1A1F2A",
"g$	c #1D2330",
"h$	c #2A3343",
"i$	c #2C3647",
"j$	c #293244",
"k$	c #242C3B",
"l$	c #232B3A",
"m$	c #222B3A",
"n$	c #212734",
"o$	c #1F2631",
"p$	c #1C232E",
"q$	c #202735",
"r$	c #242C3C",
"s$	c #283242",
"t$	c #2E394B",
"u$	c #344054",
"v$	c #38445A",
"w$	c #39455C",
"x$	c #364157",
"y$	c #2F3A4E",
"z$	c #283243",
"A$	c #252D3D",
"B$	c #262D3C",
"C$	c #262E3C",
"D$	c #262E3E",
"E$	c #191F2B",
"F$	c #1E2634",
"G$	c #37445A",
"H$	c #42506A",
"I$	c #4A5A78",
"J$	c #4E5F7E",
"K$	c #4F607F",
"L$	c #50617F",
"M$	c #50607E",
"N$	c #4D5E7B",
"O$	c #455570",
"P$	c #1C2330",
"Q$	c #2B3548",
"R$	c #303C50",
"S$	c #37435A",
"T$	c #485875",
"U$	c #526484",
"V$	c #5A6D91",
"W$	c #60749A",
"X$	c #677DA3",
"Y$	c #697FA5",
"Z$	c #677CA3",
"`$	c #5D7093",
" %	c #4C5D7A",
".%	c #3F4D65",
"+%	c #2C3748",
"@%	c #273042",
"#%	c #2B3549",
"$%	c #303B50",
"%%	c #36435A",
"&%	c #3D4B64",
"*%	c #43526D",
"=%	c #495975",
"-%	c #4B5B77",
";%	c #404F69",
">%	c #38455C",
",%	c #2F3B4F",
"'%	c #293344",
")%	c #151B24",
"!%	c #1E2534",
"~%	c #1D2533",
"{%	c #202938",
"]%	c #232C3D",
"^%	c #293346",
"/%	c #262F41",
"(%	c #202837",
"_%	c #06070B",
":%	c #090B10",
"<%	c #0F131A",
"[%	c #141A23",
"}%	c #000000",
"|%	c #010101",
"1%	c #020203",
"2%	c #010203",
"                                                                                                                                ",
"                                                                                                                                ",
"                                                                                                                                ",
"                                                                                                                                ",
"                                                                                                                                ",
"                                                                                                                                ",
"                                                                                                                                ",
"                                                                                                                                ",
"                                              . + @ # $                                                                         ",
"                                            % & + * = - ;                                                                       ",
"                                            > , ' ) ! ~ { ] ^                                                                   ",
"                                            / ( _ : < [ } ~ | 1                                                                 ",
"                                                2 3 ) 4 5 6 7 - 8                                                               ",
"                                                9 0 a b c d e f g h                                                             ",
"                                                i j k l m d n 5 = o p                                                           ",
"                                                i q g = c r s t / u v w                                                         ",
"                                                x y z l A B C D E F G H I                                                       ",
"                                                i J K ) m L M N O P Q R R S                                                     ",
"                                                T U V W X J Y Z `  ...+.@.R R                                                   ",
"                                                _ #.$.%.&.&.*.=.-.;.>.,.#.'._ ).p 2 w w 2                                       ",
"                                              !.~.{.].^./.(.(._.+.:.<.[.}.|.1.2.3.4.5.6.1 7.                                    ",
"                                              8.9.{.].#.*.0.a.b.c.d.e.( f.f.g.h.! : + i.j.                                      ",
"                                          k.l.m.n.o.v 1.a p.q.r.s.t.u.v.w.x.y.5 ] z.                                            ",
"                                      l.A.2 i B.2.C.D.B t E.F.G.H.I.J.K.d L.M.N.O.                                              ",
"                                    w m.^ P.z.j Q.{ b R.S.T.U.V.W.X.Y.Z.`. +.+++@+                                              ",
"                                    #+).w p i 2 $+2 %+&+*+=+-+;+>+,+'+'+)+!+~+{+]+                                              ",
"                                              ^+/+(+_+:+<+[+}+|+1+2+3+3+4+5+6+[+]+                                              ",
"                                              7+8+9+0+a+<+[+b+c+d+e+3+f+g+h+i+j+k+                                              ",
"                                            l+l.m+n+o+p+q+r+s+t+u+v+'+'+w+x+y+z+A+                                              ",
"                                            2 . B+C+D+E+F+G+H+I+J+K+L+L+M+N+O+P+Q+                                              ",
"                                              h R+S+& T+U+V+W+X+Y+Z+`+`+ @.@+@@@#@                                              ",
"                                              p $@4.o z %@&@*@=@-@;@>@j+,@'@)@!@~@                                              ",
"                                              {@]@v j ^@/@(@_@:@<@[@}@|@1@2@3@& 4@                                              ",
"                                              5@6@7@8@9@0@a@b@c@d@e@f@g@h@i@j@k@l@                                              ",
"                                              m@n@o@p@q@r@s@t@u@v@w@x@y@z@A@B@j 6.                                              ",
"                                            C@D@E@F@G@H@I@J@K@L@M@N@O@P@Q@R@S@T@; U@                                            ",
"                                            V@W@X@Y@Z@H@`@ #J@.#+#@###$#%#&#*#=#4.1                                             ",
"                                          9.-#;#>#,#'#)#!#~# #{#]#^#/#(#8 _#:#<#[#}#|#                                          ",
"                                          1#*.2#3#4#5#'#6#7#8#9#0#a#b#c#d#5#e#f#g#n.h#                                          ",
"                                            i#7.R j#k#l#m#n#o#p#e#q#r#s#t#u#v#w#x#y#                                            ",
"                                          x#z#A#B#C#D#i#E#-.!._ F#G#H#I#J#K#L#M#N#                                              ",
"                                          O#P#Q#P#R#S#T#T#U#V#W#X#X#X#Y#Z#`# $ $.$                                              ",
"                                        +$P#P#@$' #$&+$$A.%$&$*$=$-$;$V#Z.>$,$'$)$!$                                            ",
"                                        Q#@$~$' {$]$A.2 2 ^ ^$%$&$/$($_$:$U#<$[$}$|$                                            ",
"                                      1$' ' #$k.l.w 2$p p $+3$^$4$5$6$6$&+7$R#n+n+8$                                            ",
"                                      l.A.l.9$0$m.U n.n.i a$$+^$4$b$b$2 $$m+c$P#d$%+                                            ",
"                                    F#P.h h e$i n.m@m@i i a$a$a$a$i n.b$#+d$c$' 9$f$                                            ",
"                                    g$i z.h$i$, =#j$z.k$l$x x e$m$a$n$o$&+m+#$w w p$                                            ",
"                                    =.q$r$s$t$u$v$! w$x$a y$=#z$# A$B$C$8 8 D$8 8 ^                                             ",
"                                      E$F$o.[#y$G$e H$f.I$J$K$x.L$x.M$N$O$c Q.& h$$+                                            ",
"                                          E$P$o.Q$R$S$> T$U$V$W$X$Y$Z$`$ %.%u$+%8 k.                                            ",
"                                              R a.o.@%#%$%%%&%*%=%-%=%;%>%,%'%r$H )%                                            ",
"                                                    g@!%~%{%]%[#^%^%^%[#/%(%F$E$                                                ",
"                                                        _%:%<%P$*.)%1#R [%                                                      ",
"                                                        }%}%|%  1%2%1%                                                          ",
"                                                        }%}%}%  }%}%                                                            ",
"                                                        }%}%    }%}%                                                            ",
"                                                        }%}%  }%}%                                                              ",
"                                                        }%}%                                                                    ",
"                                                          }%                                                                    ",
"                                                                                                                                ",
"                                                                                                                                ",
"                                                                                                                                ",
"                                                                                                                                "};
