/* XPM */
static char * player_dash_6_xpm[] = {
"64 64 584 2",
"  	c None",
". 	c #1D232F",
"+ 	c #252D3C",
"@ 	c #2A3343",
"# 	c #2B3343",
"$ 	c #293141",
"% 	c #262E3C",
"& 	c #2E3749",
"* 	c #354054",
"= 	c #364156",
"- 	c #364155",
"; 	c #343E51",
"> 	c #303A4D",
", 	c #2D3647",
"' 	c #283140",
") 	c #2B3445",
"! 	c #293243",
"~ 	c #2D3749",
"{ 	c #344054",
"] 	c #39455A",
"^ 	c #3B475E",
"/ 	c #3B475D",
"( 	c #39455B",
"_ 	c #323C4F",
": 	c #2D3748",
"< 	c #2C3647",
"[ 	c #323D50",
"} 	c #343F53",
"| 	c #364257",
"1 	c #3A465C",
"2 	c #3C485F",
"3 	c #374257",
"4 	c #333E51",
"5 	c #2E384A",
"6 	c #252D3D",
"7 	c #2A3344",
"8 	c #2E384B",
"9 	c #333E53",
"0 	c #374358",
"a 	c #3C4960",
"b 	c #3D4961",
"c 	c #38445A",
"d 	c #303A4E",
"e 	c #2B3446",
"f 	c #262E3E",
"g 	c #2A3345",
"h 	c #2D374A",
"i 	c #313B4F",
"j 	c #354055",
"k 	c #39445A",
"l 	c #3F4C64",
"m 	c #425068",
"n 	c #3D4B62",
"o 	c #374359",
"p 	c #2E394C",
"q 	c #232B3A",
"r 	c #1A202C",
"s 	c #171D28",
"t 	c #1C222E",
"u 	c #1F2633",
"v 	c #212936",
"w 	c #333D51",
"x 	c #3D4A61",
"y 	c #43516A",
"z 	c #475570",
"A 	c #485772",
"B 	c #343E52",
"C 	c #262D3A",
"D 	c #202530",
"E 	c #1B202B",
"F 	c #191E28",
"G 	c #1B212D",
"H 	c #202735",
"I 	c #272F3F",
"J 	c #262F3E",
"K 	c #232B39",
"L 	c #2D3648",
"M 	c #313C50",
"N 	c #374258",
"O 	c #425069",
"P 	c #45536C",
"Q 	c #3F4A5F",
"R 	c #393F4D",
"S 	c #343842",
"T 	c #2B2F38",
"U 	c #252932",
"V 	c #21252F",
"W 	c #1A212D",
"X 	c #212938",
"Y 	c #293345",
"Z 	c #2E384C",
"` 	c #2F3A4D",
" .	c #273040",
"..	c #2A3446",
"+.	c #343F54",
"@.	c #3A465D",
"#.	c #303848",
"$.	c #262B36",
"%.	c #20242D",
"&.	c #222630",
"*.	c #262A33",
"=.	c #232730",
"-.	c #212630",
";.	c #272E3C",
">.	c #3A475E",
",.	c #3E4B64",
"'.	c #3D4A62",
").	c #2C3648",
"!.	c #222A39",
"~.	c #191F2B",
"{.	c #181F2A",
"].	c #1A202D",
"^.	c #1B212C",
"/.	c #1C212C",
"(.	c #242933",
"_.	c #313642",
":.	c #3A4252",
"<.	c #414E65",
"[.	c #495873",
"}.	c #4B5B78",
"|.	c #46556F",
"1.	c #1C2431",
"2.	c #181E29",
"3.	c #161C27",
"4.	c #171D29",
"5.	c #171E2A",
"6.	c #181F2B",
"7.	c #19202C",
"8.	c #1F2530",
"9.	c #2A2F39",
"0.	c #333945",
"a.	c #3D475B",
"b.	c #4B5A76",
"c.	c #546585",
"d.	c #546584",
"e.	c #475671",
"f.	c #313B4E",
"g.	c #171C28",
"h.	c #151C27",
"i.	c #161D28",
"j.	c #181E2A",
"k.	c #1B202C",
"l.	c #242B39",
"m.	c #4D5E7B",
"n.	c #5A6C8E",
"o.	c #5D7092",
"p.	c #536583",
"q.	c #1C212B",
"r.	c #0D0E10",
"s.	c #0B0B0B",
"t.	c #161C28",
"u.	c #151B27",
"v.	c #141A25",
"w.	c #161B26",
"x.	c #242D3D",
"y.	c #4E5F7C",
"z.	c #586A8A",
"A.	c #5C6F91",
"B.	c #586A8B",
"C.	c #44526B",
"D.	c #131517",
"E.	c #101010",
"F.	c #0F0F0F",
"G.	c #0D0D0D",
"H.	c #151B26",
"I.	c #283142",
"J.	c #39455C",
"K.	c #465570",
"L.	c #4D5D7A",
"M.	c #51627F",
"N.	c #51617E",
"O.	c #44516A",
"P.	c #2A3241",
"Q.	c #17191D",
"R.	c #141414",
"S.	c #121212",
"T.	c #111111",
"U.	c #1F2734",
"V.	c #283141",
"W.	c #323D51",
"X.	c #424F68",
"Y.	c #46546D",
"Z.	c #3A455A",
"`.	c #252C3A",
" +	c #16181C",
".+	c #151516",
"++	c #171716",
"@+	c #161616",
"#+	c #151515",
"$+	c #171715",
"%+	c #1C1C14",
"&+	c #1D1D12",
"*+	c #17170F",
"=+	c #222A38",
"-+	c #3B485E",
";+	c #323C4E",
">+	c #161718",
",+	c #242418",
"'+	c #35351B",
")+	c #34341A",
"!+	c #292919",
"~+	c #29291A",
"{+	c #43431B",
"]+	c #5A5A1A",
"^+	c #575716",
"/+	c #3E3E13",
"(+	c #242410",
"_+	c #1E2532",
":+	c #202835",
"<+	c #293142",
"[+	c #2F394B",
"}+	c #313C4F",
"|+	c #1A1F29",
"1+	c #131413",
"2+	c #2A2A14",
"3+	c #565619",
"4+	c #797919",
"5+	c #7A7A17",
"6+	c #5D5D17",
"7+	c #464619",
"8+	c #52521A",
"9+	c #717118",
"0+	c #7F7F16",
"a+	c #6D6D14",
"b+	c #484813",
"c+	c #282811",
"d+	c #1F2632",
"e+	c #232A38",
"f+	c #212835",
"g+	c #13171F",
"h+	c #0B0B0D",
"i+	c #0F0F0D",
"j+	c #202010",
"k+	c #454512",
"l+	c #757513",
"m+	c #929213",
"n+	c #898915",
"o+	c #656518",
"p+	c #4A4A19",
"q+	c #525219",
"r+	c #6E6E17",
"s+	c #767617",
"t+	c #5E5E17",
"u+	c #383815",
"v+	c #1B1B10",
"w+	c #202733",
"x+	c #1D2430",
"y+	c #141820",
"z+	c #14171E",
"A+	c #13161B",
"B+	c #121418",
"C+	c #141516",
"D+	c #222214",
"E+	c #414114",
"F+	c #676714",
"G+	c #67671B",
"H+	c #41411B",
"I+	c #2E2E19",
"J+	c #373719",
"K+	c #41411A",
"L+	c #36361A",
"M+	c #1F1F15",
"N+	c #121211",
"O+	c #0E0E0E",
"P+	c #252C39",
"Q+	c #252C38",
"R+	c #242A34",
"S+	c #24282F",
"T+	c #282B2B",
"U+	c #333429",
"V+	c #3A3A29",
"W+	c #333329",
"X+	c #282725",
"Y+	c #201F1F",
"Z+	c #1B1B1A",
"`+	c #171816",
" @	c #131313",
".@	c #222326",
"+@	c #33363C",
"@@	c #242D3B",
"#@	c #272F3E",
"$@	c #293241",
"%@	c #2C3545",
"&@	c #303948",
"*@	c #363E4D",
"=@	c #404653",
"-@	c #4D515B",
";@	c #56575F",
">@	c #525258",
",@	c #414245",
"'@	c #2D2D30",
")@	c #1E1E20",
"!@	c #171718",
"~@	c #232325",
"{@	c #3F3F44",
"]@	c #53555C",
"^@	c #525560",
"/@	c #3F4553",
"(@	c #252E3D",
"_@	c #2A3445",
":@	c #2F394A",
"<@	c #363F52",
"[@	c #414A5B",
"}@	c #4F5564",
"|@	c #5A5D69",
"1@	c #5A5C64",
"2@	c #4C4D53",
"3@	c #36373B",
"4@	c #252629",
"5@	c #2A2B2F",
"6@	c #414247",
"7@	c #54565D",
"8@	c #535762",
"9@	c #454B58",
"0@	c #363D4C",
"a@	c #242C3B",
"b@	c #262F3F",
"c@	c #3B4456",
"d@	c #484F60",
"e@	c #555A68",
"f@	c #585C67",
"g@	c #4D5059",
"h@	c #393C43",
"i@	c #2C2F34",
"j@	c #34353B",
"k@	c #474950",
"l@	c #525660",
"m@	c #4D5360",
"n@	c #3E4655",
"o@	c #313948",
"p@	c #222A3A",
"q@	c #273142",
"r@	c #2A3547",
"s@	c #354052",
"t@	c #404A5C",
"u@	c #4D5566",
"v@	c #555C6B",
"w@	c #525764",
"x@	c #444853",
"y@	c #383C46",
"z@	c #3D414C",
"A@	c #4D525F",
"B@	c #535A6A",
"C@	c #495162",
"D@	c #384151",
"E@	c #2C3544",
"F@	c #1F2736",
"G@	c #212A39",
"H@	c #222C3C",
"I@	c #242F40",
"J@	c #273244",
"K@	c #2A3649",
"L@	c #2F3B4F",
"M@	c #394558",
"N@	c #475264",
"O@	c #545D6E",
"P@	c #565D6E",
"Q@	c #4E5564",
"R@	c #484F5D",
"S@	c #505665",
"T@	c #595F6E",
"U@	c #545A69",
"V@	c #424959",
"W@	c #323A49",
"X@	c #1F2737",
"Y@	c #202A3A",
"Z@	c #222C3D",
"`@	c #252F41",
" #	c #273245",
".#	c #2D3A4E",
"+#	c #354155",
"@#	c #414C60",
"##	c #4F596C",
"$#	c #586072",
"%#	c #5A6171",
"&#	c #5E6371",
"*#	c #626671",
"=#	c #5B5F6A",
"-#	c #474D5B",
";#	c #353E4E",
">#	c #2C3546",
",#	c #1D2534",
"'#	c #1F2838",
")#	c #212A3B",
"!#	c #232D3F",
"~#	c #253042",
"{#	c #273346",
"]#	c #293549",
"^#	c #2B384C",
"/#	c #303D51",
"(#	c #3A465B",
"_#	c #485266",
":#	c #555D6F",
"<#	c #5C6171",
"[#	c #5D616D",
"}#	c #555965",
"|#	c #454B59",
"1#	c #293344",
"2#	c #1C2432",
"3#	c #1D2635",
"4#	c #1F2939",
"5#	c #212C3D",
"6#	c #242F41",
"7#	c #263245",
"8#	c #273448",
"9#	c #29364B",
"0#	c #2D394E",
"a#	c #3E495D",
"b#	c #4C5466",
"c#	c #515665",
"d#	c #414857",
"e#	c #313A4C",
"f#	c #2A3447",
"g#	c #1A212E",
"h#	c #1C2433",
"i#	c #1D2737",
"j#	c #202A3C",
"k#	c #222D41",
"l#	c #253045",
"m#	c #273348",
"n#	c #303B50",
"o#	c #3B4559",
"p#	c #505666",
"q#	c #4B5261",
"r#	c #3E4555",
"s#	c #313A4B",
"t#	c #293346",
"u#	c #273144",
"v#	c #273043",
"w#	c #252F40",
"x#	c #232B3B",
"y#	c #191E29",
"z#	c #191F2A",
"A#	c #1A222F",
"B#	c #1D2636",
"C#	c #1F293A",
"D#	c #222C3E",
"E#	c #323B4D",
"F#	c #404757",
"G#	c #4A505E",
"H#	c #484D5B",
"I#	c #3A404F",
"J#	c #222B3C",
"K#	c #1F2839",
"L#	c #1D2634",
"M#	c #171B25",
"N#	c #1A1F2A",
"O#	c #1B202A",
"P#	c #1B212B",
"Q#	c #1A202B",
"R#	c #1D232D",
"S#	c #232932",
"T#	c #2A2E38",
"U#	c #2A2E36",
"V#	c #22252E",
"W#	c #181C24",
"X#	c #14171D",
"Y#	c #15161B",
"Z#	c #141518",
"`#	c #1C222D",
" $	c #1D232E",
".$	c #1E2430",
"+$	c #1E2531",
"@$	c #1F2531",
"#$	c #1F2631",
"$$	c #1F242D",
"%$	c #1E232B",
"&$	c #1D2129",
"*$	c #1C2026",
"=$	c #1C1F24",
"-$	c #1B1E23",
";$	c #1B1D22",
">$	c #1B1D21",
",$	c #1A1C1F",
"'$	c #191B1E",
")$	c #18191C",
"!$	c #202633",
"~$	c #202734",
"{$	c #212734",
"]$	c #212733",
"^$	c #202631",
"/$	c #1E232C",
"($	c #1E222A",
"_$	c #1D2128",
":$	c #1A1C21",
"<$	c #181B20",
"[$	c #222936",
"}$	c #222A37",
"|$	c #222937",
"1$	c #212836",
"2$	c #222835",
"3$	c #212834",
"4$	c #202732",
"5$	c #1F242E",
"6$	c #1D222A",
"7$	c #1C2028",
"8$	c #1B1F26",
"9$	c #1A1E25",
"0$	c #181D23",
"a$	c #1F2733",
"b$	c #262E3D",
"c$	c #1F252F",
"d$	c #1E232D",
"e$	c #1D232C",
"f$	c #1C212A",
"g$	c #1B2028",
"h$	c #191F27",
"i$	c #181E25",
"j$	c #1E2533",
"k$	c #212937",
"l$	c #2B3546",
"m$	c #1B2029",
"n$	c #1A1F28",
"o$	c #191E26",
"p$	c #1F2735",
"q$	c #232C3B",
"r$	c #344055",
"s$	c #333D52",
"t$	c #2F394C",
"u$	c #222B3A",
"v$	c #1D222D",
"w$	c #1B1F29",
"x$	c #39465D",
"y$	c #3C4961",
"z$	c #354156",
"A$	c #1E232E",
"B$	c #1C222C",
"C$	c #212A38",
"D$	c #354157",
"E$	c #3C4962",
"F$	c #43516C",
"G$	c #475774",
"H$	c #495976",
"I$	c #475673",
"J$	c #43516B",
"K$	c #293242",
"L$	c #252D3B",
"M$	c #252E3F",
"N$	c #2B3548",
"O$	c #323E53",
"P$	c #3A4860",
"Q$	c #44536F",
"R$	c #4D5E7D",
"S$	c #556788",
"T$	c #5A6D8F",
"U$	c #5B6E90",
"V$	c #586B8C",
"W$	c #526382",
"X$	c #495874",
"Y$	c #3E4C64",
"Z$	c #272F3D",
"`$	c #1B212E",
" %	c #1D2432",
".%	c #232C3C",
"+%	c #2D384B",
"@%	c #38455C",
"#%	c #43526C",
"$%	c #566888",
"%%	c #495975",
"&%	c #404E66",
"*%	c #2C3646",
"=%	c #28303F",
"-%	c #06080C",
";%	c #0A0D12",
">%	c #0F131B",
",%	c #161C26",
"'%	c #1D2532",
")%	c #2D374B",
"!%	c #344157",
"~%	c #333F54",
"{%	c #303B4F",
"]%	c #000000",
"^%	c #000101",
"/%	c #010203",
"(%	c #040507",
"_%	c #090C10",
":%	c #131821",
"<%	c #1C2331",
"[%	c #212939",
"}%	c #242E3E",
"|%	c #242D3E",
"1%	c #222B3B",
"2%	c #1F2634",
"3%	c #1B222E",
"                                                                                                                                ",
"                                                                                                                                ",
"                                                                                                                                ",
"                                                                                                                                ",
"                                                                                                                                ",
"                                                                                                                                ",
"                                                                                                                                ",
"                                                                                                                                ",
"                                                                                                                                ",
"                                                                                                                                ",
"                                        . + @ # $ %                                                                             ",
"                                      & * = - = - ; > , '                                                                       ",
"                                    ) ) ! ~ { ] ^ / ( = _ : $                                                                   ",
"                                    < [ { { } | 1 2 2 1 3 4 5 ! 6                                                               ",
"                                      | ~ 7 8 9 0 1 a b ^ c * d e f                                                             ",
"                                          g h i j k 2 l m m n o p q r s s         t u v                                         ",
"                                            e 8 w o x y z A y B C D E F s s G H + I J K                                         ",
"                                            ! L M N a O P Q R S T U V E W X Y Z ` h I                                           ",
"                                             ...p +.@.] #.$.%.&.*.=.-.;._ >.,.'.| @                                             ",
"                                            f ! )...!.~.{.].^./.(._.:.<.[.}.|.]                                                 ",
"                                              1.2.3.4.5.6.7.8.9.0.a.b.c.d.e.f.                                                  ",
"                                              g.3.h.h.i.j.k.l.( m.n.o.p.( q.r.s.                                                ",
"                                              t.u.v.v.w.x.a y.z.A.B.C.C D.E.F.G.                                                ",
"                                              s H.7.I.J.K.L.M.N.O.P.Q.R.R.S.T.F.G.                                              ",
"                                            G U.V.W.^ X.Y.C.Z.`. +.+++@+#+$+%+&+*+                                              ",
"                                          u =+I ~ j ^ -+;+8.>+,+'+)+!+~+{+]+^+/+(+                                              ",
"                                        _+:+q <+[+}+@ |+1+2+3+4+5+6+7+8+9+0+a+b+c+                                              ",
"                                      d+:+e+f I f+g+h+i+j+k+l+m+n+o+p+q+r+s+t+u+v+                                              ",
"                                      w+u x+F y+z+A+B+C+D+E+F+5+G+H+I+J+K+L+M+N+O+                                              ",
"                                            e+l.P+Q+R+S+T+U+V+W+X+Y+Z+`+#+ @S..@+@                                              ",
"                                            @@#@$@%@&@*@=@-@;@>@,@'@)@!@~@{@]@^@/@                                              ",
"                                              (@' _@:@<@[@}@|@1@2@3@4@5@6@7@8@9@0@                                              ",
"                                              a@b@! ~ ;+c@d@e@f@g@h@i@j@k@l@m@n@o@                                              ",
"                                              p@x.q@r@p s@t@u@v@w@x@y@z@A@B@C@D@E@                                              ",
"                                            F@G@H@I@J@K@L@M@N@O@P@Q@R@S@T@U@V@W@P.                                              ",
"                                            X@Y@Z@`@ #K@.#+#@###$#%#&#*#=#-#;#>#V.                                              ",
"                                          ,#'#)#!#~#{#]#^#/#(#_#:#<#[#}#|#;#).1#V.#@                                            ",
"                                          2#3#4#5#6#7#8#9#0#{ a#b#v@c#d#e#f#Y 1#q@b@                                            ",
"                                        2.~.g#h#i#j#k#l#m#9#n#o#C@p#q#r#s#t#u#v#w#x#                                            ",
"                                      F F y#y#z#7.A#h#B#C#D#u#E#F#G#H#I#@ J#K#L#].M#                                            ",
"                                    |+N#O#P#P#E E E Q#Q#Q#Q#R#S#T#U#V#W#z+X#Y#Z#                                                ",
"                                    E ^.`# $. .$+$@$#$@$8.$$%$&$*$=$-$;$>$,$'$)$                                                ",
"                                   $+$_++$+$+$d+!$~$~${$]$^$D $$/$($_$*$=$-$:$<$                                                ",
"                                .$~$[$}$|$v 1$1$1$v v [$2$3$4$D 5$/$6$&$7$8$9$0$                                                ",
"                                a$|$a@b$b@J 6 a@q =+|$|$[$3$]$^$c$5$d$e$f$g$h$i$                                                ",
"                                j$k$6 I.l$~ ~ e V.b$q =+[$f+f+3$~$w+@$ $q.m$n$o$                                                ",
"                                  p$q$I.h M r$j s$t$e  .6 x#u$!.v !$.$v$q.O#w$|+                                                ",
"                                      x#I.Z r$x$y$y$x$z$d ..f e+{$@$A$v$B$`#t `#                                                ",
"                                        C$I.p D$E$F$G$H$I$J$a j [+K$L$=+1$U.+$x+                                                ",
"                                            M$N$O$P$Q$R$S$T$U$V$W$X$Y$j ~ K$Z$                                                  ",
"                                              `$ %.%+%@%#%m.c.$%W$%%&%c }+*%=%                                                  ",
"                                              -%;%>%,%'%M$)%O$!%D$~%{%).I.a@:+                                                  ",
"                                            ]%^%/%(%_%:%<%[%.%}%M$|%1%X 2%3%                                                    ",
"                                            ]%]%]%                                                                              ",
"                                            ]%]%                                                                                ",
"                                            ]%                                                                                  ",
"                                                                                                                                ",
"                                                                                                                                ",
"                                                                                                                                ",
"                                                                                                                                ",
"                                                                                                                                ",
"                                                                                                                                ",
"                                                                                                                                ",
"                                                                                                                                "};
