/* XPM */
static char * player_dash_3_xpm[] = {
"64 64 567 2",
"  	c None",
". 	c #1D232F",
"+ 	c #27303F",
"@ 	c #2C3545",
"# 	c #2A3343",
"$ 	c #272F3F",
"% 	c #2C3546",
"& 	c #354054",
"* 	c #343F53",
"= 	c #364156",
"- 	c #364155",
"; 	c #343E52",
"> 	c #313B4D",
", 	c #2D3648",
"' 	c #293141",
") 	c #2C3547",
"! 	c #283141",
"~ 	c #2F394B",
"{ 	c #354055",
"] 	c #39455B",
"^ 	c #3B475E",
"/ 	c #3B475D",
"( 	c #323C4F",
"_ 	c #2A3445",
": 	c #323D51",
"< 	c #354156",
"[ 	c #333E51",
"} 	c #323D50",
"| 	c #364257",
"1 	c #3A465C",
"2 	c #3C485F",
"3 	c #374258",
"4 	c #333E52",
"5 	c #2E384A",
"6 	c #293243",
"7 	c #252D3C",
"8 	c #38445A",
"9 	c #2B3546",
"0 	c #273040",
"a 	c #2F394C",
"b 	c #3C4960",
"c 	c #3D4A61",
"d 	c #3B485E",
"e 	c #303B4E",
"f 	c #2A3345",
"g 	c #252E3D",
"h 	c #2D3649",
"i 	c #344054",
"j 	c #3F4C64",
"k 	c #425069",
"l 	c #43516A",
"m 	c #3E4B63",
"n 	c #2F3A4D",
"o 	c #202836",
"p 	c #181E29",
"q 	c #171D28",
"r 	c #171D27",
"s 	c #1C232E",
"t 	c #202733",
"u 	c #222937",
"v 	c #2A3344",
"w 	c #2D384A",
"x 	c #374358",
"y 	c #42516A",
"z 	c #475670",
"A 	c #495873",
"B 	c #46556F",
"C 	c #272C38",
"D 	c #212630",
"E 	c #1A1F29",
"F 	c #191E29",
"G 	c #171C28",
"H 	c #161C27",
"I 	c #1B212D",
"J 	c #212836",
"K 	c #283041",
"L 	c #2B3547",
"M 	c #303B4F",
"N 	c #364258",
"O 	c #3C4860",
"P 	c #424F68",
"Q 	c #485772",
"R 	c #414D65",
"S 	c #353A47",
"T 	c #353842",
"U 	c #292D36",
"V 	c #262A33",
"W 	c #222A39",
"X 	c #313B4F",
"Y 	c #252D3B",
"Z 	c #262F3F",
"` 	c #2E384B",
" .	c #333E53",
"..	c #3A475E",
"+.	c #2E3646",
"@.	c #252933",
"#.	c #21252E",
"$.	c #21262F",
"%.	c #282C35",
"&.	c #232730",
"*.	c #252B38",
"=.	c #323C50",
"-.	c #3B485F",
";.	c #3E4B64",
">.	c #283142",
",.	c #2B3548",
"'.	c #2C3648",
").	c #242D3D",
"!.	c #191F2A",
"~.	c #191F2B",
"{.	c #19202C",
"].	c #1B212C",
"^.	c #242831",
"/.	c #333741",
"(.	c #373D4D",
"_.	c #414E67",
":.	c #495975",
"<.	c #4C5C79",
"[.	c #4A5974",
"}.	c #384459",
"|.	c #1E2533",
"1.	c #191F2C",
"2.	c #151B27",
"3.	c #161D29",
"4.	c #171E2A",
"5.	c #181F2C",
"6.	c #2A2E38",
"7.	c #353943",
"8.	c #3D485D",
"9.	c #4E5E7B",
"0.	c #556787",
"a.	c #576989",
"b.	c #4B5A76",
"c.	c #161C28",
"d.	c #242B38",
"e.	c #4F607E",
"f.	c #5A6D8F",
"g.	c #5E7295",
"h.	c #5A6C8D",
"i.	c #171B23",
"j.	c #0C0C0C",
"k.	c #0B0B0B",
"l.	c #161D28",
"m.	c #141A25",
"n.	c #252D3D",
"o.	c #3D4A62",
"p.	c #4F5F7E",
"q.	c #586A8A",
"r.	c #5C6F91",
"s.	c #5D7092",
"t.	c #232B38",
"u.	c #111112",
"v.	c #111111",
"w.	c #0F0F0F",
"x.	c #0D0D0D",
"y.	c #151B26",
"z.	c #262F40",
"A.	c #39465D",
"B.	c #465571",
"C.	c #4D5D7A",
"D.	c #526280",
"E.	c #536481",
"F.	c #141517",
"G.	c #141414",
"H.	c #121212",
"I.	c #1A202C",
"J.	c #1D2431",
"K.	c #313C50",
"L.	c #47556F",
"M.	c #46546D",
"N.	c #3D495F",
"O.	c #272F3E",
"P.	c #151619",
"Q.	c #171716",
"R.	c #181817",
"S.	c #161616",
"T.	c #151515",
"U.	c #1A1A15",
"V.	c #242415",
"W.	c #212112",
"X.	c #14140E",
"Y.	c #1E2431",
"Z.	c #252E3E",
"`.	c #3E4A61",
" +	c #202632",
".+	c #131415",
"++	c #292919",
"@+	c #42421B",
"#+	c #3A3A19",
"$+	c #252518",
"%+	c #202019",
"&+	c #42421C",
"*+	c #65651B",
"=+	c #5D5D15",
"-+	c #393912",
";+	c #1C1C10",
">+	c #1E2531",
",+	c #202734",
"'+	c #232B39",
")+	c #1A202A",
"!+	c #0E0F0F",
"~+	c #1F1F14",
"{+	c #53531A",
"]+	c #858519",
"^+	c #848415",
"/+	c #5A5A17",
"(+	c #363619",
"_+	c #46461B",
":+	c #777718",
"<+	c #8C8C16",
"[+	c #717114",
"}+	c #404013",
"|+	c #1E2532",
"1+	c #222A37",
"2+	c #222A38",
"3+	c #13171F",
"4+	c #090A0B",
"5+	c #171710",
"6+	c #3D3D13",
"7+	c #787813",
"8+	c #A0A012",
"9+	c #939315",
"0+	c #5F5F19",
"a+	c #38381A",
"b+	c #4A4A19",
"c+	c #757517",
"d+	c #828217",
"e+	c #5E5E18",
"f+	c #2B2B14",
"g+	c #11110F",
"h+	c #1F2633",
"i+	c #1A202B",
"j+	c #161A22",
"k+	c #14181F",
"l+	c #14171C",
"m+	c #131519",
"n+	c #131417",
"o+	c #1C1D15",
"p+	c #3C3C15",
"q+	c #6C6C14",
"r+	c #878717",
"s+	c #6C6C1D",
"t+	c #35351B",
"u+	c #232318",
"v+	c #383818",
"w+	c #4C4C1A",
"x+	c #3D3D1A",
"y+	c #1C1C15",
"z+	c #101010",
"A+	c #232A37",
"B+	c #242B37",
"C+	c #242934",
"D+	c #23272F",
"E+	c #26292B",
"F+	c #36382A",
"G+	c #47472D",
"H+	c #3F3F2E",
"I+	c #2C2B29",
"J+	c #202020",
"K+	c #1B1B19",
"L+	c #1B1B17",
"M+	c #171715",
"N+	c #131313",
"O+	c #141415",
"P+	c #28282B",
"Q+	c #363941",
"R+	c #242C3A",
"S+	c #262E3D",
"T+	c #2B3444",
"U+	c #2E3746",
"V+	c #333B4A",
"W+	c #3C434F",
"X+	c #4A4E58",
"Y+	c #57585F",
"Z+	c #55555A",
"`+	c #424245",
" @	c #2B2C2E",
".@	c #1C1C1D",
"+@	c #1C1C1E",
"@@	c #3F3F43",
"#@	c #5A5A60",
"$@	c #515560",
"%@	c #38404E",
"&@	c #2A3444",
"*@	c #353E51",
"=@	c #40485A",
"-@	c #505665",
";@	c #5D606C",
">@	c #5E6068",
",@	c #4E4F55",
"'@	c #333539",
")@	c #1E1F22",
"!@	c #212225",
"~@	c #424247",
"{@	c #5E5F66",
"]@	c #595C67",
"^@	c #414856",
"/@	c #303847",
"(@	c #232B3A",
"_@	c #2C3649",
":@	c #313B4E",
"<@	c #394355",
"[@	c #474F5F",
"}@	c #575C6A",
"|@	c #5E616C",
"1@	c #51545D",
"2@	c #373A41",
"3@	c #25272D",
"4@	c #2E3035",
"5@	c #4B4D54",
"6@	c #5B5E69",
"7@	c #4F5564",
"8@	c #394252",
"9@	c #2B3443",
"0@	c #212A39",
"a@	c #273142",
"b@	c #2A3447",
"c@	c #2E394B",
"d@	c #3E485A",
"e@	c #4E5666",
"f@	c #59606E",
"g@	c #565B69",
"h@	c #434752",
"i@	c #31353E",
"j@	c #393D46",
"k@	c #535865",
"l@	c #5B6273",
"m@	c #495161",
"n@	c #323B4B",
"o@	c #29313F",
"p@	c #1E2735",
"q@	c #202939",
"r@	c #222C3C",
"s@	c #242F40",
"t@	c #273244",
"u@	c #2A3649",
"v@	c #2E3B4E",
"w@	c #374356",
"x@	c #475163",
"y@	c #576071",
"z@	c #4E5463",
"A@	c #414755",
"B@	c #636877",
"C@	c #5A5F6E",
"D@	c #3D4554",
"E@	c #2D3646",
"F@	c #293140",
"G@	c #1E2736",
"H@	c #20293A",
"I@	c #222C3D",
"J@	c #242F41",
"K@	c #273245",
"L@	c #2D394E",
"M@	c #323F53",
"N@	c #3F4A5F",
"O@	c #515B6E",
"P@	c #5B6376",
"Q@	c #585F70",
"R@	c #595E6C",
"S@	c #666973",
"T@	c #61636E",
"U@	c #454B59",
"V@	c #313A4B",
"W@	c #283140",
"X@	c #1C2433",
"Y@	c #1F2737",
"Z@	c #212A3B",
"`@	c #232D3F",
" #	c #253042",
".#	c #273346",
"+#	c #293549",
"@#	c #2B374C",
"##	c #2E3B50",
"$#	c #495367",
"%#	c #565F71",
"&#	c #5C6272",
"*#	c #5F636F",
"=#	c #595C66",
"-#	c #454A58",
";#	c #313A4C",
">#	c #1B2331",
",#	c #1D2534",
"'#	c #1F2839",
")#	c #212B3D",
"!#	c #232E41",
"~#	c #263145",
"{#	c #273449",
"]#	c #29364B",
"^#	c #2C394E",
"/#	c #3D485C",
"(#	c #4D5668",
"_#	c #5A606F",
":#	c #565B68",
"<#	c #414857",
"[#	c #2E3849",
"}#	c #283346",
"|#	c #293446",
"1#	c #293344",
"2#	c #273141",
"3#	c #1A212E",
"4#	c #1B2432",
"5#	c #1D2737",
"6#	c #1F2A3C",
"7#	c #222D40",
"8#	c #253044",
"9#	c #273347",
"0#	c #28354A",
"a#	c #394357",
"b#	c #4A5264",
"c#	c #555A6A",
"d#	c #3D4454",
"e#	c #2D3748",
"f#	c #263043",
"g#	c #252E3F",
"h#	c #181E27",
"i#	c #191E28",
"j#	c #191F29",
"k#	c #19202D",
"l#	c #1A2230",
"m#	c #1D2636",
"n#	c #1F293A",
"o#	c #252F42",
"p#	c #2F384A",
"q#	c #404757",
"r#	c #4E5260",
"s#	c #4A4E5C",
"t#	c #363D4C",
"u#	c #1F2838",
"v#	c #1A1F2B",
"w#	c #151922",
"x#	c #1B202A",
"y#	c #1B202B",
"z#	c #1A212C",
"A#	c #1A212D",
"B#	c #1D232E",
"C#	c #232933",
"D#	c #2E313A",
"E#	c #2F333B",
"F#	c #242830",
"G#	c #181C24",
"H#	c #151920",
"I#	c #161920",
"J#	c #16181D",
"K#	c #1C222D",
"L#	c #1C222E",
"M#	c #1E2430",
"N#	c #1F2531",
"O#	c #1F2530",
"P#	c #1F252F",
"Q#	c #1E242D",
"R#	c #1E232B",
"S#	c #1E2229",
"T#	c #1D2027",
"U#	c #1B1F24",
"V#	c #1B1D22",
"W#	c #1B1D21",
"X#	c #1A1D20",
"Y#	c #1A1C1F",
"Z#	c #191B1E",
"`#	c #17191C",
" $	c #1F2532",
".$	c #212734",
"+$	c #212733",
"@$	c #202631",
"#$	c #20252F",
"$$	c #1F242D",
"%$	c #1D2127",
"&$	c #1C2026",
"*$	c #1C1F24",
"=$	c #1B1E23",
"-$	c #1A1C21",
";$	c #181A20",
">$	c #222936",
",$	c #222835",
"'$	c #212834",
")$	c #202732",
"!$	c #202530",
"~$	c #1F242E",
"{$	c #1E232C",
"]$	c #1D222A",
"^$	c #1D2129",
"/$	c #1C2028",
"($	c #1B1F26",
"_$	c #191E25",
":$	c #181C23",
"<$	c #1E2632",
"[$	c #212937",
"}$	c #242C3B",
"|$	c #222836",
"1$	c #1E232D",
"2$	c #1D232C",
"3$	c #1C212A",
"4$	c #1B2028",
"5$	c #191F26",
"6$	c #181D25",
"7$	c #242D3C",
"8$	c #2D3749",
"9$	c #212835",
"0$	c #1C212B",
"a$	c #1B2029",
"b$	c #1A1F28",
"c$	c #191D26",
"d$	c #1E2634",
"e$	c #222A3A",
"f$	c #273041",
"g$	c #313C4F",
"h$	c #343F54",
"i$	c #333D52",
"j$	c #2B3446",
"k$	c #232B3B",
"l$	c #1E242F",
"m$	c #1D222D",
"n$	c #2D384B",
"o$	c #344055",
"p$	c #39455C",
"q$	c #3B4860",
"r$	c #354157",
"s$	c #1C212C",
"t$	c #2E384C",
"u$	c #344056",
"v$	c #42506B",
"w$	c #475673",
"x$	c #485875",
"y$	c #475672",
"z$	c #43516B",
"A$	c #1D2430",
"B$	c #313D52",
"C$	c #39465E",
"D$	c #43516D",
"E$	c #4C5C7B",
"F$	c #536585",
"G$	c #586A8C",
"H$	c #596C8D",
"I$	c #566889",
"J$	c #50617F",
"K$	c #475772",
"L$	c #2C3647",
"M$	c #262E3C",
"N$	c #1C2330",
"O$	c #232C3B",
"P$	c #38455C",
"Q$	c #43526C",
"R$	c #536584",
"S$	c #566888",
"T$	c #516382",
"U$	c #485874",
"V$	c #3F4C65",
"W$	c #374257",
"X$	c #303B4D",
"Y$	c #2B3445",
"Z$	c #06080C",
"`$	c #0A0D12",
" %	c #10141B",
".%	c #171C27",
"+%	c #2F3A4F",
"@%	c #36435A",
"#%	c #364359",
"$%	c #303C50",
"%%	c #1F2634",
"&%	c #000000",
"*%	c #010101",
"=%	c #020203",
"-%	c #040507",
";%	c #090C11",
">%	c #131821",
",%	c #252F3F",
"'%	c #202837",
"                                                                                                                                ",
"                                                                                                                                ",
"                                                                                                                                ",
"                                                                                                                                ",
"                                                                                                                                ",
"                                                                                                                                ",
"                                                                                                                                ",
"                                                                                                                                ",
"                                                                                                                                ",
"                                                                                                                                ",
"                                        . + @ @ # $                                                                             ",
"                                      % & * * = - ; > , '                                                                       ",
"                                    % ) ! ~ { ] ^ / ] = ( , !                                                                   ",
"                                    _ : < [ } | 1 2 2 1 3 4 5 6 7                                                               ",
"                                      8 9 0 a * 3 1 b c d 8 < e f g                                                             ",
"                                            h e i 8 2 j k l m 8 n o p q r         s t u                                         ",
"                                            v w : x c y z A B * C D E F G H I J 7 0 0 u                                         ",
"                                            K L M N O P Q R S T U V D F p W L a X ~ Y                                           ",
"                                            Z f `  ...b +.@.#.$.%.&.$.*.=.-.;.j 3 Y                                             ",
"                                              >.,.'.).!.~.{.I ].^./.(._.:.<.[.}.                                                ",
"                                              |.1.2.3.4.5.5.I 6.7.8.9.0.a.b.,                                                   ",
"                                              q H 2.2.c.4.~.d./ e.f.g.h.c i.j.k.                                                ",
"                                              l.2.m.m.m.n.o.p.q.r.s.b.t.u.v.w.x.                                                ",
"                                              q y.p z.A.B.C.D.E.[.@ F.G.G.H.v.w.x.                                              ",
"                                            I.J.g K.-.k L.M.N.O.P.Q.R.S.T.U.V.W.X.                                              ",
"                                          Y.J Z.h { 2 `.*  +.+++@+#+$+%+&+*+=+-+;+                                              ",
"                                        >+,+'+! a * '.)+!+~+{+]+^+/+(+_+:+<+[+}+;+                                              ",
"                                      |+,+1+n.0 2+3+4+x.5+6+7+8+9+0+a+b+c+d+e+f+g+                                              ",
"                                      h+h+>+i+j+k+l+m+n+o+p+q+r+s+t+u+v+w+x+y+z+x.                                              ",
"                                            J A+d.B+C+D+E+F+G+H+I+J+K+L+M+N+O+P+Q+                                              ",
"                                            R+S+' T+U+V+W+X+Y+Z+`+ @.@T.+@@@#@$@%@                                              ",
"                                              7 0 &@5 *@=@-@;@>@,@'@)@!@~@{@]@^@/@                                              ",
"                                              (@Z.6 _@:@<@[@}@|@1@2@3@4@5@6@7@8@9@                                              ",
"                                              0@).a@b@c@[ d@e@f@g@h@i@j@k@l@m@n@o@                                              ",
"                                            p@q@r@s@t@u@v@w@x@y@l@z@A@z@B@C@D@E@F@                                              ",
"                                            G@H@I@J@K@u@L@M@N@O@P@Q@R@S@T@U@V@_ W@                                              ",
"                                          X@Y@Z@`@ #.#+#@###}.$#%#&#*#=#-#;#L v W@S+                                            ",
"                                          >#,#'#)#!#~#{#]#^#M@/#(#_#:#<#[#}#|#1#2#Z.                                            ",
"                                        p ~.3#4#5#6#7#8#9#0#L@a#b#c#z@d#e#t@t@f#g#W                                             ",
"                                      h#i#j#j#~.k#l#X@m#n#)#o#p#q#r#s#t#Z.'#u#,#v#w#                                            ",
"                                    i#E x#y#y#y#y#i+I.].z#A#B#C#D#E#F#G#H#I#J#P.n+                                              ",
"                                    )+K#K#L#B#. M#>+N#O#P#Q#R#S#T#U#V#W#X#Y#Z#`#                                                ",
"                                  L#>+ $>+Y.>+ $h+,+,+.$+$@$#$$$R#S#%$&$*$=$-$;$                                                ",
"                                B#,+u 1+u J o o J J J >$,$'$)$!$~${$]$^$/$($_$:$                                                ",
"                                <$[$R+S+$ Z g }$W 2+1+u |$'$+$@$P#~$1$2$3$4$5$6$                                                ",
"                                J.o 7$! 9 8$8$9 >.S+(@2+>$9$9$.$.$t N#B#0$a$b$c$                                                ",
"                                  d$e$f$_@g$h${ i$a j$f$n.k$W 2+J  +l$m$0$x#a$E                                                 ",
"                                      W f$n$o$p$q$O A.r$M L $ '+9$N#l$m$s$K#s I                                                 ",
"                                        [$a@t$u$q$v$w$x$y$z$c | > T+S+'+u ,+|+A$                                                ",
"                                            Z.b@B$C$D$E$F$G$H$I$J$K$o. .L$W@M$                                                  ",
"                                              A#N$O$n$P$Q$C.R$S$T$U$V$W$X$Y$S+                                                  ",
"                                              Z$`$ %.%d$a@+%r$@%#%u$$%_@>.O$%%                                                  ",
"                                            &%*%=%-%;%>%N$0@).,%z.Z.W '%%%z#                                                    ",
"                                            &%&%&%                >%                                                            ",
"                                            &%&%                                                                                ",
"                                          &%&%                                                                                  ",
"                                                                                                                                ",
"                                                                                                                                ",
"                                                                                                                                ",
"                                                                                                                                ",
"                                                                                                                                ",
"                                                                                                                                ",
"                                                                                                                                ",
"                                                                                                                                "};
