/* XPM */
static char * player_walk_13_xpm[] = {
"64 64 562 2",
"  	c None",
". 	c #222937",
"+ 	c #252D3C",
"@ 	c #1E2532",
"# 	c #344054",
"$ 	c #384359",
"% 	c #3A465C",
"& 	c #364257",
"* 	c #293243",
"= 	c #344055",
"- 	c #313C50",
"; 	c #0D1119",
"> 	c #39465C",
", 	c #3D4960",
"' 	c #3C495F",
") 	c #354055",
"! 	c #202735",
"~ 	c #3F4D65",
"{ 	c #556786",
"] 	c #2C3648",
"^ 	c #374359",
"/ 	c #3C485F",
"( 	c #404D64",
"_ 	c #3E4B62",
": 	c #2A3445",
"< 	c #3B485E",
"[ 	c #1D2430",
"} 	c #2D3749",
"| 	c #38445A",
"1 	c #414E66",
"2 	c #3F4B63",
"3 	c #39455B",
"4 	c #2F394B",
"5 	c #2C3647",
"6 	c #323D51",
"7 	c #3A465D",
"8 	c #3E4A62",
"9 	c #404D65",
"0 	c #374257",
"a 	c #2D3648",
"b 	c #2A3344",
"c 	c #303A4D",
"d 	c #3D4961",
"e 	c #425069",
"f 	c #283141",
"g 	c #293142",
"h 	c #2E384B",
"i 	c #3E4B63",
"j 	c #475671",
"k 	c #46556F",
"l 	c #3A475D",
"m 	c #2E384A",
"n 	c #242C3B",
"o 	c #1C232F",
"p 	c #2D374A",
"q 	c #343F54",
"r 	c #3B4860",
"s 	c #414E67",
"t 	c #4D5D7A",
"u 	c #4C5C78",
"v 	c #44526C",
"w 	c #1C222E",
"x 	c #1D2431",
"y 	c #273040",
"z 	c #323E53",
"A 	c #39465D",
"B 	c #414F68",
"C 	c #4C5B76",
"D 	c #4C5B77",
"E 	c #435068",
"F 	c #404A5D",
"G 	c #313745",
"H 	c #171D28",
"I 	c #181E29",
"J 	c #181D28",
"K 	c #1A202C",
"L 	c #212937",
"M 	c #252D3E",
"N 	c #293344",
"O 	c #283041",
"P 	c #22252C",
"Q 	c #353841",
"R 	c #393C46",
"S 	c #41434E",
"T 	c #2C2E37",
"U 	c #161B25",
"V 	c #161C27",
"W 	c #141A26",
"X 	c #151B27",
"Y 	c #181F2B",
"Z 	c #191F2C",
"` 	c #1A212E",
" .	c #1A212D",
"..	c #1F2229",
"+.	c #3A3C46",
"@.	c #151B26",
"#.	c #151C27",
"$.	c #141A24",
"%.	c #1B222E",
"&.	c #202835",
"*.	c #1F2633",
"=.	c #202734",
"-.	c #212735",
";.	c #191F2A",
">.	c #161D28",
",.	c #131823",
"'.	c #141A25",
").	c #171D29",
"!.	c #19202D",
"~.	c #191F2B",
"{.	c #262933",
"].	c #383B44",
"^.	c #464954",
"/.	c #2E394D",
"(.	c #344056",
"_.	c #2F3A4D",
":.	c #2D3748",
"<.	c #2B3546",
"[.	c #2B3445",
"}.	c #121823",
"|.	c #161C28",
"1.	c #181E2A",
"2.	c #2C2F37",
"3.	c #3D414D",
"4.	c #40495A",
"5.	c #44516A",
"6.	c #4C5C79",
"7.	c #4A5A76",
"8.	c #495975",
"9.	c #42506A",
"0.	c #3D4A62",
"a.	c #1A202B",
"b.	c #212836",
"c.	c #252D3D",
"d.	c #283142",
"e.	c #2F3A4E",
"f.	c #37445A",
"g.	c #3E4C65",
"h.	c #495874",
"i.	c #526382",
"j.	c #546686",
"k.	c #596B8C",
"l.	c #5D7092",
"m.	c #5C6F91",
"n.	c #5B6F90",
"o.	c #586A8B",
"p.	c #536482",
"q.	c #273041",
"r.	c #1E2531",
"s.	c #2A3446",
"t.	c #333E53",
"u.	c #3C4961",
"v.	c #4B5A75",
"w.	c #50617D",
"x.	c #566887",
"y.	c #5A6C8D",
"z.	c #607497",
"A.	c #617598",
"B.	c #576989",
"C.	c #475570",
"D.	c #313C4F",
"E.	c #1C212B",
"F.	c #101012",
"G.	c #0D0D0D",
"H.	c #1F2632",
"I.	c #252D3B",
"J.	c #2A3243",
"K.	c #303B4E",
"L.	c #3B485F",
"M.	c #384358",
"N.	c #3C485E",
"O.	c #3B4659",
"P.	c #2C3545",
"Q.	c #1D212A",
"R.	c #151617",
"S.	c #171716",
"T.	c #6D6D22",
"U.	c #5F5F20",
"V.	c #131313",
"W.	c #0F0F0F",
"X.	c #070707",
"Y.	c #1E2430",
"Z.	c #1F2532",
"`.	c #222938",
" +	c #262E3E",
".+	c #1A202A",
"++	c #181C25",
"@+	c #0E0F11",
"#+	c #121211",
"$+	c #9A9A26",
"%+	c #D6D622",
"&+	c #4E4E22",
"*+	c #181818",
"=+	c #28281C",
"-+	c #E3E322",
";+	c #D9D924",
">+	c #1E1E16",
",+	c #101010",
"'+	c #090909",
")+	c #010101",
"!+	c #030303",
"~+	c #050505",
"{+	c #0B0B0B",
"]+	c #0E0E0E",
"^+	c #1C1C15",
"/+	c #DBDB23",
"(+	c #FFFF00",
"_+	c #9D9D29",
":+	c #2B2B1D",
"<+	c #E8E821",
"[+	c #E9E920",
"}+	c #282819",
"|+	c #151A23",
"1+	c #131820",
"2+	c #0D0F15",
"3+	c #08090B",
"4+	c #0A0A0B",
"5+	c #161613",
"6+	c #C4C427",
"7+	c #FDFD05",
"8+	c #898929",
"9+	c #1A1A18",
"0+	c #A2A227",
"a+	c #ACAC25",
"b+	c #181814",
"c+	c #0F1010",
"d+	c #1D1F25",
"e+	c #2A3242",
"f+	c #2F3747",
"g+	c #313845",
"h+	c #32353D",
"i+	c #2B2B2E",
"j+	c #222222",
"k+	c #484829",
"l+	c #83822D",
"m+	c #252519",
"n+	c #171717",
"o+	c #161616",
"p+	c #181816",
"q+	c #323232",
"r+	c #555254",
"s+	c #494B55",
"t+	c #3B4253",
"u+	c #222832",
"v+	c #293241",
"w+	c #2C3546",
"x+	c #2F394C",
"y+	c #353F51",
"z+	c #464E5E",
"A+	c #62646F",
"B+	c #918C8E",
"C+	c #8D898B",
"D+	c #4E505A",
"E+	c #161617",
"F+	c #151515",
"G+	c #24262B",
"H+	c #737278",
"I+	c #807D80",
"J+	c #394253",
"K+	c #2F3949",
"L+	c #27303F",
"M+	c #364154",
"N+	c #3C4659",
"O+	c #6A6B76",
"P+	c #9A9494",
"Q+	c #616470",
"R+	c #30343D",
"S+	c #141414",
"T+	c #3B3F4A",
"U+	c #858285",
"V+	c #6A6A71",
"W+	c #313C4E",
"X+	c #2A3342",
"Y+	c #1E2633",
"Z+	c #262F3D",
"`+	c #293242",
" @	c #2F394D",
".@	c #333E52",
"+@	c #384356",
"@@	c #424B5D",
"#@	c #928D90",
"$@	c #7C7B83",
"%@	c #373F4F",
"&@	c #4A4E5A",
"*@	c #8A8A93",
"=@	c #575B68",
"-@	c #262D3B",
";@	c #1D2532",
">@	c #222C3B",
",@	c #273141",
"'@	c #2B3547",
")@	c #2E394C",
"!@	c #354054",
"~@	c #354155",
"{@	c #797B86",
"]@	c #93949F",
"^@	c #4B5364",
"/@	c #1C212A",
"(@	c #11151B",
"_@	c #606473",
":@	c #888EA0",
"<@	c #434A5A",
"[@	c #262E3C",
"}@	c #1F2735",
"|@	c #212B3A",
"1@	c #232C3D",
"2@	c #263142",
"3@	c #2A3648",
"4@	c #2E3A4E",
"5@	c #303D51",
"6@	c #525868",
"7@	c #989CAC",
"8@	c #74798B",
"9@	c #333C4C",
"0@	c #202837",
"a@	c #80828D",
"b@	c #7C7F8E",
"c@	c #303A4C",
"d@	c #212939",
"e@	c #212A3B",
"f@	c #222D3E",
"g@	c #242F41",
"h@	c #273346",
"i@	c #2C384C",
"j@	c #2D3B4F",
"k@	c #2F3C51",
"l@	c #868B9D",
"m@	c #8E93A5",
"n@	c #54545C",
"o@	c #959195",
"p@	c #515461",
"q@	c #2E3A4C",
"r@	c #2C3748",
"s@	c #232935",
"t@	c #1C2431",
"u@	c #202A3A",
"v@	c #222C3C",
"w@	c #242F40",
"x@	c #263144",
"y@	c #293548",
"z@	c #2C384D",
"A@	c #2C3A4F",
"B@	c #2E3B50",
"C@	c #606677",
"D@	c #9599AC",
"E@	c #595D6C",
"F@	c #4B4C53",
"G@	c #888487",
"H@	c #2D394C",
"I@	c #2B3648",
"J@	c #2A3343",
"K@	c #1E2736",
"L@	c #202A3B",
"M@	c #212B3D",
"N@	c #242E40",
"O@	c #283447",
"P@	c #29364A",
"Q@	c #2B384D",
"R@	c #2C394E",
"S@	c #364155",
"T@	c #7F8293",
"U@	c #737582",
"V@	c #343D4E",
"W@	c #464852",
"X@	c #283347",
"Y@	c #2B374A",
"Z@	c #293345",
"`@	c #1E232E",
" #	c #1D2534",
".#	c #1F2839",
"+#	c #222D40",
"@#	c #253044",
"##	c #273348",
"$#	c #28354A",
"%#	c #2B374C",
"&#	c #737583",
"*#	c #83828E",
"=#	c #3C4658",
"-#	c #212A3A",
";#	c #253145",
">#	c #293449",
",#	c #293447",
"'#	c #273144",
")#	c #262F40",
"!#	c #1F2531",
"~#	c #19212F",
"{#	c #1D2637",
"]#	c #1F293D",
"^#	c #212D41",
"/#	c #242F44",
"(#	c #263248",
"_#	c #283449",
":#	c #28344A",
"<#	c #29354A",
"[#	c #595C6B",
"}#	c #86838C",
"|#	c #525766",
"1#	c #283242",
"2#	c #212C40",
"3#	c #242F43",
"4#	c #232D40",
"5#	c #202838",
"6#	c #161A23",
"7#	c #171C24",
"8#	c #151921",
"9#	c #161D2A",
"0#	c #182130",
"a#	c #1C2537",
"b#	c #1D283A",
"c#	c #1F2A3D",
"d#	c #202B3F",
"e#	c #232E42",
"f#	c #383F4F",
"g#	c #676770",
"h#	c #4F515C",
"i#	c #1F2734",
"j#	c #111722",
"k#	c #151920",
"l#	c #16181C",
"m#	c #1A1F29",
"n#	c #1A2029",
"o#	c #1B2028",
"p#	c #1B2027",
"q#	c #1A1F25",
"r#	c #191D22",
"s#	c #181C21",
"t#	c #181B20",
"u#	c #171B20",
"v#	c #171A20",
"w#	c #171A1F",
"x#	c #181B1F",
"y#	c #181A1F",
"z#	c #1A1C21",
"A#	c #1B1D22",
"B#	c #12151A",
"C#	c #191E28",
"D#	c #1B202A",
"E#	c #1D232B",
"F#	c #1E232C",
"G#	c #1E232A",
"H#	c #1D2229",
"I#	c #1D2228",
"J#	c #1D2128",
"K#	c #1D2127",
"L#	c #1C2026",
"M#	c #1B1F26",
"N#	c #1A1F26",
"O#	c #15191F",
"P#	c #1B202B",
"Q#	c #1C212C",
"R#	c #1D222D",
"S#	c #1E232F",
"T#	c #202632",
"U#	c #202733",
"V#	c #212733",
"W#	c #202631",
"X#	c #1F242E",
"Y#	c #1F242D",
"Z#	c #1E222A",
"`#	c #1D222A",
" $	c #1D2129",
".$	c #1C2129",
"+$	c #1A2027",
"@$	c #171B23",
"#$	c #1C222C",
"$$	c #1D232E",
"%$	c #212835",
"&$	c #222835",
"*$	c #212734",
"=$	c #1F242F",
"-$	c #1E232D",
";$	c #1A2028",
">$	c #191E26",
",$	c #1B212C",
"'$	c #1C222D",
")$	c #1C232E",
"!$	c #202633",
"~$	c #222936",
"{$	c #1F2530",
"]$	c #1D242F",
"^$	c #1D232F",
"/$	c #1E2431",
"($	c #212936",
"_$	c #212938",
":$	c #222A38",
"<$	c #1E242F",
"[$	c #232A37",
"}$	c #212837",
"|$	c #232B3A",
"1$	c #222A39",
"2$	c #1F2631",
"3$	c #1E242E",
"4$	c #181D27",
"5$	c #262D3C",
"6$	c #28303F",
"7$	c #2A3444",
"8$	c #232C3B",
"9$	c #242C3A",
"0$	c #171D27",
"a$	c #2E3849",
"b$	c #354156",
"c$	c #38455B",
"d$	c #252E3E",
"e$	c #232A39",
"f$	c #2D3647",
"g$	c #222A3A",
"h$	c #232C3C",
"i$	c #3F4C64",
"j$	c #43526B",
"k$	c #485874",
"l$	c #516383",
"m$	c #586B8F",
"n$	c #5A6E91",
"o$	c #5F7396",
"p$	c #63779B",
"q$	c #63779C",
"r$	c #64799E",
"s$	c #5D7194",
"t$	c #4E5E7C",
"u$	c #3E4C63",
"v$	c #2F3A4C",
"w$	c #283140",
"x$	c #121720",
"y$	c #1C2331",
"z$	c #263042",
"A$	c #283244",
"B$	c #38455C",
"C$	c #546687",
"D$	c #5B6E93",
"E$	c #61769C",
"F$	c #677CA3",
"G$	c #6F85AD",
"H$	c #7086AE",
"I$	c #6D83AB",
"J$	c #5D7093",
"K$	c #0C1019",
"L$	c #1E2635",
"M$	c #273143",
"N$	c #283245",
"O$	c #2D374B",
"P$	c #3B4961",
"Q$	c #404F69",
"R$	c #43516C",
"S$	c #3F4D67",
"T$	c #39455D",
"U$	c #2F3A4F",
"V$	c #2A3447",
"W$	c #252F40",
"X$	c #212A39",
"Y$	c #000000",
"Z$	c #06090F",
"`$	c #1F2737",
" %	c #222B3B",
".%	c #262F41",
"+%	c #273244",
"@%	c #283345",
"#%	c #283346",
"$%	c #293346",
"%%	c #1C2330",
"&%	c #111721",
"*%	c #10161F",
"=%	c #0E131C",
"                                                                                                                                ",
"                                                                                                                                ",
"                                                                                                                                ",
"                                                                                                                                ",
"                                                                                                                                ",
"                                                                                                                                ",
"                                                                                                                                ",
"                                                                                                                                ",
"                                              . + @                                                                             ",
"                                            # $ % % & *                                                                         ",
"                                          = - ; - > , ' ) !                                                                     ",
"                                          ~ { = ] ^ / ( _ % :                                                                   ",
"                                            < [ } ) | , 1 2 3 4                                                                 ",
"                                                5 6 & 7 8 9 % 0 a                                                               ",
"                                                b c ) 7 d e ~ | 6 f                                                             ",
"                                                g h # % i e j k l m n                                                           ",
"                                              o f p q r s j t u v & f w                                                         ",
"                                              x y } z A B C D E F G H H I J                                                     ",
"                                              K L M N p h O P Q R S T U V I J                                                   ",
"                                              I I W X Y Z ` `  ...+.R @.#.$.%.&.! *.*.=.-.                                      ",
"                                              ;.>.,.'.).Z !.!.~.{.].^.*./.(.z _.:.<.[.[.=.                                      ",
"                                            ;.~.X }.,.|.).1. .2.3.4.5.6.7.8.j 9.0.) f a.                                        ",
"                                          [ *.b.c.d.e.f.g.h.i.j.k.l.m.n.o.p.j & q.                                              ",
"                                      r.*.&.n s.t.u.e k v.w.x.y.z.A.B.C.D.E.F.G.                                                ",
"                                  H.&.&.. I.J.K.f.L.1 5.M._ N.O.P.Q.R.S.T.U.V.W.X.                                              ",
"                                    Y.Z.=.`.n  + +;..+++@+#+$+%+&+*+*+=+-+;+>+,+'+                                              ",
"                                            )+!+~+X.{+]+,+^+/+(+_+*+*+:+<+[+}+,+'+                                              ",
"                                            |+1+2+3+4+G.,+5+6+7+8+*+*+9+0+a+b+c+d+                                              ",
"                                            L e+P.f+g+h+i+j+k+l+m+n+n+o+p+q+r+s+t+u+                                            ",
"                                            w  +v+w+x+y+z+A+B+C+D+E+o+F+G+H+I+J+K+                                              ",
"                                              `.L+b } K.M+N+O+P+Q+R+S+V.T+U+V+W+X+                                              ",
"                                              Y+Z+`+]  @.@+@@@#@$@%@W.]+&@*@=@4 -@                                              ",
"                                              ;@>@,@'@)@- !@~@{@]@^@/@(@_@:@<@:.[@                                              ",
"                                              }@|@1@2@3@4@5@z 6@7@8@9@0@a@b@c@a e+                                              ",
"                                            K d@e@f@g@h@i@j@k@z l@m@4.n@o@p@q@r@`+s@                                            ",
"                                            t@u@v@w@x@y@z@A@B@B@C@D@E@F@G@h H@I@J@-@                                            ",
"                                            K@L@M@N@x@O@P@Q@R@j@S@T@U@V@W@X@Y@I@Z@f `@                                          ",
"                                          V  #.#M@+#@###$#%#Q@Q@k@&#*#=#-#;#>#,#'#)#!#                                          ",
"                                            #.~#{#]#^#/#(#_#:#<#Q@[#}#|#1#2#3#4#5#%.6#                                          ",
"                                            ++7#8#'.9#0#a#b#c#d#e#f#g#h#i#j#V k#l#                                              ",
"                                            m#n#o#p#p#q#r#s#t#u#v#w#x#y#z#A#A#A#A#B#                                            ",
"                                          C#.+.+D#D#/@E.E#F#F#G#H#H#I#J#K#L#L#M#N#O#                                            ",
"                                          m#D#P#Q#R#S#H.T#U#V#W#X#Y#F#Z#`# $.$p#+$@$                                            ",
"                                        C#P#P##$$$Y.Z.=.=.%$&$*$U#W#=$-$-$F#E.D#;$>$                                            ",
"                                        n#,$'$)$[ Z.!$%$%$~$~$%$*$T#{${$W#]$Q#D#D#Q#                                            ",
"                                        )$$$^$/$H.! ($_$`.:$~$%$*$U#%$($U#<$Q#/@'$Y.                                            ",
"                                      ^$[$~$*.H.! }$:$_$:$. ~$. :$|$1$%$2$3$Q#R#Y+r.4$                                          ",
"                                      =.5$6$J@7$f 8$L `.:$|$|$|$|$1$b.!${$S#^$i#b.9$^$                                          ",
"                                    0$&.1$f a$D.b$l r c$(.p d$e$L ! b.+ '@6 6 4 f$v+T#                                          ",
"                                       .g$h$)#_.3 i$B j$k$l$m$n$o$p$q$r$s$t$u$!@v$w$Y.                                          ",
"                                        x$y$1@z$A$e.B$9.6.C$D$E$F$G$H$I$J$6.u._. +L I                                           ",
"                                              K$L$M$N$'#N$O$(.P$Q$R$S$T$U$V$M$W$X$I                                             ",
"                                              Y$Y$Z$!.`$ %.%M$+%@%#%#%$%$%1@%%>.                                                ",
"                                                              &%!.!.}.*%=%                                                      ",
"                                                                    Y$Y$Y$                                                      ",
"                                                                      Y$Y$                                                      ",
"                                                                      Y$Y$                                                      ",
"                                                                        Y$                                                      ",
"                                                                                                                                ",
"                                                                                                                                ",
"                                                                                                                                ",
"                                                                                                                                ",
"                                                                                                                                ",
"                                                                                                                                "};
