/* XPM */
static char * player_idle_15_xpm[] = {
"64 64 579 2",
"  	c None",
". 	c #171D28",
"+ 	c #2A3344",
"@ 	c #2C3546",
"# 	c #252D3C",
"$ 	c #1D2431",
"% 	c #3A475D",
"& 	c #313C4F",
"* 	c #38445A",
"= 	c #3A465C",
"- 	c #374257",
"; 	c #262F3E",
"> 	c #39465D",
", 	c #425069",
"' 	c #191F2B",
") 	c #2B3547",
"! 	c #39455B",
"~ 	c #3D4960",
"{ 	c #3B475E",
"] 	c #2D3749",
"^ 	c #354157",
"/ 	c #556787",
"( 	c #2B3546",
"_ 	c #374359",
": 	c #3C485F",
"< 	c #404D64",
"[ 	c #303A4D",
"} 	c #232A39",
"| 	c #11161E",
"1 	c #2F394C",
"2 	c #354156",
"3 	c #3E4A61",
"4 	c #404E65",
"5 	c #1B222D",
"6 	c #2E384B",
"7 	c #333E53",
"8 	c #404E66",
"9 	c #3F4C63",
"0 	c #39445A",
"a 	c #2C3547",
"b 	c #202735",
"c 	c #2D3648",
"d 	c #323D51",
"e 	c #374258",
"f 	c #3E4B62",
"g 	c #404D65",
"h 	c #354055",
"i 	c #232B3A",
"j 	c #222937",
"k 	c #2B3446",
"l 	c #313C50",
"m 	c #3B485E",
"n 	c #3E4B63",
"o 	c #43516A",
"p 	c #3C4960",
"q 	c #364156",
"r 	c #1B212D",
"s 	c #414E67",
"t 	c #46546E",
"u 	c #485772",
"v 	c #3F4C64",
"w 	c #272F40",
"x 	c #252D3D",
"y 	c #38445B",
"z 	c #45536D",
"A 	c #4C5C77",
"B 	c #4D5D7A",
"C 	c #45546E",
"D 	c #364258",
"E 	c #2A3345",
"F 	c #232C3B",
"G 	c #2A3446",
"H 	c #313C51",
"I 	c #39455C",
"J 	c #414F67",
"K 	c #4A5974",
"L 	c #4F5E7A",
"M 	c #45536C",
"N 	c #252E3F",
"O 	c #1C232F",
"P 	c #181D28",
"Q 	c #181E29",
"R 	c #181D29",
"S 	c #1A212E",
"T 	c #202836",
"U 	c #242D3C",
"V 	c #21252D",
"W 	c #373942",
"X 	c #444853",
"Y 	c #484B56",
"Z 	c #191E27",
"` 	c #161C28",
" .	c #181E28",
"..	c #181F2A",
"+.	c #131924",
"@.	c #151B27",
"#.	c #181F2B",
"$.	c #191F2C",
"%.	c #19202D",
"&.	c #181E2A",
"*.	c #1C1F27",
"=.	c #393B45",
"-.	c #3A3C46",
";.	c #161B25",
">.	c #161C27",
",.	c #191F2A",
"'.	c #151B26",
").	c #121822",
"!.	c #141925",
"~.	c #171D2A",
"{.	c #19202C",
"].	c #1A1E27",
"^.	c #2A2C35",
"/.	c #141A24",
"(.	c #1D232F",
"_.	c #1E2431",
":.	c #1D2430",
"<.	c #171C27",
"[.	c #121720",
"}.	c #171D29",
"|.	c #33363F",
"1.	c #41444E",
"2.	c #474A55",
"3.	c #383B45",
"4.	c #293244",
"5.	c #2F3A4E",
"6.	c #2C374A",
"7.	c #293243",
"8.	c #262E3E",
"9.	c #232B39",
"0.	c #222936",
"a.	c #212835",
"b.	c #1E2531",
"c.	c #1E2532",
"d.	c #1F2633",
"e.	c #202734",
"f.	c #2D3649",
"g.	c #333F54",
"h.	c #3C4961",
"i.	c #3E4B64",
"j.	c #414F69",
"k.	c #465671",
"l.	c #475772",
"m.	c #424F67",
"n.	c #46546D",
"o.	c #495873",
"p.	c #4D5E7C",
"q.	c #495874",
"r.	c #3F4D65",
"s.	c #2A3343",
"t.	c #212936",
"u.	c #3A475E",
"v.	c #495772",
"w.	c #4E5E7A",
"x.	c #556685",
"y.	c #5A6D8E",
"z.	c #5D7092",
"A.	c #5F7395",
"B.	c #607397",
"C.	c #5E7194",
"D.	c #5A6D8F",
"E.	c #526281",
"F.	c #4C5B78",
"G.	c #384459",
"H.	c #222938",
"I.	c #222A38",
"J.	c #283141",
"K.	c #2F3A4D",
"L.	c #3E4A60",
"M.	c #495771",
"N.	c #546584",
"O.	c #576989",
"P.	c #536483",
"Q.	c #495974",
"R.	c #364154",
"S.	c #293140",
"T.	c #1C222C",
"U.	c #10141A",
"V.	c #040608",
"W.	c #090C11",
"X.	c #0A0D11",
"Y.	c #0B0E12",
"Z.	c #13161D",
"`.	c #111319",
" +	c #111317",
".+	c #2C2D22",
"++	c #A5A527",
"@+	c #707026",
"#+	c #151617",
"$+	c #151515",
"%+	c #161616",
"&+	c #595922",
"*+	c #C4C424",
"=+	c #42421E",
"-+	c #111111",
";+	c #0D0D0D",
">+	c #020202",
",+	c #040404",
"'+	c #060606",
")+	c #090909",
"!+	c #0C0C0C",
"~+	c #0F0F0F",
"{+	c #121212",
"]+	c #848428",
"^+	c #FEFE04",
"/+	c #DBDB24",
"(+	c #21211A",
"_+	c #181818",
":+	c #A5A529",
"<+	c #FFFF01",
"[+	c #8B8B29",
"}+	c #0E0E0E",
"|+	c #888828",
"1+	c #FFFF02",
"2+	c #DDDD24",
"3+	c #22221A",
"4+	c #999929",
"5+	c #FEFE05",
"6+	c #7E7E27",
"7+	c #202632",
"8+	c #1D222B",
"9+	c #13151A",
"0+	c #0B0B0C",
"a+	c #32321B",
"b+	c #B6B625",
"c+	c #7E7E26",
"d+	c #181817",
"e+	c #171717",
"f+	c #37371D",
"g+	c #8F8F25",
"h+	c #272718",
"i+	c #222326",
"j+	c #323742",
"k+	c #222731",
"l+	c #1F2734",
"m+	c #283140",
"n+	c #2B3444",
"o+	c #2F384A",
"p+	c #374051",
"q+	c #3D4250",
"r+	c #454750",
"s+	c #59575A",
"t+	c #696564",
"u+	c #605D5E",
"v+	c #2C2C2E",
"w+	c #141414",
"x+	c #535257",
"y+	c #767275",
"z+	c #4D515E",
"A+	c #343D4F",
"B+	c #2B3545",
"C+	c #2E384A",
"D+	c #323D50",
"E+	c #384357",
"F+	c #444D5F",
"G+	c #868388",
"H+	c #928D8F",
"I+	c #545966",
"J+	c #1F2124",
"K+	c #32343C",
"L+	c #7B797E",
"M+	c #79777B",
"N+	c #343E50",
"O+	c #2E3746",
"P+	c #202835",
"Q+	c #27303E",
"R+	c #293343",
"S+	c #2C3649",
"T+	c #303A4E",
"U+	c #354053",
"V+	c #3A4558",
"W+	c #5B5F6D",
"X+	c #9A9494",
"Y+	c #6C6D76",
"Z+	c #333944",
"`+	c #3E434F",
" @	c #888589",
".@	c #62636D",
"+@	c #313B4D",
"@@	c #28313F",
"#@	c #252E3C",
"$@	c #293242",
"%@	c #2C3648",
"&@	c #2F394D",
"*@	c #374255",
"=@	c #3B4559",
"-@	c #8B888E",
";@	c #818189",
">@	c #3A4354",
",@	c #0E0F11",
"'@	c #0D0E10",
")@	c #515561",
"!@	c #8A8C99",
"~@	c #535866",
"{@	c #252C3A",
"]@	c #1D2532",
"^@	c #222B3B",
"/@	c #263040",
"(@	c #2E394C",
"_@	c #303C50",
":@	c #344053",
"<@	c #344054",
"[@	c #707380",
"}@	c #999AA7",
"|@	c #575E6F",
"1@	c #242B37",
"2@	c #141922",
"3@	c #686C7B",
"4@	c #878C9E",
"5@	c #3B4354",
"6@	c #2D3748",
"7@	c #28303E",
"8@	c #1F2736",
"9@	c #212A3A",
"0@	c #222C3D",
"a@	c #253041",
"b@	c #293447",
"c@	c #2D394D",
"d@	c #2F3C50",
"e@	c #313E52",
"f@	c #454D5F",
"g@	c #969AAB",
"h@	c #7D8294",
"i@	c #364050",
"j@	c #2B313F",
"k@	c #898993",
"l@	c #757885",
"m@	c #2F3A4C",
"n@	c #2A3242",
"o@	c #202630",
"p@	c #1B212E",
"q@	c #212A39",
"r@	c #212A3B",
"s@	c #232D3E",
"t@	c #253042",
"u@	c #283447",
"v@	c #2C384C",
"w@	c #2D3B4F",
"x@	c #2F3C51",
"y@	c #303D52",
"z@	c #7E8496",
"A@	c #9196A9",
"B@	c #454D5E",
"C@	c #5D5B61",
"D@	c #959092",
"E@	c #414756",
"F@	c #2D394C",
"G@	c #2C3748",
"H@	c #242A36",
"I@	c #1D2432",
"J@	c #202A3A",
"K@	c #242F40",
"L@	c #263144",
"M@	c #293448",
"N@	c #2B384C",
"O@	c #2C394F",
"P@	c #2D3A4F",
"Q@	c #2E3B50",
"R@	c #565C6D",
"S@	c #9296A9",
"T@	c #5F6371",
"U@	c #40434D",
"V@	c #7F7C80",
"W@	c #2B364A",
"X@	c #2B3648",
"Y@	c #262E3D",
"Z@	c #1E2737",
"`@	c #202A3B",
" #	c #212B3D",
".#	c #242E40",
"+#	c #28354A",
"@#	c #2B384D",
"##	c #2C394E",
"$#	c #323E52",
"%#	c #7C808F",
"&#	c #767885",
"*#	c #354051",
"=#	c #343946",
"-#	c #273347",
";#	c #2B374A",
">#	c #293345",
",#	c #283142",
"'#	c #1F2530",
")#	c #1D2534",
"!#	c #1E2838",
"~#	c #202B3D",
"{#	c #222D40",
"]#	c #243044",
"^#	c #263348",
"/#	c #2A374C",
"(#	c #2B374D",
"_#	c #6F717F",
":#	c #85848F",
"<#	c #3E4859",
"[#	c #222C3C",
"}#	c #243045",
"|#	c #293347",
"1#	c #273143",
"2#	c #1E2430",
"3#	c #141924",
"4#	c #171E2B",
"5#	c #1B2434",
"6#	c #1E283B",
"7#	c #202B40",
"8#	c #232E43",
"9#	c #253146",
"0#	c #273348",
"a#	c #273449",
"b#	c #28344A",
"c#	c #555968",
"d#	c #85828B",
"e#	c #565A68",
"f#	c #283243",
"g#	c #202A3F",
"h#	c #222E41",
"i#	c #222B3D",
"j#	c #1D2533",
"k#	c #191D26",
"l#	c #161A21",
"m#	c #141921",
"n#	c #161E2B",
"o#	c #192131",
"p#	c #1B2436",
"q#	c #1D2739",
"r#	c #202B3E",
"s#	c #323949",
"t#	c #5D5D66",
"u#	c #474954",
"v#	c #10141E",
"w#	c #151A23",
"x#	c #15181E",
"y#	c #181A1F",
"z#	c #16191E",
"A#	c #181D26",
"B#	c #1A2029",
"C#	c #1A2028",
"D#	c #1B2027",
"E#	c #1B2026",
"F#	c #1A1F24",
"G#	c #1A1E23",
"H#	c #191D22",
"I#	c #181C21",
"J#	c #1A1D22",
"K#	c #1B1F24",
"L#	c #1C2025",
"M#	c #1C2026",
"N#	c #1B2025",
"O#	c #1A1F26",
"P#	c #191E25",
"Q#	c #1A1F29",
"R#	c #1B202A",
"S#	c #1B212A",
"T#	c #1C212A",
"U#	c #1D222C",
"V#	c #1E232D",
"W#	c #1F242E",
"X#	c #1E232C",
"Y#	c #1E232B",
"Z#	c #1E222A",
"`#	c #1D222A",
" $	c #1D2129",
".$	c #1C2129",
"+$	c #1B2028",
"@$	c #1A2027",
"#$	c #1B202B",
"$$	c #1C212C",
"%$	c #1D222E",
"&$	c #202733",
"*$	c #212734",
"=$	c #212733",
"-$	c #202631",
";$	c #1F252F",
">$	c #1B2029",
",$	c #171B23",
"'$	c #1A1F28",
")$	c #1D232E",
"!$	c #1E2530",
"~$	c #1F2632",
"{$	c #212834",
"]$	c #222835",
"^$	c #1F242F",
"/$	c #1C212B",
"($	c #191F28",
"_$	c #1A202A",
":$	c #1B212B",
"<$	c #1C222D",
"[$	c #1F2532",
"}$	c #212836",
"|$	c #1B212C",
"1$	c #212937",
"2$	c #222A37",
"3$	c #1F2531",
"4$	c #1D222D",
"5$	c #1E2633",
"6$	c #212837",
"7$	c #232A38",
"8$	c #1E232E",
"9$	c #242B39",
"0$	c #252D3B",
"a$	c #252C3B",
"b$	c #202937",
"c$	c #222B3A",
"d$	c #2A3444",
"e$	c #2C3545",
"f$	c #293141",
"g$	c #293241",
"h$	c #303A4C",
"i$	c #333E52",
"j$	c #343F54",
"k$	c #2D374A",
"l$	c #252E3E",
"m$	c #252E3D",
"n$	c #43516C",
"o$	c #4C5C7A",
"p$	c #4A5A77",
"q$	c #343F52",
"r$	c #2F394B",
"s$	c #171C26",
"t$	c #2C3647",
"u$	c #404D66",
"v$	c #44526C",
"w$	c #495975",
"x$	c #516283",
"y$	c #586B8F",
"z$	c #5D7095",
"A$	c #64799E",
"B$	c #6B81A8",
"C$	c #6B81A9",
"D$	c #6A80A7",
"E$	c #5E7295",
"F$	c #414F68",
"G$	c #364257",
"H$	c #2A3445",
"I$	c #1A212C",
"J$	c #242D3D",
"K$	c #242E3E",
"L$	c #303B4F",
"M$	c #404E67",
"N$	c #465570",
"O$	c #4D5D7B",
"P$	c #536585",
"Q$	c #5A6D91",
"R$	c #60759B",
"S$	c #657BA2",
"T$	c #6D83AB",
"U$	c #6D83AA",
"V$	c #677CA2",
"W$	c #556687",
"X$	c #42516B",
"Y$	c #2F3B4F",
"Z$	c #262F41",
"`$	c #1E2533",
" %	c #1C2432",
".%	c #202938",
"+%	c #283244",
"@%	c #2D374B",
"#%	c #323E53",
"$%	c #37445B",
"%%	c #3B4861",
"&%	c #37445A",
"*%	c #303B50",
"=%	c #2A3447",
"-%	c #283245",
";%	c #222A3A",
">%	c #0D121B",
",%	c #1C2331",
"'%	c #202939",
")%	c #252F40",
"!%	c #283346",
"~%	c #263041",
"{%	c #080B12",
"]%	c #000000",
"^%	c #010101",
"/%	c #141A26",
"(%	c #131A25",
"_%	c #171E2A",
":%	c #0C111A",
"<%	c #05080D",
"[%	c #010102",
"                                                                                                                                ",
"                                                                                                                                ",
"                                                                                                                                ",
"                                                                                                                                ",
"                                                                                                                                ",
"                                                                                                                                ",
"                                                                                                                                ",
"                                                . + @ #                                                                         ",
"                                              $ % & * = - ;                                                                     ",
"                                              > , ' ) ! ~ { ]                                                                   ",
"                                              ^ / ! ( _ : < : [                                                                 ",
"                                                } | 1 2 ! 3 4 { [                                                               ",
"                                                  5 6 7 _ : 8 9 0 a                                                             ",
"                                                  b c d e : f g ! h i                                                           ",
"                                                  j k l e m n o p q 1 r                                                         ",
"                                                  i k & * f s t u v l w                                                         ",
"                                                  x ( l y n z A B C D E b                                                       ",
"                                                  F G H I J K L K M ! N O P                                                     ",
"                                                Q R . S T U x V W X Y Z ` Q  .                                                  ",
"                                                ... +.@.#.$.S %.&.*.=.-.;.>.Q P                                                 ",
"                                              ,...'.).!.~.{.%.%.%.].^.-.` @./.Q 5                                               ",
"                                          (._.:.r <.[.).>.}.#.. |.1.2.3.4.5.5.6.7.8.9.0.a.b.                                    ",
"                                    b.c.d.e.j 8.f.g.y h.i.j.k.l.m.n.o.p.B q.C r.* d 6 a s.:.                                    ",
"                                    a.t.j 9.8.( d u.s M v.w.x.y.z.A.B.C.D./ E.F., G.k H.                                        ",
"                                      (.d.I.J.K.2 ! 0 m.J L.M.w.N.O.P.Q.r.R.S.T.U.                                              ",
"                                              V.W.X.Y.Z.`. +.+++@+#+$+%+&+*+=+-+;+                                              ",
"                                              >+,+'+)+!+~+{+]+^+/+(+_+_+:+<+[+{+}+                                              ",
"                                              >+,+'+)+!+~+{+|+1+2+3+_+_+4+5+6+-+;+                                              ",
"                                            d.j 7+8+9+0+}+-+a+b+c+d+e+e+f+g+h+i+j+k+                                            ",
"                                            l+m+n+o+p+q+r+s+t+u+v+%+%+%+w+x+y+z+A+                                              ",
"                                              # m+B+C+D+E+F+G+H+I+J+w+w+K+L+M+N+O+                                              ",
"                                              P+Q+R+S+T+U+V+W+X+Y+Z+{+-+`+ @.@+@@@                                              ",
"                                              c.#@$@%@&@d *@=@-@;@>@,@'@)@!@~@C+{@                                              ",
"                                              ]@^@/@) (@_@:@<@[@}@|@1@2@3@4@5@6@7@                                              ",
"                                              8@9@0@a@b@c@d@e@f@g@h@i@j@k@l@m@c n@o@                                            ",
"                                            p@q@r@s@t@u@v@w@x@y@z@A@B@C@D@E@F@G@$@H@                                            ",
"                                            I@J@0@K@L@M@N@O@P@Q@R@S@T@U@V@W@v@X@+ Y@                                            ",
"                                            Z@`@ #.#L@u@+#@###P@$#%#&#*#=#-#;#X@>#,#'#                                          ",
"                                          >.)#!#~#{#]#^#+#/#@#(#d@_#:#<#[#}#M@|#1#N 2#                                          ",
"                                            3#4#5#6#7#8#9#0#a#b#(#c#d#e#f#g#h#i#j#Q                                             ",
"                                              k#l#m#'.n#o#p#q#6#r#s#t#u#O v#w#x#y#z#                                            ",
"                                            A#B#C#D#D#E#F#G#H#H#I#I#J#K#L#M#M#N#O#P#                                            ",
"                                            Q#B#B#R#S#T#U#V#W#W#X#Y#Y#Z#`# $.$+$@$C#Z.                                          ",
"                                            R#R##$$$%$2#7+&$*$=$-$'#;$V#X#X#8+S#>$C#,$                                          ",
"                                          '$R##$T.)$!$~$e.{$]$a.{$=$-$^$^$^$)$/$R#R#($                                          ",
"                                          _$:$<$%$2#[$e.a.}$0.0.a.*$7+-$e.~$)$/$R#)$<$                                          ",
"                                          |$<$(.:.c.e.t.1$I.2$0.a.{$}$I.}$3$)$/$4$5$:.                                          ",
"                                        |$b.:.:.[$b 6$I.H.I.j j 7$i i j &$3$8$<$d.e.9.|$                                        ",
"                                        ~$9$0$a$9.T T b$H.I.i i i c$1$e.3$3$d.x d$e$f$~$                                        ",
"                                        a.Y@g$e$h$i$h j$l k$,#l$x m$7.h n$o$p$r.q$r$$@b.                                        ",
"                                      s$T 1$8.t$i$_ : u$v$w$x$y$z$A$B$C$D$E$B F$G$H$I.I$                                        ",
"                                        . T J$K$1#L$> M$N$O$P$Q$R$S$T$U$V$W$X$Y$Z$J$`$                                          ",
"                                            '. %.%Z$+%+%>#@%#%$%%%%%&%*%=%-%-%1#;%}.                                            ",
"                                                  >%,%'%)%1#+%+%-%-%!%!%-%~%8@{%                                                ",
"                                                      ]%^%    /%(%%._%:%<%[%                                                    ",
"                                                      ]%]%            ]%]%                                                      ",
"                                                      ]%]%            ]%]%                                                      ",
"                                                      ]%]%            ]%]%                                                      ",
"                                                      ]%]%            ]%                                                        ",
"                                                                                                                                ",
"                                                                                                                                ",
"                                                                                                                                ",
"                                                                                                                                ",
"                                                                                                                                "};
