/* XPM */
static char * player_idle_10_xpm[] = {
"64 64 563 2",
"  	c None",
". 	c #262E3E",
"+ 	c #2E384B",
"@ 	c #2D3648",
"# 	c #252D3C",
"$ 	c #2E394C",
"% 	c #364258",
"& 	c #313C4F",
"* 	c #3A455B",
"= 	c #3A465C",
"- 	c #364156",
"; 	c #222937",
"> 	c #465570",
", 	c #343F54",
"' 	c #0C1016",
") 	c #364157",
"! 	c #3B475D",
"~ 	c #3D4960",
"{ 	c #283141",
"] 	c #465670",
"^ 	c #536584",
"/ 	c #181D28",
"( 	c #354055",
"_ 	c #38445A",
": 	c #3E4B62",
"< 	c #404D64",
"[ 	c #3B475E",
"} 	c #2C3648",
"| 	c #232B39",
"1 	c #1E2532",
"2 	c #333E52",
"3 	c #364257",
"4 	c #3A465D",
"5 	c #3F4C63",
"6 	c #404D65",
"7 	c #2D3748",
"8 	c #303B4E",
"9 	c #39455B",
"0 	c #424F67",
"a 	c #3C4960",
"b 	c #384459",
"c 	c #293242",
"d 	c #242C3A",
"e 	c #333E53",
"f 	c #3F4C64",
"g 	c #3F4D65",
"h 	c #343F53",
"i 	c #212836",
"j 	c #333D52",
"k 	c #3C495F",
"l 	c #3F4D64",
"m 	c #425069",
"n 	c #3B485E",
"o 	c #2D3749",
"p 	c #1A202B",
"q 	c #323D52",
"r 	c #39465C",
"s 	c #3F4B63",
"t 	c #425068",
"u 	c #485671",
"v 	c #495873",
"w 	c #3E4B63",
"x 	c #262F3F",
"y 	c #39455C",
"z 	c #46556F",
"A 	c #4D5D7A",
"B 	c #45536D",
"C 	c #293243",
"D 	c #202734",
"E 	c #2B3548",
"F 	c #4B5B76",
"G 	c #4D5C78",
"H 	c #46546E",
"I 	c #414D64",
"J 	c #323C4F",
"K 	c #1F2736",
"L 	c #191F2A",
"M 	c #181E28",
"N 	c #181D29",
"O 	c #181E2A",
"P 	c #19202D",
"Q 	c #1E2533",
"R 	c #232B3A",
"S 	c #252E3D",
"T 	c #232B3B",
"U 	c #23252C",
"V 	c #383B44",
"W 	c #444752",
"X 	c #474A55",
"Y 	c #161B24",
"Z 	c #161C27",
"` 	c #181E29",
" .	c #181F2A",
"..	c #171D28",
"+.	c #131925",
"@.	c #181F2B",
"#.	c #191F2C",
"$.	c #1A212E",
"%.	c #1F2229",
"&.	c #3C3E48",
"*.	c #3B3E48",
"=.	c #151A24",
"-.	c #151B27",
";.	c #121822",
">.	c #141A25",
",.	c #171E2A",
"'.	c #19202C",
").	c #191D26",
"!.	c #272A32",
"~.	c #161C28",
"{.	c #151B26",
"].	c #1C232F",
"^.	c #1F2633",
"/.	c #1E2531",
"(.	c #1C222E",
"_.	c #1A202C",
":.	c #171C28",
"<.	c #131923",
"[.	c #111721",
"}.	c #171D29",
"|.	c #181E2B",
"1.	c #32353E",
"2.	c #42454F",
"3.	c #363A44",
"4.	c #303B4F",
"5.	c #37435A",
"6.	c #354158",
"7.	c #303B50",
"8.	c #27303F",
"9.	c #262F3E",
"0.	c #272F3E",
"a.	c #232B38",
"b.	c #1F2532",
"c.	c #202735",
"d.	c #242C3B",
"e.	c #293344",
"f.	c #313C50",
"g.	c #354157",
"h.	c #38445B",
"i.	c #3C4961",
"j.	c #42506A",
"k.	c #45546F",
"l.	c #414E65",
"m.	c #46536D",
"n.	c #4B5B77",
"o.	c #50617F",
"p.	c #4E5E7C",
"q.	c #4A5A77",
"r.	c #485873",
"s.	c #43526C",
"t.	c #374359",
"u.	c #323D51",
"v.	c #2E384A",
"w.	c #151A23",
"x.	c #202835",
"y.	c #222936",
"z.	c #283142",
"A.	c #2F3A4D",
"B.	c #404D66",
"C.	c #44526C",
"D.	c #4D5D79",
"E.	c #546584",
"F.	c #5A6D8E",
"G.	c #5C6F91",
"H.	c #5F7295",
"I.	c #607497",
"J.	c #576989",
"K.	c #526381",
"L.	c #4A5975",
"M.	c #323C50",
"N.	c #242C3C",
"O.	c #232A38",
"P.	c #262E3D",
"Q.	c #293343",
"R.	c #2F394C",
"S.	c #3D4961",
"T.	c #44516A",
"U.	c #424F66",
"V.	c #4B5A75",
"W.	c #50617E",
"X.	c #566887",
"Y.	c #596C8D",
"Z.	c #546585",
"`.	c #495974",
" +	c #1F2531",
".+	c #13161C",
"++	c #080909",
"@+	c #1B212D",
"#+	c #171C26",
"$+	c #1F2632",
"%+	c #151921",
"&+	c #1E242F",
"*+	c #1B1F27",
"=+	c #171A20",
"-+	c #16171A",
";+	c #151515",
">+	c #161615",
",+	c #161616",
"'+	c #141414",
")+	c #111111",
"!+	c #0D0D0D",
"~+	c #020202",
"{+	c #040404",
"]+	c #060606",
"^+	c #090909",
"/+	c #0C0C0C",
"(+	c #0F0F0F",
"_+	c #121212",
":+	c #292917",
"<+	c #707022",
"[+	c #54541F",
"}+	c #181818",
"|+	c #36361B",
"1+	c #727221",
"2+	c #0E0E0E",
"3+	c #2E2E17",
"4+	c #818122",
"5+	c #61611F",
"6+	c #3C3C1B",
"7+	c #7B7B22",
"8+	c #2D2D17",
"9+	c #1D232F",
"0+	c #1C222D",
"a+	c #171C25",
"b+	c #0F1218",
"c+	c #090A0B",
"d+	c #0B0B0B",
"e+	c #131313",
"f+	c #171717",
"g+	c #121314",
"h+	c #292C34",
"i+	c #293141",
"j+	c #2C3545",
"k+	c #313A4B",
"l+	c #363D4C",
"m+	c #383D47",
"n+	c #393A3F",
"o+	c #403E3F",
"p+	c #464342",
"q+	c #403D3D",
"r+	c #1A191A",
"s+	c #404043",
"t+	c #646163",
"u+	c #4E515C",
"v+	c #384051",
"w+	c #293241",
"x+	c #2B3546",
"y+	c #2F394B",
"z+	c #333D50",
"A+	c #3F485A",
"B+	c #595E6A",
"C+	c #908B8D",
"D+	c #8F8B8D",
"E+	c #51545F",
"F+	c #171719",
"G+	c #292B30",
"H+	c #75747A",
"I+	c #7E7B7F",
"J+	c #364052",
"K+	c #2F3948",
"L+	c #212937",
"M+	c #2A3344",
"N+	c #364154",
"O+	c #3C4659",
"P+	c #676974",
"Q+	c #9A9494",
"R+	c #636571",
"S+	c #31353F",
"T+	c #3B404B",
"U+	c #858286",
"V+	c #686870",
"W+	c #313C4D",
"X+	c #2A3341",
"Y+	c #1E2633",
"Z+	c #262F3D",
"`+	c #2F394D",
" @	c #384356",
".@	c #414B5D",
"+@	c #928D90",
"@@	c #7C7C83",
"#@	c #38404F",
"$@	c #0D0E0E",
"%@	c #0D0D0E",
"&@	c #4B4F5B",
"*@	c #8A8A93",
"=@	c #575B68",
"-@	c #2F3A4B",
";@	c #262D3B",
">@	c #1D2532",
",@	c #232C3B",
"'@	c #273141",
")@	c #2B3547",
"!@	c #354054",
"~@	c #354155",
"{@	c #7A7C87",
"]@	c #93949F",
"^@	c #495163",
"/@	c #1B2029",
"(@	c #0F1319",
"_@	c #5F6372",
":@	c #898EA0",
"<@	c #444B5B",
"[@	c #262E3B",
"}@	c #1E2634",
"|@	c #212B3A",
"1@	c #232D3D",
"2@	c #273143",
"3@	c #2B3649",
"4@	c #2F3B4E",
"5@	c #313E52",
"6@	c #323F53",
"7@	c #555B6B",
"8@	c #999CAC",
"9@	c #717788",
"0@	c #323A4A",
"a@	c #1E2635",
"b@	c #7D7F8C",
"c@	c #7E8191",
"d@	c #313B4D",
"e@	c #2A3242",
"f@	c #212938",
"g@	c #212A3B",
"h@	c #222D3D",
"i@	c #242F41",
"j@	c #273346",
"k@	c #2B384C",
"l@	c #2D3B4F",
"m@	c #2F3C51",
"n@	c #333F53",
"o@	c #8A8EA1",
"p@	c #8C91A3",
"q@	c #3E4758",
"r@	c #4E4F57",
"s@	c #949196",
"t@	c #585B67",
"u@	c #2E3A4C",
"v@	c #2C3748",
"w@	c #232934",
"x@	c #1C2330",
"y@	c #202A3A",
"z@	c #222B3C",
"A@	c #242F40",
"B@	c #263144",
"C@	c #293548",
"D@	c #2C394D",
"E@	c #2D3A4F",
"F@	c #2E3B50",
"G@	c #2F3C50",
"H@	c #686E7F",
"I@	c #9599AD",
"J@	c #535968",
"K@	c #545359",
"L@	c #8D898B",
"M@	c #30394C",
"N@	c #2D394C",
"O@	c #2B3648",
"P@	c #252C3A",
"Q@	c #1E2636",
"R@	c #202A3B",
"S@	c #222B3D",
"T@	c #283447",
"U@	c #29364B",
"V@	c #2B384D",
"W@	c #2C394E",
"X@	c #848899",
"Y@	c #6E707E",
"Z@	c #323B4B",
"`@	c #585861",
" #	c #283448",
".#	c #2C374B",
"+#	c #293345",
"@#	c #283041",
"##	c #1D2636",
"$#	c #1F293A",
"%#	c #212B3D",
"&#	c #232D40",
"*#	c #253044",
"=#	c #273448",
"-#	c #28354A",
";#	c #2C384E",
">#	c #303D51",
",#	c #797B89",
"'#	c #7F808C",
")#	c #394456",
"!#	c #1F2839",
"~#	c #253146",
"{#	c #2A3549",
"]#	c #2A3448",
"^#	c #283244",
"/#	c #273042",
"(#	c #202632",
"_#	c #19212E",
":#	c #1D2535",
"<#	c #1F283B",
"[#	c #212C3F",
"}#	c #232F43",
"|#	c #283349",
"1#	c #29354B",
"2#	c #2D394E",
"3#	c #626472",
"4#	c #87858E",
"5#	c #495060",
"6#	c #263040",
"7#	c #222E43",
"8#	c #263246",
"9#	c #232D3E",
"0#	c #212837",
"a#	c #191E28",
"b#	c #141821",
"c#	c #171F2E",
"d#	c #1C2537",
"e#	c #1F2A3D",
"f#	c #212C40",
"g#	c #232F45",
"h#	c #273348",
"i#	c #464C5C",
"j#	c #7C7A82",
"k#	c #5A5D6A",
"l#	c #182132",
"m#	c #1B2435",
"n#	c #181F2D",
"o#	c #15181F",
"p#	c #1A1F28",
"q#	c #1A1F27",
"r#	c #191D24",
"s#	c #161A20",
"t#	c #141920",
"u#	c #161C26",
"v#	c #161D29",
"w#	c #1D232E",
"x#	c #32343C",
"y#	c #262930",
"z#	c #171A21",
"A#	c #16191E",
"B#	c #191D22",
"C#	c #1B1F25",
"D#	c #1B1F26",
"E#	c #1A1F26",
"F#	c #11151B",
"G#	c #181E27",
"H#	c #1A2029",
"I#	c #1B2028",
"J#	c #1B2129",
"K#	c #1C2129",
"L#	c #1D222A",
"M#	c #1E232B",
"N#	c #1E232C",
"O#	c #1E222A",
"P#	c #1D2129",
"Q#	c #1B2128",
"R#	c #1A2027",
"S#	c #1A2028",
"T#	c #151A21",
"U#	c #1A202A",
"V#	c #1B202A",
"W#	c #1B202B",
"X#	c #1C212B",
"Y#	c #1D222D",
"Z#	c #1E2430",
"`#	c #202733",
" $	c #212732",
".$	c #202531",
"+$	c #1F242E",
"@$	c #1E232D",
"#$	c #1E222B",
"$$	c #1D222B",
"%$	c #1B212A",
"&$	c #181D26",
"*$	c #1B212B",
"=$	c #1C222C",
"-$	c #212834",
";$	c #212835",
">$	c #212734",
",$	c #212733",
"'$	c #202631",
")$	c #1F242F",
"!$	c #1C212C",
"~$	c #202834",
"{$	c #222935",
"]$	c #202732",
"^$	c #1F2530",
"/$	c #1C212A",
"($	c #191F29",
"_$	c #1C232E",
":$	c #1D2430",
"<$	c #222A37",
"[$	c #222835",
"}$	c #222A38",
"|$	c #232A39",
"1$	c #1F2634",
"2$	c #1E2431",
"3$	c #202836",
"4$	c #222B3A",
"5$	c #202633",
"6$	c #2A3342",
"7$	c #252D3B",
"8$	c #212939",
"9$	c #222938",
"0$	c #222A39",
"a$	c #3E4B64",
"b$	c #404E67",
"c$	c #374358",
"d$	c #303B4D",
"e$	c #2C3646",
"f$	c #1B202C",
"g$	c #28303F",
"h$	c #2B3444",
"i$	c #333D51",
"j$	c #3D4A62",
"k$	c #414F69",
"l$	c #43526D",
"m$	c #43526E",
"n$	c #485774",
"o$	c #5A6C8E",
"p$	c #62769B",
"q$	c #64799F",
"r$	c #566889",
"s$	c #3B485F",
"t$	c #273040",
"u$	c #364256",
"v$	c #3E4C64",
"w$	c #424F68",
"x$	c #44536D",
"y$	c #4A5976",
"z$	c #526383",
"A$	c #5C7094",
"B$	c #62779E",
"C$	c #697EA6",
"D$	c #7086AE",
"E$	c #6F86AE",
"F$	c #6B80A7",
"G$	c #57698A",
"H$	c #262F40",
"I$	c #1B222E",
"J$	c #1A212D",
"K$	c #242D3E",
"L$	c #252E3F",
"M$	c #283243",
"N$	c #3D4B63",
"O$	c #4C5C7A",
"P$	c #526485",
"Q$	c #576A8D",
"R$	c #5B6E92",
"S$	c #5D7093",
"T$	c #4F607E",
"U$	c #3E4C65",
"V$	c #232C3D",
"W$	c #1C2331",
"X$	c #283245",
"Y$	c #273144",
"Z$	c #283346",
"`$	c #293346",
" %	c #232B3C",
".%	c #0D121B",
"+%	c #161D28",
"@%	c #1D2534",
"#%	c #212A3A",
"$%	c #252F40",
"%%	c #252E40",
"&%	c #263041",
"*%	c #242E3E",
"=%	c #181F2C",
"-%	c #000000",
"                                                                                                                                ",
"                                                                                                                                ",
"                                                                                                                                ",
"                                                                                                                                ",
"                                                                                                                                ",
"                                                                                                                                ",
"                                                                                                                                ",
"                                                . + @ #                                                                         ",
"                                              $ % & * = - ;                                                                     ",
"                                              > , ' ) ! ~ ! {                                                                   ",
"                                              ] ^ / ( _ : < [ }                                                                 ",
"                                                | 1 2 3 4 5 6 = 7                                                               ",
"                                                  | 8 ( 9 ~ 0 a b c                                                             ",
"                                                  d + e _ ~ f g b h i                                                           ",
"                                                  # } j _ k l m n ( o p                                                         ",
"                                                  . } q r s t u v w 8 .                                                         ",
"                                                  x } q y f z A A B % C D                                                       ",
"                                                  x E q 4 m F G H I J K L M                                                     ",
"                                                N O P Q R S T U V W X Y Z ` M                                                   ",
"                                                 ...+.Z @.#.$.P @.%.&.*.=.Z ` /                                                 ",
"                                              L  .-.;.>.,.'.P P P ).!.*.~.>.{.].^./.(.                                          ",
"                                              _.:.<.[.<.}.|.P ` 1.2.X 3.4.5.6.7.} c 8.9.0.a.                                    ",
"                                        /.b.c.d.e.+ f.g.h.i.j.k.l.m.n.o.p.q.r.s.i.t.u.v.# w.                                    ",
"                                    D D x.y.R z.A.h.B.C.u D.E.F.G.H.I.H.G.J.K.L.w M.N.                                          ",
"                                    /.D O.P.Q.R.( [ S.T.H U.V.W.X.Y.Z.`.k 7  +.+++                                              ",
"                                            _.@+c.x.#+O.$+%+&+*+=+-+;+>+,+,+'+)+!+                                              ",
"                                              ~+{+]+^+/+(+_+:+<+[+}+}+}+|+1+:+_+2+                                              ",
"                                              ~+{+]+^+/+(+_+3+4+5+}+}+}+6+7+8+)+!+                                              ",
"                                            9+0+a+b+c+d+(+)+e+;+,+f+f+f+,+;+e+g+h+                                              ",
"                                            x.i+j+k+l+m+n+o+p+q+r+,+,+,+'+s+t+u+v+                                              ",
"                                            @+P.w+x+y+z+A+B+C+D+E+F+'+'+G+H+I+J+K+                                              ",
"                                              L+8.M+o 8 N+O+P+Q+R+S+_+_+T+U+V+W+X+                                              ",
"                                              Y+Z+c } `+2  @.@+@@@#@$@%@&@*@=@-@;@                                              ",
"                                              >@,@'@)@$ f.!@~@{@]@^@/@(@_@:@<@7 [@                                              ",
"                                              }@|@1@2@3@4@5@6@7@8@9@0@a@b@c@d@@ e@                                              ",
"                                              f@g@h@i@j@k@l@m@n@o@p@q@r@s@t@u@v@c w@                                            ",
"                                            x@y@z@A@B@C@D@E@F@G@H@I@J@K@L@M@N@O@Q.P@                                            ",
"                                            Q@R@S@i@B@T@U@V@W@F@O+X@Y@Z@`@ #.#O@+#@#                                            ",
"                                          Z ##$#%#&#*#=#-#k@;#W@>#,#'#)#!#~#{#]#^#/#(#                                          ",
"                                          ;._#:#<#[#}#~#|#1#U@U@2#3#4#5#6#7#8#B@9#0#a#                                          ",
"                                              b#{.c#d#e#f#7#g#~#h#i#j#k#'@l#m#n#Y o#                                            ",
"                                              p#q#r#s#t#w.u#..v#,.w#x#y#z#A#B#C#D#E#F#                                          ",
"                                            G#H#H#I#J#K#K#L#M#N#M#O#O#O#L#P#P#Q#R#S#T#                                          ",
"                                            p#U#V#W#X#Y#Z#$+`# $.$+$+$@$N##$$$%$/@S#&$                                          ",
"                                            V#V#*$=$9+ +`#D -$;$>$,$'$)$+$)$w#X#V#V#!$                                          ",
"                                          a#V#W#=$9+Z#$+~$c.y.{$;$>$]$^$(#`#&+!$/$!$Z#a+                                        ",
"                                          ($*$0+_$:$1 D i i <$; [$-$`#;$; `#&+=$X#/./.($                                        ",
"                                          U#0+9+:$$+c.L+f@}$}$y.i y.|$R i (#&+0+9+1$;$^.                                        ",
"                                          `#$+2$/.1$3$f@f@}$}$|$R T 4$; 5$ +Z#/.,@c 6$P@                                        ",
"                                        *$O.7$0.8.9.d.8$L+9$0$0$}$f@c.^.; y+a$b$c$d$e$Z+                                        ",
"                                        f$| g$h$v.i$c$a j$w k$l$m$n$K.o$p$q$r$z s$2 { 3$                                        ",
"                                        _$0#0$t$v.u$n v$w$x$y$z$A$B$C$D$E$F$G$k.u.H$,@I$                                        ",
"                                          J$4$K$L$M$A.5.N$x$O$P$Q$R$S$F.T$U$$ ^#2@V$ .                                          ",
"                                              v#W$a@2@X$Y$2@^#X$X$X$X$^#X$Z$`$ %O                                               ",
"                                                    .%+%@%#%V$L$$%%%&%*%#%@%=%                                                  ",
"                                                      -%-%            -%-%                                                      ",
"                                                      -%-%            -%-%                                                      ",
"                                                      -%-%            -%-%                                                      ",
"                                                      -%-%            -%                                                        ",
"                                                                                                                                ",
"                                                                                                                                ",
"                                                                                                                                ",
"                                                                                                                                ",
"                                                                                                                                "};
