/* XPM */
static char * player_walk_10_xpm[] = {
"64 64 566 2",
"  	c None",
". 	c #212936",
"+ 	c #2A3343",
"@ 	c #252D3C",
"# 	c #303B4F",
"$ 	c #374358",
"% 	c #364257",
"& 	c #3A465C",
"* 	c #293242",
"= 	c #495975",
"- 	c #293344",
"; 	c #1C2330",
"> 	c #38445A",
", 	c #3B485E",
"' 	c #313C4F",
") 	c #4F607D",
"! 	c #4B5B77",
"~ 	c #1D2330",
"{ 	c #364258",
"] 	c #3F4B62",
"^ 	c #3D4A60",
"/ 	c #333D51",
"( 	c #272F3F",
"_ 	c #343F54",
": 	c #374459",
"< 	c #3D4A61",
"[ 	c #404D65",
"} 	c #3C4960",
"| 	c #2A3445",
"1 	c #323D51",
"2 	c #3B475E",
"3 	c #3F4C64",
"4 	c #414E66",
"5 	c #39455B",
"6 	c #2F394C",
"7 	c #2B3446",
"8 	c #313B4E",
"9 	c #364156",
"0 	c #3A475D",
"a 	c #3E4A61",
"b 	c #3A465D",
"c 	c #374257",
"d 	c #262F3F",
"e 	c #1F2633",
"f 	c #2A3344",
"g 	c #303A4D",
"h 	c #43516A",
"i 	c #3E4B62",
"j 	c #374258",
"k 	c #313B4F",
"l 	c #1C232F",
"m 	c #212937",
"n 	c #303A4E",
"o 	c #44526C",
"p 	c #46556F",
"q 	c #283141",
"r 	c #232B3A",
"s 	c #303B4E",
"t 	c #364359",
"u 	c #3D4A62",
"v 	c #43516B",
"w 	c #4A5A75",
"x 	c #4D5D7A",
"y 	c #465570",
"z 	c #212836",
"A 	c #202836",
"B 	c #283243",
"C 	c #37435A",
"D 	c #404D66",
"E 	c #485772",
"F 	c #505F7C",
"G 	c #4E5E7A",
"H 	c #495873",
"I 	c #3E4C64",
"J 	c #2B3548",
"K 	c #202835",
"L 	c #181D27",
"M 	c #181E29",
"N 	c #181E2A",
"O 	c #151A25",
"P 	c #171E29",
"Q 	c #1D2432",
"R 	c #232B3B",
"S 	c #262E3E",
"T 	c #232731",
"U 	c #343740",
"V 	c #434651",
"W 	c #464954",
"X 	c #191D27",
"Y 	c #161D28",
"Z 	c #191F2B",
"` 	c #131924",
" .	c #151B27",
"..	c #181E2B",
"+.	c #191F2C",
"@.	c #1A212E",
"#.	c #19202D",
"$.	c #191F2A",
"%.	c #1A1E26",
"&.	c #393C46",
"*.	c #373A44",
"=.	c #181D26",
"-.	c #161C27",
";.	c #151B26",
">.	c #121722",
",.	c #171D29",
"'.	c #19202C",
").	c #19202E",
"!.	c #1B1F28",
"~.	c #2D3038",
"{.	c #3A3D46",
"].	c #161C28",
"^.	c #171C26",
"/.	c #1E2430",
"(.	c #1E2531",
"_.	c #1F2634",
":.	c #1A202D",
"<.	c #181F2B",
"[.	c #171D28",
"}.	c #33363F",
"|.	c #40434D",
"1.	c #474954",
"2.	c #3B3E47",
"3.	c #212939",
"4.	c #273041",
"5.	c #283143",
"6.	c #283142",
"7.	c #222A38",
"8.	c #1D2430",
"9.	c #202734",
"0.	c #1F2734",
"a.	c #212835",
"b.	c #232B39",
"c.	c #273141",
"d.	c #2E394C",
"e.	c #414F68",
"f.	c #43526C",
"g.	c #475671",
"h.	c #4A5A77",
"i.	c #44516A",
"j.	c #46546D",
"k.	c #485771",
"l.	c #4B5C78",
"m.	c #475672",
"n.	c #414F69",
"o.	c #3A475E",
"p.	c #333E53",
"q.	c #2E384A",
"r.	c #222937",
"s.	c #262E3D",
"t.	c #293243",
"u.	c #2E384B",
"v.	c #354055",
"w.	c #3B4860",
"x.	c #414E67",
"y.	c #45536D",
"z.	c #4E5E79",
"A.	c #556685",
"B.	c #5A6D8E",
"C.	c #5D7092",
"D.	c #5F7396",
"E.	c #586B8C",
"F.	c #546584",
"G.	c #50617E",
"H.	c #4B5A76",
"I.	c #1E2532",
"J.	c #2D3749",
"K.	c #374357",
"L.	c #3A465B",
"M.	c #4A5974",
"N.	c #516280",
"O.	c #556786",
"P.	c #516381",
"Q.	c #4A5A76",
"R.	c #3B475D",
"S.	c #323D50",
"T.	c #27303F",
"U.	c #1D232F",
"V.	c #020202",
"W.	c #030303",
"X.	c #050505",
"Y.	c #080808",
"Z.	c #0A0A0A",
"`.	c #0C0C0C",
" +	c #0F0F10",
".+	c #111212",
"++	c #121313",
"@+	c #141414",
"#+	c #151515",
"$+	c #161616",
"%+	c #121212",
"&+	c #0D0D0D",
"*+	c #040404",
"=+	c #060606",
"-+	c #090909",
";+	c #0F0F0F",
">+	c #262617",
",+	c #6A6A21",
"'+	c #4F4F1E",
")+	c #181818",
"!+	c #33331B",
"~+	c #6C6C21",
"{+	c #272717",
"]+	c #0E0E0E",
"^+	c #040507",
"/+	c #040405",
"(+	c #2C2C17",
"_+	c #7B7B21",
":+	c #5D5D1E",
"<+	c #39391B",
"[+	c #767621",
"}+	c #2B2B17",
"|+	c #0D0E0E",
"1+	c #272F3E",
"2+	c #262E3C",
"3+	c #262C39",
"4+	c #242831",
"5+	c #141619",
"6+	c #111111",
"7+	c #131313",
"8+	c #171717",
"9+	c #201F20",
"0+	c #38393F",
"a+	c #383E4C",
"b+	c #242A35",
"c+	c #2D3748",
"d+	c #333D4F",
"e+	c #3F4656",
"f+	c #4A4F5B",
"g+	c #605F65",
"h+	c #7E7979",
"i+	c #747172",
"j+	c #3D3D42",
"k+	c #18191A",
"l+	c #646369",
"m+	c #827F81",
"n+	c #444B5A",
"o+	c #323B4C",
"p+	c #242B3A",
"q+	c #283140",
"r+	c #384256",
"s+	c #3E485B",
"t+	c #7A7980",
"u+	c #969192",
"v+	c #585C6A",
"w+	c #282A30",
"x+	c #373B44",
"y+	c #807D81",
"z+	c #737177",
"A+	c #323D4F",
"B+	c #2C3545",
"C+	c #262F3E",
"D+	c #2C3648",
"E+	c #2F3A4D",
"F+	c #343F53",
"G+	c #394457",
"H+	c #4F5565",
"I+	c #979293",
"J+	c #75757D",
"K+	c #353B49",
"L+	c #434753",
"M+	c #89878C",
"N+	c #5C5F6A",
"O+	c #303A4C",
"P+	c #272F3D",
"Q+	c #1D2532",
"R+	c #242D3C",
"S+	c #2C3647",
"T+	c #313C50",
"U+	c #364155",
"V+	c #384357",
"W+	c #83828B",
"X+	c #8A8A93",
"Y+	c #3F485A",
"Z+	c #12151A",
"`+	c #0E1014",
" @	c #585C69",
".@	c #898D9E",
"+@	c #4D5261",
"@@	c #2E3849",
"#@	c #252C3A",
"$@	c #1E2533",
"%@	c #212B3A",
"&@	c #242E3E",
"*@	c #293345",
"=@	c #2D374B",
"-@	c #303C4F",
";@	c #333F52",
">@	c #333F53",
",@	c #636775",
"'@	c #9A9CAA",
")@	c #666C7D",
"!@	c #2D3543",
"~@	c #737684",
"{@	c #838798",
"]@	c #343D4F",
"^@	c #2D3648",
"/@	c #2A3141",
"(@	c #202937",
"_@	c #212A3A",
":@	c #222C3D",
"<@	c #242F40",
"[@	c #273346",
"}@	c #2C384C",
"|@	c #2D3B4F",
"1@	c #303D51",
"2@	c #384356",
"3@	c #8F94A6",
"4@	c #878C9E",
"5@	c #3B4455",
"6@	c #41434D",
"7@	c #918F96",
"8@	c #656873",
"9@	c #2E3A4C",
"0@	c #222833",
"a@	c #1B2330",
"b@	c #212B3C",
"c@	c #232E3F",
"d@	c #253143",
"e@	c #283448",
"f@	c #2C394D",
"g@	c #2E3B50",
"h@	c #2F3C51",
"i@	c #707587",
"j@	c #9499AC",
"k@	c #4E5464",
"l@	c #5A595E",
"m@	c #918C8E",
"n@	c #343C4E",
"o@	c #2D394C",
"p@	c #252B38",
"q@	c #1D2635",
"r@	c #202A3B",
"s@	c #242F41",
"t@	c #263144",
"u@	c #283447",
"v@	c #29374B",
"w@	c #2B384E",
"x@	c #2D3A4F",
"y@	c #424B5D",
"z@	c #888C9D",
"A@	c #6A6D7B",
"B@	c #343B4A",
"C@	c #64636A",
"D@	c #293448",
"E@	c #2C384B",
"F@	c #2B3648",
"G@	c #273040",
"H@	c #1E2636",
"I@	c #1F293A",
"J@	c #212B3D",
"K@	c #232D40",
"L@	c #273448",
"M@	c #28354A",
"N@	c #2B384D",
"O@	c #2C394E",
"P@	c #7A7C8A",
"Q@	c #7E7E8B",
"R@	c #394355",
"S@	c #1F2839",
"T@	c #263246",
"U@	c #2A3549",
"V@	c #2A3548",
"W@	c #283244",
"X@	c #202632",
"Y@	c #131822",
"Z@	c #1A212F",
"`@	c #1D2636",
" #	c #1F293B",
".#	c #212C3F",
"+#	c #232F44",
"@#	c #253146",
"##	c #283449",
"$#	c #29364B",
"%#	c #2A364C",
"&#	c #2A364B",
"*#	c #636673",
"=#	c #87858E",
"-#	c #484F5F",
";#	c #262F40",
">#	c #232E43",
",#	c #273246",
"'#	c #242D3F",
")#	c #212938",
"!#	c #1A1F29",
"~#	c #12161D",
"{#	c #151922",
"]#	c #171F2F",
"^#	c #1C2537",
"/#	c #1F2A3D",
"(#	c #212C40",
"_#	c #222E43",
":#	c #232F45",
"<#	c #273348",
"[#	c #464C5C",
"}#	c #7B7982",
"|#	c #5A5C69",
"1#	c #192132",
"2#	c #1B2435",
"3#	c #161B23",
"4#	c #111318",
"5#	c #1A1F28",
"6#	c #1B1F27",
"7#	c #191D24",
"8#	c #161A20",
"9#	c #15191F",
"0#	c #151A22",
"a#	c #161B24",
"b#	c #1C222D",
"c#	c #2E3037",
"d#	c #25272E",
"e#	c #15181E",
"f#	c #16181C",
"g#	c #181A1E",
"h#	c #1A1C21",
"i#	c #1B1D22",
"j#	c #14171C",
"k#	c #191F28",
"l#	c #1A2029",
"m#	c #1A2028",
"n#	c #1B2028",
"o#	c #1B2129",
"p#	c #1C2128",
"q#	c #1C2228",
"r#	c #1D2228",
"s#	c #1D2227",
"t#	c #1D2127",
"u#	c #1D2126",
"v#	c #1C2026",
"w#	c #1B1F25",
"x#	c #1A1F26",
"y#	c #171B22",
"z#	c #191E27",
"A#	c #1B202A",
"B#	c #1C212B",
"C#	c #1C212C",
"D#	c #1D232D",
"E#	c #1E242F",
"F#	c #1F2530",
"G#	c #202631",
"H#	c #202530",
"I#	c #1F242D",
"J#	c #1F232C",
"K#	c #1E232B",
"L#	c #1E222A",
"M#	c #1D222A",
"N#	c #1D2129",
"O#	c #1C2129",
"P#	c #1A2027",
"Q#	c #1B202B",
"R#	c #1D232E",
"S#	c #212734",
"T#	c #212834",
"U#	c #212733",
"V#	c #1F242F",
"W#	c #1E232D",
"X#	c #1E232C",
"Y#	c #1C222B",
"Z#	c #1B2029",
"`#	c #1B212B",
" $	c #1C222C",
".$	c #1D222E",
"+$	c #1F2531",
"@$	c #202735",
"#$	c #222935",
"$$	c #222835",
"%$	c #202733",
"&$	c #1B212C",
"*$	c #202634",
"=$	c #222936",
"-$	c #1C212A",
";$	c #1C232E",
">$	c #212837",
",$	c #222938",
"'$	c #222A39",
")$	c #1D222D",
"!$	c #1E2431",
"~$	c #242B39",
"{$	c #232A38",
"]$	c #1F2632",
"^$	c #222A37",
"/$	c #1A202B",
"($	c #2F394B",
"_$	c #2E394B",
":$	c #1F2532",
"<$	c #202633",
"[$	c #242C3B",
"}$	c #2D374A",
"|$	c #2B3444",
"1$	c #232C3B",
"2$	c #303B4D",
"3$	c #344054",
"4$	c #38455A",
"5$	c #42506A",
"6$	c #44536D",
"7$	c #475673",
"8$	c #495977",
"9$	c #485876",
"0$	c #4A5976",
"a$	c #4F5F7D",
"b$	c #526383",
"c$	c #586A8C",
"d$	c #5C6F92",
"e$	c #566989",
"f$	c #475772",
"g$	c #333D50",
"h$	c #2D3647",
"i$	c #252D3B",
"j$	c #131720",
"k$	c #1C2331",
"l$	c #232C3C",
"m$	c #242D3D",
"n$	c #263041",
"o$	c #2F394D",
"p$	c #38455B",
"q$	c #45546F",
"r$	c #495874",
"s$	c #4C5D7A",
"t$	c #536586",
"u$	c #5D7196",
"v$	c #63789E",
"w$	c #697FA6",
"x$	c #7086AE",
"y$	c #6E85AC",
"z$	c #697EA5",
"A$	c #566889",
"B$	c #010202",
"C$	c #0A0E15",
"D$	c #181F2C",
"E$	c #212A39",
"F$	c #252E40",
"G$	c #293245",
"H$	c #2C374A",
"I$	c #354056",
"J$	c #3F4E67",
"K$	c #475774",
"L$	c #4E5F7E",
"M$	c #576A8B",
"N$	c #576989",
"O$	c #506180",
"P$	c #44536E",
"Q$	c #354258",
"R$	c #263042",
"S$	c #242E3F",
"T$	c #1E2634",
"U$	c #131821",
"V$	c #000000",
"W$	c #06080E",
"X$	c #1C2432",
"Y$	c #222B3C",
"Z$	c #273143",
"`$	c #283245",
" %	c #273244",
".%	c #273144",
"+%	c #283346",
"@%	c #293346",
"#%	c #222B3B",
"$%	c #1D2533",
"%%	c #141A24",
"&%	c #141B26",
"*%	c #1E2736",
"=%	c #202939",
"-%	c #202938",
";%	c #1F2837",
">%	c #1D2534",
",%	c #010203",
"                                                                                                                                ",
"                                                                                                                                ",
"                                                                                                                                ",
"                                                                                                                                ",
"                                                                                                                                ",
"                                                                                                                                ",
"                                                                                                                                ",
"                                                  . + @                                                                         ",
"                                                # $ % & $ *                                                                     ",
"                                                = - ; > , , '                                                                   ",
"                                                ) ! ~ { & ] ^ /                                                                 ",
"                                                    ( _ : < [ } /                                                               ",
"                                                    | 1 % 2 3 4 5 6                                                             ",
"                                                    7 8 9 0 a [ b c d                                                           ",
"                                                  e f g 9 b < h i j k l                                                         ",
"                                                  m f n j < [ o p 3 1 q                                                         ",
"                                                  r | s t u v w x y > 7 z                                                       ",
"                                                  A B # C D E F G H I J K L                                                     ",
"                                                M N O P Q R S T U V W X Y N L                                                   ",
"                                                Z Y `  ...+.@.#.$.%.&.*.=.-.M L                                                 ",
"                                              Z N ;.>.` ,.'.#.#.).!.~.{.;.].-.^.                                                ",
"                                        /.(.e z m _.:.<.-.-...[.}.|.1.2.3.4.5.6.S 7.e 8.                                        ",
"                                  /.9.0.9.a.b.c.d.{ u e.f.g.! h.i.j.k.! l.m.n.o.p.q.| * * r.                                    ",
"                                    (.K b.s.t.u.v.w.x.y.H z.A.B.C.D.D.C.E.F.G.H.h o.8 q I.                                      ",
"                                          8.r.S J.q.8 , K.L.i.M.N.O.P.Q.v R.S.T.U.N                                             ",
"                                              V.W.X.Y.Z.`. +.+++@+@+#+$+$+#+@+%+&+                                              ",
"                                              V.*+=+-+`.;+%+>+,+'+)+)+)+!+~+{+%+]+                                              ",
"                                              ^+/+=+-+`.;+%+(+_+:+)+)+)+<+[+}+%+|+                                              ",
"                                            z 1+2+3+4+5+|+6+7+@+$+8+8+8+$+@+9+0+a+b+                                            ",
"                                            I.T.+ c+d+e+f+g+h+i+j+#+$+$+k+l+m+n+o+                                              ",
"                                              p+q+| q.' r+s+t+u+v+w+@+@+x+y+z+A+B+                                              ",
"                                              0.C+t.D+E+F+G+H+I+J+K+%+6+L+M+N+O+P+                                              ",
"                                              Q+R+6.S+d.T+U+V+W+X+Y+Z+`+ @.@+@@@#@                                              ",
"                                              $@%@&@*@=@-@;@>@,@'@)@!@@.~@{@]@^@/@                                              ",
"                                              (@_@:@<@[@}@|@1@2@3@4@5@6@7@8@9@c+* 0@                                            ",
"                                            a@_@b@c@d@e@f@|@g@h@i@j@k@l@m@n@o@D+* p@                                            ",
"                                            q@r@:@s@t@u@v@w@x@g@y@z@A@B@C@D@E@F@f G@                                            ",
"                                          -.H@I@J@K@t@L@M@N@O@O@1@P@Q@R@S@T@U@V@W@6.X@                                          ",
"                                          Y@Z@`@ #.#+#@###$#%#&#x@*#=#-#;#>#,#t@'#)#!#                                          ",
"                                            ~#{# .]#^#/#(#_#:#@#<#[#}#|#c.1#2##.3#4#                                            ",
"                                            =.5#6#7#8#9#0#a#^.[.N b#c#d#e#f#g#h#i#j#                                            ",
"                                            k#l#m#n#o#p#q#r#r#r#s#t#t#t#u#v#v#w#x#y#                                            ",
"                                          z#A#A#A#B#C#D#E#F#G#H#I#J#K#L#M#N#O#n#P#z#                                            ",
"                                          !#A#Q#C#R#/.X@9.S#T#U#X@G#V#W#X#X#Y#A#Z#n#                                            ",
"                                          A#`# $.$/.+$9.@$a.#$$$T#%$H#V#F#/. $B#A#B#^.                                          ",
"                                        k#&$b#R#8.I.*$z z r.r.=$T#U#X@S#a.F#b#-$B#/.!#                                          ",
"                                        ;$U.U.8.e @$>$7.,$7.=$a.a.r.'$7.%$/.)$B#!$I.&$                                          ",
"                                        r.~${$z 0.@$m )#7.7.7.b.r R '$a.]$/.R#(.@$7.^$                                          ",
"                                      /$p+1+* S+($_$D+d '$7.7.7.,$A e :$<$[$}$u.@@|$P+                                          ",
"                                      l A 1$+ 2$3$4$i 5$6$7$8$9$0$a$b$c$d$e$f$5 g$h$i$                                          ",
"                                      j$k$l$m$n$o$p$x.q$r$s$t$u$v$w$x$y$z$A$f$p$D+R _.                                          ",
"                                        B$C$D$E$F$W@G$H$I$J$K$L$t$M$N$O$P$Q$V@R$S$T$U$                                          ",
"                                      V$V$V$    W$X$Y$Z$`$W@ %.%.%W@`$`$+%@%#%$%%%                                              ",
"                                                        &%#.X$$%*%=%-%;%>%>.,%V$                                                ",
"                                                                            V$V$                                                ",
"                                                                            V$V$                                                ",
"                                                                              V$V$                                              ",
"                                                                                                                                ",
"                                                                                                                                ",
"                                                                                                                                ",
"                                                                                                                                ",
"                                                                                                                                ",
"                                                                                                                                ",
"                                                                                                                                "};
