/* XPM */
static char * player_walk_11_xpm[] = {
"64 64 597 2",
"  	c None",
". 	c #1C2431",
"+ 	c #364156",
"@ 	c #39445A",
"# 	c #3A455B",
"$ 	c #293243",
"% 	c #3B485F",
"& 	c #2E384B",
"* 	c #141A24",
"= 	c #354156",
"- 	c #3A465C",
"; 	c #3C485E",
"> 	c #354054",
", 	c #1A212C",
"' 	c #45546F",
") 	c #546685",
"! 	c #1D2531",
"~ 	c #323D51",
"{ 	c #38445B",
"] 	c #3D4A61",
"^ 	c #3E4A62",
"/ 	c #384359",
"( 	c #1F2734",
"_ 	c #273040",
": 	c #39465B",
"< 	c #191E29",
"[ 	c #333E52",
"} 	c #374258",
"| 	c #3C485F",
"1 	c #3F4C64",
"2 	c #3E4B63",
"3 	c #38445A",
"4 	c #212937",
"5 	c #222937",
"6 	c #303B4E",
"7 	c #354055",
"8 	c #39455B",
"9 	c #424F68",
"0 	c #374257",
"a 	c #1E2532",
"b 	c #242B3A",
"c 	c #343F53",
"d 	c #3D4960",
"e 	c #404C64",
"f 	c #384459",
"g 	c #323D50",
"h 	c #181E28",
"i 	c #252D3D",
"j 	c #2D3749",
"k 	c #404D65",
"l 	c #42506A",
"m 	c #39455C",
"n 	c #343F54",
"o 	c #2A3344",
"p 	c #272F3F",
"q 	c #2C3648",
"r 	c #46556F",
"s 	c #45536D",
"t 	c #39465C",
"u 	c #2E394B",
"v 	c #1C232F",
"w 	c #323E53",
"x 	c #3A475E",
"y 	c #475570",
"z 	c #4C5C78",
"A 	c #414F68",
"B 	c #313C51",
"C 	c #273041",
"D 	c #1D232F",
"E 	c #1C2330",
"F 	c #262F3F",
"G 	c #2C3649",
"H 	c #333E53",
"I 	c #3B475E",
"J 	c #43516A",
"K 	c #4C5B77",
"L 	c #4F5E7B",
"M 	c #4A5974",
"N 	c #44526B",
"O 	c #344055",
"P 	c #232B3A",
"Q 	c #1B212D",
"R 	c #181D27",
"S 	c #181E29",
"T 	c #171D28",
"U 	c #181F2B",
"V 	c #1E2533",
"W 	c #232C3B",
"X 	c #282A32",
"Y 	c #3A3D46",
"Z 	c #474A55",
"` 	c #3E414B",
" .	c #151B26",
"..	c #191F2B",
"+.	c #161C27",
"@.	c #131924",
"#.	c #161D28",
"$.	c #191F2C",
"%.	c #1A212E",
"&.	c #24272E",
"*.	c #3D3F4A",
"=.	c #32343D",
"-.	c #141A26",
";.	c #161C28",
">.	c #171E29",
",.	c #141A25",
"'.	c #121822",
").	c #181E2A",
"!.	c #19202D",
"~.	c #181E2B",
"{.	c #1D2129",
"].	c #32353D",
"^.	c #30333B",
"/.	c #171D2A",
"(.	c #151B25",
"_.	c #1A202C",
":.	c #1D2430",
"<.	c #1D2431",
"[.	c #1B212E",
"}.	c #131822",
"|.	c #141923",
"1.	c #171D29",
"2.	c #1C2029",
"3.	c #393B45",
"4.	c #444751",
"5.	c #454852",
"6.	c #303541",
"7.	c #303B4F",
"8.	c #333F54",
"9.	c #303C51",
"0.	c #2D374A",
"a.	c #262E3E",
"b.	c #242C3B",
"c.	c #222A38",
"d.	c #1F2632",
"e.	c #1F2733",
"f.	c #202734",
"g.	c #232A38",
"h.	c #2F394C",
"i.	c #364257",
"j.	c #3B475F",
"k.	c #3F4C65",
"l.	c #414F69",
"m.	c #465470",
"n.	c #4B5B77",
"o.	c #4A5A76",
"p.	c #46546E",
"q.	c #4A5975",
"r.	c #4E5F7D",
"s.	c #516280",
"t.	c #4C5D7A",
"u.	c #495975",
"v.	c #3F4D66",
"w.	c #2F394B",
"x.	c #2D3648",
"y.	c #252E3C",
"z.	c #171C26",
"A.	c #212835",
"B.	c #212936",
"C.	c #242C3A",
"D.	c #283141",
"E.	c #354056",
"F.	c #3C4961",
"G.	c #425069",
"H.	c #4F5F7C",
"I.	c #566887",
"J.	c #5B6D8F",
"K.	c #5D7193",
"L.	c #607498",
"M.	c #617598",
"N.	c #5F7396",
"O.	c #5A6D8E",
"P.	c #556786",
"Q.	c #4F5F7D",
"R.	c #303A4D",
"S.	c #252E3D",
"T.	c #191F2A",
"U.	c #344054",
"V.	c #3F4B62",
"W.	c #495873",
"X.	c #4E5F7C",
"Y.	c #4D5E7A",
"Z.	c #45556F",
"`.	c #30394C",
" +	c #252C3A",
".+	c #1A1E27",
"++	c #101216",
"@+	c #070708",
"#+	c #020202",
"$+	c #040405",
"%+	c #050606",
"&+	c #08090A",
"*+	c #0D0E11",
"=+	c #0D0D0E",
"-+	c #101011",
";+	c #151513",
">+	c #2D2D1A",
",+	c #1C1C16",
"'+	c #161616",
")+	c #171717",
"!+	c #2F2F1C",
"~+	c #515123",
"{+	c #181815",
"]+	c #111111",
"^+	c #0B0B0B",
"/+	c #040404",
"(+	c #070707",
"_+	c #0A0A0A",
":+	c #0D0D0D",
"<+	c #101010",
"[+	c #121212",
"}+	c #848424",
"|+	c #EBEB1D",
"1+	c #A7A727",
"2+	c #191918",
"3+	c #191919",
"4+	c #181818",
"5+	c #AFAF26",
"6+	c #F5F513",
"7+	c #555522",
"8+	c #0C0C0C",
"9+	c #0B0F15",
"0+	c #05070A",
"a+	c #050506",
"b+	c #060607",
"c+	c #090909",
"d+	c #EBEB1C",
"e+	c #A6A627",
"f+	c #818125",
"g+	c #C4C424",
"h+	c #39391C",
"i+	c #28303F",
"j+	c #282F3E",
"k+	c #282E3B",
"l+	c #272B34",
"m+	c #1A1B1F",
"n+	c #0E0E0F",
"o+	c #161613",
"p+	c #2D2D1B",
"q+	c #1D1D18",
"r+	c #171716",
"s+	c #181816",
"t+	c #292728",
"u+	c #3B3C42",
"v+	c #393F4E",
"w+	c #242A35",
"x+	c #1E2431",
"y+	c #293342",
"z+	c #2D3647",
"A+	c #323C4E",
"B+	c #3E4556",
"C+	c #4A4F5C",
"D+	c #616168",
"E+	c #837E7E",
"F+	c #787577",
"G+	c #3F4045",
"H+	c #141414",
"I+	c #1A1A1D",
"J+	c #67676D",
"K+	c #837F82",
"L+	c #424958",
"M+	c #313B4C",
"N+	c #2A3444",
"O+	c #313C4F",
"P+	c #374255",
"Q+	c #3D475B",
"R+	c #77767E",
"S+	c #979292",
"T+	c #595D6B",
"U+	c #292C32",
"V+	c #383C45",
"W+	c #807E82",
"X+	c #717076",
"Y+	c #2C3544",
"Z+	c #262F3E",
"`+	c #2F3A4D",
" @	c #343F52",
".@	c #394357",
"+@	c #4C5364",
"@@	c #969192",
"#@	c #353C4A",
"$@	c #444854",
"%@	c #89888D",
"&@	c #5C5E69",
"*@	c #303A4C",
"=@	c #272F3D",
"-@	c #1D2532",
";@	c #232C3C",
">@	c #283142",
",@	c #2C3647",
"'@	c #2E394C",
")@	c #313C50",
"!@	c #364155",
"~@	c #374256",
"{@	c #82818A",
"]@	c #8B8B95",
"^@	c #414A5B",
"/@	c #13171D",
"(@	c #0F1115",
"_@	c #898E9E",
":@	c #4B5160",
"<@	c #1E2633",
"[@	c #212B3A",
"}@	c #242D3E",
"|@	c #283344",
"1@	c #2C374A",
"2@	c #303C4F",
"3@	c #323E52",
"4@	c #323F53",
"5@	c #606573",
"6@	c #999CAB",
"7@	c #696E7F",
"8@	c #2E3645",
"9@	c #1B222F",
"0@	c #757886",
"a@	c #828697",
"b@	c #333C4E",
"c@	c #2A3241",
"d@	c #202938",
"e@	c #212A3A",
"f@	c #222C3D",
"g@	c #242F40",
"h@	c #273346",
"i@	c #2B384C",
"j@	c #2D3B4F",
"k@	c #303D51",
"l@	c #364256",
"m@	c #8E93A5",
"n@	c #888D9F",
"o@	c #3C4556",
"p@	c #444650",
"q@	c #929096",
"r@	c #626570",
"s@	c #2E3A4C",
"t@	c #2D3748",
"u@	c #293242",
"v@	c #222833",
"w@	c #1B2330",
"x@	c #202A3A",
"y@	c #222B3C",
"z@	c #232E3F",
"A@	c #263143",
"B@	c #293448",
"C@	c #2C394D",
"D@	c #2D3A4F",
"E@	c #2E3B50",
"F@	c #2F3C50",
"G@	c #6E7385",
"H@	c #9499AC",
"I@	c #505666",
"J@	c #58575D",
"K@	c #908B8D",
"L@	c #333B4E",
"M@	c #2D394C",
"N@	c #2B3648",
"O@	c #252C39",
"P@	c #1E2635",
"Q@	c #202A3B",
"R@	c #222B3D",
"S@	c #242F41",
"T@	c #263144",
"U@	c #283447",
"V@	c #29364B",
"W@	c #2B384E",
"X@	c #2C3A4E",
"Y@	c #40495B",
"Z@	c #868A9B",
"`@	c #6C6F7C",
" #	c #333B4A",
".#	c #5F5F66",
"+#	c #2C384B",
"@#	c #293344",
"##	c #283040",
"$#	c #1E2636",
"%#	c #1F293A",
"&#	c #212B3D",
"*#	c #232D40",
"=#	c #253144",
"-#	c #273448",
";#	c #28354A",
">#	c #2B384D",
",#	c #2C394E",
"'#	c #797B89",
")#	c #7E7F8B",
"!#	c #394456",
"~#	c #1F2839",
"{#	c #253146",
"]#	c #2A3549",
"^#	c #2A3448",
"/#	c #283244",
"(#	c #273042",
"_#	c #121821",
":#	c #1D2535",
"<#	c #1E283A",
"[#	c #212B3F",
"}#	c #232F43",
"|#	c #273349",
"1#	c #29354B",
"2#	c #2A364B",
"3#	c #2D394E",
"4#	c #616472",
"5#	c #87848E",
"6#	c #4A5161",
"7#	c #263040",
"8#	c #222E43",
"9#	c #263246",
"0#	c #263044",
"a#	c #232D3E",
"b#	c #202837",
"c#	c #191E28",
"d#	c #14171F",
"e#	c #151922",
"f#	c #161E2C",
"g#	c #1B2435",
"h#	c #1E283B",
"i#	c #202B3F",
"j#	c #222D42",
"k#	c #232F44",
"l#	c #243045",
"m#	c #273248",
"n#	c #444A5A",
"o#	c #797780",
"p#	c #595C68",
"q#	c #26303F",
"r#	c #171F2F",
"s#	c #1A2232",
"t#	c #161A21",
"u#	c #191E26",
"v#	c #1A1F28",
"w#	c #1B1F27",
"x#	c #1A1E25",
"y#	c #171B21",
"z#	c #15191F",
"A#	c #151920",
"B#	c #161B23",
"C#	c #171B24",
"D#	c #171C27",
"E#	c #1A2029",
"F#	c #292B32",
"G#	c #202228",
"H#	c #16181D",
"I#	c #17191D",
"J#	c #191B1F",
"K#	c #1B1D21",
"L#	c #1A1D22",
"M#	c #13161B",
"N#	c #1B2029",
"O#	c #1B2129",
"P#	c #1C2129",
"Q#	c #1D2229",
"R#	c #1D2228",
"S#	c #1D2127",
"T#	c #1D2126",
"U#	c #1C2026",
"V#	c #1B1F25",
"W#	c #1A1F25",
"X#	c #161A20",
"Y#	c #1B202A",
"Z#	c #1B202B",
"`#	c #1C212B",
" $	c #1C222C",
".$	c #1E232E",
"+$	c #1F2530",
"@$	c #202631",
"#$	c #202530",
"$$	c #1F242D",
"%$	c #1F232C",
"&$	c #1E232B",
"*$	c #1E222A",
"=$	c #1B2027",
"-$	c #1A2027",
";$	c #181D25",
">$	c #1A1F29",
",$	c #1B212B",
"'$	c #202632",
")$	c #212734",
"!$	c #212733",
"~$	c #1F242F",
"{$	c #1E232D",
"]$	c #1E232C",
"^$	c #1C222B",
"/$	c #1A2028",
"($	c #1C222D",
"_$	c #1E2430",
":$	c #1F2532",
"<$	c #202834",
"[$	c #202735",
"}$	c #222935",
"|$	c #222835",
"1$	c #212834",
"2$	c #202732",
"3$	c #1E242F",
"4$	c #1B222C",
"5$	c #1C222E",
"6$	c #1F2633",
"7$	c #212836",
"8$	c #222A37",
"9$	c #222936",
"0$	c #202733",
"a$	c #1C212A",
"b$	c #1F2531",
"c$	c #1E2530",
"d$	c #1D2330",
"e$	c #202836",
"f$	c #212938",
"g$	c #222A39",
"h$	c #202633",
"i$	c #1E2531",
"j$	c #1A1F2A",
"k$	c #1C212C",
"l$	c #252D3B",
"m$	c #232B39",
"n$	c #232A39",
"o$	c #232B3B",
"p$	c #222B3A",
"q$	c #1D232E",
"r$	c #283140",
"s$	c #2B3444",
"t$	c #2E3849",
"u$	c #313D50",
"v$	c #212A38",
"w$	c #222938",
"x$	c #202835",
"y$	c #2C3749",
"z$	c #2A3343",
"A$	c #242B39",
"B$	c #212837",
"C$	c #293343",
"D$	c #3A475C",
"E$	c #3E4C64",
"F$	c #43516B",
"G$	c #475671",
"H$	c #4A5B78",
"I$	c #4C5D7C",
"J$	c #4B5C7A",
"K$	c #4D5E7C",
"L$	c #526382",
"M$	c #546686",
"N$	c #5A6C8F",
"O$	c #5C6F92",
"P$	c #536586",
"Q$	c #44536D",
"R$	c #374358",
"S$	c #313C4E",
"T$	c #2B3545",
"U$	c #19202C",
"V$	c #262F41",
"W$	c #2D384B",
"X$	c #37445A",
"Y$	c #404D66",
"Z$	c #4A5A77",
"`$	c #4F5F7E",
" %	c #56688A",
".%	c #5E7398",
"+%	c #64799F",
"@%	c #6B81A9",
"#%	c #7086AE",
"$%	c #6E84AC",
"%%	c #667BA0",
"&%	c #536584",
"*%	c #44536E",
"=%	c #2A3446",
"-%	c #232A3A",
";%	c #000000",
">%	c #010101",
",%	c #05070C",
"'%	c #1D2534",
")%	c #232D3D",
"!%	c #283245",
"~%	c #2A3447",
"{%	c #323D52",
"]%	c #3D4A63",
"^%	c #455470",
"/%	c #4C5C7B",
"(%	c #516382",
"_%	c #556788",
":%	c #546585",
"<%	c #4E5E7C",
"[%	c #343F55",
"}%	c #293447",
"|%	c #12171F",
"1%	c #1A222F",
"2%	c #202939",
"3%	c #252F41",
"4%	c #273244",
"5%	c #273144",
"6%	c #293346",
"7%	c #293345",
"8%	c #1D2432",
"9%	c #1B2230",
"0%	c #1B2331",
"a%	c #1F2736",
"b%	c #1F2838",
"c%	c #1F2837",
"d%	c #1E2736",
"e%	c #0E131C",
"f%	c #000001",
"                                                                                                                                ",
"                                                                                                                                ",
"                                                                                                                                ",
"                                                                                                                                ",
"                                                                                                                                ",
"                                                                                                                                ",
"                                                                                                                                ",
"                                                                                                                                ",
"                                              . + @ # + $                                                                       ",
"                                              % & * = - ; > ,                                                                   ",
"                                              ' ) ! ~ { ] ^ / (                                                                 ",
"                                              _ : < [ } | 1 2 3 4                                                               ",
"                                                  5 6 7 8 ] 9 | 0 a                                                             ",
"                                                  b & c 3 d e ] f g h                                                           ",
"                                                  i j [ 3 | k l m n o                                                           ",
"                                                  p q [ m 2 9 r s t u 4                                                         ",
"                                                v _ j w x k y z z A B C D                                                       ",
"                                                E F G H I J K L M N O P Q R                                                     ",
"                                                S T U V W F i X Y Z `  .T S                                                     ",
"                                                ..+.@.#.U $.%.U T &.*.=.-.;.S R                                                 ",
"                                              ..>.,.'. .).!.!.!.~.{.].^./.,.(._.D                                               ",
"                                          :.a <.[.T }.|.+.1.U 2.3.4.5.6.7.8.9.0.$ a.b.c.5 D                                     ",
"                                    a d.e.f.g.C h.i.j.k.l.m.n.o.p.q.r.s.t.u.r v.{ [ w.x.y.z.                                    ",
"                                  :.A.B.5 C.D.0.E.F.G.p.M H.I.J.K.L.M.N.O.P.Q.y | R.S.T.                                        ",
"                                      D d.c.D.u U.~ 8 1 0 V.N W.X.Y.Z.I `. +.+++@+                                              ",
"                                              #+$+%+&+*+=+-+;+>+,+'+)+)+!+~+{+]+^+                                              ",
"                                              #+/+(+_+:+<+[+}+|+1+2+3+4+5+6+7+]+8+                                              ",
"                                            9+0+a+b+c+8+<+[+}+d+e+2+4+4+f+g+h+]+=+                                              ",
"                                            4 i+j+k+l+m+n+<+o+p+q+)+)+)+r+s+t+u+v+w+                                            ",
"                                            x+p y+z+A+B+C+D+E+F+G+H+'+'+I+J+K+L+M+                                              ",
"                                              P i+N+0.O+P+Q+R+S+T+U+H+H+V+W+X+A+Y+                                              ",
"                                              ( Z+$ q `+ @.@+@@@R+#@]+<+$@%@&@*@=@                                              ",
"                                              -@;@>@,@'@)@!@~@{@]@^@/@(@T+_@:@j  +                                              ",
"                                              <@[@}@|@1@2@3@4@5@6@7@8@9@0@a@b@x.c@                                              ",
"                                              d@e@f@g@h@i@j@k@l@m@n@o@p@q@r@s@t@u@v@                                            ",
"                                            w@x@y@z@A@B@C@D@E@F@G@H@I@J@K@L@M@N@y+O@                                            ",
"                                            P@Q@R@S@T@U@V@W@X@E@Y@Z@`@ #.#B@+#N@@###                                            ",
"                                          +.$#%#&#*#=#-#;#i@>#,#k@'#)#!#~#{#]#^#/#(#d.                                          ",
"                                          _#!.:#<#[#}#{#|#1#V@2#3#4#5#6#7#8#9#0#a#b#c#                                          ",
"                                            d#e#(.f#g#h#i#j#k#l#m#n#o#p#q#r#s#~.t#++                                            ",
"                                            u#v#w#x#y#z#A#B#C#z.D#E#F#G#H#I#J#K#L#M#                                            ",
"                                            E#E#E#N#O#P#Q#Q#Q#Q#R#S#S#S#T#U#U#V#W#X#                                            ",
"                                          c#Y#Y#Z#`# $.$+$@$@$#$$$%$&$*${.{.P#=$-$;$                                            ",
"                                          >$Y#,$ $D x+'$f.)$A.!$'$@$~${$]$]$^$Y#/$v#                                            ",
"                                        c#,$,$($D _$:$<$[$A.}$|$1$2$#$~$+$3$ $`#Y#`#B#                                          ",
"                                        >$4$5$D x+6$f.7$4 8$5 9$1$0$'$A.A.+$ $a$`#_$h                                           ",
"                                        b$c$d$x+6$e$4 f$c.c.9$7$9$5 g$5 h$3$ $`#i$a j$                                          ",
"                                      k$g. +l$m$[$[$4 4 c.n$n$P o$p$c.f.b$3$q$i$f.c.0$                                          ",
"                                      v C.r$s$t$O+u$`+o o$f$v$w$f$x$6$:$f.i y$j z+z$A$                                          ",
"                                      <@B$o$C$O+i.D$E$F$G$H$I$J$K$L$M$N$O$P$Q$R$S$T$g.                                          ",
"                                        U$o$}@V$W$X$Y$r Z$`$ %.%+%@%#%$%%%&%*%i.=%-%:.                                          ",
"                                      ;%>%,%;.'%)%!%/#~%{%]%^%/%(%_%:%<%l.[%}%V$}@a |%                                          ",
"                                                  1%2%3%4%/#4%5%/#/#!%!%6%7%d@8%_#                                              ",
"                                                          1.9%0%a%b%c%d%w@e%f%                                                  ",
"                                                                          ;%;%;%                                                ",
"                                                                            ;%;%                                                ",
"                                                                            ;%;%                                                ",
"                                                                                                                                ",
"                                                                                                                                ",
"                                                                                                                                ",
"                                                                                                                                ",
"                                                                                                                                ",
"                                                                                                                                ",
"                                                                                                                                "};
