/* XPM */
static char * player_walk_4_xpm[] = {
"64 64 583 2",
"  	c None",
". 	c #262F3E",
"+ 	c #2B3445",
"@ 	c #27303F",
"# 	c #191F2A",
"$ 	c #344054",
"% 	c #364156",
"& 	c #38445A",
"* 	c #3A465C",
"= 	c #3A455B",
"- 	c #303A4C",
"; 	c #171D28",
"> 	c #2D384B",
", 	c #3F4C65",
"' 	c #121721",
") 	c #283141",
"! 	c #3D495F",
"~ 	c #3C495F",
"{ 	c #384459",
"] 	c #232B39",
"^ 	c #2F3A4D",
"/ 	c #546685",
"( 	c #45546E",
"_ 	c #232C3A",
": 	c #364258",
"< 	c #3A465D",
"[ 	c #404D64",
"} 	c #3F4C63",
"| 	c #3A475D",
"1 	c #343F54",
"2 	c #2A3445",
"3 	c #262F3F",
"4 	c #374359",
"5 	c #3C485F",
"6 	c #404D65",
"7 	c #3F4C64",
"8 	c #39455B",
"9 	c #2E3749",
"0 	c #273040",
"a 	c #313C4F",
"b 	c #39465C",
"c 	c #3D4A61",
"d 	c #414E67",
"e 	c #3B475E",
"f 	c #374358",
"g 	c #2F394C",
"h 	c #39455C",
"i 	c #3D4961",
"j 	c #404E66",
"k 	c #333E52",
"l 	c #262E3D",
"m 	c #2D3749",
"n 	c #333E53",
"o 	c #38445B",
"p 	c #3D4960",
"q 	c #404E65",
"r 	c #43516A",
"s 	c #364257",
"t 	c #2E384A",
"u 	c #202735",
"v 	c #2C3648",
"w 	c #3F4D65",
"x 	c #44526C",
"y 	c #495974",
"z 	c #4B5B77",
"A 	c #313C51",
"B 	c #1D2430",
"C 	c #313D51",
"D 	c #38455B",
"E 	c #3E4B63",
"F 	c #46556F",
"G 	c #4F5F7C",
"H 	c #50607D",
"I 	c #4B5A76",
"J 	c #3B4960",
"K 	c #283142",
"L 	c #1C232F",
"M 	c #181D28",
"N 	c #252E3E",
"O 	c #2B3547",
"P 	c #414F68",
"Q 	c #3F4C62",
"R 	c #3B4354",
"S 	c #414653",
"T 	c #3D414C",
"U 	c #161B25",
"V 	c #181E29",
"W 	c #181E28",
"X 	c #181F2B",
"Y 	c #1A202D",
"Z 	c #1B222F",
"` 	c #1B222E",
" .	c #1D2029",
"..	c #2B2E37",
"+.	c #2A2D36",
"@.	c #3A3D46",
"#.	c #353841",
"$.	c #191E27",
"%.	c #161C27",
"&.	c #181E2A",
"*.	c #171E29",
"=.	c #141A25",
"-.	c #151B26",
";.	c #191F2C",
">.	c #19202D",
",.	c #1A212E",
"'.	c #1B1F27",
").	c #343740",
"!.	c #171C27",
"~.	c #161C28",
"{.	c #141A24",
"].	c #191F2B",
"^.	c #1F2532",
"/.	c #1F2632",
"(.	c #1D232F",
"_.	c #1C232E",
":.	c #1C212D",
"<.	c #131823",
"[.	c #131924",
"}.	c #161D29",
"|.	c #1A1F2A",
"1.	c #2B2F39",
"2.	c #3A3D47",
"3.	c #474A55",
"4.	c #202531",
"5.	c #2B3548",
"6.	c #313D52",
"7.	c #303B50",
"8.	c #2D374A",
"9.	c #293242",
"0.	c #1A202B",
"a.	c #111620",
"b.	c #212937",
"c.	c #2C313C",
"d.	c #3B404C",
"e.	c #3F4759",
"f.	c #435067",
"g.	c #495976",
"h.	c #475671",
"i.	c #44536D",
"j.	c #354156",
"k.	c #242C3B",
"l.	c #1E2430",
"m.	c #222A38",
"n.	c #272F3F",
"o.	c #323D52",
"p.	c #38455C",
"q.	c #3F4D66",
"r.	c #44536E",
"s.	c #4D5D7A",
"t.	c #566888",
"u.	c #596C8D",
"v.	c #5C7092",
"w.	c #5B6E90",
"x.	c #5A6C8E",
"y.	c #546584",
"z.	c #4E5E7B",
"A.	c #252D3D",
"B.	c #1F2633",
"C.	c #202734",
"D.	c #222937",
"E.	c #252E3D",
"F.	c #2C3647",
"G.	c #344055",
"H.	c #3D4A62",
"I.	c #425069",
"J.	c #47556F",
"K.	c #4B5A75",
"L.	c #566786",
"M.	c #5A6C8D",
"N.	c #607497",
"O.	c #63789C",
"P.	c #5E7194",
"Q.	c #526382",
"R.	c #2F394B",
"S.	c #1C222C",
"T.	c #0E0F11",
"U.	c #040404",
"V.	c #1E2531",
"W.	c #212836",
"X.	c #2B3546",
"Y.	c #313C50",
"Z.	c #435069",
"`.	c #364256",
" +	c #3F4B62",
".+	c #3E4A61",
"++	c #404C61",
"@+	c #364155",
"#+	c #262D3B",
"$+	c #1A1D25",
"%+	c #151515",
"&+	c #7B7B23",
"*+	c #797923",
"=+	c #141413",
"-+	c #101010",
";+	c #080808",
">+	c #1B212C",
",+	c #1E2532",
"'+	c #1E2533",
")+	c #131720",
"!+	c #141921",
"~+	c #151920",
"{+	c #0D0E10",
"]+	c #111211",
"^+	c #A4A425",
"/+	c #E9E91A",
"(+	c #686826",
"_+	c #181818",
":+	c #24241B",
"<+	c #E0E023",
"[+	c #E4E421",
"}+	c #262618",
"|+	c #090909",
"1+	c #010101",
"2+	c #030303",
"3+	c #050505",
"4+	c #070707",
"5+	c #0A0A0A",
"6+	c #0D0D0D",
"7+	c #191914",
"8+	c #D6D625",
"9+	c #FFFF00",
"0+	c #AAAA28",
"a+	c #23231B",
"b+	c #EDED1E",
"c+	c #2E2E1A",
"d+	c #191F29",
"e+	c #141820",
"f+	c #0D0F14",
"g+	c #0A0B0B",
"h+	c #B0B027",
"i+	c #FAFA0D",
"j+	c #878728",
"k+	c #171717",
"l+	c #181817",
"m+	c #8D8D26",
"n+	c #A2A225",
"o+	c #181814",
"p+	c #101111",
"q+	c #262930",
"r+	c #2C3545",
"s+	c #30394A",
"t+	c #353C4B",
"u+	c #363B45",
"v+	c #38393E",
"w+	c #3F3D3E",
"x+	c #4E4B43",
"y+	c #6D6B43",
"z+	c #22221C",
"A+	c #161616",
"B+	c #3F3E41",
"C+	c #625F60",
"D+	c #4C4F5A",
"E+	c #394152",
"F+	c #1B212D",
"G+	c #293241",
"H+	c #333D50",
"I+	c #3E485A",
"J+	c #585C6A",
"K+	c #8F8A8D",
"L+	c #8F8B8D",
"M+	c #525560",
"N+	c #19191B",
"O+	c #2A2C32",
"P+	c #76757B",
"Q+	c #7E7B7F",
"R+	c #364052",
"S+	c #2F3848",
"T+	c #2A3343",
"U+	c #303B4E",
"V+	c #364154",
"W+	c #3B4659",
"X+	c #646772",
"Y+	c #9A9494",
"Z+	c #666872",
"`+	c #323640",
" @	c #131313",
".@	c #121213",
"+@	c #3C414C",
"@@	c #868386",
"#@	c #66676F",
"$@	c #313C4D",
"%@	c #2A3241",
"&@	c #1E2633",
"*@	c #252F3D",
"=@	c #2F394D",
"-@	c #333D51",
";@	c #384256",
">@	c #3F485B",
",@	c #8F8B8F",
"'@	c #7E7D85",
")@	c #394151",
"!@	c #0F0F10",
"~@	c #0E0E0F",
"{@	c #4D515D",
"]@	c #8A8B95",
"^@	c #565A67",
"/@	c #252D3A",
"(@	c #1D2532",
"_@	c #222B3B",
":@	c #273041",
"<@	c #2E394C",
"[@	c #354054",
"}@	c #354155",
"|@	c #757784",
"1@	c #9697A3",
"2@	c #505869",
"3@	c #1F2530",
"4@	c #11161E",
"5@	c #646877",
"6@	c #888DA0",
"7@	c #3F4757",
"8@	c #2D3748",
"9@	c #272F3D",
"0@	c #1F2735",
"a@	c #212B3A",
"b@	c #222C3D",
"c@	c #253042",
"d@	c #293548",
"e@	c #2E3A4E",
"f@	c #303D51",
"g@	c #313E52",
"h@	c #4B5263",
"i@	c #979BAB",
"j@	c #797E8F",
"k@	c #353E4E",
"l@	c #252C3B",
"m@	c #858691",
"n@	c #797C89",
"o@	c #2D3648",
"p@	c #2A3242",
"q@	c #1F252E",
"r@	c #1A212D",
"s@	c #212939",
"t@	c #212A3B",
"u@	c #222D3E",
"v@	c #242F41",
"w@	c #273346",
"x@	c #2C384C",
"y@	c #2D3B4F",
"z@	c #2F3C51",
"A@	c #828799",
"B@	c #9095A8",
"C@	c #434B5C",
"D@	c #5A595F",
"E@	c #959093",
"F@	c #484D5B",
"G@	c #2E3A4C",
"H@	c #2C3748",
"I@	c #232A36",
"J@	c #1C2432",
"K@	c #202A3A",
"L@	c #242F40",
"M@	c #263144",
"N@	c #2B384C",
"O@	c #2C3A4F",
"P@	c #2D3B50",
"Q@	c #2E3B50",
"R@	c #5A6071",
"S@	c #9398AB",
"T@	c #5C616F",
"U@	c #44464F",
"V@	c #837F82",
"W@	c #2D364A",
"X@	c #2D394C",
"Y@	c #2B3648",
"Z@	c #262E3C",
"`@	c #1E2737",
" #	c #202A3B",
".#	c #212B3D",
"+#	c #242E40",
"@#	c #283447",
"##	c #28364A",
"$#	c #2B384D",
"%#	c #2C394E",
"&#	c #2D3A4F",
"*#	c #333F53",
"=#	c #7D8090",
"-#	c #353F51",
";#	c #3A3E4A",
">#	c #273347",
",#	c #2B374A",
"'#	c #293345",
")#	c #1F242F",
"!#	c #1D2534",
"~#	c #1E2839",
"{#	c #202B3D",
"]#	c #222D40",
"^#	c #243044",
"/#	c #263348",
"(#	c #28354A",
"_#	c #2A374C",
":#	c #2F3C50",
"<#	c #707280",
"[#	c #84848F",
"}#	c #3D4759",
"|#	c #253045",
"1#	c #293448",
"2#	c #293347",
"3#	c #273144",
"4#	c #262E3F",
"5#	c #1E2530",
"6#	c #151B25",
"7#	c #171F2C",
"8#	c #1B2535",
"9#	c #1E293B",
"0#	c #212C40",
"a#	c #232E43",
"b#	c #263147",
"c#	c #273349",
"d#	c #28344A",
"e#	c #2B374D",
"f#	c #565A68",
"g#	c #86838B",
"h#	c #283243",
"i#	c #202A3F",
"j#	c #232E41",
"k#	c #222C3E",
"l#	c #181D26",
"m#	c #1A2029",
"n#	c #161B22",
"o#	c #141A22",
"p#	c #161E2B",
"q#	c #192131",
"r#	c #1B2435",
"s#	c #1C2638",
"t#	c #1D283B",
"u#	c #202A3D",
"v#	c #313848",
"w#	c #5C5C65",
"x#	c #464852",
"y#	c #10141D",
"z#	c #151922",
"A#	c #15171C",
"B#	c #141518",
"C#	c #1A202A",
"D#	c #1B2029",
"E#	c #1B2129",
"F#	c #1C2128",
"G#	c #1B2026",
"H#	c #1A1F24",
"I#	c #1A1E22",
"J#	c #191D21",
"K#	c #191C20",
"L#	c #191B20",
"M#	c #1A1C21",
"N#	c #1B1D21",
"O#	c #1B1D20",
"P#	c #181B1F",
"Q#	c #191E28",
"R#	c #1B202A",
"S#	c #1B202B",
"T#	c #1C212B",
"U#	c #1C212C",
"V#	c #1D222D",
"W#	c #1E242F",
"X#	c #1F252F",
"Y#	c #1F242E",
"Z#	c #1E232B",
"`#	c #1E2229",
" $	c #1D2229",
".$	c #1D2228",
"+$	c #1D2127",
"@$	c #1D2026",
"#$	c #1C2025",
"$$	c #1B1F25",
"%$	c #1B1E24",
"&$	c #191D24",
"*$	c #1A1F29",
"=$	c #1B212B",
"-$	c #1C222D",
";$	c #1D232E",
">$	c #202733",
",$	c #212834",
"'$	c #212733",
")$	c #1F242D",
"!$	c #1E222A",
"~$	c #1D2129",
"{$	c #1C2129",
"]$	c #1B2028",
"^$	c #1A2027",
"/$	c #212835",
"($	c #222835",
"_$	c #212734",
":$	c #202632",
"<$	c #202530",
"[$	c #1E242E",
"}$	c #1E232D",
"|$	c #1E232C",
"1$	c #1D222B",
"2$	c #1A2028",
"3$	c #14171F",
"4$	c #1C222E",
"5$	c #222936",
"6$	c #202631",
"7$	c #1F2430",
"8$	c #161B23",
"9$	c #1F2634",
"0$	c #202836",
"a$	c #212938",
"b$	c #222938",
"c$	c #1C212A",
"d$	c #181D27",
"e$	c #252D3B",
"f$	c #272F3E",
"g$	c #293141",
"h$	c #283040",
"i$	c #232B3A",
"j$	c #222A37",
"k$	c #232A38",
"l$	c #232A39",
"m$	c #212936",
"n$	c #1D242F",
"o$	c #151A23",
"p$	c #202835",
"q$	c #283140",
"r$	c #2D3747",
"s$	c #303A4D",
"t$	c #343F53",
"u$	c #354055",
"v$	c #272F40",
"w$	c #222A39",
"x$	c #222A3A",
"y$	c #222B3A",
"z$	c #1F2531",
"A$	c #232C3C",
"B$	c #404D66",
"C$	c #42516D",
"D$	c #3A475F",
"E$	c #2E384B",
"F$	c #121620",
"G$	c #1D2533",
"H$	c #252E3F",
"I$	c #263042",
"J$	c #2C3649",
"K$	c #475772",
"L$	c #4A5976",
"M$	c #4F5F7E",
"N$	c #596C90",
"O$	c #5F749A",
"P$	c #64799F",
"Q$	c #677CA1",
"R$	c #63789D",
"S$	c #62779C",
"T$	c #5C6F92",
"U$	c #4F607E",
"V$	c #343F52",
"W$	c #0E131C",
"X$	c #161D28",
"Y$	c #252F40",
"Z$	c #283245",
"`$	c #2F3A4E",
" %	c #3F4C66",
".%	c #4C5C7B",
"+%	c #576A8C",
"@%	c #667CA3",
"#%	c #6F85AD",
"$%	c #7086AE",
"%%	c #6D83AB",
"&%	c #5D7093",
"*%	c #4D5D7B",
"=%	c #2B3446",
"-%	c #1B2331",
";%	c #232D3E",
">%	c #273244",
",%	c #283244",
"'%	c #283345",
")%	c #2E394D",
"!%	c #354258",
"~%	c #3B4961",
"{%	c #3E4B64",
"]%	c #3C4961",
"^%	c #2F3B4F",
"/%	c #242C3C",
"(%	c #0D121B",
"_%	c #283346",
":%	c #293346",
"<%	c #1C2431",
"[%	c #000000",
"}%	c #171E2A",
"|%	c #141B26",
"1%	c #121823",
"2%	c #10151F",
"                                                                                                                                ",
"                                                                                                                                ",
"                                                                                                                                ",
"                                                                                                                                ",
"                                                                                                                                ",
"                                                                                                                                ",
"                                                                                                                                ",
"                                              . + @ #                                                                           ",
"                                            $ % & * = - ;                                                                       ",
"                                          > , ' ) & ! ~ { ]                                                                     ",
"                                          ^ / ( _ : < [ } | +                                                                   ",
"                                            1 2 3 1 4 5 6 7 8 9                                                                 ",
"                                                0 a % b c d e f +                                                               ",
"                                                3 g 1 h i j j { k l                                                             ",
"                                                3 m n o p q r 7 s t u                                                           ",
"                                                3 v k < w x y z d A ) B                                                         ",
"                                                3 v C D E F G H I J K L M                                                       ",
"                                                N O A h P F Q R S T U ; V W                                                     ",
"                                              ; # X Y Z ` X  ...+.@.#.$.%.V W                                                   ",
"                                              &.*.=.-.&.;.>.,.,.'.).@.!.~.{.].^./.B (._.:.                                      ",
"                                              ].~.<.[.}.;.>.>.|.1.2.3.4.5.6.7.8.2 9.) 9.@                                       ",
"                                            0.V {.a.a.=.%.Y b.c.d.e.f.z g.h.i., < j.g k.                                        ",
"                                        l./.m.n.8.o.p.q.r.s./ t.u.v.w.x.t.y.z.r 1 A.                                            ",
"                                  l./.B.C.D.E.F.G.H.I.J.K.H L.M.N.O.P.Q.I.R.S.T.U.                                              ",
"                                  V.W.D.] . X.Y.& h 6 Z.`. +.+++@+#+$+%+&+*+=+-+;+                                              ",
"                                      >+(.,+B '+,+)+!+~+{+]+^+/+(+_+_+:+<+[+}+-+|+                                              ",
"                                            1+2+3+4+5+6+-+7+8+9+0+_+_+a+<+b+c+-+|+                                              ",
"                                            # d+e+f+g+6+-+=+h+i+j+k+_+l+m+n+o+p+q+                                              ",
"                                            W.9.r+s+t+u+v+w+x+y+z+A+k+A+%+B+C+D+E+                                              ",
"                                            F+l G+X.R.H+I+J+K+L+M+N+%+%+O+P+Q+R+S+                                              ",
"                                              b.@ T+m U+V+W+X+Y+Z+`+ @.@+@@@#@$@%@                                              ",
"                                              &@*@9.v =@-@;@>@,@'@)@!@~@{@]@^@R./@                                              ",
"                                              (@_@:@O <@Y.[@}@|@1@2@3@4@5@6@7@8@9@                                              ",
"                                              0@a@b@c@d@e@f@g@h@i@j@k@l@m@n@- o@p@q@                                            ",
"                                            r@s@t@u@v@w@x@y@z@g@A@B@C@D@E@F@G@H@9.I@                                            ",
"                                            J@K@b@L@M@d@N@O@P@Q@R@S@T@U@V@W@X@Y@T+Z@                                            ",
"                                            `@ #.#+#M@@###$#%#&#*#=#|@-#;#>#,#Y@'#K )#                                          ",
"                                          %.!#~#{#]#^#/#(#_#$#$#:#<#[#}#_@|#1#2#3#4#5#                                          ",
"                                            6#7#8#9#0#a#b#c#d#d#e#f#g#f#h#i#j#k#!#].                                            ",
"                                          l#m#$.n#o#-.p#q#r#s#t#u#v#w#x#L y#z#A#B#                                              ",
"                                          d+C#m#D#E#E#F#G#H#I#J#K#K#L#M#N#N#O#O#P#                                              ",
"                                        Q#R#R#S#T#U#V#W#)#X#Y#Z#`# $.$+$@$#$$$%$&$                                              ",
"                                        *$R#=$-$;$l./.>$C.,$'$3@Y#)$Z#!$~${$]$^$^$                                              ",
"                                      Q#=$>+-$(.l.^.>$u /$($/$_$:$<$[$}$|$1$R#2$2$3$                                            ",
"                                      -$4$(.B V.B.C.W.W.D.D.5$/$'$6$3@3@7$-$T#R#D#8$                                            ",
"                                    =$D.5$/.V.9$0$b.a$b$m.D.($,$_$_$W./$5#S.c$R#;$d$                                            ",
"                                    l.e$f$g$h$i$0$b.b.m.m.j$k$l$i$i$m$:$W#S.T#n$V.d+                                            ",
"                                  o$p$a$q$r$s$t$u$U+v$b$w$w$x$y$w$m$>$z$W#V#l.B.B.-$                                            ",
"                                    # w$A$:@a D 5 B$x r.C$D$E$E.m.W.D.] E.) 9.G+q$>$                                            ",
"                                      F$G$H$I$J$h I.K$L$M$N$O$P$Q$R$S$T$U$B$V$t T+,$                                            ",
"                                          W$X$Y$Z$Z$`$ %.%+%O$@%#%$%%%&%*%B$$ =%i$>+                                            ",
"                                                -%;%>%,%>%'%)%!%~%{%]%: ^%,%H$/%'+                                              ",
"                                                    (%-.!#A$I$_%_%_%:%:%H$y$<%6#                                                ",
"                                                      [%        }%|%1%2%                                                        ",
"                                                                  [%[%[%                                                        ",
"                                                                  [%[%[%                                                        ",
"                                                                  [%[%                                                          ",
"                                                                  [%[%                                                          ",
"                                                                  [%                                                            ",
"                                                                                                                                ",
"                                                                                                                                ",
"                                                                                                                                ",
"                                                                                                                                ",
"                                                                                                                                "};
