/* XPM */
static char * player_walk_18_xpm[] = {
"64 64 563 2",
"  	c None",
". 	c #262F3E",
"+ 	c #313B4F",
"@ 	c #323D50",
"# 	c #2D3648",
"$ 	c #212937",
"% 	c #2C3648",
"& 	c #374359",
"* 	c #2A3344",
"= 	c #384359",
"- 	c #3A465C",
"; 	c #3B475D",
"> 	c #313C4F",
", 	c #181E29",
"' 	c #404F68",
") 	c #465670",
"! 	c #1E2532",
"~ 	c #2F394C",
"{ 	c #39455B",
"] 	c #3D4960",
"^ 	c #3D4A61",
"/ 	c #354055",
"( 	c #4C5D79",
"_ 	c #303B4E",
": 	c #374258",
"< 	c #3B485F",
"[ 	c #404C63",
"} 	c #3F4B63",
"| 	c #283041",
"1 	c #344054",
"2 	c #38445A",
"3 	c #3D4A60",
"4 	c #414E67",
"5 	c #283142",
"6 	c #1E2531",
"7 	c #2E374A",
"8 	c #323D51",
"9 	c #3B485E",
"0 	c #3F4C64",
"a 	c #354155",
"b 	c #242C3B",
"c 	c #202735",
"d 	c #2B3546",
"e 	c #364258",
"f 	c #3B475E",
"g 	c #3E4A62",
"h 	c #43516B",
"i 	c #3C4960",
"j 	c #364257",
"k 	c #303A4D",
"l 	c #2A3445",
"m 	c #404D65",
"n 	c #45536C",
"o 	c #475671",
"p 	c #414F67",
"q 	c #343F53",
"r 	c #293344",
"s 	c #1B212D",
"t 	c #222A38",
"u 	c #3E4B63",
"v 	c #4A5A75",
"w 	c #4E5E7A",
"x 	c #485772",
"y 	c #3B4860",
"z 	c #2C3749",
"A 	c #222A39",
"B 	c #2F3A4E",
"C 	c #47556F",
"D 	c #4F5E7B",
"E 	c #4A5973",
"F 	c #445169",
"G 	c #3A4559",
"H 	c #242C3C",
"I 	c #1A202C",
"J 	c #171D27",
"K 	c #1D2431",
"L 	c #212938",
"M 	c #262E3F",
"N 	c #293242",
"O 	c #202632",
"P 	c #30323B",
"Q 	c #3E414B",
"R 	c #474A55",
"S 	c #2D3039",
"T 	c #161C26",
"U 	c #161C27",
"V 	c #181D28",
"W 	c #181E2A",
"X 	c #151B26",
"Y 	c #141A25",
"Z 	c #171E2A",
"` 	c #181F2C",
" .	c #19202D",
"..	c #1A212E",
"+.	c #19202C",
"@.	c #171C26",
"#.	c #353841",
"$.	c #40434E",
"%.	c #23262F",
"&.	c #161C28",
"*.	c #161B25",
"=.	c #191F2B",
"-.	c #171D29",
";.	c #131924",
">.	c #131823",
",.	c #181F2B",
"'.	c #191F2C",
").	c #171D28",
"!.	c #22252C",
"~.	c #40434D",
"{.	c #272A33",
"].	c #1C2331",
"^.	c #222B3A",
"/.	c #262E3E",
"(.	c #222937",
"_.	c #212835",
":.	c #202734",
"<.	c #1B212C",
"[.	c #191F2A",
"}.	c #151A25",
"|.	c #121721",
"1.	c #111721",
"2.	c #161D28",
"3.	c #23262E",
"4.	c #3D404A",
"5.	c #424650",
"6.	c #3D4452",
"7.	c #414F68",
"8.	c #354157",
"9.	c #313C50",
"0.	c #2E384A",
"a.	c #2C3547",
"b.	c #2C3546",
"c.	c #252D3B",
"d.	c #1D2430",
"e.	c #1F2633",
"f.	c #262F3F",
"g.	c #2C3649",
"h.	c #3F4D66",
"i.	c #4E5E7C",
"j.	c #4E5F7C",
"k.	c #4F5F7D",
"l.	c #566888",
"m.	c #576A8B",
"n.	c #546685",
"o.	c #516281",
"p.	c #50607E",
"q.	c #4D5D79",
"r.	c #3F4D65",
"s.	c #283141",
"t.	c #1D2330",
"u.	c #1F2733",
"v.	c #222A37",
"w.	c #2C3647",
"x.	c #343F55",
"y.	c #3D4961",
"z.	c #425069",
"A.	c #46556E",
"B.	c #50607D",
"C.	c #576888",
"D.	c #5A6D8E",
"E.	c #5E7294",
"F.	c #63789C",
"G.	c #63779B",
"H.	c #5D7193",
"I.	c #526382",
"J.	c #46556F",
"K.	c #272F3F",
"L.	c #191E29",
"M.	c #1D232E",
"N.	c #212836",
"O.	c #242B3A",
"P.	c #273040",
"Q.	c #3F4C63",
"R.	c #424F68",
"S.	c #374358",
"T.	c #404C64",
"U.	c #414E66",
"V.	c #384459",
"W.	c #293140",
"X.	c #1C2029",
"Y.	c #2F301D",
"Z.	c #3B3B1C",
"`.	c #131312",
" +	c #101010",
".+	c #080808",
"++	c #131821",
"@+	c #141923",
"#+	c #151A24",
"$+	c #0C0F15",
"%+	c #101218",
"&+	c #12151B",
"*+	c #0D0E0F",
"=+	c #101011",
"-+	c #6E6E21",
";+	c #C8C822",
">+	c #585823",
",+	c #181818",
"'+	c #1A1A18",
")+	c #BEBE27",
"!+	c #DCDC22",
"~+	c #292919",
"{+	c #111111",
"]+	c #0A0A0A",
"^+	c #010101",
"/+	c #020202",
"(+	c #040404",
"_+	c #070707",
":+	c #0D0D0D",
"<+	c #141413",
"[+	c #C4C426",
"}+	c #FFFF00",
"|+	c #B4B428",
"1+	c #191919",
"2+	c #1E1E19",
"3+	c #D9D925",
"4+	c #F7F718",
"5+	c #454520",
"6+	c #0F141C",
"7+	c #0B0E13",
"8+	c #07070A",
"9+	c #070708",
"0+	c #131313",
"a+	c #B7B727",
"b+	c #AEAE28",
"c+	c #191918",
"d+	c #ADAD28",
"e+	c #DBDB22",
"f+	c #2B2B19",
"g+	c #111216",
"h+	c #2A3242",
"i+	c #2B3342",
"j+	c #2C3342",
"k+	c #2D323E",
"l+	c #27292F",
"m+	c #151516",
"n+	c #121212",
"o+	c #46461E",
"p+	c #A1A124",
"q+	c #42421E",
"r+	c #171717",
"s+	c #242419",
"t+	c #353523",
"u+	c #403E3F",
"v+	c #43454C",
"w+	c #3C4252",
"x+	c #242935",
"y+	c #3A4354",
"z+	c #4C5260",
"A+	c #63646D",
"B+	c #8C8687",
"C+	c #837F81",
"D+	c #464850",
"E+	c #141414",
"F+	c #161616",
"G+	c #151515",
"H+	c #1E1F23",
"I+	c #6E6D74",
"J+	c #827F82",
"K+	c #3D4556",
"L+	c #303A4B",
"M+	c #232A39",
"N+	c #27303F",
"O+	c #2A3444",
"P+	c #2D3749",
"Q+	c #374255",
"R+	c #3D475A",
"S+	c #71717B",
"T+	c #999393",
"U+	c #5C606D",
"V+	c #2D3038",
"W+	c #393E48",
"X+	c #838083",
"Y+	c #323C4E",
"Z+	c #2B3443",
"`+	c #293243",
" @	c #2F3A4D",
".@	c #343E52",
"+@	c #394357",
"@@	c #484F61",
"#@	c #959092",
"$@	c #7A7980",
"%@	c #363E4C",
"&@	c #0F0F0F",
"*@	c #474B57",
"=@	c #8A888F",
"-@	c #595D69",
";@	c #303A4C",
">@	c #262E3C",
",@	c #1D2532",
"'@	c #232C3B",
")@	c #2E394C",
"!@	c #364154",
"~@	c #364256",
"{@	c #7E7F89",
"]@	c #8F8F9A",
"^@	c #454D5F",
"/@	c #171B23",
"(@	c #5C606E",
"_@	c #898EA0",
":@	c #484E5E",
"<@	c #262D3A",
"[@	c #1E2634",
"}@	c #212B3A",
"|@	c #232D3E",
"1@	c #273244",
"2@	c #2F3B4F",
"3@	c #323E52",
"4@	c #323F53",
"5@	c #5A5F6E",
"6@	c #999CAB",
"7@	c #6E7385",
"8@	c #303948",
"9@	c #1D2433",
"0@	c #7A7C8A",
"a@	c #7F8493",
"b@	c #313B4D",
"c@	c #2A3241",
"d@	c #202938",
"e@	c #212A3A",
"f@	c #222C3D",
"g@	c #242F41",
"h@	c #273346",
"i@	c #2B384C",
"j@	c #2D3B4F",
"k@	c #2F3C51",
"l@	c #8B8FA2",
"m@	c #8B90A2",
"n@	c #3D4758",
"o@	c #4C4D55",
"p@	c #949196",
"q@	c #5B5E6A",
"r@	c #2E3A4C",
"s@	c #2D3748",
"t@	c #222934",
"u@	c #202A3A",
"v@	c #222B3C",
"w@	c #242F40",
"x@	c #263144",
"y@	c #293448",
"z@	c #2C394D",
"A@	c #2D3A4F",
"B@	c #2E3B50",
"C@	c #2F3C50",
"D@	c #686D7F",
"E@	c #9599AD",
"F@	c #545968",
"G@	c #535359",
"H@	c #8D888A",
"I@	c #30394D",
"J@	c #2D394C",
"K@	c #2B3648",
"L@	c #293343",
"M@	c #252C3A",
"N@	c #1E2636",
"O@	c #202A3B",
"P@	c #222B3D",
"Q@	c #283447",
"R@	c #29364A",
"S@	c #2B384D",
"T@	c #2C394E",
"U@	c #3B4558",
"V@	c #838798",
"W@	c #6F717F",
"X@	c #333C4C",
"Y@	c #54545D",
"Z@	c #283348",
"`@	c #2C374B",
" #	c #293345",
".#	c #1D2635",
"+#	c #1F293A",
"@#	c #212B3D",
"##	c #222D40",
"$#	c #253044",
"%#	c #273448",
"&#	c #28354A",
"*#	c #303D51",
"=#	c #777987",
"-#	c #81818D",
";#	c #3A4557",
">#	c #202939",
",#	c #253146",
"'#	c #2A3549",
")#	c #293447",
"!#	c #283244",
"~#	c #273041",
"{#	c #1F2632",
"]#	c #111720",
"^#	c #171E2B",
"/#	c #1C2433",
"(#	c #1E283A",
"_#	c #202B3E",
":#	c #222E43",
"<#	c #243045",
"[#	c #273348",
"}#	c #29354B",
"|#	c #5E616F",
"1#	c #87848D",
"2#	c #4E5463",
"3#	c #273141",
"4#	c #222D42",
"5#	c #253145",
"6#	c #252F42",
"7#	c #1E2533",
"8#	c #181D26",
"9#	c #161A22",
"0#	c #151A23",
"a#	c #151C29",
"b#	c #182030",
"c#	c #1C2637",
"d#	c #1F293C",
"e#	c #202C40",
"f#	c #232E43",
"g#	c #3F4656",
"h#	c #72717A",
"i#	c #565864",
"j#	c #141B29",
"k#	c #171F2D",
"l#	c #15191E",
"m#	c #0E1014",
"n#	c #191F27",
"o#	c #1A2029",
"p#	c #1B2027",
"q#	c #1B1F27",
"r#	c #191E24",
"s#	c #171B21",
"t#	c #161A1F",
"u#	c #171A20",
"v#	c #161A21",
"w#	c #161B22",
"x#	c #181C24",
"y#	c #1E2026",
"z#	c #1A1C21",
"A#	c #17191E",
"B#	c #191B20",
"C#	c #1B1D21",
"D#	c #1B1D22",
"E#	c #13151A",
"F#	c #181E27",
"G#	c #1A202A",
"H#	c #1B2029",
"I#	c #1B212A",
"J#	c #1C212A",
"K#	c #1D222A",
"L#	c #1E232A",
"M#	c #1D2229",
"N#	c #1D2228",
"O#	c #1D2127",
"P#	c #1C2026",
"Q#	c #1B1F25",
"R#	c #1A1F26",
"S#	c #15191F",
"T#	c #1A1F29",
"U#	c #1B202A",
"V#	c #1B202B",
"W#	c #1B212B",
"X#	c #1C212C",
"Y#	c #1F2430",
"Z#	c #1F2531",
"`#	c #212732",
" $	c #202530",
".$	c #1F242D",
"+$	c #1E232C",
"@$	c #1E222A",
"#$	c #1D2129",
"$$	c #1C2129",
"%$	c #1A2027",
"&$	c #171C24",
"*$	c #1C222D",
"=$	c #1E242F",
"-$	c #202733",
";$	c #212834",
">$	c #222835",
",$	c #212733",
"'$	c #202631",
")$	c #1F242F",
"!$	c #1E232D",
"~$	c #1C212B",
"{$	c #1A2028",
"]$	c #1A1F27",
"^$	c #191F29",
"/$	c #1C222E",
"($	c #1D232F",
"_$	c #202835",
":$	c #222936",
"<$	c #212734",
"[$	c #202732",
"}$	c #1F2634",
"|$	c #1C222C",
"1$	c #1E2430",
"2$	c #1E2431",
"3$	c #1F2734",
"4$	c #202836",
"5$	c #222938",
"6$	c #222B39",
"7$	c #212936",
"8$	c #242C3A",
"9$	c #232B3A",
"0$	c #202837",
"a$	c #232B39",
"b$	c #232B3B",
"c$	c #293241",
"d$	c #2A3345",
"e$	c #212837",
"f$	c #242B39",
"g$	c #2A3446",
"h$	c #2E3849",
"i$	c #2D3647",
"j$	c #222935",
"k$	c #3C495F",
"l$	c #485874",
"m$	c #4F607F",
"n$	c #536586",
"o$	c #566889",
"p$	c #5B6E91",
"q$	c #5F7397",
"r$	c #5D7195",
"s$	c #516282",
"t$	c #364155",
"u$	c #303B4D",
"v$	c #2A3343",
"w$	c #252E3F",
"x$	c #263041",
"y$	c #2A3447",
"z$	c #354156",
"A$	c #3D4A63",
"B$	c #45536E",
"C$	c #4C5C7A",
"D$	c #526484",
"E$	c #596C8F",
"F$	c #60749A",
"G$	c #657AA1",
"H$	c #6D84AB",
"I$	c #7086AE",
"J$	c #6E84AC",
"K$	c #62769B",
"L$	c #50617F",
"M$	c #333F53",
"N$	c #121722",
"O$	c #283245",
"P$	c #2C374A",
"Q$	c #3D4B64",
"R$	c #455471",
"S$	c #4A5B78",
"T$	c #4B5B78",
"U$	c #38445C",
"V$	c #2E394D",
"W$	c #252F40",
"X$	c #232C3C",
"Y$	c #1B222E",
"Z$	c #010203",
"`$	c #0E141D",
" %	c #1B2331",
".%	c #263042",
"+%	c #283345",
"@%	c #283346",
"#%	c #293346",
"$%	c #273143",
"%%	c #000000",
"&%	c #161D29",
"*%	c #1D2534",
"=%	c #1D2634",
"-%	c #060910",
"                                                                                                                                ",
"                                                                                                                                ",
"                                                                                                                                ",
"                                                                                                                                ",
"                                                                                                                                ",
"                                                                                                                                ",
"                                                                                                                                ",
"                                                                                                                                ",
"                                              . + @ # $                                                                         ",
"                                            % & * = - ; > ,                                                                     ",
"                                            ' ) ! ~ { ] ^ = $                                                                   ",
"                                            / ( . _ : < [ } - |                                                                 ",
"                                                  _ 1 2 3 4 ^ 2 5                                                               ",
"                                                6 7 8 : 9 } 0 { a b                                                             ",
"                                                c d > e f g h i j k !                                                           ",
"                                                $ l _ e i m n o p q r s                                                         ",
"                                                t * _ & u h v w x y z b                                                         ",
"                                                A r B e u C D E F G H I , J                                                     ",
"                                                I K L M * N O P Q R S T U , V                                                   ",
"                                              , W X Y Z `  ...+.@.#.$.%.&.&.V *.                                                ",
"                                              =.-.;.>.&.,. . .'.).!.~.{.X ].^./.b (._.:._.                                      ",
"                                            <.[.}.|.1.}.2.Z ,.3.4.5.6.< h 7.y 8.9.0.a.b.c.                                      ",
"                                      d.6 e.(.f.g.+ 8.< h.o i.j.k.l.m.n.o.p.q.x r.a s.t.                                        ",
"                                  6 u.:._.v./.w.x.y.z.A.v B.C.D.E.F.G.H.I.J.2 K.L.                                              ",
"                                  M.e.N.O.P.% 8 2 2 Q.R.S.T.U.z.z.V.W.X.Y.Z.`. +.+                                              ",
"                                            ++@+#+$+%+&+*+=+-+;+>+,+,+'+)+!+~+{+]+                                              ",
"                                            ^+/+(+_+]+:+ +<+[+}+|+,+1+2+3+4+5+{+]+                                              ",
"                                            6+7+8+9+]+:+ +0+a+}+b+,+,+c+d+e+f+ +g+                                              ",
"                                            (.h+i+j+k+l+m+n+o+p+q+r+r+r+s+t+u+v+w+x+                                            ",
"                                            t.K.N w.k y+z+A+B+C+D+E+F+G+H+I+J+K+L+                                              ",
"                                              M+N+O+P+> Q+R+S+T+U+V+E+E+W+X+I+Y+Z+                                              ",
"                                              e.. `+%  @.@+@@@#@$@%@ +&@*@=@-@;@>@                                              ",
"                                              ,@'@s.w.)@9.!@~@{@]@^@/@%+(@_@:@P+<@                                              ",
"                                              [@}@|@1@z 2@3@4@5@6@7@8@9@0@a@b@# c@                                              ",
"                                              d@e@f@g@h@i@j@k@1 l@m@n@o@p@q@r@s@N t@                                            ",
"                                            ].u@v@w@x@y@z@A@B@C@D@E@F@G@H@I@J@K@L@M@                                            ",
"                                            N@O@P@g@x@Q@R@S@T@B@U@V@W@X@Y@Z@`@K@ #|                                             ",
"                                          &..#+#@###$#%#&#i@S@T@*#=#-#;#>#,#'#)#!#~#{#                                          ",
"                                          ]#^#/#(#_#:#<#[#&#}#}#T@|#1#2#3#4#5#6#v@7#8#                                          ",
"                                            9#9#0#a#b#c#d#e#4#f#,#g#h#i#b j#k#T l#m#                                            ",
"                                            n#o#p#q#r#s#t#u#v#w#/@x#y#z#A#B#C#C#D#E#                                            ",
"                                          F#G#G#o#H#I#J#K#K#L#M#N#N#O#O#O#P#P#Q#R#S#                                            ",
"                                          T#U#V#W#X#M.Y#Z#O `# $.$.$+$@$K##$$$p#%$&$                                            ",
"                                          U#U#<.*$=$Z#-$:.;$>$,$O '$)$!$!$+$~$U#{$]$                                            ",
"                                        ^$W#<./$($6 e._$c :$:$>$<$[$ $)$Z#=$X#U#U#X#                                            ",
"                                        W#*$M.d.6 }$_.$ (.t (.>$;$-$-$_.:.=$X#J#|$1$@.                                          ",
"                                      G#_.e.2$! 3$4$5$L t (.:$:$:$M+6$7$O =$|$X#! 6 L.                                          ",
"                                      1$8$>@N+. 9$4$0$$ t a$9$9$b$^.(.-$Z#=$M.e.c a$6                                           ",
"                                      e.a$c$w.;@q j 8.9.d$9$t $ e$:.e.-$f$g$ @h$i$N j$                                          ",
"                                      K A 9$5 > 2 k$r.h l$m$n$n$o$D.p$q$r$s$7.t$u$v$:.                                          ",
"                                        ).0$w$x$y$z$A$B$C$D$E$F$G$H$I$J$K$L$7.M$5 A s                                           ",
"                                            N$Z e@O$!#!#P$8.Q$R$S$i.T$B$U$V$!#W$X$Y$                                            ",
"                                                Z$`$ %v@.%!#1@1@O$+%O$@%#%$%[@'.                                                ",
"                                                %%%%        &%^#*%=%*%/# .-%%%                                                  ",
"                                                %%%%                      %%%%                                                  ",
"                                              %%%%%%                      %%%%                                                  ",
"                                              %%%%                        %%                                                    ",
"                                              %%%%                                                                              ",
"                                                                                                                                ",
"                                                                                                                                ",
"                                                                                                                                ",
"                                                                                                                                ",
"                                                                                                                                ",
"                                                                                                                                "};
