/* XPM */
static char * player_dash_7_xpm[] = {
"64 64 580 2",
"  	c None",
". 	c #212835",
"+ 	c #2B3545",
"@ 	c #2F394B",
"# 	c #2F384A",
"$ 	c #2E3748",
"% 	c #2B3444",
"& 	c #2D3748",
"* 	c #343F53",
"= 	c #323C50",
"- 	c #333D51",
"; 	c #364156",
"> 	c #374257",
", 	c #364155",
"' 	c #2B3445",
") 	c #2A3343",
"! 	c #283140",
"~ 	c #2F394C",
"{ 	c #384359",
"] 	c #3B475D",
"^ 	c #3A465C",
"/ 	c #374358",
"( 	c #333E52",
"_ 	c #2F384B",
": 	c #2A3344",
"< 	c #38445A",
"[ 	c #323D51",
"} 	c #303A4D",
"| 	c #354054",
"1 	c #39455A",
"2 	c #3B485E",
"3 	c #3C485F",
"4 	c #384459",
"5 	c #343F54",
"6 	c #2F3A4C",
"7 	c #262F3E",
"8 	c #273040",
"9 	c #252E3D",
"0 	c #2E384A",
"a 	c #39455B",
"b 	c #3B485F",
"c 	c #3D4A61",
"d 	c #364257",
"e 	c #323D50",
"f 	c #2C3547",
"g 	c #262F3F",
"h 	c #333E53",
"i 	c #374359",
"j 	c #3E4B63",
"k 	c #424F68",
"l 	c #43516A",
"m 	c #3F4D65",
"n 	c #1A202B",
"o 	c #171D28",
"p 	c #1E2531",
"q 	c #293243",
"r 	c #2D3649",
"s 	c #313C4F",
"t 	c #3C4860",
"u 	c #425068",
"v 	c #46556F",
"w 	c #485772",
"x 	c #282F3C",
"y 	c #222631",
"z 	c #1B202A",
"A 	c #191E29",
"B 	c #161C27",
"C 	c #171D27",
"D 	c #1C232F",
"E 	c #202835",
"F 	c #232B39",
"G 	c #262E3E",
"H 	c #252D3B",
"I 	c #2B3446",
"J 	c #354156",
"K 	c #3B475F",
"L 	c #414E67",
"M 	c #485771",
"N 	c #435169",
"O 	c #353C4B",
"P 	c #353842",
"Q 	c #2B2E38",
"R 	c #252831",
"S 	c #232731",
"T 	c #1A202A",
"U 	c #171C27",
"V 	c #1B222E",
"W 	c #2A3445",
"X 	c #2D3648",
"Y 	c #293344",
"Z 	c #2D374A",
"` 	c #323E52",
" .	c #3A465D",
"..	c #3C4960",
"+.	c #252933",
"@.	c #20242E",
"#.	c #292C36",
"$.	c #202530",
"%.	c #354157",
"&.	c #39455C",
"*.	c #2D3749",
"=.	c #273041",
"-.	c #2A3446",
";.	c #293345",
">.	c #222A3A",
",.	c #181E2A",
"'.	c #191F2B",
").	c #191F2C",
"!.	c #1C222E",
"~.	c #1D222D",
"{.	c #30333D",
"].	c #333946",
"^.	c #3C475D",
"/.	c #45546F",
"(.	c #495874",
"_.	c #495974",
":.	c #2A3444",
"<.	c #1C2330",
"[.	c #161D29",
"}.	c #171E2A",
"|.	c #181F2B",
"1.	c #1A202C",
"2.	c #282C36",
"3.	c #3A4355",
"4.	c #4A5974",
"5.	c #536483",
"6.	c #556786",
"7.	c #516280",
"8.	c #1B212C",
"9.	c #151B27",
"0.	c #161C28",
"a.	c #191F2A",
"b.	c #232936",
"c.	c #384357",
"d.	c #4C5B78",
"e.	c #596B8C",
"f.	c #5D7092",
"g.	c #4A5975",
"h.	c #242B39",
"i.	c #0C0D0E",
"j.	c #0B0B0B",
"k.	c #161B27",
"l.	c #141A25",
"m.	c #151B26",
"n.	c #3D4A62",
"o.	c #4E5E7C",
"p.	c #576A8A",
"q.	c #5C6F90",
"r.	c #5F7295",
"s.	c #121316",
"t.	c #101010",
"u.	c #0F0F0F",
"v.	c #0D0D0D",
"w.	c #161C26",
"x.	c #1B212E",
"y.	c #3B4860",
"z.	c #475671",
"A.	c #4E5E7B",
"B.	c #526380",
"C.	c #546482",
"D.	c #4E5E7A",
"E.	c #16181C",
"F.	c #141414",
"G.	c #121212",
"H.	c #111111",
"I.	c #1F2734",
"J.	c #283142",
"K.	c #42506A",
"L.	c #47556F",
"M.	c #46546D",
"N.	c #3D4A60",
"O.	c #2A3342",
"P.	c #181816",
"Q.	c #191917",
"R.	c #161616",
"S.	c #151515",
"T.	c #191915",
"U.	c #242415",
"V.	c #222212",
"W.	c #16160F",
"X.	c #1E2532",
"Y.	c #222937",
"Z.	c #272F3F",
"`.	c #364157",
" +	c #3D4960",
".+	c #323C4F",
"++	c #1E2430",
"@+	c #141515",
"#+	c #2C2C19",
"$+	c #45451B",
"%+	c #3D3D19",
"&+	c #272718",
"*+	c #202019",
"=+	c #40401C",
"-+	c #62621B",
";+	c #5D5D15",
">+	c #3B3B12",
",+	c #1E1E10",
"'+	c #1F2632",
")+	c #242C3B",
"!+	c #303B4E",
"~+	c #283040",
"{+	c #151A22",
"]+	c #0E0E0E",
"^+	c #212114",
"/+	c #55551A",
"(+	c #858518",
"_+	c #838316",
":+	c #5B5B17",
"<+	c #383819",
"[+	c #47471B",
"}+	c #747418",
"|+	c #898916",
"1+	c #707014",
"2+	c #424213",
"3+	c #1F2633",
"4+	c #232A38",
"5+	c #242D3C",
"6+	c #0D0F14",
"7+	c #0A0A0B",
"8+	c #191910",
"9+	c #3F3F13",
"0+	c #787813",
"a+	c #9C9C12",
"b+	c #909015",
"c+	c #5F5F19",
"d+	c #3A3A1A",
"e+	c #4B4B19",
"f+	c #747417",
"g+	c #808017",
"h+	c #5D5D18",
"i+	c #2C2C15",
"j+	c #12120F",
"k+	c #1B212D",
"l+	c #161B24",
"m+	c #141920",
"n+	c #151920",
"o+	c #15181E",
"p+	c #14161B",
"q+	c #151618",
"r+	c #1F1F17",
"s+	c #3E3E15",
"t+	c #6B6B15",
"u+	c #828218",
"v+	c #66661D",
"w+	c #33331C",
"x+	c #242418",
"y+	c #3A3A18",
"z+	c #4C4C1A",
"A+	c #3D3D1A",
"B+	c #1C1C15",
"C+	c #212836",
"D+	c #242B38",
"E+	c #252B38",
"F+	c #252A35",
"G+	c #242831",
"H+	c #292C2D",
"I+	c #393B2D",
"J+	c #474830",
"K+	c #3F3E32",
"L+	c #2E2D2C",
"M+	c #222222",
"N+	c #1C1C1A",
"O+	c #1B1B17",
"P+	c #171715",
"Q+	c #131313",
"R+	c #19191A",
"S+	c #323337",
"T+	c #3C3F48",
"U+	c #242C3A",
"V+	c #293141",
"W+	c #2E3747",
"X+	c #343B4A",
"Y+	c #3D4350",
"Z+	c #4B4F59",
"`+	c #585960",
" @	c #56565B",
".@	c #434347",
"+@	c #2D2E31",
"@@	c #1D1D1F",
"#@	c #151516",
"$@	c #202022",
"%@	c #454549",
"&@	c #5C5D65",
"*@	c #505560",
"=@	c #383F4E",
"-@	c #252D3C",
";@	c #353F51",
">@	c #40485A",
",@	c #4F5564",
"'@	c #5B5F6B",
")@	c #5D5F68",
"!@	c #4E4F56",
"~@	c #35363B",
"{@	c #202124",
"]@	c #242528",
"^@	c #434348",
"/@	c #5C5D64",
"(@	c #575B66",
"_@	c #414856",
":@	c #303948",
"<@	c #232C3A",
"[@	c #252E3E",
"}@	c #2C3648",
"|@	c #313B4E",
"1@	c #394355",
"2@	c #464E5F",
"3@	c #565B69",
"4@	c #5C606B",
"5@	c #51535D",
"6@	c #393C43",
"7@	c #282A30",
"8@	c #303137",
"9@	c #4A4C53",
"0@	c #5A5D68",
"a@	c #3A4353",
"b@	c #2C3543",
"c@	c #212A39",
"d@	c #242D3D",
"e@	c #273142",
"f@	c #2E394B",
"g@	c #333E51",
"h@	c #3E485A",
"i@	c #4D5566",
"j@	c #585F6E",
"k@	c #565B68",
"l@	c #444954",
"m@	c #343841",
"n@	c #3A3F49",
"o@	c #525765",
"p@	c #5B6172",
"q@	c #495162",
"r@	c #333C4C",
"s@	c #293140",
"t@	c #1F2735",
"u@	c #202939",
"v@	c #222C3C",
"w@	c #242F40",
"x@	c #273244",
"y@	c #2A3649",
"z@	c #2F3B4E",
"A@	c #374357",
"B@	c #465163",
"C@	c #565E70",
"D@	c #5A6172",
"E@	c #444A58",
"F@	c #505564",
"G@	c #626776",
"H@	c #595F6D",
"I@	c #3E4555",
"J@	c #2D3646",
"K@	c #1E2736",
"L@	c #20293A",
"M@	c #222C3D",
"N@	c #242F41",
"O@	c #273245",
"P@	c #2D394E",
"Q@	c #333F53",
"R@	c #3F4A5E",
"S@	c #50596D",
"T@	c #5A6275",
"U@	c #595F70",
"V@	c #5B606E",
"W@	c #666873",
"X@	c #5F626C",
"Y@	c #454B59",
"Z@	c #313B4C",
"`@	c #1C2433",
" #	c #1E2737",
".#	c #202A3B",
"+#	c #232D3E",
"@#	c #253042",
"##	c #273246",
"$#	c #293549",
"%#	c #2B374C",
"&#	c #2F3B50",
"*#	c #485266",
"=#	c #555D70",
"-#	c #5B6171",
";#	c #5F636F",
">#	c #585B66",
",#	c #313A4C",
"'#	c #2B3547",
")#	c #283141",
"!#	c #262F3D",
"~#	c #1B2332",
"{#	c #1D2535",
"]#	c #1F2839",
"^#	c #212B3D",
"/#	c #232E41",
"(#	c #263145",
"_#	c #273448",
":#	c #29364B",
"<#	c #2C394E",
"[#	c #323F53",
"}#	c #3D485C",
"|#	c #4C5567",
"1#	c #595F6E",
"2#	c #565A68",
"3#	c #424958",
"4#	c #293346",
"5#	c #181E29",
"6#	c #1A212E",
"7#	c #1C2432",
"8#	c #1D2737",
"9#	c #202A3C",
"0#	c #222D40",
"a#	c #253044",
"b#	c #273347",
"c#	c #28354A",
"d#	c #394357",
"e#	c #495163",
"f#	c #535969",
"g#	c #4E5463",
"h#	c #3E4655",
"i#	c #283245",
"j#	c #273144",
"k#	c #263043",
"l#	c #252E3F",
"m#	c #222A39",
"n#	c #191E28",
"o#	c #191F29",
"p#	c #19202D",
"q#	c #1A2230",
"r#	c #1F293A",
"s#	c #252F41",
"t#	c #3F4656",
"u#	c #4C515F",
"v#	c #494E5B",
"w#	c #373E4C",
"x#	c #1F2838",
"y#	c #1F2737",
"z#	c #1D2432",
"A#	c #151921",
"B#	c #1A1F29",
"C#	c #1A212C",
"D#	c #1D232F",
"E#	c #232933",
"F#	c #2D313A",
"G#	c #2F323A",
"H#	c #242830",
"I#	c #181C24",
"J#	c #161920",
"K#	c #16181D",
"L#	c #151619",
"M#	c #141518",
"N#	c #1B212B",
"O#	c #1C222D",
"P#	c #1D232E",
"Q#	c #1E2530",
"R#	c #1F2530",
"S#	c #1F242F",
"T#	c #1E242D",
"U#	c #1E232B",
"V#	c #1E2229",
"W#	c #1D2127",
"X#	c #1B1F24",
"Y#	c #1B1E23",
"Z#	c #1B1D22",
"`#	c #1B1D21",
" $	c #1A1C20",
".$	c #191B1E",
"+$	c #18191D",
"@$	c #1E2431",
"#$	c #202734",
"$$	c #212734",
"%$	c #212733",
"&$	c #202632",
"*$	c #20252F",
"=$	c #1F242D",
"-$	c #1E232C",
";$	c #1E222A",
">$	c #1D2128",
",$	c #1C2026",
"'$	c #1C1F25",
")$	c #1A1D22",
"!$	c #181B20",
"~$	c #1B222C",
"{$	c #1F2531",
"]$	c #202735",
"^$	c #222936",
"/$	c #222835",
"($	c #212834",
"_$	c #202733",
":$	c #202631",
"<$	c #1F242E",
"[$	c #1D2129",
"}$	c #1C2128",
"|$	c #1B2027",
"1$	c #1A1E25",
"2$	c #181D23",
"3$	c #212936",
"4$	c #252D3D",
"5$	c #232B3A",
"6$	c #222938",
"7$	c #222A37",
"8$	c #1E242E",
"9$	c #1C222B",
"0$	c #1B2029",
"a$	c #1A1F27",
"b$	c #181E25",
"c$	c #2B3546",
"d$	c #222A38",
"e$	c #1F2631",
"f$	c #1C222C",
"g$	c #1A1F28",
"h$	c #191E26",
"i$	c #1F2634",
"j$	c #2B3648",
"k$	c #2F3A4E",
"l$	c #2E374A",
"m$	c #212937",
"n$	c #1D232D",
"o$	c #1C212B",
"p$	c #242C3C",
"q$	c #283243",
"r$	c #2E384B",
"s$	c #38445B",
"t$	c #3A475E",
"u$	c #37445A",
"v$	c #344055",
"w$	c #303A4E",
"x$	c #242B3A",
"y$	c #1E242F",
"z$	c #202837",
"A$	c #2E394D",
"B$	c #344056",
"C$	c #404F69",
"D$	c #465572",
"E$	c #44536F",
"F$	c #414F68",
"G$	c #313B4D",
"H$	c #2C3545",
"I$	c #272F3E",
"J$	c #262F40",
"K$	c #2B3649",
"L$	c #323E54",
"M$	c #3A4860",
"N$	c #43526D",
"O$	c #4B5C7A",
"P$	c #526384",
"Q$	c #566889",
"R$	c #586A8B",
"S$	c #566888",
"T$	c #495975",
"U$	c #3F4D66",
"V$	c #212938",
"W$	c #222B3A",
"X$	c #2F394D",
"Y$	c #39465D",
"Z$	c #44526D",
"`$	c #4D5E7B",
" %	c #546685",
".%	c #57698A",
"+%	c #4B5B78",
"@%	c #2C3647",
"#%	c #27303F",
"$%	c #0B0E14",
"%%	c #0D1016",
"&%	c #11161E",
"*%	c #273141",
"=%	c #38445C",
"-%	c #37445B",
";%	c #2D384A",
">%	c #010102",
",%	c #020304",
"'%	c #040508",
")%	c #080A0E",
"!%	c #0D1117",
"~%	c #141923",
"{%	c #1D2532",
"]%	c #232C3D",
"^%	c #263041",
"/%	c #252F40",
"(%	c #232B3B",
"_%	c #151B25",
":%	c #000000",
"<%	c #000101",
"[%	c #020203",
"}%	c #141922",
"                                                                                                                                ",
"                                                                                                                                ",
"                                                                                                                                ",
"                                                                                                                                ",
"                                                                                                                                ",
"                                                                                                                                ",
"                                                                                                                                ",
"                                                                                                                                ",
"                                                                                                                                ",
"                                                                                                                                ",
"                                        . + @ # $ %                                                                             ",
"                                      & * = - ; > , - @ '                                                                       ",
"                                    ' ) ! ~ * { ] ] ^ / ( _ :                                                                   ",
"                                      / < [ } | 1 2 3 ] 4 5 6 ' 7                                                               ",
"                                      5 8 9 0 [ ; a b c 3 a d e f g                                                             ",
"                                            f ~ h i 2 j k l m a [ 9 n o               p                                         ",
"                                            q r s d t u v w w a x y z A o B C D E F G H                                         ",
"                                            8 I } J K L M N O P Q R S T U V g W X 0 q                                           ",
"                                            G Y Z `  ...$ +.S @.#.R @.$.: %.&.K &.*.                                            ",
"                                              =.-.;.>.,.'.).!.~.@.{.].^./.(._.L :.                                              ",
"                                              <.,.B [.}.|.).1.2.P 3.4.5.6.7.2 8.                                                ",
"                                              o B 9.9.0.}.a.b.c.d.e.f.f.g.h.i.j.                                                ",
"                                              o k.l.l.m.g n.o.p.q.r.5.@ s.t.u.v.                                                ",
"                                              o w.x.;.y.z.A.B.C.D.( E.F.F.G.H.u.v.                                              ",
"                                            V I.J.( t K.L.M.N.O.E.P.Q.R.S.T.U.V.W.                                              ",
"                                          X.Y.Z.0 `... +.+++@+#+$+%+&+*+=+-+;+>+,+                                              ",
"                                        '+. )+: !+[ ~+{+]+^+/+(+_+:+<+[+}+|+1+2+,+                                              ",
"                                      3+. 4+9 5+!.6+7+v.8+9+0+a+b+c+d+e+f+g+h+i+j+                                              ",
"                                      '+p k+l+m+n+o+p+q+r+s+t+u+v+w+x+y+z+A+B+t.v.                                              ",
"                                            C+4+D+E+F+G+H+I+J+K+L+M+N+O+P+Q+R+S+T+                                              ",
"                                            U+7 V+% W+X+Y+Z+`+ @.@+@@@#@$@%@&@*@=@                                              ",
"                                              -@8 :.0 ;@>@,@'@)@!@~@{@]@^@/@(@_@:@                                              ",
"                                              <@[@q }@|@1@2@3@4@5@6@7@8@9@0@,@a@b@                                              ",
"                                              c@d@e@-.f@g@h@i@j@k@l@m@n@o@p@q@r@s@                                              ",
"                                            t@u@v@w@x@y@z@A@B@C@D@,@E@F@G@H@I@J@V+                                              ",
"                                            K@L@M@N@O@y@P@Q@R@S@T@U@V@W@X@Y@Z@W !                                               ",
"                                          `@ #.#+#@###$#%#&#4 *#=#-#;#>#E@,#'#: )#!#                                            ",
"                                          ~#{#]#^#/#(#_#:#<#[#}#|#1#2#3## 4#4#Y e@G                                             ",
"                                        5#'.6#7#8#9#0#a#b#c#P@d#e#f#g#h## i#j#k#l#m#                                            ",
"                                        n#o#a.'.p#q#`@ #r#^#s## t#u#v#w#G x#y#z#a.A#                                            ",
"                                      B#z z z z T n n 8.C#k+D#E#F#G#H#I#n+J#K#L#M#                                              ",
"                                    B#N#O#O#P#D#++Q#R#R#S#T#U#V#W#X#Y#Z#`# $.$+$                                                ",
"                                  N#D#++++++@$X.3+#$#$$$%$&$*$=$-$;$>$,$'$Y#)$!$                                                ",
"                                ~${$. C+. ]$]$E C+C+C+^$/$($_$:$<$-$;$[$}$|$1$2$                                                ",
"                                p 3$F H 9 4$)+5$m#6$7$Y.^$. %$:$R#<$8$-$9$0$a$b$                                                ",
"                                X.C+)+8 : c$c$Y 8 9 5$d$^$. ($$$$$#$e$P#f$z g$h$                                                ",
"                                  i$5$=.j$k$` ( s l$: 8 -@5$m#m#m$_$Q#n$o$z z T                                                 ",
"                                    t@p$q$r$5 s$t$ .u$v$w$'#8 x$. &$y$~.f$O#D#O#                                                ",
"                                        z$J.A$B$y.C$/.D$E$F$t ; G$H$I$U+d$C+3+p                                                 ",
"                                          m#J$K$L$M$N$O$P$Q$R$S$7.T$U$`.0 ) I$U+                                                ",
"                                              V$W$J$X$Y$Z$`$ %.% %+%F$a e @%#%d$                                                ",
"                                              $%%%&%5#t@*%k$%.=%-%%.[ ;%q 5+E                                                   ",
"                                              >%,%'%)%!%~%{%]%J$^%/%(%m$t@V _%                                                  ",
"                                              :%:%<%[%            }%~%                                                          ",
"                                            :%:%:%                                                                              ",
"                                            :%:%                                                                                ",
"                                            :%:%                                                                                ",
"                                                                                                                                ",
"                                                                                                                                ",
"                                                                                                                                ",
"                                                                                                                                ",
"                                                                                                                                ",
"                                                                                                                                ",
"                                                                                                                                "};
