/* XPM */
static char * player_dash_12_xpm[] = {
"64 64 583 2",
"  	c None",
". 	c #262E3D",
"+ 	c #28303F",
"@ 	c #262E3C",
"# 	c #313C50",
"$ 	c #2C3547",
"% 	c #323C4F",
"& 	c #343F53",
"* 	c #2B3545",
"= 	c #323D51",
"- 	c #323C50",
"; 	c #242B3A",
"> 	c #2F394C",
", 	c #39455B",
"' 	c #3A465C",
") 	c #384459",
"! 	c #313C4E",
"~ 	c #293140",
"{ 	c #39455C",
"] 	c #3E4C64",
"^ 	c #252E3C",
"/ 	c #2D3748",
"( 	c #374358",
"_ 	c #3B475E",
": 	c #3D4A61",
"< 	c #3C485E",
"[ 	c #364155",
"} 	c #2C3546",
"| 	c #344054",
"1 	c #161B25",
"2 	c #2D3749",
"3 	c #343F54",
"4 	c #38445A",
"5 	c #3C495F",
"6 	c #3F4C63",
"7 	c #364156",
"8 	c #232A38",
"9 	c #2B3446",
"0 	c #364157",
"a 	c #3A465D",
"b 	c #3E4B62",
"c 	c #3E4B63",
"d 	c #3C485F",
"e 	c #354054",
"f 	c #222A38",
"g 	c #283242",
"h 	c #2F394D",
"i 	c #3D4960",
"j 	c #404E66",
"k 	c #3F4C65",
"l 	c #3B485F",
"m 	c #293344",
"n 	c #202836",
"o 	c #273040",
"p 	c #2D374A",
"q 	c #333F53",
"r 	c #425069",
"s 	c #46546E",
"t 	c #303B4F",
"u 	c #262E3E",
"v 	c #1E2531",
"w 	c #262F3F",
"x 	c #2C3648",
"y 	c #333E52",
"z 	c #39465D",
"A 	c #3F4C64",
"B 	c #45536D",
"C 	c #4C5C78",
"D 	c #4B5A76",
"E 	c #424F67",
"F 	c #242C3B",
"G 	c #191F2A",
"H 	c #171D28",
"I 	c #252E3D",
"J 	c #2B3547",
"K 	c #374359",
"L 	c #3D4A62",
"M 	c #44526B",
"N 	c #435069",
"O 	c #3C465A",
"P 	c #3C4353",
"Q 	c #333945",
"R 	c #1F242E",
"S 	c #181E28",
"T 	c #212937",
"U 	c #242D3D",
"V 	c #273042",
"W 	c #2A3446",
"X 	c #2A3445",
"Y 	c #232935",
"Z 	c #2A2F39",
"` 	c #2C303A",
" .	c #2E3039",
"..	c #2B2F38",
"+.	c #1D212A",
"@.	c #161C27",
"#.	c #171C27",
"$.	c #1A212C",
"%.	c #181E29",
"&.	c #1A202D",
"*.	c #191F2B",
"=.	c #171E2A",
"-.	c #19202D",
";.	c #19202C",
">.	c #1B212D",
",.	c #1C222E",
"'.	c #1A1E27",
").	c #2C2F38",
"!.	c #32343D",
"~.	c #22262F",
"{.	c #171D29",
"].	c #1B222F",
"^.	c #232B3A",
"/.	c #273041",
"(.	c #27303F",
"_.	c #242C3A",
":.	c #141A25",
"<.	c #131924",
"[.	c #161C28",
"}.	c #181E2B",
"|.	c #30333C",
"1.	c #3F424D",
"2.	c #282E3C",
"3.	c #38445B",
"4.	c #313B4F",
"5.	c #191F29",
"6.	c #141924",
"7.	c #131923",
"8.	c #1A212D",
"9.	c #1C2431",
"0.	c #212938",
"a.	c #29303E",
"b.	c #393F4E",
"c.	c #424A5C",
"d.	c #445066",
"e.	c #4A5975",
"f.	c #4D5D7A",
"g.	c #4B5B78",
"h.	c #495873",
"i.	c #202734",
"j.	c #1C232F",
"k.	c #1C2330",
"l.	c #1E2533",
"m.	c #222A39",
"n.	c #303A4E",
"o.	c #38455B",
"p.	c #4A5873",
"q.	c #505F7B",
"r.	c #566887",
"s.	c #5A6D8F",
"t.	c #596B8C",
"u.	c #526381",
"v.	c #475670",
"w.	c #3A455A",
"x.	c #1A1F29",
"y.	c #1E2431",
"z.	c #1E2532",
"A.	c #202735",
"B.	c #45546E",
"C.	c #4A5974",
"D.	c #50617E",
"E.	c #546583",
"F.	c #556786",
"G.	c #4D5D79",
"H.	c #3F4B62",
"I.	c #2E3746",
"J.	c #20252E",
"K.	c #17191D",
"L.	c #101011",
"M.	c #09090A",
"N.	c #1F2633",
"O.	c #1F2734",
"P.	c #212836",
"Q.	c #2A3345",
"R.	c #414E65",
"S.	c #354053",
"T.	c #3C485D",
"U.	c #3C4757",
"V.	c #3B444F",
"W.	c #2B323F",
"X.	c #20242C",
"Y.	c #191A1E",
"Z.	c #171717",
"`.	c #323219",
" +	c #252515",
".+	c #101010",
"++	c #0B0B0B",
"@+	c #1F2632",
"#+	c #293242",
"$+	c #2A3242",
"%+	c #212733",
"&+	c #252B38",
"*+	c #1E232E",
"=+	c #181B20",
"-+	c #212324",
";+	c #757625",
">+	c #65661C",
",+	c #24241A",
"'+	c #474720",
")+	c #A1A119",
"!+	c #555519",
"~+	c #131312",
"{+	c #0D0D0D",
"]+	c #1B212C",
"^+	c #0F1218",
"/+	c #0E1015",
"(+	c #0B0D10",
"_+	c #0B0C0E",
":+	c #0E0E10",
"<+	c #0E0F0F",
"[+	c #121212",
"}+	c #626221",
"|+	c #DEDE11",
"1+	c #AFAF17",
"2+	c #34341C",
"3+	c #181818",
"4+	c #191918",
"5+	c #8F8F22",
"6+	c #E3E30D",
"7+	c #7A7A1D",
"8+	c #090B0F",
"9+	c #090A0C",
"0+	c #090A0B",
"a+	c #0A0B0B",
"b+	c #0C0D0D",
"c+	c #0F0F0F",
"d+	c #7C7C1D",
"e+	c #E8E80A",
"f+	c #C6C61D",
"g+	c #2A2A1C",
"h+	c #1C1C19",
"i+	c #85851D",
"j+	c #D8D812",
"k+	c #656521",
"l+	c #111111",
"m+	c #0D0D0E",
"n+	c #191E29",
"o+	c #1C212C",
"p+	c #1B202A",
"q+	c #191E26",
"r+	c #181B21",
"s+	c #16181B",
"t+	c #151517",
"u+	c #59591E",
"v+	c #ADAC1A",
"w+	c #7C7C25",
"x+	c #181817",
"y+	c #1A1A18",
"z+	c #50501A",
"A+	c #75751D",
"B+	c #24241C",
"C+	c #1D1D1F",
"D+	c #20242B",
"E+	c #262D3C",
"F+	c #28313F",
"G+	c #2A3241",
"H+	c #2B3341",
"I+	c #2B313D",
"J+	c #2E323B",
"K+	c #36383E",
"L+	c #55544A",
"M+	c #6B694E",
"N+	c #333332",
"O+	c #18191A",
"P+	c #161616",
"Q+	c #1D1D15",
"R+	c #39393A",
"S+	c #535153",
"T+	c #3F424C",
"U+	c #323A49",
"V+	c #283140",
"W+	c #2F394A",
"X+	c #333D4F",
"Y+	c #3B4455",
"Z+	c #4A505E",
"`+	c #6F6F76",
" @	c #7C797C",
".@	c #4C4D55",
"+@	c #212227",
"@@	c #141415",
"#@	c #141414",
"$@	c #292B32",
"%@	c #727075",
"&@	c #757378",
"*@	c #364051",
"=@	c #2D3645",
"-@	c #262F3E",
";@	c #293343",
">@	c #313B4E",
",@	c #364154",
"'@	c #3F485B",
")@	c #616471",
"!@	c #858287",
"~@	c #656770",
"{@	c #2A2E37",
"]@	c #131415",
"^@	c #434651",
"/@	c #858388",
"(@	c #5F616C",
"_@	c #313B4D",
":@	c #27303E",
"<@	c #283142",
"[@	c #333E51",
"}@	c #374256",
"|@	c #4A5263",
"1@	c #7D7D85",
"2@	c #737581",
"3@	c #3B404D",
"4@	c #16181C",
"5@	c #121317",
"6@	c #585B67",
"7@	c #868894",
"8@	c #485060",
"9@	c #2E384A",
"0@	c #242B38",
"a@	c #1F2735",
"b@	c #222C3B",
"c@	c #252F40",
"d@	c #293345",
"e@	c #2C374A",
"f@	c #303C4F",
"g@	c #3B4659",
"h@	c #6A6F7D",
"i@	c #818594",
"j@	c #545B6A",
"k@	c #1D232F",
"l@	c #747785",
"m@	c #7F8393",
"n@	c #343E50",
"o@	c #2D3647",
"p@	c #262D3B",
"q@	c #1A202C",
"r@	c #212939",
"s@	c #212B3B",
"t@	c #232D3E",
"u@	c #263143",
"v@	c #293548",
"w@	c #2D394D",
"x@	c #2F3C50",
"y@	c #323F53",
"z@	c #525B6C",
"A@	c #82889A",
"B@	c #6D7385",
"C@	c #323845",
"D@	c #3D414D",
"E@	c #8E8E98",
"F@	c #626672",
"G@	c #2E394B",
"H@	c #2C3647",
"I@	c #28303E",
"J@	c #1C2432",
"K@	c #202A3A",
"L@	c #222B3C",
"M@	c #242E40",
"N@	c #263144",
"O@	c #2C394D",
"P@	c #2D3A4F",
"Q@	c #2F3C51",
"R@	c #3E495D",
"S@	c #737A8D",
"T@	c #7B8092",
"U@	c #444A59",
"V@	c #5C5C63",
"W@	c #838186",
"X@	c #353D4F",
"Y@	c #2D384B",
"Z@	c #242A37",
"`@	c #1E2737",
" #	c #202A3B",
".#	c #222C3D",
"+#	c #242F41",
"@#	c #263245",
"##	c #293549",
"$#	c #2A374C",
"%#	c #2C394E",
"&#	c #333F54",
"*#	c #596275",
"=#	c #787D8E",
"-#	c #565B6A",
";#	c #4E5159",
">#	c #54555E",
",#	c #2A3549",
"'#	c #252D3B",
")#	c #1D2535",
"!#	c #1F2839",
"~#	c #212B3D",
"{#	c #232E41",
"]#	c #253145",
"^#	c #273448",
"/#	c #29354A",
"(#	c #2B384D",
"_#	c #2E3A4F",
":#	c #3F4A5E",
"<#	c #777A89",
"[#	c #656876",
"}#	c #3E4552",
"|#	c #273246",
"1#	c #2A3447",
"2#	c #283243",
"3#	c #1B2332",
"4#	c #1D2637",
"5#	c #1F2A3C",
"6#	c #222D41",
"7#	c #243045",
"8#	c #273348",
"9#	c #29354B",
"0#	c #2A364C",
"a#	c #6B6E7C",
"b#	c #6F717C",
"c#	c #3F4757",
"d#	c #212A3B",
"e#	c #273245",
"f#	c #263042",
"g#	c #181C25",
"h#	c #161B24",
"i#	c #181D27",
"j#	c #171E28",
"k#	c #181F2A",
"l#	c #19212E",
"m#	c #1D2636",
"n#	c #1F293A",
"o#	c #222D3F",
"p#	c #242E42",
"q#	c #565965",
"r#	c #65666F",
"s#	c #3B4250",
"t#	c #1D2534",
"u#	c #1B222E",
"v#	c #191E27",
"w#	c #151921",
"x#	c #191F28",
"y#	c #1A2029",
"z#	c #181E27",
"A#	c #19202A",
"B#	c #1A202B",
"C#	c #1D232E",
"D#	c #31343C",
"E#	c #35363D",
"F#	c #14171C",
"G#	c #171A21",
"H#	c #171A20",
"I#	c #181A1E",
"J#	c #1C212B",
"K#	c #1C222B",
"L#	c #1D222C",
"M#	c #1D222B",
"N#	c #1D222A",
"O#	c #1C2128",
"P#	c #1C2027",
"Q#	c #1E2127",
"R#	c #1D2026",
"S#	c #1B1E24",
"T#	c #1B1E23",
"U#	c #1B1E22",
"V#	c #1B1D22",
"W#	c #171A1F",
"X#	c #1A1F2A",
"Y#	c #1B212B",
"Z#	c #1C222C",
"`#	c #1E242F",
" $	c #1F2531",
".$	c #202632",
"+$	c #202630",
"@$	c #1E232C",
"#$	c #1E232B",
"$$	c #1E222A",
"%$	c #1D2128",
"&$	c #1D2127",
"*$	c #1B1F26",
"=$	c #1A1F25",
"-$	c #181C23",
";$	c #191E28",
">$	c #1C222D",
",$	c #1E2430",
"'$	c #1F2532",
")$	c #202733",
"!$	c #212834",
"~$	c #222835",
"{$	c #212734",
"]$	c #202530",
"^$	c #1E222B",
"/$	c #1C212A",
"($	c #1B2028",
"_$	c #1A2027",
":$	c #181E25",
"<$	c #1D2430",
"[$	c #222936",
"}$	c #1F2530",
"|$	c #1F242F",
"1$	c #1E242E",
"2$	c #1B2029",
"3$	c #212936",
"4$	c #202736",
"5$	c #222937",
"6$	c #222A37",
"7$	c #212835",
"8$	c #272F3F",
"9$	c #252E3E",
"0$	c #242C3C",
"a$	c #222938",
"b$	c #1D222D",
"c$	c #181D26",
"d$	c #171D27",
"e$	c #2B3445",
"f$	c #303B4E",
"g$	c #2D384A",
"h$	c #222A3A",
"i$	c #1F2634",
"j$	c #232C3B",
"k$	c #2F3A4D",
"l$	c #354156",
"m$	c #3A475D",
"n$	c #3C4960",
"o$	c #39465E",
"p$	c #37445A",
"q$	c #344056",
"r$	c #283141",
"s$	c #252D3C",
"t$	c #242C39",
"u$	c #1D2431",
"v$	c #263041",
"w$	c #2E394D",
"x$	c #364258",
"y$	c #3C4961",
"z$	c #415069",
"A$	c #475773",
"B$	c #4C5D7B",
"C$	c #506181",
"D$	c #506281",
"E$	c #516281",
"F$	c #516280",
"G$	c #50607E",
"H$	c #4D5E7B",
"I$	c #2F394B",
"J$	c #2C3545",
"K$	c #272F3E",
"L$	c #161C26",
"M$	c #242C3D",
"N$	c #293346",
"O$	c #2F3A4E",
"P$	c #354258",
"Q$	c #3E4C65",
"R$	c #475774",
"S$	c #506282",
"T$	c #576A8D",
"U$	c #5F7397",
"V$	c #64799D",
"W$	c #64799E",
"X$	c #607498",
"Y$	c #526383",
"Z$	c #44536E",
"`$	c #2A3344",
" %	c #1E2634",
".%	c #222B3A",
"+%	c #262F41",
"@%	c #2F3A4F",
"#%	c #354259",
"$%	c #3C4A62",
"%%	c #43526C",
"&%	c #475672",
"*%	c #485874",
"=%	c #344156",
"-%	c #273141",
";%	c #222B39",
">%	c #1D2533",
",%	c #242E3F",
"'%	c #283244",
")%	c #273143",
"!%	c #283245",
"~%	c #232B3B",
"{%	c #1D2432",
"]%	c #040507",
"^%	c #06070A",
"/%	c #090C12",
"(%	c #141A24",
"_%	c #12171F",
":%	c #131922",
"<%	c #12161E",
"[%	c #000000",
"}%	c #010101",
"|%	c #010203",
"1%	c #020203",
"2%	c #030405",
"                                                                                                                                ",
"                                                                                                                                ",
"                                                                                                                                ",
"                                                                                                                                ",
"                                                                                                                                ",
"                                                                                                                                ",
"                                                                                                                                ",
"                                                                                                                                ",
"                                              . + @                                                                             ",
"                                            # $ % & % *                                                                         ",
"                                          = - ; > , ' ) ! ~                                                                     ",
"                                          { ] ^ / ( _ : < [ }                                                                   ",
"                                          | , 1 2 3 4 5 6 : 7 / 8                                                               ",
"                                                9 - 0 a b c d e $ f                                                             ",
"                                                g h | { i j k l 3 m n                                                           ",
"                                                o p q { b r s s : t u v                                                         ",
"                                                w x y z A B C D E e F G H                                                       ",
"                                                I J # K L M N O P Q R S H H                                                     ",
"                                                T U V W 2 X Y Z `  ...+.@.@.#.$.                                                ",
"                                              %.&.*.=.-.&.;.>.,.'.).!.~.{.].^./.(.. . . _.                                      ",
"                                              %.%.:.<.[.}.-.-.}.~.|.1.2.# 3.{ K 3 4.$ . 5.                                      ",
"                                              *.{.6.7.[.8.9.0.a.b.c.d.e.f.g.h.r ( / i.                                          ",
"                                            ,.j.k.l.m.m n.o.r p.q.r.s.t.u.v.w.~ x.                                              ",
"                                        y.z.A.F X = a j B.C.D.E.F.F.G.H.I.J.K.L.M.                                              ",
"                                    v N.O.P.F Q.- { _ 6 R.S.T.U.V.W.X.Y.Z.`. +.+++                                              ",
"                                    @+N.A.f I (.#+$+%+&+*+=+-+;+>+,+Z.Z.'+)+!+~+{+                                              ",
"                                            ]+^+/+(+_+:+<+[+}+|+1+2+3+4+5+6+7+~+{+                                              ",
"                                              8+9+0+a+b+c+~+d+e+f+g+3+h+i+j+k+l+m+                                              ",
"                                            n+o+p+q+r+s+t+3+u+v+w+x+Z.y+z+A+B+C+D+                                              ",
"                                            A.E+F+G+H+I+J+K+L+M+N+O+P+P+Q+R+S+T+U+                                              ",
"                                              _.V+* W+X+Y+Z+`+ @.@+@@@#@$@%@&@*@=@                                              ",
"                                              T -@;@2 >@,@'@)@!@~@{@]@l+^@/@(@_@:@                                              ",
"                                              O.U <@x h [@}@|@1@2@3@4@5@6@7@8@9@0@                                              ",
"                                              a@b@c@d@e@f@q g@h@i@j@~.k@l@m@n@o@p@                                              ",
"                                            q@r@s@t@u@v@w@x@y@z@A@B@C@D@E@F@G@H@I@                                              ",
"                                            J@K@L@M@N@v@O@P@Q@R@S@T@U@V@W@X@Y@J V+Z@                                            ",
"                                            `@ #.#+#@###$#%#P@&#*#=#-#;#>#,#e@J #+'#                                            ",
"                                          =.)#!#~#{#]#^#/#(#%#_#:#<#[#}#w |#,#1#2#I                                             ",
"                                          [.;.3#4#5#6#7#8#/#9#0#}@a#b#c#d#{#e#f#U n g#                                          ",
"                                          h#i#j#k#l#3#m#n#~#o#p#1#q#r#s#].3#t#u#v#w#                                            ",
"                                          x#y#x#v#z#z#z#5.A#B#$.C#D#E#X.F#G#H#I#4@                                              ",
"                                        i#p+p+p+J#J#K#L#M#M#N#O#P#Q#R#S#T#T#U#V#W#                                              ",
"                                        X#p+Y#Z#C#`# $@+.$.$+$R @$#$$$%$&$P#*$=$-$                                              ",
"                                      ;$Y#]+>$k@,$'$)$i.!$~${$.$]$R @$^$M#/$($_$:$                                              ",
"                                      k@k@k@<$v N.i.P.P.[$[$~${$.$}$|$|$1$K#p+2$'.                                              ",
"                                    >$3$P.A.i.i.4$T T 5$6$[$7$!$%+)$i.)$`#Z#p+p+Y#                                              ",
"                                    i.; . 8$(.9$0$^.f f 5$5$5$5$a$a$7$.$*+o+/$b$k@c$                                            ",
"                                  d$N.m.(.e$G@f$f$g$e$o 9$F ^.h$m.P.)$ $*+>$`#N.v X#                                            ",
"                                    8.i$j$2#k$l$m$n$l o$p$q$t p e$#+r$+ . s$s$'#t$C#                                            ",
"                                      G u$m.v$w$x$y$z$A$B$C$D$E$F$G$H$A$k l$I$J$K$C#                                            ",
"                                          L$;.M$N$O$P$Q$R$S$T$U$V$W$X$Y$Z$o.f$`$^.                                              ",
"                                                 %.%+%1#@%#%$%%%&%*%Z$$%=%p -%;%j.                                              ",
"                                                      H *.>%,%'%)%!%!%'%~%T {%G                                                 ",
"                                                      ]%^%/%  (%_%:%k#8.<%                                                      ",
"                                                      [%[%}%  |%1%2%                                                            ",
"                                                      [%[%  [%[%[%                                                              ",
"                                                      [%[%  [%[%                                                                ",
"                                                      [%[%                                                                      ",
"                                                      [%[%                                                                      ",
"                                                      [%[%                                                                      ",
"                                                                                                                                ",
"                                                                                                                                ",
"                                                                                                                                ",
"                                                                                                                                "};
