/* XPM */
static char * player_dash_8_xpm[] = {
"64 64 591 2",
"  	c None",
". 	c #252D3B",
"+ 	c #313B4D",
"@ 	c #303A4C",
"# 	c #313B4E",
"$ 	c #2F394A",
"% 	c #2C3545",
"& 	c #2C3546",
"* 	c #323D51",
"= 	c #2C3647",
"- 	c #313B4F",
"; 	c #364156",
"> 	c #384359",
", 	c #384358",
"' 	c #354054",
") 	c #323C4F",
"! 	c #2E3849",
"~ 	c #2B3546",
"{ 	c #2C3648",
"] 	c #323D50",
"^ 	c #323C50",
"/ 	c #354055",
"( 	c #3A465C",
"_ 	c #3B475D",
": 	c #39455B",
"< 	c #303A4D",
"[ 	c #3A475D",
"} 	c #39465C",
"| 	c #333E52",
"1 	c #374358",
"2 	c #3C485F",
"3 	c #2C3547",
"4 	c #273040",
"5 	c #303B4E",
"6 	c #343F54",
"7 	c #384459",
"8 	c #3B475E",
"9 	c #3D4A61",
"0 	c #343E53",
"a 	c #2D3648",
"b 	c #272F40",
"c 	c #293243",
"d 	c #2D3749",
"e 	c #313C50",
"f 	c #364257",
"g 	c #3D4A62",
"h 	c #414E67",
"i 	c #44526B",
"j 	c #414F68",
"k 	c #3A475E",
"l 	c #283142",
"m 	c #1B212D",
"n 	c #171D28",
"o 	c #2B3446",
"p 	c #2F394D",
"q 	c #404E66",
"r 	c #45546E",
"s 	c #495873",
"t 	c #495874",
"u 	c #3E4B62",
"v 	c #2B3342",
"w 	c #222631",
"x 	c #1B202A",
"y 	c #191E29",
"z 	c #1E2431",
"A 	c #1F2633",
"B 	c #212835",
"C 	c #242B3A",
"D 	c #212936",
"E 	c #252D3D",
"F 	c #2E384B",
"G 	c #3F4C65",
"H 	c #485671",
"I 	c #353F50",
"J 	c #333741",
"K 	c #2C3039",
"L 	c #232730",
"M 	c #242832",
"N 	c #1A1F2A",
"O 	c #161B26",
"P 	c #202836",
"Q 	c #262E3E",
"R 	c #2B3445",
"S 	c #242C3A",
"T 	c #273141",
"U 	c #303B50",
"V 	c #364258",
"W 	c #232832",
"X 	c #282C36",
"Y 	c #20242E",
"Z 	c #282C35",
"` 	c #2A2D36",
" .	c #21252E",
"..	c #1E232E",
"+.	c #1E2533",
"@.	c #2F3A4E",
"#.	c #333E53",
"$.	c #344055",
"%.	c #354156",
"&.	c #343F53",
"*.	c #242D3B",
"=.	c #252E3E",
"-.	c #263040",
";.	c #262F3F",
">.	c #212938",
",.	c #191F2B",
"'.	c #1A1F2B",
").	c #1A202C",
"!.	c #1F242F",
"~.	c #1E222C",
"{.	c #30333D",
"].	c #2F333D",
"^.	c #415069",
"/.	c #43526C",
"(.	c #45536E",
"_.	c #44526C",
":.	c #38445A",
"<.	c #1F2734",
"[.	c #1B222E",
"}.	c #181E2A",
"|.	c #161C27",
"1.	c #161C28",
"2.	c #171D2A",
"3.	c #181F2B",
"4.	c #19202C",
"5.	c #191F2C",
"6.	c #21252F",
"7.	c #383B45",
"8.	c #383E4C",
"9.	c #4F617F",
"0.	c #516381",
"a.	c #526382",
"b.	c #151B26",
"c.	c #171E2A",
"d.	c #242A37",
"e.	c #374051",
"f.	c #45536C",
"g.	c #566888",
"h.	c #5A6D8E",
"i.	c #5D7093",
"j.	c #556786",
"k.	c #38455A",
"l.	c #151820",
"m.	c #0B0B0B",
"n.	c #171D29",
"o.	c #141A25",
"p.	c #141A24",
"q.	c #3A465D",
"r.	c #4A5975",
"s.	c #5B6D8F",
"t.	c #5E7294",
"u.	c #5B6E90",
"v.	c #1A1F28",
"w.	c #101010",
"x.	c #0F0F0F",
"y.	c #0D0D0D",
"z.	c #191F2A",
"A.	c #181F2A",
"B.	c #2B3547",
"C.	c #3B485F",
"D.	c #465570",
"E.	c #4D5D7A",
"F.	c #526380",
"G.	c #536381",
"H.	c #526280",
"I.	c #3F4C64",
"J.	c #1D212B",
"K.	c #131314",
"L.	c #141414",
"M.	c #121212",
"N.	c #111111",
"O.	c #10100F",
"P.	c #1D2430",
"Q.	c #212836",
"R.	c #43516A",
"S.	c #47556F",
"T.	c #2F384A",
"U.	c #1B1E24",
"V.	c #1C1C16",
"W.	c #191917",
"X.	c #161616",
"Y.	c #161615",
"Z.	c #1D1D16",
"`.	c #2D2D16",
" +	c #232311",
".+	c #12120E",
"++	c #1D232F",
"@+	c #222A38",
"#+	c #2F394C",
"$+	c #374359",
"%+	c #3C4960",
"&+	c #39455A",
"*+	c #2E3748",
"=+	c #151617",
"-+	c #36361A",
";+	c #53531B",
">+	c #3F3F18",
",+	c #232318",
"'+	c #1A1A18",
")+	c #3D3D1C",
"!+	c #6D6D1B",
"~+	c #616114",
"{+	c #353512",
"]+	c #16160F",
"^+	c #1E2531",
"/+	c #252D3C",
"(+	c #2A3445",
"_+	c #1F2531",
":+	c #111319",
"<+	c #0E0E0E",
"[+	c #191913",
"}+	c #54541B",
"|+	c #929218",
"1+	c #8D8D15",
"2+	c #595918",
"3+	c #2C2C19",
"4+	c #3A3A1B",
"5+	c #787819",
"6+	c #969615",
"7+	c #737314",
"8+	c #393914",
"9+	c #14140F",
"0+	c #1E2532",
"a+	c #202734",
"b+	c #202835",
"c+	c #222937",
"d+	c #232B39",
"e+	c #131820",
"f+	c #0A0C0E",
"g+	c #0B0B0C",
"h+	c #0D0D0E",
"i+	c #131310",
"j+	c #363614",
"k+	c #7A7A14",
"l+	c #A9A911",
"m+	c #989815",
"n+	c #57571B",
"o+	c #29291A",
"p+	c #454519",
"q+	c #7A7A17",
"r+	c #8C8C17",
"s+	c #5D5D1A",
"t+	c #202013",
"u+	c #141921",
"v+	c #151A22",
"w+	c #161A22",
"x+	c #161920",
"y+	c #15181D",
"z+	c #15171A",
"A+	c #1A1B18",
"B+	c #393917",
"C+	c #6D6D16",
"D+	c #8C8C19",
"E+	c #676720",
"F+	c #27271B",
"G+	c #1F1F18",
"H+	c #373718",
"I+	c #555519",
"J+	c #46461B",
"K+	c #1A1A14",
"L+	c #111213",
"M+	c #232A37",
"N+	c #242B38",
"O+	c #252C38",
"P+	c #252B36",
"Q+	c #242932",
"R+	c #282B30",
"S+	c #3A3C30",
"T+	c #525336",
"U+	c #4B4B3A",
"V+	c #323231",
"W+	c #222123",
"X+	c #1B1B1A",
"Y+	c #1F1F17",
"Z+	c #1B1B16",
"`+	c #262628",
" @	c #3C3D41",
".@	c #3B404B",
"+@	c #262E3D",
"@@	c #283140",
"#@	c #2B3444",
"$@	c #2E3747",
"%@	c #323A4A",
"&@	c #3B424F",
"*@	c #4B4F59",
"=@	c #5B5C63",
"-@	c #5A5A5F",
";@	c #454549",
">@	c #2D2D30",
",@	c #1B1C1D",
"'@	c #141415",
")@	c #1F1F21",
"!@	c #4C4C51",
"~@	c #64646A",
"{@	c #4C515E",
"]@	c #323A49",
"^@	c #27303F",
"/@	c #2A3444",
"(@	c #2E384A",
"_@	c #343E50",
":@	c #3D4658",
"<@	c #4E5463",
"[@	c #5E616D",
"}@	c #62636C",
"|@	c #52535A",
"1@	c #34363B",
"2@	c #1C1E21",
"3@	c #1D1E21",
"4@	c #434449",
"5@	c #65666C",
"6@	c #5B5E6A",
"7@	c #3C4554",
"8@	c #2C3544",
"9@	c #222B39",
"0@	c #252E3D",
"a@	c #283243",
"b@	c #374154",
"c@	c #444D5D",
"d@	c #575C6A",
"e@	c #616570",
"f@	c #555862",
"g@	c #393D45",
"h@	c #23262B",
"i@	c #2A2C31",
"j@	c #4E5057",
"k@	c #626671",
"l@	c #505767",
"m@	c #353F4F",
"n@	c #29313F",
"o@	c #242D3D",
"p@	c #273041",
"q@	c #2A3446",
"r@	c #2D384B",
"s@	c #3C4658",
"t@	c #4D5565",
"u@	c #5C6271",
"v@	c #5B606E",
"w@	c #464B57",
"x@	c #2F333C",
"y@	c #363A43",
"z@	c #595E6C",
"A@	c #646A7B",
"B@	c #474F5F",
"C@	c #28303F",
"D@	c #1E2634",
"E@	c #202938",
"F@	c #222C3C",
"G@	c #242F40",
"H@	c #273244",
"I@	c #2A3649",
"J@	c #2E3A4E",
"K@	c #354155",
"L@	c #444E61",
"M@	c #586072",
"N@	c #5F6677",
"O@	c #525867",
"P@	c #3E4452",
"Q@	c #4D5362",
"R@	c #6D707E",
"S@	c #5D626F",
"T@	c #384050",
"U@	c #2B3545",
"V@	c #1E2635",
"W@	c #20293A",
"X@	c #222C3D",
"Y@	c #273245",
"Z@	c #2C394D",
"`@	c #303D52",
" #	c #3C475C",
".#	c #505A6D",
"+#	c #5E6679",
"@#	c #5A6172",
"##	c #545A68",
"$#	c #686A74",
"%#	c #64666F",
"&#	c #414857",
"*#	c #1C2331",
"=#	c #1E2736",
"-#	c #202A3B",
";#	c #222D3E",
">#	c #242F42",
",#	c #293549",
"'#	c #2A374C",
")#	c #2D3A4F",
"!#	c #364256",
"~#	c #475165",
"{#	c #575F72",
"]#	c #5B6172",
"^#	c #60636F",
"/#	c #5C5E68",
"(#	c #434957",
"_#	c #2D384A",
":#	c #2A3547",
"<#	c #283141",
"[#	c #1B2331",
"}#	c #1D2534",
"|#	c #1F2838",
"1#	c #212B3D",
"2#	c #232E41",
"3#	c #253145",
"4#	c #273448",
"5#	c #29364B",
"6#	c #2B384D",
"7#	c #3B475B",
"8#	c #4C5568",
"9#	c #5A5E6B",
"0#	c #444A58",
"a#	c #283346",
"b#	c #293446",
"c#	c #293345",
"d#	c #273142",
"e#	c #1A212E",
"f#	c #1C2432",
"g#	c #1D2637",
"h#	c #1F2A3C",
"i#	c #222D40",
"j#	c #243044",
"k#	c #273247",
"l#	c #283449",
"m#	c #495163",
"n#	c #575D6C",
"o#	c #535866",
"p#	c #3E4655",
"q#	c #263143",
"r#	c #273144",
"s#	c #263043",
"t#	c #242D3E",
"u#	c #181E28",
"v#	c #191F29",
"w#	c #19212E",
"x#	c #1A2230",
"y#	c #1C2433",
"z#	c #1E2737",
"A#	c #1F293A",
"B#	c #212B3C",
"C#	c #232D40",
"D#	c #3E4454",
"E#	c #4F5360",
"F#	c #4C505C",
"G#	c #353B4A",
"H#	c #222A39",
"I#	c #1D2635",
"J#	c #1E2636",
"K#	c #1D2431",
"L#	c #191E28",
"M#	c #14181F",
"N#	c #1A1F29",
"O#	c #1A202A",
"P#	c #1A202B",
"Q#	c #1B212C",
"R#	c #1C232F",
"S#	c #222833",
"T#	c #2E323B",
"U#	c #33363E",
"V#	c #272B33",
"W#	c #191D25",
"X#	c #161921",
"Y#	c #171B22",
"Z#	c #171A1F",
"`#	c #16181B",
" $	c #141518",
".$	c #1C222D",
"+$	c #1D222E",
"@$	c #1D232E",
"#$	c #1E242F",
"$$	c #1E2430",
"%$	c #1E242E",
"&$	c #1E232D",
"*$	c #1D222B",
"=$	c #1E222A",
"-$	c #1E2229",
";$	c #1C2026",
">$	c #1A1E23",
",$	c #1A1D22",
"'$	c #1B1D21",
")$	c #1A1C20",
"!$	c #1A1B1F",
"~$	c #181A1D",
"{$	c #1F2532",
"]$	c #202633",
"^$	c #212733",
"/$	c #202632",
"($	c #20252F",
"_$	c #1F242D",
":$	c #1E232C",
"<$	c #1D2128",
"[$	c #1D2026",
"}$	c #1C1F25",
"|$	c #1B1F24",
"1$	c #1A1D23",
"2$	c #181B21",
"3$	c #1C222E",
"4$	c #202733",
"5$	c #202735",
"6$	c #222835",
"7$	c #212834",
"8$	c #202631",
"9$	c #1E222B",
"0$	c #1D2229",
"a$	c #1D2129",
"b$	c #1B2027",
"c$	c #1A1F26",
"d$	c #181D24",
"e$	c #222A37",
"f$	c #232B3A",
"g$	c #222936",
"h$	c #212734",
"i$	c #1F2530",
"j$	c #1C222B",
"k$	c #1B2029",
"l$	c #1A1F27",
"m$	c #181E26",
"n$	c #262F3E",
"o$	c #293344",
"p$	c #293343",
"q$	c #1F2632",
"r$	c #1C222C",
"s$	c #1B212A",
"t$	c #191E27",
"u$	c #1E2633",
"v$	c #2E394B",
"w$	c #313C4F",
"x$	c #2F3A4D",
"y$	c #242D3C",
"z$	c #202834",
"A$	c #1C212C",
"B$	c #1B202B",
"C$	c #1F2735",
"D$	c #232C3C",
"E$	c #37435A",
"F$	c #39455C",
"G$	c #364157",
"H$	c #323E52",
"I$	c #242C3B",
"J$	c #1D222D",
"K$	c #212937",
"L$	c #354056",
"M$	c #3F4D66",
"N$	c #43516C",
"O$	c #44536E",
"P$	c #42516C",
"Q$	c #293141",
"R$	c #222A3A",
"S$	c #2C3649",
"T$	c #323E53",
"U$	c #3A475F",
"V$	c #4A5A78",
"W$	c #506181",
"X$	c #536586",
"Y$	c #556787",
"Z$	c #556685",
"`$	c #516280",
" %	c #4A5A77",
".%	c #414F69",
"+%	c #283040",
"@%	c #252D3A",
"#%	c #232C3B",
"$%	c #273042",
"%%	c #2A3447",
"&%	c #4D5E7C",
"*%	c #546686",
"=%	c #586A8B",
"-%	c #57698A",
";%	c #4F5F7E",
">%	c #44526D",
",%	c #2D3748",
"'%	c #131821",
")%	c #141922",
"!%	c #2A3345",
"~%	c #313C51",
"{%	c #37445A",
"]%	c #3B4860",
"^%	c #38455C",
"/%	c #1B222D",
"(%	c #030406",
"_%	c #06070A",
":%	c #090C11",
"<%	c #0E1118",
"[%	c #1F2736",
"}%	c #262F40",
"|%	c #273143",
"1%	c #202736",
"2%	c #1C2430",
"3%	c #161C26",
"4%	c #000000",
"5%	c #000101",
"6%	c #020203",
"7%	c #07090C",
"8%	c #1D2330",
"9%	c #181E29",
"0%	c #151A24",
"                                                                                                                                ",
"                                                                                                                                ",
"                                                                                                                                ",
"                                                                                                                                ",
"                                                                                                                                ",
"                                                                                                                                ",
"                                                                                                                                ",
"                                                                                                                                ",
"                                                                                                                                ",
"                                                                                                                                ",
"                                        . + @ # # $ %                                                                           ",
"                                      & * = - ; > , ' ) !                                                                       ",
"                                      ~ { ] ^ / ( _ _ : / < ~                                                                   ",
"                                      [ } { ~ | 1 [ 2 2 : ; # 3 4                                                               ",
"                                            = 5 6 7 8 9 9 _ 7 0 a b                                                             ",
"                                            c d e f [ g h i j k 6 l m n                                                         ",
"                                            4 o p / [ q r s t u v w x y n n     z A B C D                                       ",
"                                            E c F 6 } G H H I J K L M N n O P Q 4 c R S                                         ",
"                                              T { U V 8 # W X Y Z `  ...+.@.#.$.%.&.*.                                          ",
"                                              =.-.;.>.,.'.).).!.~.{.].) ^./.(._.:.<.                                            ",
"                                              [.}.|.1.2.3.4.5.6.7.8.r 9.0.a.s F                                                 ",
"                                              n |.b.b.1.c.}.d.e.f.g.h.i.j.k.l.m.                                                ",
"                                              n.|.o.p.3.;.q.r.j.s.t.u.q v.w.x.y.                                                ",
"                                              z.A.+.B.C.D.E.F.G.H.I.J.K.L.M.N.O.y.                                              ",
"                                            P.Q.c #.g R.S.f._ T.U.V.W.X.Y.Z.`. +.+                                              ",
"                                        ++A @+4 #+$+%+&+*+x =+-+;+>+,+'+)+!+~+{+]+                                              ",
"                                      ^+<.D /+(+#+= _+:+<+[+}+|+1+2+3+4+5+6+7+8+9+                                              ",
"                                    0+a+b+c+d+z e+f+g+h+i+j+k+l+m+n+o+p+q+r+s+t+<+                                              ",
"                                            u+v+w+x+y+z+A+B+C+D+E+F+G+H+I+J+K+w.L+                                              ",
"                                            a+M+N+O+P+Q+R+S+T+U+V+W+X+Y+Z+L.`+ @.@                                              ",
"                                              +@@@#@$@%@&@*@=@-@;@>@,@'@)@!@~@{@]@                                              ",
"                                              *.^@/@(@_@:@<@[@}@|@1@2@3@4@5@6@7@8@                                              ",
"                                              9@0@a@{ 5 b@c@d@e@f@g@h@i@j@k@l@m@n@                                              ",
"                                              >.o@p@q@r@] s@t@u@v@w@x@y@z@A@B@$@C@                                              ",
"                                            D@E@F@G@H@I@J@K@L@M@N@O@P@Q@R@S@T@U@@@                                              ",
"                                            V@W@X@G@Y@I@Z@`@ #.#+#@###$#%#&#(@(+@@                                              ",
"                                          *#=#-#;#>#Y@,#'#)#!#~#{#]#^#/#(#_#:#(+<#+@                                            ",
"                                          [#}#|#1#2#3#4#5#6#`@7#8#u@9#0#a a#b#c#d#0@                                            ",
"                                          ,.e#f#g#h#i#j#k#l#'#' m#n#o#p#= q#r#s#t#P                                             ",
"                                        u#v#z.,.w#x#y#z#A#B#C#3 D#E#F#G#H#I#J#K#L#M#                                            ",
"                                      L#N#O#O#O#O#P#P#Q#m [.R#S#T#U#V#W#X#Y#Z#`# $                                              ",
"                                    L#O#Q#Q#.$+$@$#$$$#$%$&$*$=$-$;$>$,$'$)$!$~$                                                ",
"                                    Q#++++++P.z {$]$a+a+^$/$($_$:$=$<$[$}$|$1$2$                                                ",
"                                  3$A a+4$A A <.5$Q.Q.Q.6$7$^$8$!.&$9$0$a$b$c$d$                                                ",
"                                Q#a+e$d+S f$d+@+@+>.c+c+g$B h$/$i$!.%$&$j$k$l$m$                                                ",
"                                P.5$f$n$<#o$p$l ;./+d+@+g$B B h$a+a+q$#$r$s$v.t$                                                ",
"                                  u$H#;.q@v$w$w$x${ c n$y$f$H#@+c+z$_+@$A$s$x B$                                                ",
"                                    C$D$a@r@#.E$F$:.G$H$#+o p@I$c+4$i$@$r$J$P.3$                                                ",
"                                        K$p@p L$k M$N$O$P$M$8 ; # a Q$/+C @+5$A                                                 ",
"                                          R$p@S$T$U$P$V$W$X$Y$Z$`$ %.%:.< #@+%@%                                                ",
"                                              #%$%%%U U$O$&%*%=%-%;%>%k | ,%+%c+                                                ",
"                                                '%)%).H#!%~%{%]%]%^%$.x$(+Q Q./%                                                ",
"                                                (%_%:%<%'%A.[%}%|%d#o@>.1%2%3%                                                  ",
"                                                4%5%6%(%7%      8%9%0%                                                          ",
"                                              4%4%4%4%                                                                          ",
"                                              4%4%4%                                                                            ",
"                                              4%4%                                                                              ",
"                                              4%                                                                                ",
"                                                                                                                                ",
"                                                                                                                                ",
"                                                                                                                                ",
"                                                                                                                                ",
"                                                                                                                                ",
"                                                                                                                                "};
