/* XPM */
static char * player_idle_14_xpm[] = {
"64 64 584 2",
"  	c None",
". 	c #1C232F",
"+ 	c #2C3546",
"@ 	c #2C3647",
"# 	c #252D3C",
"$ 	c #232C3B",
"% 	c #3A475D",
"& 	c #303B4E",
"* 	c #39455B",
"= 	c #3A465C",
"- 	c #374257",
"; 	c #252E3D",
"> 	c #3C4A62",
", 	c #3E4C64",
"' 	c #11161F",
") 	c #2E394B",
"! 	c #39455C",
"~ 	c #3D4960",
"{ 	c #3B475E",
"] 	c #2C3547",
"^ 	c #3B485E",
"/ 	c #556888",
"( 	c #2F3A4C",
"_ 	c #2E384B",
": 	c #374359",
"< 	c #404D64",
"[ 	c #3C485F",
"} 	c #2F394B",
"| 	c #232C3A",
"1 	c #131820",
"2 	c #313C4F",
"3 	c #364156",
"4 	c #3E4B62",
"5 	c #404D66",
"6 	c #3B475D",
"7 	c #2F394C",
"8 	c #1E2532",
"9 	c #343F53",
"0 	c #38445A",
"a 	c #3C495F",
"b 	c #414E66",
"c 	c #2B3446",
"d 	c #212836",
"e 	c #2D3749",
"f 	c #323D51",
"g 	c #3F4B63",
"h 	c #404D65",
"i 	c #39445A",
"j 	c #354055",
"k 	c #232A39",
"l 	c #222A39",
"m 	c #2B3547",
"n 	c #323C50",
"o 	c #374358",
"p 	c #43516A",
"q 	c #1B212C",
"r 	c #242D3C",
"s 	c #38455B",
"t 	c #414F67",
"u 	c #47556F",
"v 	c #485772",
"w 	c #3F4C64",
"x 	c #262F3F",
"y 	c #252E3E",
"z 	c #313C50",
"A 	c #38445B",
"B 	c #3E4B63",
"C 	c #45536E",
"D 	c #4C5C78",
"E 	c #4D5D7A",
"F 	c #45536D",
"G 	c #364258",
"H 	c #293344",
"I 	c #202735",
"J 	c #2A3447",
"K 	c #313C51",
"L 	c #414F68",
"M 	c #4A5974",
"N 	c #4E5E7A",
"O 	c #495772",
"P 	c #445169",
"Q 	c #232C3C",
"R 	c #1B212D",
"S 	c #181E28",
"T 	c #181E29",
"U 	c #171D29",
"V 	c #171E29",
"W 	c #1B2330",
"X 	c #212938",
"Y 	c #252D3D",
"Z 	c #22252D",
"` 	c #373A43",
" .	c #444752",
"..	c #484C57",
"+.	c #191D27",
"@.	c #161C27",
"#.	c #191F2A",
"$.	c #171D28",
"%.	c #131924",
"&.	c #151C27",
"*.	c #181F2B",
"=.	c #191F2C",
"-.	c #1A212E",
";.	c #19202C",
">.	c #1D2028",
",.	c #3A3D46",
"'.	c #3B3D47",
").	c #151A24",
"!.	c #181D28",
"~.	c #181F2A",
"{.	c #151B26",
"].	c #121822",
"^.	c #141A25",
"/.	c #171D2A",
"(.	c #19202D",
"_.	c #1A1E27",
":.	c #292B33",
"<.	c #3A3C46",
"[.	c #161C28",
"}.	c #141A24",
"|.	c #1D232F",
"1.	c #1C222D",
"2.	c #1D2430",
"3.	c #191F2B",
"4.	c #131822",
"5.	c #33353E",
"6.	c #41444E",
"7.	c #474A55",
"8.	c #383B44",
"9.	c #323D52",
"0.	c #2A3345",
"a.	c #272F3F",
"b.	c #252D3B",
"c.	c #232B39",
"d.	c #222A37",
"e.	c #202733",
"f.	c #1E2431",
"g.	c #1E2531",
"h.	c #1F2632",
"i.	c #1F2633",
"j.	c #2C3548",
"k.	c #364259",
"l.	c #3A465E",
"m.	c #3C4962",
"n.	c #404E67",
"o.	c #45546F",
"p.	c #475671",
"q.	c #424F67",
"r.	c #46536D",
"s.	c #4F5F7D",
"t.	c #4D5D7B",
"u.	c #495975",
"v.	c #465570",
"w.	c #2D3748",
"x.	c #293242",
"y.	c #1B222D",
"z.	c #1D232E",
"A.	c #212936",
"B.	c #202835",
"C.	c #232A38",
"D.	c #2A3445",
"E.	c #3A465D",
"F.	c #404E66",
"G.	c #45536C",
"H.	c #556685",
"I.	c #5A6D8E",
"J.	c #5C7092",
"K.	c #5F7395",
"L.	c #607397",
"M.	c #5E7294",
"N.	c #5B6E8F",
"O.	c #566887",
"P.	c #526281",
"Q.	c #4B5B77",
"R.	c #364257",
"S.	c #293243",
"T.	c #202734",
"U.	c #242C3B",
"V.	c #2A3344",
"W.	c #435068",
"X.	c #3F4B62",
"Y.	c #4A5873",
"Z.	c #4F5F7B",
"`.	c #556686",
" +	c #586A8A",
".+	c #536483",
"++	c #495974",
"@+	c #343E50",
"#+	c #262E3C",
"$+	c #191E27",
"%+	c #0C0E11",
"&+	c #0A0E14",
"*+	c #10141C",
"=+	c #10141B",
"-+	c #0E1218",
";+	c #181D26",
">+	c #151920",
",+	c #12151A",
"'+	c #2D2F26",
")+	c #A5A528",
"!+	c #707027",
"~+	c #151618",
"{+	c #151515",
"]+	c #161616",
"^+	c #595923",
"/+	c #C4C424",
"(+	c #42421E",
"_+	c #111111",
":+	c #0D0D0D",
"<+	c #020202",
"[+	c #040404",
"}+	c #060606",
"|+	c #090909",
"1+	c #0C0C0C",
"2+	c #0F0F0F",
"3+	c #121212",
"4+	c #848428",
"5+	c #FEFE04",
"6+	c #DBDB24",
"7+	c #21211A",
"8+	c #181818",
"9+	c #A5A529",
"0+	c #FFFF01",
"a+	c #8B8B29",
"b+	c #0E0E0E",
"c+	c #888828",
"d+	c #FFFF02",
"e+	c #DDDD24",
"f+	c #22221A",
"g+	c #999929",
"h+	c #FEFE05",
"i+	c #7E7E27",
"j+	c #1E242F",
"k+	c #1A1E26",
"l+	c #0E1014",
"m+	c #0B0B0C",
"n+	c #0E0E0F",
"o+	c #32321B",
"p+	c #B6B625",
"q+	c #7E7E26",
"r+	c #181817",
"s+	c #171717",
"t+	c #37371D",
"u+	c #8F8F25",
"v+	c #282818",
"w+	c #1C1D1F",
"x+	c #31353F",
"y+	c #212630",
"z+	c #1F2734",
"A+	c #283140",
"B+	c #2B3444",
"C+	c #30394A",
"D+	c #374050",
"E+	c #3B414E",
"F+	c #43454C",
"G+	c #535153",
"H+	c #5F5B5A",
"I+	c #575555",
"J+	c #262627",
"K+	c #141414",
"L+	c #4E4D51",
"M+	c #716E70",
"N+	c #4E525E",
"O+	c #353E4F",
"P+	c #283141",
"Q+	c #2B3546",
"R+	c #323D50",
"S+	c #394457",
"T+	c #4A5162",
"U+	c #898589",
"V+	c #918C8E",
"W+	c #545864",
"X+	c #1D1D21",
"Y+	c #2F3239",
"Z+	c #79777D",
"`+	c #7A787C",
" @	c #2E3847",
".@	c #27303E",
"+@	c #293343",
"@@	c #303A4E",
"#@	c #364054",
"$@	c #3B4558",
"%@	c #5F626F",
"&@	c #9A9494",
"*@	c #6A6B75",
"=@	c #333843",
"-@	c #3D424E",
";@	c #878488",
">@	c #63656E",
",@	c #313B4D",
"'@	c #293240",
")@	c #1E2632",
"!@	c #2C3648",
"~@	c #2F394D",
"{@	c #374256",
"]@	c #3D475A",
"^@	c #8D8A8E",
"/@	c #807F87",
"(@	c #394252",
"_@	c #0E0E10",
":@	c #0D0E0F",
"<@	c #4F535F",
"[@	c #8A8B97",
"}@	c #545966",
"|@	c #252C3A",
"1@	c #1D2532",
"2@	c #222B3B",
"3@	c #273041",
"4@	c #2E394C",
"5@	c #344054",
"6@	c #344155",
"7@	c #737683",
"8@	c #9798A5",
"9@	c #535A6B",
"0@	c #222833",
"a@	c #13171F",
"b@	c #656A78",
"c@	c #878D9F",
"d@	c #3D4556",
"e@	c #282F3D",
"f@	c #1F2735",
"g@	c #212A3A",
"h@	c #222C3D",
"i@	c #253042",
"j@	c #293548",
"k@	c #2D3A4D",
"l@	c #2F3C51",
"m@	c #313E52",
"n@	c #979BAB",
"o@	c #7A7F90",
"p@	c #353E4E",
"q@	c #262D3C",
"r@	c #868791",
"s@	c #787B88",
"t@	c #2D3648",
"u@	c #2A3242",
"v@	c #20252F",
"w@	c #1A212D",
"x@	c #212939",
"y@	c #212A3B",
"z@	c #232D3E",
"A@	c #242F41",
"B@	c #273347",
"C@	c #2C384C",
"D@	c #2D3B4F",
"E@	c #313D52",
"F@	c #82879A",
"G@	c #9095A8",
"H@	c #434B5C",
"I@	c #5A595F",
"J@	c #959093",
"K@	c #484D5B",
"L@	c #2D3A4C",
"M@	c #2C3748",
"N@	c #232A36",
"O@	c #1C2432",
"P@	c #202A3A",
"Q@	c #222C3C",
"R@	c #242F40",
"S@	c #263144",
"T@	c #293448",
"U@	c #2B384C",
"V@	c #2C3A4F",
"W@	c #2E3B50",
"X@	c #5C6272",
"Y@	c #9498AC",
"Z@	c #5B606E",
"`@	c #464850",
" #	c #848184",
".#	c #2D374B",
"+#	c #2D394C",
"@#	c #2B3648",
"##	c #2A3343",
"$#	c #1E2737",
"%#	c #202A3B",
"&#	c #212B3D",
"*#	c #242E40",
"=#	c #283447",
"-#	c #29354A",
";#	c #2B384D",
">#	c #2C394E",
",#	c #2D3A4F",
"'#	c #7D8191",
")#	c #747683",
"!#	c #3F424D",
"~#	c #2B374A",
"{#	c #293345",
"]#	c #283142",
"^#	c #1D2534",
"/#	c #1F2839",
"(#	c #202B3D",
"_#	c #222D40",
":#	c #253044",
"<#	c #273348",
"[#	c #28354A",
"}#	c #2A374C",
"|#	c #2F3C50",
"1#	c #727482",
"2#	c #83838E",
"3#	c #3C4658",
"4#	c #253145",
"5#	c #293347",
"6#	c #273144",
"7#	c #262F40",
"8#	c #1F2531",
"9#	c #19212F",
"0#	c #1D2637",
"a#	c #1F2A3D",
"b#	c #212D41",
"c#	c #242F44",
"d#	c #263248",
"e#	c #28344A",
"f#	c #29354B",
"g#	c #2C384D",
"h#	c #595D6B",
"i#	c #87848C",
"j#	c #535866",
"k#	c #283242",
"l#	c #212C41",
"m#	c #242F43",
"n#	c #232D40",
"o#	c #202938",
"p#	c #1B212E",
"q#	c #161A22",
"r#	c #171B23",
"s#	c #151921",
"t#	c #161D2B",
"u#	c #192232",
"v#	c #1C2638",
"w#	c #1E293C",
"x#	c #202B3F",
"y#	c #212C40",
"z#	c #232E42",
"A#	c #394050",
"B#	c #6A6972",
"C#	c #50525D",
"D#	c #202836",
"E#	c #111723",
"F#	c #151922",
"G#	c #16191E",
"H#	c #1A2029",
"I#	c #1A2028",
"J#	c #1B1F27",
"K#	c #1B2026",
"L#	c #191E24",
"M#	c #171C21",
"N#	c #171B20",
"O#	c #171B21",
"P#	c #191C21",
"Q#	c #1B1E23",
"R#	c #1C2025",
"S#	c #1C2026",
"T#	c #1B1F26",
"U#	c #191E25",
"V#	c #191F28",
"W#	c #1B2029",
"X#	c #1B212A",
"Y#	c #1C212A",
"Z#	c #1D222B",
"`#	c #1E232C",
" $	c #1F242D",
".$	c #1E232A",
"+$	c #1E232B",
"@$	c #1E222A",
"#$	c #1D222A",
"$$	c #1D2129",
"%$	c #1C2129",
"&$	c #1B2028",
"*$	c #1A2027",
"=$	c #14181F",
"-$	c #1B202A",
";$	c #1C212B",
">$	c #202633",
",$	c #212733",
"'$	c #202631",
")$	c #1F252F",
"!$	c #1E232D",
"~$	c #171B24",
"{$	c #191E28",
"]$	c #1C212C",
"^$	c #1E2430",
"/$	c #222835",
"($	c #212835",
"_$	c #212834",
":$	c #1F242F",
"<$	c #1F242E",
"[$	c #1A1F29",
"}$	c #1B212B",
"|$	c #1C222E",
"1$	c #222936",
"2$	c #212734",
"3$	c #202632",
"4$	c #1A202B",
"5$	c #1F2634",
"6$	c #212937",
"7$	c #222937",
"8$	c #222A38",
"9$	c #1E232E",
"0$	c #1C222C",
"a$	c #1D2330",
"b$	c #232B3A",
"c$	c #1F2532",
"d$	c #232A37",
"e$	c #232B38",
"f$	c #222B3A",
"g$	c #212735",
"h$	c #293241",
"i$	c #28303F",
"j$	c #2B3343",
"k$	c #2E3849",
"l$	c #303A4C",
"m$	c #303A4D",
"n$	c #293244",
"o$	c #222938",
"p$	c #455470",
"q$	c #485874",
"r$	c #414E67",
"s$	c #354054",
"t$	c #2D3647",
"u$	c #323C4F",
"v$	c #354156",
"w$	c #3F4D65",
"x$	c #44536D",
"y$	c #4E5F7E",
"z$	c #536587",
"A$	c #56698B",
"B$	c #5D7194",
"C$	c #667BA0",
"D$	c #697EA5",
"E$	c #697FA6",
"F$	c #61759A",
"G$	c #42516A",
"H$	c #39455A",
"I$	c #1C222F",
"J$	c #1A202C",
"K$	c #212A39",
"L$	c #242D3E",
"M$	c #2A3446",
"N$	c #333E53",
"O$	c #3C4960",
"P$	c #42506A",
"Q$	c #4B5B78",
"R$	c #506181",
"S$	c #576A8D",
"T$	c #5F749A",
"U$	c #647AA0",
"V$	c #6C83AA",
"W$	c #7087AE",
"X$	c #6D83AA",
"Y$	c #5E7194",
"Z$	c #495875",
"`$	c #283143",
" %	c #242D3D",
".%	c #141921",
"+%	c #10151D",
"@%	c #202939",
"#%	c #252F40",
"$%	c #273143",
"%%	c #283244",
"&%	c #293346",
"*%	c #2D384B",
"=%	c #344055",
"-%	c #41506B",
";%	c #455571",
">%	c #475773",
",%	c #283245",
"'%	c #252E3F",
")%	c #1B222F",
"!%	c #05070B",
"~%	c #111721",
"{%	c #273244",
"]%	c #283345",
"^%	c #283346",
"/%	c #010102",
"(%	c #070A11",
"_%	c #131A25",
":%	c #1B2230",
"<%	c #1A2230",
"[%	c #1C2533",
"}%	c #1D2533",
"|%	c #161D29",
"1%	c #10151F",
"2%	c #090C13",
"3%	c #000000",
"                                                                                                                                ",
"                                                                                                                                ",
"                                                                                                                                ",
"                                                                                                                                ",
"                                                                                                                                ",
"                                                                                                                                ",
"                                                                                                                                ",
"                                                . + @ #                                                                         ",
"                                              $ % & * = - ;                                                                     ",
"                                              > , ' ) ! ~ { ]                                                                   ",
"                                              ^ / ( _ : ~ < [ }                                                                 ",
"                                                | 1 2 3 ! 4 5 6 7                                                               ",
"                                                  8 7 9 0 a b 4 0 c                                                             ",
"                                                  d e f : a g h i j k                                                           ",
"                                                  l m n o ^ g p [ 3 } q                                                         ",
"                                                  r m n s 4 t u v w 2 x                                                         ",
"                                                  y m z A B C D E F G H I                                                       ",
"                                                  r J K ! L M N O P G Q R S                                                     ",
"                                                T U V W X Y r Z `  ...+.@.T S                                                   ",
"                                                #.$.%.&.*.=.-.;.*.>.,.'.).@.T !.                                                ",
"                                              #.~.{.].^./.;.(.(.(._.:.<.[.{.}.#.|.1.                                            ",
"                                            2.. 3.}.' 4.@.V =.!.5.6.7.8.m 9.K _ 0.a.b.c.d.e.                                    ",
"                                    f.g.h.i.d ; j.9.k.l.m.n.o.p.q.r.M s.t.u.v.n.! 9 ( w.x.y.                                    ",
"                                  z.A.B.d C.# D.z E.F.G.v E H.I.J.K.L.M.N.O.P.Q.L R.S.i.                                        ",
"                                      g.T.U.V.& R.% = W.P X.Y.Z.`. +.+++B @+#+$+%+                                              ",
"                                              &+*+=+-+;+>+,+'+)+!+~+{+]+^+/+(+_+:+                                              ",
"                                              <+[+}+|+1+2+3+4+5+6+7+8+8+9+0+a+3+b+                                              ",
"                                              <+[+}+|+1+2+3+c+d+e+f+8+8+g+h+i+_+:+                                              ",
"                                            8 T.j+k+l+m+n+_+o+p+q+r+s+s+t+u+v+w+x+y+                                            ",
"                                            z+A+B+C+D+E+F+G+H+I+J+]+]+]+K+L+M+N+O+                                              ",
"                                              # P+Q+) R+S+T+U+V+W+X+K+K+Y+Z+`+@+ @                                              ",
"                                              d .@+@e @@#@$@%@&@*@=@3+3+-@;@>@,@'@                                              ",
"                                              )@; x.!@~@f {@]@^@/@(@_@:@<@[@}@) |@                                              ",
"                                              1@2@3@m 4@z 5@6@7@8@9@0@a@b@c@d@w.e@                                              ",
"                                              f@g@h@i@j@k@l@m@T+n@o@p@q@r@s@( t@u@v@                                            ",
"                                            w@x@y@z@A@B@C@D@l@E@F@G@H@I@J@K@L@M@x.N@                                            ",
"                                            O@P@Q@R@S@T@U@V@W@W@X@Y@Z@`@ #.#+#@####+                                            ",
"                                            $#%#&#*#S@=#-#;#>#,#5@'#)#@+!#B@~#@#{#]#j+                                          ",
"                                          @.^#/#(#_#:#<#[#}#;#;#|#1#2#3#y@4#T@5#6#7#8#                                          ",
"                                            &.9#0#a#b#c#d#e#e#f#g#h#i#j#k#l#m#n#o#p#q#                                          ",
"                                              r#s#^.t#u#v#w#x#y#z#A#B#C#D#E#[.F#G#G#                                            ",
"                                            ;+H#I#J#K#L#M#N#N#O#O#O#P#P#Q#R#S#K#T#U#                                            ",
"                                            V#H#H#W#X#Y#Z#`# $ $`#.$+$@$#$$$%$&$*$I#=$                                          ",
"                                            -$-$-$;$1.j+h.>$,$,$'$)$)$!$`#`#Z#X#W#I#~$                                          ",
"                                          {$-$-$]$z.^$h.T.T./$($_$,$'$:$<$:$z.;$-$-$[$                                          ",
"                                          [$}$]$|$2.g.e.B.($1$1$($2$3$'$e.e.z.;$X#z.|.                                          ",
"                                          4$1.z.2.g.5$d 6$7$8$1$($_$($8$6$h.9$]$0$)@f.                                          ",
"                                        [$2.|.a$8 T.d 8$X 8$7$1$7$k b$8$T.8#9$1.c$5$C.|.                                        ",
"                                        |.d$e$7$B.f@D#6$7$8$b$b$b$f$8$g$c$8#g.8$x.B+h$T.                                        ",
"                                        h.# i$j$k$l$m$_ n$r l l o$6$8$S.s p$q$r$s$( B+T.                                        ",
"                                        z+X a.t$u$v$% w$x$q$y$z$A$B$C$D$E$F$s.G$H$e b$I$                                        ",
"                                        J$K$Q L$M$N$O$P$p.Q$R$S$T$U$V$W$X$Y$Z$G `$ %6$.%                                        ",
"                                          +%-.@%#%$%%%&%*%=%> -%;%>%o.> E@J ,%%%'%)%                                            ",
"                                                !%~%o##%,%,%%%{%6#%%]%^%&%]%L$~%                                                ",
"                                                      /%(%_%(.:%<%[%}%|%1%2%                                                    ",
"                                                      3%3%            3%3%                                                      ",
"                                                      3%3%            3%3%                                                      ",
"                                                      3%3%            3%3%                                                      ",
"                                                      3%3%            3%                                                        ",
"                                                                                                                                ",
"                                                                                                                                ",
"                                                                                                                                ",
"                                                                                                                                ",
"                                                                                                                                "};
