/* XPM */
static char * player_dash_1_xpm[] = {
"64 64 585 2",
"  	c None",
". 	c #242C3A",
"+ 	c #262E3D",
"@ 	c #242B39",
"# 	c #313B4F",
"$ 	c #2F394B",
"% 	c #343E52",
"& 	c #364156",
"* 	c #333D50",
"= 	c #2A3344",
"- 	c #1E2531",
"; 	c #303B4E",
"> 	c #313C4F",
", 	c #1F2532",
"' 	c #2E384A",
") 	c #39455B",
"! 	c #3B475E",
"~ 	c #3A465C",
"{ 	c #38445A",
"] 	c #43516B",
"^ 	c #283141",
"/ 	c #2B3445",
"( 	c #374258",
"_ 	c #3E4B62",
": 	c #3D4A61",
"< 	c #374358",
"[ 	c #2C3546",
"} 	c #1D232F",
"| 	c #374459",
"1 	c #181E28",
"2 	c #2B3546",
"3 	c #343F54",
"4 	c #374359",
"5 	c #3C485F",
"6 	c #3F4C64",
"7 	c #3E4B63",
"8 	c #2E3849",
"9 	c #1F2633",
"0 	c #313C50",
"a 	c #354156",
"b 	c #3D4A62",
"c 	c #2C3648",
"d 	c #2F394C",
"e 	c #39455C",
"f 	c #3C4960",
"g 	c #414E66",
"h 	c #404D66",
"i 	c #293344",
"j 	c #1E2532",
"k 	c #262F3F",
"l 	c #2D3749",
"m 	c #333E53",
"n 	c #3E4A62",
"o 	c #425068",
"p 	c #46556F",
"q 	c #465570",
"r 	c #303B4F",
"s 	c #262E3E",
"t 	c #1D2330",
"u 	c #323D52",
"v 	c #39465D",
"w 	c #45546E",
"x 	c #4C5C78",
"y 	c #4C5C79",
"z 	c #44526C",
"A 	c #364257",
"B 	c #252D3D",
"C 	c #1A202C",
"D 	c #171D28",
"E 	c #2B3547",
"F 	c #37435A",
"G 	c #45536C",
"H 	c #3E495D",
"I 	c #3D4555",
"J 	c #363B48",
"K 	c #1C222C",
"L 	c #161C27",
"M 	c #202836",
"N 	c #242D3C",
"O 	c #273042",
"P 	c #2A3446",
"Q 	c #293242",
"R 	c #202631",
"S 	c #2A2E37",
"T 	c #2C303A",
"U 	c #32353D",
"V 	c #2E313A",
"W 	c #1B1F28",
"X 	c #151B27",
"Y 	c #171C27",
"Z 	c #191F2A",
"` 	c #171D27",
" .	c #191F2B",
"..	c #171D29",
"+.	c #151C27",
"@.	c #181E2A",
"#.	c #181F2C",
"$.	c #191F2C",
"%.	c #19202C",
"&.	c #1A212D",
"*.	c #181C26",
"=.	c #2C2F37",
"-.	c #343740",
";.	c #20242C",
">.	c #161C28",
",.	c #252E3E",
"'.	c #252E3D",
").	c #252D3C",
"!.	c #232A38",
"~.	c #181E29",
"{.	c #171E29",
"].	c #141A25",
"^.	c #131924",
"/.	c #181E2B",
"(.	c #19202D",
"_.	c #21252F",
":.	c #2F323B",
"<.	c #40434E",
"[.	c #282E3A",
"}.	c #2F3A4E",
"|.	c #37445B",
"1.	c #354157",
"2.	c #333E52",
"3.	c #303A4D",
"4.	c #1C232E",
"5.	c #121722",
"6.	c #151B26",
"7.	c #181F2B",
"8.	c #1A212E",
"9.	c #1E2634",
"0.	c #252B38",
"a.	c #373D4A",
"b.	c #404758",
"c.	c #434F65",
"d.	c #495874",
"e.	c #4B5B78",
"f.	c #39465C",
"g.	c #222A37",
"h.	c #1C232F",
"i.	c #1C2330",
"j.	c #1E2533",
"k.	c #222A39",
"l.	c #2A3345",
"m.	c #313B50",
"n.	c #3A475E",
"o.	c #44536E",
"p.	c #4B5B77",
"q.	c #50607E",
"r.	c #576A8A",
"s.	c #5C6F90",
"t.	c #5A6D8F",
"u.	c #556686",
"v.	c #4B5A76",
"w.	c #3D4960",
"x.	c #2C3444",
"y.	c #1D232E",
"z.	c #1D2431",
"A.	c #202835",
"B.	c #2C3548",
"C.	c #425069",
"D.	c #475570",
"E.	c #4C5B77",
"F.	c #526381",
"G.	c #566887",
"H.	c #586B8B",
"I.	c #596C8C",
"J.	c #51627F",
"K.	c #424F67",
"L.	c #2F394A",
"M.	c #20252F",
"N.	c #16181C",
"O.	c #0F1011",
"P.	c #080809",
"Q.	c #1F2734",
"R.	c #212836",
"S.	c #242C3B",
"T.	c #2A3445",
"U.	c #323D51",
"V.	c #3A465D",
"W.	c #414E67",
"X.	c #364154",
"Y.	c #3E4A60",
"Z.	c #3B4659",
"`.	c #353F4F",
" +	c #29303D",
".+	c #1D2128",
"++	c #17191B",
"@+	c #171717",
"#+	c #2B2B18",
"$+	c #1A1A14",
"%+	c #101010",
"&+	c #0B0B0B",
"*+	c #1F2632",
"=+	c #222A38",
"-+	c #273040",
";+	c #2A3343",
">+	c #1F2531",
",+	c #242B38",
"'+	c #1D222C",
")+	c #14161A",
"!+	c #222420",
"~+	c #7A7B21",
"{+	c #5D5D1D",
"]+	c #1A1B18",
"^+	c #545421",
"/+	c #ADAD19",
"(+	c #4B4B1B",
"_+	c #111111",
":+	c #0D0D0D",
"<+	c #161B25",
"[+	c #0B0E13",
"}+	c #0A0C10",
"|+	c #090A0C",
"1+	c #09090A",
"2+	c #0C0D0D",
"3+	c #0F0F0F",
"4+	c #121211",
"5+	c #6D6D24",
"6+	c #EFEF0D",
"7+	c #BCBC1B",
"8+	c #27271B",
"9+	c #181818",
"0+	c #9B9B25",
"a+	c #F5F507",
"b+	c #7D7D21",
"c+	c #121212",
"d+	c #06080B",
"e+	c #060708",
"f+	c #070708",
"g+	c #0C0C0C",
"h+	c #808021",
"i+	c #F6F606",
"j+	c #D6D620",
"k+	c #25251B",
"l+	c #191918",
"m+	c #888821",
"n+	c #ECEC0E",
"o+	c #707024",
"p+	c #1C222E",
"q+	c #1E2430",
"r+	c #1A1E27",
"s+	c #171A1F",
"t+	c #131417",
"u+	c #121213",
"v+	c #131313",
"w+	c #4C4B1C",
"x+	c #B3B318",
"y+	c #888823",
"z+	c #181817",
"A+	c #44441C",
"B+	c #7C7C1D",
"C+	c #26261A",
"D+	c #19191B",
"E+	c #20232A",
"F+	c #202634",
"G+	c #272F3F",
"H+	c #2C3545",
"I+	c #2E3746",
"J+	c #2F3542",
"K+	c #31353E",
"L+	c #3B3C41",
"M+	c #514F4E",
"N+	c #5E5C4D",
"O+	c #2D2D2B",
"P+	c #161616",
"Q+	c #161615",
"R+	c #3B3B3D",
"S+	c #575456",
"T+	c #3E434E",
"U+	c #343C4C",
"V+	c #283140",
"W+	c #2E384B",
"X+	c #3C4557",
"Y+	c #4A5161",
"Z+	c #79787E",
"`+	c #868385",
" @	c #4B4D57",
".@	c #1C1E21",
"+@	c #141414",
"@@	c #2C2E35",
"#@	c #77757A",
"$@	c #353F50",
"%@	c #2D3646",
"&@	c #27303E",
"*@	c #293343",
"=@	c #354054",
"-@	c #3B4559",
";@	c #5F636F",
">@	c #908C8F",
",@	c #666873",
"'@	c #292D36",
")@	c #434753",
"!@	c #878589",
"~@	c #5F616B",
"{@	c #303B4C",
"]@	c #28303E",
"^@	c #1E2633",
"/@	c #283142",
"(@	c #2F394D",
"_@	c #374155",
":@	c #444D5E",
"<@	c #86858B",
"[@	c #787A85",
"}@	c #383F4D",
"|@	c #121316",
"1@	c #101216",
"2@	c #5A5D69",
"3@	c #888A96",
"4@	c #484F5E",
"5@	c #1F2735",
"6@	c #222B3B",
"7@	c #252F3F",
"8@	c #293345",
"9@	c #2D384B",
"0@	c #303C4F",
"a@	c #333F53",
"b@	c #364255",
"c@	c #6E727F",
"d@	c #8D909E",
"e@	c #535A6B",
"f@	c #1E232C",
"g@	c #1B212E",
"h@	c #747786",
"i@	c #808595",
"j@	c #333D4F",
"k@	c #2C3647",
"l@	c #262D3A",
"m@	c #212939",
"n@	c #212A3B",
"o@	c #232D3E",
"p@	c #253042",
"q@	c #293448",
"r@	c #2D394D",
"s@	c #2E3C50",
"t@	c #303D52",
"u@	c #4E5667",
"v@	c #8E92A4",
"w@	c #717789",
"x@	c #303745",
"y@	c #3F424D",
"z@	c #8F8E98",
"A@	c #626673",
"B@	c #2E394C",
"C@	c #28303F",
"D@	c #1C2432",
"E@	c #202A3A",
"F@	c #222B3C",
"G@	c #242E40",
"H@	c #263143",
"I@	c #2C394D",
"J@	c #2D3A4F",
"K@	c #2E3B50",
"L@	c #374356",
"M@	c #797F92",
"N@	c #85899B",
"O@	c #414858",
"P@	c #5E5D62",
"Q@	c #89868A",
"R@	c #333C4F",
"S@	c #2D394B",
"T@	c #2B3647",
"U@	c #293141",
"V@	c #222934",
"W@	c #1F2737",
"X@	c #202A3B",
"Y@	c #222C3D",
"Z@	c #242F41",
"`@	c #263145",
" #	c #293548",
".#	c #2A374C",
"+#	c #2C394E",
"@#	c #2F3C51",
"##	c #575F72",
"$#	c #848798",
"%#	c #555A69",
"&#	c #45474F",
"*#	c #5C5C64",
"=#	c #2A3549",
"-#	c #2C374B",
";#	c #293243",
">#	c #252C3A",
",#	c #1E2636",
"'#	c #1F293A",
")#	c #212B3D",
"!#	c #232E41",
"~#	c #253145",
"{#	c #273448",
"]#	c #29354A",
"^#	c #2B384D",
"/#	c #2B394E",
"(#	c #394458",
"_#	c #808290",
":#	c #696B79",
"<#	c #353E4C",
"[#	c #273347",
"}#	c #2B3649",
"|#	c #2A3447",
"1#	c #283244",
"2#	c #1B2332",
"3#	c #1E2738",
"4#	c #202B3E",
"5#	c #232E42",
"6#	c #253146",
"7#	c #273349",
"8#	c #29354B",
"9#	c #29364B",
"0#	c #2A364C",
"a#	c #707280",
"b#	c #777782",
"c#	c #3D4657",
"d#	c #1E2736",
"e#	c #242F43",
"f#	c #273246",
"g#	c #263043",
"h#	c #242D3E",
"i#	c #212938",
"j#	c #181D25",
"k#	c #151A23",
"l#	c #171D26",
"m#	c #161C25",
"n#	c #1A2232",
"o#	c #1D2637",
"p#	c #1F293C",
"q#	c #212C3F",
"r#	c #232D41",
"s#	c #575A67",
"t#	c #706F78",
"u#	c #3F4655",
"v#	c #1B232F",
"w#	c #1B2334",
"x#	c #1D2535",
"y#	c #1B222E",
"z#	c #181D26",
"A#	c #151921",
"B#	c #191E28",
"C#	c #1A2029",
"D#	c #1A1F28",
"E#	c #191E27",
"F#	c #171D24",
"G#	c #171C24",
"H#	c #171C25",
"I#	c #181D27",
"J#	c #19202A",
"K#	c #2B2E36",
"L#	c #34353B",
"M#	c #13161B",
"N#	c #16181E",
"O#	c #17191E",
"P#	c #181A1D",
"Q#	c #15171B",
"R#	c #1B202A",
"S#	c #1B212B",
"T#	c #1C212B",
"U#	c #1C222B",
"V#	c #1D232C",
"W#	c #1E232B",
"X#	c #1D222A",
"Y#	c #1C2128",
"Z#	c #1C2026",
"`#	c #1C1F25",
" $	c #1C1F24",
".$	c #1B1E23",
"+$	c #1B1E22",
"@$	c #1B1D22",
"#$	c #1A1F29",
"$$	c #1B202B",
"%$	c #1C212C",
"&$	c #1D222D",
"*$	c #202632",
"=$	c #1F242E",
"-$	c #1D2127",
";$	c #1C2027",
">$	c #1B1F26",
",$	c #1A1F25",
"'$	c #181C23",
")$	c #1B212C",
"!$	c #1C222D",
"~$	c #1D222E",
"{$	c #202733",
"]$	c #202734",
"^$	c #212834",
"/$	c #212835",
"($	c #212734",
"_$	c #202530",
":$	c #1E222B",
"<$	c #1C2129",
"[$	c #1B2028",
"}$	c #1A2027",
"|$	c #191E26",
"1$	c #1E2431",
"2$	c #222936",
"3$	c #222835",
"4$	c #1F2530",
"5$	c #1F242F",
"6$	c #1E232E",
"7$	c #222836",
"8$	c #202633",
"9$	c #202735",
"0$	c #212937",
"a$	c #222937",
"b$	c #1E242F",
"c$	c #161A23",
"d$	c #262F3D",
"e$	c #27303F",
"f$	c #262F3E",
"g$	c #222938",
"h$	c #1C212A",
"i$	c #222B39",
"j$	c #303A4C",
"k$	c #2C3649",
"l$	c #242D3D",
"m$	c #232B3A",
"n$	c #222B3A",
"o$	c #232C3C",
"p$	c #283243",
"q$	c #303A4E",
"r$	c #364358",
"s$	c #3B485F",
"t$	c #252D3B",
"u$	c #252C3B",
"v$	c #232B39",
"w$	c #242D3B",
"x$	c #161C26",
"y$	c #212A39",
"z$	c #263041",
"A$	c #2F394E",
"B$	c #3E4B64",
"C$	c #44526D",
"D$	c #4A5976",
"E$	c #4F6080",
"F$	c #536587",
"G$	c #546687",
"H$	c #546686",
"I$	c #546584",
"J$	c #516281",
"K$	c #4F607E",
"L$	c #495976",
"M$	c #404E68",
"N$	c #131821",
"O$	c #2E384C",
"P$	c #3F4D66",
"Q$	c #495977",
"R$	c #536687",
"S$	c #5B6F93",
"T$	c #63789E",
"U$	c #6A7FA5",
"V$	c #697FA5",
"W$	c #657A9F",
"X$	c #566888",
"Y$	c #475672",
"Z$	c #323D50",
"`$	c #191F29",
" %	c #1C2431",
".%	c #252E40",
"+%	c #283345",
"@%	c #2D384C",
"#%	c #333F56",
"$%	c #3A4860",
"%%	c #41506A",
"&%	c #465671",
"*%	c #485874",
"=%	c #45546F",
"-%	c #3D4B64",
";%	c #354158",
">%	c #273142",
",%	c #1D2430",
"'%	c #1F2736",
")%	c #263042",
"!%	c #273143",
"~%	c #283245",
"{%	c #283144",
"]%	c #1D2532",
"^%	c #020203",
"/%	c #030406",
"(%	c #070A0E",
"_%	c #141923",
":%	c #131822",
"<%	c #121720",
"[%	c #141A23",
"}%	c #181F2A",
"|%	c #0F131A",
"1%	c #000000",
"2%	c #000101",
"3%	c #010101",
"4%	c #010202",
"                                                                                                                                ",
"                                                                                                                                ",
"                                                                                                                                ",
"                                                                                                                                ",
"                                                                                                                                ",
"                                                                                                                                ",
"                                                                                                                                ",
"                                                                                                                                ",
"                                              . + @                                                                             ",
"                                            # $ % & * = -                                                                       ",
"                                          ; > , ' ) ! ~ * +                                                                     ",
"                                          { ] ^ / ( ! _ : < [ }                                                                 ",
"                                            | 1 2 3 4 5 6 7 4 8 9                                                               ",
"                                                = 0 a ~ b 6 5 & c 9                                                             ",
"                                                ^ d 3 e f g h ! 3 i j                                                           ",
"                                                k l m ) n o p q b r s t                                                         ",
"                                                s c u v 6 w x y z A B C D                                                       ",
"                                                B E 0 F 7 w G H I J K L D D                                                     ",
"                                                M N O P c Q R S T U V W X L Y Z                                                 ",
"                                              `  ...+.@.#.$.%.&.*.=.-.;.>.$.M ,.'.N N ).!.                                      ",
"                                              ~.{.].^.>./.(.(./._.:.<.[.}.4 |.1.2.3.[ + 4.                                      ",
"                                              Z D ^.5.6.7.8.9.0.a.b.c.d.y e.d.] f.$ g.                                          ",
"                                            h.h.i.j.k.l.m.n.o.p.q.r.s.t.u.v.w.x.y.                                              ",
"                                        z.j A.B B.3 f C.D.E.F.G.H.I.J.K.L.M.N.O.P.                                              ",
"                                    j 9 Q.R.S.T.U.V.5 W.K.X.Y.Z.`. +.+++@+#+$+%+&+                                              ",
"                                    *+9 A.=+'.-+= ;+>+,+'+)+!+~+{+]+@+@+^+/+(+_+:+                                              ",
"                                            <+[+}+|+1+2+3+4+5+6+7+8+9+9+0+a+b+c+:+                                              ",
"                                              d+e+f+1+g+3+c+h+i+j+k+9+l+m+n+o+_+:+                                              ",
"                                            p+q+K r+s+t+u+v+w+x+y+z+@+@+A+B+C+D+E+                                              ",
"                                            F+G+Q H+I+J+K+L+M+N+O+P+P+P+Q+R+S+T+U+                                              ",
"                                              . V+/ W+* X+Y+Z+`+ @.@+@+@@@#@#@$@%@                                              ",
"                                              R.&@*@l ; =@-@;@>@,@'@c+_+)@!@~@{@]@                                              ",
"                                              ^@N /@c (@U._@:@<@[@}@|@1@2@3@4@' ,+                                              ",
"                                              5@6@7@8@9@0@a@b@c@d@e@f@g@h@i@j@k@l@                                              ",
"                                            %.m@n@o@p@q@r@s@t@u@v@w@x@y@z@A@B@k@C@                                              ",
"                                            D@E@F@G@H@q@I@J@K@L@M@N@O@P@Q@R@S@T@U@V@                                            ",
"                                            W@X@Y@Z@`@ #.#+#J@@###$#%#&#*#=#-#E ;#>#                                            ",
"                                          ..,#'#)#!#~#{#]#^#/#J@(#_#:#<#s [#}#|#1#s                                             ",
"                                          ].#.2#3#4#5#6#7#8#9#0#u a#b#c#d#e#f#g#h#i#j#                                          ",
"                                          k#l#m#L #.n#o#p#q#r#e#f#s#t#u#v#w#x#y#z#A#                                            ",
"                                          B#C#D#E#j#F#G#H#I#1 ~.J#K#L#;.M#N#O#P#Q#                                              ",
"                                        I#R#R#R#S#T#U#'+V#W#X#Y#Z#Z#`# $.$.$+$@$s+                                              ",
"                                        #$R#$$%$&$} >+*+*$*$R =$f@W#X#.+-$;$>$,$'$                                              ",
"                                      B#S#)$!$~$q+- {$]$^$/$($*$_$=$f@:$X#<$[$}$|$                                              ",
"                                      p+p+~$} 1$j.F+/$/$R.2$3$($*$4$=$5$6$U#R#C#D#                                              ",
"                                    p+7$/$8$9 9 9$R.0$0$a$2$/$(${$8${$8$b$%$R#R#S#c$                                            ",
"                                    9 . d$e$f$S.k.i#0$g$a$a$a$a$g$g$R.*+y.%$h$!$} H#                                            ",
"                                  <+9 i$-+[ j$> ; k$/@l$m$k.k.n$k.R.8$4$y.K } j 1$B#                                            ",
"                                     .5@o$p$q$r$5 7 b s$F u k$;#s t$u$. v$v$S.w$. !$                                            ",
"                                      x$i.y$z$A$F B$C$D$E$F$G$H$I$J$K$L$M$< 3.[ C@y.                                            ",
"                                          N$~.o$8@O$1.P$Q$R$S$T$U$V$W$X$Y$n.Z$/ S.`$                                            ",
"                                                 %y$.%+%@%#%$%%%&%*%=%-%;%9@>%m$,%                                              ",
"                                                    D ` &.'%h#)%!%~%~%{%o$m@]%~.                                                ",
"                                                      ^%/%(%_%:%<%[%~.}%|%                                                      ",
"                                                      1%1%1%  2%3%4%                                                            ",
"                                                      1%1%1%1%1%1%                                                              ",
"                                                      1%1%1%1%1%                                                                ",
"                                                      1%1%                                                                      ",
"                                                      1%1%                                                                      ",
"                                                        1%                                                                      ",
"                                                                                                                                ",
"                                                                                                                                ",
"                                                                                                                                ",
"                                                                                                                                "};
