/* XPM */
static char * player_dash_4_xpm[] = {
"64 64 592 2",
"  	c None",
". 	c #1F2532",
"+ 	c #1D232F",
"@ 	c #313B4D",
"# 	c #353F53",
"$ 	c #384358",
"% 	c #39445A",
"& 	c #354053",
"* 	c #303A4C",
"= 	c #2B3344",
"- 	c #252C3B",
"; 	c #2A3343",
"> 	c #2D3648",
", 	c #303A4D",
"' 	c #343F53",
") 	c #384459",
"! 	c #3B475E",
"~ 	c #3D4960",
"{ 	c #3C485F",
"] 	c #39455A",
"^ 	c #353F54",
"/ 	c #2F394C",
"( 	c #2A3344",
"_ 	c #2C3547",
": 	c #333E53",
"< 	c #3A465C",
"[ 	c #364156",
"} 	c #313C4F",
"| 	c #2C3647",
"1 	c #273040",
"2 	c #3B485F",
"3 	c #39455B",
"4 	c #364256",
"5 	c #333F53",
"6 	c #333E52",
"7 	c #354156",
"8 	c #38445A",
"9 	c #3B485E",
"0 	c #3D4961",
"a 	c #374358",
"b 	c #323D51",
"c 	c #2D3749",
"d 	c #283141",
"e 	c #232B3A",
"f 	c #242C3A",
"g 	c #293242",
"h 	c #2E384A",
"i 	c #364257",
"j 	c #3A475D",
"k 	c #3E4B63",
"l 	c #414F67",
"m 	c #425069",
"n 	c #404E66",
"o 	c #293344",
"p 	c #222A38",
"q 	c #1C232F",
"r 	c #191F2A",
"s 	c #181E29",
"t 	c #1A202B",
"u 	c #1F2633",
"v 	c #212835",
"w 	c #212836",
"x 	c #313B4E",
"y 	c #354055",
"z 	c #3F4C64",
"A 	c #43526B",
"B 	c #46546E",
"C 	c #435169",
"D 	c #3D485E",
"E 	c #323B4D",
"F 	c #272F3D",
"G 	c #1E2430",
"H 	c #191F2B",
"I 	c #1D2430",
"J 	c #242C3B",
"K 	c #262E3E",
"L 	c #262F3E",
"M 	c #252E3D",
"N 	c #2B3446",
"O 	c #2E384B",
"P 	c #404D64",
"Q 	c #414C62",
"R 	c #3F495B",
"S 	c #3C4352",
"T 	c #373C48",
"U 	c #31343F",
"V 	c #292D37",
"W 	c #232833",
"X 	c #212733",
"Y 	c #232A39",
"Z 	c #273041",
"` 	c #2C3649",
" .	c #293243",
"..	c #2C3648",
"+.	c #303A4E",
"@.	c #323C4F",
"#.	c #2D3545",
"$.	c #282E3B",
"%.	c #252A34",
"&.	c #252832",
"*.	c #262A33",
"=.	c #292E38",
"-.	c #2D3340",
";.	c #313A4B",
">.	c #374257",
",.	c #3C4961",
"'.	c #262F40",
").	c #283142",
"!.	c #232C3B",
"~.	c #202735",
"{.	c #1C2331",
"].	c #1B222E",
"^.	c #222834",
"/.	c #2B313E",
"(.	c #343C4B",
"_.	c #3D475A",
":.	c #435067",
"<.	c #46546D",
"[.	c #45546E",
"}.	c #424F67",
"|.	c #1A212D",
"1.	c #181E2A",
"2.	c #181E2B",
"3.	c #1A202C",
"4.	c #242A36",
"5.	c #2D3441",
"6.	c #384051",
"7.	c #424E63",
"8.	c #4A5871",
"9.	c #4B5A75",
"0.	c #47556F",
"a.	c #3E4B62",
"b.	c #343F52",
"c.	c #161C27",
"d.	c #161C28",
"e.	c #171E2A",
"f.	c #212938",
"g.	c #475670",
"h.	c #4E5E7A",
"i.	c #4C5B76",
"j.	c #313A4A",
"k.	c #212731",
"l.	c #15191E",
"m.	c #0E0F11",
"n.	c #151B26",
"o.	c #1E2634",
"p.	c #2A3345",
"q.	c #38455B",
"r.	c #46556F",
"s.	c #4F5F7D",
"t.	c #50607D",
"u.	c #47566F",
"v.	c #394457",
"w.	c #29303C",
"x.	c #1C1F25",
"y.	c #141517",
"z.	c #0F1010",
"A.	c #0D0D0D",
"B.	c #1F2634",
"C.	c #333D52",
"D.	c #485671",
"E.	c #435068",
"F.	c #394357",
"G.	c #2C3340",
"H.	c #20242B",
"I.	c #181A1D",
"J.	c #141515",
"K.	c #121212",
"L.	c #111111",
"M.	c #0F0F0F",
"N.	c #303B4E",
"O.	c #374359",
"P.	c #3E4A61",
"Q.	c #3A465B",
"R.	c #323C4D",
"S.	c #282F3B",
"T.	c #20232A",
"U.	c #1A1B1E",
"V.	c #171818",
"W.	c #161616",
"X.	c #161615",
"Y.	c #151514",
"Z.	c #141413",
"`.	c #121211",
" +	c #323D50",
".+	c #2F3847",
"++	c #282E38",
"@+	c #222528",
"#+	c #1F211E",
"$+	c #1F201A",
"%+	c #222219",
"&+	c #2B2B1A",
"*+	c #3B3B1A",
"=+	c #49491B",
"-+	c #4E4E1A",
";+	c #474718",
">+	c #373715",
",+	c #262612",
"'+	c #222937",
")+	c #283040",
"!+	c #293343",
"~+	c #262D3B",
"{+	c #24292F",
"]+	c #2B2E23",
"^+	c #3F411C",
"/+	c #595919",
"(+	c #696919",
"_+	c #66661A",
":+	c #59591A",
"<+	c #525219",
"[+	c #5B5B18",
"}+	c #6B6B17",
"|+	c #717116",
"1+	c #676714",
"2+	c #4F4F13",
"3+	c #353511",
"4+	c #202734",
"5+	c #222A37",
"6+	c #232A38",
"7+	c #1F2631",
"8+	c #1A1F28",
"9+	c #16191D",
"0+	c #191B15",
"a+	c #2C2C12",
"b+	c #4B4B11",
"c+	c #6E6E12",
"d+	c #828213",
"e+	c #7E7E15",
"f+	c #5A5A18",
"g+	c #656518",
"h+	c #6A6A17",
"i+	c #606015",
"j+	c #4B4B13",
"k+	c #333311",
"l+	c #1F2733",
"m+	c #1F2632",
"n+	c #1B212C",
"o+	c #171C25",
"p+	c #13161C",
"q+	c #0F1115",
"r+	c #0E0F10",
"s+	c #13130F",
"t+	c #232410",
"u+	c #3F3F12",
"v+	c #5C5C15",
"w+	c #6D6D17",
"x+	c #6A6A18",
"y+	c #565619",
"z+	c #3F3F19",
"A+	c #32321A",
"B+	c #2F2F1A",
"C+	c #2F2F19",
"D+	c #2A2A17",
"E+	c #212114",
"F+	c #181811",
"G+	c #252D3B",
"H+	c #272F3E",
"I+	c #282F3D",
"J+	c #272E3A",
"K+	c #21242B",
"L+	c #1D1F22",
"M+	c #1C1D1B",
"N+	c #1F1F17",
"O+	c #222217",
"P+	c #212118",
"Q+	c #1D1D17",
"R+	c #191916",
"S+	c #131414",
"T+	c #121313",
"U+	c #121314",
"V+	c #131416",
"W+	c #252D3C",
"X+	c #27303F",
"Y+	c #2E3748",
"Z+	c #353E4E",
"`+	c #3F4655",
" @	c #4B505D",
".@	c #545761",
"+@	c #55565D",
"@@	c #4C4C50",
"#@	c #3C3B3D",
"$@	c #2A292B",
"%@	c #1F1F20",
"&@	c #1F1F21",
"*@	c #28282B",
"=@	c #343539",
"-@	c #3C3E44",
";@	c #3F424A",
">@	c #3D414C",
",@	c #2B3545",
"'@	c #30394B",
")@	c #384152",
"!@	c #434B5B",
"~@	c #4F5664",
"{@	c #575B67",
"]@	c #555760",
"^@	c #484950",
"/@	c #37383D",
"(@	c #2E2F32",
"_@	c #313236",
":@	c #3D3E43",
"<@	c #484A52",
"[@	c #4C5059",
"}@	c #484D58",
"|@	c #404653",
"1@	c #242E3D",
"2@	c #333D4F",
"3@	c #3D4657",
"4@	c #485060",
"5@	c #525865",
"6@	c #535762",
"7@	c #4A4D55",
"8@	c #3C3E45",
"9@	c #34363C",
"0@	c #37393F",
"a@	c #41434B",
"b@	c #484C55",
"c@	c #494E59",
"d@	c #424956",
"e@	c #3A414F",
"f@	c #222B3B",
"g@	c #252E3E",
"h@	c #273143",
"i@	c #2B3547",
"j@	c #384255",
"k@	c #434C5E",
"l@	c #4E5566",
"m@	c #525967",
"n@	c #4E5360",
"o@	c #444853",
"p@	c #3D414B",
"q@	c #3E434D",
"r@	c #454A56",
"s@	c #494F5C",
"t@	c #464D5C",
"u@	c #3F4656",
"v@	c #353D4D",
"w@	c #202837",
"x@	c #212A3A",
"y@	c #222C3D",
"z@	c #242F40",
"A@	c #273244",
"B@	c #2B3649",
"C@	c #313D50",
"D@	c #3C475A",
"E@	c #495365",
"F@	c #535B6C",
"G@	c #555C6D",
"H@	c #515867",
"I@	c #4D5361",
"J@	c #4C5261",
"K@	c #4C5362",
"L@	c #4A5161",
"M@	c #434A5A",
"N@	c #394151",
"O@	c #303848",
"P@	c #202939",
"Q@	c #212B3B",
"R@	c #232D3E",
"S@	c #253042",
"T@	c #273345",
"U@	c #2A3649",
"V@	c #2F3B4F",
"W@	c #374357",
"X@	c #434E62",
"Y@	c #50596C",
"Z@	c #596173",
"`@	c #5E6474",
" #	c #5E6270",
".#	c #5A5F6B",
"+#	c #535865",
"@#	c #484F5D",
"##	c #3C4453",
"$#	c #323B4A",
"%#	c #2B3443",
"&#	c #1E2736",
"*#	c #1F2939",
"=#	c #212B3C",
"-#	c #232D3F",
";#	c #253043",
">#	c #273346",
",#	c #293549",
"'#	c #2C384D",
")#	c #323F53",
"!#	c #3C485C",
"~#	c #495366",
"{#	c #545C6D",
"]#	c #5A606F",
"^#	c #595E6B",
"/#	c #525764",
"(#	c #484E5B",
"_#	c #3D4453",
":#	c #333C4C",
"<#	c #2D3646",
"[#	c #1B2230",
"}#	c #1C2434",
"|#	c #1E2737",
"1#	c #202A3B",
"2#	c #222D3F",
"3#	c #242F42",
"4#	c #263246",
"5#	c #283448",
"6#	c #2A374B",
"7#	c #2E3B4F",
"8#	c #404B5E",
"9#	c #4A5264",
"0#	c #4D5465",
"a#	c #3E4656",
"b#	c #353D4E",
"c#	c #2E3749",
"d#	c #2A3446",
"e#	c #171D27",
"f#	c #19202D",
"g#	c #1B2332",
"h#	c #1E2738",
"i#	c #212B3E",
"j#	c #232E43",
"k#	c #263146",
"l#	c #283449",
"m#	c #3E475A",
"n#	c #485061",
"o#	c #4C5363",
"p#	c #474E5E",
"q#	c #3C4455",
"r#	c #313B4C",
"s#	c #2A3447",
"t#	c #262F41",
"u#	c #1A1F29",
"v#	c #191E28",
"w#	c #181D27",
"x#	c #171D28",
"y#	c #1A2230",
"z#	c #1C2536",
"A#	c #1F293C",
"B#	c #242E42",
"C#	c #363F52",
"D#	c #42495A",
"E#	c #484E5E",
"F#	c #464C5B",
"G#	c #3C4353",
"H#	c #303849",
"I#	c #222B3C",
"J#	c #202838",
"K#	c #1E2635",
"L#	c #1D2431",
"M#	c #1A202A",
"N#	c #1B202B",
"O#	c #1B212B",
"P#	c #1C212C",
"Q#	c #1C222D",
"R#	c #1D222D",
"S#	c #1B202A",
"T#	c #181D26",
"U#	c #181D25",
"V#	c #191E27",
"W#	c #1D212B",
"X#	c #212630",
"Y#	c #242832",
"Z#	c #232730",
"`#	c #1E222A",
" $	c #191C23",
".$	c #15181E",
"+$	c #13151A",
"@$	c #121418",
"#$	c #1B222C",
"$$	c #1C222E",
"%$	c #1D232E",
"&$	c #1F2531",
"*$	c #202632",
"=$	c #202631",
"-$	c #1F252E",
";$	c #1E232C",
">$	c #1E2229",
",$	c #1D2127",
"'$	c #1C2025",
")$	c #1C1F23",
"!$	c #1B1E22",
"~$	c #1B1D20",
"{$	c #1A1C1F",
"]$	c #191A1D",
"^$	c #18191C",
"/$	c #212834",
"($	c #212734",
"_$	c #202530",
":$	c #1F242E",
"<$	c #1E232B",
"[$	c #1D2128",
"}$	c #1C2026",
"|$	c #1C1F24",
"1$	c #1B1D22",
"2$	c #1A1C21",
"3$	c #181B1F",
"4$	c #232B39",
"5$	c #242B3A",
"6$	c #212937",
"7$	c #222936",
"8$	c #202732",
"9$	c #1D222A",
"0$	c #1D2129",
"a$	c #1C2027",
"b$	c #1B1F26",
"c$	c #1A1E24",
"d$	c #191D23",
"e$	c #202836",
"f$	c #232C3A",
"g$	c #222A39",
"h$	c #222938",
"i$	c #222835",
"j$	c #202733",
"k$	c #1F2530",
"l$	c #1E232D",
"m$	c #1D222B",
"n$	c #1C212A",
"o$	c #1B2028",
"p$	c #1A1F27",
"q$	c #191E25",
"r$	c #2B3546",
"s$	c #283244",
"t$	c #2E394D",
"u$	c #344055",
"v$	c #2F3A4D",
"w$	c #262E3F",
"x$	c #1D232D",
"y$	c #1B1F29",
"z$	c #202736",
"A$	c #2E384C",
"B$	c #364258",
"C$	c #3D4A62",
"D$	c #414F69",
"E$	c #3C4A62",
"F$	c #2D374A",
"G$	c #272F3F",
"H$	c #1E2530",
"I$	c #1E232F",
"J$	c #1C222C",
"K$	c #252E3F",
"L$	c #2C374A",
"M$	c #354158",
"N$	c #3F4D67",
"O$	c #495976",
"P$	c #506181",
"Q$	c #526384",
"R$	c #4F5F7E",
"S$	c #475671",
"T$	c #3C4960",
"U$	c #202633",
"V$	c #1E2531",
"W$	c #1E2431",
"X$	c #212A39",
"Y$	c #273142",
"Z$	c #2F3A4E",
"`$	c #39465E",
" %	c #465571",
".%	c #526485",
"+%	c #5D7194",
"@%	c #63779C",
"#%	c #63789D",
"$%	c #5E7295",
"%%	c #556686",
"&%	c #495975",
"*%	c #3D4B62",
"=%	c #283140",
"-%	c #0C0F15",
";%	c #12161E",
">%	c #293345",
",%	c #344056",
"'%	c #404E68",
")%	c #4C5C79",
"!%	c #546685",
"~%	c #576989",
"{%	c #536584",
"]%	c #4C5B78",
"^%	c #2D3747",
"/%	c #293241",
"(%	c #010101",
"_%	c #030405",
":%	c #070A0D",
"<%	c #0F131A",
"[%	c #1F2736",
"}%	c #242E3E",
"|%	c #283245",
"1%	c #2E394E",
"2%	c #303C51",
"3%	c #313D51",
"4%	c #303B4F",
"5%	c #262F3F",
"6%	c #000000",
"7%	c #1F2635",
"8%	c #222A3A",
"9%	c #242D3E",
"0%	c #252E40",
"a%	c #252F40",
"                                                                                                                                ",
"                                                                                                                                ",
"                                                                                                                                ",
"                                                                                                                                ",
"                                                                                                                                ",
"                                                                                                                                ",
"                                                                                                                                ",
"                                                                                                                                ",
"                                                                                                                                ",
"                                                                                                                                ",
"                                          . . +                                                                                 ",
"                                      @ # $ % $ & * = -                                                                         ",
"                                    ; > , ' ) ! ~ { ] ^ / ;                                                                     ",
"                                    ; ( _ / : ) ! ~ { < [ } | 1                                                                 ",
"                                    2 3 4 5 6 7 8 9 0 0 ! a b c d e                                                             ",
"                                        f g h b i j k l m n 9 6 o p q r s s t + u v w w                                         ",
"                                          ( c x y < z A B C D E F G r s H I w J K L M                                           ",
"                                            N O 6 8 0 P Q R S T U V W X Y Z ` / O |                                             ",
"                                             ...+.6 ' @.#.$.%.&.*.=.-.;.>.2 ,.j [                                               ",
"                                            '.).).'.!.~.{.].+ ^./.(._.:.<.[.}.9                                                 ",
"                                              |.H 1.1.2.3.+ 4.5.6.7.8.9.0.a.b.                                                  ",
"                                              c.c.c.d.e.].f...j g.h.i.P j.k.l.m.                                                ",
"                                              c.n.n.1.o.p.q.r.s.t.u.v.w.x.y.z.A.                                                ",
"                                              s 3.B.Z C.a.B D.E.F.G.H.I.J.K.L.M.A.                                              ",
"                                              J o N.O.~ P.Q.R.S.T.U.V.W.X.Y.Z.`.M.                                              ",
"                                            J d c  +y b..+++@+#+$+%+&+*+=+-+;+>+,+                                              ",
"                                          '+J )+!+g ~+{+]+^+/+(+_+:+<+[+}+|+1+2+3+                                              ",
"                                      4+w 5+6+5+7+8+9+0+a+b+c+d+e+}+f+/+g+h+i+j+k+                                              ",
"                                      l+m+I n+o+p+q+r+s+t+u+v+w+x+y+z+A+B+C+D+E+F+                                              ",
"                                          '+G+H+I+J+%.K+L+M+N+O+P+Q+R+X.Y.S+T+U+V+                                              ",
"                                            W+X+; Y+Z+`+ @.@+@@@#@$@%@&@*@=@-@;@>@                                              ",
"                                              L d ,@'@)@!@~@{@]@^@/@(@_@:@<@[@}@|@                                              ",
"                                              1@1 o c 2@3@4@5@6@7@8@9@0@a@b@c@d@e@                                              ",
"                                              f@g@h@i@, j@k@l@m@n@o@p@q@r@s@t@u@v@                                              ",
"                                            w@x@y@z@A@B@C@D@E@F@G@H@I@J@K@L@M@N@O@                                              ",
"                                            P@Q@R@S@T@U@V@W@X@Y@Z@`@ #.#+#@###$#%#                                              ",
"                                          &#*#=#-#;#>#,#'#)#!#~#{#]#^#/#(#_#:#<#g                                               ",
"                                        [#}#|#1#2#3#4#5#6#7#4 8#9#0#4@a#b#c#d#o ).X+                                            ",
"                                        e#s f#g#h#i#j#k#l#'#: m#n#o#p#q#r#s#A@h@t#g@                                            ",
"                                      u#u#u#v#w#x#2.y#z#A#B#B@C#D#E#F#G#H#Z I#J#K#L#                                            ",
"                                    M#N#O#P#Q#R#R#P#S#8+T#U#V#W#X#Y#Z#`# $.$+$@$                                                ",
"                                  #$Q#$$%$+ I G &$m+*$*$=$-$;$>$,$'$)$!$~${$]$^$                                                ",
"                                &$u u u u m+m+u 4+4+/$($X *$_$:$<$>$[$}$|$1$2$3$                                                ",
"                                v 5+4$5$4$5+6$6$6$6$'+7$v /$8$_$:$;$9$0$a$b$c$d$                                                ",
"                                e$f$L d g 1 M !.g$h$'+7$i$/$j$=$k$:$l$m$n$o$p$q$                                                ",
"                                B.g$'.r$O N./ _ d W+4$5+'+7$v /$j$m+G %$P#S#8+V#                                                ",
"                                    !.s$t$u$8 8 y v$p.w$!.e g$'+v *$G x$P#S#y$8+                                                ",
"                                      z$'.A$B$C$D$D$E$7 F$G$p 4+m+H$I$%$R#J$P#                                                  ",
"                                        e$K$L$M$N$O$P$Q$R$S$T$} d 6+U$V$W$I +                                                   ",
"                                            X$Y$Z$`$ %.%+%@%#%$%%%&%*%' ..=%G+                                                  ",
"                                            -%;%s e$>%,%'%)%!%~%{%]%m 3  +^%/%                                                  ",
"                                            (%_%:%<%s [%}%|%B@1%2%3%4%F$( 5%f                                                   ",
"                                          6%6%6%          7%8%9%0%a%9%!.f.B.                                                    ",
"                                          6%6%                                                                                  ",
"                                                                                                                                ",
"                                                                                                                                ",
"                                                                                                                                ",
"                                                                                                                                ",
"                                                                                                                                ",
"                                                                                                                                ",
"                                                                                                                                ",
"                                                                                                                                ",
"                                                                                                                                ",
"                                                                                                                                "};
