/* XPM */
static char * player_walk_1_xpm[] = {
"64 64 576 2",
"  	c None",
". 	c #262E3D",
"+ 	c #283141",
"@ 	c #1D2330",
"# 	c #38445A",
"$ 	c #344054",
"% 	c #39455B",
"& 	c #3A455B",
"* 	c #323D51",
"= 	c #1F2734",
"- 	c #39465C",
"; 	c #3E4B63",
"> 	c #0E121A",
", 	c #2D374A",
"' 	c #39455C",
") 	c #3C485F",
"! 	c #3A465C",
"~ 	c #272F3F",
"{ 	c #566888",
"] 	c #364156",
"^ 	c #2C3647",
"/ 	c #374359",
"( 	c #3C4960",
"_ 	c #3F4C63",
": 	c #3B475E",
"< 	c #2A3344",
"[ 	c #2A3445",
"} 	c #141921",
"| 	c #303B4E",
"1 	c #3E4B62",
"2 	c #404D65",
"3 	c #3A475D",
"4 	c #2B3445",
"5 	c #1E2431",
"6 	c #2F394C",
"7 	c #343F53",
"8 	c #414E67",
"9 	c #3E4A62",
"0 	c #212936",
"a 	c #2D3749",
"b 	c #3F4B63",
"c 	c #3F4C64",
"d 	c #354054",
"e 	c #1E2532",
"f 	c #232B39",
"g 	c #2C3547",
"h 	c #3B485F",
"i 	c #43516B",
"j 	c #354055",
"k 	c #171C26",
"l 	c #252D3C",
"m 	c #2B3547",
"n 	c #414F67",
"o 	c #46556E",
"p 	c #465570",
"q 	c #242C3B",
"r 	c #262F3F",
"s 	c #2C3648",
"t 	c #313D51",
"u 	c #3E4C64",
"v 	c #46546E",
"w 	c #4C5C78",
"x 	c #4D5D79",
"y 	c #343F54",
"z 	c #293243",
"A 	c #1A202B",
"B 	c #242C3C",
"C 	c #2B3447",
"D 	c #323D52",
"E 	c #3A465D",
"F 	c #425069",
"G 	c #4B5A76",
"H 	c #4E5E7A",
"I 	c #4A5974",
"J 	c #45536C",
"K 	c #242D3D",
"L 	c #1C222F",
"M 	c #181D27",
"N 	c #181E2A",
"O 	c #171D28",
"P 	c #161C27",
"Q 	c #19202D",
"R 	c #1F2735",
"S 	c #232B3B",
"T 	c #24272E",
"U 	c #393B44",
"V 	c #464954",
"W 	c #434650",
"X 	c #161B25",
"Y 	c #181E29",
"Z 	c #191F2B",
"` 	c #131924",
" .	c #161C28",
"..	c #181F2B",
"+.	c #191F2C",
"@.	c #1A212E",
"#.	c #19202C",
"$.	c #21232B",
"%.	c #3B3E48",
"&.	c #353741",
"*.	c #141A24",
"=.	c #171E29",
"-.	c #141A25",
";.	c #121722",
">.	c #171E2A",
",.	c #181F2C",
"'.	c #1C1F28",
").	c #2F323B",
"!.	c #33363F",
"~.	c #171D2A",
"{.	c #151B26",
"].	c #151A25",
"^.	c #1B212D",
"/.	c #1D2430",
"(.	c #1E2430",
"_.	c #1F2532",
":.	c #1F2633",
"<.	c #1A212D",
"[.	c #1A1E28",
"}.	c #373A43",
"|.	c #323640",
"1.	c #303B4F",
"2.	c #2E394D",
"3.	c #2B3548",
"4.	c #283142",
"5.	c #222A37",
"6.	c #212835",
"7.	c #202733",
"8.	c #1B212C",
"9.	c #1F2632",
"0.	c #202734",
"a.	c #202835",
"b.	c #364258",
"c.	c #3C4961",
"d.	c #404E67",
"e.	c #475671",
"f.	c #4C5B78",
"g.	c #4A5A77",
"h.	c #45536D",
"i.	c #495772",
"j.	c #4C5C79",
"k.	c #4F607E",
"l.	c #485874",
"m.	c #44536D",
"n.	c #3D4B63",
"o.	c #313C4F",
"p.	c #2B3546",
"q.	c #293242",
"r.	c #1C222D",
"s.	c #1C222E",
"t.	c #212937",
"u.	c #232A38",
"v.	c #252D3B",
"w.	c #2E384B",
"x.	c #354056",
"y.	c #424F68",
"z.	c #4A5973",
"A.	c #4F5F7B",
"B.	c #566787",
"C.	c #5B6D8E",
"D.	c #5D7093",
"E.	c #607497",
"F.	c #5E7295",
"G.	c #5A6D8E",
"H.	c #556786",
"I.	c #51617F",
"J.	c #495974",
"K.	c #404D66",
"L.	c #212836",
"M.	c #252E3D",
"N.	c #374257",
"O.	c #3E4A61",
"P.	c #374256",
"Q.	c #3D4960",
"R.	c #44526B",
"S.	c #50617F",
"T.	c #4A5A75",
"U.	c #384458",
"V.	c #323A48",
"W.	c #232A37",
"X.	c #181C24",
"Y.	c #0C0E12",
"Z.	c #020202",
"`.	c #030303",
" +	c #050505",
".+	c #070707",
"++	c #0C0C0E",
"@+	c #0C0D0D",
"#+	c #0F1011",
"$+	c #3D3D1C",
"%+	c #B5B522",
"&+	c #6A6A22",
"*+	c #151515",
"=+	c #171717",
"-+	c #7C7C26",
";+	c #D2D222",
">+	c #3A3A1D",
",+	c #111111",
"'+	c #0C0C0C",
")+	c #040404",
"!+	c #060606",
"~+	c #0A0A0A",
"{+	c #101010",
"]+	c #121212",
"^+	c #9D9D27",
"/+	c #FFFF01",
"(+	c #CFCF26",
"_+	c #1C1C19",
":+	c #191919",
"<+	c #181818",
"[+	c #BABA29",
"}+	c #FEFE05",
"|+	c #757528",
"1+	c #0D0D0D",
"2+	c #05070A",
"3+	c #050506",
"4+	c #090909",
"5+	c #0F0F0F",
"6+	c #9B9B27",
"7+	c #A4A429",
"8+	c #F9F910",
"9+	c #5F5F25",
"0+	c #0D0D0E",
"a+	c #28303F",
"b+	c #282F3E",
"c+	c #282E3B",
"d+	c #272B34",
"e+	c #1A1B1F",
"f+	c #0E0E0F",
"g+	c #3A3A1B",
"h+	c #B3B323",
"i+	c #6B6B24",
"j+	c #34341C",
"k+	c #717123",
"l+	c #2D2C29",
"m+	c #3B3C42",
"n+	c #393F4E",
"o+	c #242A35",
"p+	c #293342",
"q+	c #2D3647",
"r+	c #323C4E",
"s+	c #3E4556",
"t+	c #4A4F5C",
"u+	c #616168",
"v+	c #837E7E",
"w+	c #787577",
"x+	c #3F4046",
"y+	c #141414",
"z+	c #161616",
"A+	c #1A1A1D",
"B+	c #67676D",
"C+	c #837F82",
"D+	c #424958",
"E+	c #313B4C",
"F+	c #232B3A",
"G+	c #2A3444",
"H+	c #374255",
"I+	c #3D475B",
"J+	c #77767E",
"K+	c #979292",
"L+	c #595D6B",
"M+	c #292C32",
"N+	c #383C45",
"O+	c #807E82",
"P+	c #717076",
"Q+	c #2C3544",
"R+	c #262F3E",
"S+	c #2F3A4D",
"T+	c #343F52",
"U+	c #394357",
"V+	c #4C5364",
"W+	c #969192",
"X+	c #353C4A",
"Y+	c #444854",
"Z+	c #89888D",
"`+	c #5C5E69",
" @	c #303A4C",
".@	c #272F3D",
"+@	c #1D2532",
"@@	c #232C3C",
"#@	c #2E394C",
"$@	c #313C50",
"%@	c #364155",
"&@	c #82818A",
"*@	c #8B8B95",
"=@	c #414A5B",
"-@	c #13171D",
";@	c #0E1015",
">@	c #898E9E",
",@	c #4B5160",
"'@	c #252C3A",
")@	c #1E2633",
"!@	c #212B3A",
"~@	c #242D3E",
"{@	c #283344",
"]@	c #2C374A",
"^@	c #303C4F",
"/@	c #323E52",
"(@	c #323F53",
"_@	c #606573",
":@	c #999CAB",
"<@	c #696E7F",
"[@	c #2E3645",
"}@	c #1B222F",
"|@	c #757886",
"1@	c #828697",
"2@	c #333C4E",
"3@	c #2D3648",
"4@	c #2A3241",
"5@	c #202938",
"6@	c #212A3A",
"7@	c #222C3D",
"8@	c #242F40",
"9@	c #273346",
"0@	c #2B384C",
"a@	c #2D3B4F",
"b@	c #303D51",
"c@	c #364256",
"d@	c #8E93A5",
"e@	c #888D9F",
"f@	c #3C4556",
"g@	c #444650",
"h@	c #929096",
"i@	c #626570",
"j@	c #2E3A4C",
"k@	c #2D3748",
"l@	c #222833",
"m@	c #1B2330",
"n@	c #202A3A",
"o@	c #222B3C",
"p@	c #232E3F",
"q@	c #263143",
"r@	c #293448",
"s@	c #2C394D",
"t@	c #2D3A4F",
"u@	c #2E3B50",
"v@	c #2F3C50",
"w@	c #6E7385",
"x@	c #9499AC",
"y@	c #505666",
"z@	c #58575D",
"A@	c #908B8D",
"B@	c #333B4E",
"C@	c #2D394C",
"D@	c #2B3648",
"E@	c #252C39",
"F@	c #1E2635",
"G@	c #202A3B",
"H@	c #222B3D",
"I@	c #242F41",
"J@	c #263144",
"K@	c #283447",
"L@	c #29364B",
"M@	c #2B384E",
"N@	c #2C3A4E",
"O@	c #40495B",
"P@	c #868A9B",
"Q@	c #6C6F7C",
"R@	c #333B4A",
"S@	c #5F5F66",
"T@	c #2C384B",
"U@	c #293344",
"V@	c #283040",
"W@	c #1E2636",
"X@	c #1F293A",
"Y@	c #212B3D",
"Z@	c #232D40",
"`@	c #253144",
" #	c #273448",
".#	c #28354A",
"+#	c #2B384D",
"@#	c #2C394E",
"##	c #797B89",
"$#	c #7E7F8B",
"%#	c #394456",
"&#	c #1F2839",
"*#	c #253146",
"=#	c #2A3549",
"-#	c #2A3448",
";#	c #283244",
">#	c #273042",
",#	c #121821",
"'#	c #1D2535",
")#	c #1E283A",
"!#	c #212B3F",
"~#	c #232F43",
"{#	c #273349",
"]#	c #29354B",
"^#	c #2A364B",
"/#	c #2D394E",
"(#	c #616472",
"_#	c #87848E",
":#	c #4A5161",
"<#	c #263040",
"[#	c #222E43",
"}#	c #263246",
"|#	c #263044",
"1#	c #232D3E",
"2#	c #202837",
"3#	c #191E28",
"4#	c #141820",
"5#	c #151A22",
"6#	c #151B25",
"7#	c #161E2C",
"8#	c #1B2435",
"9#	c #1E283B",
"0#	c #202B3F",
"a#	c #222D42",
"b#	c #232F44",
"c#	c #243045",
"d#	c #273248",
"e#	c #444A5A",
"f#	c #797780",
"g#	c #595C68",
"h#	c #26303F",
"i#	c #171F2F",
"j#	c #1A2232",
"k#	c #181E2B",
"l#	c #161A21",
"m#	c #0F1116",
"n#	c #191E27",
"o#	c #1A1F28",
"p#	c #1B1F27",
"q#	c #1A1E25",
"r#	c #171B21",
"s#	c #15191F",
"t#	c #151920",
"u#	c #161B23",
"v#	c #171B24",
"w#	c #171C27",
"x#	c #1A2029",
"y#	c #292B32",
"z#	c #202228",
"A#	c #16181D",
"B#	c #17191D",
"C#	c #191B1F",
"D#	c #1A1D20",
"E#	c #1B1D22",
"F#	c #12151A",
"G#	c #1A202A",
"H#	c #1B2029",
"I#	c #1B2129",
"J#	c #1C2129",
"K#	c #1D2229",
"L#	c #1D2228",
"M#	c #1D2127",
"N#	c #1D2126",
"O#	c #1D2026",
"P#	c #1C2025",
"Q#	c #1B1F25",
"R#	c #1B202A",
"S#	c #1B202B",
"T#	c #1C212C",
"U#	c #1E242F",
"V#	c #1F2531",
"W#	c #202631",
"X#	c #202530",
"Y#	c #1F242D",
"Z#	c #1F232C",
"`#	c #1E232B",
" $	c #1E222A",
".$	c #1D2129",
"+$	c #1B2027",
"@$	c #1A2027",
"#$	c #171C24",
"$$	c #1B212B",
"%$	c #1F2431",
"&$	c #212834",
"*$	c #212733",
"=$	c #202632",
"-$	c #1F242F",
";$	c #1E232D",
">$	c #1E232C",
",$	c #1E222C",
"'$	c #1C212A",
")$	c #1A2028",
"!$	c #191F28",
"~$	c #1D232F",
"{$	c #202834",
"]$	c #202735",
"^$	c #222935",
"/$	c #222835",
"($	c #212734",
"_$	c #202732",
":$	c #1F2530",
"<$	c #1C212B",
"[$	c #1D232E",
"}$	c #1D242F",
"|$	c #1E2531",
"1$	c #222937",
"2$	c #171C25",
"3$	c #1A1F2A",
"4$	c #202836",
"5$	c #222938",
"6$	c #212938",
"7$	c #222A38",
"8$	c #222936",
"9$	c #222A39",
"0$	c #1C222C",
"a$	c #242B3A",
"b$	c #262D3C",
"c$	c #212837",
"d$	c #232A39",
"e$	c #222B3A",
"f$	c #1D232D",
"g$	c #1F2634",
"h$	c #242C3A",
"i$	c #293241",
"j$	c #2C3545",
"k$	c #2F394B",
"l$	c #333E51",
"m$	c #202633",
"n$	c #2B3545",
"o$	c #232C3B",
"p$	c #323D50",
"q$	c #374459",
"r$	c #3B485E",
"s$	c #3F4D65",
"t$	c #44526C",
"u$	c #485773",
"v$	c #4C5C7B",
"w$	c #4D5E7E",
"x$	c #4E5F7C",
"y$	c #516281",
"z$	c #536584",
"A$	c #586B8C",
"B$	c #596C8D",
"C$	c #506281",
"D$	c #354154",
"E$	c #2B3444",
"F$	c #1A202D",
"G$	c #252E3F",
"H$	c #263041",
"I$	c #2D384B",
"J$	c #38445B",
"K$	c #404D67",
"L$	c #576A8D",
"M$	c #5F749A",
"N$	c #657AA1",
"O$	c #6D83AB",
"P$	c #6F86AD",
"Q$	c #62769A",
"R$	c #42506A",
"S$	c #354156",
"T$	c #1B222E",
"U$	c #161D29",
"V$	c #1B2230",
"W$	c #283245",
"X$	c #2A3446",
"Y$	c #3C4A63",
"Z$	c #455470",
"`$	c #4D5E7C",
" %	c #526484",
".%	c #57698A",
"+%	c #556787",
"@%	c #354157",
"#%	c #2A3447",
"$%	c #252F40",
"%%	c #1D2431",
"&%	c #04060A",
"*%	c #151B27",
"=%	c #1F2837",
"-%	c #252F41",
";%	c #273244",
">%	c #273144",
",%	c #293345",
"'%	c #222A3A",
")%	c #1C2331",
"!%	c #0C1119",
"~%	c #020203",
"{%	c #000000",
"]%	c #171D29",
"^%	c #1B2331",
"/%	c #202838",
"(%	c #1E2736",
"_%	c #1C2433",
"                                                                                                                                ",
"                                                                                                                                ",
"                                                                                                                                ",
"                                                                                                                                ",
"                                                                                                                                ",
"                                                                                                                                ",
"                                                                                                                                ",
"                                                  . + @                                                                         ",
"                                                # $ % & * =                                                                     ",
"                                              - ; > , ' ) ! ~                                                                   ",
"                                              - { ] ^ / ( _ : <                                                                 ",
"                                                [ } | ] - 1 2 3 4                                                               ",
"                                                  5 6 7 # ( 8 9 # ~                                                             ",
"                                                  0 a * / ) b c # d e                                                           ",
"                                                  f g * / h _ i : j a k                                                         ",
"                                                  l m * % 1 n o p ( | q                                                         ",
"                                                  r s t ' u v w x i y z e                                                       ",
"                                                A B C D E F G H I J / K L M                                                     ",
"                                                N O P Q R q S T U V W X O Y M                                                   ",
"                                                Z P `  ...+.@.#.N $.%.&.*.P Y O                                                 ",
"                                              Z =.-.;.-.>.#.Q Q ,.'.).!.~.{.].Y ^.                                              ",
"                                        /.(._.:.e <.P {.{. ...[.}.W V |.s 1.2.3.4.l 5.6.7.8.                                    ",
"                                  (.9.:.0.a.f + 6 b.c.d.i e.f.g.h.i.j.k.j.l.m.n.b.o.a p.q.r.                                    ",
"                                  s.0.t.u.v.+ w.x.c.y.v z.A.B.C.D.E.E.F.G.H.I.J.K.j z L.                                        ",
"                                        (.L.M.m * | N.O.P.Q.R.I k.S.T.F U.V.W.X.Y.                                              ",
"                                              Z.`. +.+++@+#+$+%+&+*+=+=+-+;+>+,+'+                                              ",
"                                              Z.)+!+~+'+{+]+^+/+(+_+:+<+[+}+|+,+1+                                              ",
"                                              2+3+!+4+'+5+]+6+/+(+_+<+<+7+8+9+,+0+                                              ",
"                                            t.a+b+c+d+e+f+{+g+h+i+=+=+=+j+k+l+m+n+o+                                            ",
"                                            5 ~ p+q+r+s+t+u+v+w+x+y+z+z+A+B+C+D+E+                                              ",
"                                              F+a+G+, o.H+I+J+K+L+M+y+y+N+O+P+r+Q+                                              ",
"                                              = R+z s S+T+U+V+W+J+X+,+{+Y+Z+`+ @.@                                              ",
"                                              +@@@4.^ #@$@%@P.&@*@=@-@;@L+>@,@a '@                                              ",
"                                              )@!@~@{@]@^@/@(@_@:@<@[@}@|@1@2@3@4@                                              ",
"                                              5@6@7@8@9@0@a@b@c@d@e@f@g@h@i@j@k@q.l@                                            ",
"                                            m@n@o@p@q@r@s@t@u@v@w@x@y@z@A@B@C@D@p+E@                                            ",
"                                            F@G@H@I@J@K@L@M@N@u@O@P@Q@R@S@r@T@D@U@V@                                            ",
"                                          P W@X@Y@Z@`@ #.#0@+#@#b@##$#%#&#*#=#-#;#>#9.                                          ",
"                                          ,#Q '#)#!#~#*#{#]#L@^#/#(#_#:#<#[#}#|#1#2#3#                                          ",
"                                            4#5#6#7#8#9#0#a#b#c#d#e#f#g#h#i#j#k#l#m#                                            ",
"                                            n#o#p#q#r#s#t#u#v#k w#x#y#z#A#B#C#D#E#F#                                            ",
"                                          M G#x#x#H#I#J#K#K#K#K#L#M#M#N#O#P#P#Q#q#s#                                            ",
"                                          o#R#R#S#T#r.U#V#W#W#X#Y#Z#`# $.$.$J#+$@$#$                                            ",
"                                          R#R#$$r.U#%$7.0.&$&$*$=$X#-$;$>$,$'$H#)$n#                                            ",
"                                        !$$$8.r.~$5 9.{$]$L.^$/$($_$X#-$:$U#T#R#R#<$                                            ",
"                                        A r.[$}$|$:.]$t.t.5.1$/$&$7.=$6.0.U#T#'$T#(.2$                                          ",
"                                      3$7.e /.|$0.4$5$6$7$5.8$L.8$1$9$0 =$U#0$<$|$|$3#                                          ",
"                                      (.a$b$. q c$4$6$t.7$d$d$F+S e$7$0.V#U#f$e g$0 (.                                          ",
"                                      9.h$i$j$k$l$7 $@m q 6$7$5$6$]$:._.m$d$z 4 n$i$6.                                          ",
"                                      :.6$o$U@p$q$r$s$t$u$v$w$v$x$y$z$A$B$C$F D$ @E$6.                                          ",
"                                        F$e$G$H$I$J$K$p j.C$L$M$N$O$P$O$Q$S.R$S$[ 9$T$                                          ",
"                                            U$V$~@W$;#X$D Y$Z$`$ %.%+%k.R$@%#%$%K %%                                            ",
"                                                &%*%=%-%;%;#;%>%;%;#W$W$,%;#'%)%!%~%                                            ",
"                                                {%{%{%    ]%V$^%=%5@/%(%_%-.    {%{%                                            ",
"                                              {%{%{%                            {%{%                                            ",
"                                              {%{%                              {%{%{%                                          ",
"                                            {%{%                                  {%{%                                          ",
"                                                                                    {%                                          ",
"                                                                                                                                ",
"                                                                                                                                ",
"                                                                                                                                ",
"                                                                                                                                ",
"                                                                                                                                ",
"                                                                                                                                "};
