/* XPM */
static char * player_dash_15_xpm[] = {
"64 64 579 2",
"  	c None",
". 	c #1D232E",
"+ 	c #323D51",
"@ 	c #353F54",
"# 	c #384359",
"$ 	c #354054",
"% 	c #2A3344",
"& 	c #161B24",
"* 	c #364359",
"= 	c #323C50",
"- 	c #11161E",
"; 	c #3A465C",
"> 	c #3B485E",
", 	c #354055",
"' 	c #1E2531",
") 	c #3D4B64",
"! 	c #506280",
"~ 	c #242C3B",
"{ 	c #2F394B",
"] 	c #38445A",
"^ 	c #3D4960",
"/ 	c #3E4B62",
"( 	c #384459",
"_ 	c #232A38",
": 	c #333F54",
"< 	c #161C26",
"[ 	c #313C50",
"} 	c #364257",
"| 	c #3A475D",
"1 	c #3F4B63",
"2 	c #3F4C63",
"3 	c #39445A",
"4 	c #252D3C",
"5 	c #1F2632",
"6 	c #303A4D",
"7 	c #343F54",
"8 	c #38445B",
"9 	c #414E67",
"0 	c #374258",
"a 	c #222A38",
"b 	c #212937",
"c 	c #2D374A",
"d 	c #333E52",
"e 	c #374359",
"f 	c #3C495F",
"g 	c #3E4B63",
"h 	c #1C232E",
"i 	c #232B3A",
"j 	c #2C3648",
"k 	c #3B485F",
"l 	c #43506A",
"m 	c #2C3547",
"n 	c #171C26",
"o 	c #2B3547",
"p 	c #3E4A62",
"q 	c #414F67",
"r 	c #46546E",
"s 	c #46556F",
"t 	c #3C4860",
"u 	c #303A4E",
"v 	c #242B3A",
"w 	c #262E3E",
"x 	c #2C3647",
"y 	c #313D51",
"z 	c #39455C",
"A 	c #3E4C64",
"B 	c #45546E",
"C 	c #4C5C78",
"D 	c #4D5D79",
"E 	c #43526B",
"F 	c #344055",
"G 	c #293243",
"H 	c #1E2532",
"I 	c #1A202B",
"J 	c #242C3C",
"K 	c #2A3446",
"L 	c #313C51",
"M 	c #38455B",
"N 	c #404E67",
"O 	c #495873",
"P 	c #4B5A75",
"Q 	c #47556E",
"R 	c #424F66",
"S 	c #343F53",
"T 	c #222A39",
"U 	c #1A202C",
"V 	c #181D27",
"W 	c #181E29",
"X 	c #181E2A",
"Y 	c #1B222F",
"Z 	c #202837",
"` 	c #23262F",
" .	c #343740",
"..	c #3E414C",
"+.	c #3D404A",
"@.	c #161A24",
"#.	c #161C27",
"$.	c #181D28",
"%.	c #181F2A",
"&.	c #161C28",
"*.	c #131924",
"=.	c #181F2B",
"-.	c #191F2C",
";.	c #1A212E",
">.	c #191F2B",
",.	c #19202B",
"'.	c #1F2128",
").	c #393C46",
"!.	c #32353E",
"~.	c #141924",
"{.	c #171D27",
"].	c #191F2A",
"^.	c #151A26",
"/.	c #121722",
"(.	c #141A25",
"_.	c #171E2A",
":.	c #19202C",
"<.	c #19202D",
"[.	c #1A1E26",
"}.	c #2B2D35",
"|.	c #363841",
"1.	c #1B212D",
"2.	c #1D2431",
"3.	c #1D232F",
"4.	c #1E2431",
"5.	c #1D2430",
"6.	c #171D28",
"7.	c #151B26",
"8.	c #171D29",
"9.	c #1A202D",
"0.	c #191E28",
"a.	c #31343C",
"b.	c #41444F",
"c.	c #333843",
"d.	c #2E394C",
"e.	c #323D52",
"f.	c #2E394D",
"g.	c #2A3445",
"h.	c #273040",
"i.	c #232B39",
"j.	c #1F2633",
"k.	c #202734",
"l.	c #222937",
"m.	c #262F3F",
"n.	c #2D3749",
"o.	c #333E53",
"p.	c #37445A",
"q.	c #3B4860",
"r.	c #3E4B64",
"s.	c #42506A",
"t.	c #475772",
"u.	c #495874",
"v.	c #45536C",
"w.	c #495872",
"x.	c #4F607E",
"y.	c #4D5E7B",
"z.	c #4A5A76",
"A.	c #475671",
"B.	c #414F68",
"C.	c #3A475E",
"D.	c #2B3546",
"E.	c #242C3A",
"F.	c #161C25",
"G.	c #1E242F",
"H.	c #202835",
"I.	c #212936",
"J.	c #242B39",
"K.	c #272F3F",
"L.	c #3B475F",
"M.	c #546684",
"N.	c #596C8C",
"O.	c #5C6F91",
"P.	c #607497",
"Q.	c #617598",
"R.	c #5F7295",
"S.	c #5A6C8D",
"T.	c #536483",
"U.	c #4D5C79",
"V.	c #44516B",
"W.	c #2E384A",
"X.	c #1F2532",
"Y.	c #313C4F",
"Z.	c #39455A",
"`.	c #374257",
" +	c #414F66",
".+	c #45536D",
"++	c #424F68",
"@+	c #384358",
"#+	c #2D3646",
"$+	c #272D36",
"%+	c #1A1E25",
"&+	c #121417",
"*+	c #0B0C0D",
"=+	c #050607",
"-+	c #07090C",
";+	c #08090B",
">+	c #0A0B0D",
",+	c #0F1114",
"'+	c #0E0F11",
")+	c #101113",
"!+	c #2A2A1B",
"~+	c #989821",
"{+	c #686821",
"]+	c #161717",
"^+	c #161617",
"/+	c #171717",
"(+	c #595922",
"_+	c #BCBC1E",
":+	c #43431D",
"<+	c #111111",
"[+	c #0D0D0D",
"}+	c #020202",
"|+	c #040404",
"1+	c #060606",
"2+	c #090909",
"3+	c #0C0C0C",
"4+	c #0F0F0F",
"5+	c #121212",
"6+	c #7F7F26",
"7+	c #FDFD05",
"8+	c #D4D422",
"9+	c #21211A",
"0+	c #181818",
"a+	c #A3A328",
"b+	c #FEFE02",
"c+	c #878726",
"d+	c #0E0E0E",
"e+	c #050608",
"f+	c #050506",
"g+	c #060607",
"h+	c #868626",
"i+	c #FEFE03",
"j+	c #DCDC22",
"k+	c #22221A",
"l+	c #949427",
"m+	c #FBFB07",
"n+	c #7B7B26",
"o+	c #252C3A",
"p+	c #232A37",
"q+	c #212732",
"r+	c #1C2027",
"s+	c #131417",
"t+	c #0F0F10",
"u+	c #37371B",
"v+	c #B3B31E",
"w+	c #808023",
"x+	c #181817",
"y+	c #39391D",
"z+	c #868620",
"A+	c #2C2C1E",
"B+	c #27292D",
"C+	c #313642",
"D+	c #232831",
"E+	c #27303F",
"F+	c #2A3343",
"G+	c #2D3748",
"H+	c #333C4E",
"I+	c #384050",
"J+	c #404550",
"K+	c #525259",
"L+	c #6F6B6B",
"M+	c #686565",
"N+	c #303134",
"O+	c #151515",
"P+	c #161616",
"Q+	c #58575D",
"R+	c #767476",
"S+	c #454B59",
"T+	c #333C4D",
"U+	c #283140",
"V+	c #384256",
"W+	c #414A5D",
"X+	c #7C7B82",
"Y+	c #938F90",
"Z+	c #555967",
"`+	c #212328",
" @	c #141414",
".@	c #7E7C80",
"+@	c #747278",
"@@	c #333D4F",
"#@	c #2C3645",
"$@	c #262F3E",
"%@	c #2F3A4D",
"&@	c #394457",
"*@	c #535868",
"=@	c #979293",
"-@	c #70717A",
";@	c #323844",
">@	c #434853",
",@	c #89878C",
"'@	c #5C5F6A",
")@	c #303B4C",
"!@	c #272F3E",
"~@	c #1D2532",
"{@	c #242D3C",
"]@	c #283142",
"^@	c #364155",
"/@	c #394458",
"(@	c #85848C",
"_@	c #85858F",
":@	c #3D4657",
"<@	c #111317",
"[@	c #585C69",
"}@	c #898C9B",
"|@	c #4B5160",
"1@	c #252C39",
"2@	c #1E2634",
"3@	c #212B3A",
"4@	c #242E3F",
"5@	c #293345",
"6@	c #2C384A",
"7@	c #303C4F",
"8@	c #333F52",
"9@	c #656A78",
"0@	c #989AA9",
"a@	c #606677",
"b@	c #282F3C",
"c@	c #727684",
"d@	c #818697",
"e@	c #343D4F",
"f@	c #2D3648",
"g@	c #28303F",
"h@	c #202938",
"i@	c #212A3A",
"j@	c #222C3D",
"k@	c #242F41",
"l@	c #273346",
"m@	c #2C384C",
"n@	c #2E3B50",
"o@	c #303D51",
"p@	c #3D475A",
"q@	c #9094A6",
"r@	c #828799",
"s@	c #384152",
"t@	c #40424D",
"u@	c #908E96",
"v@	c #636773",
"w@	c #2E3A4C",
"x@	c #293242",
"y@	c #202631",
"z@	c #1B2330",
"A@	c #212B3C",
"B@	c #232E3F",
"C@	c #253043",
"D@	c #283448",
"E@	c #2C394D",
"F@	c #2D3A4F",
"G@	c #2F3C51",
"H@	c #73798B",
"I@	c #9296A9",
"J@	c #4A5161",
"K@	c #59575B",
"L@	c #8E8A8C",
"M@	c #2D394C",
"N@	c #242B37",
"O@	c #1E2635",
"P@	c #202A3B",
"Q@	c #222B3D",
"R@	c #263144",
"S@	c #2A374B",
"T@	c #2B394E",
"U@	c #475062",
"V@	c #888C9D",
"W@	c #646876",
"X@	c #343A47",
"Y@	c #616168",
"Z@	c #293448",
"`@	c #2C384B",
" #	c #2B3648",
".#	c #293344",
"+#	c #171E29",
"@#	c #1E2636",
"##	c #1F293A",
"$#	c #212B3D",
"%#	c #232D40",
"&#	c #253044",
"*#	c #273448",
"=#	c #28354A",
"-#	c #2B384D",
";#	c #2C394E",
">#	c #7B7D8C",
",#	c #797A86",
"'#	c #374153",
")#	c #202838",
"!#	c #263246",
"~#	c #2A3549",
"{#	c #2A3547",
"]#	c #283244",
"^#	c #283041",
"/#	c #1F2430",
"(#	c #141923",
"_#	c #1D2535",
":#	c #1F293B",
"<#	c #212C3F",
"[#	c #232F43",
"}#	c #253146",
"|#	c #283449",
"1#	c #29354B",
"2#	c #2A364B",
"3#	c #676977",
"4#	c #84828C",
"5#	c #444C5D",
"6#	c #232C3B",
"7#	c #232E43",
"8#	c #273246",
"9#	c #242D3F",
"0#	c #212938",
"a#	c #1C202A",
"b#	c #141820",
"c#	c #151922",
"d#	c #151B25",
"e#	c #171F2D",
"f#	c #1B2435",
"g#	c #1E283B",
"h#	c #212C40",
"i#	c #222E42",
"j#	c #232F44",
"k#	c #253046",
"l#	c #273348",
"m#	c #4B505F",
"n#	c #7A7880",
"o#	c #525663",
"p#	c #192132",
"q#	c #1B2434",
"r#	c #161A23",
"s#	c #11141A",
"t#	c #191E27",
"u#	c #1A1F28",
"v#	c #1A1F26",
"w#	c #191D24",
"x#	c #161B20",
"y#	c #15191F",
"z#	c #151920",
"A#	c #151A22",
"B#	c #161B26",
"C#	c #171C27",
"D#	c #1D222C",
"E#	c #2D2F35",
"F#	c #22242A",
"G#	c #15171D",
"H#	c #15171B",
"I#	c #18191D",
"J#	c #191B1F",
"K#	c #1A1D21",
"L#	c #121419",
"M#	c #171D26",
"N#	c #1A2029",
"O#	c #1B2029",
"P#	c #1B2129",
"Q#	c #1C2129",
"R#	c #1D2229",
"S#	c #1D2228",
"T#	c #1D2127",
"U#	c #1D2126",
"V#	c #1D2026",
"W#	c #1C2025",
"X#	c #1C1F25",
"Y#	c #1B1F25",
"Z#	c #15181E",
"`#	c #1B202A",
" $	c #1B202B",
".$	c #1C212B",
"+$	c #1C222D",
"@$	c #1F2530",
"#$	c #20252F",
"$$	c #1F232C",
"%$	c #1E232B",
"&$	c #1E222A",
"*$	c #1D2129",
"=$	c #1C2128",
"-$	c #1B2027",
";$	c #1A2027",
">$	c #171C23",
",$	c #1B212B",
"'$	c #202733",
")$	c #212834",
"!$	c #212733",
"~$	c #202530",
"{$	c #1F242E",
"]$	c #1E232C",
"^$	c #1C212A",
"/$	c #1A2028",
"($	c #1B212C",
"_$	c #1E2430",
":$	c #202834",
"<$	c #202735",
"[$	c #212835",
"}$	c #222935",
"|$	c #222835",
"1$	c #212734",
"2$	c #202632",
"3$	c #1F242F",
"4$	c #1C212C",
"5$	c #1D242F",
"6$	c #222A37",
"7$	c #191F29",
"8$	c #1F2634",
"9$	c #202836",
"0$	c #222936",
"a$	c #212836",
"b$	c #222836",
"c$	c #252D3B",
"d$	c #262E3C",
"e$	c #222938",
"f$	c #232A39",
"g$	c #222B3A",
"h$	c #1F2531",
"i$	c #1D222D",
"j$	c #1F2734",
"k$	c #2B3545",
"l$	c #323D50",
"m$	c #303B4F",
"n$	c #262F40",
"o$	c #202634",
"p$	c #252E3D",
"q$	c #2B3445",
"r$	c #2B3444",
"s$	c #293241",
"t$	c #1D2531",
"u$	c #313B4F",
"v$	c #374358",
"w$	c #3F4D65",
"x$	c #43516B",
"y$	c #46546F",
"z$	c #495976",
"A$	c #4B5B7A",
"B$	c #4A5A78",
"C$	c #4C5C79",
"D$	c #4F5F7D",
"E$	c #516281",
"F$	c #566889",
"G$	c #4E5E7C",
"H$	c #404F67",
"I$	c #354155",
"J$	c #2F3A4C",
"K$	c #242D3E",
"L$	c #273042",
"M$	c #364258",
"N$	c #44536D",
"O$	c #4A5A77",
"P$	c #506180",
"Q$	c #586B8D",
"R$	c #5F749A",
"S$	c #657AA1",
"T$	c #6D83AB",
"U$	c #6F85AD",
"V$	c #6D83AA",
"W$	c #607599",
"X$	c #4E5F7D",
"Y$	c #344054",
"Z$	c #141A24",
"`$	c #222B3B",
" %	c #293245",
".%	c #2B3548",
"+%	c #42516C",
"@%	c #4F607F",
"#%	c #536584",
"$%	c #526381",
"%%	c #4B5B79",
"&%	c #3F4D66",
"*%	c #344056",
"=%	c #2A3548",
"-%	c #262F41",
";%	c #1C2330",
">%	c #232C3D",
",%	c #273143",
"'%	c #273144",
")%	c #273244",
"!%	c #283245",
"~%	c #283345",
"{%	c #1B2230",
"]%	c #121720",
"^%	c #121821",
"/%	c #141B25",
"(%	c #1C2431",
"_%	c #1E2534",
":%	c #0D1119",
"<%	c #000000",
"[%	c #010101",
"                                                                                                                                ",
"                                                                                                                                ",
"                                                                                                                                ",
"                                                                                                                                ",
"                                                                                                                                ",
"                                                                                                                                ",
"                                                                                                                                ",
"                                                    .                                                                           ",
"                                                + @ # $ % &                                                                     ",
"                                              * = - = ; > , '                                                                   ",
"                                              ) ! ~ { ] ^ / ( _                                                                 ",
"                                                : < [ } | 1 2 3 4                                                               ",
"                                                  5 6 7 8 ^ 9 ^ 0 a                                                             ",
"                                                  b c d e f 2 g ] d h                                                           ",
"                                                  i j + e k 2 l | $ m n                                                         ",
"                                                  4 o + 8 p q r s t u v                                                         ",
"                                                  w x y z A B C D E F G H                                                       ",
"                                                I J K L M N O P Q R S T U V                                                     ",
"                                                W W X Y Z ~ v `  ...+.@.#.W $.                                                  ",
"                                                %.&.*.&.=.-.;.>.,.'.).!.~.#.W {.                                                ",
"                                              ].X ^./.(._.:.<.<.-.[.}.|.#.(.< 1.2.h                                             ",
"                                          3.4.5.1.6.~.7.8.X 9.0.a.+.b.c.d.: e.f.g.h.4 v i.'                                     ",
"                                    ' H j.k.l.m.n.o.p.q.r.s.t.u.v.w.D x.y.z.A.B.C., 6 D.E.F.                                    ",
"                                  G.k.H.I.J.K.m o.L.9 v.w.D M.N.O.P.Q.R.S.T.U.V.( W.b                                           ",
"                                      h X.I.w D.Y.d d ^ Z.`. +.+O O ++@+#+$+%+&+*+                                              ",
"                                              =+-+;+>+,+'+)+!+~+{+]+^+/+(+_+:+<+[+                                              ",
"                                              }+|+1+2+3+4+5+6+7+8+9+0+0+a+b+c+5+d+                                              ",
"                                              e+f+g+2+3+4+5+h+i+j+k+0+0+l+m+n+<+d+                                              ",
"                                            k.o+p+q+r+s+t+<+u+v+w+x+/+/+y+z+A+B+C+D+                                            ",
"                                            H E+F+G+H+I+J+K+L+M+N+O+P+P+^+Q+R+S+T+                                              ",
"                                              v U+g.W.Y.V+W+X+Y+Z+`+ @ @ ..@+@@@#@                                              ",
"                                              k.$@G j %@S &@*@=@-@;@5+<+>@,@'@)@!@                                              ",
"                                              ~@{@]@x d.[ ^@/@(@_@:@<@,+[@}@|@W.1@                                              ",
"                                              2@3@4@5@6@7@8@: 9@0@a@b@:.c@d@e@f@g@                                              ",
"                                              h@i@j@k@l@m@n@o@p@q@r@s@t@u@v@w@G+x@y@                                            ",
"                                            z@i@A@B@C@D@E@F@n@G@H@I@J@K@L@H+M@j x@N@                                            ",
"                                            O@P@Q@k@R@D@S@T@F@n@U@V@W@X@Y@Z@`@ #.#!@                                            ",
"                                          +#@###$#%#&#*#=#-#;#;#o@>#,#'#)#!#~#{#]#^#/#                                          ",
"                                          (#<._#:#<#[#}#|#1#2#2#F@3#4#5#6#7#8#R@9#0#a#                                          ",
"                                            b#c#d#e#f#g#h#i#j#k#l#m#n#o#6#p#q#-.r#s#                                            ",
"                                            t#u#v#w#x#y#z#A#& B#C#D#E#F#G#H#I#J#K#L#                                            ",
"                                          M#N#N#N#O#P#Q#R#R#R#S#T#T#T#U#V#W#X#Y#%+Z#                                            ",
"                                          0.`#`# $.$+$G.@$y@y@#$$$$$%$&$*$*$=$-$;$>$                                            ",
"                                          `#`#,$+$3.4.'$k.)$)$!$y@~${$]$]$D#^$O#/$t#                                            ",
"                                        0.,$($+$3._$X.:$<$[$}$|$1$2$@$3$@$G.4$`#`# $                                            ",
"                                        I +$. 5$' j.<$b b 6$l.|$)$'$2$1$k.G.4$^$.$5$&                                           ",
"                                      7$'$H 5.' 8$9$l.0#a l.0$a$b$l.T I.2$G.4$.$' ' $.                                          ",
"                                      3.J.c$d$~ e$9$b b a a f$i i g$l.k.h$G.i$' j$I.5$                                          ",
"                                      H i U+k${ l$d m$m n$6#T a 0#H.o$k.l.p$.#q$r$s$)$                                          ",
"                                      t$0#6#G u$v$k w$x$y$z$A$B$C$D$E$F$F$G$H$I$J$F+k.                                          ",
"                                        %.Z K$L$c M$r.N$O$P$Q$R$S$T$U$V$W$X$N Y$% T 1.                                          ",
"                                            Z$:.`$]# %.%e.q.+%B$@%#%$%%%&%*%=%-%6#;%                                            ",
"                                                  +#O@>%-%,%'%)%!%!%!%!%~%L$9${%]%                                              ",
"                                                          ]%^%/%(%O@_%:.7.:%                                                    ",
"                                                            <%<%      <%<%                                                      ",
"                                                            <%<%    <%<%<%                                                      ",
"                                                            <%<%<%  <%<%                                                        ",
"                                                            <%<%<%  <%<%                                                        ",
"                                                              <%<%  <%                                                          ",
"                                                              <%<%                                                              ",
"                                                              <%[%                                                              ",
"                                                                                                                                ",
"                                                                                                                                ",
"                                                                                                                                "};
