/* XPM */
static char * player_dash_11_xpm[] = {
"64 64 579 2",
"  	c None",
". 	c #202835",
"+ 	c #2F384A",
"@ 	c #2D3648",
"# 	c #303A4D",
"$ 	c #30394B",
"% 	c #2C3546",
"& 	c #272F3E",
"* 	c #374358",
"= 	c #293242",
"- 	c #2C3647",
"; 	c #354055",
"> 	c #384459",
", 	c #374257",
"' 	c #333D51",
") 	c #2D3647",
"! 	c #2F394C",
"~ 	c #354156",
"{ 	c #323D50",
"] 	c #262E3D",
"^ 	c #39455B",
"/ 	c #3C485F",
"( 	c #3B475D",
"_ 	c #313B4E",
": 	c #293142",
"< 	c #3E4C64",
"[ 	c #2D3749",
"} 	c #242C3B",
"| 	c #333E52",
"1 	c #3A475D",
"2 	c #3D4A61",
"3 	c #39445A",
"4 	c #323C4F",
"5 	c #2A3344",
"6 	c #262E3E",
"7 	c #343F54",
"8 	c #38445A",
"9 	c #3C4960",
"0 	c #3E4B62",
"a 	c #3D4961",
"b 	c #313B4F",
"c 	c #293343",
"d 	c #252D3C",
"e 	c #2D3649",
"f 	c #323D51",
"g 	c #374258",
"h 	c #3B475E",
"i 	c #404D65",
"j 	c #39455C",
"k 	c #313C4F",
"l 	c #283141",
"m 	c #212837",
"n 	c #232B39",
"o 	c #2A3445",
"p 	c #303B4E",
"q 	c #364156",
"r 	c #43516A",
"s 	c #46556F",
"t 	c #43516B",
"u 	c #2E384B",
"v 	c #242C3C",
"w 	c #1B212C",
"x 	c #222938",
"y 	c #293243",
"z 	c #3B485F",
"A 	c #404E67",
"B 	c #475670",
"C 	c #4D5C79",
"D 	c #47556F",
"E 	c #3D485F",
"F 	c #1E2531",
"G 	c #171D27",
"H 	c #171D28",
"I 	c #212937",
"J 	c #283041",
"K 	c #2D384A",
"L 	c #333F54",
"M 	c #3F4D65",
"N 	c #46546E",
"O 	c #3F4C62",
"P 	c #384152",
"Q 	c #383E4C",
"R 	c #2B2F3A",
"S 	c #1E232C",
"T 	c #1B1F2A",
"U 	c #161C27",
"V 	c #171C27",
"W 	c #283142",
"X 	c #2B3548",
"Y 	c #2E384C",
"Z 	c #2F3A4D",
"` 	c #242934",
" .	c #272A34",
"..	c #2B2E36",
"+.	c #2B2E38",
"@.	c #1C202A",
"#.	c #161C28",
"$.	c #1B212D",
"%.	c #222A39",
"&.	c #232B3A",
"*.	c #242C3A",
"=.	c #1B222E",
"-.	c #1C2330",
";.	c #1B212F",
">.	c #1B222F",
",.	c #1A212E",
"'.	c #1A202C",
").	c #1C222E",
"!.	c #1E222B",
"~.	c #2B2E37",
"{.	c #31343D",
"].	c #212630",
"^.	c #1C2331",
"/.	c #2E394D",
"(.	c #2E384A",
"_.	c #2B3546",
":.	c #27303F",
"<.	c #191F29",
"[.	c #181E29",
"}.	c #141A26",
"|.	c #141A25",
"1.	c #181F2B",
"2.	c #19202D",
"3.	c #191E2A",
"4.	c #383C46",
"5.	c #3A3F4B",
"6.	c #3E4C65",
"7.	c #414F69",
"8.	c #414F68",
"9.	c #3E4B64",
"0.	c #252D3B",
"a.	c #191F2A",
"b.	c #141924",
"c.	c #131924",
"d.	c #1C2431",
"e.	c #2F3645",
"f.	c #3D4555",
"g.	c #454F64",
"h.	c #4A5873",
"i.	c #526382",
"j.	c #516381",
"k.	c #4E5F7C",
"l.	c #475570",
"m.	c #283140",
"n.	c #1D232E",
"o.	c #1A212D",
"p.	c #191F2B",
"q.	c #19202C",
"r.	c #1D2532",
"s.	c #252E3F",
"t.	c #2D374A",
"u.	c #374359",
"v.	c #425069",
"w.	c #4C5A75",
"x.	c #526280",
"y.	c #596B8C",
"z.	c #5C6F91",
"A.	c #566888",
"B.	c #4A5974",
"C.	c #394458",
"D.	c #272D3B",
"E.	c #16191F",
"F.	c #0C0D10",
"G.	c #1D2430",
"H.	c #1E2532",
"I.	c #202836",
"J.	c #252E3E",
"K.	c #2C3649",
"L.	c #364157",
"M.	c #3D4B63",
"N.	c #44526C",
"O.	c #4B5A75",
"P.	c #4E5E7B",
"Q.	c #526381",
"R.	c #536482",
"S.	c #50607D",
"T.	c #435068",
"U.	c #303A4A",
"V.	c #20252E",
"W.	c #16181B",
"X.	c #131313",
"Y.	c #0E0E0E",
"Z.	c #0A0A0A",
"`.	c #202734",
" +	c #222A38",
".+	c #38445B",
"++	c #3D4A62",
"@+	c #3F4C64",
"#+	c #424F68",
"$+	c #384458",
"%+	c #3A465A",
"&+	c #384254",
"*+	c #394147",
"=+	c #282D33",
"-+	c #1A1C21",
";+	c #161718",
">+	c #161616",
",+	c #313119",
"'+	c #2E2E15",
")+	c #131310",
"!+	c #0C0C0C",
"~+	c #1F2633",
"{+	c #222937",
"]+	c #252E3D",
"^+	c #293140",
"/+	c #222934",
"(+	c #191C23",
"_+	c #1E2124",
":+	c #666724",
"<+	c #66671A",
"[+	c #2E2E19",
"}+	c #181817",
"|+	c #171717",
"1+	c #40401E",
"2+	c #95951A",
"3+	c #5D5D17",
"4+	c #191913",
"5+	c #0D0D0D",
"6+	c #1F2632",
"7+	c #202633",
"8+	c #212836",
"9+	c #1A202B",
"0+	c #171C24",
"a+	c #12151C",
"b+	c #0E1013",
"c+	c #101113",
"d+	c #0E0F0F",
"e+	c #121212",
"f+	c #5A5A1F",
"g+	c #CACA14",
"h+	c #A6A615",
"i+	c #40401C",
"j+	c #181818",
"k+	c #1C1C19",
"l+	c #878720",
"m+	c #CDCD11",
"n+	c #79791A",
"o+	c #181813",
"p+	c #0B0E12",
"q+	c #0A0C0F",
"r+	c #0A0B0C",
"s+	c #0B0C0D",
"t+	c #0D0D0E",
"u+	c #0F0F0F",
"v+	c #7C7C1A",
"w+	c #D8D80C",
"x+	c #B8B81A",
"y+	c #33331D",
"z+	c #25251A",
"A+	c #84841A",
"B+	c #C2C214",
"C+	c #5F5F1E",
"D+	c #121211",
"E+	c #161B25",
"F+	c #1A1F29",
"G+	c #191E27",
"H+	c #181D24",
"I+	c #181A21",
"J+	c #16181C",
"K+	c #161618",
"L+	c #1F1F1A",
"M+	c #63631D",
"N+	c #AAA91A",
"O+	c #747426",
"P+	c #191918",
"Q+	c #202018",
"R+	c #585818",
"S+	c #6B6B1D",
"T+	c #1B1B1C",
"U+	c #1E2127",
"V+	c #202735",
"W+	c #272F3D",
"X+	c #28303E",
"Y+	c #29303D",
"Z+	c #282E39",
"`+	c #2A2E37",
" @	c #34363A",
".@	c #585744",
"+@	c #6B694A",
"@@	c #353433",
"#@	c #1B1C1D",
"$@	c #181816",
"%@	c #232316",
"&@	c #2D2E2F",
"*@	c #4A484A",
"=@	c #3F414A",
"-@	c #313948",
";@	c #2B3545",
">@	c #2E3849",
",@	c #323C4D",
"'@	c #3A4252",
")@	c #494F5C",
"!@	c #69696F",
"~@	c #716F72",
"{@	c #4A4B51",
"]@	c #24262A",
"^@	c #151616",
"/@	c #141414",
"(@	c #24262B",
"_@	c #68686D",
":@	c #727075",
"<@	c #3A4353",
"[@	c #2D3644",
"}@	c #262F3E",
"|@	c #293344",
"1@	c #374155",
"2@	c #444C5E",
"3@	c #626672",
"4@	c #79797F",
"5@	c #61626A",
"6@	c #2C3037",
"7@	c #151618",
"8@	c #111212",
"9@	c #43464F",
"0@	c #807E84",
"a@	c #5F626D",
"b@	c #242D3D",
"c@	c #2C3648",
"d@	c #3A4457",
"e@	c #505767",
"f@	c #757780",
"g@	c #6A6D79",
"h@	c #3B404B",
"i@	c #191B20",
"j@	c #15171B",
"k@	c #565964",
"l@	c #81828E",
"m@	c #4A5262",
"n@	c #252C39",
"o@	c #1F2736",
"p@	c #232C3C",
"q@	c #263040",
"r@	c #293446",
"s@	c #2C374B",
"t@	c #303C4F",
"u@	c #343F53",
"v@	c #424B5D",
"w@	c #686D7B",
"x@	c #757A89",
"y@	c #515765",
"z@	c #242830",
"A@	c #212631",
"B@	c #707381",
"C@	c #7B7F8F",
"D@	c #374152",
"E@	c #262D3B",
"F@	c #1B212E",
"G@	c #212938",
"H@	c #222B3C",
"I@	c #242E3F",
"J@	c #263143",
"K@	c #2A3549",
"L@	c #2D3A4D",
"M@	c #2F3C51",
"N@	c #374357",
"O@	c #575F71",
"P@	c #787E90",
"Q@	c #656B7C",
"R@	c #333844",
"S@	c #404551",
"T@	c #8A8B96",
"U@	c #616471",
"V@	c #2E394B",
"W@	c #27303E",
"X@	c #1D2433",
"Y@	c #202A3A",
"Z@	c #222C3C",
"`@	c #242E40",
" #	c #263144",
".#	c #293548",
"+#	c #2C394D",
"@#	c #2D3A4F",
"##	c #313D52",
"$#	c #465064",
"%#	c #6E7689",
"&#	c #707687",
"*#	c #444A59",
"=#	c #616169",
"-#	c #7C7B81",
";#	c #363F50",
">#	c #2D384B",
",#	c #28303F",
"'#	c #242B38",
")#	c #171D29",
"!#	c #1E2737",
"~#	c #202A3B",
"{#	c #222C3E",
"]#	c #242F41",
"^#	c #263245",
"/#	c #293549",
"(#	c #2A374C",
"_#	c #2C394E",
":#	c #394559",
"<#	c #5C6578",
"[#	c #6D7383",
"}#	c #565B69",
"|#	c #575962",
"1#	c #4C4F5A",
"2#	c #2B374A",
"3#	c #191F2C",
"4#	c #1D2534",
"5#	c #1F2839",
"6#	c #212B3D",
"7#	c #232E41",
"8#	c #253144",
"9#	c #273448",
"0#	c #29354A",
"a#	c #2B384D",
"b#	c #6F7382",
"c#	c #606471",
"d#	c #444A56",
"e#	c #273041",
"f#	c #273246",
"g#	c #2A3548",
"h#	c #2A3446",
"i#	c #273143",
"j#	c #171E29",
"k#	c #1B2332",
"l#	c #1D2636",
"m#	c #1F2A3B",
"n#	c #222D40",
"o#	c #242F44",
"p#	c #273247",
"q#	c #28354A",
"r#	c #2B374C",
"s#	c #3E485B",
"t#	c #666A79",
"u#	c #666975",
"v#	c #3F4655",
"w#	c #242D3E",
"x#	c #273245",
"y#	c #262F42",
"z#	c #1F2734",
"A#	c #171D26",
"B#	c #181E28",
"C#	c #1A212F",
"D#	c #1B2432",
"E#	c #1F293A",
"F#	c #222C3F",
"G#	c #242E41",
"H#	c #30394A",
"I#	c #565965",
"J#	c #5C5E68",
"K#	c #373D4B",
"L#	c #1E2634",
"M#	c #1C222F",
"N#	c #1A1E28",
"O#	c #151921",
"P#	c #1A2029",
"Q#	c #191F28",
"R#	c #191E28",
"S#	c #191E29",
"T#	c #19202B",
"U#	c #1A212C",
"V#	c #222732",
"W#	c #363840",
"X#	c #32343C",
"Y#	c #1E222A",
"Z#	c #15181E",
"`#	c #171B22",
" $	c #181B21",
".$	c #181A1F",
"+$	c #15161B",
"@$	c #1B202A",
"#$	c #1B212B",
"$$	c #1C212C",
"%$	c #1C222C",
"&$	c #1D222C",
"*$	c #1D232D",
"=$	c #1D222A",
"-$	c #1C2129",
";$	c #1D2128",
">$	c #1F2228",
",$	c #1C2026",
"'$	c #1A1E23",
")$	c #1B1D22",
"!$	c #1A1D21",
"~$	c #15181D",
"{$	c #1D222D",
"]$	c #1D232F",
"^$	c #1E2430",
"/$	c #202632",
"($	c #202732",
"_$	c #202530",
":$	c #1F242E",
"<$	c #1E232B",
"[$	c #1D2229",
"}$	c #1C2027",
"|$	c #1B1F25",
"1$	c #1A1E24",
"2$	c #161A21",
"3$	c #1B222C",
"4$	c #1C222D",
"5$	c #1C232E",
"6$	c #212835",
"7$	c #212733",
"8$	c #202631",
"9$	c #1B2028",
"0$	c #1A1F27",
"a$	c #171C23",
"b$	c #1B222D",
"c$	c #222936",
"d$	c #1F252F",
"e$	c #1F242F",
"f$	c #1C212B",
"g$	c #1B2029",
"h$	c #1A2028",
"i$	c #181D25",
"j$	c #232A38",
"k$	c #212834",
"l$	c #202733",
"m$	c #273141",
"n$	c #212734",
"o$	c #1F2531",
"p$	c #1C212A",
"q$	c #1E2533",
"r$	c #222B39",
"s$	c #273040",
"t$	c #333F53",
"u$	c #323C50",
"v$	c #262F3F",
"w$	c #242D3C",
"x$	c #232B3B",
"y$	c #1F2530",
"z$	c #283243",
"A$	c #354157",
"B$	c #3A475E",
"C$	c #3D4A63",
"D$	c #3B4860",
"E$	c #344055",
"F$	c #2A3343",
"G$	c #2E384D",
"H$	c #344056",
"I$	c #3A475F",
"J$	c #485774",
"K$	c #4D5E7D",
"L$	c #506182",
"M$	c #516382",
"N$	c #516280",
"O$	c #4F5F7C",
"P$	c #4B5A77",
"Q$	c #42506A",
"R$	c #232B38",
"S$	c #283244",
"T$	c #3D4B64",
"U$	c #465572",
"V$	c #4E5F7F",
"W$	c #566889",
"X$	c #5D7093",
"Y$	c #607397",
"Z$	c #5F7296",
"`$	c #56698A",
" %	c #495975",
".%	c #3D4B62",
"+%	c #222B3A",
"@%	c #252F40",
"#%	c #273142",
"$%	c #344157",
"%%	c #3C4A62",
"&%	c #45546F",
"*%	c #3E4C66",
"=%	c #38455C",
"-%	c #313C50",
";%	c #2A3546",
">%	c #121721",
",%	c #12161F",
"'%	c #252F3F",
")%	c #263041",
"!%	c #293345",
"~%	c #020304",
"{%	c #040406",
"]%	c #06080B",
"^%	c #0E131A",
"/%	c #0F131A",
"(%	c #11161E",
"_%	c #151B25",
":%	c #000000",
"<%	c #010101",
"[%	c #010202",
"                                                                                                                                ",
"                                                                                                                                ",
"                                                                                                                                ",
"                                                                                                                                ",
"                                                                                                                                ",
"                                                                                                                                ",
"                                                                                                                                ",
"                                                                                                                                ",
"                                                                                                                                ",
"                                          . + @ # $ % &                                                                         ",
"                                          * = - ; > , ' )                                                                       ",
"                                        ! ~ { ] ; ^ / ( * _ :                                                                   ",
"                                          < [ } | * 1 2 2 3 4 5                                                                 ",
"                                              6 # 7 8 9 0 a 8 b c                                                               ",
"                                              d e f g h 0 i 2 j k l m                                                           ",
"                                              n o p q h i r s t j u v w                                                         ",
"                                              x y ! ~ z A B C D E + F G H                                                       ",
"                                              I J K L j M N O P Q R S T U H V                                                   ",
"                                              . v W X Y Z = ` R  ...+.@.#.U $.%.&.n n *.n                                       ",
"                                              =.-.-.;.>.,.'.).$.!.~.{.].^.W /.! (.[ _.:.<.                                      ",
"                                              [.[.}.|.#.1.2.2.3. .4.5.k 6.7.8.9.^ b 0.                                          ",
"                                              a.H b.c.#.2.d.%.e.f.g.h.i.j.k.l.^ m.n.                                            ",
"                                            '.o.p.q.r.s.t.u.v.w.x.y.z.A.B.C.D.E.F.                                              ",
"                                          G.H.I.J.K.L.M.N.O.P.Q.R.S.T.U.V.W.X.Y.Z.                                              ",
"                                      F H.`. +l # .+++@+#+$+%+&+*+=+-+;+>+,+'+)+!+                                              ",
"                                    H.~+`.{+]+5 (.# m.^+/+(+_+:+<+[+}+|+1+2+3+4+5+                                              ",
"                                    H.6+7+8+ +9+0+a+b+c+d+e+f+g+h+i+j+k+l+m+n+o+5+                                              ",
"                                              p+q+r+s+t+u+o+v+w+x+y+j+z+A+B+C+D+5+                                              ",
"                                            E+F+G+H+I+J+K+L+M+N+O+P+|+Q+R+S+L+T+U+                                              ",
"                                            V+*.W+X+Y+Z+`+ @.@+@@@#@>+$@%@&@*@=@-@                                              ",
"                                              } m.;@>@,@'@)@!@~@{@]@^@/@(@_@:@<@[@                                              ",
"                                               +}@|@[ k 1@2@3@4@5@6@7@8@9@0@a@,@X+                                              ",
"                                              . b@W c@Z | d@e@f@g@h@i@j@k@l@m@>@n@                                              ",
"                                              o@p@q@r@s@t@u@v@w@x@y@z@A@B@C@D@% E@                                              ",
"                                            F@G@H@I@J@K@L@M@N@O@P@Q@R@S@T@U@V@% W@                                              ",
"                                            X@Y@Z@`@ #.#+#@###$#%#&#*#=#-#;#>#_.,#'#                                            ",
"                                          )#!#~#{#]#^#/#(#_#@#:#<#[#}#|#1#K@2#_.l 0.                                            ",
"                                          3#4#5#6#7#8#9#0#a#_###$#b#c#d#e#f#g#h#i#d                                             ",
"                                          j#o.k#l#m#n#o#p#q#0#r#s#t#u#v#w#7#x#y#b@z#                                            ",
"                                          A#B#[.p.C#D#l#E#6#F#G#H#I#J#K#-.k#L#M#N#O#                                            ",
"                                        A#P#F+Q#Q#R#S#a.T#U#$.=.V#W#X#Y#Z#`# $.$+$                                              ",
"                                        F+@$@$#$$$%$&$*$*$&$=$-$;$>$,$'$)$)$!$-+~$                                              ",
"                                      R##$#$$${$]$^$6+7+/$($_$:$S <$[$;$}$,$|$1$2$                                              ",
"                                      3$4$).5$G.F ~+`.V+6$6$7$8$_$:$S !.=$-$9$0$a$                                              ",
"                                    b$~+6+F H.~+z#6$m 8+{+c$6$7$8$d$e$e$*$f$g$h$i$                                              ",
"                                  A#6$j$n n  +x I G@I  +{+c$6$k$l$l$l$6+n.f$@$g$F+                                              ",
"                                  $.8+} :.= 5 y m$J.} n  +{+{+{+x {+n$o$*$f$p$n.w                                               ",
"                                  $.q$r$s$- p | t$u$u _.W v$w$x$ +6$/$y$n.{$^$H.).                                              ",
"                                    o.L#x$z$/.A$B$++++C$D$.+E$k (.% F$m.] 0.} n 6$                                              ",
"                                        d.V+J.G$H$I$7.J$K$L$M$i.N$O$P$Q$j k ) = R$                                              ",
"                                            r.b@S$Y A$T$U$V$W$X$Y$Z$`$ %.%u@[ s$~+                                              ",
"                                                L#+%@%#%G$$%%%Q$&%&%*%=%-%;%}@I H                                               ",
"                                                    >%,%G o@'%w#)%z$!%)%G@I.-.V                                                 ",
"                                                    ~%{%]%  ^%/%(%q.H._%E+                                                      ",
"                                                    :%:%<%[%[%~%                                                                ",
"                                                    :%:%:%:%:%                                                                  ",
"                                                    :%:%:%:%                                                                    ",
"                                                    :%:%                                                                        ",
"                                                    :%:%                                                                        ",
"                                                    :%                                                                          ",
"                                                                                                                                ",
"                                                                                                                                ",
"                                                                                                                                ",
"                                                                                                                                "};
