/* XPM */
static char * player_walk_3_xpm[] = {
"64 64 584 2",
"  	c None",
". 	c #1A202C",
"+ 	c #2A3344",
"@ 	c #293243",
"# 	c #222937",
"$ 	c #232B3A",
"% 	c #39455C",
"& 	c #343F54",
"* 	c #3A455C",
"= 	c #3A465C",
"- 	c #364155",
"; 	c #242C3B",
"> 	c #3D4A62",
", 	c #323D51",
"' 	c #07090E",
") 	c #333E52",
"! 	c #3D4960",
"~ 	c #3B475E",
"{ 	c #2D3749",
"] 	c #42516A",
"^ 	c #566989",
"/ 	c #273041",
"( 	c #313B4F",
"_ 	c #374359",
": 	c #3D4A61",
"< 	c #404D64",
"[ 	c #3C4960",
"} 	c #161B26",
"| 	c #323E52",
"1 	c #151A23",
"2 	c #313C50",
"3 	c #364156",
"4 	c #3E4A62",
"5 	c #414E66",
"6 	c #343F53",
"7 	c #181E29",
"8 	c #1D2430",
"9 	c #2F394C",
"0 	c #38445A",
"a 	c #3C485F",
"b 	c #404D65",
"c 	c #3F4B63",
"d 	c #323C4F",
"e 	c #161B24",
"f 	c #202735",
"g 	c #2D3648",
"h 	c #323D50",
"i 	c #374258",
"j 	c #425069",
"k 	c #3A465D",
"l 	c #2B3546",
"m 	c #212836",
"n 	c #2B3446",
"o 	c #364258",
"p 	c #3B485E",
"q 	c #3F4C64",
"r 	c #303B4E",
"s 	c #242C3A",
"t 	c #222A38",
"u 	c #2A3345",
"v 	c #3E4B62",
"w 	c #424F68",
"x 	c #475570",
"y 	c #4B5B76",
"z 	c #45536D",
"A 	c #364157",
"B 	c #2A3445",
"C 	c #1F2633",
"D 	c #232A39",
"E 	c #3C4961",
"F 	c #43516A",
"G 	c #4C5C78",
"H 	c #50607D",
"I 	c #4B5A76",
"J 	c #404E67",
"K 	c #2E384C",
"L 	c #181D27",
"M 	c #212938",
"N 	c #293344",
"O 	c #2F3A4E",
"P 	c #364259",
"Q 	c #3F4C65",
"R 	c #46556F",
"S 	c #47566F",
"T 	c #3F4B61",
"U 	c #40485B",
"V 	c #3D4353",
"W 	c #1E2430",
"X 	c #161C27",
"Y 	c #181E2A",
"Z 	c #181E28",
"` 	c #171D29",
" .	c #1B222F",
"..	c #1D2431",
"+.	c #1A1E28",
"@.	c #2D2F38",
"#.	c #353842",
"$.	c #3D4049",
"%.	c #34363F",
"&.	c #1C202A",
"*.	c #141B26",
"=.	c #141A25",
"-.	c #171E2A",
";.	c #181F2C",
">.	c #19202D",
",.	c #1A212E",
"'.	c #171C26",
").	c #363942",
"!.	c #3D404A",
"~.	c #22252E",
"{.	c #161C28",
"].	c #181D28",
"^.	c #191F2B",
"/.	c #171D28",
"(.	c #131924",
"_.	c #121823",
":.	c #181F2B",
"<.	c #181E2B",
"[.	c #1F232E",
"}.	c #2C2F38",
"|.	c #464953",
"1.	c #272A33",
"2.	c #19202C",
"3.	c #222B3B",
"4.	c #273142",
"5.	c #283242",
"6.	c #262F3F",
"7.	c #232A38",
"8.	c #1A202A",
"9.	c #1C222E",
"0.	c #1A202B",
"a.	c #121721",
"b.	c #111620",
"c.	c #141A24",
"d.	c #171E29",
"e.	c #252932",
"f.	c #3C3F49",
"g.	c #3F4450",
"h.	c #3E4758",
"i.	c #414F68",
"j.	c #465671",
"k.	c #43516C",
"l.	c #3E4B64",
"m.	c #38445B",
"n.	c #333E53",
"o.	c #303A4D",
"p.	c #2D3748",
"q.	c #2C3647",
"r.	c #232B39",
"s.	c #1E2431",
"t.	c #1E2531",
"u.	c #2E394C",
"v.	c #344055",
"w.	c #3A475E",
"x.	c #3F4D66",
"y.	c #44526D",
"z.	c #4B5B77",
"A.	c #526382",
"B.	c #536483",
"C.	c #546686",
"D.	c #596C8D",
"E.	c #566888",
"F.	c #51617F",
"G.	c #4E5E7B",
"H.	c #495873",
"I.	c #3F4D65",
"J.	c #1F2531",
"K.	c #202734",
"L.	c #212835",
"M.	c #262F3E",
"N.	c #2C3648",
"O.	c #46556E",
"P.	c #4B5A75",
"Q.	c #50607C",
"R.	c #566887",
"S.	c #5A6C8D",
"T.	c #5F7295",
"U.	c #64799D",
"V.	c #63779B",
"W.	c #5D7092",
"X.	c #516280",
"Y.	c #242B39",
"Z.	c #141922",
"`.	c #1C222D",
" +	c #1F2632",
".+	c #242B3A",
"++	c #273040",
"@+	c #384359",
"#+	c #424F67",
"$+	c #364256",
"%+	c #404E66",
"&+	c #262E3C",
"*+	c #1B1F26",
"=+	c #4A4A1F",
"-+	c #5D5D20",
";+	c #141413",
">+	c #101010",
",+	c #080808",
"'+	c #11161F",
")+	c #121821",
"!+	c #141822",
"~+	c #0C0F14",
"{+	c #0F1217",
"]+	c #12141A",
"^+	c #0D0E0F",
"/+	c #838323",
"(+	c #DEDE1D",
"_+	c #6D6D25",
":+	c #181818",
"<+	c #1B1B18",
"[+	c #CACA26",
"}+	c #E7E71F",
"|+	c #2F2F1A",
"1+	c #111111",
"2+	c #0A0A0A",
"3+	c #010101",
"4+	c #020202",
"5+	c #040404",
"6+	c #070707",
"7+	c #0D0D0D",
"8+	c #C8C825",
"9+	c #FFFF00",
"0+	c #B9B928",
"a+	c #191918",
"b+	c #191919",
"c+	c #1E1E19",
"d+	c #D7D726",
"e+	c #F6F619",
"f+	c #444420",
"g+	c #161B25",
"h+	c #131820",
"i+	c #0D0F15",
"j+	c #08090B",
"k+	c #131312",
"l+	c #ABAB27",
"m+	c #FEFE03",
"n+	c #A3A329",
"o+	c #181817",
"p+	c #9B9B27",
"q+	c #242417",
"r+	c #1C1E24",
"s+	c #212937",
"t+	c #2A3242",
"u+	c #2C3545",
"v+	c #2F3747",
"w+	c #313845",
"x+	c #32353D",
"y+	c #2B2B2E",
"z+	c #222122",
"A+	c #393827",
"B+	c #7F7F2D",
"C+	c #2E2E1B",
"D+	c #171717",
"E+	c #161616",
"F+	c #1A1A16",
"G+	c #363533",
"H+	c #555254",
"I+	c #494B55",
"J+	c #3B4253",
"K+	c #222832",
"L+	c #262E3E",
"M+	c #293241",
"N+	c #2C3546",
"O+	c #353F51",
"P+	c #464E5E",
"Q+	c #62646F",
"R+	c #918C8E",
"S+	c #8D898B",
"T+	c #4E505A",
"U+	c #151617",
"V+	c #151515",
"W+	c #24262B",
"X+	c #737278",
"Y+	c #807D80",
"Z+	c #394253",
"`+	c #2F3949",
" @	c #222938",
".@	c #27303F",
"+@	c #364154",
"@@	c #3C4659",
"#@	c #6A6B76",
"$@	c #9A9494",
"%@	c #616470",
"&@	c #30343D",
"*@	c #141414",
"=@	c #131313",
"-@	c #3B3F4A",
";@	c #858285",
">@	c #6A6A71",
",@	c #313C4E",
"'@	c #2A3342",
")@	c #1E2633",
"!@	c #262F3D",
"~@	c #293242",
"{@	c #2F394D",
"]@	c #384356",
"^@	c #424B5D",
"/@	c #928D90",
"(@	c #7C7B83",
"_@	c #373F4F",
":@	c #0F0F10",
"<@	c #0F0F0F",
"[@	c #4A4E5A",
"}@	c #8A8A93",
"|@	c #575B68",
"1@	c #2F394B",
"2@	c #262D3B",
"3@	c #1D2532",
"4@	c #222C3B",
"5@	c #273141",
"6@	c #2B3547",
"7@	c #354054",
"8@	c #354155",
"9@	c #797B86",
"0@	c #93949F",
"a@	c #4B5364",
"b@	c #1C212A",
"c@	c #10141B",
"d@	c #606473",
"e@	c #888EA0",
"f@	c #434A5A",
"g@	c #1F2735",
"h@	c #212B3A",
"i@	c #232C3D",
"j@	c #263142",
"k@	c #2A3648",
"l@	c #2E3A4E",
"m@	c #303D51",
"n@	c #323E53",
"o@	c #525868",
"p@	c #989CAC",
"q@	c #74798B",
"r@	c #333C4C",
"s@	c #202837",
"t@	c #80828D",
"u@	c #7C7F8E",
"v@	c #303A4C",
"w@	c #212939",
"x@	c #212A3B",
"y@	c #222D3E",
"z@	c #242F41",
"A@	c #273346",
"B@	c #2C384C",
"C@	c #2D3B4F",
"D@	c #2F3C51",
"E@	c #868B9D",
"F@	c #8E93A5",
"G@	c #40495A",
"H@	c #54545C",
"I@	c #959195",
"J@	c #515461",
"K@	c #2E3A4C",
"L@	c #2C3748",
"M@	c #232935",
"N@	c #1C2431",
"O@	c #202A3A",
"P@	c #222C3C",
"Q@	c #242F40",
"R@	c #263144",
"S@	c #293548",
"T@	c #2C384D",
"U@	c #2C3A4F",
"V@	c #2E3B50",
"W@	c #606677",
"X@	c #9599AC",
"Y@	c #595D6C",
"Z@	c #4B4C53",
"`@	c #888487",
" #	c #2E384B",
".#	c #2D394C",
"+#	c #2B3648",
"@#	c #2A3343",
"##	c #1E2736",
"$#	c #202A3B",
"%#	c #212B3D",
"&#	c #242E40",
"*#	c #283447",
"=#	c #29364A",
"-#	c #2B384D",
";#	c #2C394E",
">#	c #7F8293",
",#	c #737582",
"'#	c #343D4E",
")#	c #464852",
"!#	c #283347",
"~#	c #2B374A",
"{#	c #293345",
"]#	c #283141",
"^#	c #1E232E",
"/#	c #1D2534",
"(#	c #1F2839",
"_#	c #222D40",
":#	c #253044",
"<#	c #273348",
"[#	c #28354A",
"}#	c #2B374C",
"|#	c #737583",
"1#	c #83828E",
"2#	c #3C4658",
"3#	c #212A3A",
"4#	c #253145",
"5#	c #293449",
"6#	c #293447",
"7#	c #273144",
"8#	c #262F40",
"9#	c #151C27",
"0#	c #19212F",
"a#	c #1D2637",
"b#	c #1F293D",
"c#	c #212D41",
"d#	c #242F44",
"e#	c #263248",
"f#	c #283449",
"g#	c #28344A",
"h#	c #29354A",
"i#	c #595C6B",
"j#	c #86838C",
"k#	c #525766",
"l#	c #212C40",
"m#	c #242F43",
"n#	c #232D40",
"o#	c #202838",
"p#	c #1B222E",
"q#	c #161A23",
"r#	c #191E27",
"s#	c #171C24",
"t#	c #151921",
"u#	c #161D2A",
"v#	c #182130",
"w#	c #1C2537",
"x#	c #1D283A",
"y#	c #1F2A3D",
"z#	c #202B3F",
"A#	c #232E42",
"B#	c #383F4F",
"C#	c #676770",
"D#	c #4F515C",
"E#	c #1F2734",
"F#	c #111622",
"G#	c #161B27",
"H#	c #151920",
"I#	c #14161A",
"J#	c #1A2029",
"K#	c #1B2028",
"L#	c #1B2127",
"M#	c #1A1F25",
"N#	c #191D22",
"O#	c #181C21",
"P#	c #181B20",
"Q#	c #171B20",
"R#	c #171A20",
"S#	c #171A1F",
"T#	c #181B1F",
"U#	c #181A1E",
"V#	c #191B20",
"W#	c #1B1D21",
"X#	c #1B1D20",
"Y#	c #1A1C21",
"Z#	c #1A1F29",
"`#	c #1B202A",
" $	c #1B202B",
".$	c #1C212B",
"+$	c #1D222C",
"@$	c #1E232D",
"#$	c #1F242D",
"$$	c #1E242C",
"%$	c #1E232A",
"&$	c #1D2229",
"*$	c #1D2228",
"=$	c #1D2128",
"-$	c #1D2127",
";$	c #1D2026",
">$	c #1C2025",
",$	c #1C1F25",
"'$	c #1B1E25",
")$	c #1A1E25",
"!$	c #111419",
"~$	c #191E28",
"{$	c #1B212C",
"]$	c #1D222D",
"^$	c #1D232F",
"/$	c #202633",
"($	c #202733",
"_$	c #212733",
":$	c #202530",
"<$	c #1E232B",
"[$	c #1E222A",
"}$	c #1D2129",
"|$	c #1C2129",
"1$	c #1A2027",
"2$	c #14181F",
"3$	c #1B212B",
"4$	c #1C212C",
"5$	c #222835",
"6$	c #212734",
"7$	c #202632",
"8$	c #1E242E",
"9$	c #1E232C",
"0$	c #1D222B",
"a$	c #1B212A",
"b$	c #1A2028",
"c$	c #161A22",
"d$	c #1D232E",
"e$	c #1E2532",
"f$	c #222936",
"g$	c #202631",
"h$	c #1F2530",
"i$	c #1D232D",
"j$	c #1B2029",
"k$	c #181D26",
"l$	c #212834",
"m$	c #1D222E",
"n$	c #191F29",
"o$	c #232B38",
"p$	c #252C3B",
"q$	c #252D3B",
"r$	c #222A37",
"s$	c #1B222D",
"t$	c #28303F",
"u$	c #2D384A",
"v$	c #283142",
"w$	c #222A39",
"x$	c #222B3A",
"y$	c #1F2532",
"z$	c #39455B",
"A$	c #3E4B63",
"B$	c #3D4A63",
"C$	c #39465E",
"D$	c #202836",
"E$	c #242D3E",
"F$	c #263041",
"G$	c #42506A",
"H$	c #44536D",
"I$	c #4C5C7A",
"J$	c #56698B",
"K$	c #5B6F93",
"L$	c #5E7195",
"M$	c #617598",
"N$	c #5F7396",
"O$	c #5F7397",
"P$	c #5D7195",
"Q$	c #374358",
"R$	c #303B4D",
"S$	c #1F2736",
"T$	c #252F40",
"U$	c #283244",
"V$	c #2C3649",
"W$	c #43526C",
"X$	c #4E5F7E",
"Y$	c #576A8D",
"Z$	c #5F7399",
"`$	c #6479A0",
" %	c #6C82A9",
".%	c #7087AF",
"+%	c #6F85AD",
"@%	c #667AA0",
"#%	c #45546E",
"$%	c #38455A",
"%%	c #2E384A",
"&%	c #252E3D",
"*%	c #0E131D",
"=%	c #1F2837",
"-%	c #263042",
";%	c #283245",
">%	c #2C374B",
",%	c #354258",
"'%	c #3E4C65",
")%	c #44536E",
"!%	c #465571",
"~%	c #3C4A62",
"{%	c #344056",
"]%	c #2B3548",
"^%	c #262F41",
"/%	c #161C25",
"(%	c #1B2331",
"_%	c #252F41",
":%	c #283346",
"<%	c #293346",
"[%	c #000000",
"}%	c #1B2230",
"|%	c #1C2432",
"1%	c #1A2230",
"2%	c #0C1119",
"3%	c #000101",
"                                                                                                                                ",
"                                                                                                                                ",
"                                                                                                                                ",
"                                                                                                                                ",
"                                                                                                                                ",
"                                                                                                                                ",
"                                                                                                                                ",
"                                              . + @ #                                                                           ",
"                                            $ % & * = - ;                                                                       ",
"                                            > , ' ) = ! ~ {                                                                     ",
"                                            ] ^ / ( _ : < [ , }                                                                 ",
"                                              | 1 2 3 % 4 5 ~ 6 7                                                               ",
"                                                8 9 6 0 a b c 0 d e                                                             ",
"                                                f g h i a 4 j k - l                                                             ",
"                                                m n ( o p c j q 0 r s                                                           ",
"                                                t u r _ v w x y z A B C                                                         ",
"                                                D u r o E F G H I J K $ L                                                       ",
"                                                M N O P Q R S T U V W X Y Z                                                     ",
"                                                Y ` Y  ... .+.@.#.$.%.&.X 7 Z                                                   ",
"                                              7 Y *.=.-.;.>.,.,.'.).!.~.{.X X ].                                                ",
"                                              ^./.(._.{.:.>.>.<.[.}.|.1.2.3.4.5.6.s 7.# 7.8.                                    ",
"                                            9.0.X a.b.c.} d. .e.f.g.h.i.j.k.l.m.n.o.p.q.r.                                      ",
"                                      s.t.C t / u.v.w.x.y.z.A.B.C.D.D.E.B.F.G.H.I.& 6.^.                                        ",
"                                  J.K.K.L.7.M.N.v.: j O.P.Q.R.S.T.U.V.W.X.z 3 Y.Z.                                              ",
"                                  `. +L..+++g , 0 @+v #+$+v b w %+- &+*+=+-+;+>+,+                                              ",
"                                            '+)+!+~+{+]+^+>+/+(+_+:+:+<+[+}+|+1+2+                                              ",
"                                            3+4+5+6+2+7+>+;+8+9+0+a+b+c+d+e+f+1+2+                                              ",
"                                            g+h+i+j+2+7+>+k+l+m+n+:+:+o+p+8+q+>+r+                                              ",
"                                            s+t+u+v+w+x+y+z+A+B+C+D+D+E+F+G+H+I+J+K+                                            ",
"                                            9.L+M+N+9 O+P+Q+R+S+T+U+E+V+W+X+Y+Z+`+                                              ",
"                                               @.@+ { r +@@@#@$@%@&@*@=@-@;@>@,@'@                                              ",
"                                              )@!@~@N.{@) ]@^@/@(@_@:@<@[@}@|@1@2@                                              ",
"                                              3@4@5@6@u.2 7@8@9@0@a@b@c@d@e@f@p.&+                                              ",
"                                              g@h@i@j@k@l@m@n@o@p@q@r@s@t@u@v@g t+                                              ",
"                                            . w@x@y@z@A@B@C@D@n@E@F@G@H@I@J@K@L@~@M@                                            ",
"                                            N@O@P@Q@R@S@T@U@V@V@W@X@Y@Z@`@ #.#+#@#2@                                            ",
"                                            ##$#%#&#R@*#=#-#;#C@- >#,#'#)#!#~#+#{#]#^#                                          ",
"                                          X /#(#%#_#:#<#[#}#-#-#D@|#1#2#3#4#5#6#7#8#J.                                          ",
"                                            9#0#a#b#c#d#e#f#g#h#-#i#j#k#5.l#m#n#o#p#q#                                          ",
"                                            r#s#t#=.u#v#w#x#y#z#A#B#C#D#E#F#G#H#I#                                              ",
"                                          r#J#J#K#K#L#M#N#O#P#Q#R#S#T#U#V#W#X#X#Y#                                              ",
"                                          Z#`#`# $.$.$+$@$#$$$%$&$*$=$-$;$>$,$'$)$!$                                            ",
"                                        ~$`#`#{$]$^$J./$($_$_$:$#$#$<$[$}$|$K#1$1$2$                                            ",
"                                        8.3$4$9.^$t.C K.K.5$L.6$7$:$8$9$9$0$a$b$b$c$                                            ",
"                                      ~${$`.d$8 e$C L.m m # f$L._$g$h$h$h$i$.$`#j$k$                                            ",
"                                      t. +8 8 C f m t M 7.# f$l$6$($L.L. +]$.$`#m$8.                                            ",
"                                    n$o$p$q$r.E#f s+M t r$# # r$D $ t K.h$]$.$d$e${$                                            ",
"                                    s$t t$@#p.v@u$v$t  @w$x$$ $ x$t l$ +W d$^$C C y$                                            ",
"                                    p#M x$5.r 8@z$A$%+B$C$O L+w$D$/$/$L.r./ @ @#~@q$                                            ",
"                                      d.w$E$F$O ~ G$H$R I$J$K$L$M$N$O$P$C.R Q$R$u+&+                                            ",
"                                          :.S$T$U$V$o W$X$Y$Z$`$ %.%+%@%B.#%$%%%&%e$                                            ",
"                                              *%=%-%;%7#;%>%,%'%)%!%)%~%{%]%^%E$M /%                                            ",
"                                                    _.(%3#_%7#;%:%:%:%<%U$3.g@Y                                                 ",
"                                                    [%[%[%    :.}%|%|%1%2%[%3%                                                  ",
"                                                  [%[%                  [%[%[%                                                  ",
"                                                                        [%[%                                                    ",
"                                                                        [%[%                                                    ",
"                                                                          [%                                                    ",
"                                                                          [%                                                    ",
"                                                                                                                                ",
"                                                                                                                                ",
"                                                                                                                                ",
"                                                                                                                                ",
"                                                                                                                                "};
