/* XPM */
static char * player_dash_5_xpm[] = {
"64 64 582 2",
"  	c None",
". 	c #202734",
"+ 	c #232B39",
"@ 	c #222936",
"# 	c #2F394B",
"$ 	c #353F54",
"% 	c #384358",
"& 	c #384459",
"* 	c #374257",
"= 	c #353F53",
"- 	c #313B4E",
"; 	c #2D3748",
"> 	c #293141",
", 	c #2B3445",
"' 	c #2C3647",
") 	c #2E384A",
"! 	c #364155",
"~ 	c #3A465C",
"{ 	c #3B485F",
"] 	c #3B475E",
"^ 	c #39445A",
"/ 	c #354054",
"( 	c #303A4D",
"_ 	c #2C3546",
": 	c #293343",
"< 	c #2D3749",
"[ 	c #323D50",
"} 	c #384359",
"| 	c #3B475D",
"1 	c #3C495F",
"2 	c #3C485F",
"3 	c #3A455B",
"4 	c #364156",
"5 	c #323C4F",
"6 	c #283141",
"7 	c #3C4A61",
"8 	c #38445A",
"9 	c #333E52",
"0 	c #343F54",
"a 	c #3C4960",
"b 	c #374359",
"c 	c #333E53",
"d 	c #2A3344",
"e 	c #252D3C",
"f 	c #2A3343",
"g 	c #2E384B",
"h 	c #323D51",
"i 	c #3D4A61",
"j 	c #404E66",
"k 	c #425069",
"l 	c #414E67",
"m 	c #3C4961",
"n 	c #354055",
"o 	c #2B3547",
"p 	c #222A39",
"q 	c #1B222E",
"r 	c #181E29",
"s 	c #171D28",
"t 	c #191F2A",
"u 	c #1C232F",
"v 	c #1F2633",
"w 	c #212836",
"x 	c #222937",
"y 	c #2C3648",
"z 	c #343F53",
"A 	c #39455B",
"B 	c #3E4B63",
"C 	c #43516B",
"D 	c #475670",
"E 	c #46546F",
"F 	c #3E4B62",
"G 	c #323C4E",
"H 	c #272E3B",
"I 	c #1F242F",
"J 	c #1A1F2A",
"K 	c #181E28",
"L 	c #1A202C",
"M 	c #1E2633",
"N 	c #232B3A",
"O 	c #262F3E",
"P 	c #272F3F",
"Q 	c #262E3D",
"R 	c #3D4A62",
"S 	c #414F67",
"T 	c #424F66",
"U 	c #40495D",
"V 	c #3B4150",
"W 	c #353944",
"X 	c #2E313B",
"Y 	c #272A34",
"Z 	c #212530",
"` 	c #1D232E",
" .	c #1F2634",
"..	c #252E3E",
"+.	c #303A4E",
"@.	c #2F3A4D",
"#.	c #2D3648",
"$.	c #283142",
"%.	c #344055",
"&.	c #364054",
"*.	c #2F3746",
"=.	c #262C38",
"-.	c #222630",
";.	c #232730",
">.	c #242831",
",.	c #242932",
"'.	c #272C38",
").	c #2D3646",
"!.	c #3E4C65",
"~.	c #354155",
"{.	c #272F40",
"].	c #293344",
"^.	c #2A3446",
"/.	c #283143",
"(.	c #1C2330",
"_.	c #1B212C",
":.	c #1F2430",
"<.	c #282D39",
"[.	c #333A47",
"}.	c #3D4658",
"|.	c #445168",
"1.	c #495772",
"2.	c #485773",
"3.	c #435069",
"4.	c #1B222F",
"5.	c #181F2A",
"6.	c #171D29",
"7.	c #171E2A",
"8.	c #191F2C",
"9.	c #222833",
"0.	c #2B313D",
"a.	c #353C4B",
"b.	c #404B60",
"c.	c #4C5A75",
"d.	c #51627F",
"e.	c #4D5D7A",
"f.	c #161C28",
"g.	c #161C27",
"h.	c #181F2B",
"i.	c #1D2330",
"j.	c #4B5B78",
"k.	c #566888",
"l.	c #566787",
"m.	c #323C4D",
"n.	c #1D222B",
"o.	c #101215",
"p.	c #0C0C0C",
"q.	c #151B26",
"r.	c #151A25",
"s.	c #1A202D",
"t.	c #273040",
"u.	c #39465D",
"v.	c #4A5A77",
"w.	c #556787",
"x.	c #576A8A",
"y.	c #4E5F7B",
"z.	c #3C475C",
"A.	c #262D38",
"B.	c #17191D",
"C.	c #111112",
"D.	c #0F0F0F",
"E.	c #0D0D0D",
"F.	c #1B212E",
"G.	c #262F3F",
"H.	c #354156",
"I.	c #42506A",
"J.	c #4B5B77",
"K.	c #4E5E7B",
"L.	c #495873",
"M.	c #3C485D",
"N.	c #2A313E",
"O.	c #1B1E24",
"P.	c #151617",
"Q.	c #131414",
"R.	c #121212",
"S.	c #111111",
"T.	c #212937",
"U.	c #313C4F",
"V.	c #404D66",
"W.	c #3F4C63",
"X.	c #353F51",
"Y.	c #1B1D23",
"Z.	c #161718",
"`.	c #161616",
" +	c #161615",
".+	c #161614",
"++	c #161613",
"@+	c #161612",
"#+	c #131310",
"$+	c #2F394A",
"%+	c #232934",
"&+	c #1C1E20",
"*+	c #20201A",
"=+	c #28281A",
"-+	c #2A2A1A",
";+	c #33331B",
">+	c #46461B",
",+	c #53531A",
"'+	c #4F4F17",
")+	c #3D3D14",
"!+	c #282811",
"~+	c #242C3A",
"{+	c #283040",
"]+	c #1F242D",
"^+	c #1F201C",
"/+	c #343516",
"(+	c #575718",
"_+	c #707019",
":+	c #707018",
"<+	c #5D5D18",
"[+	c #4F4F19",
"}+	c #585819",
"|+	c #6E6E17",
"1+	c #777716",
"2+	c #6A6A14",
"3+	c #4D4D13",
"4+	c #303011",
"5+	c #202835",
"6+	c #222A38",
"7+	c #212835",
"8+	c #181D26",
"9+	c #101216",
"0+	c #13130F",
"a+	c #26260F",
"b+	c #494911",
"c+	c #717112",
"d+	c #898913",
"e+	c #838315",
"f+	c #696917",
"g+	c #545418",
"h+	c #585818",
"i+	c #696918",
"j+	c #6F6F17",
"k+	c #5F5F16",
"l+	c #434314",
"m+	c #1D2430",
"n+	c #151A22",
"o+	c #13161C",
"p+	c #111318",
"q+	c #101114",
"r+	c #141512",
"s+	c #242412",
"t+	c #414112",
"u+	c #626214",
"v+	c #737317",
"w+	c #69691A",
"x+	c #4E4E1B",
"y+	c #39391A",
"z+	c #35351A",
"A+	c #37371A",
"B+	c #313119",
"C+	c #232316",
"D+	c #171712",
"E+	c #10100F",
"F+	c #252C3A",
"G+	c #262D3B",
"H+	c #242A34",
"I+	c #22262D",
"J+	c #242627",
"K+	c #282922",
"L+	c #2C2C20",
"M+	c #29291F",
"N+	c #21211C",
"O+	c #1B1B1A",
"P+	c #181817",
"Q+	c #141414",
"R+	c #131313",
"S+	c #131315",
"T+	c #1E1F23",
"U+	c #27303F",
"V+	c #2A3342",
"W+	c #323B4B",
"X+	c #3A4250",
"Y+	c #454B57",
"Z+	c #50535D",
"`+	c #55575E",
" @	c #4F5054",
".@	c #404043",
"+@	c #2D2D2F",
"@@	c #1F1F20",
"#@	c #1B1B1C",
"$@	c #272729",
"%@	c #393A3E",
"&@	c #484950",
"*@	c #4C4F59",
"=@	c #454A56",
"-@	c #374052",
";@	c #424A5B",
">@	c #4F5664",
",@	c #585C68",
"'@	c #575962",
")@	c #494A51",
"!@	c #36373C",
"~@	c #2A2B2E",
"{@	c #2F2F33",
"]@	c #3F4045",
"^@	c #4E4F57",
"/@	c #50535E",
"(@	c #474D59",
"_@	c #3B4250",
":@	c #242D3C",
"<@	c #333D4F",
"[@	c #3C4557",
"}@	c #485060",
"|@	c #545966",
"1@	c #555964",
"2@	c #4B4E56",
"3@	c #3A3C44",
"4@	c #303238",
"5@	c #36373D",
"6@	c #44464D",
"7@	c #4D505A",
"8@	c #4B505D",
"9@	c #414856",
"0@	c #353D4C",
"a@	c #222B3A",
"b@	c #242E3E",
"c@	c #273142",
"d@	c #2F3A4C",
"e@	c #374153",
"f@	c #414B5D",
"g@	c #4D5566",
"h@	c #535A68",
"i@	c #4F5461",
"j@	c #444853",
"k@	c #3C3F49",
"l@	c #3F434D",
"m@	c #484D5A",
"n@	c #4D5362",
"o@	c #484F5F",
"p@	c #3C4454",
"q@	c #313948",
"r@	c #1F2837",
"s@	c #212A39",
"t@	c #222C3C",
"u@	c #242F40",
"v@	c #273244",
"w@	c #2A3649",
"x@	c #303C4F",
"y@	c #3B4659",
"z@	c #485265",
"A@	c #535B6D",
"B@	c #555C6C",
"C@	c #4F5665",
"D@	c #4B5160",
"E@	c #4E5463",
"F@	c #525968",
"G@	c #434B5A",
"H@	c #363E4E",
"I@	c #2D3544",
"J@	c #1F2838",
"K@	c #212A3A",
"L@	c #232D3E",
"M@	c #253041",
"N@	c #273345",
"O@	c #2A364A",
"P@	c #2E3A4F",
"Q@	c #364256",
"R@	c #424D61",
"S@	c #4F596C",
"T@	c #586072",
"U@	c #5C6373",
"V@	c #5F6371",
"W@	c #5E626E",
"X@	c #575B67",
"Y@	c #494F5C",
"Z@	c #394151",
"`@	c #2F3847",
" #	c #293242",
".#	c #1E2635",
"+#	c #212B3C",
"@#	c #232D3F",
"##	c #253043",
"$#	c #273346",
"%#	c #293549",
"&#	c #2B384D",
"*#	c #323E52",
"=#	c #3C475B",
"-#	c #495366",
";#	c #555D6E",
">#	c #5B6170",
",#	c #5B5F6C",
"'#	c #535764",
")#	c #464C5A",
"!#	c #272F3E",
"~#	c #1C2433",
"{#	c #1D2636",
"]#	c #1F293A",
"^#	c #222C3E",
"/#	c #242F42",
"(#	c #263245",
"_#	c #283449",
":#	c #2A364B",
"<#	c #3F4A5D",
"[#	c #4B5465",
"}#	c #515868",
"|#	c #4C5362",
"1#	c #3F4757",
"2#	c #333C4D",
"3#	c #2B3648",
"4#	c #293345",
"5#	c #1A212E",
"6#	c #1B2433",
"7#	c #1E2738",
"8#	c #202B3D",
"9#	c #232E42",
"0#	c #253146",
"a#	c #273448",
"b#	c #2B374C",
"c#	c #323D52",
"d#	c #3D475A",
"e#	c #485062",
"f#	c #4D5464",
"g#	c #49505F",
"h#	c #3D4555",
"i#	c #313A4C",
"j#	c #273143",
"k#	c #262F40",
"l#	c #242D3D",
"m#	c #191E28",
"n#	c #191E29",
"o#	c #19202E",
"p#	c #1B2332",
"q#	c #1F293B",
"r#	c #222D40",
"s#	c #293346",
"t#	c #343D50",
"u#	c #414859",
"v#	c #494F5E",
"w#	c #474D5B",
"x#	c #3B4252",
"y#	c #2E3747",
"z#	c #252E40",
"A#	c #212A3B",
"B#	c #1F2737",
"C#	c #1C2331",
"D#	c #191F2B",
"E#	c #1A1F29",
"F#	c #1A202A",
"G#	c #1B202B",
"H#	c #1C212C",
"I#	c #1B212B",
"J#	c #191F29",
"K#	c #1C212B",
"L#	c #20252F",
"M#	c #262A33",
"N#	c #21252D",
"O#	c #1A1E25",
"P#	c #15181F",
"Q#	c #14161C",
"R#	c #131519",
"S#	c #131416",
"T#	c #1A202B",
"U#	c #1C222D",
"V#	c #1D232F",
"W#	c #1E2430",
"X#	c #1F2531",
"Y#	c #1F2632",
"Z#	c #202632",
"`#	c #1F2530",
" $	c #1F242E",
".$	c #1E232B",
"+$	c #1D2229",
"@$	c #1D2027",
"#$	c #1C1F25",
"$$	c #1C1F23",
"%$	c #1B1E22",
"&$	c #1B1D20",
"*$	c #1A1C1F",
"=$	c #191A1D",
"-$	c #18191C",
";$	c #1E2531",
">$	c #1F2532",
",$	c #212834",
"'$	c #212734",
")$	c #212733",
"!$	c #202631",
"~$	c #202530",
"{$	c #1E2229",
"]$	c #1D2128",
"^$	c #1C2026",
"/$	c #1C1F24",
"($	c #1A1C21",
"_$	c #181B20",
":$	c #232A38",
"<$	c #232B38",
"[$	c #212936",
"}$	c #222835",
"|$	c #202732",
"1$	c #1E232C",
"2$	c #1D222A",
"3$	c #1D2129",
"4$	c #1C2027",
"5$	c #1B1F26",
"6$	c #181D23",
"7$	c #202735",
"8$	c #232A39",
"9$	c #242C3B",
"0$	c #202733",
"a$	c #1F252F",
"b$	c #1E232D",
"c$	c #1C212A",
"d$	c #1B2028",
"e$	c #191F27",
"f$	c #181E25",
"g$	c #262E3E",
"h$	c #2E394B",
"i$	c #2C3547",
"j$	c #252E3D",
"k$	c #202633",
"l$	c #1B2029",
"m$	c #1A1F28",
"n$	c #191E26",
"o$	c #1F2735",
"p$	c #232C3B",
"q$	c #283243",
"r$	c #364257",
"s$	c #2B3446",
"t$	c #222B39",
"u$	c #1E242F",
"v$	c #1D222D",
"w$	c #1B202A",
"x$	c #212938",
"y$	c #273041",
"z$	c #2E384C",
"A$	c #3E4B64",
"B$	c #3E4C64",
"C$	c #3B4860",
"D$	c #354157",
"E$	c #2F394D",
"F$	c #293243",
"G$	c #1E2530",
"H$	c #1E232E",
"I$	c #1C222C",
"J$	c #1B212D",
"K$	c #212939",
"L$	c #2D384C",
"M$	c #3D4B64",
"N$	c #465571",
"O$	c #4B5B79",
"P$	c #4D5D7C",
"Q$	c #4A5A78",
"R$	c #44536E",
"S$	c #1E2532",
"T$	c #313C51",
"U$	c #3A4760",
"V$	c #455470",
"W$	c #506181",
"X$	c #596C8E",
"Y$	c #5E7295",
"Z$	c #5F7396",
"`$	c #5B6E90",
" %	c #536584",
".%	c #495874",
"+%	c #293241",
"@%	c #12161F",
"#%	c #151A24",
"$%	c #37435A",
"%%	c #42516B",
"&%	c #4C5D7A",
"*%	c #516281",
"=%	c #495975",
"-%	c #404E67",
";%	c #283140",
">%	c #020304",
",%	c #040507",
"'%	c #080A0E",
")%	c #0E1118",
"!%	c #1D2532",
"~%	c #252E3F",
"{%	c #2B3548",
"]%	c #2F3A4E",
"^%	c #313D52",
"/%	c #000000",
"(%	c #010202",
"_%	c #1E2533",
":%	c #202837",
"<%	c #222B3B",
"[%	c #242D3E",
"}%	c #232C3C",
"|%	c #202736",
"1%	c #1C2430",
"                                                                                                                                ",
"                                                                                                                                ",
"                                                                                                                                ",
"                                                                                                                                ",
"                                                                                                                                ",
"                                                                                                                                ",
"                                                                                                                                ",
"                                                                                                                                ",
"                                                                                                                                ",
"                                                                                                                                ",
"                                          . + + @                                                                               ",
"                                      # $ % & * = - ; >                                                                         ",
"                                    , ' ) - ! ~ { ] ^ / ( _                                                                     ",
"                                    : < ( [ / } | 1 2 3 4 5 ; 6                                                                 ",
"                                    7 8 9 ( - 0 & ] a a ] b c # d e                                                             ",
"                                          f g h 4 ~ i j k l m n o p q r s     t u v w x                                         ",
"                                            y ( z A B C D E F G H I J K r L M N O P Q                                           ",
"                                            d ) h 8 R S T U V W X Y Z `  ...y +.@.#.                                            ",
"                                            $.o +.%.b &.*.=.-.;.>.,.'.).! 7 !.a ~.                                              ",
"                                            {.].^./.p (.L L _.:.<.[.}.|.1.2.3.&                                                 ",
"                                              4.5.s 6.7.8.q 9.0.a.b.c.d.e.S -                                                   ",
"                                              f.g.g.f.6.h.i.6 ~ j.k.l.D m.n.o.p.                                                ",
"                                              g.q.r.q.s.t.u.v.w.x.y.z.A.B.C.D.E.                                                ",
"                                              g.g.F.G.H.I.J.K.L.M.N.O.P.Q.R.S.D.E.                                              ",
"                                              T.$.U.~ V.3.W.X.A.Y.Z.`.`. +.+++@+#+                                              ",
"                                            + t.< c 8 % $+%+&+*+=+-+-+;+>+,+'+)+!+                                              ",
"                                        v w ~+6 y < {+]+^+/+(+_+:+<+[+}+|+1+2+3+4+                                              ",
"                                      v 5+6+e e 7+8+9+0+a+b+c+d+e+f+g+h+i+j+k+l+!+                                              ",
"                                      . v m+J n+o+p+q+r+s+t+u+v+w+x+y+z+A+B+C+D+E+                                              ",
"                                            F+G+G+=.H+I+J+K+L+M+N+O+P+`.Q+R+C.S+T+                                              ",
"                                            e U+V+).W+X+Y+Z+`+ @.@+@@@#@$@%@&@*@=@                                              ",
"                                              Q 6 , # -@;@>@,@'@)@!@~@{@]@^@/@(@_@                                              ",
"                                              :@G.].< <@[@}@|@1@2@3@4@5@6@7@8@9@0@                                              ",
"                                              a@b@c@o d@e@f@g@h@i@j@k@l@m@n@o@p@q@                                              ",
"                                            r@s@t@u@v@w@x@y@z@A@B@C@D@E@F@C@G@H@I@                                              ",
"                                            J@K@L@M@N@O@P@Q@R@S@T@U@V@W@X@Y@Z@`@ #                                              ",
"                                          .#J@+#@###$#%#&#*#=#-#;#>#,#'#)#Z@$+, 6 !#                                            ",
"                                          ~#{#]#^#/#(#_#:#P@~.<#[#}#|#1#2#3#4#].$.G.                                            ",
"                                        r h.5#6#7#8#9#0#a#b#c#d#e#f#g#h#i#^.v@j#k#l#                                            ",
"                                      m#n#n#m#r h.o#p#{#q#r#s#t#u#v#w#x#y#z#A#B#C#D#                                            ",
"                                    E#F#G#_.H#H#H#I#F#E#J#J#K#L#M#M#N#O#P#Q#R#S#                                                ",
"                                  T#_.U#` V#V#W#X#Y#Z#Z#`# $.$+$@$#$$$%$&$*$=$-$                                                ",
"                                  ;$Y#v >$>$Y#v . . ,$'$)$!$~$]+.${$]$^$/$Y.($_$                                                ",
"                                v w :$<$:$x T.[$T.T.@ @ }$,$|$~$ $1$2$3$4$5$O#6$                                                ",
"                                7$8$e P 6 t...9$+ 6+x @ }$,$0$!$a$ $b$n.c$d$e$f$                                                ",
"                                M p g$].< h$) i$$.j$N 6+@ w 7+,$. k$;$` H#l$m$n$                                                ",
"                                  o$p$q$g 9 r$r$0 @.s$t.:@N t$6+7+Z#u$v$K#w$E#E#                                                ",
"                                      x$y$z$H.{ A$B$C$D$E$F$9$[$k$G$H$v$I$U#U#J$                                                ",
"                                        K$y$L$D$M$N$O$P$Q$R$a z i$Q x . v S$m+                                                  ",
"                                            l#s#T$U$V$W$X$Y$Z$`$ %.%B 0 < +%Q                                                   ",
"                                            @%#%L s@3#$%%%&% %w.*%=%-%& U.' ;%                                                  ",
"                                            >%,%'%)%#%!%~%{%]%^%c c#]%y $.:@T.                                                  ",
"                                            /%/%(%      _%:%<%l#~%[%}%p |%1%                                                    ",
"                                          /%/%/%                                                                                ",
"                                          /%/%                                                                                  ",
"                                                                                                                                ",
"                                                                                                                                ",
"                                                                                                                                ",
"                                                                                                                                ",
"                                                                                                                                ",
"                                                                                                                                ",
"                                                                                                                                ",
"                                                                                                                                ",
"                                                                                                                                "};
