/* XPM */
static char * player_idle_1_xpm[] = {
"64 64 566 2",
"  	c None",
". 	c #222937",
"+ 	c #2A3344",
"@ 	c #252C3B",
"# 	c #313C50",
"$ 	c #374258",
"% 	c #364257",
"& 	c #3A465C",
"* 	c #374358",
"= 	c #293242",
"- 	c #495875",
"; 	c #283142",
"> 	c #1D2431",
", 	c #38445A",
"' 	c #3B485E",
") 	c #313B4E",
"! 	c #4F607E",
"~ 	c #4A5A75",
"{ 	c #1E2532",
"] 	c #364258",
"^ 	c #3A465D",
"/ 	c #3F4B62",
"( 	c #3D4A60",
"_ 	c #333D51",
": 	c #273040",
"< 	c #343F54",
"[ 	c #374459",
"} 	c #3D4A61",
"| 	c #404D65",
"1 	c #3C4960",
"2 	c #323D51",
"3 	c #2B3445",
"4 	c #3B475E",
"5 	c #3F4C64",
"6 	c #414E66",
"7 	c #39455B",
"8 	c #2F394B",
"9 	c #2B3446",
"0 	c #364156",
"a 	c #3A475D",
"b 	c #3E4A61",
"c 	c #374257",
"d 	c #262F3E",
"e 	c #1F2634",
"f 	c #303A4D",
"g 	c #43516A",
"h 	c #3E4B62",
"i 	c #1C232F",
"j 	c #212937",
"k 	c #303A4E",
"l 	c #44526C",
"m 	c #46556F",
"n 	c #283141",
"o 	c #232B3A",
"p 	c #2A3445",
"q 	c #303B4E",
"r 	c #364359",
"s 	c #3D4A62",
"t 	c #43516B",
"u 	c #4D5D7A",
"v 	c #465570",
"w 	c #212836",
"x 	c #202836",
"y 	c #283243",
"z 	c #303B4F",
"A 	c #37435A",
"B 	c #404D66",
"C 	c #485772",
"D 	c #505F7C",
"E 	c #4E5D7A",
"F 	c #495772",
"G 	c #3E4B63",
"H 	c #2B3547",
"I 	c #202735",
"J 	c #181D27",
"K 	c #181E29",
"L 	c #181E2A",
"M 	c #151A25",
"N 	c #171E29",
"O 	c #1D2432",
"P 	c #232B3B",
"Q 	c #262E3E",
"R 	c #222731",
"S 	c #343740",
"T 	c #434651",
"U 	c #464954",
"V 	c #191E27",
"W 	c #171D28",
"X 	c #181D28",
"Y 	c #191F2B",
"Z 	c #161D28",
"` 	c #131924",
" .	c #151B27",
"..	c #181E2B",
"+.	c #191F2C",
"@.	c #1A212E",
"#.	c #19202D",
"$.	c #191F2A",
"%.	c #1A1E25",
"&.	c #393C45",
"*.	c #373A43",
"=.	c #181C26",
"-.	c #161C27",
";.	c #151B26",
">.	c #121722",
",.	c #171D29",
"'.	c #19202C",
").	c #19202E",
"!.	c #1B1F28",
"~.	c #2D2F38",
"{.	c #3A3D46",
"].	c #161C28",
"^.	c #171C27",
"/.	c #1E2430",
"(.	c #1E2531",
"_.	c #1F2633",
":.	c #1E2633",
"<.	c #33363F",
"[.	c #40434D",
"}.	c #474A54",
"|.	c #3B3E47",
"1.	c #222A39",
"2.	c #273142",
"3.	c #222A38",
"4.	c #1B212C",
"5.	c #202734",
"6.	c #1F2734",
"7.	c #212835",
"8.	c #232B39",
"9.	c #273141",
"0.	c #2E394C",
"a.	c #414F68",
"b.	c #43526C",
"c.	c #465571",
"d.	c #4A5A77",
"e.	c #4A5A76",
"f.	c #46546D",
"g.	c #485771",
"h.	c #4B5B78",
"i.	c #4B5C78",
"j.	c #475672",
"k.	c #414F69",
"l.	c #3A475F",
"m.	c #333E53",
"n.	c #2E384B",
"o.	c #202835",
"p.	c #262E3D",
"q.	c #354055",
"r.	c #3B4860",
"s.	c #414E67",
"t.	c #45536D",
"u.	c #495873",
"v.	c #4E5E7A",
"w.	c #556685",
"x.	c #5A6D8E",
"y.	c #5D7092",
"z.	c #5F7396",
"A.	c #586B8C",
"B.	c #546584",
"C.	c #50617E",
"D.	c #4B5A77",
"E.	c #1E2431",
"F.	c #222938",
"G.	c #262F3F",
"H.	c #2E384A",
"I.	c #313C4F",
"J.	c #3C485E",
"K.	c #384358",
"L.	c #3A465B",
"M.	c #44526A",
"N.	c #4A5975",
"O.	c #516280",
"P.	c #556786",
"Q.	c #516381",
"R.	c #3B475D",
"S.	c #323C4F",
"T.	c #272F3E",
"U.	c #1C222D",
"V.	c #020202",
"W.	c #030303",
"X.	c #050505",
"Y.	c #080808",
"Z.	c #0A0A0A",
"`.	c #0C0C0D",
" +	c #0F0F10",
".+	c #2A2A19",
"++	c #A7A724",
"@+	c #717123",
"#+	c #151514",
"$+	c #151515",
"%+	c #161616",
"&+	c #595922",
"*+	c #C4C423",
"=+	c #42421E",
"-+	c #121212",
";+	c #0D0D0D",
">+	c #040404",
",+	c #060606",
"'+	c #090909",
")+	c #0C0C0C",
"!+	c #0F0F0F",
"~+	c #848428",
"{+	c #FEFE04",
"]+	c #DBDB24",
"^+	c #21211A",
"/+	c #181818",
"(+	c #A5A529",
"_+	c #FFFF01",
":+	c #8B8B29",
"<+	c #0E0E0E",
"[+	c #040507",
"}+	c #040405",
"|+	c #888828",
"1+	c #FFFF02",
"2+	c #DDDD24",
"3+	c #22221A",
"4+	c #999929",
"5+	c #FEFE05",
"6+	c #7E7E27",
"7+	c #0D0E0E",
"8+	c #262D3B",
"9+	c #262C38",
"0+	c #23272F",
"a+	c #131418",
"b+	c #111111",
"c+	c #32321A",
"d+	c #B6B625",
"e+	c #7E7E26",
"f+	c #181817",
"g+	c #171717",
"h+	c #37371D",
"i+	c #8F8F24",
"j+	c #2E2E22",
"k+	c #37373D",
"l+	c #383E4B",
"m+	c #242A34",
"n+	c #27303F",
"o+	c #2A3343",
"p+	c #2D3748",
"q+	c #333D4F",
"r+	c #3F4656",
"s+	c #494E5A",
"t+	c #5F5F64",
"u+	c #7D7878",
"v+	c #736F71",
"w+	c #3B3C41",
"x+	c #18181A",
"y+	c #636268",
"z+	c #827E80",
"A+	c #454B5A",
"B+	c #323B4C",
"C+	c #242B3A",
"D+	c #283140",
"E+	c #384256",
"F+	c #3E485B",
"G+	c #7A7981",
"H+	c #969191",
"I+	c #585C6A",
"J+	c #28292F",
"K+	c #141414",
"L+	c #373A44",
"M+	c #7F7D81",
"N+	c #737177",
"O+	c #323D4F",
"P+	c #2C3545",
"Q+	c #293243",
"R+	c #2C3648",
"S+	c #2F3A4D",
"T+	c #343F53",
"U+	c #394457",
"V+	c #505666",
"W+	c #989293",
"X+	c #75757C",
"Y+	c #353B49",
"Z+	c #424753",
"`+	c #89878C",
" @	c #5D5F6A",
".@	c #303A4C",
"+@	c #272F3D",
"@@	c #1D2532",
"#@	c #242D3C",
"$@	c #2C3647",
"%@	c #364155",
"&@	c #384357",
"*@	c #84838B",
"=@	c #898993",
"-@	c #3F4859",
";@	c #13161B",
">@	c #0F1014",
",@	c #575B68",
"'@	c #898D9E",
")@	c #4D5362",
"!@	c #2E3849",
"~@	c #252C3A",
"{@	c #1E2533",
"]@	c #212B3A",
"^@	c #242E3E",
"/@	c #293345",
"(@	c #2D374B",
"_@	c #303C4F",
":@	c #333F52",
"<@	c #333F53",
"[@	c #636876",
"}@	c #9A9CAA",
"|@	c #656B7C",
"1@	c #2C3442",
"2@	c #727684",
"3@	c #838899",
"4@	c #343D4F",
"5@	c #2D3648",
"6@	c #293141",
"7@	c #202937",
"8@	c #212A3A",
"9@	c #222C3D",
"0@	c #242F40",
"a@	c #273346",
"b@	c #2C384C",
"c@	c #2D3B4F",
"d@	c #303D51",
"e@	c #9094A6",
"f@	c #868B9D",
"g@	c #3B4455",
"h@	c #3F424D",
"i@	c #918F96",
"j@	c #676974",
"k@	c #2E3A4C",
"l@	c #222833",
"m@	c #1C2330",
"n@	c #212B3C",
"o@	c #232E3F",
"p@	c #253143",
"q@	c #283448",
"r@	c #2C394D",
"s@	c #2E3B50",
"t@	c #2F3C51",
"u@	c #717688",
"v@	c #9499AC",
"w@	c #4E5464",
"x@	c #5A595F",
"y@	c #918C8E",
"z@	c #343C4F",
"A@	c #2D394C",
"B@	c #252B39",
"C@	c #1D2535",
"D@	c #202A3B",
"E@	c #242F41",
"F@	c #263144",
"G@	c #2A374B",
"H@	c #2B384E",
"I@	c #2D3A4F",
"J@	c #434C5E",
"K@	c #888C9E",
"L@	c #6A6D7A",
"M@	c #343B4A",
"N@	c #66656C",
"O@	c #293448",
"P@	c #2C384B",
"Q@	c #2B3648",
"R@	c #1E2636",
"S@	c #1F293A",
"T@	c #212B3D",
"U@	c #232D40",
"V@	c #273448",
"W@	c #28354A",
"X@	c #2B384C",
"Y@	c #2C394E",
"Z@	c #7A7C8B",
"`@	c #7D7E8A",
" #	c #384355",
".#	c #202939",
"+#	c #263246",
"@#	c #2A3549",
"##	c #2A3548",
"$#	c #283244",
"%#	c #202632",
"&#	c #131822",
"*#	c #1A222F",
"=#	c #1D2636",
"-#	c #1F293B",
";#	c #212C3F",
">#	c #232F44",
",#	c #253146",
"'#	c #283449",
")#	c #29364B",
"!#	c #2A364C",
"~#	c #2A364B",
"{#	c #636674",
"]#	c #87858E",
"^#	c #484F5F",
"/#	c #232E43",
"(#	c #273246",
"_#	c #263145",
":#	c #242E3F",
"<#	c #212939",
"[#	c #1A1F29",
"}#	c #11151D",
"|#	c #151923",
"1#	c #17202F",
"2#	c #1C2638",
"3#	c #1F2A3D",
"4#	c #212C41",
"5#	c #222E43",
"6#	c #242F45",
"7#	c #474D5D",
"8#	c #7C7A83",
"9#	c #5A5D6A",
"0#	c #192233",
"a#	c #1C2536",
"b#	c #161B24",
"c#	c #111419",
"d#	c #181D25",
"e#	c #1A1F28",
"f#	c #1B1F27",
"g#	c #191C24",
"h#	c #161A1F",
"i#	c #15191F",
"j#	c #151A22",
"k#	c #161B25",
"l#	c #1D232E",
"m#	c #31323A",
"n#	c #262930",
"o#	c #16181F",
"p#	c #15171B",
"q#	c #181A1E",
"r#	c #1A1C20",
"s#	c #1B1D22",
"t#	c #14171C",
"u#	c #191F28",
"v#	c #1A2029",
"w#	c #1A2028",
"x#	c #1B2028",
"y#	c #1B2129",
"z#	c #1C2128",
"A#	c #1C2228",
"B#	c #1D2228",
"C#	c #1D2227",
"D#	c #1D2127",
"E#	c #1D2126",
"F#	c #1C2026",
"G#	c #1B1F25",
"H#	c #1A1F26",
"I#	c #171B22",
"J#	c #1B202A",
"K#	c #1C212B",
"L#	c #1C212C",
"M#	c #1D232D",
"N#	c #1E242F",
"O#	c #1F2530",
"P#	c #202631",
"Q#	c #202530",
"R#	c #1F242D",
"S#	c #1F232C",
"T#	c #1E232B",
"U#	c #1E222A",
"V#	c #1D222A",
"W#	c #1D2129",
"X#	c #1C2129",
"Y#	c #1A2027",
"Z#	c #191F27",
"`#	c #1B202B",
" $	c #212734",
".$	c #212834",
"+$	c #212733",
"@$	c #1F242F",
"#$	c #1E232D",
"$$	c #1E232C",
"%$	c #1C222B",
"&$	c #1B2029",
"*$	c #14181F",
"=$	c #1B212B",
"-$	c #1C222C",
";$	c #1D222E",
">$	c #1F2531",
",$	c #222935",
"'$	c #222835",
")$	c #202733",
"!$	c #181D26",
"~$	c #191E28",
"{$	c #1D2430",
"]$	c #202634",
"^$	c #222936",
"/$	c #1C212A",
"($	c #1D232F",
"_$	c #1D222D",
":$	c #232A38",
"<$	c #222A37",
"[$	c #212938",
"}$	c #1F2632",
"|$	c #232A37",
"1$	c #1A202B",
"2$	c #293241",
"3$	c #2C3546",
"4$	c #2D3749",
"5$	c #2A3446",
"6$	c #252D3D",
"7$	c #1F2532",
"8$	c #202633",
"9$	c #2E3748",
"0$	c #2B3444",
"a$	c #242C3B",
"b$	c #38455A",
"c$	c #425069",
"d$	c #475774",
"e$	c #465673",
"f$	c #475773",
"g$	c #506180",
"h$	c #566889",
"i$	c #5B6E91",
"j$	c #485773",
"k$	c #39465B",
"l$	c #323D50",
"m$	c #2D3647",
"n$	c #252D3B",
"o$	c #131821",
"p$	c #232C3B",
"q$	c #242C3D",
"r$	c #273041",
"s$	c #2F3A4E",
"t$	c #414E68",
"u$	c #45546E",
"v$	c #4C5C79",
"w$	c #536485",
"x$	c #5D7095",
"y$	c #62789E",
"z$	c #697FA6",
"A$	c #6F86AE",
"B$	c #6E84AC",
"C$	c #697EA5",
"D$	c #576989",
"E$	c #39465C",
"F$	c #1B2330",
"G$	c #222A3A",
"H$	c #252F40",
"I$	c #2D384C",
"J$	c #495976",
"K$	c #4F6181",
"L$	c #546788",
"M$	c #596B8D",
"N$	c #596B8C",
"O$	c #536483",
"P$	c #465671",
"Q$	c #37445A",
"R$	c #2B3649",
"S$	c #263042",
"T$	c #252E3F",
"U$	c #1F2735",
"V$	c #141922",
"W$	c #070910",
"X$	c #1C2433",
"Y$	c #232C3D",
"Z$	c #273144",
"`$	c #283245",
" %	c #273244",
".%	c #283246",
"+%	c #293346",
"@%	c #232C3C",
"#%	c #1E2634",
"$%	c #151B25",
"%%	c #040509",
"&%	c #0E131C",
"*%	c #181F2B",
"=%	c #1D2433",
"-%	c #1F2737",
";%	c #1E2635",
">%	c #19212E",
",%	c #000000",
"                                                                                                                                ",
"                                                                                                                                ",
"                                                                                                                                ",
"                                                                                                                                ",
"                                                                                                                                ",
"                                                                                                                                ",
"                                                                                                                                ",
"                                                  . + @                                                                         ",
"                                                # $ % & * =                                                                     ",
"                                                - ; > , ' ' )                                                                   ",
"                                                ! ~ { ] ^ / ( _                                                                 ",
"                                                    : < [ } | 1 2                                                               ",
"                                                    3 2 % 4 5 6 7 8                                                             ",
"                                                    9 ) 0 a b | ^ c d                                                           ",
"                                                  e + f 0 ^ } g h $ ) i                                                         ",
"                                                  j + k $ } | l m 5 2 n                                                         ",
"                                                  o p q r s t ~ u v , 9 w                                                       ",
"                                                  x y z A B C D E F G H I J                                                     ",
"                                                K L M N O P Q R S T U V W L X                                                   ",
"                                                Y Z `  ...+.@.#.$.%.&.*.=.-.K X                                                 ",
"                                              Y L ;.>.` ,.'.#.#.).!.~.{.;.].-.^.                                                ",
"                                        /.(._.w w :.'.L -.-...W <.[.}.|.1.2.y ; Q 3._./.4.                                      ",
"                                  /.5.6.5.7.8.9.0.] s a.b.c.d.e.g f.g.h.i.j.k.l.m.n.p = = .                                     ",
"                                    (.o.8.p.= n.q.r.s.t.u.v.w.x.y.z.z.y.A.B.C.D.g a q : /.                                      ",
"                                          E.F.G.H.n.I.J.K.L.M.N.O.P.Q.e.g R.S.T.U.W                                             ",
"                                              V.W.X.Y.Z.`. +.+++@+#+$+%+&+*+=+-+;+                                              ",
"                                              V.>+,+'+)+!+-+~+{+]+^+/+/+(+_+:+-+<+                                              ",
"                                              [+}+,+'+)+!+-+|+1+2+3+/+/+4+5+6+-+7+                                              ",
"                                            w T.8+9+0+a+7+b+c+d+e+f+g+g+h+i+j+k+l+m+                                            ",
"                                            { n+o+p+q+r+s+t+u+v+w+$+%+%+x+y+z+A+B+                                              ",
"                                              C+D+p H.I.E+F+G+H+I+J+K+K+L+M+N+O+P+                                              ",
"                                              6.d Q+R+S+T+U+V+W+X+Y+-+b+Z+`+ @.@+@                                              ",
"                                              @@#@; $@0.# %@&@*@=@-@;@>@,@'@)@!@~@                                              ",
"                                              {@]@^@/@(@_@:@<@[@}@|@1@#.2@3@4@5@6@                                              ",
"                                              7@8@9@0@a@b@c@d@&@e@f@g@h@i@j@k@p+= l@                                            ",
"                                            m@8@n@o@p@q@r@c@s@t@u@v@w@x@y@z@A@R+= B@                                            ",
"                                            C@D@9@E@F@q@G@H@I@s@J@K@L@M@N@O@P@Q@+ :                                             ",
"                                          -.R@S@T@U@F@V@W@X@Y@Y@d@Z@`@ #.#+#@###$#; %#                                          ",
"                                          &#*#=#-#;#>#,#'#)#!#~#I@{#]#^#G./#(#_#:#<#[#                                          ",
"                                            }#|# .1#2#3#4#5#6#,#'#7#8#9#9.0#a#).b#c#                                            ",
"                                            d#e#f#g#h#i#j#k#^.,.L l#m#n#o#p#q#r#s#t#                                            ",
"                                            u#v#w#x#y#z#A#B#B#B#C#D#D#D#E#F#F#G#H#I#                                            ",
"                                          V J#J#J#K#L#M#N#O#P#Q#R#S#T#U#V#W#X#x#Y#Z#                                            ",
"                                          [#J#`#L#l#/.%#5. $.$+$%#P#@$#$$$$$%$J#&$x#*$                                          ",
"                                          J#=$-$;$/.>$5.I 7.,$'$.$)$Q#@$O#/.-$K#J#K#!$                                          ",
"                                        ~$4.U.l#{${ ]$w w . . ^$.$+$%# $7.O#U./$K#/.[#                                          ",
"                                        U.($(${$_.I w 3.F.3.^$7.7.. 1.3.)$/._$K#E.{ 4.                                          ",
"                                        ^$:$<$7.e I j [$3.3.3.8.o P 1.7.}$/.l#E.5.3.|$                                          ",
"                                      1$C+T.2$3$H.4$5$6$1.3.1.1.F.w _.7$8$o R+H.9$0$T.                                          ",
"                                      i x a$o+.@T+b$s c$b.c.d$e$f$u g$h$i$h$j$k$l$m$n$                                          ",
"                                      o$> p$q$r$s$7 t$u$j$v$w$x$y$z$A$B$C$D$j$E$R+p$6.                                          ",
"                                          &#F$G$H$$#/@I$] k.J$K$L$M$N$O$P$Q$R$S$T$U$V$                                          ",
"                                                W$X$Y$Z$`$$# %Z$ %$#$#`$.%+%@%#%$%                                              ",
"                                                      %%&%*%=%#%-%8@.#;%>%`                                                     ",
"                                                      ,%,%            ,%,%,%                                                    ",
"                                                      ,%,%            ,%,%                                                      ",
"                                                      ,%,%            ,%,%                                                      ",
"                                                      ,%,%            ,%,%                                                      ",
"                                                      ,%,%            ,%                                                        ",
"                                                                                                                                ",
"                                                                                                                                ",
"                                                                                                                                ",
"                                                                                                                                ",
"                                                                                                                                "};
