/* XPM */
static char * player_walk_0_xpm[] = {
"64 64 579 2",
"  	c None",
". 	c #212936",
"+ 	c #2A3343",
"@ 	c #252D3C",
"# 	c #303B4F",
"$ 	c #374358",
"% 	c #364257",
"& 	c #3A465C",
"* 	c #293242",
"= 	c #495975",
"- 	c #293344",
"; 	c #1C2330",
"> 	c #38445A",
", 	c #3B485E",
"' 	c #313C4F",
") 	c #4F607D",
"! 	c #4B5B77",
"~ 	c #1D2330",
"{ 	c #364258",
"] 	c #3F4B62",
"^ 	c #3D4A60",
"/ 	c #333D51",
"( 	c #272F3F",
"_ 	c #343F54",
": 	c #374459",
"< 	c #3D4A61",
"[ 	c #404D65",
"} 	c #3C4960",
"| 	c #2A3445",
"1 	c #323D51",
"2 	c #3B475E",
"3 	c #3F4C64",
"4 	c #414E66",
"5 	c #39455B",
"6 	c #2F394C",
"7 	c #2B3446",
"8 	c #313B4E",
"9 	c #364156",
"0 	c #3A475D",
"a 	c #3E4A61",
"b 	c #3A465D",
"c 	c #374257",
"d 	c #262F3F",
"e 	c #1F2633",
"f 	c #2A3344",
"g 	c #303A4D",
"h 	c #43516A",
"i 	c #3E4B62",
"j 	c #374258",
"k 	c #313B4F",
"l 	c #1C232F",
"m 	c #212937",
"n 	c #303A4E",
"o 	c #44526C",
"p 	c #46556F",
"q 	c #283141",
"r 	c #232B3A",
"s 	c #303B4E",
"t 	c #364359",
"u 	c #3D4A62",
"v 	c #43516B",
"w 	c #4A5A75",
"x 	c #4D5D7A",
"y 	c #465570",
"z 	c #212836",
"A 	c #202836",
"B 	c #283243",
"C 	c #37435A",
"D 	c #404D66",
"E 	c #485772",
"F 	c #505F7C",
"G 	c #4E5E7A",
"H 	c #495873",
"I 	c #3E4C64",
"J 	c #2B3548",
"K 	c #202835",
"L 	c #181D27",
"M 	c #181E29",
"N 	c #181E2A",
"O 	c #151A25",
"P 	c #171E29",
"Q 	c #1D2432",
"R 	c #232B3B",
"S 	c #262E3E",
"T 	c #232731",
"U 	c #343740",
"V 	c #434651",
"W 	c #464954",
"X 	c #191D27",
"Y 	c #161D28",
"Z 	c #191F2B",
"` 	c #131924",
" .	c #151B27",
"..	c #181E2B",
"+.	c #191F2C",
"@.	c #1A212E",
"#.	c #19202D",
"$.	c #191F2A",
"%.	c #1A1E26",
"&.	c #393C46",
"*.	c #373A44",
"=.	c #181D26",
"-.	c #161C27",
";.	c #151B26",
">.	c #121722",
",.	c #171D29",
"'.	c #19202C",
").	c #19202E",
"!.	c #1B1F28",
"~.	c #2D3038",
"{.	c #3A3D46",
"].	c #161C28",
"^.	c #171C26",
"/.	c #1E2430",
"(.	c #1E2531",
"_.	c #1F2634",
":.	c #1A202D",
"<.	c #181F2B",
"[.	c #171D28",
"}.	c #33363F",
"|.	c #40434D",
"1.	c #474954",
"2.	c #3B3E47",
"3.	c #212939",
"4.	c #273041",
"5.	c #283143",
"6.	c #283142",
"7.	c #222A38",
"8.	c #1D2430",
"9.	c #202734",
"0.	c #1F2734",
"a.	c #212835",
"b.	c #232B39",
"c.	c #273141",
"d.	c #2E394C",
"e.	c #414F68",
"f.	c #43526C",
"g.	c #475671",
"h.	c #4A5A77",
"i.	c #44516A",
"j.	c #46546D",
"k.	c #485771",
"l.	c #4B5C78",
"m.	c #475672",
"n.	c #414F69",
"o.	c #3A475E",
"p.	c #333E53",
"q.	c #2E384A",
"r.	c #222937",
"s.	c #262E3D",
"t.	c #293243",
"u.	c #2E384B",
"v.	c #354055",
"w.	c #3B4860",
"x.	c #414E67",
"y.	c #45536D",
"z.	c #4E5E79",
"A.	c #556685",
"B.	c #5A6D8E",
"C.	c #5D7092",
"D.	c #5F7396",
"E.	c #586B8C",
"F.	c #546584",
"G.	c #50617E",
"H.	c #4B5A76",
"I.	c #1E2532",
"J.	c #2D3749",
"K.	c #374357",
"L.	c #3A465B",
"M.	c #4A5974",
"N.	c #516280",
"O.	c #556786",
"P.	c #516381",
"Q.	c #4A5A76",
"R.	c #43526B",
"S.	c #3C485E",
"T.	c #323D50",
"U.	c #27303F",
"V.	c #1D232F",
"W.	c #020202",
"X.	c #030303",
"Y.	c #050505",
"Z.	c #080808",
"`.	c #0A0A0A",
" +	c #0C0C0C",
".+	c #0F0F10",
"++	c #2A2A18",
"@+	c #A7A724",
"#+	c #717123",
"$+	c #151514",
"%+	c #151515",
"&+	c #161616",
"*+	c #595922",
"=+	c #C4C423",
"-+	c #42421E",
";+	c #121212",
">+	c #0D0D0D",
",+	c #040404",
"'+	c #060606",
")+	c #090909",
"!+	c #0F0F0F",
"~+	c #848428",
"{+	c #FEFE04",
"]+	c #DBDB24",
"^+	c #21211A",
"/+	c #181818",
"(+	c #A5A529",
"_+	c #FFFF01",
":+	c #8B8B29",
"<+	c #0E0E0E",
"[+	c #040507",
"}+	c #040405",
"|+	c #888828",
"1+	c #FFFF02",
"2+	c #DDDD24",
"3+	c #22221A",
"4+	c #999929",
"5+	c #FEFE05",
"6+	c #7E7E27",
"7+	c #0D0E0E",
"8+	c #272F3E",
"9+	c #262E3C",
"0+	c #262C39",
"a+	c #242831",
"b+	c #141619",
"c+	c #111111",
"d+	c #32321A",
"e+	c #B6B625",
"f+	c #7E7E26",
"g+	c #181817",
"h+	c #171717",
"i+	c #37371D",
"j+	c #8F8F24",
"k+	c #2F2F23",
"l+	c #38393F",
"m+	c #383E4C",
"n+	c #242A35",
"o+	c #2D3748",
"p+	c #333D4F",
"q+	c #3F4656",
"r+	c #4A4F5B",
"s+	c #605F65",
"t+	c #7E7979",
"u+	c #747172",
"v+	c #3D3D42",
"w+	c #18191A",
"x+	c #646369",
"y+	c #827F81",
"z+	c #444B5A",
"A+	c #323B4C",
"B+	c #242B3A",
"C+	c #283140",
"D+	c #384256",
"E+	c #3E485B",
"F+	c #7A7980",
"G+	c #969192",
"H+	c #585C6A",
"I+	c #282A30",
"J+	c #141414",
"K+	c #373B44",
"L+	c #807D81",
"M+	c #737177",
"N+	c #323D4F",
"O+	c #2C3545",
"P+	c #262F3E",
"Q+	c #2C3648",
"R+	c #2F3A4D",
"S+	c #343F53",
"T+	c #394457",
"U+	c #4F5565",
"V+	c #979293",
"W+	c #75757D",
"X+	c #353B49",
"Y+	c #434753",
"Z+	c #89878C",
"`+	c #5C5F6A",
" @	c #303A4C",
".@	c #272F3D",
"+@	c #1D2532",
"@@	c #242D3C",
"#@	c #2C3647",
"$@	c #313C50",
"%@	c #364155",
"&@	c #384357",
"*@	c #83828B",
"=@	c #8A8A93",
"-@	c #3F485A",
";@	c #12151A",
">@	c #0E1014",
",@	c #585C69",
"'@	c #898D9E",
")@	c #4D5261",
"!@	c #2E3849",
"~@	c #252C3A",
"{@	c #1E2533",
"]@	c #212B3A",
"^@	c #242E3E",
"/@	c #293345",
"(@	c #2D374B",
"_@	c #303C4F",
":@	c #333F52",
"<@	c #333F53",
"[@	c #636775",
"}@	c #9A9CAA",
"|@	c #666C7D",
"1@	c #2D3543",
"2@	c #737684",
"3@	c #838798",
"4@	c #343D4F",
"5@	c #2D3648",
"6@	c #2A3141",
"7@	c #202937",
"8@	c #212A3A",
"9@	c #222C3D",
"0@	c #242F40",
"a@	c #273346",
"b@	c #2C384C",
"c@	c #2D3B4F",
"d@	c #303D51",
"e@	c #384356",
"f@	c #8F94A6",
"g@	c #878C9E",
"h@	c #3B4455",
"i@	c #41434D",
"j@	c #918F96",
"k@	c #656873",
"l@	c #2E3A4C",
"m@	c #222833",
"n@	c #1B2330",
"o@	c #212B3C",
"p@	c #232E3F",
"q@	c #253143",
"r@	c #283448",
"s@	c #2C394D",
"t@	c #2E3B50",
"u@	c #2F3C51",
"v@	c #707587",
"w@	c #9499AC",
"x@	c #4E5464",
"y@	c #5A595E",
"z@	c #918C8E",
"A@	c #343C4E",
"B@	c #2D394C",
"C@	c #252B38",
"D@	c #1D2635",
"E@	c #202A3B",
"F@	c #242F41",
"G@	c #263144",
"H@	c #283447",
"I@	c #29374B",
"J@	c #2B384E",
"K@	c #2D3A4F",
"L@	c #424B5D",
"M@	c #888C9D",
"N@	c #6A6D7B",
"O@	c #343B4A",
"P@	c #64636A",
"Q@	c #293448",
"R@	c #2C384B",
"S@	c #2B3648",
"T@	c #273040",
"U@	c #1E2636",
"V@	c #1F293A",
"W@	c #212B3D",
"X@	c #232D40",
"Y@	c #273448",
"Z@	c #28354A",
"`@	c #2B384D",
" #	c #2C394E",
".#	c #7A7C8A",
"+#	c #7E7E8B",
"@#	c #394355",
"##	c #1F2839",
"$#	c #263246",
"%#	c #2A3549",
"&#	c #2A3548",
"*#	c #283244",
"=#	c #202632",
"-#	c #131822",
";#	c #1A212F",
">#	c #1D2636",
",#	c #1F293B",
"'#	c #212C3F",
")#	c #232F44",
"!#	c #253146",
"~#	c #283449",
"{#	c #29364B",
"]#	c #2A364C",
"^#	c #2A364B",
"/#	c #636673",
"(#	c #87858E",
"_#	c #484F5F",
":#	c #262F40",
"<#	c #232E43",
"[#	c #273246",
"}#	c #242D3F",
"|#	c #212938",
"1#	c #1A1F29",
"2#	c #12161D",
"3#	c #151922",
"4#	c #171F2F",
"5#	c #1C2537",
"6#	c #1F2A3D",
"7#	c #212C40",
"8#	c #222E43",
"9#	c #232F45",
"0#	c #273348",
"a#	c #464C5C",
"b#	c #7B7982",
"c#	c #5A5C69",
"d#	c #192132",
"e#	c #1B2435",
"f#	c #161B23",
"g#	c #111318",
"h#	c #1A1F28",
"i#	c #1B1F27",
"j#	c #191D24",
"k#	c #161A20",
"l#	c #15191F",
"m#	c #151A22",
"n#	c #161B24",
"o#	c #1C222D",
"p#	c #2E3037",
"q#	c #25272E",
"r#	c #15181E",
"s#	c #16181C",
"t#	c #181A1E",
"u#	c #1A1C21",
"v#	c #1B1D22",
"w#	c #14171C",
"x#	c #191F28",
"y#	c #1A2029",
"z#	c #1A2028",
"A#	c #1B2028",
"B#	c #1B2129",
"C#	c #1C2128",
"D#	c #1C2228",
"E#	c #1D2228",
"F#	c #1D2227",
"G#	c #1D2127",
"H#	c #1D2126",
"I#	c #1C2026",
"J#	c #1B1F25",
"K#	c #1A1F26",
"L#	c #171B22",
"M#	c #191E27",
"N#	c #1B202A",
"O#	c #1C212B",
"P#	c #1C212C",
"Q#	c #1D232D",
"R#	c #1E242F",
"S#	c #1F2530",
"T#	c #202631",
"U#	c #202530",
"V#	c #1F242D",
"W#	c #1F232C",
"X#	c #1E232B",
"Y#	c #1E222A",
"Z#	c #1D222A",
"`#	c #1D2129",
" $	c #1C2129",
".$	c #1A2027",
"+$	c #1B202B",
"@$	c #1D232E",
"#$	c #212734",
"$$	c #212834",
"%$	c #212733",
"&$	c #1F242F",
"*$	c #1E232D",
"=$	c #1E232C",
"-$	c #1C222B",
";$	c #1B2029",
">$	c #1B212B",
",$	c #1C222C",
"'$	c #1D222E",
")$	c #1F2531",
"!$	c #202735",
"~$	c #222935",
"{$	c #222835",
"]$	c #202733",
"^$	c #1B212C",
"/$	c #202634",
"($	c #222936",
"_$	c #1C212A",
":$	c #1C232E",
"<$	c #212837",
"[$	c #222938",
"}$	c #222A39",
"|$	c #1D222D",
"1$	c #1E2431",
"2$	c #242B39",
"3$	c #232A38",
"4$	c #1F2632",
"5$	c #222A37",
"6$	c #1A202B",
"7$	c #2F394B",
"8$	c #2E394B",
"9$	c #1F2532",
"0$	c #202633",
"a$	c #242C3B",
"b$	c #2D374A",
"c$	c #2B3444",
"d$	c #232C3B",
"e$	c #303B4D",
"f$	c #344054",
"g$	c #38455A",
"h$	c #42506A",
"i$	c #44536D",
"j$	c #475673",
"k$	c #495977",
"l$	c #485876",
"m$	c #4A5976",
"n$	c #4F5F7D",
"o$	c #526383",
"p$	c #586A8C",
"q$	c #5C6F92",
"r$	c #566989",
"s$	c #475772",
"t$	c #333D50",
"u$	c #2D3647",
"v$	c #252D3B",
"w$	c #131720",
"x$	c #1C2331",
"y$	c #232C3C",
"z$	c #242D3D",
"A$	c #263041",
"B$	c #2F394D",
"C$	c #38455B",
"D$	c #45546F",
"E$	c #495874",
"F$	c #4C5D7A",
"G$	c #536586",
"H$	c #5D7196",
"I$	c #63789E",
"J$	c #697FA6",
"K$	c #7086AE",
"L$	c #6E85AC",
"M$	c #697EA5",
"N$	c #566889",
"O$	c #121720",
"P$	c #1B222F",
"Q$	c #212A39",
"R$	c #252E40",
"S$	c #293245",
"T$	c #2C374A",
"U$	c #354056",
"V$	c #3F4E67",
"W$	c #475774",
"X$	c #4E5F7E",
"Y$	c #576A8B",
"Z$	c #576989",
"`$	c #506180",
" %	c #44536E",
".%	c #354258",
"+%	c #263042",
"@%	c #242E3F",
"#%	c #1E2634",
"$%	c #11161E",
"%%	c #000000",
"&%	c #030508",
"*%	c #1B2230",
"=%	c #222B3C",
"-%	c #273143",
";%	c #283245",
">%	c #273244",
",%	c #273144",
"'%	c #283346",
")%	c #293346",
"!%	c #222B3B",
"~%	c #1D2533",
"{%	c #0E131B",
"]%	c #020203",
"^%	c #141B26",
"/%	c #1C2432",
"(%	c #1E2736",
"_%	c #202939",
":%	c #202938",
"<%	c #1F2837",
"[%	c #1D2534",
"                                                                                                                                ",
"                                                                                                                                ",
"                                                                                                                                ",
"                                                                                                                                ",
"                                                                                                                                ",
"                                                                                                                                ",
"                                                                                                                                ",
"                                                  . + @                                                                         ",
"                                                # $ % & $ *                                                                     ",
"                                                = - ; > , , '                                                                   ",
"                                                ) ! ~ { & ] ^ /                                                                 ",
"                                                    ( _ : < [ } /                                                               ",
"                                                    | 1 % 2 3 4 5 6                                                             ",
"                                                    7 8 9 0 a [ b c d                                                           ",
"                                                  e f g 9 b < h i j k l                                                         ",
"                                                  m f n j < [ o p 3 1 q                                                         ",
"                                                  r | s t u v w x y > 7 z                                                       ",
"                                                  A B # C D E F G H I J K L                                                     ",
"                                                M N O P Q R S T U V W X Y N L                                                   ",
"                                                Z Y `  ...+.@.#.$.%.&.*.=.-.M L                                                 ",
"                                              Z N ;.>.` ,.'.#.#.).!.~.{.;.].-.^.                                                ",
"                                        /.(.e z m _.:.<.-.-...[.}.|.1.2.3.4.5.6.S 7.e 8.                                        ",
"                                  /.9.0.9.a.b.c.d.{ u e.f.g.! h.i.j.k.! l.m.n.o.p.q.| * * r.                                    ",
"                                    (.K b.s.t.u.v.w.x.y.H z.A.B.C.D.D.C.E.F.G.H.h o.8 q I.                                      ",
"                                          8.r.S J.q.8 , K.L.i.M.N.O.P.Q.R.S.T.U.V.N                                             ",
"                                              W.X.Y.Z.`. +.+++@+#+$+%+&+*+=+-+;+>+                                              ",
"                                              W.,+'+)+ +!+;+~+{+]+^+/+/+(+_+:+;+<+                                              ",
"                                              [+}+'+)+ +!+;+|+1+2+3+/+/+4+5+6+;+7+                                              ",
"                                            z 8+9+0+a+b+7+c+d+e+f+g+h+h+i+j+k+l+m+n+                                            ",
"                                            I.U.+ o+p+q+r+s+t+u+v+%+&+&+w+x+y+z+A+                                              ",
"                                              B+C+| q.' D+E+F+G+H+I+J+J+K+L+M+N+O+                                              ",
"                                              0.P+t.Q+R+S+T+U+V+W+X+;+c+Y+Z+`+ @.@                                              ",
"                                              +@@@6.#@d.$@%@&@*@=@-@;@>@,@'@)@!@~@                                              ",
"                                              {@]@^@/@(@_@:@<@[@}@|@1@@.2@3@4@5@6@                                              ",
"                                              7@8@9@0@a@b@c@d@e@f@g@h@i@j@k@l@o+* m@                                            ",
"                                            n@8@o@p@q@r@s@c@t@u@v@w@x@y@z@A@B@Q+* C@                                            ",
"                                            D@E@9@F@G@H@I@J@K@t@L@M@N@O@P@Q@R@S@f T@                                            ",
"                                          -.U@V@W@X@G@Y@Z@`@ # #d@.#+#@###$#%#&#*#6.=#                                          ",
"                                          -#;#>#,#'#)#!#~#{#]#^#K@/#(#_#:#<#[#G@}#|#1#                                          ",
"                                            2#3# .4#5#6#7#8#9#!#0#a#b#c#c.d#e##.f#g#                                            ",
"                                            =.h#i#j#k#l#m#n#^.[.N o#p#q#r#s#t#u#v#w#                                            ",
"                                            x#y#z#A#B#C#D#E#E#E#F#G#G#G#H#I#I#J#K#L#                                            ",
"                                          M#N#N#N#O#P#Q#R#S#T#U#V#W#X#Y#Z#`# $A#.$M#                                            ",
"                                          1#N#+$P#@$/.=#9.#$$$%$=#T#&$*$=$=$-$N#;$A#                                            ",
"                                          N#>$,$'$/.)$9.!$a.~${$$$]$U#&$S#/.,$O#N#O#^.                                          ",
"                                        x#^$o#@$8.I./$z z r.r.($$$%$=##$a.S#o#_$O#/.1#                                          ",
"                                        :$V.V.8.e !$<$7.[$7.($a.a.r.}$7.]$/.|$O#1$I.^$                                          ",
"                                        r.2$3$z 0.!$m |#7.7.7.b.r R }$a.4$/.@$(.!$7.5$                                          ",
"                                      6$B+8+* #@7$8$Q+d }$7.7.7.[$A e 9$0$a$b$u.!@c$.@                                          ",
"                                      l A d$+ e$f$g$i h$i$j$k$l$m$n$o$p$q$r$s$5 t$u$v$                                          ",
"                                      w$x$y$z$A$B$C$x.D$E$F$G$H$I$J$K$L$M$N$s$C$Q+R _.                                          ",
"                                          O$P$Q$R$*#S$T$U$V$W$X$G$Y$Z$`$ %.%&#+%@%#%$%                                          ",
"                                              %%&%*%=%-%;%*#>%,%,%*#;%;%'%)%!%~%{%]%%%                                          ",
"                                            %%%%%%      ^%#./%~%(%_%:%<%[%<.    %%%%%%                                          ",
"                                            %%%%                                  %%%%                                          ",
"                                            %%%%                                  %%%%                                          ",
"                                          %%%%                                      %%                                          ",
"                                          %%                                        %%                                          ",
"                                                                                                                                ",
"                                                                                                                                ",
"                                                                                                                                ",
"                                                                                                                                ",
"                                                                                                                                ",
"                                                                                                                                "};
