/* XPM */
static char * player_dash_2_xpm[] = {
"64 64 585 2",
"  	c None",
". 	c #28303F",
"+ 	c #293141",
"@ 	c #293140",
"# 	c #283040",
"$ 	c #323C50",
"% 	c #2F384A",
"& 	c #333E51",
"* 	c #353F53",
"= 	c #323D50",
"- 	c #2A3343",
"; 	c #232B39",
"> 	c #344054",
", 	c #283141",
"' 	c #2D3749",
") 	c #354054",
"! 	c #39455B",
"~ 	c #3A465C",
"{ 	c #384459",
"] 	c #303A4C",
"^ 	c #2A3243",
"/ 	c #313B4F",
"( 	c #354156",
"_ 	c #333E52",
": 	c #38445A",
"< 	c #3B475E",
"[ 	c #3C4960",
"} 	c #3C485F",
"| 	c #2C3546",
"1 	c #252E3D",
"2 	c #3D4A62",
"3 	c #283142",
"4 	c #252D3D",
"5 	c #303B4E",
"6 	c #354055",
"7 	c #3E4A62",
"8 	c #39455A",
"9 	c #323D51",
"0 	c #2C3647",
"a 	c #262E3E",
"b 	c #364257",
"c 	c #3A475D",
"d 	c #3D4961",
"e 	c #3F4C64",
"f 	c #3D4A61",
"g 	c #2C3648",
"h 	c #2A3344",
"i 	c #2F394C",
"j 	c #344055",
"k 	c #414E67",
"l 	c #44536D",
"m 	c #45546E",
"n 	c #343F54",
"o 	c #293243",
"p 	c #1C222F",
"q 	c #171D27",
"r 	c #273040",
"s 	c #3E4B63",
"t 	c #44526C",
"u 	c #4A5A75",
"v 	c #4B5A76",
"w 	c #414E66",
"x 	c #343D4E",
"y 	c #232935",
"z 	c #191E28",
"A 	c #181D28",
"B 	c #171D28",
"C 	c #2B3547",
"D 	c #313C51",
"E 	c #37435A",
"F 	c #45536D",
"G 	c #485671",
"H 	c #384255",
"I 	c #363B48",
"J 	c #30343E",
"K 	c #232730",
"L 	c #232731",
"M 	c #161C28",
"N 	c #151B26",
"O 	c #1A212D",
"P 	c #222938",
"Q 	c #242B3A",
"R 	c #252D3C",
"S 	c #262E3D",
"T 	c #1C222E",
"U 	c #242D3C",
"V 	c #293244",
"W 	c #2D384B",
"X 	c #323D52",
"Y 	c #232936",
"Z 	c #272B35",
"` 	c #262A35",
" .	c #23272F",
"..	c #2F323B",
"+.	c #242831",
"@.	c #1D222D",
"#.	c #232C3B",
"$.	c #2E374A",
"%.	c #2E384A",
"&.	c #2B3445",
"*.	c #1F2632",
"=.	c #212937",
"-.	c #222A39",
";.	c #212938",
">.	c #1F2735",
",.	c #1C2330",
"'.	c #191F2B",
").	c #1B212C",
"!.	c #1A202B",
"~.	c #22262F",
"{.	c #2D3039",
"].	c #343742",
"^.	c #364359",
"/.	c #3D4B63",
"(.	c #2E3749",
"_.	c #1D232F",
":.	c #181E2A",
"<.	c #151B27",
"[.	c #171D29",
"}.	c #181F2B",
"|.	c #19202D",
"1.	c #19202C",
"2.	c #1B202A",
"3.	c #31353E",
"4.	c #3E434E",
"5.	c #394357",
"6.	c #4A5976",
"7.	c #4C5D7A",
"8.	c #4D5D7A",
"9.	c #495874",
"0.	c #3B485E",
"a.	c #27303F",
"b.	c #181E29",
"c.	c #141A25",
"d.	c #141924",
"e.	c #1A212E",
"f.	c #222937",
"g.	c #373F4F",
"h.	c #424C60",
"i.	c #4D5C78",
"j.	c #576A8A",
"k.	c #596C8D",
"l.	c #556786",
"m.	c #2C3545",
"n.	c #151920",
"o.	c #1E2634",
"p.	c #283243",
"q.	c #374359",
"r.	c #46556F",
"s.	c #50607D",
"t.	c #586A8A",
"u.	c #5D7092",
"v.	c #5B6E8F",
"w.	c #2E3849",
"x.	c #181B21",
"y.	c #0F1011",
"z.	c #0C0C0C",
"A.	c #1B212D",
"B.	c #1B222E",
"C.	c #1D2431",
"D.	c #3A475E",
"E.	c #4C5C78",
"F.	c #4F607D",
"G.	c #526381",
"H.	c #50617E",
"I.	c #2D3645",
"J.	c #191B21",
"K.	c #141415",
"L.	c #131313",
"M.	c #121211",
"N.	c #0F0F0E",
"O.	c #0B0B0B",
"P.	c #1D2430",
"Q.	c #1F2633",
"R.	c #232B3A",
"S.	c #2A3446",
"T.	c #424F68",
"U.	c #404C63",
"V.	c #384458",
"W.	c #323C4D",
"X.	c #2A2F35",
"Y.	c #1D1F1E",
"Z.	c #161616",
"`.	c #2B2B18",
" +	c #303015",
".+	c #161611",
"++	c #1E2532",
"@+	c #202734",
"#+	c #232A39",
"$+	c #374358",
"%+	c #374257",
"&+	c #313A4D",
"*+	c #2A3242",
"=+	c #191D25",
"-+	c #1A1C20",
";+	c #52521F",
">+	c #606018",
",+	c #323219",
"'+	c #191918",
")+	c #171717",
"!+	c #40401D",
"~+	c #8B8B1A",
"{+	c #606015",
"]+	c #1F1F13",
"^+	c #0E0E0D",
"/+	c #272F3F",
"(+	c #121419",
"_+	c #0E0F10",
":+	c #121212",
"<+	c #55551D",
"[+	c #B9B916",
"}+	c #9E9E14",
"|+	c #48481B",
"1+	c #1A1A18",
"2+	c #23231A",
"3+	c #85851D",
"4+	c #BEBE12",
"5+	c #797918",
"6+	c #1F1F14",
"7+	c #0E0E0E",
"8+	c #1E2531",
"9+	c #1F2532",
"0+	c #141921",
"a+	c #0E1116",
"b+	c #0A0B0D",
"c+	c #0B0B0C",
"d+	c #0D0D0D",
"e+	c #0F0F0F",
"f+	c #1E1E14",
"g+	c #7D7D18",
"h+	c #CDCD0E",
"i+	c #B2B217",
"j+	c #41411D",
"k+	c #181818",
"l+	c #2E2E1A",
"m+	c #838318",
"n+	c #B4B415",
"o+	c #5F5F1D",
"p+	c #131312",
"q+	c #151A23",
"r+	c #181D26",
"s+	c #181C24",
"t+	c #171A21",
"u+	c #16181D",
"v+	c #15161A",
"w+	c #141517",
"x+	c #242418",
"y+	c #686819",
"z+	c #A7A718",
"A+	c #767524",
"B+	c #1B1B19",
"C+	c #262618",
"D+	c #5A5A18",
"E+	c #60601D",
"F+	c #1B1B15",
"G+	c #141414",
"H+	c #17181B",
"I+	c #242B39",
"J+	c #262D3B",
"K+	c #272E3C",
"L+	c #272D3A",
"M+	c #262B35",
"N+	c #272B32",
"O+	c #323434",
"P+	c #55553B",
"Q+	c #636142",
"R+	c #323230",
"S+	c #1B1C1D",
"T+	c #161617",
"U+	c #1A1A16",
"V+	c #222217",
"W+	c #1E1F1F",
"X+	c #383839",
"Y+	c #3B3C41",
"Z+	c #323846",
"`+	c #252D3B",
" @	c #283140",
".@	c #2B3545",
"+@	c #2E3848",
"@@	c #323B4B",
"#@	c #3A4150",
"$@	c #494E5A",
"%@	c #65656A",
"&@	c #68676A",
"*@	c #46474C",
"=@	c #25262A",
"-@	c #1F2023",
";@	c #5B5B61",
">@	c #6E6C71",
",@	c #414856",
"'@	c #262F3E",
")@	c #323C4F",
"!@	c #394355",
"~@	c #485060",
"{@	c #646772",
"]@	c #72727A",
"^@	c #5A5C63",
"/@	c #2D2F36",
"(@	c #161719",
"_@	c #131314",
":@	c #42444C",
"<@	c #7A797E",
"[@	c #60636E",
"}@	c #343D4F",
"|@	c #29313F",
"1@	c #202936",
"2@	c #283242",
"3@	c #2F3A4D",
"4@	c #343F52",
"5@	c #3D4759",
"6@	c #555B6A",
"7@	c #71737C",
"8@	c #636671",
"9@	c #383C46",
"0@	c #555761",
"a@	c #7A7B86",
"b@	c #4D5464",
"c@	c #252C3A",
"d@	c #202836",
"e@	c #232C3C",
"f@	c #263041",
"g@	c #293446",
"h@	c #303C50",
"i@	c #354154",
"j@	c #475061",
"k@	c #676C7A",
"l@	c #6D7280",
"m@	c #4B505E",
"n@	c #23272E",
"o@	c #252A34",
"p@	c #6A6E7C",
"q@	c #767B8B",
"r@	c #3C4556",
"s@	c #202938",
"t@	c #222B3C",
"u@	c #242E3F",
"v@	c #263144",
"w@	c #2A3649",
"x@	c #2D3A4E",
"y@	c #303D51",
"z@	c #3C475A",
"A@	c #5B6374",
"B@	c #71788A",
"C@	c #5D6373",
"D@	c #313742",
"E@	c #434855",
"F@	c #848692",
"G@	c #606471",
"H@	c #2F394B",
"I@	c #272F3E",
"J@	c #1D2534",
"K@	c #212A3A",
"L@	c #222C3D",
"M@	c #242F40",
"N@	c #293549",
"O@	c #2C394D",
"P@	c #2D3B4F",
"Q@	c #4C566A",
"R@	c #6C7487",
"S@	c #676D7F",
"T@	c #444A59",
"U@	c #66676F",
"V@	c #77767D",
"W@	c #394152",
"X@	c #2D384A",
"Y@	c #242B38",
"Z@	c #191F2C",
"`@	c #1E2737",
" #	c #202A3B",
".#	c #222C3E",
"+#	c #242F41",
"@#	c #263245",
"##	c #2A374C",
"$#	c #2C394E",
"%#	c #2F3C50",
"&#	c #3F4A5F",
"*#	c #5E677A",
"=#	c #666C7C",
"-#	c #585C69",
";#	c #5D5E66",
">#	c #484C58",
",#	c #2A3549",
"'#	c #2B3649",
")#	c #252D3A",
"!#	c #1F2839",
"~#	c #212B3D",
"{#	c #232E41",
"]#	c #253145",
"^#	c #273448",
"/#	c #29354B",
"(#	c #2B384D",
"_#	c #4C5568",
":#	c #696E7D",
"<#	c #5C606E",
"[#	c #444A56",
"}#	c #273142",
"|#	c #273246",
"1#	c #2A3548",
"2#	c #1B2332",
"3#	c #1D2636",
"4#	c #1F2A3B",
"5#	c #222D40",
"6#	c #243044",
"7#	c #273347",
"8#	c #283549",
"9#	c #29354A",
"0#	c #2D394E",
"a#	c #454E60",
"b#	c #646877",
"c#	c #5F6370",
"d#	c #3C4352",
"e#	c #252F40",
"f#	c #242F42",
"g#	c #273245",
"h#	c #263043",
"i#	c #242D3E",
"j#	c #202735",
"k#	c #171C26",
"l#	c #181F29",
"m#	c #1A212F",
"n#	c #1B2432",
"o#	c #1F293A",
"p#	c #202B3C",
"q#	c #222C3F",
"r#	c #253042",
"s#	c #575A66",
"t#	c #575964",
"u#	c #333A48",
"v#	c #1D2433",
"w#	c #1C2534",
"x#	c #1E2635",
"y#	c #1D2330",
"z#	c #1A1F29",
"A#	c #191F29",
"B#	c #1A1F2A",
"C#	c #1A202C",
"D#	c #1A212C",
"E#	c #1B222D",
"F#	c #1C232E",
"G#	c #272C36",
"H#	c #383941",
"I#	c #2E3139",
"J#	c #1B1F27",
"K#	c #15181F",
"L#	c #171B22",
"M#	c #171A20",
"N#	c #17191D",
"O#	c #131518",
"P#	c #1B202B",
"Q#	c #1C222D",
"R#	c #1D232E",
"S#	c #1E242F",
"T#	c #1E232E",
"U#	c #1E232D",
"V#	c #1D222B",
"W#	c #1C2128",
"X#	c #1E2228",
"Y#	c #1E2127",
"Z#	c #1B1F24",
"`#	c #1A1D21",
" $	c #1A1D20",
".$	c #191A1E",
"+$	c #14161A",
"@$	c #1E2431",
"#$	c #202733",
"$$	c #212733",
"%$	c #202732",
"&$	c #1F2530",
"*$	c #1F242D",
"=$	c #1E232C",
"-$	c #1E222A",
";$	c #1D2128",
">$	c #1D2027",
",$	c #1C2025",
"'$	c #1B1E24",
")$	c #191C22",
"!$	c #15181E",
"~$	c #1E2430",
"{$	c #202835",
"]$	c #212835",
"^$	c #222835",
"/$	c #212834",
"($	c #202631",
"_$	c #1F252F",
":$	c #1E222B",
"<$	c #1D222A",
"[$	c #1D2129",
"}$	c #1B2027",
"|$	c #1A1F26",
"1$	c #191E24",
"2$	c #151A20",
"3$	c #222936",
"4$	c #232A38",
"5$	c #222A37",
"6$	c #212836",
"7$	c #212837",
"8$	c #1F242F",
"9$	c #1F242E",
"0$	c #1C222B",
"a$	c #1B2029",
"b$	c #1A2028",
"c$	c #191E26",
"d$	c #161A22",
"e$	c #181E28",
"f$	c #242C3B",
"g$	c #222A38",
"h$	c #212734",
"i$	c #202632",
"j$	c #1C222C",
"k$	c #1A1F28",
"l$	c #181C26",
"m$	c #252E3E",
"n$	c #262F3F",
"o$	c #1C212C",
"p$	c #1B212A",
"q$	c #333F54",
"r$	c #374258",
"s$	c #303A4E",
"t$	c #1F2531",
"u$	c #1C232F",
"v$	c #202937",
"w$	c #252F3F",
"x$	c #2E394C",
"y$	c #364158",
"z$	c #3B4860",
"A$	c #3F4D66",
"B$	c #42516C",
"C$	c #43526D",
"D$	c #41506B",
"E$	c #3D4B64",
"F$	c #343F53",
"G$	c #2C3547",
"H$	c #2B3548",
"I$	c #4B5B79",
"J$	c #516283",
"K$	c #546788",
"L$	c #566889",
"M$	c #566787",
"N$	c #526382",
"O$	c #3A465D",
"P$	c #313C4F",
"Q$	c #293241",
"R$	c #212A39",
"S$	c #262F40",
"T$	c #313D52",
"U$	c #3B4861",
"V$	c #445470",
"W$	c #4E5F7D",
"X$	c #57698A",
"Y$	c #5B6E90",
"Z$	c #5C7092",
"`$	c #56698A",
" %	c #4A5A77",
".%	c #3F4C65",
"+%	c #354155",
"@%	c #293242",
"#%	c #171E29",
"$%	c #2B3648",
"%%	c #323E54",
"&%	c #39465D",
"*%	c #3E4C65",
"=%	c #404E68",
"-%	c #3D4A63",
";%	c #38455C",
">%	c #323E52",
",%	c #2C3649",
"'%	c #05070A",
")%	c #090C11",
"!%	c #10141C",
"~%	c #161C26",
"{%	c #242D3D",
"]%	c #273143",
"^%	c #283244",
"/%	c #222A3A",
"(%	c #1E2533",
"_%	c #19202B",
":%	c #000000",
"<%	c #000001",
"[%	c #010102",
"}%	c #030305",
"|%	c #050609",
"1%	c #080A0E",
"2%	c #0E1219",
"3%	c #1D2532",
"4%	c #161B25",
"                                                                                                                                ",
"                                                                                                                                ",
"                                                                                                                                ",
"                                                                                                                                ",
"                                                                                                                                ",
"                                                                                                                                ",
"                                                                                                                                ",
"                                                                                                                                ",
"                                                                                                                                ",
"                                            . + @                                                                               ",
"                                        # $ % & * = % -                                                                         ",
"                                      ; > , ' ) ! ~ { ) ] ^                                                                     ",
"                                      / > ( # _ : < [ } { = | 1                                                                 ",
"                                        2 3 4 5 6 ! } 7 } 8 9 0 a                                                               ",
"                                            a ' = b c d e f c 6 g 4                                                             ",
"                                              h i j ! 2 k l m 2 n o p q                                                         ",
"                                              r ' _ ! s t u v w x y z A q B                                                     ",
"                                              a C D E 2 F G H I J K L A M N O P ; Q R S T                                       ",
"                                              U V W X ( $ Y Z `  ...+.@.M #.g $.%.%.&.*.                                        ",
"                                              =.-.;.>.,.'.).O !.~.{.].; ^.2 /.2 ! (._.                                          ",
"                                              '.:.<.<.[.}.|.1.2.3.4.5.6.7.8.9.0.a.                                              ",
"                                              b.M c.d.<.}.e.f.g.h.i.j.k.l.F m.n.                                                ",
"                                              :.M c.M o.p.q.r.s.t.u.v.u w.x.y.z.                                                ",
"                                            A.B.C.#.i D.t E.F.G.H.F I.J.K.L.M.N.O.                                              ",
"                                          P.Q.R.S.j /.T.F U.V.W.X.Y.Z.Z.Z.`. +.+z.                                              ",
"                                        ++@+#+3 5 $+%+&+*+=+-+;+>+,+'+)+!+~+{+]+^+                                              ",
"                                    P.Q.@+=.R # /+f.n.(+_+:+<+[+}+|+1+2+3+4+5+6+7+                                              ",
"                                    8+9+Q.@+P.0+a+b+c+d+e+f+g+h+i+j+k+l+m+n+o+p+d+                                              ",
"                                            q+r+s+t+u+v+w+x+y+z+A+B+)+C+D+E+F+G+H+                                              ",
"                                            @+I+J+K+L+M+N+O+P+Q+R+S+T+U+V+W+X+Y+Z+                                              ",
"                                              `+ @.@+@@@#@$@%@&@*@=@T+G+-@;@>@,@I.                                              ",
"                                              ; '@h ' )@!@~@{@]@^@/@(@_@:@<@[@}@|@                                              ",
"                                              1@1 2@g 3@4@5@6@7@8@9@-+-+0@a@b@w.c@                                              ",
"                                              d@e@f@g@W h@i@j@k@l@m@n@o@p@q@r@&.J+                                              ",
"                                            ,.s@t@u@v@w@x@y@z@A@B@C@D@E@F@G@H@&.I@                                              ",
"                                            J@K@L@M@v@N@O@P@j Q@R@S@T@U@V@W@X@.@a.Y@                                            ",
"                                          Z@`@ #.#+#@#N@##$#%#&#*#=#-#;#>#,#'#S. @)#                                            ",
"                                          e.J@!#~#{#]#^#/#(#$#j _#:#<#[#}#|#1#g@}#R                                             ",
"                                          :.O 2#3#4#5#6#7#8#9#0#a#b#c#d#e#f#g#h#i#j#                                            ",
"                                        k#z b.l#Z@m#n#3#o#p#q#r#g.s#t#u#v#w#x#y#z#n.                                            ",
"                                        z#2.z#z#z#A#B#!.C#D#E#F#G#H#I#J#K#L#M#N#O#                                              ",
"                                      A#2.P#).Q#Q#R#S#S#T#U#V#W#X#Y#Z#`#`# $-+.$+$                                              ",
"                                    z Q#Q#Q#T _.@$*.#$#$$$%$&$*$=$-$;$>$,$Z#'$)$!$                                              ",
"                                    ~$9+@$~$@$++Q.j#{$]$^$/$#$($_$U#:$<$[$}$|$1$2$                                              ",
"                                  _.3$4$5$=.d@d@6$=.7$f.3$^$/$%$&$8$9$U#0$a$b$c$d$                                              ",
"                                e$Q.#+1 r , r 1 f$-.g$f.3$]$]$h$#$#$i$S#j$2.a$k$l$                                              ",
"                                  C.=.m$h %.3@3@' h n$f$; g$g$P f.]$*.T#o$p$P#).z                                               ",
"                                    ++-.}#W q$: ! r$q$s$g 3 m$R.f.#$t$R#j$@.@$u$                                                ",
"                                      C.v$w$x$y$z$A$B$C$D$E$! F$] G$+ R ; 4$=.#$                                                ",
"                                          ++n$H$X D.B$I$J$K$L$M$N$8.t O$P$| Q$`+                                                ",
"                                              R$S$H$T$U$V$W$X$Y$Z$`$ %.%+%H@@%4$                                                ",
"                                                  #%B.#.$%%%&%*%=%-%;%>%,%, ; T                                                 ",
"                                                  '%)%!%~%C#o.{%]%^%f@/%;.(%_%                                                  ",
"                                                :%<%[%}%|%1%2%b.3%,.4%~%                                                        ",
"                                                :%:%:%:%<%                                                                      ",
"                                                :%:%:%                                                                          ",
"                                                :%:%                                                                            ",
"                                                :%:%                                                                            ",
"                                                                                                                                ",
"                                                                                                                                ",
"                                                                                                                                ",
"                                                                                                                                ",
"                                                                                                                                ",
"                                                                                                                                "};
