/* XPM */
static char * player_idle_2_xpm[] = {
"64 64 577 2",
"  	c None",
". 	c #242B3A",
"+ 	c #2A3344",
"@ 	c #242C3B",
"# 	c #333F53",
"$ 	c #364156",
"% 	c #374257",
"& 	c #3A465C",
"* 	c #374358",
"= 	c #283141",
"- 	c #485874",
"; 	c #262F3F",
"> 	c #212937",
", 	c #38445A",
"' 	c #3C485E",
") 	c #3B475E",
"! 	c #303B4D",
"~ 	c #516280",
"{ 	c #475771",
"] 	c #374258",
"^ 	c #3A465D",
"/ 	c #3F4C63",
"( 	c #3D4960",
"_ 	c #323D50",
": 	c #283142",
"< 	c #354054",
"[ 	c #3D4A61",
"} 	c #404D65",
"| 	c #3C495F",
"1 	c #2C3547",
"2 	c #323D51",
"3 	c #3B485E",
"4 	c #3F4D64",
"5 	c #39455B",
"6 	c #2E384A",
"7 	c #2B3546",
"8 	c #313B4F",
"9 	c #364257",
"0 	c #3E4A62",
"a 	c #404E65",
"b 	c #252E3D",
"c 	c #202734",
"d 	c #2A3345",
"e 	c #303B4E",
"f 	c #3A475D",
"g 	c #43516A",
"h 	c #3D4A62",
"i 	c #1C222E",
"j 	c #303A4E",
"k 	c #45536C",
"l 	c #475670",
"m 	c #3F4C64",
"n 	c #242B3B",
"o 	c #2A3445",
"p 	c #303B4F",
"q 	c #374359",
"r 	c #43526B",
"s 	c #4B5A76",
"t 	c #4D5D7A",
"u 	c #46556F",
"v 	c #2A3446",
"w 	c #212836",
"x 	c #212837",
"y 	c #283243",
"z 	c #37445A",
"A 	c #404E66",
"B 	c #495772",
"C 	c #4F5F7C",
"D 	c #4D5D78",
"E 	c #485771",
"F 	c #1F2634",
"G 	c #181D27",
"H 	c #181E29",
"I 	c #151B26",
"J 	c #181E2A",
"K 	c #1D2533",
"L 	c #232C3B",
"M 	c #262E3E",
"N 	c #222630",
"O 	c #353740",
"P 	c #444651",
"Q 	c #464954",
"R 	c #191D27",
"S 	c #161D28",
"T 	c #181D28",
"U 	c #191F2B",
"V 	c #131924",
"W 	c #151B27",
"X 	c #181E2B",
"Y 	c #191F2C",
"Z 	c #1A212E",
"` 	c #19202D",
" .	c #191F2A",
"..	c #1A1E25",
"+.	c #383B45",
"@.	c #373A43",
"#.	c #171C26",
"$.	c #161C27",
"%.	c #121722",
"&.	c #171D29",
"*.	c #19202C",
"=.	c #19202E",
"-.	c #1B1E27",
";.	c #2C2F37",
">.	c #3A3C46",
",.	c #161C28",
"'.	c #161B26",
").	c #1D2430",
"!.	c #1E2431",
"~.	c #1F2632",
"{.	c #202735",
"].	c #1F2734",
"^.	c #1D2431",
"/.	c #181F2B",
"(.	c #171D28",
"_.	c #33363F",
":.	c #40434E",
"<.	c #474A54",
"[.	c #3A3D47",
"}.	c #232B3B",
"|.	c #283244",
"1.	c #293345",
"2.	c #293244",
"3.	c #272F3F",
"4.	c #232B39",
"5.	c #1E2531",
"6.	c #1D232E",
"7.	c #212835",
"8.	c #232A38",
"9.	c #273040",
"0.	c #2E384B",
"a.	c #3C4961",
"b.	c #404E67",
"c.	c #42516B",
"d.	c #455470",
"e.	c #4A5976",
"f.	c #4A5A76",
"g.	c #435169",
"h.	c #46546D",
"i.	c #485772",
"j.	c #4B5B78",
"k.	c #4C5C79",
"l.	c #475772",
"m.	c #42506A",
"n.	c #3B4860",
"o.	c #343F54",
"p.	c #2F394C",
"q.	c #2A3243",
"r.	c #2A3343",
"s.	c #222937",
"t.	c #212936",
"u.	c #232A39",
"v.	c #252D3C",
"w.	c #3B485F",
"x.	c #414E67",
"y.	c #45536D",
"z.	c #495872",
"A.	c #4E5E7A",
"B.	c #556685",
"C.	c #5A6D8E",
"D.	c #5D7092",
"E.	c #5F7396",
"F.	c #5D7093",
"G.	c #596B8C",
"H.	c #546584",
"I.	c #51617F",
"J.	c #4B5B77",
"K.	c #303A4D",
"L.	c #1C232F",
"M.	c #1B212C",
"N.	c #45536B",
"O.	c #4B5A75",
"P.	c #556787",
"Q.	c #526381",
"R.	c #4A5975",
"S.	c #252C3B",
"T.	c #1A1F2A",
"U.	c #020202",
"V.	c #030303",
"W.	c #050505",
"X.	c #070707",
"Y.	c #0B0B0C",
"Z.	c #0C0C0D",
"`.	c #0F1011",
" +	c #2A2B1A",
".+	c #A7A724",
"++	c #717123",
"@+	c #151515",
"#+	c #161616",
"$+	c #595922",
"%+	c #C4C423",
"&+	c #42421E",
"*+	c #121212",
"=+	c #0D0D0D",
"-+	c #040404",
";+	c #060606",
">+	c #090909",
",+	c #0C0C0C",
"'+	c #0F0F0F",
")+	c #848428",
"!+	c #FEFE04",
"~+	c #DBDB24",
"{+	c #21211A",
"]+	c #181818",
"^+	c #A5A529",
"/+	c #FFFF01",
"(+	c #8B8B29",
"_+	c #0E0E0E",
":+	c #040406",
"<+	c #888828",
"[+	c #FFFF02",
"}+	c #DDDD24",
"|+	c #22221A",
"1+	c #999929",
"2+	c #FEFE05",
"3+	c #7E7E27",
"4+	c #111212",
"5+	c #0D0D0E",
"6+	c #202835",
"7+	c #262E3D",
"8+	c #252C3A",
"9+	c #252A37",
"0+	c #20242C",
"a+	c #111214",
"b+	c #111111",
"c+	c #32321A",
"d+	c #B6B625",
"e+	c #7E7E26",
"f+	c #181817",
"g+	c #171717",
"h+	c #37371D",
"i+	c #8F8F24",
"j+	c #2C2B1E",
"k+	c #333439",
"l+	c #373D4A",
"m+	c #242934",
"n+	c #1E2532",
"o+	c #283040",
"p+	c #2D3748",
"q+	c #343E4F",
"r+	c #3F4656",
"s+	c #484C58",
"t+	c #5F5E64",
"u+	c #7B7676",
"v+	c #706D6E",
"w+	c #39393E",
"x+	c #171718",
"y+	c #606065",
"z+	c #807D7F",
"A+	c #464C5B",
"B+	c #323C4D",
"C+	c #283140",
"D+	c #323C4F",
"E+	c #384256",
"F+	c #3F495C",
"G+	c #7C7B82",
"H+	c #969091",
"I+	c #575C69",
"J+	c #26282E",
"K+	c #141414",
"L+	c #363A43",
"M+	c #7F7C80",
"N+	c #747278",
"O+	c #333D4F",
"P+	c #2D3645",
"Q+	c #272F3E",
"R+	c #293343",
"S+	c #2C3648",
"T+	c #2F3A4D",
"U+	c #353F53",
"V+	c #3A4457",
"W+	c #515767",
"X+	c #989393",
"Y+	c #74747B",
"Z+	c #353B48",
"`+	c #424653",
" @	c #89878C",
".@	c #5E606A",
"+@	c #303B4C",
"@@	c #27303E",
"#@	c #1D2532",
"$@	c #242D3C",
"%@	c #283242",
"&@	c #2C3647",
"*@	c #2E394C",
"=@	c #313C50",
"-@	c #364155",
";@	c #384357",
">@	c #85848C",
",@	c #888891",
"'@	c #3E4758",
")@	c #121419",
"!@	c #0E1013",
"~@	c #565A67",
"{@	c #8A8D9D",
"]@	c #4E5462",
"^@	c #252C39",
"/@	c #1E2533",
"(@	c #222B3A",
"_@	c #252E3F",
":@	c #293445",
"<@	c #2D384B",
"[@	c #303C50",
"}@	c #334054",
"|@	c #666A78",
"1@	c #9A9CAA",
"2@	c #63697A",
"3@	c #2B3341",
"4@	c #717482",
"5@	c #84899A",
"6@	c #353E50",
"7@	c #2D3648",
"8@	c #293140",
"9@	c #202837",
"0@	c #212A3A",
"a@	c #222C3D",
"b@	c #242F40",
"c@	c #273346",
"d@	c #2C384C",
"e@	c #2E3B50",
"f@	c #303D52",
"g@	c #3A4558",
"h@	c #9195A7",
"i@	c #858A9C",
"j@	c #3A4354",
"k@	c #3C3F4A",
"l@	c #908F96",
"m@	c #696C77",
"n@	c #2F3A4C",
"o@	c #293242",
"p@	c #212732",
"q@	c #1B222F",
"r@	c #212B3B",
"s@	c #232E3F",
"t@	c #253043",
"u@	c #283448",
"v@	c #2C394D",
"w@	c #2D3B4F",
"x@	c #2F3C51",
"y@	c #73798A",
"z@	c #9498AB",
"A@	c #4C5363",
"B@	c #5C5A60",
"C@	c #928D8F",
"D@	c #363D4F",
"E@	c #2D394C",
"F@	c #242B38",
"G@	c #1D2534",
"H@	c #202A3A",
"I@	c #242F41",
"J@	c #263144",
"K@	c #2A374B",
"L@	c #2B394E",
"M@	c #2D3A4F",
"N@	c #464F60",
"O@	c #8A8EA0",
"P@	c #686B79",
"Q@	c #353C4A",
"R@	c #6B6970",
"S@	c #293448",
"T@	c #2C384B",
"U@	c #2B3648",
"V@	c #27303F",
"W@	c #1E2636",
"X@	c #1F293A",
"Y@	c #212B3D",
"Z@	c #232E40",
"`@	c #273448",
" #	c #28354A",
".#	c #2B384D",
"+#	c #2C394E",
"@#	c #2C3A4E",
"##	c #303D51",
"$#	c #7B7D8C",
"%#	c #7C7D8A",
"&#	c #384355",
"*#	c #263246",
"=#	c #2B3549",
"-#	c #2A3548",
";#	c #283245",
">#	c #202632",
",#	c #131923",
"'#	c #1B2331",
")#	c #1D2636",
"!#	c #1F293B",
"~#	c #212C40",
"{#	c #232F44",
"]#	c #253147",
"^#	c #283449",
"/#	c #2A364B",
"(#	c #2A364C",
"_#	c #656875",
":#	c #87858F",
"<#	c #464E5E",
"[#	c #252F3F",
"}#	c #273347",
"|#	c #273245",
"1#	c #242E40",
"2#	c #1B202B",
"3#	c #11151C",
"4#	c #151A24",
"5#	c #161C29",
"6#	c #192232",
"7#	c #1D273A",
"8#	c #202B3E",
"9#	c #222D42",
"0#	c #243046",
"a#	c #263147",
"b#	c #28344A",
"c#	c #4A4F5F",
"d#	c #7F7C85",
"e#	c #5B5D6A",
"f#	c #1B2436",
"g#	c #1D2739",
"h#	c #1A2231",
"i#	c #171D26",
"j#	c #12151C",
"k#	c #181D25",
"l#	c #1A1F28",
"m#	c #1A1E26",
"n#	c #181B22",
"o#	c #15191F",
"p#	c #151921",
"q#	c #171D2A",
"r#	c #171E2B",
"s#	c #181F2C",
"t#	c #1F2532",
"u#	c #383A42",
"v#	c #2B2D35",
"w#	c #161A21",
"x#	c #14161A",
"y#	c #17191D",
"z#	c #191B20",
"A#	c #1B1D22",
"B#	c #15171C",
"C#	c #191F28",
"D#	c #1A2029",
"E#	c #1A2028",
"F#	c #1B2028",
"G#	c #1B2128",
"H#	c #1C2128",
"I#	c #1C2228",
"J#	c #1D2228",
"K#	c #1D2227",
"L#	c #1D2127",
"M#	c #1D2126",
"N#	c #1C2026",
"O#	c #1B2025",
"P#	c #1A1F26",
"Q#	c #171C22",
"R#	c #1A202A",
"S#	c #1B202A",
"T#	c #1C212B",
"U#	c #1D222D",
"V#	c #1E242F",
"W#	c #1F252F",
"X#	c #202630",
"Y#	c #20252F",
"Z#	c #1F232D",
"`#	c #1F232B",
" $	c #1E232B",
".$	c #1E222A",
"+$	c #1D222A",
"@$	c #1D2129",
"#$	c #1C2129",
"$$	c #1A2027",
"%$	c #191F27",
"&$	c #1C212C",
"*$	c #1D232D",
"=$	c #1E2430",
"-$	c #202733",
";$	c #212834",
">$	c #212733",
",$	c #1E232D",
"'$	c #1E232C",
")$	c #1C222B",
"!$	c #1B2029",
"~$	c #141920",
"{$	c #1D222E",
"]$	c #222935",
"^$	c #222835",
"/$	c #202631",
"($	c #1F242F",
"_$	c #1F2530",
":$	c #1F2430",
"<$	c #1C222D",
"[$	c #181D26",
"}$	c #191E28",
"|$	c #1B212B",
"1$	c #1C232E",
"2$	c #1F2633",
"3$	c #222936",
"4$	c #1F2531",
"5$	c #1D232F",
"6$	c #222A38",
"7$	c #212938",
"8$	c #222A39",
"9$	c #1E2632",
"0$	c #1B212D",
"a$	c #222A37",
"b$	c #202736",
"c$	c #232B3A",
"d$	c #232B38",
"e$	c #191F29",
"f$	c #242B39",
"g$	c #272E3D",
"h$	c #2B3445",
"i$	c #2B3446",
"j$	c #222938",
"k$	c #202634",
"l$	c #293243",
"m$	c #2D3749",
"n$	c #2B3444",
"o$	c #28303F",
"p$	c #1B222D",
"q$	c #202836",
"r$	c #242D3B",
"s$	c #2A3444",
"t$	c #2F3A4B",
"u$	c #333E52",
"v$	c #384459",
"w$	c #414F67",
"x$	c #414F68",
"y$	c #43516C",
"z$	c #44536F",
"A$	c #42516C",
"B$	c #475671",
"C$	c #526383",
"D$	c #586B8C",
"E$	c #566889",
"F$	c #495975",
"G$	c #333D50",
"H$	c #2E3748",
"I$	c #151A23",
"J$	c #1E2634",
"K$	c #242C3C",
"L$	c #273142",
"M$	c #44536D",
"N$	c #465570",
"O$	c #4A5A77",
"P$	c #516383",
"Q$	c #5C7094",
"R$	c #62779E",
"S$	c #697FA6",
"T$	c #6F86AD",
"U$	c #6E84AC",
"V$	c #576A8B",
"W$	c #242D3E",
"X$	c #263042",
"Y$	c #2B3548",
"Z$	c #313D51",
"`$	c #3A475F",
" %	c #45536F",
".%	c #4C5D7C",
"+%	c #536586",
"@%	c #586B8E",
"#%	c #5E7194",
"$%	c #586A8B",
"%%	c #3C4962",
"&%	c #2E394D",
"*%	c #273042",
"=%	c #202937",
"-%	c #161B25",
";%	c #0B0F17",
">%	c #252F40",
",%	c #273144",
"'%	c #1F2736",
")%	c #171E29",
"!%	c #0A0E15",
"~%	c #131A25",
"{%	c #1B2230",
"]%	c #1E2635",
"^%	c #202A39",
"/%	c #232C3D",
"(%	c #222C3C",
"_%	c #202939",
":%	c #000000",
"                                                                                                                                ",
"                                                                                                                                ",
"                                                                                                                                ",
"                                                                                                                                ",
"                                                                                                                                ",
"                                                                                                                                ",
"                                                                                                                                ",
"                                                  . + @                                                                         ",
"                                                # $ % & * =                                                                     ",
"                                                - ; > , ' ) !                                                                   ",
"                                                ~ { > ] ^ / ( _                                                                 ",
"                                                    : < , [ } | _                                                               ",
"                                                    1 2 ] 3 4 } 5 6                                                             ",
"                                                    7 8 9 ) 0 a & 9 b                                                           ",
"                                                  c d e 9 f 0 g h 9 e i                                                         ",
"                                                  > + j * [ } k l m 2 =                                                         ",
"                                                  n o p q h r s t u q v w                                                       ",
"                                                  x y p z A B C D E h v F G                                                     ",
"                                                H H I J K L M N O P Q R S J T                                                   ",
"                                                U S V W X Y Z `  ...+.@.#.$.H G                                                 ",
"                                              U J I %.V &.*.` ` =.-.;.>.W ,.'.#.G                                               ",
"                                        ).!.~.{.].^.H $.I $./.(._.:.<.[.}.|.1.2.3.4.c 5.6.                                      ",
"                                  ).c ].c 7.8.9.0.9 a.b.c.d.e.f.g.h.i.j.k.l.m.n.o.p.7 q.r.s.                                    ",
"                                    ~.t.u.v.: 6 o.w.x.y.z.A.B.C.D.E.E.F.G.H.I.J.g ^ K.3.L.                                      ",
"                                        M.~.4.: p.e 2 ( 5 & N.O.~ P.Q.R.m.& K.S.T.                                              ",
"                                              U.V.W.X.Y.Z.`. +.+++@+@+#+$+%+&+*+=+                                              ",
"                                              U.-+;+>+,+'+*+)+!+~+{+]+]+^+/+(+*+_+                                              ",
"                                              :+-+;+>+,+'+*+<+[+}+|+]+]+1+2+3+4+5+                                              ",
"                                            6+7+8+9+0+a+_+b+c+d+e+f+g+g+h+i+j+k+l+m+                                            ",
"                                            n+o+r.p+q+r+s+t+u+v+w+@+#+#+x+y+z+A+B+                                              ",
"                                              @ C+o 6 D+E+F+G+H+I+J+K+K+L+M+N+O+P+                                              ",
"                                              c Q+R+S+T+U+V+W+X+Y+Z+*+b+`+ @.@+@@@                                              ",
"                                              #@$@%@&@*@=@-@;@>@,@'@)@!@~@{@]@6 ^@                                              ",
"                                              /@(@_@:@<@[@# }@|@1@2@3@/.4@5@6@7@8@                                              ",
"                                              9@0@a@b@c@d@e@f@g@h@i@j@k@l@m@n@p+o@p@                                            ",
"                                            q@0@r@s@t@u@v@w@e@x@y@z@A@B@C@D@E@S+o@F@                                            ",
"                                            G@H@a@I@J@u@K@L@M@e@N@O@P@Q@R@S@T@U@+ V@                                            ",
"                                          $.W@X@Y@Z@J@`@ #.#+#@###$#%#&#0@*#=#-#;#: >#                                          ",
"                                          ,#'#)#!#~#{#]#^#/#(#(#M@_#:#<#[#{#}#|#1#(@2#                                          ",
"                                            3#4#5#6#7#8#9#{#0#a#b#c#d#e#: f#g#h#i#j#                                            ",
"                                            k#l#m#n#o#p#4#$.q#r#s#t#u#v#w#x#y#z#A#B#                                            ",
"                                            C#D#E#F#G#H#I#J#J#J#K#L#L#L#M#N#N#O#P#Q#                                            ",
"                                          G R#R#S#2#T#U#V#W#X#Y#Z#`# $.$+$@$#$F#$$%$                                            ",
"                                          C#S#2#&$*$=$~.-$c ;$>$>#X#W#,$'$'$)$S#!$F#~$                                          ",
"                                          R#2#&${$=$5.-${.7.]$^$;$-$/$($_$:$<$T#S#T#[$                                          ",
"                                        }$|$<$1$).n+2$7.w s.s.3$7.>$>#-$7.4$U#T#T#=$R#                                          ",
"                                        M.1$5$).t#].w 6$7$6$s.]$7.3$8$6$c _$U#T#=$9$0$                                          ",
"                                        ;$a$w 2$2$b$> 7$6$6$6$4.c$}.8$7.>#=$6.=$c a$d$                                          ",
"                                      e$f$g$C+h$&@i$= c$j$8$8$8$6$> k$t#~.w l$m$p+n$o$                                          ",
"                                      p$q$r$s$t$u$v$h w$x$y$z$A$m.B$j.C$D$E$F$& G$H$7+                                          ",
"                                      I$J$}.K$L$p ^ x$M$N$O$P$Q$R$S$T$U$S$V$F$3 0.K$q$                                          ",
"                                          $.G@W$X$|.Y$Z$`$ %.%+%@%F.#%$%t %%&%*%_@=%-%                                          ",
"                                                ;%W@>%;#|.|.,%,%|.;#|.;#;#1._@'%)%                                              ",
"                                                      !%~%{%]%9@^%/%(%_%K r#!%                                                  ",
"                                                      :%:%            :%:%:%                                                    ",
"                                                      :%:%            :%:%                                                      ",
"                                                      :%:%            :%:%                                                      ",
"                                                      :%:%            :%:%                                                      ",
"                                                      :%:%            :%                                                        ",
"                                                                                                                                ",
"                                                                                                                                ",
"                                                                                                                                ",
"                                                                                                                                ",
"                                                                                                                                "};
