/* XPM */
static char * player_dash_0_xpm[] = {
"64 64 581 2",
"  	c None",
". 	c #1E2431",
"+ 	c #1F2633",
"@ 	c #333E52",
"# 	c #374258",
"$ 	c #384459",
"% 	c #374256",
"& 	c #2D3647",
"* 	c #191F29",
"= 	c #313C50",
"- 	c #344054",
"; 	c #131821",
"> 	c #2C3547",
", 	c #39455B",
"' 	c #3B475E",
") 	c #364257",
"! 	c #212936",
"~ 	c #374459",
"{ 	c #50617F",
"] 	c #2D3749",
"^ 	c #2A3344",
"/ 	c #374359",
"( 	c #3C485F",
"_ 	c #3E4B62",
": 	c #252D3C",
"< 	c #2F3A4D",
"[ 	c #171D27",
"} 	c #2E384A",
"| 	c #354156",
"1 	c #3A465D",
"2 	c #3F4C63",
"3 	c #39455C",
"4 	c #27303F",
"5 	c #1C232F",
"6 	c #2E384B",
"7 	c #333F53",
"8 	c #37445A",
"9 	c #3C4960",
"0 	c #404E66",
"a 	c #3D4A61",
"b 	c #252D3B",
"c 	c #202735",
"d 	c #2D3649",
"e 	c #323D51",
"f 	c #3B485F",
"g 	c #3E4B63",
"h 	c #38445A",
"i 	c #343F53",
"j 	c #1E2532",
"k 	c #222A38",
"l 	c #2B3547",
"m 	c #425069",
"n 	c #354055",
"o 	c #181D27",
"p 	c #242C3B",
"q 	c #2B3446",
"r 	c #3D4A62",
"s 	c #45546D",
"t 	c #46556F",
"u 	c #303A4E",
"v 	c #242D3C",
"w 	c #252E3D",
"x 	c #313C51",
"y 	c #38445B",
"z 	c #45536D",
"A 	c #4B5B77",
"B 	c #4C5C79",
"C 	c #44526C",
"D 	c #344055",
"E 	c #293243",
"F 	c #232C3B",
"G 	c #2A3446",
"H 	c #414F68",
"I 	c #4A5974",
"J 	c #4E5E7A",
"K 	c #4A5973",
"L 	c #44526A",
"M 	c #364258",
"N 	c #1B222E",
"O 	c #171D28",
"P 	c #161D28",
"Q 	c #1A212E",
"R 	c #202837",
"S 	c #242D3D",
"T 	c #252D3D",
"U 	c #23252D",
"V 	c #363942",
"W 	c #434651",
"X 	c #444751",
"Y 	c #161B24",
"Z 	c #161C27",
"` 	c #181E29",
" .	c #181E2A",
"..	c #131824",
"+.	c #151B27",
"@.	c #181E2B",
"#.	c #181F2C",
"$.	c #191F2C",
"%.	c #1E2027",
"&.	c #393C45",
"*.	c #353741",
"=.	c #141924",
"-.	c #161B27",
";.	c #171C27",
">.	c #191F2A",
",.	c #141A26",
"'.	c #121722",
").	c #131924",
"!.	c #171D29",
"~.	c #19202C",
"{.	c #19202D",
"].	c #191D25",
"^.	c #292C34",
"/.	c #363841",
"(.	c #151C27",
"_.	c #141A25",
":.	c #151B25",
"<.	c #191F2B",
"[.	c #1C222E",
"}.	c #1B222D",
"|.	c #1D232F",
"1.	c #1D2431",
"2.	c #171E29",
"3.	c #131923",
"4.	c #151B26",
"5.	c #161C28",
"6.	c #171C26",
"7.	c #353740",
"8.	c #41444E",
"9.	c #343742",
"0.	c #2C3649",
"a.	c #303B4F",
"b.	c #2D374A",
"c.	c #293244",
"d.	c #262E3E",
"e.	c #242B3A",
"f.	c #222A37",
"g.	c #1C232E",
"h.	c #202734",
"i.	c #222937",
"j.	c #262F3F",
"k.	c #3A465E",
"l.	c #3E4B64",
"m.	c #45536F",
"n.	c #4A5A77",
"o.	c #4B5B78",
"p.	c #485772",
"q.	c #4C5D79",
"r.	c #4F607E",
"s.	c #4D5D7B",
"t.	c #495975",
"u.	c #465570",
"v.	c #404D66",
"w.	c #333E53",
"x.	c #2B3344",
"y.	c #242D3B",
"z.	c #202835",
"A.	c #212937",
"B.	c #272F3F",
"C.	c #2C3648",
"D.	c #3B475F",
"E.	c #414E67",
"F.	c #45536C",
"G.	c #495872",
"H.	c #4E5D7A",
"I.	c #556685",
"J.	c #5A6C8D",
"K.	c #5D7092",
"L.	c #607397",
"M.	c #607598",
"N.	c #5F7395",
"O.	c #5A6D8F",
"P.	c #546685",
"Q.	c #4E5E7B",
"R.	c #46546E",
"S.	c #3A475D",
"T.	c #303A4D",
"U.	c #242C3A",
"V.	c #1B212C",
"W.	c #1D2430",
"X.	c #3E4A61",
"Y.	c #3A465C",
"Z.	c #39455A",
"`.	c #43516A",
" +	c #485771",
".+	c #4D5D7A",
"++	c #465670",
"@+	c #313C4E",
"#+	c #282F3D",
"$+	c #1D222C",
"%+	c #14171C",
"&+	c #0C0E11",
"*+	c #030304",
"=+	c #040506",
"-+	c #060607",
";+	c #080809",
">+	c #0C0D0F",
",+	c #0D0D0E",
"'+	c #0F0F10",
")+	c #282818",
"!+	c #A2A223",
"~+	c #6C6C22",
"{+	c #161515",
"]+	c #161616",
"^+	c #171717",
"/+	c #5A5A22",
"(+	c #C5C523",
"_+	c #42421E",
":+	c #111111",
"<+	c #0D0D0D",
"[+	c #020202",
"}+	c #040404",
"|+	c #060606",
"1+	c #090909",
"2+	c #0C0C0C",
"3+	c #0F0F0F",
"4+	c #121212",
"5+	c #828227",
"6+	c #FEFE04",
"7+	c #D9D924",
"8+	c #21211A",
"9+	c #181818",
"0+	c #A6A629",
"a+	c #FFFF01",
"b+	c #8B8B28",
"c+	c #0E0E0E",
"d+	c #040406",
"e+	c #898928",
"f+	c #FFFF02",
"g+	c #DEDE23",
"h+	c #22221A",
"i+	c #989829",
"j+	c #FEFE05",
"k+	c #7E7E27",
"l+	c #262E3D",
"m+	c #252C3A",
"n+	c #252A37",
"o+	c #21252C",
"p+	c #111215",
"q+	c #34341B",
"r+	c #BBBB24",
"s+	c #848425",
"t+	c #181817",
"u+	c #36361D",
"v+	c #8E8E24",
"w+	c #2A2A1B",
"x+	c #2E2F33",
"y+	c #353A47",
"z+	c #222732",
"A+	c #2A3343",
"B+	c #2D3748",
"C+	c #343D4F",
"D+	c #3E4555",
"E+	c #474C57",
"F+	c #5F5E63",
"G+	c #7B7675",
"H+	c #6F6C6D",
"I+	c #37373C",
"J+	c #151515",
"K+	c #161718",
"L+	c #5E5D63",
"M+	c #7D7A7C",
"N+	c #474D5B",
"O+	c #323C4D",
"P+	c #283140",
"Q+	c #2A3445",
"R+	c #313C4F",
"S+	c #384256",
"T+	c #3E485B",
"U+	c #7C7A81",
"V+	c #959090",
"W+	c #565B69",
"X+	c #25262C",
"Y+	c #141414",
"Z+	c #7E7C80",
"`+	c #737277",
" @	c #323D4F",
".@	c #2C3544",
"+@	c #1F2734",
"@@	c #262F3E",
"#@	c #394457",
"$@	c #525767",
"%@	c #989293",
"&@	c #72727B",
"*@	c #333A47",
"=@	c #434853",
"-@	c #89878B",
";@	c #5C5F69",
">@	c #303A4C",
",@	c #272F3D",
"'@	c #1D2532",
")@	c #283142",
"!@	c #2C3647",
"~@	c #2E394C",
"{@	c #364155",
"]@	c #384357",
"^@	c #85848C",
"/@	c #878790",
"(@	c #3D4658",
"_@	c #111318",
":@	c #0F1014",
"<@	c #585C69",
"[@	c #898D9C",
"}@	c #4C5261",
"|@	c #2E3849",
"1@	c #242B39",
"2@	c #1E2633",
"3@	c #212B3A",
"4@	c #242E3E",
"5@	c #293345",
"6@	c #2D374B",
"7@	c #303C4F",
"8@	c #323F52",
"9@	c #666A78",
"0@	c #999CAA",
"a@	c #626879",
"b@	c #2A323F",
"c@	c #1A202D",
"d@	c #727684",
"e@	c #828798",
"f@	c #29313F",
"g@	c #202938",
"h@	c #212A3A",
"i@	c #222C3D",
"j@	c #242F40",
"k@	c #273346",
"l@	c #2C384C",
"m@	c #2D3B4F",
"n@	c #303D51",
"o@	c #3A4558",
"p@	c #9195A7",
"q@	c #84899A",
"r@	c #394253",
"s@	c #41434E",
"t@	c #908F96",
"u@	c #656873",
"v@	c #2E3A4C",
"w@	c #2D3648",
"x@	c #293242",
"y@	c #202631",
"z@	c #1B2330",
"A@	c #202A3A",
"B@	c #212B3C",
"C@	c #232E3F",
"D@	c #253143",
"E@	c #283448",
"F@	c #2C394D",
"G@	c #2D3A4F",
"H@	c #2E3B50",
"I@	c #2F3C51",
"J@	c #73798B",
"K@	c #9397AA",
"L@	c #4A5161",
"M@	c #5D5B60",
"N@	c #8F8B8D",
"O@	c #323B4E",
"P@	c #2D394C",
"Q@	c #242B37",
"R@	c #1E2635",
"S@	c #202A3B",
"T@	c #263144",
"U@	c #283447",
"V@	c #29374B",
"W@	c #2B384E",
"X@	c #464E60",
"Y@	c #898D9E",
"Z@	c #666977",
"`@	c #343B49",
" #	c #65646B",
".#	c #293448",
"+#	c #2C384B",
"@#	c #2B3648",
"##	c #293344",
"$#	c #1E2636",
"%#	c #1F293A",
"&#	c #212B3D",
"*#	c #232D40",
"=#	c #273448",
"-#	c #28354A",
";#	c #2B384D",
">#	c #2C394E",
",#	c #7C7E8C",
"'#	c #7A7B88",
")#	c #374254",
"!#	c #1F2838",
"~#	c #263246",
"{#	c #2A3549",
"]#	c #2A3447",
"^#	c #283244",
"/#	c #273142",
"(#	c #1E2530",
"_#	c #121822",
":#	c #19212E",
"<#	c #1D2535",
"[#	c #1F293B",
"}#	c #212C3F",
"|#	c #232F44",
"1#	c #253146",
"2#	c #283449",
"3#	c #29364B",
"4#	c #2A364C",
"5#	c #2A364B",
"6#	c #2D3A4E",
"7#	c #666876",
"8#	c #85838D",
"9#	c #444C5D",
"0#	c #232E43",
"a#	c #273246",
"b#	c #242D3F",
"c#	c #212939",
"d#	c #13171E",
"e#	c #151922",
"f#	c #171F2E",
"g#	c #1C2536",
"h#	c #1F293C",
"i#	c #212C40",
"j#	c #222E43",
"k#	c #232F45",
"l#	c #273348",
"m#	c #4B4F5F",
"n#	c #7C7A82",
"o#	c #565966",
"p#	c #252F3E",
"q#	c #192234",
"r#	c #1B2535",
"s#	c #101218",
"t#	c #181D26",
"u#	c #1A1F28",
"v#	c #1B1F27",
"w#	c #1A1D24",
"x#	c #171A20",
"y#	c #15191F",
"z#	c #151A21",
"A#	c #171E2A",
"B#	c #1D232D",
"C#	c #2E3037",
"D#	c #24262D",
"E#	c #15181D",
"F#	c #15171B",
"G#	c #181A1D",
"H#	c #1A1C1F",
"I#	c #1A1D21",
"J#	c #121419",
"K#	c #1A2029",
"L#	c #1A2028",
"M#	c #1B2028",
"N#	c #1B2129",
"O#	c #1C2128",
"P#	c #1C2229",
"Q#	c #1D2229",
"R#	c #1D2228",
"S#	c #1D2127",
"T#	c #1D2126",
"U#	c #1D2026",
"V#	c #1C2025",
"W#	c #1C1F25",
"X#	c #1B1F24",
"Y#	c #1A1E25",
"Z#	c #15181F",
"`#	c #191E28",
" $	c #1B202A",
".$	c #1C212B",
"+$	c #1C222C",
"@$	c #1D232E",
"#$	c #1E2430",
"$$	c #1F2531",
"%$	c #1F252F",
"&$	c #1F232C",
"*$	c #1E232B",
"=$	c #1E222A",
"-$	c #1D2129",
";$	c #1B2027",
">$	c #1A2027",
",$	c #171C23",
"'$	c #1A1F29",
")$	c #1B202B",
"!$	c #1C212C",
"~$	c #202632",
"{$	c #212734",
"]$	c #212834",
"^$	c #212733",
"/$	c #202530",
"($	c #1E242E",
"_$	c #1E232C",
":$	c #1D222B",
"<$	c #1B212A",
"[$	c #1B2029",
"}$	c #191E27",
"|$	c #181E27",
"1$	c #1B212B",
"2$	c #1C222D",
"3$	c #1D222E",
"4$	c #1F2532",
"5$	c #212835",
"6$	c #222935",
"7$	c #1F2530",
"8$	c #1F242F",
"9$	c #1E242F",
"0$	c #1A1F2A",
"a$	c #1E2533",
"b$	c #212836",
"c$	c #222936",
"d$	c #202732",
"e$	c #171C25",
"f$	c #1F2632",
"g$	c #212938",
"h$	c #222A39",
"i$	c #181E28",
"j$	c #232B38",
"k$	c #252C3B",
"l$	c #232B39",
"m$	c #202836",
"n$	c #1F2735",
"o$	c #222938",
"p$	c #232B3A",
"q$	c #222B3A",
"r$	c #202733",
"s$	c #1E2531",
"t$	c #2B3444",
"u$	c #303B4E",
"v$	c #2A3345",
"w$	c #202633",
"x$	c #2B3546",
"y$	c #2C3545",
"z$	c #293241",
"A$	c #1D2531",
"B$	c #3E4C64",
"C$	c #43516B",
"D$	c #475672",
"E$	c #4B5B79",
"F$	c #4C5D7C",
"G$	c #4B5B7A",
"H$	c #4D5E7B",
"I$	c #516280",
"J$	c #536584",
"K$	c #586A8C",
"L$	c #596C8E",
"M$	c #516282",
"N$	c #42516A",
"O$	c #212A39",
"P$	c #242D3E",
"Q$	c #262F41",
"R$	c #2C374A",
"S$	c #37435A",
"T$	c #3F4D65",
"U$	c #45546F",
"V$	c #4F6080",
"W$	c #56698B",
"X$	c #5E7399",
"Y$	c #6479A0",
"Z$	c #6C82AA",
"`$	c #6F85AD",
" %	c #6D83AB",
".%	c #62779B",
"+%	c #516281",
"@%	c #1A222F",
"#%	c #232D3D",
"$%	c #283144",
"%%	c #3C4962",
"&%	c #44536F",
"*%	c #4B5C7B",
"=%	c #516383",
"-%	c #556788",
";%	c #4E5E7C",
">%	c #414F69",
",%	c #344056",
"'%	c #293346",
")%	c #252E40",
"!%	c #242E40",
"~%	c #273143",
"{%	c #273144",
"]%	c #283245",
"^%	c #283345",
"/%	c #1C2431",
"(%	c #121721",
"_%	c #1D2534",
":%	c #1F2837",
"<%	c #1E2736",
"[%	c #1B2331",
"}%	c #0E121C",
"|%	c #000000",
"                                                                                                                                ",
"                                                                                                                                ",
"                                                                                                                                ",
"                                                                                                                                ",
"                                                                                                                                ",
"                                                                                                                                ",
"                                                                                                                                ",
"                                                  . +                                                                           ",
"                                                @ # $ % & *                                                                     ",
"                                              = - ; > , ' ) !                                                                   ",
"                                              ~ { ] ^ / ( _ , :                                                                 ",
"                                                < [ } | 1 _ 2 3 4                                                               ",
"                                                  5 6 7 8 9 0 a / b                                                             ",
"                                                  c d e # f _ g h i j                                                           ",
"                                                  k l = # ' g m ' n ] o                                                         ",
"                                                  p q = 8 r 0 s t 9 u v                                                         ",
"                                                  w l x y g z A B C D E +                                                       ",
"                                                  F G x 3 H I J K L M v N [                                                     ",
"                                                O O P Q R S T U V W X Y Z ` [                                                   ",
"                                                 .Z ..+.@.#.Q $. .%.&.*.=.-.` ;.                                                ",
"                                              >. .,.'.).!.~.{.{.#.].^./.(._.:.<.[.}.                                            ",
"                                          |.. 1.N 2.3.3.4.5. .6.7.8.X 9.0.x a.b.c.d.e.k f.g.                                    ",
"                                    j j + h.i.j.b.D k.l.H m.n.o.z p.q.r.s.t.u.v., w.6 x.y.>.                                    ",
"                                    h.z.A.e.B.C.w.D.E.F.G.H.I.J.K.L.M.N.O.P.Q.R.S.T.U.V.                                        ",
"                                      }.W.z.: q = @ i X.Y.Z.`. +.+Q.++9 @+#+$+%+&+                                              ",
"                                              *+=+-+;+>+,+'+)+!+~+{+]+^+/+(+_+:+<+                                              ",
"                                              [+}+|+1+2+3+4+5+6+7+8+9+9+0+a+b+4+c+                                              ",
"                                              d+}+|+1+2+3+4+e+f+g+h+9+9+i+j+k+:+,+                                              ",
"                                            z.l+m+n+o+p+c+:+q+r+s+t+^+^+u+v+w+x+y+z+                                            ",
"                                            j 4 A+B+C+D+E+F+G+H+I+J+]+]+K+L+M+N+O+                                              ",
"                                              e.P+Q+} R+S+T+U+V+W+X+Y+Y+V Z+`+ @.@                                              ",
"                                              +@@@E C.< i #@$@%@&@*@4+:+=@-@;@>@,@                                              ",
"                                              '@v )@!@~@= {@]@^@/@(@_@:@<@[@}@|@1@                                              ",
"                                              2@3@4@5@6@7@8@7 9@0@a@b@c@d@e@C+& f@                                              ",
"                                              g@h@i@j@k@l@m@n@o@p@q@r@s@t@u@v@w@x@y@                                            ",
"                                            z@A@B@C@D@E@F@G@H@I@J@K@L@M@N@O@P@!@x@Q@                                            ",
"                                            R@S@i@j@T@U@V@W@G@H@X@Y@Z@`@ #.#+#@###B.                                            ",
"                                          5.$#%#&#*#T@=#-#;#>#>#n@,#'#)#!#~#{#]#^#/#(#                                          ",
"                                          _#:#<#[#}#|#1#2#3#4#5#6#7#8#9#S 0#a#T@b#c#*                                           ",
"                                            d#e#4.f#g#h#i#j#k#1#l#m#n#o#p#q#r#{.Y s#                                            ",
"                                            t#u#v#w#x#y#z#Y 6.O A#B#C#D#E#F#G#H#I#J#                                            ",
"                                            K#K#L#M#N#O#P#Q#R#R#S#S#S#T#U#V#W#X#Y#Z#                                            ",
"                                          `# $ $ $.$+$@$#$$$y@%$&$&$*$=$-$-$O#;$>$,$                                            ",
"                                          '$ $)$!$@$#$~$h.{$]$^$y@/$($_$_$:$<$[$L#}$                                            ",
"                                        |$)$1$2$3$#$4$h.h.5$6$5${$~$7$8$%$9$!$ $ $ $                                            ",
"                                        0$V.[.|.#$a$h.b$b$i.c$5${$d$~$h.h.9$!$ $.$|.e$                                          ",
"                                        f$. |.. + c A.g$i.i.c$5$5$i.h$! ~$9$!$.$. . i$                                          ",
"                                      g.j$k$b l$m$n$R A.o$k h$l$p$q$i.r$$$@$2$. + ! s$                                          ",
"                                      W.p$P+t$} R+e u$v$F g$g$g$A.c 4$4$w$l$##x$y$z$c$                                          ",
"                                      A$g$p$E R+M S.B$C$D$E$F$G$H$I$J$K$L$M$N${@>@t$5$                                          ",
"                                        ~.O$P$Q$R$S$T$U$o.V$W$X$Y$Z$`$ %.%+%C$| Q+h$N                                           ",
"                                            Z @%#%^#$%G x %%&%*%=%-%P.;%>%,%'%)%#%1.                                            ",
"                                                  {.!#!%~%^#{%{%{%^#^#]%^%$%c#/%(%                                              ",
"                                                          ).+.A#_%:%<%[%A#}%                                                    ",
"                                                            |%|%|%    |%|%|%                                                    ",
"                                                            |%|%|%    |%|%                                                      ",
"                                                            |%|%|%    |%|%                                                      ",
"                                                              |%|%  |%|%                                                        ",
"                                                              |%|%                                                              ",
"                                                              |%|%                                                              ",
"                                                                |%                                                              ",
"                                                                                                                                ",
"                                                                                                                                ",
"                                                                                                                                "};
