/* XPM */
static char * player_dash_9_xpm[] = {
"64 64 602 2",
"  	c None",
". 	c #27303F",
"+ 	c #293141",
"@ 	c #293241",
"# 	c #262F3E",
"$ 	c #323D51",
"% 	c #2E384A",
"& 	c #323C4F",
"* 	c #343E52",
"= 	c #323D50",
"- 	c #30394B",
"; 	c #2C3545",
"> 	c #2A3343",
", 	c #2F3A4C",
"' 	c #343F53",
") 	c #384459",
"! 	c #39455B",
"~ 	c #384358",
"{ 	c #354053",
"] 	c #313B4D",
"^ 	c #2F394C",
"/ 	c #354156",
"( 	c #2C3647",
"_ 	c #38445A",
": 	c #3A475D",
"< 	c #3B485E",
"[ 	c #3B475D",
"} 	c #2D3748",
"| 	c #283040",
"1 	c #3B485F",
"2 	c #283141",
"3 	c #273040",
"4 	c #313B4F",
"5 	c #354055",
"6 	c #3D4960",
"7 	c #3B475E",
"8 	c #333D51",
"9 	c #2D3749",
"0 	c #293242",
"a 	c #2D374A",
"b 	c #364257",
"c 	c #3A465D",
"d 	c #3E4B63",
"e 	c #3C4960",
"f 	c #3A465C",
"g 	c #354155",
"h 	c #262F3F",
"i 	c #2A3445",
"j 	c #2F3A4D",
"k 	c #344054",
"l 	c #3D4A61",
"m 	c #404E66",
"n 	c #44526B",
"o 	c #2B3446",
"p 	c #1E2431",
"q 	c #171D27",
"r 	c #283142",
"s 	c #333E52",
"t 	c #3E4C64",
"u 	c #44526C",
"v 	c #495874",
"w 	c #4A5975",
"x 	c #404D66",
"y 	c #323B4C",
"z 	c #232934",
"A 	c #1A202A",
"B 	c #181E29",
"C 	c #171D28",
"D 	c #212835",
"E 	c #37435A",
"F 	c #3D4A62",
"G 	c #45546E",
"H 	c #485771",
"I 	c #374255",
"J 	c #333844",
"K 	c #2E323C",
"L 	c #22262F",
"M 	c #242832",
"N 	c #1A1F2A",
"O 	c #161B26",
"P 	c #19202B",
"Q 	c #222938",
"R 	c #232B3A",
"S 	c #242C3A",
"T 	c #252E3C",
"U 	c #1E2531",
"V 	c #262E3E",
"W 	c #2A3345",
"X 	c #2E394C",
"Y 	c #333E53",
"Z 	c #323C50",
"` 	c #232935",
" .	c #282C36",
"..	c #252933",
"+.	c #23262F",
"@.	c #2E313A",
"#.	c #1F242F",
"$.	c #161C27",
"%.	c #242D3D",
"&.	c #2E384B",
"*.	c #2E394B",
"=.	c #2E3749",
"-.	c #1F2632",
";.	c #232B3B",
">.	c #222A3A",
",.	c #202736",
"'.	c #1B222F",
").	c #191F2B",
"!.	c #1B212D",
"~.	c #1A202C",
"{.	c #1C222D",
"].	c #222630",
"^.	c #2C2F37",
"/.	c #333741",
"(.	c #252C3A",
"_.	c #39465D",
":.	c #3D4B63",
"<.	c #3E4B64",
"[.	c #1A202D",
"}.	c #181E2A",
"|.	c #151C27",
"1.	c #171D29",
"2.	c #181F2B",
"3.	c #19202D",
"4.	c #19202C",
"5.	c #1B202A",
"6.	c #3C404C",
"7.	c #3A465B",
"8.	c #4B5C78",
"9.	c #4D5D7A",
"0.	c #4E5E7C",
"a.	c #4B5A77",
"b.	c #252D3D",
"c.	c #171E29",
"d.	c #161C28",
"e.	c #141A26",
"f.	c #141A25",
"g.	c #232937",
"h.	c #384050",
"i.	c #414C61",
"j.	c #4E5E7B",
"k.	c #586A8B",
"l.	c #596C8D",
"m.	c #576989",
"n.	c #465570",
"o.	c #2B3444",
"p.	c #111419",
"q.	c #1D2532",
"r.	c #283243",
"s.	c #47556F",
"t.	c #50617E",
"u.	c #596B8C",
"v.	c #5D7092",
"w.	c #5C6F91",
"x.	c #4B5B77",
"y.	c #2D3647",
"z.	c #14171C",
"A.	c #0E0F0F",
"B.	c #0D0D0D",
"C.	c #1A212D",
"D.	c #1C2330",
"E.	c #222B3A",
"F.	c #3B475F",
"G.	c #45536D",
"H.	c #4D5C79",
"I.	c #51617E",
"J.	c #526380",
"K.	c #516280",
"L.	c #45546D",
"M.	c #2B3342",
"N.	c #16181C",
"O.	c #141414",
"P.	c #131313",
"Q.	c #121211",
"R.	c #10100F",
"S.	c #0C0C0C",
"T.	c #1D232F",
"U.	c #1F2633",
"V.	c #232B39",
"W.	c #2A3446",
"X.	c #344055",
"Y.	c #435169",
"Z.	c #424F66",
"`.	c #394458",
" +	c #323C4D",
".+	c #262B32",
"++	c #20211B",
"@+	c #181816",
"#+	c #161616",
"$+	c #161615",
"%+	c #232317",
"&+	c #333315",
"*+	c #1E1E11",
"=+	c #0F0F0D",
"-+	c #1E2532",
";+	c #202734",
">+	c #384359",
",+	c #2A3241",
"'+	c #1A1E26",
")+	c #191B1E",
"!+	c #44441D",
"~+	c #5F5F19",
"{+	c #3D3D18",
"]+	c #1F1F18",
"^+	c #181817",
"/+	c #3C3C1C",
"(+	c #79791B",
"_+	c #636314",
":+	c #2C2C13",
"<+	c #11110E",
"[+	c #1D2430",
"}+	c #222937",
"|+	c #293343",
"1+	c #232A38",
"2+	c #161A22",
"3+	c #111318",
"4+	c #0E0E0F",
"5+	c #141412",
"6+	c #54541C",
"7+	c #A2A217",
"8+	c #959514",
"9+	c #545419",
"0+	c #222219",
"a+	c #2E2E1B",
"b+	c #7D7D1B",
"c+	c #A5A514",
"d+	c #777716",
"e+	c #2D2D14",
"f+	c #0F0F0E",
"g+	c #151A23",
"h+	c #0F1217",
"i+	c #0B0C0E",
"j+	c #0B0C0D",
"k+	c #0D0D0E",
"l+	c #101010",
"m+	c #2C2C15",
"n+	c #7C7C15",
"o+	c #B7B710",
"p+	c #A1A116",
"q+	c #4C4C1D",
"r+	c #1D1D19",
"s+	c #3C3C1A",
"t+	c #7F7F17",
"u+	c #9B9B17",
"v+	c #5C5C1B",
"w+	c #181813",
"x+	c #141821",
"y+	c #171B24",
"z+	c #171A21",
"A+	c #16191E",
"B+	c #16171B",
"C+	c #171819",
"D+	c #313219",
"E+	c #6D6D18",
"F+	c #97971B",
"G+	c #696923",
"H+	c #20201B",
"I+	c #1A1A18",
"J+	c #323218",
"K+	c #5B5B18",
"L+	c #51511C",
"M+	c #1A1A15",
"N+	c #19191C",
"O+	c #232A37",
"P+	c #242C39",
"Q+	c #262D39",
"R+	c #262C38",
"S+	c #252A34",
"T+	c #272B32",
"U+	c #393B34",
"V+	c #595A3A",
"W+	c #585740",
"X+	c #353433",
"Y+	c #202021",
"Z+	c #191919",
"`+	c #1F1F17",
" @	c #212117",
".@	c #19191A",
"+@	c #343335",
"@@	c #404146",
"#@	c #363C4A",
"$@	c #252D3C",
"%@	c #283140",
"&@	c #2E3747",
"*@	c #323A4A",
"=@	c #3A414F",
"-@	c #4A4F59",
";@	c #5F6066",
">@	c #5F5F64",
",@	c #47474C",
"'@	c #2B2C2F",
")@	c #191A1B",
"!@	c #1F2023",
"~@	c #54545A",
"{@	c #6A696F",
"]@	c #464C5A",
"^@	c #2E3746",
"/@	c #2A3344",
"(@	c #2E3849",
"_@	c #333D4F",
":@	c #3B4457",
"<@	c #4B5262",
"[@	c #60646F",
"}@	c #686971",
"|@	c #56575E",
"1@	c #32343A",
"2@	c #1A1B1E",
"3@	c #18191B",
"4@	c #43444A",
"5@	c #6F6F75",
"6@	c #5D616C",
"7@	c #384151",
"8@	c #2A3341",
"9@	c #212A37",
"0@	c #252E3D",
"a@	c #2C3648",
"b@	c #303A4D",
"c@	c #414A5C",
"d@	c #565C6A",
"e@	c #676A75",
"f@	c #5B5E69",
"g@	c #3A3E47",
"h@	c #202227",
"i@	c #23252A",
"j@	c #51535C",
"k@	c #6D6F7B",
"l@	c #505768",
"m@	c #313A4B",
"n@	c #272F3D",
"o@	c #202837",
"p@	c #232D3D",
"q@	c #263041",
"r@	c #293446",
"s@	c #2D384B",
"t@	c #313C50",
"u@	c #394456",
"v@	c #4B5464",
"w@	c #606675",
"x@	c #626776",
"y@	c #494E5B",
"z@	c #2A2E37",
"A@	c #2F333D",
"B@	c #606574",
"C@	c #6D7383",
"D@	c #424B5B",
"E@	c #202938",
"F@	c #222C3C",
"G@	c #242E40",
"H@	c #273244",
"I@	c #2A3649",
"J@	c #2D3A4E",
"K@	c #323F53",
"L@	c #414C5E",
"M@	c #596173",
"N@	c #666D7E",
"O@	c #565D6C",
"P@	c #393F4C",
"Q@	c #494F5D",
"R@	c #787B87",
"S@	c #5E6370",
"T@	c #2B3445",
"U@	c #28303F",
"V@	c #1E2634",
"W@	c #202A3A",
"X@	c #222C3D",
"Y@	c #242F40",
"Z@	c #263245",
"`@	c #2C394D",
" #	c #2E3C50",
".#	c #394459",
"+#	c #4F596C",
"@#	c #636B7E",
"##	c #5E6576",
"$#	c #4D5361",
"%#	c #686A73",
"&#	c #6B6C74",
"*#	c #3E4555",
"=#	c #252D3A",
"-#	c #1A212F",
";#	c #1E2736",
">#	c #222C3E",
",#	c #242F42",
"'#	c #273245",
")#	c #293549",
"!#	c #2A374C",
"~#	c #2C394E",
"{#	c #444F63",
"]#	c #5A6275",
"^#	c #5D6374",
"/#	c #5E626E",
"(#	c #5E6069",
"_#	c #444956",
":#	c #2B3649",
"<#	c #2B3648",
"[#	c #1A2230",
"}#	c #1D2534",
"|#	c #1F2838",
"1#	c #212B3C",
"2#	c #232E40",
"3#	c #253145",
"4#	c #273448",
"5#	c #29364B",
"6#	c #2B384D",
"7#	c #2E3B50",
"8#	c #4C5568",
"9#	c #606575",
"0#	c #5D616E",
"a#	c #464B59",
"b#	c #293447",
"c#	c #293345",
"d#	c #273042",
"e#	c #1A212E",
"f#	c #1B2332",
"g#	c #1D2636",
"h#	c #1F2A3B",
"i#	c #212D40",
"j#	c #242F43",
"k#	c #263247",
"l#	c #283449",
"m#	c #29354A",
"n#	c #313C51",
"o#	c #475062",
"p#	c #5B6070",
"q#	c #595D6A",
"r#	c #3E4554",
"s#	c #252F42",
"t#	c #263144",
"u#	c #263042",
"v#	c #1F2735",
"w#	c #171D26",
"x#	c #191F29",
"y#	c #191F2A",
"z#	c #1C2433",
"A#	c #1E2737",
"B#	c #1F293A",
"C#	c #222C3F",
"D#	c #283244",
"E#	c #3B4252",
"F#	c #525562",
"G#	c #4F535F",
"H#	c #343A48",
"I#	c #1F2736",
"J#	c #1D2434",
"K#	c #1E2635",
"L#	c #1D2330",
"M#	c #191F28",
"N#	c #15181F",
"O#	c #1A1F29",
"P#	c #1A2029",
"Q#	c #1A202B",
"R#	c #1A212C",
"S#	c #1B222E",
"T#	c #1C232F",
"U#	c #1F2631",
"V#	c #2C303A",
"W#	c #363840",
"X#	c #2A2E36",
"Y#	c #161A21",
"Z#	c #181B23",
"`#	c #171A20",
" $	c #17191D",
".$	c #141619",
"+$	c #1B202B",
"@$	c #1B212B",
"#$	c #1C212C",
"$$	c #1D222D",
"%$	c #1D232E",
"&$	c #1E242F",
"*$	c #1E232E",
"=$	c #1E232D",
"-$	c #1D222B",
";$	c #1D222A",
">$	c #1F232A",
",$	c #1E2127",
"'$	c #1B1E24",
")$	c #1A1D22",
"!$	c #1A1D21",
"~$	c #1A1C20",
"{$	c #181A1E",
"]$	c #15171C",
"^$	c #191E28",
"/$	c #1C222E",
"($	c #1E2430",
"_$	c #202733",
":$	c #212733",
"<$	c #202632",
"[$	c #1F252F",
"}$	c #1F242D",
"|$	c #1E232C",
"1$	c #1E222A",
"2$	c #1D2128",
"3$	c #1D2027",
"4$	c #1C2026",
"5$	c #1C1F25",
"6$	c #181C22",
"7$	c #16191F",
"8$	c #1D242F",
"9$	c #1F2532",
"0$	c #1F2531",
"a$	c #1F2634",
"b$	c #202835",
"c$	c #222835",
"d$	c #212834",
"e$	c #202631",
"f$	c #1E222B",
"g$	c #1D2129",
"h$	c #1C2028",
"i$	c #1A1F26",
"j$	c #181D24",
"k$	c #161B22",
"l$	c #212836",
"m$	c #222A37",
"n$	c #212937",
"o$	c #212837",
"p$	c #222936",
"q$	c #202732",
"r$	c #202530",
"s$	c #1F242E",
"t$	c #1E242E",
"u$	c #1D222C",
"v$	c #1B2129",
"w$	c #1A2028",
"x$	c #191E26",
"y$	c #171C24",
"z$	c #1F2734",
"A$	c #222A38",
"B$	c #272F3F",
"C$	c #212734",
"D$	c #1C222C",
"E$	c #1B212A",
"F$	c #1B2029",
"G$	c #1A1E27",
"H$	c #181D27",
"I$	c #212938",
"J$	c #252E3E",
"K$	c #1C212A",
"L$	c #1B212C",
"M$	c #2D384A",
"N$	c #323E52",
"O$	c #364258",
"P$	c #333F53",
"Q$	c #303B4F",
"R$	c #242D3C",
"S$	c #273041",
"T$	c #354157",
"U$	c #3A465E",
"V$	c #414F68",
"W$	c #41506A",
"X$	c #404E69",
"Y$	c #39465C",
"Z$	c #313B4E",
"`$	c #272F3E",
" %	c #242C3B",
".%	c #273142",
"+%	c #323E53",
"@%	c #41506B",
"#%	c #495976",
"$%	c #4E5F7F",
"%%	c #526383",
"&%	c #536585",
"*%	c #546584",
"=%	c #51617F",
"-%	c #4C5C79",
";%	c #44526D",
">%	c #3A475E",
",%	c #232C3C",
"'%	c #283143",
")%	c #2D384C",
"!%	c #323E54",
"~%	c #3B4861",
"{%	c #44536F",
"]%	c #4D5D7C",
"^%	c #556787",
"/%	c #596B8D",
"(%	c #596C8E",
"_%	c #485874",
":%	c #2F394B",
"<%	c #2C374A",
"[%	c #343F55",
"}%	c #39465E",
"|%	c #3E4C65",
"1%	c #3F4D66",
"2%	c #3B4961",
"3%	c #222A39",
"4%	c #1C222F",
"5%	c #07090D",
"6%	c #0A0D12",
"7%	c #11161E",
"8%	c #1E2633",
"9%	c #232C3B",
"0%	c #293244",
"a%	c #191E2A",
"b%	c #000001",
"c%	c #010101",
"d%	c #020203",
"e%	c #030406",
"f%	c #06070A",
"g%	c #090B0F",
"h%	c #0F131A",
"i%	c #161B25",
"j%	c #171C27",
"k%	c #000000",
"                                                                                                                                ",
"                                                                                                                                ",
"                                                                                                                                ",
"                                                                                                                                ",
"                                                                                                                                ",
"                                                                                                                                ",
"                                                                                                                                ",
"                                                                                                                                ",
"                                                                                                                                ",
"                                            . + @                                                                               ",
"                                        # $ % & * = - ;                                                                         ",
"                                      . $ > , ' ) ! ~ { ] ;                                                                     ",
"                                      ^ $ / ( = _ : < [ ~ = } |                                                                 ",
"                                        1 2 3 4 5 ! 1 6 7 ) 8 9 2                                                               ",
"                                            0 a $ b c 6 d e f g % 3                                                             ",
"                                            h i j k ! l m n n l 5 o p q                                                         ",
"                                              r a s ! t u v w x y z A B C C             D                                       ",
"                                              3 ( $ E F G H I J K L M N C O P Q R S T . U                                       ",
"                                              V W X Y b Z `  ...+.@.L #.$.%.a &.*.^ =.-.                                        ",
"                                              R ;.>.,.'.).!.~.{.].^./.(._.:.<.d 1 ^ ~.                                          ",
"                                              [.}.$.|.1.2.3.4.5./.6.7.8.9.0.a.l b.                                              ",
"                                              c.d.e.f.|.}.[.g.h.i.j.k.l.m.n.o.p.                                                ",
"                                              B d.f.d.q.r.) s.t.u.v.w.x.y.z.A.B.                                                ",
"                                            ~.C.D.E.X F.G.H.I.J.K.L.M.N.O.P.Q.R.S.                                              ",
"                                          T.U.V.W.X.d Y.L.Z.`. +.+++@+#+$+%+&+*+=+                                              ",
"                                        -+;+V.0 4 >+_ & ,+'+)+!+~+{+]+^+/+(+_+:+<+                                              ",
"                                    [+U.;+}+b.|+0 1+2+3+4+5+6+7+8+9+0+a+b+c+d+e+f+                                              ",
"                                    -.U.;+D -.g+h+i+j+k+l+m+n+o+p+q+r+s+t+u+v+w+B.                                              ",
"                                            x+y+y+z+A+B+C+D+E+F+G+H+I+J+K+L+M+P.N+                                              ",
"                                            ;+O+P+Q+R+S+T+U+V+W+X+Y+Z+`+ @.@+@@@#@                                              ",
"                                              $@%@o.&@*@=@-@;@>@,@'@)@O.!@~@{@]@^@                                              ",
"                                              S h /@(@_@:@<@[@}@|@1@2@3@4@5@6@7@8@                                              ",
"                                              9@0@r.a@b@{ c@d@e@f@g@h@i@j@k@l@m@n@                                              ",
"                                              o@p@q@r@s@t@u@v@w@x@y@z@A@B@C@D@; n@                                              ",
"                                            q.E@F@G@H@I@J@K@L@M@N@O@P@Q@R@S@ +T@U@                                              ",
"                                            V@W@X@Y@Z@I@`@ #.#+#@###$#%#&#*#a i U@=#                                            ",
"                                          -#;#W@>#,#'#)#!#~#K@{#]#^#/#(#_#:#<#i 2 T                                             ",
"                                          [#}#|#1#2#3#4#5#6#7#.#8#9#0#a#W.'#b#c#d#b.                                            ",
"                                          2.e#f#g#h#i#j#k#l#m#n#o#p#q#r#c#s#t#u#%.v#                                            ",
"                                        w#x#y#).3.[#z#A#B#1#C#D#E#F#G#H#I#J#K#L#M#N#                                            ",
"                                        O#P#O#N N N Q#R#!.S#T#U#V#W#X#'+Y#Z#`# $.$                                              ",
"                                      O#+$@$#${.$$%$&$&$*$=$-$;$>$,$'$)$)$!$~${$]$                                              ",
"                                    ^${.{./$%$($U -._$_$:$<$[$}$|$1$2$3$4$5$'$6$7$                                              ",
"                                    8$9$0$U U -.a$b$D D c$d$:$e$[$=$f$;$g$h$i$j$k$                                              ",
"                                  T.l$m$m$}+n$o$n$n$n$}+p$c$d$q$r$#.s$t$u$v$w$x$y$                                              ",
"                                Q#z$A$$@B$3 3 h b.R V.A$p$l$D C$_$;+_$($D$E$F$G$H$                                              ",
"                                  -+I$J$|+9 ^ ^ 9 T@3 0@S V.A$A$Q D -.*$D$K$5.L$A                                               ",
"                                    a$;.r M$N$O$) b P$Q$a W 3 R$A$C$0$&$$$$$p T.                                                ",
"                                      V@E.S$X T$U$:.V$W$X$:.Y$5 Z$=.> `$ %R }+;+                                                ",
"                                          o@.%a +%U$@%#%$%%%&%*%=%-%;%>%= ( @ $@                                                ",
"                                              ,%'%)%!%~%{%]%^%/%(%&%_%d 5 :%0 1+                                                ",
"                                                  4.T#;.<%[%}%|%1%2%E n#a@S$3%4%                                                ",
"                                                  5%6%7%$.~.8%9%r.0%q@3%o$-+a%                                                  ",
"                                                b%c%d%e%f%g%h%  V@D.i%j%                                                        ",
"                                                k%k%k%k%c%                                                                      ",
"                                                k%k%k%                                                                          ",
"                                                k%k%                                                                            ",
"                                                k%k%                                                                            ",
"                                                                                                                                ",
"                                                                                                                                ",
"                                                                                                                                ",
"                                                                                                                                ",
"                                                                                                                                ",
"                                                                                                                                "};
