/* XPM */
static char * player_dash_14_xpm[] = {
"64 64 576 2",
"  	c None",
". 	c #232B39",
"+ 	c #2F394C",
"@ 	c #323D50",
"# 	c #313A4D",
"$ 	c #293141",
"% 	c #1B212C",
"& 	c #202836",
"* 	c #3A465D",
"= 	c #202734",
"- 	c #2D3749",
"; 	c #39455B",
"> 	c #3A465C",
", 	c #354054",
"' 	c #252D3B",
") 	c #303B4E",
"! 	c #485773",
"~ 	c #303B4D",
"{ 	c #242D3C",
"] 	c #374359",
"^ 	c #3B485E",
"/ 	c #3E4A61",
"( 	c #3A455B",
"_ 	c #2B3444",
": 	c #404E67",
"< 	c #2E394B",
"[ 	c #273040",
"} 	c #354156",
"| 	c #3F4C64",
"1 	c #3B475E",
"2 	c #2E384A",
"3 	c #181E28",
"4 	c #2A3344",
"5 	c #333D52",
"6 	c #374258",
"7 	c #404D64",
"8 	c #3D4A61",
"9 	c #404D65",
"0 	c #364257",
"a 	c #293243",
"b 	c #344055",
"c 	c #39465C",
"d 	c #3D4960",
"e 	c #424F68",
"f 	c #3F4D65",
"g 	c #252D3C",
"h 	c #1C2330",
"i 	c #283142",
"j 	c #2E384B",
"k 	c #43516A",
"l 	c #475670",
"m 	c #44526C",
"n 	c #38445A",
"o 	c #2C3648",
"p 	c #202735",
"q 	c #1E2532",
"r 	c #3B485F",
"s 	c #414E67",
"t 	c #485771",
"u 	c #4E5E7A",
"v 	c #4B5A76",
"w 	c #313C50",
"x 	c #252E3D",
"y 	c #1A202C",
"z 	c #1E2533",
"A 	c #2C3649",
"B 	c #333E53",
"C 	c #3A475E",
"D 	c #414F68",
"E 	c #495772",
"F 	c #46536C",
"G 	c #424E64",
"H 	c #3E475B",
"I 	c #2A3242",
"J 	c #1A212D",
"K 	c #181D28",
"L 	c #191F2B",
"M 	c #1B222F",
"N 	c #1D2533",
"O 	c #212938",
"P 	c #262E3E",
"Q 	c #262F3F",
"R 	c #232B38",
"S 	c #272B33",
"T 	c #323640",
"U 	c #373A44",
"V 	c #33363E",
"W 	c #1A1F28",
"X 	c #161C27",
"Y 	c #181D29",
"Z 	c #181E2A",
"` 	c #131924",
" .	c #161C28",
"..	c #181F2B",
"+.	c #191F2C",
"@.	c #1A202D",
"#.	c #191F2A",
"$.	c #25272E",
"%.	c #383B45",
"&.	c #2B2D35",
"*.	c #151B27",
"=.	c #171C27",
"-.	c #171D27",
";.	c #181E29",
">.	c #141A26",
",.	c #121822",
"'.	c #151B26",
").	c #19202D",
"!.	c #1A202B",
"~.	c #21252D",
"{.	c #343740",
"].	c #32353D",
"^.	c #171E29",
"/.	c #1A212E",
"(.	c #202937",
"_.	c #252D3D",
":.	c #252C3C",
"<.	c #232A38",
"[.	c #212936",
"}.	c #212835",
"|.	c #1C222D",
"1.	c #1B222D",
"2.	c #151B25",
"3.	c #131823",
"4.	c #1C2431",
"5.	c #1D232E",
"6.	c #323540",
"7.	c #3C404C",
"8.	c #3E4451",
"9.	c #363F51",
"0.	c #3C4961",
"a.	c #3E4C65",
"b.	c #3B4961",
"c.	c #323D51",
"d.	c #2F394B",
"e.	c #2C3547",
"f.	c #2A3343",
"g.	c #262E3D",
"h.	c #1E2431",
"i.	c #232B3A",
"j.	c #283041",
"k.	c #2B3548",
"l.	c #303A4E",
"m.	c #354055",
"n.	c #38445B",
"o.	c #3E4B63",
"p.	c #45546E",
"q.	c #495872",
"r.	c #4F5F7B",
"s.	c #536483",
"t.	c #546685",
"u.	c #526382",
"v.	c #4F5F7D",
"w.	c #4C5C78",
"x.	c #465570",
"y.	c #293242",
"z.	c #202633",
"A.	c #1F2633",
"B.	c #1F2733",
"C.	c #242C3B",
"D.	c #293344",
"E.	c #39465D",
"F.	c #404D66",
"G.	c #485772",
"H.	c #586A8A",
"I.	c #5B6E90",
"J.	c #5F7396",
"K.	c #5F7295",
"L.	c #5A6C8D",
"M.	c #51617F",
"N.	c #45546D",
"O.	c #2C3545",
"P.	c #1E242F",
"Q.	c #1F2532",
"R.	c #1F2734",
"S.	c #212836",
"T.	c #242C3A",
"U.	c #283141",
"V.	c #364156",
"W.	c #3E4B61",
"X.	c #3D495F",
"Y.	c #3F4B62",
"Z.	c #414E64",
"`.	c #3B485D",
" +	c #313B4D",
".+	c #262D3A",
"++	c #1E2229",
"@+	c #25271E",
"#+	c #161616",
"$+	c #101010",
"%+	c #0A0A0A",
"&+	c #191F29",
"*+	c #141821",
"=+	c #161B24",
"-+	c #141820",
";+	c #11151B",
">+	c #171B22",
",+	c #13161B",
"'+	c #121418",
")+	c #28291F",
"!+	c #8A8B22",
"~+	c #636320",
"{+	c #181918",
"]+	c #171717",
"^+	c #565621",
"/+	c #B3B31A",
"(+	c #46461C",
"_+	c #111111",
":+	c #0D0D0D",
"<+	c #020202",
"[+	c #040404",
"}+	c #060606",
"|+	c #090909",
"1+	c #0C0C0C",
"2+	c #0F0F0F",
"3+	c #121212",
"4+	c #787825",
"5+	c #F8F808",
"6+	c #CACA1F",
"7+	c #23231B",
"8+	c #181818",
"9+	c #A0A027",
"0+	c #FCFC04",
"a+	c #828224",
"b+	c #0E0E0E",
"c+	c #06080A",
"d+	c #060607",
"e+	c #070708",
"f+	c #828223",
"g+	c #FAFA04",
"h+	c #DADA22",
"i+	c #22221A",
"j+	c #8E8E24",
"k+	c #F5F50A",
"l+	c #767626",
"m+	c #222836",
"n+	c #202632",
"o+	c #1E232D",
"p+	c #191D23",
"q+	c #141518",
"r+	c #111212",
"s+	c #131313",
"t+	c #40401C",
"u+	c #B0B01B",
"v+	c #181817",
"w+	c #3E3E1C",
"x+	c #81811E",
"y+	c #2B2B1E",
"z+	c #212225",
"A+	c #2A2E38",
"B+	c #28303F",
"C+	c #2D3747",
"D+	c #313A4A",
"E+	c #343B49",
"F+	c #383D48",
"G+	c #45474D",
"H+	c #605D5D",
"I+	c #615F5A",
"J+	c #2D2E2F",
"K+	c #151515",
"L+	c #151516",
"M+	c #4D4D50",
"N+	c #6A6769",
"O+	c #424855",
"P+	c #343D4D",
"Q+	c #242B3A",
"R+	c #283140",
"S+	c #2B3445",
"T+	c #3A4457",
"U+	c #464E60",
"V+	c #7C7A81",
"W+	c #8F8B8C",
"X+	c #515561",
"Y+	c #1E1F23",
"Z+	c #141414",
"`+	c #31343C",
" @	c #7C7A7F",
".@	c #757479",
"+@	c #333E50",
"@@	c #2D3645",
"#@	c #262F3E",
"$@	c #303A4D",
"%@	c #353F53",
"&@	c #3A4458",
"*@	c #575C6B",
"=@	c #959091",
"-@	c #6C6D77",
";@	c #2E333E",
">@	c #434853",
",@	c #88868B",
"'@	c #5D606A",
")@	c #303B4C",
"!@	c #27303E",
"~@	c #1D2532",
"{@	c #2F394D",
"]@	c #364155",
"^@	c #3D475A",
"/@	c #85848B",
"(@	c #80818C",
"_@	c #3C4454",
":@	c #111316",
"<@	c #0F1115",
"[@	c #595D6A",
"}@	c #898B99",
"|@	c #4A505F",
"1@	c #2E3849",
"2@	c #242C39",
"3@	c #1E2634",
"4@	c #222B3B",
"5@	c #252F3F",
"6@	c #293345",
"7@	c #2D384B",
"8@	c #303B4F",
"9@	c #333F53",
"0@	c #334054",
"a@	c #686C7A",
"b@	c #9597A5",
"c@	c #5A6172",
"d@	c #232A35",
"e@	c #737785",
"f@	c #818596",
"g@	c #343D4F",
"h@	c #2D3647",
"i@	c #272F3D",
"j@	c #202938",
"k@	c #212A3B",
"l@	c #222D3D",
"m@	c #252F41",
"n@	c #283447",
"o@	c #2D394D",
"p@	c #2E3C50",
"q@	c #303D52",
"r@	c #434D5F",
"s@	c #8F94A6",
"t@	c #7B8092",
"u@	c #353E4D",
"v@	c #3F424D",
"w@	c #8F8E96",
"x@	c #636673",
"y@	c #2E3A4C",
"z@	c #293241",
"A@	c #202530",
"B@	c #1C2331",
"C@	c #212A3A",
"D@	c #222B3C",
"E@	c #232E3F",
"F@	c #263143",
"G@	c #293448",
"H@	c #2C394D",
"I@	c #2D3A4F",
"J@	c #2E3B50",
"K@	c #313E52",
"L@	c #757B8E",
"M@	c #8D92A4",
"N@	c #464E5E",
"O@	c #59575B",
"P@	c #8C888B",
"Q@	c #333C4F",
"R@	c #2D394C",
"S@	c #2C3647",
"T@	c #232A36",
"U@	c #1E2636",
"V@	c #202A3B",
"W@	c #222C3D",
"X@	c #242F41",
"Y@	c #263144",
"Z@	c #2A374B",
"`@	c #2C394E",
" #	c #4E5668",
".#	c #878B9C",
"+#	c #5E6271",
"@#	c #393D47",
"##	c #5F5F66",
"$#	c #2A3549",
"%#	c #2C384B",
"&#	c #293343",
"*#	c #262E3C",
"=#	c #1F293A",
"-#	c #212B3D",
";#	c #232E40",
">#	c #273448",
",#	c #28354A",
"'#	c #2B384D",
")#	c #2C384E",
"!#	c #323F53",
"~#	c #7E808E",
"{#	c #737582",
"]#	c #353F50",
"^#	c #263246",
"/#	c #2B3649",
"(#	c #2A3447",
"_#	c #283244",
":#	c #1D232D",
"<#	c #131923",
"[#	c #19202C",
"}#	c #1C2433",
"|#	c #1E2839",
"1#	c #202B3E",
"2#	c #232E43",
"3#	c #253146",
"4#	c #283349",
"5#	c #29354B",
"6#	c #29364B",
"7#	c #2A364B",
"8#	c #2E3A4F",
"9#	c #6A6D7A",
"0#	c #807F89",
"a#	c #424A5B",
"b#	c #202837",
"c#	c #232F43",
"d#	c #273246",
"e#	c #263044",
"f#	c #242D3F",
"g#	c #191E27",
"h#	c #151A22",
"i#	c #161C26",
"j#	c #171F2C",
"k#	c #1A2333",
"l#	c #1D2739",
"m#	c #202A3D",
"n#	c #222D41",
"o#	c #243044",
"p#	c #273247",
"q#	c #4F5362",
"r#	c #76747D",
"s#	c #494E5C",
"t#	c #202835",
"u#	c #1A2232",
"v#	c #1C2534",
"w#	c #171C25",
"x#	c #12161D",
"y#	c #1A2028",
"z#	c #1A1F26",
"A#	c #181D24",
"B#	c #171C22",
"C#	c #161B21",
"D#	c #161B23",
"E#	c #161C24",
"F#	c #171C26",
"G#	c #232730",
"H#	c #313238",
"I#	c #22252C",
"J#	c #15171D",
"K#	c #15181C",
"L#	c #171A1D",
"M#	c #181A1E",
"N#	c #191B20",
"O#	c #191E28",
"P#	c #1A202A",
"Q#	c #1B2029",
"R#	c #1B202A",
"S#	c #1B212A",
"T#	c #1C212A",
"U#	c #1D222A",
"V#	c #1D2229",
"W#	c #1D2128",
"X#	c #1C2127",
"Y#	c #1C2126",
"Z#	c #1C2026",
"`#	c #1C2025",
" $	c #1C1F25",
".$	c #1C1F24",
"+$	c #1B1E24",
"@$	c #1A1E24",
"#$	c #12151A",
"$$	c #1A2029",
"%$	c #1B202B",
"&$	c #1C212B",
"*$	c #1F2530",
"=$	c #1F2531",
"-$	c #202631",
";$	c #1F252F",
">$	c #1F232C",
",$	c #1E232C",
"'$	c #1E222B",
")$	c #1D2129",
"!$	c #1C2128",
"~$	c #1C2028",
"{$	c #1B2027",
"]$	c #1A2027",
"^$	c #14191F",
"/$	c #1C222C",
"($	c #1E2430",
"_$	c #212834",
":$	c #202733",
"<$	c #1E242E",
"[$	c #1D222B",
"}$	c #1B2129",
"|$	c #171B23",
"1$	c #1C232E",
"2$	c #1D2430",
"3$	c #1E2531",
"4$	c #222936",
"5$	c #222935",
"6$	c #212733",
"7$	c #1F242F",
"8$	c #1A1F2A",
"9$	c #1D232F",
"0$	c #212937",
"a$	c #222937",
"b$	c #222A37",
"c$	c #212734",
"d$	c #1F2632",
"e$	c #1C212C",
"f$	c #222938",
"g$	c #222A38",
"h$	c #242C3C",
"i$	c #222A39",
"j$	c #222B3A",
"k$	c #1E2530",
"l$	c #1D222D",
"m$	c #354155",
"n$	c #2D374A",
"o$	c #293244",
"p$	c #1B212E",
"q$	c #242D3D",
"r$	c #425069",
"s$	c #44536D",
"t$	c #4B5C7A",
"u$	c #4D5E7D",
"v$	c #4C5D7B",
"w$	c #4E5F7C",
"x$	c #4F607E",
"y$	c #516280",
"z$	c #526483",
"A$	c #4E5F7D",
"B$	c #44536E",
"C$	c #323C4F",
"D$	c #27303F",
"E$	c #151A24",
"F$	c #212A39",
"G$	c #252F40",
"H$	c #2C364A",
"I$	c #333E54",
"J$	c #42506A",
"K$	c #4A5A77",
"L$	c #526484",
"M$	c #5B6E93",
"N$	c #60759B",
"O$	c #677DA4",
"P$	c #6D84AB",
"Q$	c #6C82AA",
"R$	c #677CA2",
"S$	c #566888",
"T$	c #475671",
"U$	c #3A475D",
"V$	c #121720",
"W$	c #262F40",
"X$	c #303C51",
"Y$	c #37445B",
"Z$	c #3E4D67",
"`$	c #455571",
" %	c #4C5C79",
".%	c #4D5D7A",
"+%	c #465571",
"@%	c #323E53",
"#%	c #2A3446",
"$%	c #252E3F",
"%%	c #19202B",
"&%	c #1B2330",
"*%	c #232B3C",
"=%	c #242D3E",
"-%	c #263041",
";%	c #273143",
">%	c #283345",
",%	c #293346",
"'%	c #283245",
")%	c #1F2736",
"!%	c #131821",
"~%	c #0A0D13",
"{%	c #0D1219",
"]%	c #141A24",
"^%	c #0B0E14",
"/%	c #000000",
"(%	c #010101",
"_%	c #000101",
"                                                                                                                                ",
"                                                                                                                                ",
"                                                                                                                                ",
"                                                                                                                                ",
"                                                                                                                                ",
"                                                                                                                                ",
"                                                                                                                                ",
"                                                                                                                                ",
"                                              . + @ # $ %                                                                       ",
"                                            & * = - ; > , '                                                                     ",
"                                            ) ! ~ { ] ^ / ( _                                                                   ",
"                                              : < [ } ; / | 1 2 3                                                               ",
"                                                  4 5 6 1 | 7 ; 2 3                                                             ",
"                                                  4 ) } * 8 9 ^ 0 4                                                             ",
"                                                  a + b c d e f ; @ g                                                           ",
"                                                h i j b 1 | k l m n o p                                                         ",
"                                                q i j b r s t u v : w x y                                                       ",
"                                                z [ A B C D E F G H I J 3 K                                                     ",
"                                                L M N O P Q R S T U V W X Y K                                                   ",
"                                                Z X `  ...+.@.y #.$.%.&.*.X =.-.                                                ",
"                                              ;.Z >.,.'.Z ).).+.!.~.{.].^./.(._.:.<.[.}.}.|.                                    ",
"                                            1.J ;.2.3.X ..@.4.5.6.7.8.9.0.a.b.] c.d.e.f.g.3                                     ",
"                                        h.q p i.j.k.l.m.n.o.p.! q.r.s.t.u.v.w.x.o.m.y.z.                                        ",
"                                    A.B.= [.C.D.w E.F.m G.w.s.H.I.J.K.L.M.N.( O.P.                                              ",
"                                    Q.R.S.T.U.- B ] V.W.X., Y.Z.Z.`. +.+++@+#+$+%+                                              ",
"                                            &+*+=+-+;+>+,+'+)+!+~+{+]+]+^+/+(+_+:+                                              ",
"                                              <+[+}+|+1+2+3+4+5+6+7+8+8+9+0+a+3+b+                                              ",
"                                              c+d+e+|+1+2+3+f+g+h+i+8+8+j+k+l+_+b+                                              ",
"                                            q m+n+o+p+q+r+s+t+u+f+v+]+]+w+x+y+z+A+                                              ",
"                                            Q.B+f.C+D+E+F+G+H+I+J+K+#+#+L+M+N+O+P+                                              ",
"                                              Q+R+S+2 @ T+U+V+W+X+Y+Z+Z+`+ @.@+@@@                                              ",
"                                              p #@a o $@%@&@*@=@-@;@3+_+>@,@'@)@!@                                              ",
"                                              ~@{ i o {@c.]@^@/@(@_@:@<@[@}@|@1@2@                                              ",
"                                              3@4@5@6@7@8@9@0@a@b@c@d@@.e@f@g@h@i@                                              ",
"                                              j@k@l@m@n@o@p@q@r@s@t@u@v@w@x@y@h@z@A@                                            ",
"                                            B@C@D@E@F@G@H@I@J@K@L@M@N@O@P@Q@R@S@y.T@                                            ",
"                                            U@V@W@X@Y@G@Z@`@I@J@ #.#+#@###$#%#k.&#*#                                            ",
"                                           .U@=#-#;#Y@>#,#'#)#`@!#~#{#]#i.^#/#(#_#[ :#                                          ",
"                                          <#[#}#|#1#2#3#4#5#6#7#8#9#0#a#b#c#d#e#f#O g#                                          ",
"                                            h#=+i#j#k#l#m#n#2#o#p#q#r#s#t#u#v#@.w#x#                                            ",
"                                            W y#z#A#B#C#D#E#F#-.3 G#H#I#J#K#L#M#N#                                              ",
"                                          O#P#P#Q#R#S#T#U#V#V#W#X#Y#Z#`# $ $.$+$@$#$                                            ",
"                                          $$R#%$&$|.5.*$=$-$-$;$>$,$'$V#)$!$~${$]$^$                                            ",
"                                        O#R#%$/$5.($=$= = _$_$:$-$A@<$,$'$[$}$y#y#|$                                            ",
"                                        P#% |.1$2$3$z.t#}.4$5$}.6$-$;$7$7$5.&$R#Q#g#                                            ",
"                                      8$9$5.9$h.A.p [.0$a$b$4$}.c$:$:$c$d$5.&$R#e$%                                             ",
"                                      Q.a$S.= A.p S.f$O g$a$4$4$a$f$g$}.=$:#&$/$3$9$                                            ",
"                                    F#a$g B+z@y.Q h$i$g$g$i$i$i.j$i$}.n+k$5.l$Q.B.=                                             ",
"                                    &+& i.$ - @ m$] } w n$o$Q h$i.f$a$<.C.P [ U.R+i@                                            ",
"                                      p$(.q$_#8@n o.r$s$! t$u$v$w$x$y$z$A$B$; C$h@D$P#                                          ",
"                                        E$h F$G$H$I$C J$K$L$M$N$O$P$Q$R$S$T$U$) U.0$                                            ",
"                                              V$O W$_#k.X$Y$Z$`$ %v..%+%0.@%#%$%O %%                                            ",
"                                                  2.&%b#*%=%-%;%>%,%>%'%_#4@)%[#!%                                              ",
"                                                          ~%{%2.4.B@^.X ]%^%                                                    ",
"                                                          /%/%(%    (%_%                                                        ",
"                                                          /%/%/%  /%/%/%                                                        ",
"                                                          /%/%/%  /%/%                                                          ",
"                                                          /%/%/%  /%                                                            ",
"                                                            /%                                                                  ",
"                                                            /%                                                                  ",
"                                                            /%                                                                  ",
"                                                                                                                                ",
"                                                                                                                                ",
"                                                                                                                                "};
