/* XPM */
static char * player_dash_10_xpm[] = {
"64 64 592 2",
"  	c None",
". 	c #212836",
"+ 	c #2C3545",
"@ 	c #2D3747",
"# 	c #293141",
"$ 	c #232B3A",
"% 	c #343F53",
"& 	c #2B3445",
"* 	c #313B4E",
"= 	c #354055",
"- 	c #333E51",
"; 	c #2F394A",
"> 	c #2A3343",
", 	c #343F54",
"' 	c #2C3648",
") 	c #2E384A",
"! 	c #2F394C",
"~ 	c #384359",
"{ 	c #3A465C",
"] 	c #374358",
"^ 	c #2E3749",
"/ 	c #364257",
"( 	c #3B485E",
"_ 	c #27303F",
": 	c #364156",
"< 	c #3C485F",
"[ 	c #3C4960",
"} 	c #354054",
"| 	c #2F394B",
"1 	c #293242",
"2 	c #3A465D",
"3 	c #2D3749",
"4 	c #323D51",
"5 	c #374258",
"6 	c #3D4A61",
"7 	c #3A475D",
"8 	c #2A3344",
"9 	c #2F3A4D",
"0 	c #39455B",
"a 	c #3C4860",
"b 	c #3F4C64",
"c 	c #3E4B62",
"d 	c #3B485F",
"e 	c #273040",
"f 	c #222A38",
"g 	c #273041",
"h 	c #323D52",
"i 	c #404D66",
"j 	c #43516B",
"k 	c #45546E",
"l 	c #212937",
"m 	c #181D28",
"n 	c #262E3E",
"o 	c #2B3546",
"p 	c #313C4F",
"q 	c #374359",
"r 	c #425069",
"s 	c #495873",
"t 	c #4B5B77",
"u 	c #435069",
"v 	c #374256",
"w 	c #29313F",
"x 	c #1B202A",
"y 	c #171D28",
"z 	c #242D3C",
"A 	c #2F3A4E",
"B 	c #354157",
"C 	c #475670",
"D 	c #3B475C",
"E 	c #353C4A",
"F 	c #333743",
"G 	c #242831",
"H 	c #21252F",
"I 	c #171D27",
"J 	c #171C27",
"K 	c #161B26",
"L 	c #202735",
"M 	c #212835",
"N 	c #222937",
"O 	c #232A38",
"P 	c #2B3547",
"Q 	c #2F394D",
"R 	c #262E3C",
"S 	c #262A34",
"T 	c #292E38",
"U 	c #22262F",
"V 	c #2C2F38",
"W 	c #272A33",
"X 	c #1E232D",
"Y 	c #161C27",
"Z 	c #191F2B",
"` 	c #252E3E",
" .	c #283242",
"..	c #283141",
"+.	c #293243",
"@.	c #1B212C",
"#.	c #1F2734",
"$.	c #1F2735",
"%.	c #1D2533",
"&.	c #1C2331",
"*.	c #19202C",
"=.	c #1C222E",
"-.	c #1A1F2B",
";.	c #222630",
">.	c #292C35",
",.	c #333741",
"'.	c #202530",
").	c #293344",
"!.	c #364258",
"~.	c #191F2A",
"{.	c #181E29",
"].	c #151B27",
"^.	c #151B26",
"/.	c #161D29",
"(.	c #181E2B",
"_.	c #19202D",
":.	c #1A1F2A",
"<.	c #2B2F38",
"[.	c #3E424D",
"}.	c #343B4A",
"|.	c #404E67",
"1.	c #485773",
"2.	c #475671",
"3.	c #424F69",
"4.	c #252D3B",
"5.	c #161D28",
"6.	c #141A25",
"7.	c #141A24",
"8.	c #191F2C",
"9.	c #1C2330",
"0.	c #343C4C",
"a.	c #414A5C",
"b.	c #47546C",
"c.	c #536483",
"d.	c #566888",
"e.	c #556686",
"f.	c #4D5D7A",
"g.	c #3D4A60",
"h.	c #272F3D",
"i.	c #151920",
"j.	c #171D29",
"k.	c #161C28",
"l.	c #1A202D",
"m.	c #222A39",
"n.	c #2B3446",
"o.	c #44526B",
"p.	c #4D5D78",
"q.	c #556685",
"r.	c #5B6E90",
"s.	c #5C6F90",
"t.	c #526381",
"u.	c #3E4A61",
"v.	c #272D3B",
"w.	c #15181C",
"x.	c #0D0D0E",
"y.	c #1C232F",
"z.	c #1D2431",
"A.	c #202836",
"B.	c #44526C",
"C.	c #4C5B77",
"D.	c #4E5F7B",
"E.	c #526280",
"F.	c #516280",
"G.	c #4B5A75",
"H.	c #384357",
"I.	c #222832",
"J.	c #16181A",
"K.	c #131313",
"L.	c #131311",
"M.	c #0F0F0E",
"N.	c #0B0B0B",
"O.	c #1D2430",
"P.	c #1E2532",
"Q.	c #202835",
"R.	c #252E3D",
"S.	c #3E4B63",
"T.	c #414E66",
"U.	c #44516A",
"V.	c #3D495F",
"W.	c #394458",
"X.	c #353F50",
"Y.	c #32393E",
"Z.	c #242727",
"`.	c #171819",
" +	c #161616",
".+	c #161615",
"++	c #2A2A18",
"@+	c #343415",
"#+	c #191911",
"$+	c #0D0D0C",
"%+	c #1F2733",
"&+	c #242C3B",
"*+	c #303B4F",
"=+	c #2D3646",
"-+	c #262D3B",
";+	c #1A1E25",
">+	c #1C1F22",
",+	c #545521",
"'+	c #656518",
")+	c #373718",
"!+	c #1B1B18",
"~+	c #171717",
"{+	c #3C3C1D",
"]+	c #86861A",
"^+	c #626215",
"/+	c #232313",
"(+	c #0E0E0E",
"_+	c #1F2632",
":+	c #1F2633",
"<+	c #202734",
"[+	c #252D3C",
"}+	c #202733",
"|+	c #1A1F29",
"1+	c #111419",
"2+	c #111317",
"3+	c #0E0F10",
"4+	c #131312",
"5+	c #55551D",
"6+	c #B4B416",
"7+	c #9D9D14",
"8+	c #4C4C1B",
"9+	c #1B1B19",
"0+	c #23231A",
"a+	c #81811D",
"b+	c #B6B613",
"c+	c #797917",
"d+	c #222214",
"e+	c #181D27",
"f+	c #0F1218",
"g+	c #0D0E13",
"h+	c #0A0C0E",
"i+	c #0C0C0E",
"j+	c #0F0F10",
"k+	c #212115",
"l+	c #7C7C17",
"m+	c #C6C60F",
"n+	c #ABAB17",
"o+	c #40401D",
"p+	c #191918",
"q+	c #31311A",
"r+	c #828218",
"s+	c #ACAC16",
"t+	c #5C5C1D",
"u+	c #0D0D0D",
"v+	c #141921",
"w+	c #181C26",
"x+	c #181D25",
"y+	c #181B23",
"z+	c #171A20",
"A+	c #16181C",
"B+	c #161719",
"C+	c #29291A",
"D+	c #6A6A1A",
"E+	c #A2A11B",
"F+	c #6D6D26",
"G+	c #1C1C19",
"H+	c #181817",
"I+	c #2A2A19",
"J+	c #5C5C17",
"K+	c #5D5D1D",
"L+	c #1B1B17",
"M+	c #181818",
"N+	c #1D1E23",
"O+	c #272E3B",
"P+	c #272E3A",
"Q+	c #272C36",
"R+	c #282C34",
"S+	c #363837",
"T+	c #5B5B3E",
"U+	c #646346",
"V+	c #353534",
"W+	c #1E1E20",
"X+	c #1C1C16",
"Y+	c #252517",
"Z+	c #222323",
"`+	c #403F41",
" @	c #404248",
".@	c #323A48",
"+@	c #283140",
"@@	c #2B3444",
"#@	c #2E3748",
"$@	c #323B4B",
"%@	c #3A4150",
"&@	c #494E59",
"*@	c #646469",
"=@	c #67666A",
"-@	c #49494E",
";@	c #282A2D",
">@	c #171719",
",@	c #141414",
"'@	c #212225",
")@	c #5E5D63",
"!@	c #6E6D72",
"~@	c #404757",
"{@	c #2D3645",
"]@	c #232B39",
"^@	c #262F3E",
"/@	c #323C4F",
"(@	c #394356",
"_@	c #485060",
":@	c #626571",
"<@	c #6F6F77",
"[@	c #5B5C64",
"}@	c #303239",
"|@	c #18191B",
"1@	c #141416",
"2@	c #42454C",
"3@	c #78777D",
"4@	c #5E626E",
"5@	c #343E4F",
"6@	c #202936",
"7@	c #343F52",
"8@	c #3E475A",
"9@	c #555B69",
"0@	c #6D707A",
"a@	c #616570",
"b@	c #3B3F49",
"c@	c #1D1F24",
"d@	c #1C1E23",
"e@	c #545660",
"f@	c #777A85",
"g@	c #4E5566",
"h@	c #2F3849",
"i@	c #232D3C",
"j@	c #263041",
"k@	c #293446",
"l@	c #2D384B",
"m@	c #303C4F",
"n@	c #364155",
"o@	c #485061",
"p@	c #646978",
"q@	c #6A6F7E",
"r@	c #4D5260",
"s@	c #272B33",
"t@	c #282C37",
"u@	c #686D7B",
"v@	c #757A8A",
"w@	c #3D4556",
"x@	c #272E3C",
"y@	c #202938",
"z@	c #222B3C",
"A@	c #242E3F",
"B@	c #273244",
"C@	c #2A3649",
"D@	c #2D3A4D",
"E@	c #303D51",
"F@	c #3D485B",
"G@	c #596173",
"H@	c #6D7486",
"I@	c #5D6373",
"J@	c #353B47",
"K@	c #444957",
"L@	c #82838F",
"M@	c #5F6370",
"N@	c #2B3545",
"O@	c #28303E",
"P@	c #202A3A",
"Q@	c #222C3D",
"R@	c #242F40",
"S@	c #263144",
"T@	c #293549",
"U@	c #2C394D",
"V@	c #2D3B50",
"W@	c #354155",
"X@	c #4C5669",
"Y@	c #687083",
"Z@	c #666C7D",
"`@	c #474D5C",
" #	c #656670",
".#	c #73737A",
"+#	c #3A4252",
"@#	c #2D374A",
"##	c #28313F",
"$#	c #252C39",
"%#	c #1E2736",
"&#	c #222C3E",
"*#	c #242F41",
"=#	c #263245",
"-#	c #2A374C",
";#	c #2C394E",
">#	c #303C51",
",#	c #404B5F",
"'#	c #5C6477",
")#	c #63697A",
"!#	c #5A5E6C",
"~#	c #5D5F67",
"{#	c #464B57",
"]#	c #2A3548",
"^#	c #2B3649",
"/#	c #2A3446",
"(#	c #1A212E",
"_#	c #1D2534",
":#	c #1F2838",
"<#	c #212B3C",
"[#	c #232E40",
"}#	c #253144",
"|#	c #273448",
"1#	c #29354A",
"2#	c #2B384D",
"3#	c #354156",
"4#	c #4A5467",
"5#	c #666B7A",
"6#	c #5E626F",
"7#	c #474C59",
"8#	c #293244",
"9#	c #273245",
"0#	c #273142",
"a#	c #181E2A",
"b#	c #1B2332",
"c#	c #1D2636",
"d#	c #1F293B",
"e#	c #222D40",
"f#	c #242F43",
"g#	c #263247",
"h#	c #283449",
"i#	c #2D394E",
"j#	c #444D60",
"k#	c #606574",
"l#	c #5F626F",
"m#	c #3E4554",
"n#	c #273042",
"o#	c #242E41",
"p#	c #273144",
"q#	c #263042",
"r#	c #232C3D",
"s#	c #1F2634",
"t#	c #181E28",
"u#	c #191F29",
"v#	c #181F2A",
"w#	c #1A2230",
"x#	c #1C2433",
"y#	c #1E2737",
"z#	c #1F293A",
"A#	c #253042",
"B#	c #363E4F",
"C#	c #545763",
"D#	c #555762",
"E#	c #343B48",
"F#	c #1E2635",
"G#	c #1A1F28",
"H#	c #15181F",
"I#	c #191E28",
"J#	c #1A2029",
"K#	c #1A202B",
"L#	c #1A212C",
"M#	c #1B212D",
"N#	c #282D37",
"O#	c #383A41",
"P#	c #2E313A",
"Q#	c #1B2028",
"R#	c #181C23",
"S#	c #181B21",
"T#	c #181A1E",
"U#	c #14161A",
"V#	c #1B212B",
"W#	c #1C212C",
"X#	c #1C222C",
"Y#	c #1D222D",
"Z#	c #1D232E",
"`#	c #1D232D",
" $	c #1D222B",
".$	c #1D2129",
"+$	c #1F2329",
"@$	c #1F2228",
"#$	c #1C1F25",
"$$	c #1A1D22",
"%$	c #1A1D21",
"&$	c #1A1D20",
"*$	c #191B1F",
"=$	c #1A202A",
"-$	c #1C222D",
";$	c #1D232F",
">$	c #1E2430",
",$	c #1F2531",
"'$	c #202633",
")$	c #212732",
"!$	c #1F242D",
"~$	c #1E232C",
"{$	c #1E222A",
"]$	c #1D2127",
"^$	c #1C2026",
"/$	c #1B1E24",
"($	c #191D23",
"_$	c #161A20",
":$	c #1D242F",
"<$	c #1E2531",
"[$	c #222835",
"}$	c #212834",
"|$	c #212733",
"1$	c #202631",
"2$	c #1F252F",
"3$	c #1E232B",
"4$	c #1D222A",
"5$	c #1C2128",
"6$	c #1B2027",
"7$	c #191E25",
"8$	c #161B22",
"9$	c #212735",
"0$	c #212837",
"a$	c #222936",
"b$	c #1F242F",
"c$	c #1E242E",
"d$	c #1D232C",
"e$	c #1B212A",
"f$	c #1B2029",
"g$	c #191F27",
"h$	c #171C24",
"i$	c #242C3A",
"j$	c #212734",
"k$	c #1F2530",
"l$	c #1C212B",
"m$	c #191E27",
"n$	c #283142",
"o$	c #222938",
"p$	c #212936",
"q$	c #1E242F",
"r$	c #1B202B",
"s$	c #1B222E",
"t$	c #1E2634",
"u$	c #273141",
"v$	c #313C50",
"w$	c #2E384B",
"x$	c #262F3F",
"y$	c #202632",
"z$	c #232B3B",
"A$	c #2E394C",
"B$	c #3A475E",
"C$	c #3D4A62",
"D$	c #3F4C65",
"E$	c #3F4D66",
"F$	c #3E4B65",
"G$	c #3B4860",
"H$	c #37435A",
"I$	c #303A4D",
"J$	c #283040",
"K$	c #1E2533",
"L$	c #333F54",
"M$	c #39465E",
"N$	c #414F69",
"O$	c #485774",
"P$	c #4D5E7D",
"Q$	c #506281",
"R$	c #526383",
"S$	c #536482",
"T$	c #51617F",
"U$	c #3D4B63",
"V$	c #272F3E",
"W$	c #202736",
"X$	c #242C3C",
"Y$	c #283143",
"Z$	c #2E384C",
"`$	c #344157",
" %	c #3C4A62",
".%	c #455470",
"+%	c #4D5E7C",
"@%	c #556787",
"#%	c #5B6D8F",
"$%	c #5C6F91",
"%%	c #596C8D",
"&%	c #4E5F7D",
"*%	c #42516B",
"=%	c #38445A",
"-%	c #212A39",
";%	c #202837",
">%	c #2C374A",
",%	c #3C4961",
"'%	c #43516C",
")%	c #3F4E67",
"!%	c #3A475F",
"~%	c #344056",
"{%	c #0E1219",
"]%	c #0C0F15",
"^%	c #10151C",
"/%	c #1F2836",
"(%	c #232C3B",
"_%	c #262F40",
":%	c #293345",
"<%	c #283244",
"[%	c #242D3D",
"}%	c #212938",
"|%	c #010102",
"1%	c #020203",
"2%	c #040507",
"3%	c #0A0D13",
"4%	c #090C11",
"5%	c #10141C",
"6%	c #1B212E",
"7%	c #1A202C",
"8%	c #151B25",
"9%	c #000000",
"0%	c #000101",
"a%	c #020304",
"                                                                                                                                ",
"                                                                                                                                ",
"                                                                                                                                ",
"                                                                                                                                ",
"                                                                                                                                ",
"                                                                                                                                ",
"                                                                                                                                ",
"                                                                                                                                ",
"                                                                                                                                ",
"                                          . + + @ + #                                                                           ",
"                                        $ % & * = = - ; >                                                                       ",
"                                        , ' ) ! ~ { { ] - ^                                                                     ",
"                                        / ( _ ^ : { < [ { } | 1                                                                 ",
"                                        2 &   3 4 5 2 6 [ 7 = | 1                                                               ",
"                                              8 9 , 0 a b c d ] 9 e f                                                           ",
"                                              g 3 h ~ [ i j k i / ' l m                                                         ",
"                                              n o p q 6 r s t u v w x m y                                                       ",
"                                              z 8 A B d r C D E F G H x I J K     L M N O                                       ",
"                                              $ g P Q 4 p R S T U V W X Y Z `  ...1 +.# @.                                      ",
"                                              #.$.$.%.&.*.@.=.-.;.>.,.'.).B q !.: 4 > ~.                                        ",
"                                              ~.{.].^./.(._.*.:.<.[.}.|.1.1.2.3.= 4.                                            ",
"                                              {.5.6.7.Y 8.9.l 0.a.b.c.d.e.f.g.h.i.                                              ",
"                                              Z j.k.l.m.n.5 o.p.q.r.s.t.u.v.w.x.                                                ",
"                                            y.z.A.g 4 a B.C.D.E.F.G.H.I.J.K.L.M.N.                                              ",
"                                        O.P.Q.R.3 !.S.T.U.V.W.X.Y.Z.`. +.+++@+#+$+                                              ",
"                                      P.%+. &+8 *+= * =+-+;+>+,+'+)+!+~+{+]+^+/+(+                                              ",
"                                    _+:+<+N [+&+}+|+1+2+3+4+5+6+7+8+9+0+a+b+c+d+(+                                              ",
"                                            e+f+g+h+i+x.j+k+l+m+n+o+p+q+r+s+t+4+u+                                              ",
"                                            v+w+x+y+z+A+B+C+D+E+F+G+H+I+J+K+L+M+N+                                              ",
"                                            <+O 4.O+P+Q+R+S+T+U+V+W+~+X+Y+Z+`+ @.@                                              ",
"                                              [++@@@#@$@%@&@*@=@-@;@>@,@'@)@!@~@{@                                              ",
"                                              ]@^@).3 /@(@_@:@<@[@}@|@1@2@3@4@5@w                                               ",
"                                              6@R. .' 9 7@8@9@0@a@b@c@d@e@f@g@h@-+                                              ",
"                                              A.i@j@k@l@m@n@o@p@q@r@s@t@u@v@w@& x@                                              ",
"                                            9.y@z@A@B@C@D@E@F@G@H@I@J@K@L@M@| N@O@                                              ",
"                                            %.P@Q@R@S@T@U@V@W@X@Y@Z@`@ #.#+#@#o ##$#                                            ",
"                                          8.%#P@&#*#=#T@-#;#>#,#'#)#!#~#{#]#^#/#..4.                                            ",
"                                          (#_#:#<#[#}#|#1#2#;#3#4#5#6#7#8#9#]#k@0#[+                                            ",
"                                          a#(#b#c#d#e#f#g#h#1#i#j#k#l#m#n#o#p#q#r#s#                                            ",
"                                          t#u#v#_.w#x#y#z#<#&#A#B#C#D#E#%.x#F#y.G#H#                                            ",
"                                        I#J#|+|+|+u#:.K#L#M#=.O.N#O#P#Q#i.R#S#T#U#                                              ",
"                                      e+x x V#W#X#Y#Z#Z#`#`# $.$+$@$#$$$$$%$&$*$w.                                              ",
"                                      =$@.X#-$;$>$,$'$'$}+)$'.!$~${$.$]$^$#$/$($_$                                              ",
"                                    =$O.:$;$O.<$:+<+Q.M [$}$|$1$2$!$3${$4$5$6$7$8$                                              ",
"                                  t#:+M 9$<+<+<+Q.l 0$N N a$}$|$1$b$b$c$d$e$f$g$h$                                              ",
"                                  :$N i$[+R.[+&+$ m.f f N a$M j$}+}+}+k$Y#l$f$G#m$                                              ",
"                                  <$l [+..n.' ' /#n$n &+]@f f o$o$p$}+q$Y#l$r$-$K#                                              ",
"                                  s$t$$ u$3 v$= : , p w$P n$x$z O M y$>$`#Y#<$z.@.                                              ",
"                                      t$z$n$A$B B$C$D$E$F$G$H$% I$^ @@J$[+&+]@a$}+                                              ",
"                                        s$K$g w$L$M$N$O$P$Q$R$S$T$f.2.U$= ) @@V$M                                               ",
"                                            W$X$Y$Z$`$ %.%+%@%#%$%%%&%*%=%* & 4.;$                                              ",
"                                                $.-%;%` >%B ,%|.'%)%!%~%w$+.X$P.                                                ",
"                                                  {%]%^%v#A./%(%_%:%<%[%}%s#s$                                                  ",
"                                                  |%1%2%3%4%]%5%6%t$7%8%                                                        ",
"                                                  9%9%9%0%|%a%                                                                  ",
"                                                  9%9%9%9%                                                                      ",
"                                                  9%9%9%                                                                        ",
"                                                  9%9%                                                                          ",
"                                                  9%                                                                            ",
"                                                                                                                                ",
"                                                                                                                                ",
"                                                                                                                                ",
"                                                                                                                                ",
"                                                                                                                                "};
