/* XPM */
static char * player_walk_2_xpm[] = {
"64 64 583 2",
"  	c None",
". 	c #212836",
"+ 	c #2A3343",
"@ 	c #262E3D",
"# 	c #2F3A4D",
"$ 	c #374358",
"% 	c #374258",
"& 	c #3A465C",
"* 	c #39445A",
"= 	c #2D3648",
"- 	c #465571",
"; 	c #222A38",
"> 	c #1E2633",
", 	c #38445A",
"' 	c #3C485E",
") 	c #3C485F",
"! 	c #354155",
"~ 	c #1B212D",
"{ 	c #506180",
"] 	c #4C5D79",
"^ 	c #1B222E",
"/ 	c #364257",
"( 	c #39455C",
"_ 	c #3F4C63",
": 	c #3E4B62",
"< 	c #384459",
"[ 	c #202735",
"} 	c #272F3F",
"| 	c #27303F",
"1 	c #242D3C",
"2 	c #343F54",
"3 	c #374359",
"4 	c #404D64",
"5 	c #212937",
"6 	c #273040",
"7 	c #313C4F",
"8 	c #364156",
"9 	c #3A465D",
"0 	c #424F68",
"a 	c #1E2531",
"b 	c #283141",
"c 	c #354054",
"d 	c #39465C",
"e 	c #3D4A61",
"f 	c #404D65",
"g 	c #313B4E",
"h 	c #181E28",
"i 	c #283142",
"j 	c #2E384B",
"k 	c #344054",
"l 	c #3D4961",
"m 	c #414E66",
"n 	c #414E67",
"o 	c #39455B",
"p 	c #333E52",
"q 	c #1D2431",
"r 	c #2E384A",
"s 	c #344055",
"t 	c #3B485F",
"u 	c #43516B",
"v 	c #495873",
"w 	c #475670",
"x 	c #2D374A",
"y 	c #212837",
"z 	c #1F2634",
"A 	c #343F55",
"B 	c #3B475E",
"C 	c #404E67",
"D 	c #495872",
"E 	c #4F5F7C",
"F 	c #4C5B77",
"G 	c #414F68",
"H 	c #313C50",
"I 	c #272F40",
"J 	c #1C222F",
"K 	c #2D374B",
"L 	c #333F55",
"M 	c #45536D",
"N 	c #47566F",
"O 	c #435067",
"P 	c #3E495E",
"Q 	c #2A3345",
"R 	c #1C2430",
"S 	c #181E29",
"T 	c #181D28",
"U 	c #181E2A",
"V 	c #171C27",
"W 	c #171D29",
"X 	c #1F2735",
"Y 	c #1B212E",
"Z 	c #2A2D34",
"` 	c #3A3D47",
" .	c #434751",
"..	c #3C3E48",
"+.	c #151A25",
"@.	c #161C27",
"#.	c #181F2A",
"$.	c #151B27",
"%.	c #131924",
"&.	c #181F2C",
"*.	c #191F2C",
"=.	c #1A212E",
"-.	c #19202D",
";.	c #171D28",
">.	c #2D3038",
",.	c #41444F",
"'.	c #2E3039",
").	c #161C28",
"!.	c #191F2B",
"~.	c #141924",
"{.	c #121722",
"].	c #181E2B",
"^.	c #19202C",
"/.	c #1D2028",
"(.	c #383B44",
"_.	c #30333C",
":.	c #202734",
"<.	c #1D232E",
"[.	c #1D232F",
"}.	c #1E2431",
"|.	c #1C232F",
"1.	c #1A202C",
"2.	c #131822",
"3.	c #141A24",
"4.	c #151B26",
"5.	c #161D28",
"6.	c #1E222A",
"7.	c #3C3F48",
"8.	c #444752",
"9.	c #40434E",
"0.	c #343E4F",
"a.	c #3B4860",
"b.	c #3C4961",
"c.	c #364259",
"d.	c #2C3648",
"e.	c #293243",
"f.	c #283040",
"g.	c #283140",
"h.	c #1E2532",
"i.	c #1F2633",
"j.	c #232A38",
"k.	c #364157",
"l.	c #404D67",
"m.	c #43516C",
"n.	c #495874",
"o.	c #4E5F7D",
"p.	c #4C5C79",
"q.	c #516280",
"r.	c #556787",
"s.	c #536483",
"t.	c #4C5D7A",
"u.	c #4A5975",
"v.	c #43526C",
"w.	c #3D4A62",
"x.	c #1D2430",
"y.	c #212936",
"z.	c #212835",
"A.	c #222937",
"B.	c #242B39",
"C.	c #2D3749",
"D.	c #354055",
"E.	c #425069",
"F.	c #46546E",
"G.	c #4A5974",
"H.	c #566887",
"I.	c #5B6D8E",
"J.	c #5D7193",
"K.	c #62769A",
"L.	c #62779B",
"M.	c #607598",
"N.	c #5A6D8E",
"O.	c #526382",
"P.	c #3E4B63",
"Q.	c #1C222E",
"R.	c #242C3B",
"S.	c #2A3445",
"T.	c #313B4F",
"U.	c #3B475D",
"V.	c #374256",
"W.	c #435069",
"X.	c #475570",
"Y.	c #495974",
"Z.	c #46556F",
"`.	c #2E3749",
" +	c #2B3035",
".+	c #353728",
"++	c #111213",
"@+	c #0E0E0E",
"#+	c #090909",
"$+	c #030406",
"%+	c #050609",
"&+	c #080A0E",
"*+	c #07080A",
"=+	c #0A0B0D",
"-+	c #0F1014",
";+	c #0D0D0E",
">+	c #101011",
",+	c #5E5E20",
"'+	c #CACA20",
")+	c #6B6B24",
"!+	c #171717",
"~+	c #181818",
"{+	c #A6A628",
"]+	c #E2E220",
"^+	c #36361C",
"/+	c #111111",
"(+	c #0B0B0B",
"_+	c #000000",
":+	c #020202",
"<+	c #040404",
"[+	c #070707",
"}+	c #0A0A0A",
"|+	c #0D0D0D",
"1+	c #0F0F0F",
"2+	c #121212",
"3+	c #B4B427",
"4+	c #FFFF00",
"5+	c #C5C527",
"6+	c #1A1A18",
"7+	c #191919",
"8+	c #CBCB27",
"9+	c #FDFD0B",
"0+	c #5C5C26",
"a+	c #10151D",
"b+	c #0A0E13",
"c+	c #060709",
"d+	c #070708",
"e+	c #090A0A",
"f+	c #0C0C0C",
"g+	c #101010",
"h+	c #A5A528",
"i+	c #FFFF01",
"j+	c #BCBC28",
"k+	c #191918",
"l+	c #A4A428",
"m+	c #E9E91D",
"n+	c #3E3E1E",
"o+	c #111216",
"p+	c #2A3242",
"q+	c #2B3342",
"r+	c #2C3342",
"s+	c #2D323E",
"t+	c #27292F",
"u+	c #151516",
"v+	c #38381B",
"w+	c #9D9D25",
"x+	c #4B4B20",
"y+	c #252519",
"z+	c #434325",
"A+	c #403F3F",
"B+	c #43454C",
"C+	c #3C4252",
"D+	c #242935",
"E+	c #1D2330",
"F+	c #293242",
"G+	c #2C3647",
"H+	c #303A4D",
"I+	c #3A4354",
"J+	c #4C5260",
"K+	c #63646D",
"L+	c #8C8687",
"M+	c #837F81",
"N+	c #464850",
"O+	c #141414",
"P+	c #161616",
"Q+	c #1F2023",
"R+	c #6E6D74",
"S+	c #827F82",
"T+	c #3D4556",
"U+	c #303A4B",
"V+	c #232A39",
"W+	c #2A3444",
"X+	c #374255",
"Y+	c #3D475A",
"Z+	c #71717B",
"`+	c #999393",
" @	c #5C606D",
".@	c #393E48",
"+@	c #838083",
"@@	c #323C4E",
"#@	c #2B3443",
"$@	c #262F3E",
"%@	c #343E52",
"&@	c #394357",
"*@	c #484F61",
"=@	c #959092",
"-@	c #7A7980",
";@	c #363E4C",
">@	c #0F1010",
",@	c #474B57",
"'@	c #8A888F",
")@	c #595D69",
"!@	c #303A4C",
"~@	c #262E3C",
"{@	c #1D2532",
"]@	c #232C3B",
"^@	c #2E394C",
"/@	c #364154",
"(@	c #364256",
"_@	c #7E7F89",
":@	c #8F8F9A",
"<@	c #454D5F",
"[@	c #171B23",
"}@	c #0F1217",
"|@	c #5C606E",
"1@	c #898EA0",
"2@	c #484E5E",
"3@	c #262D3A",
"4@	c #1E2634",
"5@	c #212B3A",
"6@	c #232D3E",
"7@	c #273244",
"8@	c #2C3749",
"9@	c #2F3B4F",
"0@	c #323E52",
"a@	c #323F53",
"b@	c #5A5F6E",
"c@	c #999CAB",
"d@	c #6E7385",
"e@	c #303948",
"f@	c #1D2433",
"g@	c #7A7C8A",
"h@	c #7F8493",
"i@	c #313B4D",
"j@	c #2A3241",
"k@	c #202938",
"l@	c #212A3A",
"m@	c #222C3D",
"n@	c #242F41",
"o@	c #273346",
"p@	c #2B384C",
"q@	c #2D3B4F",
"r@	c #2F3C51",
"s@	c #8B8FA2",
"t@	c #8B90A2",
"u@	c #3D4758",
"v@	c #4C4D55",
"w@	c #949196",
"x@	c #5B5E6A",
"y@	c #2E3A4C",
"z@	c #2D3748",
"A@	c #222934",
"B@	c #1C2331",
"C@	c #202A3A",
"D@	c #222B3C",
"E@	c #242F40",
"F@	c #263144",
"G@	c #293448",
"H@	c #2C394D",
"I@	c #2D3A4F",
"J@	c #2E3B50",
"K@	c #2F3C50",
"L@	c #686D7F",
"M@	c #9599AD",
"N@	c #545968",
"O@	c #535359",
"P@	c #8D888A",
"Q@	c #30394D",
"R@	c #2D394C",
"S@	c #2B3648",
"T@	c #293343",
"U@	c #252C3A",
"V@	c #1E2636",
"W@	c #202A3B",
"X@	c #222B3D",
"Y@	c #283447",
"Z@	c #29364A",
"`@	c #2B384D",
" #	c #2C394E",
".#	c #3B4558",
"+#	c #838798",
"@#	c #6F717F",
"##	c #333C4C",
"$#	c #54545D",
"%#	c #283348",
"&#	c #2C374B",
"*#	c #293345",
"=#	c #283041",
"-#	c #1D2635",
";#	c #1F293A",
">#	c #212B3D",
",#	c #222D40",
"'#	c #253044",
")#	c #273448",
"!#	c #28354A",
"~#	c #303D51",
"{#	c #777987",
"]#	c #81818D",
"^#	c #3A4557",
"/#	c #202939",
"(#	c #253146",
"_#	c #2A3549",
":#	c #293447",
"<#	c #283244",
"[#	c #273041",
"}#	c #1F2632",
"|#	c #111720",
"1#	c #171E2A",
"2#	c #1C2433",
"3#	c #1E283A",
"4#	c #202B3E",
"5#	c #222E43",
"6#	c #243045",
"7#	c #273348",
"8#	c #29354B",
"9#	c #5E616F",
"0#	c #87848D",
"a#	c #4E5463",
"b#	c #273141",
"c#	c #222D42",
"d#	c #253145",
"e#	c #252F42",
"f#	c #1E2533",
"g#	c #181D26",
"h#	c #171C24",
"i#	c #161A22",
"j#	c #151A23",
"k#	c #151C29",
"l#	c #182030",
"m#	c #1C2637",
"n#	c #1F293C",
"o#	c #202C40",
"p#	c #232E43",
"q#	c #3F4656",
"r#	c #72717A",
"s#	c #565864",
"t#	c #141B29",
"u#	c #171F2D",
"v#	c #161B26",
"w#	c #15181E",
"x#	c #1A2029",
"y#	c #1B2028",
"z#	c #1B2027",
"A#	c #191F25",
"B#	c #171C21",
"C#	c #161A20",
"D#	c #171A20",
"E#	c #161A21",
"F#	c #161B22",
"G#	c #181C24",
"H#	c #1E2026",
"I#	c #191C21",
"J#	c #17191D",
"K#	c #191B1F",
"L#	c #1A1C20",
"M#	c #1B1D21",
"N#	c #1A1D21",
"O#	c #101216",
"P#	c #191E28",
"Q#	c #1A202A",
"R#	c #1B202A",
"S#	c #1C212A",
"T#	c #1D222B",
"U#	c #1E232B",
"V#	c #1E232A",
"W#	c #1D2229",
"X#	c #1D2228",
"Y#	c #1D2127",
"Z#	c #1D2026",
"`#	c #1C2025",
" $	c #1C1F25",
".$	c #1B1F25",
"+$	c #1A1E25",
"@$	c #14171D",
"#$	c #1B202B",
"$$	c #1C212C",
"%$	c #1D222D",
"&$	c #1E232F",
"*$	c #1F2531",
"=$	c #202733",
"-$	c #212732",
";$	c #202530",
">$	c #1F242D",
",$	c #1F232C",
"'$	c #1D2129",
")$	c #1C2128",
"!$	c #1A2027",
"~$	c #151A21",
"{$	c #1B212B",
"]$	c #1C222C",
"^$	c #1E2430",
"/$	c #1F2532",
"($	c #212733",
"_$	c #202632",
":$	c #1F242E",
"<$	c #1E232C",
"[$	c #1B212A",
"}$	c #1B2029",
"|$	c #1A2028",
"1$	c #1B212C",
"2$	c #1C222D",
"3$	c #222936",
"4$	c #212734",
"5$	c #1F2530",
"6$	c #1F242F",
"7$	c #1C212B",
"8$	c #1A1F29",
"9$	c #1A1F2A",
"0$	c #1C232E",
"a$	c #232A37",
"b$	c #212938",
"c$	c #222A39",
"d$	c #1F2631",
"e$	c #28303F",
"f$	c #212A38",
"g$	c #202837",
"h$	c #222938",
"i$	c #232B3A",
"j$	c #232B3B",
"k$	c #222B3A",
"l$	c #202633",
"m$	c #1D222E",
"n$	c #1A202B",
"o$	c #202836",
"p$	c #323D50",
"q$	c #2A3344",
"r$	c #2A3443",
"s$	c #1C2330",
"t$	c #222B3B",
"u$	c #242C3C",
"v$	c #313D51",
"w$	c #3A475E",
"x$	c #3E4C64",
"y$	c #414F67",
"z$	c #44536D",
"A$	c #4B5B78",
"B$	c #526484",
"C$	c #556789",
"D$	c #546687",
"E$	c #57698A",
"F$	c #586B8C",
"G$	c #596C8E",
"H$	c #5B6E91",
"I$	c #576A8B",
"J$	c #3C4960",
"K$	c #333E50",
"L$	c #2E3849",
"M$	c #293141",
"N$	c #151A24",
"O$	c #1D2634",
"P$	c #252E3F",
"Q$	c #273142",
"R$	c #293346",
"S$	c #333F54",
"T$	c #465570",
"U$	c #4F5F7E",
"V$	c #5C7095",
"W$	c #62779D",
"X$	c #687DA4",
"Y$	c #7086AE",
"Z$	c #6F85AD",
"`$	c #6B81A8",
" %	c #4A5A77",
".%	c #3D4B62",
"+%	c #323C50",
"@%	c #181D27",
"#%	c #111721",
"$%	c #232C3D",
"%%	c #283245",
"&%	c #2C364A",
"*%	c #344157",
"=%	c #3E4C66",
"-%	c #475673",
";%	c #4D5E7C",
">%	c #50617F",
",%	c #4E5E7C",
"'%	c #475671",
")%	c #303B50",
"!%	c #273143",
"~%	c #1A212C",
"{%	c #0E131C",
"]%	c #19212E",
"^%	c #252F41",
"/%	c #273144",
"(%	c #283346",
"_%	c #252F3F",
":%	c #212A39",
"<%	c #0B0E15",
"[%	c #161D29",
"}%	c #1A212F",
"|%	c #1E2635",
"1%	c #1D2534",
"2%	c #000101",
"                                                                                                                                ",
"                                                                                                                                ",
"                                                                                                                                ",
"                                                                                                                                ",
"                                                                                                                                ",
"                                                                                                                                ",
"                                                                                                                                ",
"                                                . + @                                                                           ",
"                                              # $ % & * =                                                                       ",
"                                              - ; > , ' ) ! ~                                                                   ",
"                                              { ] ^ / ( _ : < [                                                                 ",
"                                              } | 1 2 3 ) 4 : , 5                                                               ",
"                                                  6 7 8 9 : 0 9 8 a                                                             ",
"                                                  b # c d e f e $ g h                                                           ",
"                                                  i j k ( l m n o p i                                                           ",
"                                                q i r s t f u v w & x y                                                         ",
"                                                z i j A B C D E F G H I J                                                       ",
"                                                q 6 K L l M F N O P Q R S T                                                     ",
"                                                U V W ^ z X Y Z `  ...+.@.S h                                                   ",
"                                              S #.$.%.W &.*.=.-.;.>.,.'.$.).S V                                                 ",
"                                              !.W ~.{.$.].-.-.^.W /.(._.$.~.Y [ :.a <.                                          ",
"                                          [.}.|.1.@.2.3.4.5.U 6.7.8.9.0.a.b.c.H d.e.f.| g.[.                                    ",
"                                    a h.i.:.j.b # k.a.l.m.n.o.o.p.q.r.s.o.t.u.v.w.3 g + x.                                      ",
"                                  a y.z.A.B.6 C.D.l E.F.G.E H.I.J.K.L.M.N.O.n.P.H }                                             ",
"                                    Q.a [ R.S.T./ 2 U.f V.: W.X.Y.Z.B `. +.+++@+#+                                              ",
"                                            $+%+&+*+=+-+;+>+,+'+)+!+~+~+{+]+^+/+(+                                              ",
"                                            _+:+<+[+}+|+1+2+3+4+5+6+7+6+8+9+0+/+(+                                              ",
"                                            a+b+c+d+e+f+g+2+h+i+j+k+~+~+l+m+n+/+o+                                              ",
"                                            A.p+q+r+s+t+u+2+v+w+x+!+!+!+y+z+A+B+C+D+                                            ",
"                                            E+} F+G+H+I+J+K+L+M+N+O+P+P+Q+R+S+T+U+                                              ",
"                                              V+| W+C.7 X+Y+Z+`+ @>.O+O+.@+@R+@@#@                                              ",
"                                              i.$@e.d.# %@&@*@=@-@;@g+>@,@'@)@!@~@                                              ",
"                                              {@]@b G+^@H /@(@_@:@<@[@}@|@1@2@C.3@                                              ",
"                                              4@5@6@7@8@9@0@a@b@c@d@e@f@g@h@i@= j@                                              ",
"                                              k@l@m@n@o@p@q@r@k s@t@u@v@w@x@y@z@F+A@                                            ",
"                                            B@C@D@E@F@G@H@I@J@K@L@M@N@O@P@Q@R@S@T@U@                                            ",
"                                            V@W@X@n@F@Y@Z@`@ #J@.#+#@###$#%#&#S@*#=#                                            ",
"                                          ).-#;#>#,#'#)#!#p@`@ #~#{#]#^#/#(#_#:#<#[#}#                                          ",
"                                          |#1#2#3#4#5#6#7#!#8#8# #9#0#a#b#c#d#e#D@f#g#                                          ",
"                                            h#i#j#k#l#m#n#o#c#p#(#q#r#s#R.t#u#v#w#                                              ",
"                                            x#x#y#z#A#B#C#D#E#F#[@G#H#I#J#K#L#M#N#O#                                            ",
"                                          P#Q#Q#R#R#S#S#T#U#V#W#X#X#Y#Y#Z#`# $.$+$@$                                            ",
"                                          R#R##$$$%$&$*$}#=$-$;$>$,$U#6.'$'$)$z#!$~$                                            ",
"                                        P#R#{$]$<.^$/$:.:.z.z.($_$;$:$<$<$T#[$}$|$G#                                            ",
"                                        Q#1$2$<.^$h.=$z.z.3$3$z.4$_$5$6$5$<.7$R#R#8$                                            ",
"                                      9$0$<.[.a i.[ y.5 A.; 3$z.4$=$=$z.=$<.7$R#]$<.                                            ",
"                                      a a$y.i.i.[ y ; b$; A.3$3$A.c$c$z.d$<.7$]$h.x.                                            ",
"                                      A.@ e$+ T@$@f$g$h$; i$i$i$j$k$y.l$5$<.m$i.i..                                             ",
"                                    n$o$i$T@r p$/ 9 ( A x 1 ; 5 . i./$}#z.1 e.q$r$f.2$                                          ",
"                                      s$t$u$i v$w$x$y$z$A$B$C$D$E$F$G$H$I$A$J$K$L$M$<.                                          ",
"                                        N$O$P$Q$R$S$w.T$U$C$V$W$X$Y$Z$`$G$ %.%+%b 5 @%                                          ",
"                                              #%$%%%<#<#&%*%=%-%;%>%,%'%a.)%!%P$j$~%                                            ",
"                                                  {%]%l@^%/%7@<#%%%%%%(%*#_%:%U <%                                              ",
"                                                  _+_+_+    [%}%|%|%|%1%=.  2%_+_+                                              ",
"                                                _+_+_+                        _+_+                                              ",
"                                                _+_+                          _+_+                                              ",
"                                                _+                            _+_+                                              ",
"                                                                              _+_+                                              ",
"                                                                                                                                ",
"                                                                                                                                ",
"                                                                                                                                ",
"                                                                                                                                ",
"                                                                                                                                ",
"                                                                                                                                "};
