/* XPM */
static char * player_idle_3_xpm[] = {
"64 64 576 2",
"  	c None",
". 	c #262E3D",
"+ 	c #2B3445",
"@ 	c #242D3B",
"# 	c #364258",
"$ 	c #343F54",
"% 	c #374258",
"& 	c #3A465C",
"* 	c #374358",
"= 	c #283141",
"- 	c #303A4E",
"; 	c #475672",
"> 	c #232B3A",
", 	c #252D3D",
"' 	c #38445A",
") 	c #3C485F",
"! 	c #3B475E",
"~ 	c #2F3A4D",
"{ 	c #273040",
"] 	c #526483",
"^ 	c #43526C",
"/ 	c #252D3C",
"( 	c #3F4C63",
"_ 	c #3D4960",
": 	c #323C4F",
"< 	c #2A3445",
"[ 	c #354055",
"} 	c #3D4A61",
"| 	c #404D65",
"1 	c #313C4F",
"2 	c #2D3648",
"3 	c #323D51",
"4 	c #3B485F",
"5 	c #404D64",
"6 	c #39455B",
"7 	c #2E3849",
"8 	c #1D232F",
"9 	c #2B3547",
"0 	c #364257",
"a 	c #3E4A62",
"b 	c #3A455C",
"c 	c #202735",
"d 	c #2A3345",
"e 	c #303B4E",
"f 	c #3A475E",
"g 	c #43516A",
"h 	c #1C222E",
"i 	c #222A38",
"j 	c #374359",
"k 	c #404E66",
"l 	c #45536D",
"m 	c #475670",
"n 	c #3F4C64",
"o 	c #242C3B",
"p 	c #2B3446",
"q 	c #303B4F",
"r 	c #37435A",
"s 	c #3D4A62",
"t 	c #44526C",
"u 	c #4B5A76",
"v 	c #4D5D7A",
"w 	c #46546F",
"x 	c #202835",
"y 	c #212A38",
"z 	c #293344",
"A 	c #303B50",
"B 	c #38445B",
"C 	c #414E67",
"D 	c #495873",
"E 	c #4F5F7B",
"F 	c #4C5B77",
"G 	c #475570",
"H 	c #3C4960",
"I 	c #293244",
"J 	c #1E2532",
"K 	c #181D28",
"L 	c #181E29",
"M 	c #151B26",
"N 	c #181F2B",
"O 	c #1E2534",
"P 	c #252E3E",
"Q 	c #22262F",
"R 	c #353841",
"S 	c #444751",
"T 	c #464954",
"U 	c #1A1E27",
"V 	c #171D28",
"W 	c #191F2B",
"X 	c #131924",
"Y 	c #151B27",
"Z 	c #181E2B",
"` 	c #191F2C",
" .	c #1A212E",
"..	c #19202D",
"+.	c #181F2A",
"@.	c #1B1E26",
"#.	c #383A44",
"$.	c #171C25",
"%.	c #161C27",
"&.	c #181E2A",
"*.	c #121822",
"=.	c #171D2A",
"-.	c #19202C",
";.	c #19202E",
">.	c #2B2E36",
",.	c #393C45",
"'.	c #151C28",
").	c #171C27",
"!.	c #191E29",
"~.	c #1E2430",
"{.	c #1F2633",
"].	c #1B222E",
"^.	c #141A25",
"/.	c #161C28",
"(.	c #33363F",
"_.	c #40434D",
":.	c #3A3D46",
"<.	c #242D3D",
"[.	c #2A3547",
"}.	c #2B3548",
"|.	c #242C3A",
"1.	c #212835",
"2.	c #1E2431",
"3.	c #202734",
"4.	c #27303F",
"5.	c #2D374A",
"6.	c #354157",
"7.	c #3B4860",
"8.	c #3F4D65",
"9.	c #415069",
"0.	c #44536D",
"a.	c #495874",
"b.	c #495975",
"c.	c #435069",
"d.	c #46546D",
"e.	c #485772",
"f.	c #4C5C79",
"g.	c #485773",
"h.	c #43516B",
"i.	c #3C4961",
"j.	c #354156",
"k.	c #303A4D",
"l.	c #2C3647",
"m.	c #2A3344",
"n.	c #212936",
"o.	c #232A38",
"p.	c #252C3B",
"q.	c #283140",
"r.	c #2D3749",
"s.	c #333F54",
"t.	c #4E5E7A",
"u.	c #556685",
"v.	c #5A6D8E",
"w.	c #5D7092",
"x.	c #5F7396",
"y.	c #5D7193",
"z.	c #596C8D",
"A.	c #546685",
"B.	c #51627F",
"C.	c #4B5B77",
"D.	c #3A465D",
"E.	c #2E384B",
"F.	c #19202A",
"G.	c #323C50",
"H.	c #333E52",
"I.	c #343F53",
"J.	c #3E4B62",
"K.	c #3B475D",
"L.	c #46546E",
"M.	c #526381",
"N.	c #566887",
"O.	c #4A5975",
"P.	c #414F68",
"Q.	c #394459",
"R.	c #2E3749",
"S.	c #232A37",
"T.	c #020202",
"U.	c #030303",
"V.	c #050505",
"W.	c #070808",
"X.	c #0C0E10",
"Y.	c #0D0E10",
"Z.	c #101113",
"`.	c #2B2B1D",
" +	c #A6A625",
".+	c #717124",
"++	c #151515",
"@+	c #161616",
"#+	c #595922",
"$+	c #C4C424",
"%+	c #42421E",
"&+	c #111111",
"*+	c #0D0D0D",
"=+	c #040404",
"-+	c #060606",
";+	c #090909",
">+	c #0C0C0C",
",+	c #0F0F0F",
"'+	c #121212",
")+	c #848428",
"!+	c #FEFE04",
"~+	c #DBDB24",
"{+	c #21211A",
"]+	c #181818",
"^+	c #A5A529",
"/+	c #FFFF01",
"(+	c #8B8B29",
"_+	c #0E0E0E",
":+	c #030405",
"<+	c #888828",
"[+	c #FFFF02",
"}+	c #DDDD24",
"|+	c #22221A",
"1+	c #999929",
"2+	c #FEFE05",
"3+	c #7E7E27",
"4+	c #0D0D0E",
"5+	c #252D3B",
"6+	c #242B38",
"7+	c #232834",
"8+	c #1D2027",
"9+	c #0E0F10",
"0+	c #32321A",
"a+	c #B6B625",
"b+	c #7E7E26",
"c+	c #181817",
"d+	c #171717",
"e+	c #37371D",
"f+	c #8F8F24",
"g+	c #29291B",
"h+	c #2F3034",
"i+	c #363B48",
"j+	c #232933",
"k+	c #1E2632",
"l+	c #283040",
"m+	c #2A3343",
"n+	c #353F50",
"o+	c #3F4655",
"p+	c #474B56",
"q+	c #5F5E62",
"r+	c #777372",
"s+	c #6D696A",
"t+	c #36363A",
"u+	c #161617",
"v+	c #5D5C62",
"w+	c #7E7B7D",
"x+	c #484E5C",
"y+	c #333C4D",
"z+	c #2E384A",
"A+	c #384256",
"B+	c #3F495C",
"C+	c #7F7D83",
"D+	c #949090",
"E+	c #565B68",
"F+	c #24262B",
"G+	c #141414",
"H+	c #7D7B80",
"I+	c #757479",
"J+	c #333D4F",
"K+	c #2D3645",
"L+	c #272F3E",
"M+	c #293343",
"N+	c #2C3648",
"O+	c #353F53",
"P+	c #3A4457",
"Q+	c #545968",
"R+	c #999393",
"S+	c #72727A",
"T+	c #343A47",
"U+	c #414551",
"V+	c #89868B",
"W+	c #5F616B",
"X+	c #303B4C",
"Y+	c #27303E",
"Z+	c #1D2532",
"`+	c #242D3C",
" @	c #283242",
".@	c #2F394D",
"+@	c #313D50",
"@@	c #374155",
"#@	c #394458",
"$@	c #87858C",
"%@	c #86868F",
"&@	c #3C4657",
"*@	c #111316",
"=@	c #0E0F12",
"-@	c #555965",
";@	c #8A8D9C",
">@	c #505563",
",@	c #252C39",
"'@	c #1D2533",
")@	c #222B3A",
"!@	c #252F3F",
"~@	c #2A3446",
"{@	c #2D384B",
"]@	c #303C50",
"^@	c #333F53",
"/@	c #334054",
"(@	c #696D7A",
"_@	c #9A9BA9",
":@	c #606677",
"<@	c #29313E",
"[@	c #171D29",
"}@	c #6E7280",
"|@	c #858A9B",
"1@	c #363F51",
"2@	c #293140",
"3@	c #202837",
"4@	c #212A3A",
"5@	c #222C3D",
"6@	c #242F41",
"7@	c #283346",
"8@	c #2C384C",
"9@	c #2E3B50",
"0@	c #303D52",
"a@	c #3D4759",
"b@	c #9397A8",
"c@	c #83889A",
"d@	c #394253",
"e@	c #373B47",
"f@	c #8E8D96",
"g@	c #6D707B",
"h@	c #2F3A4C",
"i@	c #2A3242",
"j@	c #212732",
"k@	c #1B222F",
"l@	c #212A39",
"m@	c #212B3B",
"n@	c #232E3F",
"o@	c #253042",
"p@	c #283447",
"q@	c #2C394D",
"r@	c #2D3B4F",
"s@	c #2F3C51",
"t@	c #777C8E",
"u@	c #9398AB",
"v@	c #4A5161",
"w@	c #5D5C61",
"x@	c #938E90",
"y@	c #383F51",
"z@	c #2D394C",
"A@	c #293242",
"B@	c #1D2534",
"C@	c #202A3A",
"D@	c #242F40",
"E@	c #263144",
"F@	c #283448",
"G@	c #2A374C",
"H@	c #2C394E",
"I@	c #2D3A4F",
"J@	c #4B5264",
"K@	c #8C91A3",
"L@	c #666977",
"M@	c #373D4A",
"N@	c #727075",
"O@	c #2A3549",
"P@	c #2C384B",
"Q@	c #2B3648",
"R@	c #272F3F",
"S@	c #161B27",
"T@	c #1E2736",
"U@	c #20293B",
"V@	c #212B3D",
"W@	c #232E40",
"X@	c #28354A",
"Y@	c #2B384C",
"Z@	c #303D51",
"`@	c #7B7E8D",
" #	c #7B7C88",
".#	c #374254",
"+#	c #242C3C",
"@#	c #263246",
"##	c #2B364A",
"$#	c #2A3548",
"%#	c #283244",
"&#	c #283142",
"*#	c #1F2631",
"=#	c #141A24",
"-#	c #1B2432",
";#	c #1E2637",
">#	c #1F2A3C",
",#	c #212C40",
"'#	c #233044",
")#	c #263247",
"!#	c #283449",
"~#	c #2A364C",
"{#	c #2E3B4F",
"]#	c #686B78",
"^#	c #86858F",
"/#	c #434C5C",
"(#	c #242E3E",
"_#	c #232F44",
":#	c #283347",
"<#	c #273246",
"[#	c #252F41",
"}#	c #232C3C",
"|#	c #1C212C",
"1#	c #11151D",
"2#	c #151B25",
"3#	c #171E2C",
"4#	c #1B2436",
"5#	c #1F293C",
"6#	c #243046",
"7#	c #263147",
"8#	c #273248",
"9#	c #29354B",
"0#	c #4D5262",
"a#	c #827F87",
"b#	c #5A5D6B",
"c#	c #283243",
"d#	c #1D263A",
"e#	c #1D2535",
"f#	c #141820",
"g#	c #171C24",
"h#	c #1A1F28",
"i#	c #1A1E25",
"j#	c #161A21",
"k#	c #14181F",
"l#	c #141A23",
"m#	c #161D2A",
"n#	c #171F2D",
"o#	c #18202F",
"p#	c #192131",
"q#	c #42434B",
"r#	c #34363F",
"s#	c #121419",
"t#	c #15181D",
"u#	c #181A1E",
"v#	c #1A1D22",
"w#	c #191E27",
"x#	c #1A2029",
"y#	c #1A2028",
"z#	c #1B2028",
"A#	c #1B2128",
"B#	c #1C2128",
"C#	c #1D2127",
"D#	c #1D2126",
"E#	c #1C2026",
"F#	c #1B2025",
"G#	c #1A1F26",
"H#	c #181C23",
"I#	c #1A202A",
"J#	c #1B202B",
"K#	c #1C212B",
"L#	c #1C222C",
"M#	c #1E232E",
"N#	c #1F242F",
"O#	c #202530",
"P#	c #20252F",
"Q#	c #1F242D",
"R#	c #1E232B",
"S#	c #1E222A",
"T#	c #1D222A",
"U#	c #1D2129",
"V#	c #1C2129",
"W#	c #1A2027",
"X#	c #1A1F27",
"Y#	c #191E28",
"Z#	c #1B202A",
"`#	c #1B212B",
" $	c #1D222D",
".$	c #1E232F",
"+$	c #202733",
"@$	c #212834",
"#$	c #212733",
"$$	c #202632",
"%$	c #202630",
"&$	c #1E232D",
"*$	c #1E232C",
"=$	c #1C222B",
"-$	c #1B2029",
";$	c #151921",
">$	c #1A1F29",
",$	c #1B212C",
"'$	c #1C222D",
")$	c #1E242F",
"!$	c #1E2531",
"~$	c #222935",
"{$	c #222835",
"]$	c #202631",
"^$	c #1F252F",
"/$	c #1F2430",
"($	c #181D27",
"_$	c #1C232E",
":$	c #212836",
"<$	c #222936",
"[$	c #222937",
"}$	c #1C212A",
"|$	c #1D2430",
"1$	c #1D232E",
"2$	c #1F2734",
"3$	c #202836",
"4$	c #222938",
"5$	c #212938",
"6$	c #1F2530",
"7$	c #1D232D",
"8$	c #1F2632",
"9$	c #212937",
"0$	c #222A37",
"a$	c #232B3B",
"b$	c #1F2634",
"c$	c #242B39",
"d$	c #181D26",
"e$	c #232B38",
"f$	c #262D3C",
"g$	c #28303F",
"h$	c #293243",
"i$	c #222A39",
"j$	c #1F2532",
"k$	c #1F2531",
"l$	c #202633",
"m$	c #2B3546",
"n$	c #2D3647",
"o$	c #2B3545",
"p$	c #2B3444",
"q$	c #323D50",
"r$	c #374357",
"s$	c #3E4B63",
"t$	c #3E4C65",
"u$	c #3D4B65",
"v$	c #3A475F",
"w$	c #38455C",
"x$	c #42516B",
"y$	c #4B5B78",
"z$	c #536584",
"A$	c #546686",
"B$	c #4A5A77",
"C$	c #3B485E",
"D$	c #333E51",
"E$	c #1A202B",
"F$	c #161C25",
"G$	c #202736",
"H$	c #404D66",
"I$	c #42506A",
"J$	c #495875",
"K$	c #516282",
"L$	c #5B6F93",
"M$	c #61769D",
"N$	c #687EA5",
"O$	c #6F85AD",
"P$	c #6D84AB",
"Q$	c #6A7FA6",
"R$	c #3D4B62",
"S$	c #262E3E",
"T$	c #161B25",
"U$	c #202938",
"V$	c #252F40",
"W$	c #273142",
"X$	c #293345",
"Y$	c #2F3A4F",
"Z$	c #3F4D66",
"`$	c #576A8D",
" %	c #5D7195",
".%	c #61769B",
"+%	c #64799D",
"@%	c #607396",
"#%	c #556787",
"$%	c #43526D",
"%%	c #333F55",
"&%	c #252E3F",
"*%	c #0F141D",
"=%	c #121823",
"-%	c #283245",
";%	c #273144",
">%	c #283345",
",%	c #293446",
"'%	c #273143",
")%	c #222B3B",
"!%	c #0A0E15",
"~%	c #1A212F",
"{%	c #232C3D",
"]%	c #242D3E",
"^%	c #263042",
"/%	c #1C2432",
"(%	c #111721",
"_%	c #000000",
"                                                                                                                                ",
"                                                                                                                                ",
"                                                                                                                                ",
"                                                                                                                                ",
"                                                                                                                                ",
"                                                                                                                                ",
"                                                                                                                                ",
"                                                  . + @                                                                         ",
"                                                # $ % & * =                                                                     ",
"                                              - ; > , ' ) ! ~                                                                   ",
"                                              { ] ^ / % ! ( _ :                                                                 ",
"                                                    < [ ' } | ) 1                                                               ",
"                                                    2 3 * 4 5 | 6 7                                                             ",
"                                                  8 9 1 0 ! a | b 0 /                                                           ",
"                                                  c d e 0 f a g } 0 - h                                                         ",
"                                                  i < e j } k l m n 3 {                                                         ",
"                                                  o p q r s t u v w j < x                                                       ",
"                                                  y z A B C D E F G H I J K                                                     ",
"                                                L L M N O o P Q R S T U V L K                                                   ",
"                                                W V X Y Z `  ...+.@.#.#.$.%.L K                                                 ",
"                                              W &.M *.X =.-.....;.U >.,.Y '.M ).!.                                              ",
"                                          ~.J {.J ].%.^.M /.N V (._.T :.<.[.}.d { |.1.{.2.                                      ",
"                                    {.{.3.c i 4.5.6.7.8.9.0.a.b.c.d.e.f.f.g.h.i.j.k.l.m.m.1.                                    ",
"                                    {.n.o.p.q.r.s.4 C l D t.u.v.w.x.x.y.z.A.B.C.h.D.E., F.                                      ",
"                                        8 3./ + G.H.I.J.) K.L.F M.N.M.O.P.Q.R.S.$.                                              ",
"                                              T.U.V.W.X.Y.Z.`. +.+++++@+#+$+%+&+*+                                              ",
"                                              T.=+-+;+>+,+'+)+!+~+{+]+]+^+/+(+'+_+                                              ",
"                                              :+=+-+;+>+,+'+<+[+}+|+]+]+1+2+3+&+4+                                              ",
"                                            c 5+6+7+8+9+_+&+0+a+b+c+d+d+e+f+g+h+i+j+                                            ",
"                                            k+l+m+R.n+o+p+q+r+s+t+++@+@+u+v+w+x+y+                                              ",
"                                              o q.< z+: A+B+C+D+E+F+G+G+R H+I+J+K+                                              ",
"                                              c L+M+N+~ O+P+Q+R+S+T+'+&+U+V+W+X+Y+                                              ",
"                                              Z+`+ @l..@+@@@#@$@%@&@*@=@-@;@>@z+,@                                              ",
"                                              '@)@!@~@{@]@^@/@(@_@:@<@[@}@|@1@2 2@                                              ",
"                                              3@4@5@6@7@8@9@0@a@b@c@d@e@f@g@h@2 i@j@                                            ",
"                                            k@l@m@n@o@p@q@r@9@s@t@u@v@w@x@y@z@l.A@6+                                            ",
"                                            B@C@5@D@E@F@G@H@I@9@J@K@L@M@N@O@P@Q@m.R@                                            ",
"                                          S@T@U@V@W@E@F@X@Y@H@I@Z@`@ #.#+#@###$#%#&#*#                                          ",
"                                          =#-#;#>#,#'#)#!#~#G@G@{#]#^#/#(#_#:#<#[#}#|#                                          ",
"                                            1#2#3#4#5#,#_#6#7#8#9#0#a#b#c#d#>#e#&.f#                                            ",
"                                            g#h#i#j#k#l#%.m#n#o#p#o.q#r#$.s#t#u#v#t#                                            ",
"                                            w#x#y#z#A#B#B#C#C#C#C#D#D#D#D#E#E#F#G#H#                                            ",
"                                            I#I#I#J#K#L#M#N#O#P#Q#R#R#S#T#U#V#z#W#X#                                            ",
"                                          Y#Z#J#`# $.$*#+$3.@$#$$$%$N#&$*$*$=$Z#-$z#;$                                          ",
"                                          >$Z#,$'$)$!$+$3.1.~${$@$+$]$N#^$/$ $K#Z#K#($                                          ",
"                                          `#,$_$8 !${.1.:$<$[$<$1.#$$$+$1.*# $K#}$|$J#                                          ",
"                                        I#'$1$|$J 2$3$4$5$o.[$<$1.1.4$i @$6$7$K#8 k+h                                           ",
"                                        8$1.3.J {.c 9$5$i 0$0$o.> a$)@n.$$6$1$8 b$n.c$                                          ",
"                                      d$e$f$g$A@h${ }#9$4$i$i$i$i$y c j$k$l$, m$n$o$g$J#                                        ",
"                                      I#3$/ p$z+q$r$H s$s t$u$v$w$} x$y$z$A$B$C$D$7 L+E$                                        ",
"                                      F$G$)@+#z 3 ! H$I$0.J$K$L$M$N$O$P$Q$z.B$R$e S$3$T$                                        ",
"                                          -.U$V$W$X$Y$r Z$J$K$`$ %.%+%@%#%$%%%%#&%)@L                                           ",
"                                              *%=%4@%#-%;%;%%#>%,%~@>%-%-%X$'%)% .                                              ",
"                                                    !%=%~%T@4@{%]%^%V$]%4@/%(%                                                  ",
"                                                      _%_%            _%_%_%                                                    ",
"                                                      _%_%            _%_%                                                      ",
"                                                      _%_%            _%_%                                                      ",
"                                                      _%_%            _%_%                                                      ",
"                                                      _%_%            _%                                                        ",
"                                                                                                                                ",
"                                                                                                                                ",
"                                                                                                                                ",
"                                                                                                                                ",
"                                                                                                                                "};
