/* XPM */
static char * player_walk_15_xpm[] = {
"64 64 585 2",
"  	c None",
". 	c #202835",
"+ 	c #2B3546",
"@ 	c #2C3546",
"# 	c #283141",
"$ 	c #1E2532",
"% 	c #293243",
"& 	c #374358",
"* 	c #374257",
"= 	c #3A465C",
"- 	c #3B475D",
"; 	c #323D51",
"> 	c #212937",
", 	c #404E67",
"' 	c #181E2A",
") 	c #3A475D",
"! 	c #3E4B62",
"~ 	c #3F4B63",
"{ 	c #3B475E",
"] 	c #313C4F",
"^ 	c #1D2430",
"/ 	c #4C5C79",
"( 	c #546585",
"_ 	c #181E28",
": 	c #343F54",
"< 	c #3B485F",
"[ 	c #414E66",
"} 	c #3B485E",
"| 	c #283040",
"1 	c #283142",
"2 	c #323D50",
"3 	c #171C26",
"4 	c #313B4F",
"5 	c #344054",
"6 	c #38445A",
"7 	c #3C485F",
"8 	c #404D64",
"9 	c #3F4C64",
"0 	c #39455B",
"a 	c #364156",
"b 	c #2A3445",
"c 	c #161C25",
"d 	c #2D3749",
"e 	c #323C50",
"f 	c #364257",
"g 	c #3D4A61",
"h 	c #43516A",
"i 	c #3E4B63",
"j 	c #384359",
"k 	c #1A202B",
"l 	c #2A3344",
"m 	c #2F3A4C",
"n 	c #354055",
"o 	c #3E4A62",
"p 	c #425068",
"q 	c #475670",
"r 	c #465670",
"s 	c #2E394C",
"t 	c #262F3F",
"u 	c #1C222E",
"v 	c #2D374A",
"w 	c #404E66",
"x 	c #465570",
"y 	c #4D5D79",
"z 	c #475671",
"A 	c #39455C",
"B 	c #252D3D",
"C 	c #19202B",
"D 	c #181E29",
"E 	c #272F40",
"F 	c #2C3648",
"G 	c #323D52",
"H 	c #38455B",
"I 	c #495873",
"J 	c #4E5E7A",
"K 	c #424F66",
"L 	c #414859",
"M 	c #3F434F",
"N 	c #1A1F28",
"O 	c #151B27",
"P 	c #171D28",
"Q 	c #252E3E",
"R 	c #2A3446",
"S 	c #303B50",
"T 	c #354157",
"U 	c #212630",
"V 	c #30333C",
"W 	c #373A43",
"X 	c #3D3F4A",
"Y 	c #1F232B",
"Z 	c #161C27",
"` 	c #171C27",
" .	c #1E2431",
"..	c #202735",
"+.	c #212936",
"@.	c #232B39",
"#.	c #272F3E",
"$.	c #1A202A",
"%.	c #1A212D",
"&.	c #181F2B",
"*.	c #1A202D",
"=.	c #1A212E",
"-.	c #181D27",
";.	c #2C2F37",
">.	c #393C45",
",.	c #292C35",
"'.	c #161C28",
").	c #252E3F",
"!.	c #2D3648",
"~.	c #2C3647",
"{.	c #1F2632",
"].	c #181D28",
"^.	c #151B26",
"/.	c #131924",
"(.	c #171D29",
"_.	c #19202D",
":.	c #292D37",
"<.	c #3D414B",
"[.	c #444752",
"}.	c #363F51",
"|.	c #44536D",
"1.	c #455470",
"2.	c #45536E",
"3.	c #404D66",
"4.	c #181F2A",
"5.	c #141A25",
"6.	c #121722",
"7.	c #171E2A",
"8.	c #181E2B",
"9.	c #191F2B",
"0.	c #252C39",
"a.	c #393F4E",
"b.	c #434E64",
"c.	c #4E5F7C",
"d.	c #556686",
"e.	c #546584",
"f.	c #536583",
"g.	c #516280",
"h.	c #45536D",
"i.	c #303A4D",
"j.	c #3E4B64",
"k.	c #4D5D7A",
"l.	c #566888",
"m.	c #5A6D8E",
"n.	c #5E7194",
"o.	c #617599",
"p.	c #404D65",
"q.	c #242B38",
"r.	c #0F1012",
"s.	c #070707",
"t.	c #1D2330",
"u.	c #1F2532",
"v.	c #232A39",
"w.	c #293344",
"x.	c #323E52",
"y.	c #3B4860",
"z.	c #42506A",
"A.	c #475570",
"B.	c #4C5C78",
"C.	c #526280",
"D.	c #566786",
"E.	c #5A6C8D",
"F.	c #596B8C",
"G.	c #2B3545",
"H.	c #16181D",
"I.	c #181815",
"J.	c #141413",
"K.	c #111111",
"L.	c #0B0B0B",
"M.	c #202734",
"N.	c #222937",
"O.	c #272F3F",
"P.	c #2E394B",
"Q.	c #37435A",
"R.	c #46546D",
"S.	c #39455A",
"T.	c #3B4552",
"U.	c #2F3439",
"V.	c #16181C",
"W.	c #161616",
"X.	c #171717",
"Y.	c #3E3E1F",
"Z.	c #C6C623",
"`.	c #646422",
" +	c #121212",
".+	c #0E0E0E",
"++	c #202834",
"@+	c #212835",
"#+	c #232A38",
"$+	c #333E52",
"%+	c #364157",
"&+	c #293242",
"*+	c #0F1013",
"=+	c #292918",
"-+	c #D4D424",
";+	c #CECE26",
">+	c #2B2B1C",
",+	c #181818",
"'+	c #75752A",
")+	c #FFFF04",
"!+	c #B8B827",
"~+	c #131313",
"{+	c #0F0F0F",
"]+	c #1C232E",
"^+	c #1E2531",
"/+	c #1F2633",
"(+	c #161B25",
"_+	c #0F131A",
":+	c #07080A",
"<+	c #080808",
"[+	c #4C4C22",
"}+	c #F8F816",
"|+	c #FCFC0E",
"1+	c #5B5B27",
"2+	c #575725",
"3+	c #F7F714",
"4+	c #B9B926",
"5+	c #131312",
"6+	c #191F2A",
"7+	c #1C212D",
"8+	c #171C25",
"9+	c #12141A",
"0+	c #0B0C0D",
"a+	c #2A2A19",
"b+	c #DDDD23",
"c+	c #EEEE1B",
"d+	c #444421",
"e+	c #1C1C18",
"f+	c #808024",
"g+	c #4F4F1E",
"h+	c #111212",
"i+	c #111213",
"j+	c #2C3039",
"k+	c #293141",
"l+	c #2C3545",
"m+	c #31394A",
"n+	c #363E4D",
"o+	c #383D48",
"p+	c #3F4045",
"q+	c #464445",
"r+	c #63604C",
"s+	c #6A684A",
"t+	c #20201F",
"u+	c #444347",
"v+	c #676466",
"w+	c #4E515C",
"x+	c #374051",
"y+	c #252E3D",
"z+	c #3C4658",
"A+	c #535867",
"B+	c #8D898C",
"C+	c #908B8D",
"D+	c #535662",
"E+	c #1A1B1D",
"F+	c #151515",
"G+	c #141414",
"H+	c #2C2E35",
"I+	c #77767C",
"J+	c #7C7A7E",
"K+	c #353F51",
"L+	c #2E3848",
"M+	c #212836",
"N+	c #27303F",
"O+	c #293343",
"P+	c #303B4E",
"Q+	c #364054",
"R+	c #3B4559",
"S+	c #616571",
"T+	c #9A9494",
"U+	c #676974",
"V+	c #333742",
"W+	c #3C414D",
"X+	c #878487",
"Y+	c #65666E",
"Z+	c #313B4D",
"`+	c #293240",
" @	c #1E2632",
".@	c #2F394D",
"+@	c #374256",
"@@	c #3E475B",
"#@	c #8E8A8F",
"$@	c #7F7F86",
"%@	c #394252",
"&@	c #0E0F10",
"*@	c #0D0D0E",
"=@	c #4E525E",
"-@	c #8A8B96",
";@	c #555967",
">@	c #2F394B",
",@	c #252D3A",
"'@	c #1D2532",
")@	c #222B3B",
"!@	c #263040",
"~@	c #2B3547",
"{@	c #313C50",
"]@	c #344155",
"^@	c #737682",
"/@	c #9798A5",
"(@	c #535A6B",
"_@	c #212833",
":@	c #131820",
"<@	c #656A78",
"[@	c #878D9F",
"}@	c #3D4556",
"|@	c #2D3748",
"1@	c #282F3D",
"2@	c #1F2735",
"3@	c #212A3A",
"4@	c #222C3D",
"5@	c #253042",
"6@	c #293447",
"7@	c #2D394D",
"8@	c #2F3C51",
"9@	c #313E52",
"0@	c #485061",
"a@	c #969AAB",
"b@	c #7B8091",
"c@	c #363F4F",
"d@	c #272E3D",
"e@	c #878792",
"f@	c #787A87",
"g@	c #2A3242",
"h@	c #20252F",
"i@	c #212939",
"j@	c #212A3B",
"k@	c #232D3E",
"l@	c #252F42",
"m@	c #283347",
"n@	c #2C384C",
"o@	c #2D3B4F",
"p@	c #303D52",
"q@	c #808597",
"r@	c #9195A8",
"s@	c #444C5D",
"t@	c #5B5A60",
"u@	c #959093",
"v@	c #454A59",
"w@	c #2D3A4C",
"x@	c #2C3748",
"y@	c #232A36",
"z@	c #1C2432",
"A@	c #202A3A",
"B@	c #242F40",
"C@	c #263144",
"D@	c #293448",
"E@	c #2B384C",
"F@	c #2C3A4F",
"G@	c #2D3A50",
"H@	c #2E3B50",
"I@	c #575D6E",
"J@	c #9397AA",
"K@	c #5E6271",
"L@	c #41444E",
"M@	c #807D80",
"N@	c #2C364A",
"O@	c #2B3648",
"P@	c #262E3D",
"Q@	c #1E2737",
"R@	c #202A3B",
"S@	c #212B3D",
"T@	c #242E40",
"U@	c #283447",
"V@	c #28354A",
"W@	c #2B384D",
"X@	c #2C394E",
"Y@	c #2D3A4F",
"Z@	c #7C7F8F",
"`@	c #767885",
" #	c #354051",
".#	c #353946",
"+#	c #273347",
"@#	c #2B364A",
"##	c #293345",
"$#	c #1F2530",
"%#	c #151C27",
"&#	c #1C2534",
"*#	c #1E2738",
"=#	c #202B3D",
"-#	c #222D40",
";#	c #243044",
">#	c #263348",
",#	c #2A374C",
"'#	c #2B374D",
")#	c #2F3C50",
"!#	c #6E717E",
"~#	c #85848F",
"{#	c #3F4859",
"]#	c #222C3C",
"^#	c #243045",
"/#	c #263043",
"(#	c #1E2430",
"_#	c #141A24",
":#	c #171D2A",
"<#	c #1A2333",
"[#	c #1E283B",
"}#	c #202B3F",
"|#	c #222E42",
"1#	c #253146",
"2#	c #263248",
"3#	c #273349",
"4#	c #28344A",
"5#	c #545867",
"6#	c #85828A",
"7#	c #575B69",
"8#	c #1F2A3E",
"9#	c #222D41",
"0#	c #212B3C",
"a#	c #191F28",
"b#	c #191F27",
"c#	c #171B22",
"d#	c #151921",
"e#	c #151A25",
"f#	c #161D2A",
"g#	c #18202F",
"h#	c #192232",
"i#	c #1B2435",
"j#	c #1C2638",
"k#	c #1F283B",
"l#	c #2E3545",
"m#	c #56565F",
"n#	c #43454F",
"o#	c #1B212C",
"p#	c #11141C",
"q#	c #151920",
"r#	c #15171C",
"s#	c #17191D",
"t#	c #181E27",
"u#	c #1A2029",
"v#	c #1B2028",
"w#	c #1B2128",
"x#	c #1C2128",
"y#	c #1C2126",
"z#	c #1C2026",
"A#	c #1B1F24",
"B#	c #1A1E22",
"C#	c #1A1D21",
"D#	c #1B1D22",
"E#	c #1B1E23",
"F#	c #1C1E23",
"G#	c #1A1D22",
"H#	c #1A1F29",
"I#	c #1B202A",
"J#	c #1B202B",
"K#	c #1C212B",
"L#	c #1C222C",
"M#	c #1D232D",
"N#	c #1E242E",
"O#	c #1F242E",
"P#	c #1E232C",
"Q#	c #1E222A",
"R#	c #1D2229",
"S#	c #1D2128",
"T#	c #1D2127",
"U#	c #1B1F25",
"V#	c #1A1F26",
"W#	c #13171D",
"X#	c #191E28",
"Y#	c #1B212B",
"Z#	c #1D222D",
"`#	c #1E242F",
" $	c #1F2531",
".$	c #202733",
"+$	c #212734",
"@$	c #212733",
"#$	c #202631",
"$$	c #1F242F",
"%$	c #1E222B",
"&$	c #1D222A",
"*$	c #1B2129",
"=$	c #1A2027",
"-$	c #1A2028",
";$	c #151A21",
">$	c #1C212C",
",$	c #1D232F",
"'$	c #1E2530",
")$	c #202633",
"!$	c #222835",
"~$	c #212834",
"{$	c #1F242D",
"]$	c #1E232D",
"^$	c #1D232C",
"/$	c #1B2029",
"($	c #171C24",
"_$	c #191E27",
":$	c #1C222D",
"<$	c #1D232E",
"[$	c #222936",
"}$	c #202632",
"|$	c #202531",
"1$	c #1F2631",
"2$	c #1D242F",
"3$	c #222A38",
"4$	c #212938",
"5$	c #1C212A",
"6$	c #232A37",
"7$	c #252C3A",
"8$	c #262E3C",
"9$	c #242C3A",
"0$	c #202836",
"a$	c #212837",
"b$	c #232B3A",
"c$	c #222A37",
"d$	c #1E2633",
"e$	c #2A3343",
"f$	c #2D3647",
"g$	c #303B4D",
"h$	c #2C3749",
"i$	c #222938",
"j$	c #222A39",
"k$	c #222A3A",
"l$	c #222B3A",
"m$	c #232B38",
"n$	c #191F29",
"o$	c #273040",
"p$	c #38455A",
"q$	c #3D4A62",
"r$	c #425069",
"s$	c #414F69",
"t$	c #404E69",
"u$	c #3C4962",
"v$	c #323E53",
"w$	c #2A3345",
"x$	c #262F3E",
"y$	c #262D3D",
"z$	c #2E384B",
"A$	c #313B4E",
"B$	c #2E3849",
"C$	c #2B3444",
"D$	c #151B24",
"E$	c #1F2736",
"F$	c #242D3E",
"G$	c #252F40",
"H$	c #2C3649",
"I$	c #374359",
"J$	c #414E67",
"K$	c #45546E",
"L$	c #4A5A77",
"M$	c #536585",
"N$	c #5D7095",
"O$	c #62779D",
"P$	c #687DA3",
"Q$	c #697FA6",
"R$	c #687DA4",
"S$	c #657AA0",
"T$	c #576A8B",
"U$	c #333D51",
"V$	c #232C3C",
"W$	c #283244",
"X$	c #2F3A4E",
"Y$	c #3C4961",
"Z$	c #485875",
"`$	c #526485",
" %	c #5B6F93",
".%	c #62779C",
"+%	c #6F85AD",
"@%	c #6E84AC",
"#%	c #677BA1",
"$%	c #546685",
"%%	c #364258",
"&%	c #232C3B",
"*%	c #1F2734",
"=%	c #1B2331",
"-%	c #232C3D",
";%	c #283245",
">%	c #2B3548",
",%	c #344056",
"'%	c #354158",
")%	c #333E54",
"!%	c #2E394D",
"~%	c #263041",
"{%	c #1E2634",
"]%	c #141922",
"^%	c #1A212F",
"/%	c #1E2635",
"(%	c #242E3F",
"_%	c #273244",
":%	c #283346",
"<%	c #273143",
"[%	c #1C2331",
"}%	c #1B222F",
"|%	c #11161F",
"1%	c #000001",
"2%	c #030407",
"3%	c #0D111A",
"4%	c #000000",
"                                                                                                                                ",
"                                                                                                                                ",
"                                                                                                                                ",
"                                                                                                                                ",
"                                                                                                                                ",
"                                                                                                                                ",
"                                                                                                                                ",
"                                                                                                                                ",
"                                                                                                                                ",
"                                          . + @ # $                                                                             ",
"                                        % & * = - - ; >                                                                         ",
"                                        , $ ' & ) ! ~ { ] ^                                                                     ",
"                                        / ( _ : & < ~ [ } & |                                                                   ",
"                                        1 2 3 4 5 6 7 8 9 0 a b c                                                               ",
"                                              d e f { g h i j 2 % k                                                             ",
"                                              l m n = o p q r < s t u                                                           ",
"                                              # v : < w x y y z A B C D                                                         ",
"                                              E F G H i I J K L M N O P D _                                                     ",
"                                              Q R S T j ] U V V W X Y Z Z `  .. ..+.@.#.$.                                      ",
"                                              %.%.P P &.*.=.=.-.;.>.,.'.).s s v d !.~.{.                                        ",
"                                            ].' ^./.(.&._._.&.:.<.[.}.|.1.2.h 3.A l                                             ",
"                                            4.' 5.6.5.7.8.9.0.a.b.c.d.e.f.g.h.i.                                                ",
"                                            9.` ^.%.t G j.k.l.m.n.o.o.l.p.q.r.s.                                                ",
"                                        t.u.v.w.x.y.z.A.B.C.D.E.F.I G.H.I.J.K.L.                                                ",
"                                      $ M.N.O.P.Q.j.h R.S.g T.U.V.W.X.Y.Z.`. +.+                                                ",
"                                  {.++@+#+#.F $+%+&+% @+*+=+-+;+>+,+,+'+)+!+~+{+                                                ",
"                                  ]+^+$ {./+(+_+:+<+L..+K.[+}+|+1+,+,+2+3+4+5+{+                                                ",
"                                            6+7+8+9+0+.+K.a+b+c+d+X.X.e+f+g+h+i+j+                                              ",
"                                            . k+l+m+n+o+p+q+r+s+t+W.W.W.~+u+v+w+x+                                              ",
"                                              y+# + P.2 z+A+B+C+D+E+F+G+H+I+J+K+L+                                              ",
"                                              M+N+O+d P+Q+R+S+T+U+V+~+ +W+X+Y+Z+`+                                              ",
"                                               @y+&+F .@; +@@@#@$@%@&@*@=@-@;@>@,@                                              ",
"                                              '@)@!@~@s {@5 ]@^@/@(@_@:@<@[@}@|@1@                                              ",
"                                              2@3@4@5@6@7@8@9@0@a@b@c@d@e@f@m !.g@h@                                            ",
"                                            %.i@j@k@l@m@n@o@8@p@q@r@s@t@u@v@w@x@&+y@                                            ",
"                                            z@A@4@B@C@D@E@F@G@H@I@J@K@L@M@N@n@O@l P@                                            ",
"                                            Q@R@S@T@C@U@V@W@X@Y@x.Z@`@ #.#+#@#O@##1 $#                                          ",
"                                          %#&#*#=#-#;#>#V@,#W@'#)#!#~#{#]#^#D@m@/#).(#                                          ",
"                                            _#:#<#[#}#|#1#2#3#4#,#5#6#7#% 8#9#0#z@D                                             ",
"                                            a#b#c#d#e#f#g#h#i#j#k#l#m#n#o#p#q#r#s#                                              ",
"                                          t#u#u#v#v#w#x#y#z#A#B#C#C#D#E#F#E#D#D#G#                                              ",
"                                          H#I#I#J#K#L#M#N#O#O#P#Q#R#R#S#T#z#z#U#V#W#                                            ",
"                                        X#I#I#Y#Z#`# $.$.$+$@$#$$$O#P#%$&$&$*$=$-$;$                                            ",
"                                        $.Y#>$u ,$'$)$M...!$!$~$.$#$$${$]$^$Y#/$-$($                                            ",
"                                      _$o#:$<$^ ^+/+@+M+M+N.[$@++$}$$#|$1$<$K#I#I#H#                                            ",
"                                      2$)$^ ^ u.M.M+3$4$#+N.[$@++$~$+.+.{.<$K#5$,$:$                                            ",
"                                      6$7$8$9$0$..a$4$3$3$N.3$v.b$b$c$M. $M#K#,$d$,$                                            ",
"                                    k +.#.e$f$i.g$h$B i$j$j$k$l$l$> M. $(#<$ .M.> m$                                            ",
"                                    n$4$j$o$>@n p$q$r$s$t$u$v$w$x$y$% z$: T A$B$C$N+                                            ",
"                                      D$E$F$G$H$I$J$K$z L$M$N$O$P$Q$R$S$T$z = U$|@P@                                            ",
"                                          e#z@V$W$##X$Y$Z$`$ %.%Q$+%@%#%$%K$%%~@&%*%                                            ",
"                                                =%-%;%W$W$;%>%S ,%'%)%!%>%W$~%F${%]%                                            ",
"                                                      ^%/%3@(%_%:%:%:%:%<%[%}%|%                                                ",
"                                                            1%2%3%                                                              ",
"                                                            4%4%                                                                ",
"                                                            4%4%                                                                ",
"                                                            4%4%                                                                ",
"                                                            4%4%                                                                ",
"                                                                                                                                ",
"                                                                                                                                ",
"                                                                                                                                ",
"                                                                                                                                ",
"                                                                                                                                ",
"                                                                                                                                "};
