/* XPM */
static char * player_idle_4_xpm[] = {
"64 64 585 2",
"  	c None",
". 	c #283141",
"+ 	c #2B3546",
"@ 	c #252D3C",
"# 	c #39455B",
"$ 	c #323D51",
"% 	c #374359",
"& 	c #3A465C",
"* 	c #374257",
"= 	c #273040",
"- 	c #364258",
"; 	c #45536E",
"> 	c #1E2633",
", 	c #283243",
"' 	c #3C495F",
") 	c #3B475E",
"! 	c #2E384B",
"~ 	c #2F394C",
"{ 	c #546685",
"] 	c #3F4D65",
"^ 	c #283142",
"/ 	c #374358",
"( 	c #3B485E",
"_ 	c #404C64",
": 	c #3D4960",
"< 	c #313B4E",
"[ 	c #2D3648",
"} 	c #354055",
"| 	c #38445B",
"1 	c #3E4A61",
"2 	c #404D65",
"3 	c #3C485F",
"4 	c #313B4F",
"5 	c #2E384A",
"6 	c #333E52",
"7 	c #3F4C64",
"8 	c #39455A",
"9 	c #2D3748",
"0 	c #1E2532",
"a 	c #2C3647",
"b 	c #323C50",
"c 	c #364257",
"d 	c #3B485F",
"e 	c #3E4B62",
"f 	c #364156",
"g 	c #242C3B",
"h 	c #212836",
"i 	c #2B3446",
"j 	c #313C4F",
"k 	c #374258",
"l 	c #43516A",
"m 	c #3C4961",
"n 	c #364256",
"o 	c #303A4D",
"p 	c #1B222D",
"q 	c #232B39",
"r 	c #2B3445",
"s 	c #384459",
"t 	c #3E4A62",
"u 	c #414E66",
"v 	c #45546D",
"w 	c #475671",
"x 	c #242D3C",
"y 	c #303B50",
"z 	c #37445A",
"A 	c #44536C",
"B 	c #4B5B77",
"C 	c #4D5E7A",
"D 	c #46546E",
"E 	c #2A3345",
"F 	c #202835",
"G 	c #222B3A",
"H 	c #293345",
"I 	c #303C50",
"J 	c #38455B",
"K 	c #414E67",
"L 	c #495873",
"M 	c #4F5F7B",
"N 	c #4B5A75",
"O 	c #46556E",
"P 	c #3A475E",
"Q 	c #273041",
"R 	c #1D2431",
"S 	c #181D28",
"T 	c #181E29",
"U 	c #181D29",
"V 	c #161C27",
"W 	c #19202C",
"X 	c #1F2735",
"Y 	c #242C3C",
"Z 	c #252E3E",
"` 	c #22252E",
" .	c #363841",
"..	c #444752",
"+.	c #474B55",
"@.	c #1A1E28",
"#.	c #161D28",
"$.	c #181E28",
"%.	c #191F2A",
"&.	c #171D28",
"*.	c #131924",
"=.	c #151B27",
"-.	c #181E2B",
";.	c #191F2C",
">.	c #1A212E",
",.	c #19202D",
"'.	c #181F2A",
").	c #1B1E26",
"!.	c #383B44",
"~.	c #393C45",
"{.	c #161B25",
"].	c #181E2A",
"^.	c #151B26",
"/.	c #121822",
"(.	c #171D29",
"_.	c #19202E",
":.	c #1A1E27",
"<.	c #2A2D35",
"[.	c #3A3D46",
"}.	c #151C27",
"|.	c #151A25",
"1.	c #1A202B",
"2.	c #1D2430",
"3.	c #1E2531",
"4.	c #1D2330",
"5.	c #191F2B",
"6.	c #141923",
"7.	c #131822",
"8.	c #181F2B",
"9.	c #33363F",
"0.	c #40434D",
"a.	c #474A54",
"b.	c #393C46",
"c.	c #263040",
"d.	c #2D374B",
"e.	c #2B3548",
"f.	c #222A37",
"g.	c #202734",
"h.	c #1F2633",
"i.	c #1C222E",
"j.	c #1F2632",
"k.	c #1F2733",
"l.	c #222937",
"m.	c #262F3F",
"n.	c #2D3749",
"o.	c #344055",
"p.	c #3A465E",
"q.	c #3E4B63",
"r.	c #404E67",
"s.	c #43516B",
"t.	c #485773",
"u.	c #485873",
"v.	c #435068",
"w.	c #46546D",
"x.	c #4D5D7A",
"y.	c #4C5D7A",
"z.	c #44526D",
"A.	c #2A3444",
"B.	c #202633",
"C.	c #212936",
"D.	c #242C3A",
"E.	c #272F3F",
"F.	c #2C3648",
"G.	c #333E53",
"H.	c #45536C",
"I.	c #495872",
"J.	c #4E5E7A",
"K.	c #556685",
"L.	c #5A6D8E",
"M.	c #5D7092",
"N.	c #5F7395",
"O.	c #5F7397",
"P.	c #5E7193",
"Q.	c #5A6C8E",
"R.	c #556786",
"S.	c #516280",
"T.	c #4C5B77",
"U.	c #1B212C",
"V.	c #262F3E",
"W.	c #2D374A",
"X.	c #343F53",
"Y.	c #414D65",
"Z.	c #3F4C63",
"`.	c #48566F",
" +	c #4D5D79",
".+	c #536483",
"++	c #566888",
"@+	c #526382",
"#+	c #495975",
"$+	c #404E66",
"%+	c #374357",
"&+	c #202632",
"*+	c #14181F",
"=+	c #020202",
"-+	c #040506",
";+	c #060708",
">+	c #090A0C",
",+	c #0F1217",
"'+	c #0E1013",
")+	c #101215",
"!+	c #2B2C1F",
"~+	c #A6A626",
"{+	c #707125",
"]+	c #151516",
"^+	c #151515",
"/+	c #161616",
"(+	c #595922",
"_+	c #C4C424",
":+	c #42421E",
"<+	c #111111",
"[+	c #0D0D0D",
"}+	c #040404",
"|+	c #060606",
"1+	c #090909",
"2+	c #0C0C0C",
"3+	c #0F0F0F",
"4+	c #121212",
"5+	c #848428",
"6+	c #FEFE04",
"7+	c #DBDB24",
"8+	c #21211A",
"9+	c #181818",
"0+	c #A5A529",
"a+	c #FFFF01",
"b+	c #8B8B29",
"c+	c #0E0E0E",
"d+	c #030303",
"e+	c #888828",
"f+	c #FFFF02",
"g+	c #DDDD24",
"h+	c #22221A",
"i+	c #999929",
"j+	c #FEFE05",
"k+	c #7E7E27",
"l+	c #242B39",
"m+	c #222935",
"n+	c #202530",
"o+	c #181B21",
"p+	c #0C0C0D",
"q+	c #32321B",
"r+	c #B6B625",
"s+	c #7E7E26",
"t+	c #181817",
"u+	c #171717",
"v+	c #37371D",
"w+	c #8F8F25",
"x+	c #282818",
"y+	c #28292D",
"z+	c #343945",
"A+	c #232832",
"B+	c #283040",
"C+	c #2A3443",
"D+	c #2E3849",
"E+	c #373F50",
"F+	c #3E4453",
"G+	c #474A53",
"H+	c #5C5A5E",
"I+	c #706B6A",
"J+	c #666364",
"K+	c #323235",
"L+	c #141515",
"M+	c #58575C",
"N+	c #7A7779",
"O+	c #4B505E",
"P+	c #333D4E",
"Q+	c #283140",
"R+	c #323C4F",
"S+	c #384356",
"T+	c #414A5D",
"U+	c #828085",
"V+	c #938E8F",
"W+	c #555A67",
"X+	c #222328",
"Y+	c #141414",
"Z+	c #34373F",
"`+	c #7C7A7F",
" @	c #77757A",
".@	c #333D4F",
"+@	c #2D3746",
"@@	c #202735",
"#@	c #27303E",
"$@	c #293343",
"%@	c #2F3A4D",
"&@	c #354053",
"*@	c #3A4458",
"=@	c #585C6B",
"-@	c #999494",
";@	c #6F7078",
">@	c #343946",
",@	c #3F4450",
"'@	c #88868A",
")@	c #60626B",
"!@	c #303B4D",
"~@	c #28303F",
"{@	c #1D2532",
"]@	c #242E3C",
"^@	c #283242",
"/@	c #2F394D",
"(@	c #313D50",
"_@	c #374155",
":@	c #3A4558",
"<@	c #89878D",
"[@	c #84838C",
"}@	c #3B4455",
"|@	c #101113",
"1@	c #0E0F11",
"2@	c #535763",
"3@	c #8A8C9A",
"4@	c #515665",
"5@	c #252C39",
"6@	c #222B3B",
"7@	c #252F40",
"8@	c #2A3446",
"9@	c #2E394C",
"0@	c #313C50",
"a@	c #344054",
"b@	c #6C707D",
"c@	c #999BA8",
"d@	c #5C6273",
"e@	c #272E3B",
"f@	c #161B26",
"g@	c #6B6F7E",
"h@	c #868B9D",
"i@	c #384152",
"j@	c #29303F",
"k@	c #202836",
"l@	c #212A3A",
"m@	c #222C3D",
"n@	c #242F41",
"o@	c #283447",
"p@	c #2C394C",
"q@	c #2E3C50",
"r@	c #313D52",
"s@	c #414A5C",
"t@	c #9498AA",
"u@	c #808597",
"v@	c #313643",
"w@	c #8C8C95",
"x@	c #727480",
"y@	c #2F3A4C",
"z@	c #2A3342",
"A@	c #202631",
"B@	c #1B222E",
"C@	c #212939",
"D@	c #212B3B",
"E@	c #232D3E",
"F@	c #253042",
"G@	c #2D3B4F",
"H@	c #2F3C50",
"I@	c #303D51",
"J@	c #7B8092",
"K@	c #9297AA",
"L@	c #474F5F",
"M@	c #5E5C62",
"N@	c #948F91",
"O@	c #3C4353",
"P@	c #2D394C",
"Q@	c #293242",
"R@	c #242A37",
"S@	c #1D2433",
"T@	c #202A3A",
"U@	c #242F40",
"V@	c #263144",
"W@	c #283448",
"X@	c #2A384C",
"Y@	c #2C394E",
"Z@	c #2D3A4F",
"`@	c #2E3B50",
" #	c #505768",
".#	c #8F94A6",
"+#	c #626674",
"@#	c #3B404B",
"##	c #79767B",
"$#	c #2B3549",
"%#	c #2C384C",
"&#	c #2B3648",
"*#	c #2A3344",
"=#	c #272F3E",
"-#	c #1E2737",
";#	c #202A3B",
">#	c #212B3D",
",#	c #232E40",
"'#	c #28354A",
")#	c #2B384C",
"!#	c #7C7E8E",
"~#	c #797A87",
"{#	c #364153",
"]#	c #2B3140",
"^#	c #273247",
"/#	c #2B364A",
"(#	c #1F2531",
"_#	c #1C2433",
":#	c #1E2738",
"<#	c #202A3D",
"[#	c #222D40",
"}#	c #243044",
"|#	c #263248",
"1#	c #28344A",
"2#	c #2A374C",
"3#	c #2B374C",
"4#	c #6C6E7B",
"5#	c #86848F",
"6#	c #40495B",
"7#	c #232D3D",
"8#	c #243045",
"9#	c #283348",
"0#	c #283346",
"a#	c #263043",
"b#	c #242D3D",
"c#	c #1D232E",
"d#	c #121720",
"e#	c #161C28",
"f#	c #192131",
"g#	c #1D2739",
"h#	c #202A3E",
"i#	c #222D42",
"j#	c #263247",
"k#	c #273349",
"l#	c #283449",
"m#	c #2A364C",
"n#	c #848189",
"o#	c #595C6A",
"p#	c #1E283D",
"q#	c #212C3F",
"r#	c #20293A",
"s#	c #1A222E",
"t#	c #161B24",
"u#	c #171B24",
"v#	c #181C23",
"w#	c #151820",
"x#	c #141922",
"y#	c #171E2C",
"z#	c #182030",
"A#	c #192232",
"B#	c #1A2435",
"C#	c #1D2638",
"D#	c #2A3140",
"E#	c #4F5058",
"F#	c #3D4049",
"G#	c #1A1F2A",
"H#	c #11141B",
"I#	c #15181F",
"J#	c #16181D",
"K#	c #191C21",
"L#	c #15181E",
"M#	c #191E27",
"N#	c #1A2029",
"O#	c #1A2028",
"P#	c #1B2027",
"Q#	c #1B2128",
"R#	c #1B2127",
"S#	c #1C2127",
"T#	c #1D2127",
"U#	c #1C2026",
"V#	c #1B1F25",
"W#	c #1B1F24",
"X#	c #1C2025",
"Y#	c #1D2126",
"Z#	c #1B2025",
"`#	c #1A1F26",
" $	c #181D24",
".$	c #1A1F29",
"+$	c #1A202A",
"@$	c #1B202A",
"#$	c #1B212B",
"$$	c #1C212B",
"%$	c #1D232D",
"&$	c #1E242E",
"*$	c #20252F",
"=$	c #1F252E",
"-$	c #1E232C",
";$	c #1E232B",
">$	c #1E222A",
",$	c #1D222A",
"'$	c #1D2129",
")$	c #1C2129",
"!$	c #1B2028",
"~$	c #1A2027",
"{$	c #191E28",
"]$	c #1C222C",
"^$	c #202733",
"/$	c #212834",
"($	c #212733",
"_$	c #1F2530",
":$	c #1F252F",
"<$	c #1E232D",
"[$	c #1D222B",
"}$	c #1B212A",
"|$	c #1B2029",
"1$	c #161A22",
"2$	c #1C222D",
"3$	c #1E232F",
"4$	c #1E2530",
"5$	c #212835",
"6$	c #222835",
"7$	c #1F242F",
"8$	c #1D222D",
"9$	c #1D232F",
"0$	c #1E2431",
"a$	c #222936",
"b$	c #1C202A",
"c$	c #1B222C",
"d$	c #1D222E",
"e$	c #212937",
"f$	c #212938",
"g$	c #232A38",
"h$	c #222A38",
"i$	c #1D242F",
"j$	c #222938",
"k$	c #232B3A",
"l$	c #1F2634",
"m$	c #242C39",
"n$	c #252C3A",
"o$	c #272F3D",
"p$	c #212837",
"q$	c #222A39",
"r$	c #222A3A",
"s$	c #1F2532",
"t$	c #2C3546",
"u$	c #2B3545",
"v$	c #171D27",
"w$	c #262E3D",
"x$	c #2A3343",
"y$	c #354155",
"z$	c #39465C",
"A$	c #38445A",
"B$	c #37435A",
"C$	c #333F55",
"D$	c #303B4F",
"E$	c #414F69",
"F$	c #4C5C7A",
"G$	c #516281",
"H$	c #4B5B78",
"I$	c #3D4B62",
"J$	c #333E51",
"K$	c #2F394A",
"L$	c #333F53",
"M$	c #3D4A62",
"N$	c #43526B",
"O$	c #485874",
"P$	c #516282",
"Q$	c #5A6E92",
"R$	c #60759B",
"S$	c #687DA4",
"T$	c #6E84AC",
"U$	c #6D83AA",
"V$	c #6A80A7",
"W$	c #5B6E91",
"X$	c #4C5C78",
"Y$	c #232C3D",
"Z$	c #252E3F",
"`$	c #263042",
" %	c #2B3649",
".%	c #354157",
"+%	c #3C4A61",
"@%	c #43526C",
"#%	c #536586",
"$%	c #657AA0",
"%%	c #6A80A6",
"&%	c #677CA2",
"*%	c #5F7295",
"=%	c #4C5C79",
"-%	c #3B4860",
";%	c #2A3547",
">%	c #232C3C",
",%	c #1B212E",
"'%	c #171E2A",
")%	c #242D3E",
"!%	c #283245",
"~%	c #283244",
"{%	c #273144",
"]%	c #2D384C",
"^%	c #293346",
"/%	c #252F3F",
"(%	c #1E2634",
"_%	c #121821",
":%	c #1A212F",
"<%	c #202938",
"[%	c #273143",
"}%	c #252F41",
"|%	c #212A3B",
"1%	c #181F2C",
"2%	c #000000",
"3%	c #020305",
"4%	c #000101",
"                                                                                                                                ",
"                                                                                                                                ",
"                                                                                                                                ",
"                                                                                                                                ",
"                                                                                                                                ",
"                                                                                                                                ",
"                                                                                                                                ",
"                                                  . + @                                                                         ",
"                                                # $ % & * =                                                                     ",
"                                              - ; > , # ' ) !                                                                   ",
"                                              ~ { ] ^ / ( _ : <                                                                 ",
"                                                    [ } | 1 2 3 4                                                               ",
"                                                    5 6 % 3 2 7 8 9                                                             ",
"                                                  0 a b c d e 2 # f g                                                           ",
"                                                  h i j k ) e l m n o p                                                         ",
"                                                  q r 4 s t u v w 7 $ =                                                         ",
"                                                  x i y z t A B C D % E F                                                       ",
"                                                  G H I J K L M N O P Q R S                                                     ",
"                                                T U V W X Y Z `  ...+.@.#.T $.                                                  ",
"                                                %.&.*.=.-.;.>.,.'.).!.~.{.V T S                                                 ",
"                                              %.].^./.*.(.W ,.,._.:.<.[.=.}.|.&.1.                                              ",
"                                          2.3.0 4.5.6.7.^.(.8.&.9.0.a.b.c.d.d.e.^ @ f.g.h.i.                                    ",
"                                    j.j.k.g.l.m.n.o.p.q.r.s.t.u.v.w.L x.y.u.z.q.- j n.r A.B.                                    ",
"                                    g.C.l.D.E.F.G.) K H.I.J.K.L.M.N.O.P.Q.R.S.T.l # 9 D.{.                                      ",
"                                      U.3.C.V.W.X.c n Y.Z.' `. +.+++@+#+$+%+r &+*+                                              ",
"                                              =+-+;+>+,+'+)+!+~+{+]+^+/+(+_+:+<+[+                                              ",
"                                              =+}+|+1+2+3+4+5+6+7+8+9+9+0+a+b+4+c+                                              ",
"                                              d+}+|+1+2+3+4+e+f+g+h+9+9+i+j+k+<+[+                                              ",
"                                            g.l+m+n+o+p+c+<+q+r+s+t+u+u+v+w+x+y+z+A+                                            ",
"                                            h.B+C+D+E+F+G+H+I+J+K+^+/+/+L+M+N+O+P+                                              ",
"                                              g Q+r 5 R+S+T+U+V+W+X+Y+Y+Z+`+ @.@+@                                              ",
"                                              @@#@$@F.%@&@*@=@-@;@>@4+<+,@'@)@!@~@                                              ",
"                                              {@]@^@F./@(@_@:@<@[@}@|@1@2@3@4@5 5@                                              ",
"                                              {@6@7@8@9@0@X.a@b@c@d@e@f@g@h@i@9 j@                                              ",
"                                              k@l@m@n@o@p@q@r@s@t@u@i@v@w@x@y@[ z@A@                                            ",
"                                            B@C@D@E@F@o@p@G@H@I@J@K@L@M@N@O@P@F.Q@R@                                            ",
"                                            S@T@m@U@V@W@X@Y@Z@`@ #.#+#@###$#%#&#*#=#                                            ",
"                                          ^.-#;#>#,#V@W@'#)#Y@Z@r@!#~#{#]#^#/#e.H ^ (#                                          ",
"                                          ^._#:#<#[#}#|#1#2#3#2#`@4#5#6#7#8#9#0#a#b#c#                                          ",
"                                            d#e#f#g#h#i#8#j#k#l#m#4@n#o#$@p#q#r#s#t#                                            ",
"                                            u#:.v#w#x#=.y#z#A#B#C#D#E#F#G#H#I#J#K#L#                                            ",
"                                            M#N#O#P#Q#R#S#T#U#V#W#W#X#Y#Y#U#U#Z#`# $                                            ",
"                                            .$+$+$@$#$$$%$&$*$=$-$;$;$>$,$'$)$!$~$O#                                            ",
"                                          {$@$@$#$]$c#(#B.^$/$($A@_$:$<$-$-$[$}$|$O#1$                                          ",
"                                          .$@$#$2$3$4$B.g.5$6$6$/$($A@7$:$_$8$$$@$$${$                                          ",
"                                          @$U.2$9$0$j.g.h h l.a$5$($&+&+/$j.%$$$b$9$U.                                          ",
"                                        {$c$d$9$3.h.@@e$f$g$l.a$5$5$l.h$5$(#c#$$c#> 9$                                          ",
"                                        i$^$3.0$h.@@e$h$j$h$l.h$q k$k$a$^$_$c#c#l$F m$                                          ",
"                                        a$n$o$E.V.k$e$p$j$q$G r$q$q$k@B.(#s$e$^@t$u$Q+c#                                        ",
"                                      v$h w$x$9 < y$# z$A$B$C$D$W.%@- E$F$G$H$I$J$K$Q+c#                                        ",
"                                      v$p$f$x i L$& M$K N$O$P$Q$R$S$T$U$V$W$X$$+6 . e$T                                         ",
"                                        x#R Y$Z$`$ %.%+%@%F$#%Q$R$$%%%&%*%=%-%;%7@>%,%                                          ",
"                                              '%>.)%!%~%{%!%e.]%y D$d.^%!%!%~%/%(%_%                                            ",
"                                                    ^.:%<%Y$7@`$[%!%!%{%}%|%1%                                                  ",
"                                                      2%2%            3%4%2%                                                    ",
"                                                      2%2%            2%2%                                                      ",
"                                                      2%2%            2%2%                                                      ",
"                                                      2%2%            2%2%                                                      ",
"                                                      2%2%            2%                                                        ",
"                                                                                                                                ",
"                                                                                                                                ",
"                                                                                                                                ",
"                                                                                                                                ",
"                                                                                                                                "};
