/* XPM */
static char * snack3_xpm[] = {
"32 32 31 1",
" 	c None",
".	c #451A03",
"+	c #755443",
"@	c #F3E4D3",
"#	c #FFF3E5",
"$	c #E1CAAF",
"%	c #630000",
"&	c #390000",
"*	c #055724",
"=	c #023F2F",
"-	c #E13C48",
";	c #A50006",
">	c #5DA551",
",	c #FFB891",
"'	c #B79E7F",
")	c #438139",
"!	c #B15B2D",
"~	c #CFA46E",
"{	c #933D0E",
"]	c #A54815",
"^	c #C97C52",
"/	c #7DBD58",
"(	c #DEB078",
"_	c #EDCB97",
":	c #C9894D",
"<	c #872F24",
"[	c #751F00",
"}	c #692C44",
"|	c #C36458",
"1	c #765587",
"2	c #69374A",
"                                ",
"                                ",
"                                ",
"                                ",
"                                ",
"                                ",
"             .....              ",
"          ..+@###$+.            ",
"        .+#@##%&*=#$.           ",
"       .@#@$#%-;&*@#$.          ",
"      .@##>**&;;,-'>*$.         ",
"     .$#@##*%,-&--*)$@$.        ",
"     .!$~#@#&--=)>$@###$.       ",
"     .{]$#$@)*=$$@####@#$.      ",
"      .!^~@>/>*@###@(_(_(:.     ",
"      .!{]$$)=$@$@(___<(_:.     ",
"      .![!]~=$##(_}}}(|11!.     ",
"       .!!!]$$$(__(}}}(11.      ",
"       .{!^!{$^__(|:(___:.      ",
"        .!!!!{(:<<|_(|<_!.      ",
"         .!^2]_<<<__<<:(.       ",
"          .^2!_<<:}}_:1:.       ",
"           .!!:(__}}(1..        ",
"            .{!_<<:(..          ",
"             ..!<<..            ",
"               ...              ",
"                                ",
"                                ",
"                                ",
"                                ",
"                                ",
"                                "};
