/* XPM */
static char * snack2_xpm[] = {
"32 32 7 1",
" 	c None",
".	c #450E00",
"+	c #B17157",
"@	c #C38863",
"#	c #692E16",
"$	c #8D5139",
"%	c #DBA380",
"                                ",
"                                ",
"                                ",
"                                ",
"                                ",
"                                ",
"           ....                 ",
"          .+@@+#.               ",
"         .@+++$++#.             ",
"        .#$%@$+@@++#.           ",
"       .+@@$#$%@++$++#.         ",
"      .@+++$++$$@$+@@++#.       ",
"      .$%@$+@@++#$%@++$++#.     ",
"      .#$#%++++$++$$@$+@@+@.    ",
"       ..#$@%@$+@@++#$%@+@$.    ",
"         ..#$#%++++$++$$@$#.    ",
"           ..#$@%@$+@@+@$#.     ",
"             ..#$#++++%$#.      ",
"       ...     ..#$@%@$#.       ",
"      .+++.      ..#$##.        ",
"      .@%@.       .....         ",
"      #$$$. ...  .+++.          ",
"      #####.+++. .@%@.          ",
"           .@%@. #$$$#          ",
"           #$$$# #####          ",
"           #####                ",
"                                ",
"                                ",
"                                ",
"                                ",
"                                ",
"                                "};
