/* XPM */
static char * snack4_xpm[] = {
"32 32 23 1",
" 	c None",
".	c #550336",
"+	c #6D1E3B",
"@	c #CD1910",
"#	c #F54942",
"$	c #FDCDDE",
"%	c #FDF0F4",
"&	c #F96C66",
"*	c #FFFFFF",
"=	c #F1342B",
"-	c #FFA076",
";	c #840000",
">	c #FDD9E5",
",	c #F16962",
"'	c #A33C61",
")	c #BE3835",
"!	c #D36867",
"~	c #F99BB4",
"{	c #FFACC3",
"]	c #F57E7B",
"^	c #EC839F",
"/	c #E87371",
"(	c #D75553",
"                                ",
"                                ",
"                                ",
"                                ",
"                                ",
"              ....              ",
"          +++.@##@.+++          ",
"        ++$%.@#&##@.*$+         ",
"       +$***.=##-##;**$+        ",
"      +***>>;===##=;***+        ",
"      +%*>**%;@===,;*>$'        ",
"      +$%*%>>%$;;;;>>**'        ",
"       +%%>******>>****'        ",
"       +$>%%%**%>*****%'        ",
"       '$$$%%%>*****>%*'        ",
"       '$$)!$>%%%**>***'        ",
"        '%~{]!$%%%>***%'        ",
"        '%~{^{/!$>%%%%%+        ",
"        '$)/~{^~/!$%%%$+        ",
"        +$~{(/{{~{//((/+        ",
"         +$(~{(/~{~~{~^+        ",
"          ++(/^{(/{^{~(+        ",
"            ++(/{{(//(~+        ",
"              ++(/{~{^(+        ",
"                ++((/(+         ",
"                  ++++          ",
"                                ",
"                                ",
"                                ",
"                                ",
"                                ",
"                                "};
