/* XPM */
static char * snack1_xpm[] = {
"32 32 27 1",
" 	c None",
".	c #6F0C00",
"+	c #E18025",
"@	c #F1A85D",
"#	c #9F3900",
"$	c #FCCB77",
"%	c #FFE5A6",
"&	c #E1974A",
"*	c #F39237",
"=	c #9F4E20",
"-	c #F9B659",
";	c #FFE59B",
">	c #F4A467",
",	c #D06E15",
"'	c #F9DE64",
")	c #FAB56A",
"!	c #FFFCC4",
"~	c #C97A0B",
"{	c #FFFFFF",
"]	c #EFC557",
"^	c #FFDC9C",
"/	c #FFF1C4",
"(	c #FBE18E",
"_	c #C89A6E",
":	c #A56339",
"<	c #D59D50",
"[	c #BB743E",
"                                ",
"                                ",
"                                ",
"                                ",
"                                ",
"               ...              ",
"              .+@+#.            ",
"              #@++++#.          ",
"             .@$@$@+++#.        ",
"             #$$%$&$@++@#.      ",
"            .**@$@%$&$@+++.     ",
"           =----**@$$@%$@+.     ",
"          =$;;$----*@$$$>,.     ",
"         #'';;;;;$---*),$>#     ",
"        #;!;;;;;;;;$>>*>$$~     ",
"       #''';!{!;;]>>^^/^^/~     ",
"      #''''''']>>^(//^(^//#     ",
"      .;!!;]]]'/////////^(#     ",
"      .]']'/(////(/(/(^//^.     ",
"      ~'{/////////(^{//^_:.     ",
"      </////////(///^_:::.      ",
"      </{////({//^_::::#.       ",
"      ~///////^_::::#..         ",
"      #^///^_::::#..            ",
"      .++[::::#..               ",
"       .+[:#..                  ",
"        ...                     ",
"                                ",
"                                ",
"                                ",
"                                ",
"                                "};
