/* XPM */
static char * wall_right_xpm[] = {
"64 64 581 2",
"  	c None",
". 	c #397449",
"+ 	c #3D8050",
"@ 	c #387548",
"# 	c #35683E",
"$ 	c #355F36",
"% 	c #35552D",
"& 	c #334522",
"* 	c #2B3413",
"= 	c #21270D",
"- 	c #171B0A",
"; 	c #101308",
"> 	c #0A0C05",
", 	c #040501",
"' 	c #020300",
") 	c #010100",
"! 	c #000000",
"~ 	c #24381B",
"{ 	c #303E1C",
"] 	c #22290E",
"^ 	c #191E0A",
"/ 	c #1B220D",
"( 	c #1F250D",
"_ 	c #1E240C",
": 	c #191D0A",
"< 	c #0F1207",
"[ 	c #080A03",
"} 	c #030401",
"| 	c #010200",
"1 	c #264727",
"2 	c #30532D",
"3 	c #334824",
"4 	c #2A3212",
"5 	c #232B0E",
"6 	c #1F240C",
"7 	c #070803",
"8 	c #050702",
"9 	c #090C04",
"0 	c #060803",
"a 	c #336F45",
"b 	c #367347",
"c 	c #3C7949",
"d 	c #3B6C3F",
"e 	c #35522B",
"f 	c #313D1B",
"g 	c #2C3413",
"h 	c #272E10",
"i 	c #1B200B",
"j 	c #181D08",
"k 	c #111407",
"l 	c #090B04",
"m 	c #44905C",
"n 	c #42915C",
"o 	c #3F8552",
"p 	c #3C7244",
"q 	c #385F35",
"r 	c #354F29",
"s 	c #32421F",
"t 	c #2A3315",
"u 	c #293A1B",
"v 	c #2E3F1E",
"w 	c #2F3A19",
"x 	c #252D10",
"y 	c #1B1F0B",
"z 	c #111408",
"A 	c #080A04",
"B 	c #356F45",
"C 	c #479761",
"D 	c #3E8654",
"E 	c #3E7F4D",
"F 	c #3B7143",
"G 	c #396237",
"H 	c #324D28",
"I 	c #2F4D2A",
"J 	c #355830",
"K 	c #344A25",
"L 	c #2F3817",
"M 	c #1F250C",
"N 	c #0F1208",
"O 	c #3A7A4D",
"P 	c #428D59",
"Q 	c #3E7D4C",
"R 	c #335B34",
"S 	c #386C40",
"T 	c #3B6E41",
"U 	c #375930",
"V 	c #334622",
"W 	c #2F3716",
"X 	c #20260D",
"Y 	c #181C0A",
"Z 	c #213D21",
"` 	c #3B7E4E",
" .	c #3F8351",
"..	c #3C7344",
"+.	c #396338",
"@.	c #36542D",
"#.	c #334723",
"$.	c #303B19",
"%.	c #1B210B",
"&.	c #050602",
"*.	c #346B42",
"=.	c #46965F",
"-.	c #418E59",
";.	c #3F8250",
">.	c #3A6F41",
",.	c #304F2B",
"'.	c #2A3B1C",
").	c #252D11",
"!.	c #1F260C",
"~.	c #131708",
"{.	c #000100",
"].	c #387448",
"^.	c #4A9A63",
"/.	c #418856",
"(.	c #346239",
"_.	c #314A26",
":.	c #313C1B",
"<.	c #2D3514",
"[.	c #262D0F",
"}.	c #16190A",
"|.	c #0C0E06",
"1.	c #295532",
"2.	c #35673D",
"3.	c #366036",
"4.	c #375A31",
"5.	c #344B26",
"6.	c #334420",
"7.	c #303B1A",
"8.	c #293012",
"9.	c #21280D",
"0.	c #1B210A",
"a.	c #131608",
"b.	c #0B0D05",
"c.	c #275533",
"d.	c #37764A",
"e.	c #3D8351",
"f.	c #3E804E",
"g.	c #3B7041",
"h.	c #386036",
"i.	c #36532C",
"j.	c #2C4221",
"k.	c #315D37",
"l.	c #356A3F",
"m.	c #38693D",
"n.	c #375D34",
"o.	c #34502A",
"p.	c #314623",
"q.	c #2D3C1C",
"r.	c #252D12",
"s.	c #191E08",
"t.	c #060902",
"u.	c #458F5B",
"v.	c #44945E",
"w.	c #408855",
"x.	c #3E7B4B",
"y.	c #3B6E40",
"z.	c #2F512E",
"A.	c #418956",
"B.	c #418D59",
"C.	c #3A6A3D",
"D.	c #36562E",
"E.	c #293112",
"F.	c #242B0F",
"G.	c #1A1E0B",
"H.	c #0E1006",
"I.	c #336A42",
"J.	c #418A57",
"K.	c #408653",
"L.	c #3A6E40",
"M.	c #3B764A",
"N.	c #448C58",
"O.	c #43915C",
"P.	c #334421",
"Q.	c #2C3414",
"R.	c #242B0E",
"S.	c #1D230C",
"T.	c #161A0A",
"U.	c #161B08",
"V.	c #273317",
"W.	c #2B3416",
"X.	c #262D10",
"Y.	c #243C20",
"Z.	c #366F45",
"`.	c #336C43",
" +	c #31633C",
".+	c #305B35",
"++	c #31542E",
"@+	c #334C27",
"#+	c #1C210B",
"$+	c #131609",
"%+	c #0D0F06",
"&+	c #060702",
"*+	c #2E3C1C",
"=+	c #323D1B",
"-+	c #2D3615",
";+	c #282F10",
">+	c #232A0E",
",+	c #1C220B",
"'+	c #1A200A",
")+	c #141709",
"!+	c #0B0E06",
"~+	c #2F401F",
"{+	c #33421F",
"]+	c #313B19",
"^+	c #2D3515",
"/+	c #293111",
"(+	c #252D0F",
"_+	c #22280D",
":+	c #19220D",
"<+	c #2D3A1A",
"[+	c #272F11",
"}+	c #070903",
"|+	c #040602",
"1+	c #233015",
"2+	c #344823",
"3+	c #323F1D",
"4+	c #313B1A",
"5+	c #2F3918",
"6+	c #2D3414",
"7+	c #252C0F",
"8+	c #213318",
"9+	c #314522",
"0+	c #0A0D05",
"a+	c #020200",
"b+	c #243216",
"c+	c #314421",
"d+	c #273417",
"e+	c #12200F",
"f+	c #234527",
"g+	c #315932",
"h+	c #1D220B",
"i+	c #161A09",
"j+	c #0C0F06",
"k+	c #367549",
"l+	c #3B8050",
"m+	c #375A32",
"n+	c #303917",
"o+	c #283011",
"p+	c #171B09",
"q+	c #3C7E4F",
"r+	c #45945E",
"s+	c #408A57",
"t+	c #3D7A4A",
"u+	c #3A673B",
"v+	c #36572F",
"w+	c #313C1A",
"x+	c #0B0E04",
"y+	c #020301",
"z+	c #408655",
"A+	c #408956",
"B+	c #3D7B4A",
"C+	c #3A6B3E",
"D+	c #375830",
"E+	c #2F4422",
"F+	c #20270E",
"G+	c #204225",
"H+	c #377145",
"I+	c #377447",
"J+	c #366E42",
"K+	c #2F532E",
"L+	c #223318",
"M+	c #1A1E0A",
"N+	c #060802",
"O+	c #2A5B37",
"P+	c #428E5A",
"Q+	c #428F5A",
"R+	c #3B7042",
"S+	c #3A683C",
"T+	c #345831",
"U+	c #294121",
"V+	c #1D270F",
"W+	c #171C09",
"X+	c #448F5B",
"Y+	c #45955F",
"Z+	c #418C58",
"`+	c #3B7142",
" @	c #35512B",
".@	c #354D28",
"+@	c #2C3C1D",
"@@	c #202A12",
"#@	c #101405",
"$@	c #1A2610",
"%@	c #2B3C1D",
"&@	c #34633C",
"*@	c #34673F",
"=@	c #336D43",
"-@	c #3B7C4C",
";@	c #325730",
">@	c #354E28",
",@	c #33411E",
"'@	c #282F11",
")@	c #131709",
"!@	c #344924",
"~@	c #334320",
"{@	c #2E3616",
"]@	c #2E5E39",
"^@	c #336940",
"/@	c #387144",
"(@	c #3B6D40",
"_@	c #36552E",
":@	c #32401E",
"<@	c #313A18",
"[@	c #111508",
"}@	c #273619",
"|@	c #2C3C1C",
"1@	c #2D3A1B",
"2@	c #2C3617",
"3@	c #293013",
"4@	c #377247",
"5@	c #387043",
"6@	c #305A34",
"7@	c #345F36",
"8@	c #303918",
"9@	c #254C2C",
"0@	c #3F8754",
"a@	c #3A693C",
"b@	c #32522C",
"c@	c #2B4322",
"d@	c #2C4725",
"e@	c #324925",
"f@	c #31401D",
"g@	c #283012",
"h@	c #121508",
"i@	c #254C2D",
"j@	c #3D7848",
"k@	c #396539",
"l@	c #36512B",
"m@	c #33431F",
"n@	c #2E3717",
"o@	c #1F270F",
"p@	c #20270F",
"q@	c #121507",
"r@	c #2B3B1C",
"s@	c #243D20",
"t@	c #366338",
"u@	c #32401D",
"v@	c #2C3E1E",
"w@	c #1A210C",
"x@	c #274021",
"y@	c #334B26",
"z@	c #303D1B",
"A@	c #262E10",
"B@	c #222F15",
"C@	c #2A3A1B",
"D@	c #2F3D1C",
"E@	c #323E1C",
"F@	c #303817",
"G@	c #20270D",
"H@	c #171D0A",
"I@	c #293215",
"J@	c #040601",
"K@	c #141A08",
"L@	c #262D11",
"M@	c #181D0A",
"N@	c #151809",
"O@	c #0D1006",
"P@	c #0A0D04",
"Q@	c #0D1004",
"R@	c #346D43",
"S@	c #3A7B4C",
"T@	c #3B7D4D",
"U@	c #366D42",
"V@	c #2E5732",
"W@	c #24371B",
"X@	c #0E1107",
"Y@	c #254F2F",
"Z@	c #438F5B",
"`@	c #43925C",
" #	c #34542D",
".#	c #273D1F",
"+#	c #151E0C",
"@#	c #3B7B4D",
"##	c #479760",
"$#	c #3F8452",
"%#	c #3D7747",
"&#	c #385C33",
"*#	c #36532B",
"=#	c #344C27",
"-#	c #334521",
";#	c #2C391A",
">#	c #21270E",
",#	c #121706",
"'#	c #080A02",
")#	c #2C5E39",
"!#	c #326A40",
"~#	c #3B784A",
"{#	c #3C7646",
"]#	c #36522B",
"^#	c #344925",
"/#	c #2E3615",
"(#	c #2D5F3A",
"_#	c #2A5633",
":#	c #306039",
"<#	c #3A7144",
"[#	c #39653A",
"}#	c #151909",
"|#	c #30643E",
"1#	c #45935D",
"2#	c #408654",
"3#	c #335C34",
"4#	c #284A29",
"5#	c #345B33",
"6#	c #32411E",
"7#	c #357046",
"8#	c #469660",
"9#	c #346138",
"0#	c #305933",
"a#	c #366339",
"b#	c #314C28",
"c#	c #2B4121",
"d#	c #2F4220",
"e#	c #2A5936",
"f#	c #306940",
"g#	c #32653D",
"h#	c #3A7446",
"i#	c #313A19",
"j#	c #111506",
"k#	c #121607",
"l#	c #0F1304",
"m#	c #070902",
"n#	c #2B5D39",
"o#	c #357448",
"p#	c #3D8150",
"q#	c #3E7C4B",
"r#	c #356036",
"s#	c #2E4D29",
"t#	c #2D4120",
"u#	c #2D3E1E",
"v#	c #2E3C1B",
"w#	c #2C3516",
"x#	c #252C10",
"y#	c #212C11",
"z#	c #263518",
"A#	c #2D3717",
"B#	c #2F603A",
"C#	c #42905B",
"D#	c #37683D",
"E#	c #3F8251",
"F#	c #3D7C4C",
"G#	c #386D41",
"H#	c #35542D",
"I#	c #2B3414",
"J#	c #3F8454",
"K#	c #44935E",
"L#	c #366E43",
"M#	c #418F5A",
"N#	c #3F8451",
"O#	c #141809",
"P#	c #203E22",
"Q#	c #3E8352",
"R#	c #3F804E",
"S#	c #375C33",
"T#	c #313F1D",
"U#	c #030501",
"V#	c #1A210B",
"W#	c #242C11",
"X#	c #253014",
"Y#	c #3C7B4B",
"Z#	c #3C7545",
"`#	c #304321",
" $	c #1C220A",
".$	c #101307",
"+$	c #2C3B1C",
"@$	c #2B3312",
"#$	c #1B2711",
"$$	c #1F3018",
"%$	c #1C2B14",
"&$	c #151B0A",
"*$	c #040502",
"=$	c #28391B",
"-$	c #2B3313",
";$	c #1D2C14",
">$	c #121509",
",$	c #080904",
"'$	c #1E2C13",
")$	c #2E4120",
"!$	c #2E3E1D",
"~$	c #2C3718",
"{$	c #2A3213",
"]$	c #30603A",
"^$	c #42925C",
"/$	c #387447",
"($	c #1C341C",
"_$	c #346E44",
":$	c #428F5B",
"<$	c #3C7546",
"[$	c #2F5630",
"}$	c #1B2C15",
"|$	c #356D42",
"1$	c #2E5934",
"2$	c #3E8553",
"3$	c #385E34",
"4$	c #36542C",
"5$	c #314622",
"6$	c #273114",
"7$	c #080B02",
"8$	c #010201",
"9$	c #2C5A37",
"0$	c #44915C",
"a$	c #408452",
"b$	c #3D7949",
"c$	c #2D5631",
"d$	c #3C7748",
"e$	c #377448",
"f$	c #408754",
"g$	c #39663A",
"h$	c #2B4726",
"i$	c #356137",
"j$	c #31411E",
"k$	c #212C12",
"l$	c #2C4323",
"m$	c #2E5430",
"n$	c #32673E",
"o$	c #3C794A",
"p$	c #36552D",
"q$	c #2D3D1D",
"r$	c #294020",
"s$	c #2C3919",
"t$	c #0B0E05",
"u$	c #33411F",
"v$	c #1F391F",
"w$	c #33623A",
"x$	c #305530",
"y$	c #19210C",
"z$	c #222E14",
"A$	c #293315",
"B$	c #1A1F0B",
"C$	c #283619",
"D$	c #2F5E39",
"E$	c #387749",
"F$	c #2A4827",
"G$	c #32663E",
"H$	c #408A56",
"I$	c #3F814F",
"J$	c #35552E",
"K$	c #243418",
"L$	c #101407",
"M$	c #3D8252",
"N$	c #2E5933",
"O$	c #448D59",
"P$	c #3C7445",
"Q$	c #386035",
"R$	c #35502A",
"S$	c #2C3B1B",
"T$	c #161E0B",
"U$	c #326C42",
"V$	c #30532E",
"W$	c #335E37",
"X$	c #33683F",
"Y$	c #3A7849",
"Z$	c #386137",
"`$	c #2A3314",
" %	c #1A2009",
".%	c #0D1005",
"+%	c #387347",
"@%	c #274727",
"#%	c #376338",
"$%	c #34633A",
"%%	c #131B0B",
"&%	c #2B4826",
"*%	c #344C26",
"=%	c #2D3616",
"-%	c #264424",
";%	c #2E4C29",
">%	c #305C36",
",%	c #33633A",
"'%	c #345E35",
")%	c #304824",
"!%	c #2C3D1D",
"~%	c #263519",
"{%	c #30401E",
"]%	c #43905B",
"^%	c #313E1B",
"/%	c #242E14",
"(%	c #23290E",
"_%	c #4A9862",
":%	c #3D7748",
"<%	c #303A19",
"[%	c #121609",
"}%	c #171C08",
"|%	c #131707",
"                  . + @ # $ % & * = - ; > , ' ) ! ! ! ! ! ! ! ! ! ! ! ! ! ! ! ! ! ! ! ! ! ! ! ! ! ! ! ! ! ! ! ! ! ! ! ! ! ! ! ! ",
"                      ~ { ] ^ / ( _ : < [ } | ! ! ! ! ! ! ! ! ! ! ! ! ! ! ! ! ! ! ! ! ! ! ! ! ! ! ! ! ! ! ! ! ! ! ! ! ! ! ! ! ! ",
"                  1 2 3 4 5 6 : ; 7 8 9 0 ' ) ! ! ! ! ! ! ! ! ! ! ! ! ! ! ! ! ! ! ! ! ! ! ! ! ! ! ! ! ! ! ! ! ! ! ! ! ! ! ! ! ! ",
"            a b c d e f g h = i i j k l } ) ! ! ! ! ! ! ! ! ! ! ! ! ! ! ! ! ! ! ! ! ! ! ! ! ! ! ! ! ! ! ! ! ! ! ! ! ! ! ! ! ! ! ",
"          m n o p q r s t u v w x y z A } | ! ! ! ! ! ! ! ! ! ! ! ! ! ! ! ! ! ! ! ! ! ! ! ! ! ! ! ! ! ! ! ! ! ! ! ! ! ! ! ! ! ! ",
"        B C D E F G H I J K L h M - N A } | ! ! ! ! ! ! ! ! ! ! ! ! ! ! ! ! ! ! ! ! ! ! ! ! ! ! ! ! ! ! ! ! ! ! ! ! ! ! ! ! ! ! ",
"          O P o Q R S T U V W h X Y ; > , | ! ! ! ! ! ! ! ! ! ! ! ! ! ! ! ! ! ! ! ! ! ! ! ! ! ! ! ! ! ! ! ! ! ! ! ! ! ! ! ! ! ! ",
"                Z `  ...+.@.#.$.h %.k > &.' ! ! ! ! ! ! ! ! ! ! ! ! ! ! ! ! ! ! ! ! ! ! ! ! ! ! ! ! ! ! ! ! ! ! ! ! ! ! ! ! ! ! ",
"                *.=.-.;.>.,.'.).!.%.~.> } | {.! ! ! ! ! ! ! ! ! ! ! ! ! ! ! ! ! ! ! ! ! ! ! ! ! ! ! ! ! ! ! ! ! ! ! ! ! ! ! ! ! ",
"                ].^./.(._.& :.<.[.M }.|., | ) ! ! ! ! ! ! ! ! ! ! ! ! ! ! ! ! ! ! ! ! ! ! ! ! ! ! ! ! ! ! ! ! ! ! ! ! ! ! ! ! ! ",
"                1.2.3.4.5.6.7.8.9.0.a.b., | ) ! ! ! ! ! ! ! ! ! ! ! ! ! ! ! ! ! ! ! ! ! ! ! ! ! ! ! ! ! ! ! ! ! ! ! ! ! ! ! ! ! ",
"          c.d.e.f.g.h.i.j.k.l.m.n.o.p.q.r.s.t.! ! ! ! ! ! ! ! ! ! ! ! ! ! ! ! ! ! ! ! ! ! ! ! ! ! ! ! ! ! ! ! ! ! ! ! ! ! ! ! ! ",
"          u.v.w.x.y.G z.A.B.Q C.D.6.W E.F.M G.H.} ! ! ! ! ! ! ! ! ! ! ! ! ! ! ! ! ! ! ! ! ! ! ! ! ! ! ! ! ! ! ! ! ! ! ! ! ! ! ! ",
"          I.J.-.K.x.L.M.N.O.;.T U P.Q.R.S.T.; l &.' ! ! ! ! ! ! ! ! ! ! ! ! ! ! ! ! ! ! ! ! ! ! ! ! ! ! ! ! ! ! ! ! ! ! ! ! ! ! ",
"              U.V.W.X.Y.Z.`. +.+++@+f h #+$+%+&+' | ! ! ! ! ! ! ! ! ! ! ! ! ! ! ! ! ! ! ! ! ! ! ! ! ! ! ! ! ! ! ! ! ! ! ! ! ! ! ",
"              *+=+-+;+>+X S.#+^ ~.X ( ,+'+)+!+&.' ) ! ! ! ! ! ! ! ! ! ! ! ! ! ! ! ! ! ! ! ! ! ! ! ! ! ! ! ! ! ! ! ! ! ! ! ! ! ! ",
"            ~+{+]+^+/+(+_+_ #+:+<+[+#+$+l }+A |+| ! ! ! ! ! ! ! ! ! ! ! ! ! ! ! ! ! ! ! ! ! ! ! ! ! ! ! ! ! ! ! ! ! ! ! ! ! ! ! ",
"          1+2+P.3+4+5+W 6+7+8+9+E.= i $+0+, | a+) ! ! ! ! ! ! ! ! ! ! ! ! ! ! ! ! ! ! ! ! ! ! ! ! ! ! ! ! ! ! ! ! ! ! ! ! ! ! ! ",
"          b+c+d+      e+f+g+e L h 9.h+i+j+&.| {.! ! ! ! ! ! ! ! ! ! ! ! ! ! ! ! ! ! ! ! ! ! ! ! ! ! ! ! ! ! ! ! ! ! ! ! ! ! ! ! ",
"                  k+l+ ...m+V n+4 o+>+p+> , | {.! ! ! ! ! ! ! ! ! ! ! ! ! ! ! ! ! ! ! ! ! ! ! ! ! ! ! ! ! ! ! ! ! ! ! ! ! ! ! ! ",
"                q+r+s+t+u+v+K {+w+X x+y+) {.! ! ! ! ! ! ! ! ! ! ! ! ! ! ! ! ! ! ! ! ! ! ! ! ! ! ! ! ! ! ! ! ! ! ! ! ! ! ! ! ! ! ",
"                z+v.A+B+C+h.D+E+F+M a.}+' | ! ! ! ! ! ! ! ! ! ! ! ! ! ! ! ! ! ! ! ! ! ! ! ! ! ! ! ! ! ! ! ! ! ! ! ! ! ! ! ! ! ! ",
"                G+H+I+J+(.K+L+R.] M+N N+' | ! ! ! ! ! ! ! ! ! ! ! ! ! ! ! ! ! ! ! ! ! ! ! ! ! ! ! ! ! ! ! ! ! ! ! ! ! ! ! ! ! ! ",
"              O+P+Q+o t+R+S+T+U+V+W+< N+' | ! ! ! ! ! ! ! ! ! ! ! ! ! ! ! ! ! ! ! ! ! ! ! ! ! ! ! ! ! ! ! ! ! ! ! ! ! ! ! ! ! ! ",
"              X+Y+Z+E `++.U  @.@5.+@@@#@y+) ! ! ! ! ! ! ! ! ! ! ! ! ! ! ! ! ! ! ! ! ! ! ! ! ! ! ! ! ! ! ! ! ! ! ! ! ! ! ! ! ! ! ",
"        $@%@*+&@*@=@-@x.;@D+>@2+,@]+^+'@M )@l } | ! ! ! ! ! ! ! ! ! ! ! ! ! ! ! ! ! ! ! ! ! ! ! ! ! ! ! ! ! ! ! ! ! ! ! ! ! ! ! ",
"        u !@~@w+{@4 ]@^@/@(@_@#.:@<@4 >+i [@l } | ! ! ! ! ! ! ! ! ! ! ! ! ! ! ! ! ! ! ! ! ! ! ! ! ! ! ! ! ! ! ! ! ! ! ! ! ! ! ! ",
"          }@|@1@2@3@4@-.5@6@7@4.& 8@/+] i z A } | ! ! ! ! ! ! ! ! ! ! ! ! ! ! ! ! ! ! ! ! ! ! ! ! ! ! ! ! ! ! ! ! ! ! ! ! ! ! ! ",
"                    9@0@t+a@b@c@d@e@f@g@S.h@l } | ! ! ! ! ! ! ! ! ! ! ! ! ! ! ! ! ! ! ! ! ! ! ! ! ! ! ! ! ! ! ! ! ! ! ! ! ! ! ! ",
"                      i@j@k@l@m@n@>+o@p@0.q@A } | ! ! ! ! ! ! ! ! ! ! ! ! ! ! ! ! ! ! ! ! ! ! ! ! ! ! ! ! ! ! ! ! ! ! ! ! ! ! ! ",
"              r@:@f L o+s@t@_@u@g F.S.)+b., | {.! ! ! ! ! ! ! ! ! ! ! ! ! ! ! ! ! ! ! ! ! ! ! ! ! ! ! ! ! ! ! ! ! ! ! ! ! ! ! ! ",
"            v@#.{+=+W o+] w@x@y@z@A@S.)@> , | ! ! ! ! ! ! ! ! ! ! ! ! ! ! ! ! ! ! ! ! ! ! ! ! ! ! ! ! ! ! ! ! ! ! ! ! ! ! ! ! ! ",
"            B@C@D@E@F@;+G@h+i H@B@I@X.: j+J@| {.! ! ! ! ! ! ! ! ! ! ! ! ! ! ! ! ! ! ! ! ! ! ! ! ! ! ! ! ! ! ! ! ! ! ! ! ! ! ! ! ",
"                  K@L@4 _+#+M@N@$+O@P@Q@A } | {.! ! ! ! ! ! ! ! ! ! ! ! ! ! ! ! ! ! ! ! ! ! ! ! ! ! ! ! ! ! ! ! ! ! ! ! ! ! ! ! ",
"              R@S@T@U@V@W@^ - z X@l J@' ! ! ! ! ! ! ! ! ! ! ! ! ! ! ! ! ! ! ! ! ! ! ! ! ! ! ! ! ! ! ! ! ! ! ! ! ! ! ! ! ! ! ! ! ",
"          Y@Z@`@K.B+y.k@q  #.#+#j+A , ' {.{.! ! ! ! ! ! ! ! ! ! ! ! ! ! ! ! ! ! ! ! ! ! ! ! ! ! ! ! ! ! ! ! ! ! ! ! ! ! ! ! ! ! ",
"          @###n $#%#S+&#*#=#2+-#;#>#,#'#} | {.! ! ! ! ! ! ! ! ! ! ! ! ! ! ! ! ! ! ! ! ! ! ! ! ! ! ! ! ! ! ! ! ! ! ! ! ! ! ! ! ! ",
"              )#!#~#{#G ]#^#~@=+/#;+9.Y O@|+| {.! ! ! ! ! ! ! ! ! ! ! ! ! ! ! ! ! ! ! ! ! ! ! ! ! ! ! ! ! ! ! ! ! ! ! ! ! ! ! ! ",
"                (#_#:#<#[#>@{+w+<.7+_ }#|., | {.! ! ! ! ! ! ! ! ! ! ! ! ! ! ! ! ! ! ! ! ! ! ! ! ! ! ! ! ! ! ! ! ! ! ! ! ! ! ! ! ",
"            |#1#n 2#B+3#4#5#@.6#<.(+6 }#|., | {.! ! ! ! ! ! ! ! ! ! ! ! ! ! ! ! ! ! ! ! ! ! ! ! ! ! ! ! ! ! ! ! ! ! ! ! ! ! ! ! ",
"            7#8#B.f.9#0#a#b#'.c#d#w 7+Y %+|+| {.! ! ! ! ! ! ! ! ! ! ! ! ! ! ! ! ! ! ! ! ! ! ! ! ! ! ! ! ! ! ! ! ! ! ! ! ! ! ! ! ",
"              e#f#g#h#d _@2+,@i#[+_ i j#k#l#m#| ! ! ! ! ! ! ! ! ! ! ! ! ! ! ! ! ! ! ! ! ! ! ! ! ! ! ! ! ! ! ! ! ! ! ! ! ! ! ! ! ",
"            n#o#p#q#r#s#t#u#v#w#x#y#z#A#8.X T.j+, ) ! ! ! ! ! ! ! ! ! ! ! ! ! ! ! ! ! ! ! ! ! ! ! ! ! ! ! ! ! ! ! ! ! ! ! ! ! ! ",
"          B#C C# .D#E#v.Z+F#G#r#H##.I#R.S.- < }+} | ! ! ! ! ! ! ! ! ! ! ! ! ! ! ! ! ! ! ! ! ! ! ! ! ! ! ! ! ! ! ! ! ! ! ! ! ! ! ",
"            J#K#s+L###M#N#{#k@@.~@{@h = #+O#|.&.' | ! ! ! ! ! ! ! ! ! ! ! ! ! ! ! ! ! ! ! ! ! ! ! ! ! ! ! ! ! ! ! ! ! ! ! ! ! ! ",
"                  P#Q#-.R#y.S#r T#L E.F._ O#> U#| {.! ! ! ! ! ! ! ! ! ! ! ! ! ! ! ! ! ! ! ! ! ! ! ! ! ! ! ! ! ! ! ! ! ! ! ! ! ! ",
"                V#W#X#g#Y#Z#k@U `#D@L@ $U..$l } | ! ! ! ! ! ! ! ! ! ! ! ! ! ! ! ! ! ! ! ! ! ! ! ! ! ! ! ! ! ! ! ! ! ! ! ! ! ! ! ",
"              +${+i#@$>+M+#$$$%$&$> *$) ! ! ) | ) ! ! ! ! ! ! ! ! ! ! ! ! ! ! ! ! ! ! ! ! ! ! ! ! ! ! ! ! ! ! ! ! ! ! ! ! ! ! ! ",
"            =$K -#4+-$G@;$a.>$< !+,$&.' {.! ! ! ! ! ! ! ! ! ! ! ! ! ! ! ! ! ! ! ! ! ! ! ! ! ! ! ! ! ! ! ! ! ! ! ! ! ! ! ! ! ! ! ",
"            '$)$!$~${$]$^$/$($j+l &+} ) ! ! ! ! ! ! ! ! ! ! ! ! ! ! ! ! ! ! ! ! ! ! ! ! ! ! ! ! ! ! ! ! ! ! ! ! ! ! ! ! ! ! ! ! ",
"                      _$:$;.<$[$}$|+' ! ! ! ! ! ! ! ! ! ! ! ! ! ! ! ! ! ! ! ! ! ! ! ! ! ! ! ! ! ! ! ! ! ! ! ! ! ! ! ! ! ! ! ! ! ",
"                  =@|$1$2$q#C+3$4$5$6$j 7$8$! ! ! ! ! ! ! ! ! ! ! ! ! ! ! ! ! ! ! ! ! ! ! ! ! ! ! ! ! ! ! ! ! ! ! ! ! ! ! ! ! ! ",
"              9$0$-.a$b$c$d$S+4$P.8@-$7+i < 8 ' ) ! ! ! ! ! ! ! ! ! ! ! ! ! ! ! ! ! ! ! ! ! ! ! ! ! ! ! ! ! ! ! ! ! ! ! ! ! ! ! ",
"              e$8#C#f$x.g$h$i$D+j$g 7+_ }#|.&.| {.! ! ! ! ! ! ! ! ! ! ! ! ! ! ! ! ! ! ! ! ! ! ! ! ! ! ! ! ! ! ! ! ! ! ! ! ! ! ! ",
"              k$l$m$n$o$C+p$q$r$e@s$o+_ O#t$|+| {.! ! ! ! ! ! ! ! ! ! ! ! ! ! ! ! ! ! ! ! ! ! ! ! ! ! ! ! ! ! ! ! ! ! ! ! ! ! ! ",
"          d#V u$=+{@R.v$# w$x$c#y$z$A$h B$X@&.| {.! ! ! ! ! ! ! ! ! ! ! ! ! ! ! ! ! ! ! ! ! ! ! ! ! ! ! ! ! ! ! ! ! ! ! ! ! ! ! ",
"          C$D$E$F$E.G$C#H$I$Z#g$J$K$L$t$Q@l , | {.! ! ! ! ! ! ! ! ! ! ! ! ! ! ! ! ! ! ! ! ! ! ! ! ! ! ! ! ! ! ! ! ! ! ! ! ! ! ! ",
"            M$-.I$N$O$v.Z+ .P$Q$R$2+S$T$, ' | ! ! ! ! ! ! ! ! ! ! ! ! ! ! ! ! ! ! ! ! ! ! ! ! ! ! ! ! ! ! ! ! ! ! ! ! ! ! ! ! ! ",
"            U$H$t+C+V$W$X$Y$j@Z$>@{+w+$.`$ %.%&.a+) ! ! ! ! ! ! ! ! ! ! ! ! ! ! ! ! ! ! ! ! ! ! ! ! ! ! ! ! ! ! ! ! ! ! ! ! ! ! ",
"              +%%#+.]#V f [+@%#%@.6#/#(+X - O@&.' {.! ! ! ! ! ! ! ! ! ! ! ! ! ! ! ! ! ! ! ! ! ! ! ! ! ! ! ! ! ! ! ! ! ! ! ! ! ! ",
"                $%g$r =+4 ] #+%%&%*%=%] i z l U#| {.! ! ! ! ! ! ! ! ! ! ! ! ! ! ! ! ! ! ! ! ! ! ! ! ! ! ! ! ! ! ! ! ! ! ! ! ! ! ",
"                  -%;%>%,%'%b@)%!%~%{%`$M $+l U#| {.! ! ! ! ! ! ! ! ! ! ! ! ! ! ! ! ! ! ! ! ! ! ! ! ! ! ! ! ! ! ! ! ! ! ! ! ! ! ",
"                  *.]%K.P$h..@^%-+[+i /%A#(%h@&+' ) ! ! ! ! ! ! ! ! ! ! ! ! ! ! ! ! ! ! ! ! ! ! ! ! ! ! ! ! ! ! ! ! ! ! ! ! ! ! ",
"                  _%=.H$:%G .@<%o+= B$[%O@}%|%A ' {.! ! ! ! ! ! ! ! ! ! ! ! ! ! ! ! ! ! ! ! ! ! ! ! ! ! ! ! ! ! ! ! ! ! ! ! ! ! "};
