/* XPM */
static char * wall_left_xpm[] = {
"64 64 576 2",
"  	c None",
". 	c #000000",
"+ 	c #000100",
"@ 	c #020200",
"# 	c #070903",
"$ 	c #121607",
"% 	c #181D08",
"& 	c #0E1206",
"* 	c #111408",
"= 	c #191E0A",
"- 	c #20260D",
"; 	c #272E10",
"> 	c #2F3917",
", 	c #344B26",
"' 	c #386035",
") 	c #3C7545",
"! 	c #408854",
"~ 	c #45955F",
"{ 	c #4A9A63",
"] 	c #020300",
"^ 	c #050602",
"/ 	c #101307",
"( 	c #21270D",
"_ 	c #2D3616",
": 	c #263015",
"< 	c #1A200C",
"[ 	c #262D10",
"} 	c #2D3514",
"| 	c #313C1A",
"1 	c #385E34",
"2 	c #3B7143",
"3 	c #3F8451",
"4 	c #42905B",
"5 	c #387347",
"6 	c #010200",
"7 	c #030401",
"8 	c #080A04",
"9 	c #121508",
"0 	c #1E230C",
"a 	c #293112",
"b 	c #30401E",
"c 	c #27371A",
"d 	c #2B3B1B",
"e 	c #2F4623",
"f 	c #32512B",
"g 	c #345D34",
"h 	c #34633A",
"i 	c #315E37",
"j 	c #2E4D2A",
"k 	c #284726",
"l 	c #101308",
"m 	c #1A1F0B",
"n 	c #21280D",
"o 	c #2C3414",
"p 	c #344924",
"q 	c #2E4B28",
"r 	c #14200E",
"s 	c #354D27",
"t 	c #396438",
"u 	c #36673C",
"v 	c #040602",
"w 	c #0C0E06",
"x 	c #161A0A",
"y 	c #1F250C",
"z 	c #242C0F",
"A 	c #323F1D",
"B 	c #35512A",
"C 	c #386338",
"D 	c #294C2B",
"E 	c #262D11",
"F 	c #313C1B",
"G 	c #334521",
"H 	c #386036",
"I 	c #3C7445",
"J 	c #3A784A",
"K 	c #040502",
"L 	c #0C0E05",
"M 	c #293113",
"N 	c #303B19",
"O 	c #32411E",
"P 	c #344C26",
"Q 	c #3C7646",
"R 	c #3B7A4B",
"S 	c #336A40",
"T 	c #336038",
"U 	c #30542F",
"V 	c #39673B",
"W 	c #3D7848",
"X 	c #408855",
"Y 	c #367448",
"Z 	c #010100",
"` 	c #030501",
" .	c #131908",
"..	c #2A381A",
"+.	c #334723",
"@.	c #354F28",
"#.	c #385D34",
"$.	c #3C7243",
"%.	c #3F8250",
"&.	c #418B57",
"*.	c #43935E",
"=.	c #479660",
"-.	c #2C502D",
";.	c #3E7F4E",
">.	c #418C58",
",.	c #418A57",
"'.	c #0D1004",
").	c #0B0E05",
"!.	c #0F1207",
"~.	c #212F15",
"{.	c #34522B",
"].	c #3C7344",
"^.	c #3F804E",
"/.	c #408955",
"(.	c #42915C",
"_.	c #377146",
":.	c #2D3A1A",
"<.	c #2C4726",
"[.	c #367447",
"}.	c #326840",
"|.	c #2D4524",
"1.	c #040601",
"2.	c #0C0F06",
"3.	c #191D0A",
"4.	c #293215",
"5.	c #233015",
"6.	c #19200B",
"7.	c #293E1F",
"8.	c #30532F",
"9.	c #336139",
"0.	c #35683E",
"a.	c #254A2A",
"b.	c #293012",
"c.	c #344A25",
"d.	c #355029",
"e.	c #36552D",
"f.	c #35562F",
"g.	c #040501",
"h.	c #0A0C05",
"i.	c #131709",
"j.	c #1D230C",
"k.	c #262E10",
"l.	c #2C3818",
"m.	c #314824",
"n.	c #2A4222",
"o.	c #2B3A1B",
"p.	c #36522B",
"q.	c #3A693C",
"r.	c #3D7949",
"s.	c #346A40",
"t.	c #305934",
"u.	c #25371A",
"v.	c #213318",
"w.	c #0B0D05",
"x.	c #141709",
"y.	c #242B0F",
"z.	c #2B3313",
"A.	c #303E1C",
"B.	c #36552E",
"C.	c #366338",
"D.	c #2B4827",
"E.	c #386237",
"F.	c #408653",
"G.	c #418F5A",
"H.	c #3A794C",
"I.	c #0E1107",
"J.	c #1A1E0A",
"K.	c #242B0E",
"L.	c #2A3213",
"M.	c #2F3817",
"N.	c #33431F",
"O.	c #36512B",
"P.	c #396539",
"Q.	c #2E5833",
"R.	c #3F8351",
"S.	c #44925D",
"T.	c #30633C",
"U.	c #070902",
"V.	c #161B07",
"W.	c #252E12",
"X.	c #304321",
"Y.	c #36532C",
"Z.	c #375D33",
"`.	c #3D7A4A",
" +	c #3F8754",
".+	c #2E5A35",
"++	c #356D42",
"@+	c #346E43",
"#+	c #265130",
"$+	c #090B04",
"%+	c #1A2813",
"&+	c #2D512D",
"*+	c #3B7344",
"=+	c #3F814F",
"-+	c #418E59",
";+	c #377649",
">+	c #060702",
",+	c #131609",
"'+	c #1F3118",
")+	c #356E43",
"!+	c #366F44",
"~+	c #386A3E",
"{+	c #397648",
"]+	c #3D8251",
"^+	c #428957",
"/+	c #32653F",
"(+	c #0A0D05",
"_+	c #171A0A",
":+	c #272F11",
"<+	c #2C3D1D",
"[+	c #314C28",
"}+	c #3A693D",
"|+	c #3E7E4C",
"1+	c #428F5A",
"2+	c #489861",
"3+	c #3D7E4F",
"4+	c #151808",
"5+	c #1A210C",
"6+	c #25361A",
"7+	c #283417",
"8+	c #36542D",
"9+	c #3E7B4B",
"0+	c #3E8252",
"a+	c #020301",
"b+	c #0F1206",
"c+	c #151A07",
"d+	c #1B210A",
"e+	c #242B10",
"f+	c #2E3B1A",
"g+	c #304220",
"h+	c #36572F",
"i+	c #396338",
"j+	c #3D7B4B",
"k+	c #366D42",
"l+	c #305933",
"m+	c #316039",
"n+	c #294F2E",
"o+	c #1D220C",
"p+	c #232A0E",
"q+	c #293011",
"r+	c #2E3716",
"s+	c #303D1C",
"t+	c #354D28",
"u+	c #365A31",
"v+	c #3A6C3F",
"w+	c #3E7E4D",
"x+	c #418D58",
"y+	c #408856",
"z+	c #214125",
"A+	c #1B200B",
"B+	c #20270D",
"C+	c #262D0F",
"D+	c #2D3515",
"E+	c #32421F",
"F+	c #469660",
"G+	c #387145",
"H+	c #408956",
"I+	c #43935D",
"J+	c #418856",
"K+	c #295635",
"L+	c #070803",
"M+	c #1D220B",
"N+	c #2A3313",
"O+	c #324421",
"P+	c #35532C",
"Q+	c #355E35",
"R+	c #376B3F",
"S+	c #3C7A4B",
"T+	c #408A56",
"U+	c #44945E",
"V+	c #418755",
"W+	c #35653B",
"X+	c #479760",
"Y+	c #356E44",
"Z+	c #151809",
"`+	c #1E240C",
" @	c #282F11",
".@	c #2D3717",
"+@	c #273518",
"@@	c #212D13",
"#@	c #2C3415",
"$@	c #2E3E1E",
"%@	c #2D401F",
"&@	c #2F4D29",
"*@	c #335B33",
"=@	c #3D7A49",
"-@	c #3E8150",
";@	c #367549",
">@	c #2E633D",
",@	c #060802",
"'@	c #0E1204",
")@	c #111406",
"!@	c #1A1F0A",
"~@	c #303918",
"{@	c #32401E",
"]@	c #3B7547",
"^@	c #2F5A35",
"/@	c #283F20",
"(@	c #22361B",
"_@	c #2E3918",
":@	c #2F4220",
"<@	c #2B4121",
"[@	c #2A3C1D",
"}@	c #2F4724",
"|@	c #376339",
"1@	c #2E5430",
"2@	c #334823",
"3@	c #37572F",
"4@	c #2B4524",
"5@	c #35512B",
"6@	c #355C33",
"7@	c #284A29",
"8@	c #2A3518",
"9@	c #354C27",
"0@	c #36562F",
"a@	c #263E20",
"b@	c #2C3413",
"c@	c #313B1A",
"d@	c #33421F",
"e@	c #344C27",
"f@	c #3A7244",
"g@	c #2F5A34",
"h@	c #223418",
"i@	c #23361A",
"j@	c #326B41",
"k@	c #2D5F3A",
"l@	c #080A03",
"m@	c #121606",
"n@	c #20260E",
"o@	c #2B3718",
"p@	c #334421",
"q@	c #344723",
"r@	c #35522B",
"s@	c #375B32",
"t@	c #3C7546",
"u@	c #080B04",
"v@	c #1D250E",
"w@	c #283C1D",
"x@	c #385F35",
"y@	c #3B6D3F",
"z@	c #3F8552",
"A@	c #45935D",
"B@	c #2A5A37",
"C@	c #1C210B",
"D@	c #2E3B1B",
"E@	c #2D4725",
"F@	c #315B34",
"G@	c #356B40",
"H@	c #3B7C4C",
"I@	c #3A7D4D",
"J@	c #357045",
"K@	c #0D1005",
"L@	c #35502A",
"M@	c #34663C",
"N@	c #224426",
"O@	c #171B0A",
"P@	c #2A3214",
"Q@	c #283215",
"R@	c #313E1C",
"S@	c #334420",
"T@	c #354E28",
"U@	c #408552",
"V@	c #3D8452",
"W@	c #3A7C4E",
"X@	c #336C43",
"Y@	c #252C0F",
"Z@	c #2F3A19",
"`@	c #334A25",
" #	c #2C4524",
".#	c #2B3D1D",
"+#	c #386136",
"@#	c #44935E",
"##	c #428A58",
"$#	c #323E1C",
"%#	c #376338",
"&#	c #2C4D2B",
"*#	c #366137",
"=#	c #3B8050",
"-#	c #274F2F",
";#	c #111407",
">#	c #1A200A",
",#	c #20270F",
"'#	c #1F2810",
")#	c #354F29",
"!#	c #396237",
"~#	c #3D7747",
"{#	c #2A5633",
"]#	c #324924",
"^#	c #2C4423",
"/#	c #314D29",
"(#	c #3A673B",
"_#	c #2A5834",
":#	c #080903",
"<#	c #22280D",
"[#	c #283011",
"}#	c #334320",
"|#	c #356137",
"1#	c #305A34",
"2#	c #366B40",
"3#	c #3A7D4E",
"4#	c #2A3819",
"5#	c #304824",
"6#	c #2F4A26",
"7#	c #2B4423",
"8#	c #22290E",
"9#	c #334622",
"0#	c #3A6A3E",
"a#	c #3A7345",
"b#	c #33683F",
"c#	c #30653E",
"d#	c #2F3818",
"e#	c #33411E",
"f#	c #344925",
"g#	c #37582F",
"h#	c #2E4A27",
"i#	c #313A19",
"j#	c #32401D",
"k#	c #32562F",
"l#	c #3C7D4D",
"m#	c #346E44",
"n#	c #35683F",
"o#	c #37693F",
"p#	c #304B27",
"q#	c #2F4B27",
"r#	c #1F341A",
"s#	c #0D1104",
"t#	c #1F2710",
"u#	c #2A3A1B",
"v#	c #3B6F41",
"w#	c #3E7D4C",
"x#	c #47955F",
"y#	c #183019",
"z#	c #050702",
"A#	c #171B09",
"B#	c #1C240D",
"C#	c #283E1F",
"D#	c #32552F",
"E#	c #43905C",
"F#	c #181D0A",
"G#	c #213016",
"H#	c #2D502C",
"I#	c #366C41",
"J#	c #377447",
"K#	c #377145",
"L#	c #254B2C",
"M#	c #1F260D",
"N#	c #2C401F",
"O#	c #3A6A3D",
"P#	c #448F5B",
"Q#	c #080B03",
"R#	c #303A19",
"S#	c #344824",
"T#	c #418655",
"U#	c #151908",
"V#	c #282F10",
"W#	c #2A3112",
"X#	c #3B7142",
"Y#	c #3C8150",
"Z#	c #37774B",
"`#	c #0B0E06",
" $	c #1C220B",
".$	c #2E3616",
"+$	c #335A33",
"@$	c #264929",
"#$	c #152713",
"$$	c #273C1D",
"%$	c #314E29",
"&$	c #111508",
"*$	c #25381B",
"=$	c #344823",
"-$	c #294121",
";$	c #252D10",
">$	c #2E3A1A",
",$	c #1D2710",
"'$	c #313918",
")$	c #34512B",
"!$	c #1E240D",
"~$	c #21270E",
"{$	c #161B09",
"]$	c #2A3212",
"^$	c #334C27",
"/$	c #1E2D14",
"($	c #252D0F",
"_$	c #334B26",
":$	c #32532D",
"<$	c #31633B",
"[$	c #346C43",
"}$	c #387348",
"|$	c #2A4728",
"1$	c #2B3516",
"2$	c #2D3C1C",
"3$	c #2A3D1E",
"4$	c #1B230D",
"5$	c #151909",
"6$	c #36562E",
"7$	c #3E804E",
"8$	c #438B58",
"9$	c #3E7E4F",
"0$	c #396B3E",
"a$	c #418D59",
"b$	c #428C59",
"c$	c #367247",
"d$	c #1F240C",
"e$	c #2E3615",
"f$	c #3E7B4A",
"g$	c #428C58",
"h$	c #2F5632",
"i$	c #489660",
"j$	c #050601",
"k$	c #171C07",
"l$	c #242B11",
"m$	c #2C3A1A",
"n$	c #314522",
"o$	c #344F29",
"p$	c #38683C",
"q$	c #366A3F",
"r$	c #2C4323",
"s$	c #3B6D40",
"t$	c #3E8452",
"u$	c #37784B",
"v$	c #2B5C38",
"w$	c #282F12",
"x$	c #376137",
"y$	c #35663C",
"z$	c #2B5935",
"A$	c #141809",
"B$	c #314925",
"C$	c #345E36",
"D$	c #3E8352",
"E$	c #3C7B4D",
"F$	c #020401",
"G$	c #1B200A",
"H$	c #242C10",
"I$	c #2F4C28",
"J$	c #3F804F",
"K$	c #377347",
"L$	c #2F3918",
"M$	c #3F8150",
"N$	c #3D8352",
"O$	c #234124",
"P$	c #396F43",
"Q$	c #315731",
"R$	c #3F8452",
"S$	c #3C7F50",
"T$	c #16190A",
"U$	c #365830",
"V$	c #30502B",
"W$	c #314A26",
"X$	c #39774B",
"Y$	c #191E0B",
"Z$	c #2F3F1E",
"`$	c #2A3B1C",
" %	c #293214",
".%	c #385D33",
"+%	c #3B7042",
"@%	c #45945E",
"#%	c #295432",
"$%	c #101306",
"%%	c #171C08",
"&%	c #1F260C",
"*%	c #3C7849",
"=%	c #347046",
"-%	c #090C04",
";%	c #060703",
">%	c #0F1107",
",%	c #181C0A",
"'%	c #293111",
")%	c #31532D",
"!%	c #284B29",
"~%	c #1E240B",
"{%	c #1F250D",
"]%	c #1C230E",
"^%	c #2F3B1A",
"/%	c #273C1E",
"(%	c #35673D",
"_%	c #3B794C",
". . . . . . . . . . . . . . . . . . . . . . . . . . . . . . . . . . . . . . + @ # $ % & * = - ; > , ' ) ! ~ {                   ",
". . . . . . . . . . . . . . . . . . . . . . . . . . . . . . . . . . . . . . + ] ^ / ( _ : < [ } | , 1 2 3 4 5                   ",
". . . . . . . . . . . . . . . . . . . . . . . . . . . . . . . . . . . . . . . 6 7 8 9 0 a b c d e f g h i j k                   ",
". . . . . . . . . . . . . . . . . . . . . . . . . . . . . . . . . . . . . . . 6 7 8 l m n o p q r m n a | s t u                 ",
". . . . . . . . . . . . . . . . . . . . . . . . . . . . . . . . . . . . . . . 6 v w x y z } A B C D E F G B H I J               ",
". . . . . . . . . . . . . . . . . . . . . . . . . . . . . . . . . . . . . . + 6 K L % M N | O P 1 Q R S T U V W X Y             ",
". . . . . . . . . . . . . . . . . . . . . . . . . . . . . . . . . . . . . . . . . Z ] `  ...+.@.#.$.%.&.*.=.-.;.>.,.            ",
". . . . . . . . . . . . . . . . . . . . . . . . . . . . . . . . . . . . . . . + 6 7 8 '.).!.~.{.t ].^./.(._.:.<.[.}.|.          ",
". . . . . . . . . . . . . . . . . . . . . . . . . . . . . . . . . . . . . . . + 6 1.2.3.[ 4.5.6.7.8.9.0.a.b.O c.d.e.f.          ",
". . . . . . . . . . . . . . . . . . . . . . . . . . . . . . . . . . . . . . . . 6 g.h.i.j.k.l.m.n.o.p.q.r.s.t.j u.v.            ",
". . . . . . . . . . . . . . . . . . . . . . . . . . . . . . . . . . . . . . . + 6 g.w.x.j.y.z.A.B.C.D.E.r.F.G.~ H.              ",
". . . . . . . . . . . . . . . . . . . . . . . . . . . . . . . . . . . . . . . + 6 v I.J.K.L.M.N.O.P.W Q.Q R.>.S.T.              ",
". . . . . . . . . . . . . . . . . . . . . . . . . . . . . . . . . . . . . . . . . . Z U.V.W.X.Y.Z.q.`. +.+++@+#+                ",
". . . . . . . . . . . . . . . . . . . . . . . . . . . . . . . . . . . . . . . . . . . Z ] v $+%+&+*+=+-+;+                      ",
". . . . . . . . . . . . . . . . . . . . . . . . . . . . . . . . . . . . . . . . . . . 6 ] >+2.,+= '+)+4 !+~+{+]+^+/+            ",
". . . . . . . . . . . . . . . . . . . . . . . . . . . . . . . . . . . . . . . . . . . 6 ^ (+l _+j.K.:+<+[+}+|+1+2+3+            ",
". . . . . . . . . . . . . . . . . . . . . . . . . . . . . . . . . . . . . . . Z 6 Z . . Z $+4+5+~.6+7+:.8+q.9+&.0+              ",
". . . . . . . . . . . . . . . . . . . . . . . . . . . . . . . . . . . . . . . 6 a+8 b+c+d+e+f+g+h+i+].j+k+l+m+n+                ",
". . . . . . . . . . . . . . . . . . . . . . . . . . . . . . . . . . . . . . + 6 7 $+,+o+p+q+r+s+t+u+v+w+x+y+z+                  ",
". . . . . . . . . . . . . . . . . . . . . . . . . . . . . . . . . . . . . . Z ] v w.,+A+B+C+D+E+p.i+I %.-+F+G+H+I+J+K+          ",
". . . . . . . . . . . . . . . . . . . . . . . . . . . . . . . . . . . . . . 6 ] L+I.x M+p+N+O+P+Q+R+S+T+U+V+W+%.G.X+Y+          ",
". . . . . . . . . . . . . . . . . . . . . . . . . . . . . . . . . . . . . . + 7 w.Z+`+ @.@+@@@y.#@f+$@%@&@*@=@-@;@>@            ",
". . . . . . . . . . . . . . . . . . . . . . . . . . . . . . . . . . . . . . . . Z ,@'@$ )@!@`+[ ~@{@+.Y.}+]@^@/@(@              ",
". . . . . . . . . . . . . . . . . . . . . . . . . . . . . . . . . . . . . . . . + 6 g.w x p+_@:@<@[@}@|@1@..2@B 3@4@            ",
". . . . . . . . . . . . . . . . . . . . . . . . . . . . . . . . . . . . . . . . . 6 g.(+x.j.y.o A 5@6@7@8@G 9@Y.0@a@            ",
". . . . . . . . . . . . . . . . . . . . . . . . . . . . . . . . . . . . . . . . . 6 g.(+x.j.y.b@c@d@e@E.f@g@h@i@                ",
". . . . . . . . . . . . . . . . . . . . . . . . . . . . . . . . . . . . . . . . + 6 g.w x - ; D+| N.p B ' ].S+j@k@              ",
". . . . . . . . . . . . . . . . . . . . . . . . . . . . . . . . . . . . . . . . . + 6 7 l@m@n@o@p@q@, r@s@V t@R.4 X+0+          ",
". . . . . . . . . . . . . . . . . . . . . . . . . . . . . . . . . . . . . . . . . . + 6 ` u@* = v@w@f x@i+y@r.z@4 A@B@          ",
". . . . . . . . . . . . . . . . . . . . . . . . . . . . . . . . . . . . . . . . . . + 6 g.$+9 C@p+o D@E@F@G@H@I@J@              ",
". . . . . . . . . . . . . . . . . . . . . . . . . . . . . . . . . . . . . . . . + Z 7 # K@b+= [ q+M.O L@V M@N@                  ",
". . . . . . . . . . . . . . . . . . . . . . . . . . . . . . . . . . . . . . . . . 6 ` ).O@y.P@7+Q@R@S@T@' Q U@V@W@X@            ",
". . . . . . . . . . . . . . . . . . . . . . . . . . . . . . . . . . . . . . . . . 6 ` $+9 C@Y@Z@`@ #.#r@+#I %.&.@###            ",
". . . . . . . . . . . . . . . . . . . . . . . . . . . . . . . . . . . . . . . . . 6 ` h.,+C@p+z.$#p.%#&#*#Q =+/.=#-#            ",
". . . . . . . . . . . . . . . . . . . . . . . . . . . . . . . . . . . . . . . 6 a+# ;#>#,#'#n _ O )#!#~#{#                      ",
". . . . . . . . . . . . . . . . . . . . . . . . . . . . . . . . . . . . . . . 6 ] 8 * C@:+A.]#E@^#/#(#W ! _#                    ",
". . . . . . . . . . . . . . . . . . . . . . . . . . . . . . . . . . . . . . . 6 ] :#l m <#[#M.}#h+|#1#2#>.3#4#:@5#6#7#          ",
". . . . . . . . . . . . . . . . . . . . . . . . . . . . . . . . . . . . . . . 6 ] :#l m 8#a ~@A 9#Y.0#a#b#c#d#e#f#B g#h#        ",
". . . . . . . . . . . . . . . . . . . . . . . . . . . . . . . . . . . . . . . 6 a+l@9 j.; } i#j#+.t+3@k#W l#m#n#o#p#q#r#        ",
". . . . . . . . . . . . . . . . . . . . . . . . . . . . . . . . . . . . . . . . . . Z ] s#t#u#c.s B g#!#v#w#T+~ x#y#            ",
". . . . . . . . . . . . . . . . . . . . . . . . . . . . . . . . . . . . . . . . . . 6 ] z#I.A#B#C#D#V v#r.3 -+E#>@              ",
". . . . . . . . . . . . . . . . . . . . . . . . . . . . . . . . . . . . . . . . . . 6 ] z#I.F#<#y.G#H#T I#J#K#L#                ",
". . . . . . . . . . . . . . . . . . . . . . . . . . . . . . . . . . . . . . . . . . 6 ] >+* `+M#N#h+x@O#r.! I+P#                ",
". . . . . . . . . . . . . . . . . . . . . . . . . . . . . . . . . . . . . . . . . . + Z a+Q#j.R#E+S#e.P.W /.U+T#                ",
". . . . . . . . . . . . . . . . . . . . . . . . . . . . . . . . . . . . . . . . + 6 7 $+U#8#V#W#M.S@h+X#%.Y#Z#                  ",
". . . . . . . . . . . . . . . . . . . . . . . . . . . . . . . . . . . . . . . . + 6 g.`#Z+ $( C+.$)#+$@$#$      $$%$n.          ",
". . . . . . . . . . . . . . . . . . . . . . . . . . . . . . . . . . . . . . . + 6 6 ` $+&$m - [#O+*$P@A }#G =$t+Y.3@-$          ",
". . . . . . . . . . . . . . . . . . . . . . . . . . . . . . . . . . . . . . . 6 g.8 # 8 * A+;$>$,$n Y@q+} '$A =$L@)$            ",
". . . . . . . . . . . . . . . . . . . . . . . . . . . . . . . . . . . . . . Z ] 1.(+,+!@ $!$~${$`+n K.; ]$M.A c.^$/$            ",
". . . . . . . . . . . . . . . . . . . . . . . . . . . . . . . . . . . . . . 6 ] z#w 9 A+($N _$:$1#<$[$}$|$1$2$3$4$              ",
". . . . . . . . . . . . . . . . . . . . . . . . . . . . . . . . . . . . . . 6 v $+!.5$ $p+z.E+6$v+7$4 8$9$0$=@z@a$b$c$          ",
". . . . . . . . . . . . . . . . . . . . . . . . . . . . . . . . . . . . . . . a+L 3.d$p+q+e$E+Y.V f$>.g$h$+#v+=@F.I+i$          ",
". . . . . . . . . . . . . . . . . . . . . . . . . . . . . . . . . . . . . . . . . j$k$l$m$n$o$s@p$q$m+r$B 1 s$w+t$u$v$          ",
". . . . . . . . . . . . . . . . . . . . . . . . . . . . . . . . . . . . . . . . . + 6 ` h.9 >#B+w$Z@N.f#g#x$y$z$                ",
". . . . . . . . . . . . . . . . . . . . . . . . . . . . . . . . . . . . . . . . . + 6 ` (+A$`+Y@b@c@G B$C$D${ E$                ",
". . . . . . . . . . . . . . . . . . . . . . . . . . . . . . . . . . . . . . . . . . Z F$$+9 G$y H$..I$0$J$>.~ K$                ",
". . . . . . . . . . . . . . . . . . . . . . . . . . . . . . . . . . . . . . . . . . 6 v $+/ !@($L$9#p.+#X#M$N$O$                ",
". . . . . . . . . . . . . . . . . . . . . . . . . . . . . . . . . . . . . . . . . . 6 ` $+l O@y C+e$p@6$v+P$Q$f$R$x+S$          ",
". . . . . . . . . . . . . . . . . . . . . . . . . . . . . . . . . . . . . . . . . . 6 7 # I.T$`+C+r++.U$V$W$+#v#w+N$F+X$        ",
". . . . . . . . . . . . . . . . . . . . . . . . . . . . . . . . . . . . . . . . . . 6 7 # l Y$y._@Z$`$ %{@s .%+%R.4 @%#%        ",
". . . . . . . . . . . . . . . . . . . . . . . . . . . . . . . . . . . . . . . . . . Z 7 8 $%%%A+m &%k.z.c@T@}+*%J#=%            ",
". . . . . . . . . . . . . . . . . . . . . . . . . . . . . . . . . . . . . . . . . Z ] z#-%,@;%>%,%0 p+'%O+)%!%                  ",
". . . . . . . . . . . . . . . . . . . . . . . . . . . . . . . . . . . . . . . . . 6 7 # I.,%~%{%]%= ( ^%/%                      ",
". . . . . . . . . . . . . . . . . . . . . . . . . . . . . . . . . . . . . . . . + 6 ` $+!.x - ]$}#P+Q+(%K$3+_%                  "};
