/* XPM */
static char * wall_top_xpm[] = {
"64 64 594 2",
"  	c None",
". 	c #000000",
"+ 	c #000100",
"@ 	c #010100",
"# 	c #010200",
"$ 	c #020200",
"% 	c #020301",
"& 	c #030401",
"* 	c #040601",
"= 	c #050702",
"- 	c #060702",
"; 	c #040501",
"> 	c #020300",
", 	c #050602",
"' 	c #060803",
") 	c #080A04",
"! 	c #0A0C05",
"~ 	c #0C0F06",
"{ 	c #0E1007",
"] 	c #0F1107",
"^ 	c #0F1207",
"/ 	c #0C0E06",
"( 	c #070903",
"_ 	c #020401",
": 	c #030501",
"< 	c #0E1106",
"[ 	c #0C0F04",
"} 	c #070A03",
"| 	c #090B04",
"1 	c #0B0E05",
"2 	c #101308",
"3 	c #131608",
"4 	c #151809",
"5 	c #171B0A",
"6 	c #1C220C",
"7 	c #23290E",
"8 	c #141709",
"9 	c #111408",
"0 	c #0D0F06",
"a 	c #0A0C04",
"b 	c #0B0E06",
"c 	c #1A1F0B",
"d 	c #171C08",
"e 	c #101306",
"f 	c #1B200B",
"g 	c #20270D",
"h 	c #20260D",
"i 	c #191E0A",
"j 	c #0E1107",
"k 	c #131709",
"l 	c #181D0A",
"m 	c #1C210B",
"n 	c #2A3416",
"o 	c #313E1C",
"p 	c #32411E",
"q 	c #2C3818",
"r 	c #161909",
"s 	c #0B0D05",
"t 	c #111506",
"u 	c #161A0A",
"v 	c #141809",
"w 	c #262D10",
"x 	c #1B210B",
"y 	c #111508",
"z 	c #272F12",
"A 	c #2F3C1A",
"B 	c #334421",
"C 	c #334622",
"D 	c #2F3B1A",
"E 	c #20260E",
"F 	c #111407",
"G 	c #151A08",
"H 	c #242C10",
"I 	c #2E4120",
"J 	c #344E29",
"K 	c #36572F",
"L 	c #375930",
"M 	c #36562E",
"N 	c #375B32",
"O 	c #355C34",
"P 	c #283617",
"Q 	c #191D0A",
"R 	c #121508",
"S 	c #242B0F",
"T 	c #1D220C",
"U 	c #2C3616",
"V 	c #141A08",
"W 	c #060703",
"X 	c #181C0A",
"Y 	c #2C3C1D",
"Z 	c #35512A",
"` 	c #385D33",
" .	c #375C33",
"..	c #314420",
"+.	c #030402",
"@.	c #040602",
"#.	c #171D0B",
"$.	c #396338",
"%.	c #3A6C3F",
"&.	c #3B6E40",
"*.	c #3A683B",
"=.	c #408955",
"-.	c #408855",
";.	c #3B7244",
">.	c #2E3D1C",
",.	c #242B0E",
"'.	c #202810",
").	c #2B3414",
"!.	c #232A0E",
"~.	c #252C0F",
"{.	c #0D1006",
"].	c #080A03",
"^.	c #040502",
"/.	c #1F250C",
"(.	c #2D4321",
"_.	c #386036",
":.	c #3A693D",
"<.	c #3B6D3F",
"[.	c #3A6B3E",
"}.	c #3A693C",
"|.	c #385F35",
"1.	c #324320",
"2.	c #090C05",
"3.	c #090C04",
"4.	c #0D1007",
"5.	c #1C220B",
"6.	c #36663C",
"7.	c #3E7C4B",
"8.	c #3E7B4B",
"9.	c #3D7A4A",
"0.	c #408552",
"a.	c #43925D",
"b.	c #42925D",
"c.	c #43935D",
"d.	c #418E59",
"e.	c #3F804F",
"f.	c #386338",
"g.	c #2C3B1B",
"h.	c #253015",
"i.	c #303918",
"j.	c #2C3414",
"k.	c #2F3918",
"l.	c #2B3B1C",
"m.	c #151909",
"n.	c #22290E",
"o.	c #2A3212",
"p.	c #3B6F41",
"q.	c #3C7546",
"r.	c #3C7445",
"s.	c #3C7344",
"t.	c #3B7142",
"u.	c #386237",
"v.	c #32421F",
"w.	c #121608",
"x.	c #316039",
"y.	c #448F5A",
"z.	c #44915C",
"A.	c #44925C",
"B.	c #499962",
"C.	c #479760",
"D.	c #45945E",
"E.	c #418955",
"F.	c #42905B",
"G.	c #3F814F",
"H.	c #304D29",
"I.	c #2F3F1E",
"J.	c #323F1D",
"K.	c #323F1C",
"L.	c #344A25",
"M.	c #28381A",
"N.	c #2D3616",
"O.	c #0A0D03",
"P.	c #334824",
"Q.	c #39673A",
"R.	c #3C7243",
"S.	c #3D7546",
"T.	c #3D7848",
"U.	c #3D7948",
"V.	c #365A31",
"W.	c #1D220B",
"X.	c #252C10",
"Y.	c #1A1F0A",
"Z.	c #1E240C",
"`.	c #30532F",
" +	c #4A9A63",
".+	c #4B9B64",
"++	c #4C9C65",
"@+	c #4E9D66",
"#+	c #499660",
"$+	c #489760",
"%+	c #438D59",
"&+	c #469660",
"*+	c #3F8351",
"=+	c #2C4725",
"-+	c #344C27",
";+	c #344824",
">+	c #35562F",
",+	c #2A391B",
"'+	c #334420",
")+	c #303A19",
"!+	c #293011",
"~+	c #131A08",
"{+	c #2B3616",
"]+	c #303A18",
"^+	c #396237",
"/+	c #3B7041",
"(+	c #3D7647",
"_+	c #3E7E4D",
":+	c #3B7143",
"<+	c #3A673B",
"[+	c #0F1206",
"}+	c #0A0D05",
"|+	c #1E230C",
"1+	c #22290D",
"2+	c #242C0F",
"3+	c #262D0F",
"4+	c #2D3514",
"5+	c #151908",
"6+	c #2B3315",
"7+	c #22280E",
"8+	c #282F11",
"9+	c #272E10",
"0+	c #2C3F1F",
"a+	c #489761",
"b+	c #53A169",
"c+	c #5BA66E",
"d+	c #60A970",
"e+	c #2E4B28",
"f+	c #375830",
"g+	c #30552F",
"h+	c #3A6C40",
"i+	c #334924",
"j+	c #334521",
"k+	c #323E1C",
"l+	c #0A1306",
"m+	c #3B7343",
"n+	c #3B6F40",
"o+	c #3E7B4A",
"p+	c #3E7F4E",
"q+	c #3E7D4C",
"r+	c #36542C",
"s+	c #1A230E",
"t+	c #131609",
"u+	c #2B3313",
"v+	c #2C3413",
"w+	c #2E3615",
"x+	c #323D1B",
"y+	c #2A3112",
"z+	c #293113",
"A+	c #293316",
"B+	c #283417",
"C+	c #313D1B",
"D+	c #2E4422",
"E+	c #438957",
"F+	c #4C9B64",
"G+	c #4F9E67",
"H+	c #5DA76F",
"I+	c #5EA86F",
"J+	c #54A169",
"K+	c #509E67",
"L+	c #2E502C",
"M+	c #3A683C",
"N+	c #3A6A3D",
"O+	c #3F7147",
"P+	c #48905B",
"Q+	c #334722",
"R+	c #2D512D",
"S+	c #3D7747",
"T+	c #3B7243",
"U+	c #2D4826",
"V+	c #1C2A13",
"W+	c #121606",
"X+	c #1E250C",
"Y+	c #2B3314",
"Z+	c #313C1A",
"`+	c #313A19",
" @	c #313B19",
".@	c #33421F",
"+@	c #2F3716",
"@@	c #2F3919",
"#@	c #283011",
"$@	c #2E3918",
"%@	c #29381A",
"&@	c #2D4926",
"*@	c #344C26",
"=@	c #344924",
"-@	c #314F2A",
";@	c #32653C",
">@	c #3B774A",
",@	c #46905C",
"'@	c #519F67",
")@	c #4E9E66",
"!@	c #438B58",
"~@	c #33683F",
"{@	c #35663C",
"]@	c #518859",
"^@	c #69AE74",
"/@	c #468F5B",
"(@	c #3C7748",
"_@	c #344B26",
":@	c #121707",
"<@	c #162914",
"[@	c #38663A",
"}@	c #39673B",
"|@	c #3D7B4A",
"1@	c #3D7849",
"2@	c #396E41",
"3@	c #26391C",
"4@	c #1B210A",
"5@	c #293012",
"6@	c #21270D",
"7@	c #252F14",
"8@	c #32401E",
"9@	c #33411E",
"0@	c #334723",
"a@	c #252D12",
"b@	c #32401D",
"c@	c #2B4020",
"d@	c #335931",
"e@	c #33542D",
"f@	c #36552D",
"g@	c #335C34",
"h@	c #3C7E4E",
"i@	c #418F5A",
"j@	c #3B7B4C",
"k@	c #33673F",
"l@	c #34633C",
"m@	c #336942",
"n@	c #356B42",
"o@	c #30603A",
"p@	c #35693E",
"q@	c #489861",
"r@	c #3B7749",
"s@	c #3F8250",
"t@	c #408653",
"u@	c #408654",
"v@	c #478656",
"w@	c #5CA76F",
"x@	c #55A16A",
"y@	c #344925",
"z@	c #1F2911",
"A@	c #263418",
"B@	c #2E4F2C",
"C@	c #39683C",
"D@	c #3D7949",
"E@	c #346239",
"F@	c #2A4020",
"G@	c #303D1B",
"H@	c #243015",
"I@	c #262E10",
"J@	c #272F10",
"K@	c #2D3515",
"L@	c #304321",
"M@	c #283719",
"N@	c #344823",
"O@	c #2E4725",
"P@	c #355A31",
"Q@	c #386339",
"R@	c #325932",
"S@	c #34633A",
"T@	c #3E8754",
"U@	c #42925C",
"V@	c #408956",
"W@	c #243C1F",
"X@	c #303B19",
"Y@	c #1B240E",
"Z@	c #1E371D",
"`@	c #458F5B",
" #	c #3B7A4B",
".#	c #448353",
"+#	c #509F67",
"@#	c #438C58",
"##	c #3D7B4B",
"$#	c #32522D",
"%#	c #222B11",
"&#	c #31401D",
"*#	c #354D28",
"=#	c #35542D",
"-#	c #2C4826",
";#	c #2F542F",
">#	c #376A3E",
",#	c #386B3F",
"'#	c #2C4F2C",
")#	c #2F4422",
"!#	c #36552E",
"~#	c #36542D",
"{#	c #293D1E",
"]#	c #31411E",
"^#	c #2E3716",
"/#	c #2E5430",
"(#	c #448E5A",
"_#	c #3A653B",
":#	c #354C27",
"<#	c #354E28",
"[#	c #324D29",
"}#	c #304925",
"|#	c #354D27",
"1#	c #2F5530",
"2#	c #315E37",
"3#	c #33633B",
"4#	c #418C58",
"5#	c #42915B",
"6#	c #2F6039",
"7#	c #2D3615",
"8#	c #273A1C",
"9#	c #377347",
"0#	c #397247",
"a#	c #438F5A",
"b#	c #3E7B4D",
"c#	c #428C59",
"d#	c #347146",
"e#	c #21472A",
"f#	c #252F13",
"g#	c #396439",
"h#	c #39663B",
"i#	c #355E36",
"j#	c #345C34",
"k#	c #385E34",
"l#	c #386035",
"m#	c #386136",
"n#	c #356137",
"o#	c #304C28",
"p#	c #334522",
"q#	c #354F29",
"r#	c #2F4B28",
"s#	c #48935E",
"t#	c #4A9560",
"u#	c #519A64",
"v#	c #498857",
"w#	c #3A643A",
"x#	c #35502A",
"y#	c #447D4E",
"z#	c #35522C",
"A#	c #325B34",
"B#	c #375D33",
"C#	c #39693D",
"D#	c #3B784C",
"E#	c #4A9962",
"F#	c #458E5A",
"G#	c #34673E",
"H#	c #408854",
"I#	c #418B57",
"J#	c #33663D",
"K#	c #428F5A",
"L#	c #367649",
"M#	c #2E4321",
"N#	c #334320",
"O#	c #31512B",
"P#	c #428A58",
"Q#	c #499761",
"R#	c #3A7548",
"S#	c #3D7B4D",
"T#	c #438C59",
"U#	c #2F633E",
"V#	c #242B10",
"W#	c #1C2811",
"X#	c #36532C",
"Y#	c #3A6A3E",
"Z#	c #3B6D40",
"`#	c #3C7545",
" $	c #2F522E",
".$	c #3E7D4F",
"+$	c #4E9C65",
"@$	c #57A36B",
"#$	c #60AA71",
"$$	c #5AA46C",
"%$	c #519460",
"&$	c #54A26A",
"*$	c #4B9761",
"=$	c #3A7245",
"-$	c #1B3B21",
";$	c #34673D",
">$	c #1F4429",
",$	c #448B59",
"'$	c #52A068",
")$	c #3B7C4D",
"!$	c #3D7F4F",
"~$	c #316A41",
"{$	c #33562F",
"]$	c #36572E",
"^$	c #234123",
"/$	c #336A42",
"($	c #3D7F51",
"_$	c #448B5A",
":$	c #3F8152",
"<$	c #356E45",
"[$	c #293719",
"}$	c #2D4C29",
"|$	c #3B7042",
"1$	c #3A6C3E",
"2$	c #3B6C3F",
"3$	c #3D7748",
"4$	c #3E7F4D",
"5$	c #34653C",
"6$	c #3A7043",
"7$	c #39663A",
"8$	c #32633B",
"9$	c #58A46C",
"0$	c #56A36B",
"a$	c #55A26B",
"b$	c #1F3E22",
"c$	c #386C41",
"d$	c #32673E",
"e$	c #418153",
"f$	c #498E5C",
"g$	c #397448",
"h$	c #397447",
"i$	c #244123",
"j$	c #35693F",
"k$	c #283D1F",
"l$	c #36522B",
"m$	c #2D512E",
"n$	c #448956",
"o$	c #418452",
"p$	c #3D7A49",
"q$	c #3E7A4A",
"r$	c #3F8451",
"s$	c #2C5A35",
"t$	c #366F43",
"u$	c #294F2D",
"v$	c #2D5E39",
"w$	c #45935D",
"x$	c #4F9E66",
"y$	c #30623D",
"z$	c #34693F",
"A$	c #336E43",
"B$	c #366F46",
"C$	c #357146",
"D$	c #2F5C35",
"E$	c #408754",
"F$	c #2C5C37",
"G$	c #243D20",
"H$	c #33633C",
"I$	c #45905C",
"J$	c #4F9A64",
"K$	c #488F5B",
"L$	c #3F7D4C",
"M$	c #3F8552",
"N$	c #2E5F39",
"O$	c #336D43",
"P$	c #244E2F",
"Q$	c #438857",
"R$	c #48905D",
"S$	c #3C794D",
"T$	c #418D58",
"U$	c #38764A",
"V$	c #31663E",
"W$	c #43925C",
"X$	c #37774A",
"Y$	c #3C7345",
"Z$	c #264929",
"`$	c #367147",
" %	c #3F8454",
".%	c #458E5B",
"+%	c #458C5A",
"@%	c #58A26B",
"#%	c #438E59",
"$%	c #3F7F4E",
"%%	c #3F7D4D",
"&%	c #428754",
"*%	c #428956",
"=%	c #408452",
"-%	c #367246",
";%	c #2F633D",
">%	c #44945E",
",%	c #418C59",
"'%	c #2D5D38",
")%	c #346C43",
"!%	c #27512F",
"~%	c #356F45",
"{%	c #408B57",
"]%	c #408553",
"^%	c #2F5937",
"/%	c #3D7A4C",
"(%	c #3C7B4D",
"_%	c #3D8151",
":%	c #499963",
"<%	c #356E43",
"[%	c #3A784B",
"}%	c #45915C",
"|%	c #2F613B",
"1%	c #46965F",
"2%	c #3B7E4E",
"3%	c #3E8251",
"4%	c #3E804F",
"5%	c #23492A",
"6%	c #47935E",
"7%	c #47955F",
"8%	c #295533",
"9%	c #38794B",
"0%	c #45955F",
"a%	c #3D8252",
"b%	c #2A5835",
"c%	c #3C7D4F",
". . . . . . . . . . . . . . . . . . . . . . . . . . . . . . . . . . . . . . . . . . . . . . . . . . . . . . . . . . . . . . . . ",
". . . . . . . . . . . . . . . . . . . . . . . . . . . . . . . . . . . . . . . . . . . . . . . . . . . . . . . . . . . . . . . . ",
". . . . . . . . . . . . . . . . . . . . . . . . . . . . . . . . . . . . . . . . . . . . . . . . . . . . . . . . . . . . . . . . ",
". . . . . . . . . . . . . . . . . . . . . . . . . . . . . . . . . . . . . . . . . . . . . . . . . . . . . . . . . . . . . . . . ",
". . . . . . . . . . . . . . . . . . . . . . . . . . . . . . . . . . . . . . . . . . . . . . . . . . . . . . . . . . . . . . . . ",
". . . . . . . . . . . . . . . . . . . . . . . . . . . . . . . . . . . . . . . . . . . . . . . . . . . . . . . . . . . . . . . . ",
". . . . . . . . . . . . . . . . . . . . . . . . . . . . . . . . . . . . . . . . . . . . . . . . . . . . . . . . . . . . . . . . ",
". . . . . . . . . . . . . . . . . . . . . . . . . . . . . . . . . . . . . . . . . . . . . . . . . . . . . . . . . . . . . . . . ",
". . . . . . . . . . . . . . . . . . . . . . . . . . . . . . . . . . . . . . . . . . . . . . . . . . . . . . . . . . . . . . . . ",
". . . . . . . . . . . . . . . . . . . . . . . . . . . . . . . . . . . . . . . . . . . . . . . . . . . . . . . . . . . . . . . . ",
". . . . . . . . . . . . . . . . . . . . . . . . . . . . . . . . . . . . . . . . . . . . . . . . . . . . . . . . . . . . . . . . ",
". . . . . . . . . . . . . . . . . . . . . . . . . . . . . . . . . . . . . . . . . . . . . . . . . . . . . . . . . . . . . . . . ",
". . . . . . . . . . . . . . . . . . . . . . . . . . . . . . . . . . . . . . . . . . . . . . . . . . . . . . . . . . . . . . . . ",
". . . . . . . . . . . . . . . . . . . . . . . . . . . . . . . . . . . . . . . . . . . . . . . . . . . . . . . . . . . . . . . . ",
". . . . . . . . . . . . . . . . . . . . . . . . . . . . . . . . . . . . . . . . . . . . . . . . . . . . . . . . . . . . . . . . ",
". . . . . . . . . . . . . . . . . . . . . . . . . . . . . . . . . . . . . . . . . . . . . . . . . . . . . . . . . . . . . . . . ",
". . . . . . . . . . . . . . . . . . . . . . . . . . . . . . . . . . . . . . . . . . . . . . . . . . . . . . . . . . . . . . . . ",
". . . . . . . . . . . . . . . . . . . . . . . . . . . . . . . . . . . . . . . . . . . . . . . . . . . . . . . . . . . . . . . . ",
". . . . . . . . . . . . . . . . . . . . . . . . . . . . . . . . . . . . . . . . . . . . . . . . . . . . . . . . . . . . . . . . ",
". . . . . . . . . . . . . . . . . . . . . . . . . . . . . . . . . . . . . . . . . . . . . . . . . . . . . . . . . . . . . . . . ",
". . . . . . . . . . . . . . . . . . . . . . . . . . . . . . . . . . . . . . . . . . . . . . . . . . . . . . . . . . . . . . . . ",
". . . . . . . . . . . . . . . . . . . . . . . . . . . . . . . . . . . . . . . . . . . . . . . . . . . . . . . . . . . . . . . . ",
". . . . . . . . . . . . . . . . . . . . . . . . . . . . . . . . . . . . . . . . . . . . . . . . . . . . . . . . . . . . . . . . ",
". . . . . . . . . . . . . . . . . . . . . . . . . . . . . . . . . . . . . . . . . . . . . . . . . . . . . . . . . . . . . . . . ",
". . . . . . . . . . . . . . . . . . . . . . . . . . . . . . . . . . . . . . . . . . . . . . . . . . . . . . . . . . . . . . . . ",
". . . . . . . . . . . . . . . . . . . . . . . . . . . . . . . . . . . . . . . . . . . . . . . . . . . . . . . . . . . . . . . . ",
". . . . . . . . . . . . . . . . . . . . . . . . . . . . . . . . . . . . . . . . . . . . . . . . . . . . . . . . . . . . . . . . ",
". . . . . . . . . . . . . . . . . . . . . . . . . . . . . . . . . . . . . . . . . . . . . . . . . . . . . . . . . . . . . . . . ",
". . . . . . . . . . . . . . . . . . . . . . . . . . . . . . . . . . . . . . . . . . . . . . . . . . . . . . . . . . . . . . . . ",
". . . . . . . . . . . . . . . . . . . . . . . . . . . . . . . . . . . . . . . . . . . . . . . . . . . . . . . . . . . . . . . . ",
". . . . . . . . . . . . . . . . . . . . . . . . . . . . . . . . . . . . . . . . . . . . . . . . . . . . . . . . . . . . . . . . ",
". . . . . . . . . . . . . . . . . . . . . . . . . . . . . . . . . . . . . . . . . . . . . . . . . . . . . . . . . . . . . . . . ",
". . . . . . . . . . . . . . . . . . . . . . . . . . . . . . . . . . . . . . . . . . . . . . . . . . . . . . . . . . . . . . . . ",
". . . . . . . . . . . . . . . . . . . . . . . . . . . . . . . . . . . . . . . . . . . . . . . . . . . . . . . . . . . . . . . . ",
". . . . . . . . . . . . . + @ # # # # # @ + . . . . . . + # # . . . . . . . . . . . . . . . . . . . . . . . . . . . . . . . . . ",
". . . . . . . . . . + @ $ % & * = = - = ; & > # . + # # # > , % . . . . . . . . . . . . @ @ + . . . . . . . . . . . . . . . . . ",
". . . . . . . . . . . $ , ' ) ! ~ { ] ^ / ! ( , _ # : & : , < [ . . . . . . . . . @ % } ! | = % + . . . . . . . . . . . . . . . ",
". . . . . . . . . . . + ' 1 2 3 4 5 6 7 5 8 9 0 ) , a a ) b c d . . . . . . . @ & - e f g h i j , # . . . . . . . . . . . . . . ",
". . . . . . . . . . + # & k l m g n o p q g f r 2 s t u 9 v w x . . . . . . % ' s y z A B C D E F - # . . . . . . . . . . . . . ",
"+ . . . . . . . @ @ # > , G H I J K L M N O P h Q R i S f T U V # . . . + W s 9 X Y Z L `  .M ..S R +.. . . . . . . @ > _ % > # ",
"@.> . . + + @ # > > & - 1 #.L $.%.&.*.&.=.-.;.>.,.m '.).!.~.D {.].& + . ^.9 5 /.(._.:.<.[.}.|.|.1.z @.@ + + + + @ : - ) 2.3.) ( ",
"4.| @.@ # > > _ @.3.) ~ R 5.6.7.8.9.0.a.b.c.d.e.f.g.h.i.j.k.l.m m.1 , + ( m n.o. .p.q.r.s.t.:.[.u.v.& # # # # # ( s ] 9 k k w.2 ",
"X 8 { ( : - @.= s l ^ v i w x.y.z.A.B.C.D.E.D.F.G.H.I.J.K.L.M.N.~.f 9 ^.O.S o.P.Q.R.r.S.T.U.s.p.&.V.= , ; ; @., 9 u c W.m W.W.x ",
"7 /.c 3 3.R b ~ 4 X.Y.Z.h o.`. +.+.+++@+#+$+%+&+*+=+-+;+-+>+,+'+)+!+/.e ~+{+]+K ^+p./+t.(+_+9.q.:+<+[+/ }+}+0 [+|+1+,.,.2+~.3+3+",
"4+w !./.5+Z.u r Z.6+7+8+9+N.0+a+ +.+b+c+d+b+++B.7.e+f+M |.g+h+i+j+k+j./.l+V.N &.r.T.m+n+r.o+p+q+p.r+s+5 t+t+5 5+9+o.u+u+v+4+w+w+",
"x+)+8+y+/.z+g Z.X.A+B+C+w+C+D+E+B.F+G+H+I+J+K+ +_+L+M+N+s.O+P+;.Q+C p N.^.R+u.s.S+7.R.}.r.9.q+T+U+V+W+n.f f Z.X+Y+Z+k+`+`+Z+Z+ @",
".@.@C++@X.@@#@3+$@%@&@*@'+=@-@;@>@,@K+b+b+'@)@!@~@{@T.7.G.]@^@/@(@_@C .@:@<@[@}@S+|@(+s.(+1@2@3@8+~.4@5@S 6@n.o.7@B j+8@9@.@.@C+",
"0@0@0@J.a@b@i.k.P.c@d@e@f@L g@h@i@j@k@l@m@n@o@p@q@r@s@t@u@v@w@x@t@r.y@Q+z@Z.A@B@C@D@q.r.r.E@F@0@j+p G@H@A I@J@K@A+L@L.C Q+0@0@C ",
"_@_@_@L.M@B .@N@O@P@Q@R@}@N+S@T@U@V@W@X@Y@  Z@q+B.`@ #d.F..#b++#@#*+##$#%#&#*#=#-#;#>#,#'#)#M !#~#f+r+ .{#]#^#)+N@/#(#_#:#_@_@_@",
"<#-+-+[#}#|#<#N 1#p.M+2#T.7.3#4#5#6#7#1.8#    9#B..+0#a#&+b#.+q@c#d#e#f#_@L $.:.g#h#i#j#|.k#l#g#<+m#g#%.n#o#N@p#q#r#s#t#u#v#w#x#",
"y#x#z#A#B# ._.C#D#E#F#G#H#I#J#K#L#M#N#:#O#      P# +Q#R#S#`@T#U#V#~.W#X#_.N+/+t.&.%.<.Y#<+%.t./+Z#g#`#S+q. $^+~#f+u..$+$@$#$$$%$",
"&$*$=$-$C#p.q.;$>$,$'$R#a.)$!$~$  {$]$L <+^$      /$($_$:$<$    [$o }$}.|$T+t.t./+1$2$%.q.3$(+S.n+`#e.4$7.5$6$}@7$:+8$$++$9$0$a$",
"+#t#b$  c$_+*+d$    e$f$g$h$      i$Z#N+R.j$                    k$l$m$n$o$p$q$r.m+/+/+(+S+3$3$`#s.s@t@r$s@s$t$7.S+p+u$v$w$x$x$G+",
"y$      z$u@I#A$      B$C$          D$_+G.E$F$                  G$}@V.H$I$B.B.q@ +J$K$L$(+S+(+s.T.M$E$t@N$  O$I#t@I#    P$Q$R$S$",
"          T$c.U$                      V$d.W$X$                    9.R.Y$Z$`$ %.%+%@%K+q@#%$%%%&%*%=%E$-%    ;%>%a.,%            ",
"          '%@#)%                        !%~%                      {%]%*+            ^%/%(%_%%+B.:%=%<%        [%}%|%            ",
"                                                                  1%>%2%              3%M$4%5%                                  ",
"                                                                  6%7%8%              9%d.4#                                    ",
"                                                                                      U$0%a%                                    ",
"                                                                                      b%c%                                      ",
"                                                                                                                                ",
"                                                                                                                                ",
"                                                                                                                                ",
"                                                                                                                                "};
